<svg xmlns="http://www.w3.org/2000/svg" xmlns:xlink="http://www.w3.org/1999/xlink" width="2000" zoomAndPan="magnify" viewBox="0 0 1500 1499.999933" height="2000" preserveAspectRatio="xMidYMid meet" version="1.0"><defs><clipPath id="6fdbd94ad2"><path d="M 76.625 0 L 1440.875 0 L 1440.875 1481.25 L 76.625 1481.25 Z M 76.625 0 " clip-rule="nonzero"/></clipPath><clipPath id="900d3f2eac"><path d="M 737.691406 1224.910156 L 758.78125 1224.910156 L 758.78125 1246 L 737.691406 1246 Z M 737.691406 1224.910156 " clip-rule="nonzero"/></clipPath><clipPath id="1904d1daa3"><path d="M 748.238281 1224.910156 C 742.414062 1224.910156 737.691406 1229.632812 737.691406 1235.457031 C 737.691406 1241.28125 742.414062 1246 748.238281 1246 C 754.0625 1246 758.78125 1241.28125 758.78125 1235.457031 C 758.78125 1229.632812 754.0625 1224.910156 748.238281 1224.910156 Z M 748.238281 1224.910156 " clip-rule="nonzero"/></clipPath><clipPath id="bb3bf92067"><path d="M 0.691406 0.910156 L 21.78125 0.910156 L 21.78125 22 L 0.691406 22 Z M 0.691406 0.910156 " clip-rule="nonzero"/></clipPath><clipPath id="42095e5e23"><path d="M 11.238281 0.910156 C 5.414062 0.910156 0.691406 5.632812 0.691406 11.457031 C 0.691406 17.28125 5.414062 22 11.238281 22 C 17.0625 22 21.78125 17.28125 21.78125 11.457031 C 21.78125 5.632812 17.0625 0.910156 11.238281 0.910156 Z M 11.238281 0.910156 " clip-rule="nonzero"/></clipPath><clipPath id="7a2284ab41"><rect x="0" width="22" y="0" height="22"/></clipPath></defs><rect x="-150" width="1800" fill="#ffffff" y="-149.999993" height="1799.99992" fill-opacity="1"/><rect x="-150" width="1800" fill="#ffffff" y="-149.999993" height="1799.99992" fill-opacity="1"/><g clip-path="url(#6fdbd94ad2)"><path fill="#036b39" d="M 189.550781 666.054688 C 187.84375 688.945312 195.652344 709.929688 204.144531 730.28125 C 216.214844 759.210938 221.171875 788.855469 218.597656 819.917969 C 218.332031 823.078125 219.054688 826.550781 216.222656 829.347656 C 211.007812 803.046875 205.835938 776.957031 200.664062 750.867188 C 196.519531 773.96875 197.097656 797.023438 198.289062 820.144531 C 199.625 846.070312 208.847656 870.621094 210.996094 896.378906 C 212.492188 914.277344 211.835938 932.03125 207.511719 949.660156 C 204.335938 928.875 202.964844 907.914062 197.84375 887.410156 C 191.875 921.132812 190.476562 955.105469 190.613281 989.734375 C 189.855469 987.222656 189.09375 984.71875 188.34375 982.207031 C 176.054688 941.226562 176.964844 899.984375 185.390625 858.457031 C 188.339844 843.921875 189.0625 829.105469 185.882812 814.03125 C 179.664062 840.058594 173.449219 866.085938 167.230469 892.117188 C 163.28125 864.207031 164.925781 836.820312 173.832031 810.015625 C 178.457031 796.101562 184.527344 782.699219 187.617188 768.230469 C 192.082031 747.34375 191.59375 725.101562 184.5 701.683594 C 178.683594 731.496094 169.800781 757.949219 166.632812 787.726562 C 163.355469 782.121094 163.640625 777.761719 163.203125 773.628906 C 159.023438 733.886719 168.988281 696.214844 180.117188 658.714844 C 188.378906 630.863281 198.535156 603.582031 205.300781 575.273438 C 205.839844 573.011719 207.308594 570.867188 205.441406 567.578125 C 186.957031 588.546875 178.621094 613.867188 169.863281 639.515625 C 169.863281 632.335938 169.863281 625.152344 169.863281 617.960938 C 170.375 602.261719 177.714844 589.277344 186.5625 577.058594 C 198.859375 560.058594 211.601562 543.382812 223.988281 526.445312 C 234.097656 512.625 246.839844 501.960938 261.796875 493.800781 C 264.425781 492.367188 267.179688 491.101562 269.613281 489.382812 C 272.042969 487.667969 274.464844 485.527344 274.488281 482.269531 C 274.503906 480.246094 272.253906 479.597656 270.703125 478.8125 C 266.316406 476.589844 267.527344 483.132812 263.683594 482.957031 C 263.199219 474.4375 256.421875 472.746094 249.726562 470.960938 C 242.390625 469.003906 234.921875 468.609375 227.398438 469.175781 C 215.242188 470.085938 208.726562 476.296875 207.960938 488.445312 C 207.476562 496.148438 207.871094 503.902344 207.871094 514.125 C 205.132812 506.3125 203.457031 500.953125 198.933594 494.929688 C 193.914062 521.503906 197.082031 548.414062 183.101562 573.488281 C 182.546875 564.152344 182 556.484375 181.664062 548.804688 C 181.328125 541.058594 181.539062 533.308594 183.082031 523.980469 C 181.257812 526.238281 180.449219 526.847656 180.175781 527.640625 C 179.015625 531.042969 177.894531 534.464844 176.96875 537.9375 C 169.957031 564.207031 167.226562 590.871094 169.859375 618.003906 C 166.066406 617.289062 165.824219 613.96875 165.179688 611.214844 C 159.496094 586.9375 158.539062 562.550781 163.6875 538.035156 C 167.226562 521.195312 175.078125 506.613281 186.257812 493.628906 C 192.082031 486.867188 198.242188 480.28125 202.941406 470.773438 C 188.347656 471.109375 175.769531 474.449219 164.988281 482.878906 C 135.070312 506.269531 121.179688 555.265625 133.949219 590.710938 C 145.449219 622.640625 152.675781 655.226562 147.789062 692.308594 C 141.015625 660.585938 129.214844 632.914062 125.210938 603.039062 C 116.539062 625.546875 118.019531 648.316406 123.132812 670.839844 C 133.835938 718.007812 137.8125 765.628906 134.734375 813.867188 C 134.585938 816.25 134.390625 818.632812 134.082031 820.996094 C 134.03125 821.398438 133.3125 821.710938 132.085938 822.773438 C 124.585938 778.796875 122.476562 734.648438 113.851562 691.335938 C 111.800781 691.59375 111.699219 693.167969 111.730469 694.398438 C 112.558594 728.554688 108.832031 762.800781 112.871094 796.867188 C 115.019531 815 123.058594 831.960938 124.511719 850.378906 C 125.964844 868.746094 124.34375 886.691406 119.046875 906.878906 C 116.890625 884.273438 114.976562 864.199219 113.0625 844.121094 C 106.292969 875.105469 102.359375 906.125 103.457031 937.777344 C 99.832031 932.316406 96.292969 916.132812 94.757812 899.707031 C 92.8125 878.886719 94.460938 858.394531 99.304688 838.070312 C 102.492188 824.707031 103.011719 811.125 100.394531 797.304688 C 96.40625 819.195312 92.421875 841.085938 88.433594 862.976562 C 84.90625 841.671875 83.5625 820.453125 88.847656 799.328125 C 94.296875 777.570312 101.949219 756.21875 100.988281 733.285156 C 100.921875 731.648438 101.976562 729.796875 99.230469 727.84375 C 92.734375 748.851562 86.335938 769.535156 79.9375 790.222656 C 78.03125 774.824219 80.039062 759.714844 82.945312 744.71875 C 86.433594 726.699219 92.304688 709.375 99.519531 692.546875 C 107.886719 673.023438 108.332031 652.59375 107.144531 631.785156 C 95.191406 655.3125 85.003906 679.496094 77.097656 704.660156 C 75.496094 674.339844 79.679688 645.472656 97.859375 620.09375 C 108.492188 605.253906 116.738281 589.507812 117.453125 570.75 C 117.957031 569.480469 118.640625 568.167969 117.101562 567.1875 C 117.015625 567.132812 116.0625 568.425781 115.515625 569.097656 C 103.984375 582.664062 95.085938 597.828125 87.460938 616.375 C 86.015625 604.449219 88.28125 595.265625 91.863281 586.359375 C 95.691406 576.828125 101.152344 568.234375 107.972656 560.539062 C 120.914062 545.921875 127.863281 528.378906 133.777344 509.746094 C 128.527344 509.328125 127.597656 513.160156 126 515.578125 C 119.554688 525.324219 113.46875 535.308594 107.175781 545.15625 C 106.296875 546.535156 105.679688 549.148438 103.472656 548.226562 C 100.257812 546.890625 102.933594 544.9375 103.457031 543.160156 C 113.636719 508.851562 135.972656 485.132812 167.570312 469.472656 C 170.652344 467.945312 173.738281 466.433594 178.878906 463.902344 C 162.238281 462.894531 149.84375 469.90625 136.734375 474.226562 C 150.542969 458.058594 168.503906 449.660156 188.8125 454.019531 C 210.382812 458.648438 232.335938 457.558594 253.738281 461.902344 C 256.488281 462.460938 258.96875 463.117188 259.921875 459.195312 C 262.566406 448.339844 270.195312 441.148438 278.570312 434.613281 C 290.828125 425.042969 298.757812 412.679688 302.671875 397.679688 C 303.878906 395.949219 304.925781 393.640625 303.019531 392.410156 C 301.816406 391.632812 301.402344 394.242188 300.761719 395.425781 C 290.574219 411.734375 278.421875 424.007812 264.558594 430.839844 C 288.929688 400.566406 299.214844 362.039062 325.148438 331.425781 C 313.628906 328.214844 306.425781 337.574219 296.316406 337.886719 C 305.496094 326.246094 316.582031 318.898438 330.085938 316.585938 C 363.25 310.902344 396.59375 307.101562 430.285156 312.171875 C 439.867188 313.613281 448.703125 317.386719 457.738281 320.550781 C 458.675781 321.148438 459.726562 321.859375 460.5625 320.660156 C 460.753906 320.386719 459.894531 319.371094 459.519531 318.695312 C 443.578125 296.15625 427.28125 273.90625 406.332031 255.597656 C 400.222656 250.257812 393.796875 245.359375 385.765625 243.09375 C 376.492188 240.476562 369.125 241.992188 363.109375 250.582031 C 354.160156 263.371094 343.742188 275.039062 332.140625 285.542969 C 329.445312 287.984375 327.214844 291.9375 321.605469 290.277344 C 332.082031 275.625 342.394531 261.238281 351.597656 245.902344 C 330.992188 242.894531 309.269531 255.820312 303.714844 274.773438 C 300.570312 285.511719 298.660156 296.609375 295.835938 309.132812 C 292.910156 297.457031 292.675781 287.28125 292.03125 277.152344 C 292.070312 276.359375 292.421875 275.058594 292.097656 274.863281 C 290.980469 274.183594 290.960938 275.285156 290.828125 276.027344 C 282.972656 287.246094 281.445312 300.277344 280.195312 313.371094 C 278.917969 326.796875 277.847656 340.246094 276.320312 353.640625 C 275.910156 357.210938 276.625 361.660156 271.726562 364.140625 C 269.324219 343.480469 266.382812 323.214844 266.082031 300.6875 C 262.4375 307.363281 261.230469 312.824219 260.980469 318.425781 C 260.625 326.507812 260.070312 334.660156 260.71875 342.691406 C 262.953125 370.453125 258.136719 396.964844 248.230469 422.816406 C 244.71875 431.976562 241.363281 441.25 239.144531 450.976562 C 234.175781 434.117188 240.160156 417.746094 241.632812 400.980469 C 234.835938 405.714844 229.199219 413.4375 221.25 428.222656 C 220.222656 430.136719 220.5 434.507812 216.726562 432.910156 C 213.828125 431.679688 214.984375 427.800781 215.628906 425.664062 C 219.320312 413.378906 223.074219 401.132812 231.441406 390.835938 C 238.597656 382.03125 245.8125 373.117188 248.792969 361.753906 C 249.6875 359.945312 250.605469 358.136719 248.972656 356.246094 C 248.242188 357.433594 247.507812 358.617188 246.777344 359.804688 C 237.269531 373.617188 222.875 381.421875 209.230469 390.058594 C 199.292969 396.347656 188.984375 402.046875 177.679688 408.695312 C 181.105469 401.460938 185.933594 396.523438 190.660156 391.632812 C 200.492188 381.457031 211.292969 372.324219 223.332031 364.898438 C 238.539062 355.519531 247.625 341.980469 251.679688 324.9375 C 254.316406 313.847656 258.621094 303.015625 257.761719 291.085938 C 243.347656 309.542969 232.507812 329.960938 222.460938 351.269531 C 219.042969 326.132812 237.910156 288.632812 260.28125 276.78125 C 270.941406 271.132812 280.984375 264.800781 290.394531 257.25 C 306.578125 244.265625 324.675781 235.296875 345.46875 232.355469 C 348.921875 231.867188 352.316406 230.957031 357.128906 229.949219 C 348.695312 222.988281 340.28125 223.355469 331.851562 225.039062 C 313.457031 228.71875 296.820312 237.25 279.75 244.539062 C 272.3125 247.71875 264.984375 251.171875 257.703125 254.695312 C 254.664062 256.167969 251.707031 257 246.421875 255.851562 C 279.621094 229.25 311.707031 204.933594 356.894531 218.226562 C 357.628906 218.210938 358.359375 218.195312 359.09375 218.183594 C 358.816406 217.570312 358.535156 216.957031 358.257812 216.34375 C 347.273438 205.707031 334.527344 197.640625 320.859375 190.832031 C 331.890625 188.914062 340.710938 191.023438 353.445312 198.386719 C 363.167969 204.007812 371.417969 211.359375 378.871094 219.65625 C 385.695312 227.253906 393.445312 233.75 402.730469 240.398438 C 403.542969 234.6875 403.789062 229.71875 405.011719 225.003906 C 408.171875 212.808594 414.539062 202.339844 423.886719 193.917969 C 443.664062 176.089844 466.980469 166.960938 493.621094 167.675781 C 499.980469 167.84375 502.652344 165.75 505.023438 160.46875 C 517.894531 131.796875 534.511719 105.5625 556.867188 83.269531 C 562.09375 78.054688 568.015625 73.539062 574.515625 67.929688 C 563.144531 65.828125 555.40625 74.5 544.351562 74.746094 C 556.558594 62.6875 570.242188 53.554688 585.566406 53.847656 C 616.699219 54.449219 643.785156 41.542969 672.257812 32.886719 C 702.886719 23.582031 734.007812 18.03125 766.269531 21.789062 C 776.578125 22.992188 786.464844 20.460938 796.023438 16.347656 C 831.96875 0.871094 869.1875 -4.695312 907.613281 4.441406 C 933.070312 10.492188 953.855469 24.027344 967.101562 47.394531 C 968.917969 50.601562 971.515625 51.976562 974.71875 53.070312 C 997.566406 60.871094 1019.867188 61.25 1041.660156 49.21875 C 1062.890625 37.496094 1085.121094 28.941406 1109.984375 29.710938 C 1116.871094 29.921875 1123.722656 30.324219 1132.292969 32.359375 C 1118.070312 36.261719 1104.992188 38.015625 1092.164062 43.238281 C 1098.492188 47.25 1105.378906 47.671875 1111.835938 48.945312 C 1129.980469 52.519531 1147.21875 58.113281 1162.324219 69.15625 C 1167.667969 73.058594 1174.050781 73.300781 1180.210938 74.519531 C 1211.074219 80.636719 1230.785156 99.492188 1243.015625 130.414062 C 1226.015625 115.671875 1213.226562 99.476562 1194.269531 91.03125 C 1193.484375 90.8125 1192.234375 90.179688 1192 90.441406 C 1190.910156 91.679688 1191.878906 92.476562 1192.96875 93.101562 C 1199.460938 104.394531 1207.75 113.785156 1218.507812 121.515625 C 1241.722656 138.191406 1261.535156 157.722656 1269.886719 186.53125 C 1272.179688 194.445312 1268.816406 202.675781 1272.832031 210.179688 C 1273.40625 211.253906 1273.265625 213.398438 1271.007812 213.34375 C 1268.828125 213.292969 1269.445312 211.339844 1269.058594 210.027344 C 1264.707031 195.265625 1257.761719 181.695312 1249.710938 168.675781 C 1248.179688 166.199219 1247.113281 162.53125 1242.777344 162.71875 C 1250.507812 187.003906 1259.515625 210.203125 1271.644531 232.25 C 1279.644531 246.789062 1281.429688 267.734375 1277.410156 278.234375 C 1272.023438 259.71875 1263.90625 242.503906 1256.21875 224.964844 C 1254.304688 251.492188 1252.011719 277.898438 1265.105469 302.628906 C 1267.019531 306.246094 1269.328125 307.925781 1273.40625 308.144531 C 1295.183594 309.308594 1315.390625 317.679688 1336.222656 322.875 C 1358.199219 328.351562 1370.246094 346.136719 1378.007812 366.660156 C 1373.390625 365.367188 1371.238281 361.039062 1367.753906 358.351562 C 1356.757812 349.867188 1348.429688 337.71875 1334.085938 333.828125 C 1333.742188 333.464844 1333.167969 332.746094 1333.097656 332.792969 C 1332.128906 333.429688 1332.511719 334.144531 1333.105469 334.828125 C 1337.722656 341.445312 1343.164062 347.285156 1349.96875 351.65625 C 1359.929688 358.050781 1369.878906 364.445312 1378.796875 372.289062 C 1389.980469 385.585938 1400.601562 399.253906 1407.96875 417.972656 C 1390.378906 402.199219 1376.617188 385.320312 1358.375 373.515625 C 1367.957031 389.710938 1378.199219 405.144531 1392.070312 417.894531 C 1412.96875 437.089844 1426.972656 460.230469 1431.347656 488.65625 C 1431.707031 491.007812 1435.339844 492.757812 1431.976562 496.445312 C 1419.019531 479.519531 1409.203125 460.828125 1397.597656 443.332031 C 1397.257812 441.636719 1396.785156 439.210938 1394.621094 440.675781 C 1392.921875 441.832031 1395.785156 443.199219 1395.953125 444.703125 C 1399.867188 464.40625 1409.195312 481.828125 1418.683594 499.21875 C 1432.625 524.773438 1441.085938 551.863281 1440.808594 581.398438 C 1430.308594 558.351562 1414.183594 538.042969 1408.753906 512.554688 C 1405.972656 532.542969 1409.683594 551.425781 1415.925781 569.960938 C 1420.320312 583.011719 1424.839844 596.027344 1429.195312 609.097656 C 1438.796875 637.929688 1440.863281 665.925781 1435.808594 699.105469 C 1429.308594 668.804688 1422.925781 639.03125 1416.539062 609.257812 C 1412.351562 631.1875 1413.070312 653.109375 1415.605469 674.832031 C 1420.804688 719.382812 1418.675781 763.460938 1409.796875 807.347656 C 1405.078125 830.664062 1403.773438 854.332031 1403.519531 878.074219 C 1403.484375 881.242188 1404.289062 884.609375 1401.703125 888.546875 C 1397.898438 871.550781 1394.828125 855.398438 1393.160156 838.925781 C 1391.46875 822.152344 1391.03125 805.355469 1391.738281 788.570312 C 1392.441406 771.816406 1394.074219 755.101562 1394.550781 738.191406 C 1379.660156 767.632812 1373.507812 799.617188 1367.84375 831.75 C 1358.871094 787.882812 1367.132812 746.609375 1385.726562 706.921875 C 1396.851562 683.175781 1407.097656 659.25 1406.1875 632.234375 C 1406.128906 630.503906 1406.179688 628.769531 1405.542969 626.886719 C 1395.441406 655.191406 1383.523438 682.742188 1374.785156 711.53125 C 1372.132812 685.898438 1376.257812 661.152344 1383.5 636.726562 C 1389.289062 617.214844 1397.144531 598.246094 1399.640625 577.847656 C 1400.609375 569.925781 1402.195312 561.867188 1397.8125 553.140625 C 1383.628906 580.722656 1372.738281 608.5625 1369.238281 639.027344 C 1362.644531 612.582031 1365.054688 586.828125 1374.773438 561.707031 C 1378.226562 552.777344 1382.617188 544.214844 1386.527344 535.460938 C 1397.707031 510.453125 1396.800781 485.054688 1388.867188 459.320312 C 1388.089844 490.21875 1380.125 519.082031 1365.296875 546.183594 C 1366.886719 524.613281 1367.800781 503.035156 1371.023438 481.625 C 1373.609375 464.445312 1377.152344 447.324219 1375.671875 429.757812 C 1374.40625 414.703125 1367.4375 402.234375 1357.609375 388.046875 C 1358.433594 423.222656 1357.410156 455.660156 1353.289062 488.078125 C 1350.277344 450.078125 1337.703125 413.738281 1335.960938 375.898438 C 1331.578125 375.292969 1332.132812 378.101562 1331.742188 379.902344 C 1328.621094 394.316406 1327.75 408.980469 1326.546875 423.640625 C 1325.828125 432.414062 1327.3125 440.394531 1329.707031 448.75 C 1333.929688 463.496094 1333.621094 478.695312 1331.410156 495.957031 C 1326.9375 478.683594 1323.136719 463.40625 1318.953125 448.230469 C 1317.609375 443.359375 1315.320312 438.738281 1313.335938 434.054688 C 1312.800781 432.800781 1312.347656 430.960938 1310.332031 431.410156 C 1308.253906 431.875 1308.613281 433.816406 1308.933594 435.046875 C 1311.960938 446.722656 1311.3125 458.765625 1312.59375 470.613281 C 1314.265625 486.039062 1319.371094 500.273438 1326.605469 513.949219 C 1342.953125 544.863281 1347.59375 568.324219 1344.421875 602.347656 C 1334.140625 572.789062 1325.441406 543.566406 1316.039062 514.324219 C 1314.089844 522.992188 1313.597656 531.511719 1314.984375 540.207031 C 1318.875 564.582031 1326.828125 587.882812 1333.558594 611.507812 C 1340.339844 635.3125 1342.765625 659.730469 1343.675781 686.261719 C 1329.3125 663.257812 1318.6875 640.542969 1312.175781 615.898438 C 1309.433594 630.742188 1317.007812 661.121094 1328.234375 682.339844 C 1339.472656 703.582031 1346.519531 725.957031 1347.5 750.082031 C 1347.761719 756.648438 1348.121094 763.222656 1346.066406 770.796875 C 1339.109375 745.925781 1325.167969 724.769531 1320.585938 700.011719 C 1319.121094 717.683594 1319.457031 735.085938 1324.816406 751.929688 C 1335.324219 784.945312 1335.566406 818.589844 1331.429688 852.636719 C 1324.875 823.789062 1318.949219 794.820312 1315.015625 765.023438 C 1311.300781 766.785156 1312.691406 769.828125 1312.59375 772.050781 C 1311.5625 796.199219 1315.578125 819.863281 1319.441406 843.578125 C 1324.808594 876.5 1319.894531 909.46875 1319.101562 942.417969 C 1318.988281 947.125 1319.085938 951.835938 1318.359375 956.617188 C 1304.945312 923.574219 1301.738281 888.863281 1301.148438 853.542969 C 1293.300781 869.546875 1289.84375 886.714844 1286.230469 903.816406 C 1282.644531 920.785156 1281.5625 938.121094 1279.535156 956.789062 C 1275.082031 951.726562 1275.324219 946.648438 1274.515625 942.070312 C 1266.105469 894.523438 1273.9375 849.015625 1291.597656 804.636719 C 1300.0625 783.367188 1302.824219 760.980469 1301.773438 737.878906 C 1292.796875 764.597656 1283.824219 791.3125 1274.851562 818.03125 C 1272.96875 790.585938 1275.164062 763.546875 1286.460938 738.472656 C 1299.796875 708.867188 1302.089844 678.046875 1300.183594 646.214844 C 1285.824219 675.84375 1272.039062 705.652344 1269.746094 741.492188 C 1262.589844 718.75 1264.03125 684.851562 1271.734375 660.210938 C 1277.664062 641.230469 1287.746094 624.066406 1295.0625 605.714844 C 1300.203125 592.820312 1307.566406 580.320312 1304.542969 564.164062 C 1297.792969 577.59375 1292.125 590.496094 1283.28125 603.890625 C 1284.398438 565.941406 1297.757812 532.175781 1302.324219 496.964844 C 1301.613281 496.722656 1300.898438 496.480469 1300.1875 496.242188 C 1296.632812 502.367188 1293.082031 508.5 1289.527344 514.628906 C 1292.609375 485.535156 1306.183594 458.066406 1297.1875 428.324219 C 1294.835938 446.339844 1289.902344 463.371094 1279.394531 479.105469 C 1284.734375 440.140625 1281.882812 402.453125 1262.742188 366.953125 C 1262.742188 379.328125 1262.742188 391.707031 1262.742188 404.082031 C 1254.105469 389.316406 1249.917969 373.734375 1249.503906 357.199219 C 1249.25 347.007812 1249.070312 336.851562 1247.890625 326.667969 C 1247.058594 319.472656 1243.804688 316.859375 1237.140625 316.46875 C 1222.347656 315.601562 1208.160156 311.957031 1194.359375 306.636719 C 1192.042969 305.742188 1188.972656 302.664062 1187.28125 305.285156 C 1185.484375 308.074219 1185.425781 312.417969 1188.121094 315.394531 C 1191.742188 319.390625 1195.964844 322.839844 1199.5625 326.851562 C 1210.804688 339.390625 1219.238281 353.210938 1218.949219 373.539062 C 1210.003906 359.851562 1204.746094 346.445312 1194.226562 336.789062 C 1193.625 336.355469 1192.644531 335.4375 1192.484375 335.5625 C 1191.390625 336.421875 1191.925781 337.445312 1192.535156 338.390625 C 1195.71875 357.925781 1204.394531 374.453125 1218.222656 388.757812 C 1232.734375 403.773438 1244.167969 420.933594 1249.773438 441.460938 C 1251.515625 447.851562 1252.929688 454.257812 1253.203125 460.902344 C 1253.667969 472.125 1256.265625 482.261719 1262.980469 491.976562 C 1273.957031 507.859375 1272.054688 525.984375 1268.71875 546.285156 C 1264.164062 531.234375 1262.832031 517.746094 1256.589844 503.535156 C 1254.148438 522.464844 1252.839844 538.671875 1263.03125 554.4375 C 1276.285156 574.949219 1279.882812 598.191406 1277.523438 624.871094 C 1271.164062 605.015625 1265.519531 587.382812 1259.867188 569.746094 C 1259.09375 569.804688 1258.324219 569.863281 1257.550781 569.925781 C 1259.117188 601.785156 1254.359375 633.105469 1251.648438 665.960938 C 1243.257812 648.144531 1239.410156 615.023438 1240.40625 571.285156 C 1241.121094 539.878906 1242.917969 508.484375 1241.769531 476.589844 C 1232.246094 485.304688 1227.121094 501.796875 1228.628906 517.78125 C 1229.390625 525.851562 1230.308594 533.898438 1230.933594 541.976562 C 1231.546875 549.933594 1231.878906 557.90625 1231.121094 566.308594 C 1228.496094 559.011719 1225.871094 551.710938 1223.246094 544.417969 C 1225.953125 599.925781 1233.027344 654.652344 1244.625 708.800781 C 1243.820312 709.066406 1243.011719 709.328125 1242.207031 709.59375 C 1238.984375 702.96875 1235.714844 696.367188 1232.546875 689.714844 C 1229.324219 682.933594 1226.484375 676 1224.855469 668.644531 C 1223.183594 661.09375 1221.625 653.515625 1219.46875 643.386719 C 1215.273438 659.769531 1217.847656 673.148438 1221.640625 686.363281 C 1227.667969 707.359375 1237.519531 727.148438 1241.113281 748.949219 C 1243.363281 762.601562 1244.628906 776.238281 1244.113281 792.613281 C 1233.496094 765.722656 1222.660156 741.570312 1218.019531 715.292969 C 1214.277344 715.855469 1215.507812 718.59375 1215.480469 720.285156 C 1215.171875 738.742188 1217.242188 756.855469 1224.6875 773.953125 C 1238.125 804.804688 1246.714844 836.691406 1246.101562 870.636719 C 1246.0625 872.941406 1245.90625 875.242188 1245.710938 879.644531 C 1235.449219 853.175781 1225.09375 829 1218.609375 803.304688 C 1216.105469 820.71875 1218.386719 837.636719 1224.78125 853.726562 C 1231.296875 870.132812 1238.890625 886.125 1246.242188 902.191406 C 1261.976562 936.566406 1266.6875 972.601562 1264.382812 1010.132812 C 1261.007812 1065.042969 1248.207031 1118.496094 1240.328125 1172.800781 C 1237.457031 1134.109375 1239.382812 1095.394531 1237.949219 1056.621094 C 1226.921875 1089.546875 1221.847656 1123.539062 1220.25 1160.492188 C 1209.855469 1109.289062 1211.054688 1061.082031 1226.875 1013.441406 C 1235.378906 987.832031 1239.398438 961.558594 1235.058594 934.523438 C 1234.839844 933.136719 1234.453125 931.773438 1233.546875 927.714844 C 1231.332031 942.359375 1229.785156 954.40625 1227.625 966.339844 C 1225.273438 979.351562 1221.503906 991.988281 1215.691406 1003.929688 C 1214.609375 1006.144531 1214.515625 1010.445312 1210.917969 1009.007812 C 1207.492188 1007.636719 1211.382812 1005.09375 1211.578125 1003.003906 C 1214.195312 975.1875 1215.445312 947.375 1214.0625 919.40625 C 1212.105469 879.824219 1204.847656 840.710938 1203.863281 801.074219 C 1203.023438 767.414062 1206.972656 733.960938 1208.753906 700.410156 C 1209.324219 689.660156 1208.84375 678.855469 1208.042969 667.734375 C 1201.730469 697.558594 1195.414062 727.382812 1189.101562 757.207031 C 1185.550781 741.300781 1185.082031 725.296875 1187.027344 709.3125 C 1189.75 686.921875 1194.824219 665.222656 1204.398438 644.488281 C 1214.949219 621.632812 1217.910156 597.449219 1212.285156 570.699219 C 1208.882812 595.421875 1207.230469 618.796875 1194.203125 639.03125 C 1202.511719 599.578125 1201.582031 558.9375 1209.894531 519.566406 C 1214.613281 497.21875 1219.859375 475.011719 1217.003906 451.914062 C 1215.242188 437.683594 1212.910156 423.578125 1205.78125 410.332031 C 1206.035156 414.730469 1206.292969 419.132812 1206.535156 423.53125 C 1208.101562 451.882812 1202.984375 479.039062 1191.878906 505.105469 C 1191.011719 507.152344 1190.851562 509.902344 1187.898438 510.480469 L 1187.730469 510.71875 C 1192.429688 484.832031 1193.90625 458.652344 1195.824219 430.3125 C 1189.296875 438.75 1187.816406 448.007812 1179.375 454.742188 C 1188.175781 418.367188 1195.359375 384.148438 1185.980469 349.054688 C 1182.515625 359.5 1181.167969 370.398438 1176.449219 380.390625 C 1176.808594 359.886719 1178.75 339.492188 1176.53125 316.488281 C 1169.074219 327.285156 1165.933594 337.890625 1157.859375 347.597656 C 1159.214844 336.207031 1160.308594 326.480469 1161.542969 316.777344 C 1162.789062 306.972656 1161.929688 297.40625 1159.402344 287.066406 C 1149.820312 305.996094 1140.933594 323.917969 1131.660156 341.640625 C 1128.753906 347.195312 1127.945312 350.429688 1134.808594 354.136719 C 1143.503906 358.835938 1151.242188 365.441406 1153.261719 376.238281 L 1153.378906 376.027344 C 1148.957031 372.398438 1144.660156 368.53125 1138.019531 368.148438 C 1154.136719 381.414062 1166.261719 396.207031 1162.167969 420.226562 C 1155.3125 408.019531 1148.128906 397.40625 1138.785156 388.5 C 1138.019531 387.804688 1136.714844 386.414062 1136.578125 386.519531 C 1134.859375 387.867188 1136.046875 389.226562 1136.8125 390.554688 C 1139.722656 402.441406 1146.75 412.269531 1152.921875 422.496094 C 1157.917969 430.769531 1162.558594 439.253906 1163.8125 448.894531 C 1167.0625 473.886719 1179.609375 495.925781 1185.847656 519.96875 C 1191.226562 540.703125 1193.402344 561.585938 1191.257812 582.9375 C 1184.0625 554.378906 1166.015625 529.136719 1166.28125 496.988281 C 1161.949219 504.375 1162.007812 511.3125 1161.125 517.898438 C 1156.816406 550.007812 1161 581.242188 1171.1875 611.851562 C 1179.730469 637.503906 1183.785156 663.652344 1179.058594 690.679688 C 1178.296875 695.039062 1177.765625 699.363281 1173.832031 703.019531 C 1172.25 678.648438 1168.039062 655.128906 1162.371094 631.371094 C 1161.449219 639.496094 1160.109375 647.601562 1159.707031 655.753906 C 1158.929688 671.332031 1158.738281 686.9375 1158.214844 702.523438 C 1157.808594 714.699219 1160.695312 726.285156 1164.085938 737.835938 C 1175.972656 778.328125 1179.632812 819.601562 1175.523438 861.578125 C 1175.40625 862.746094 1175.046875 863.894531 1174.734375 865.035156 C 1174.699219 865.148438 1174.199219 865.140625 1173.335938 865.285156 C 1165.601562 837.695312 1156.988281 810.257812 1157.355469 780.914062 C 1148.324219 797.28125 1146.457031 814.632812 1149.308594 832.722656 C 1152.488281 852.886719 1160.351562 871.925781 1163.34375 892.183594 C 1165.5625 907.160156 1165.160156 922.054688 1163.164062 937.371094 C 1159.761719 924.214844 1156.359375 911.0625 1152.953125 897.910156 C 1152.226562 898.023438 1151.5 898.140625 1150.773438 898.253906 C 1153.316406 926.105469 1155.863281 953.960938 1158.410156 981.816406 C 1149.496094 963.878906 1143.179688 945.042969 1139.558594 925.320312 C 1135.453125 902.972656 1136.5 880.511719 1138.261719 858.039062 C 1138.636719 853.269531 1138.769531 848.480469 1139.011719 843.703125 C 1139.554688 840.960938 1139.933594 838.226562 1138.316406 834.355469 C 1137.457031 838.191406 1136.84375 840.941406 1136.230469 843.699219 C 1131.402344 861.929688 1127.488281 880.363281 1124.351562 899.46875 C 1116.207031 862.925781 1129.46875 829.613281 1139.117188 795.847656 C 1138.054688 795.503906 1136.996094 795.160156 1135.933594 794.820312 C 1129.472656 805.386719 1123.015625 815.953125 1116.554688 826.519531 C 1115.789062 826.101562 1115.023438 825.679688 1114.261719 825.257812 C 1131.214844 779.847656 1142.511719 733 1149.652344 684.757812 C 1144.21875 694.003906 1138.792969 703.253906 1133.363281 712.496094 C 1138.242188 657.339844 1158.09375 603.933594 1149.683594 545.550781 C 1140.675781 573.058594 1132.234375 598.710938 1126.957031 625.527344 C 1124.644531 611.714844 1124.183594 597.839844 1125.8125 583.890625 C 1128.132812 564.011719 1135.183594 545.585938 1143 527.339844 C 1153.144531 503.644531 1159.859375 479.234375 1155.886719 453.042969 C 1154.714844 445.335938 1152.136719 438.132812 1147.535156 431.359375 C 1143.832031 462.351562 1142.769531 493.671875 1130.949219 523.167969 C 1132.996094 496.128906 1127.738281 469.125 1131.328125 442.09375 C 1134.371094 419.1875 1132.25 397.304688 1117.894531 377.507812 C 1114.417969 380.808594 1114.554688 385.589844 1112.628906 389.378906 C 1111.542969 391.519531 1112.035156 395.851562 1108.21875 394.695312 C 1105.855469 393.980469 1106.992188 390.578125 1107.417969 388.316406 C 1112.152344 362.988281 1088.578125 336.730469 1062.328125 338.101562 C 1061.640625 340.167969 1063.015625 341.652344 1064.0625 342.957031 C 1082.253906 365.59375 1093.140625 392.523438 1107.890625 417.171875 C 1113.78125 427.007812 1116.078125 437.324219 1113.59375 449.066406 C 1108.140625 438.15625 1102.875 427.632812 1096.625 415.136719 C 1095.554688 422.339844 1094.984375 427.441406 1093.96875 432.453125 C 1093.546875 434.550781 1094.160156 438.214844 1090.984375 438.121094 C 1087.277344 438.015625 1089.023438 434.386719 1088.929688 432.394531 C 1087.664062 405.589844 1076.285156 382.339844 1063.105469 359.625 C 1061.269531 394.566406 1059.066406 429.613281 1087 457.378906 C 1096.144531 466.472656 1102.085938 476.964844 1102.765625 490.257812 C 1097.042969 482.355469 1091.507812 474.425781 1082.199219 467.246094 C 1081.378906 481.476562 1083.359375 493.675781 1086.429688 505.667969 C 1089.625 518.140625 1093.304688 530.496094 1097.023438 542.828125 C 1102.039062 559.46875 1103.097656 576.40625 1101.347656 593.589844 C 1101.085938 596.167969 1101.597656 599.0625 1098.890625 601.375 C 1093.898438 574.582031 1086.976562 548.570312 1078.8125 520.214844 C 1077.300781 531.769531 1076.679688 540.9375 1078.757812 549.492188 C 1084.691406 573.890625 1088.585938 598.976562 1099.351562 621.949219 C 1112.175781 649.3125 1116.859375 678.488281 1119.859375 708.113281 C 1120.085938 710.34375 1119.65625 712.636719 1119.414062 717.113281 C 1107.65625 693.496094 1100.621094 670.53125 1094.140625 647.367188 C 1093.476562 644.046875 1092.8125 640.726562 1092.148438 637.414062 C 1091.855469 637.488281 1091.5625 637.5625 1091.269531 637.636719 C 1091.269531 640.882812 1091.269531 644.128906 1091.269531 647.371094 C 1092.929688 675.316406 1099.40625 702.492188 1104.328125 729.921875 C 1110.488281 764.28125 1107.882812 798.347656 1099.027344 832.234375 C 1097.097656 806.84375 1095.167969 781.449219 1093.234375 756.058594 C 1084.1875 798.101562 1084.398438 839.273438 1101.308594 879.457031 C 1113.582031 908.625 1121.195312 938.671875 1111.101562 972.992188 C 1107.617188 949.519531 1100.433594 929.433594 1093.078125 907.167969 C 1089.335938 921.183594 1088.605469 933.550781 1088.527344 945.949219 C 1088.308594 979.648438 1085.445312 1013.058594 1078.75 1046.132812 C 1072.546875 1076.769531 1068.046875 1107.617188 1068.667969 1139.011719 C 1068.800781 1145.90625 1068.6875 1152.808594 1068.6875 1159.269531 C 1061.648438 1146.847656 1055.867188 1114.035156 1055.59375 1083.359375 C 1055.359375 1057.320312 1058.832031 1031.578125 1062.085938 1005.691406 C 1047.230469 1026.875 1041.835938 1051.441406 1036.109375 1076.039062 C 1031.324219 1055.394531 1032.992188 1035.125 1037.710938 1014.933594 C 1043.167969 991.578125 1055.238281 971.050781 1065.570312 949.785156 C 1073.875 932.699219 1080.855469 915.265625 1081.464844 895.929688 C 1081.464844 892.476562 1081.464844 889.023438 1081.464844 885.566406 C 1081.042969 885.570312 1080.617188 885.574219 1080.195312 885.578125 C 1079.617188 889.027344 1079.039062 892.472656 1078.460938 895.921875 C 1072.601562 917.242188 1063.933594 937.246094 1049.851562 954.964844 C 1052.96875 941.625 1055.699219 928.183594 1059.292969 914.972656 C 1063.765625 898.503906 1069.582031 882.382812 1073.671875 865.828125 C 1078.765625 845.179688 1077.910156 824.230469 1073.910156 803.328125 C 1066.5625 833.492188 1061.550781 864.027344 1057.804688 894.808594 C 1047.386719 855.847656 1049.453125 818.035156 1066.722656 781.140625 C 1077.417969 758.292969 1086.070312 734.652344 1088.046875 709.113281 C 1088.597656 701.988281 1088.003906 695.003906 1086.550781 687.957031 C 1082.023438 713.59375 1075.996094 738.730469 1063.894531 764.902344 C 1064.269531 731.019531 1068.980469 700.398438 1078.042969 670.34375 C 1077.246094 670.066406 1076.453125 669.789062 1075.660156 669.511719 C 1071.375 676.371094 1067.085938 683.226562 1061.324219 692.449219 C 1064.117188 664.898438 1074.171875 640.667969 1071.480469 614.757812 C 1067.5625 615.671875 1069.867188 620.605469 1066.382812 621.472656 C 1059.230469 599.792969 1058.425781 576.75 1052.996094 554.648438 C 1046.96875 530.128906 1037.25 507.484375 1018.871094 489.429688 C 1016.648438 487.246094 1014.714844 483.941406 1010.445312 485.644531 C 1031.78125 522.679688 1043.5 561.660156 1034.167969 605.84375 C 1027.234375 589.183594 1022.5 572.710938 1018.539062 555.761719 C 1014.683594 568.949219 1015.96875 581.878906 1019.957031 594.675781 C 1025.15625 611.351562 1034.542969 626.183594 1041.101562 642.273438 C 1050.0625 664.230469 1053.417969 686.792969 1049.40625 710.363281 C 1043.867188 691.453125 1036.128906 673.40625 1029.605469 654.929688 C 1028.824219 652.722656 1029.019531 648.324219 1025.269531 649.597656 C 1022.921875 650.398438 1024.984375 653.636719 1025.398438 655.917969 C 1033.667969 701.519531 1048.089844 746.082031 1048.214844 793.84375 C 1036.257812 764.273438 1027.925781 734.257812 1020.683594 702.085938 C 1016.367188 720.21875 1019.257812 745.519531 1026.71875 765.988281 C 1035.496094 790.078125 1042.421875 814.550781 1038.90625 840.671875 C 1038.691406 842.285156 1039.328125 844.378906 1036.050781 845.578125 C 1031.246094 826.757812 1026.464844 808.035156 1021.683594 789.3125 C 1018.171875 801.148438 1019.640625 812.617188 1021.910156 823.878906 C 1030.277344 865.398438 1031.363281 906.664062 1018.882812 947.636719 C 1018.570312 948.65625 1018.21875 949.664062 1017.347656 952.304688 C 1013.3125 918.40625 1012.789062 886.019531 1011.003906 853.546875 C 1000.253906 886.902344 993.195312 921.195312 984.84375 956.472656 C 977.355469 923.976562 983.589844 863.304688 998.335938 826.734375 C 1010.105469 797.535156 1016.121094 767.789062 1009.296875 736.226562 C 999.628906 771.859375 985.84375 806.359375 981.433594 844.960938 C 978.386719 842.019531 978.875 839.949219 978.835938 838.148438 C 977.839844 791.902344 981.324219 746.503906 1001.382812 703.675781 C 1011.183594 682.746094 1016.328125 660.660156 1010.921875 634.894531 C 1004.601562 662.722656 992.65625 686.152344 983.5625 710.660156 C 982.625 713.175781 982.511719 718.132812 979.023438 717.097656 C 975.777344 716.132812 977.511719 711.652344 977.859375 708.578125 C 981.222656 678.589844 993.625 650.859375 999.582031 621.535156 C 1002.4375 607.472656 1003.910156 593.1875 1002.363281 578.546875 C 989.710938 613.953125 980.523438 650.296875 971.40625 686.742188 C 971.148438 641.179688 968.6875 595.476562 996.679688 554.957031 C 1015.492188 527.726562 1014.257812 503.339844 995.058594 477.628906 C 989.140625 469.710938 981.304688 464.355469 971.714844 461.710938 C 968.105469 460.714844 965.820312 461.367188 966.476562 465.914062 C 967.121094 470.363281 967.332031 474.882812 968.09375 479.308594 C 972.636719 505.671875 970.484375 531.949219 967.460938 558.25 C 967.007812 562.1875 964.949219 565.417969 963.765625 570.984375 C 956.953125 543.347656 949.46875 517.648438 946.265625 489.1875 C 941.582031 498.382812 941.050781 506.957031 939.566406 515.246094 C 935.90625 535.734375 939.824219 555.898438 942.207031 576.144531 C 945.066406 600.488281 941.75 624.445312 937.601562 650.550781 C 928.15625 625.058594 930.148438 600.089844 926.589844 575.949219 C 918.847656 598.199219 921.671875 620.394531 925.753906 642.5625 C 930.097656 666.148438 935.023438 689.636719 938.902344 713.296875 C 941.5 729.132812 939.535156 744.890625 934.21875 760.257812 C 933.140625 749.121094 933.058594 737.886719 930.351562 726.902344 C 924.230469 757.835938 917.570312 788.601562 918.617188 820.441406 C 913.90625 806.648438 912.160156 792.269531 910.839844 777.839844 C 908.421875 751.472656 913.851562 725.898438 918.675781 700.226562 C 920.371094 691.191406 921.96875 681.984375 919.644531 672.566406 C 910.984375 699.199219 903.09375 725.992188 896.941406 754.660156 C 894.496094 749.652344 895.34375 745.355469 895.136719 741.296875 C 893.8125 715.246094 896.71875 689.71875 905.910156 665.207031 C 913.003906 646.28125 915.304688 626.867188 912.894531 606.628906 C 906.644531 629.679688 902.839844 653.410156 894.347656 675.894531 C 892.472656 648.335938 892.660156 620.964844 903.957031 595.089844 C 915.730469 568.121094 927.273438 541.148438 931.570312 511.734375 C 931.914062 509.363281 932.328125 506.996094 932.5625 504.609375 C 932.644531 503.769531 932.289062 502.890625 931.683594 499.574219 C 920.144531 527.847656 909.421875 554.128906 897.859375 582.453125 C 897.472656 534.320312 916.140625 495.332031 943.734375 458.320312 C 936.820312 457.429688 932.050781 459.621094 927.324219 461.609375 C 916.632812 466.105469 907.542969 473.054688 899.746094 481.449219 C 868.035156 515.601562 846.351562 555.027344 837.925781 601.226562 C 834.054688 622.457031 838.730469 643.15625 842.953125 663.648438 C 854.34375 718.957031 846.90625 771.25 822.128906 821.976562 C 798.984375 869.355469 776.683594 917.15625 757.886719 966.550781 C 736.640625 1022.367188 735.425781 1077.953125 753.695312 1134.8125 C 770.710938 1187.746094 790.980469 1239.273438 816.191406 1288.75 C 855.035156 1364.980469 917.109375 1411.097656 1000.636719 1429.199219 C 1034.777344 1436.597656 1069.234375 1440.722656 1104.003906 1442.960938 C 1106.035156 1443.089844 1108.066406 1443.226562 1110.3125 1445.261719 C 1107.457031 1445.453125 1104.609375 1445.71875 1101.753906 1445.820312 C 1035.636719 1448.15625 969.773438 1443.113281 903.875 1439.074219 C 852.328125 1435.910156 801.113281 1429.292969 749.757812 1424.1875 C 697.667969 1419.011719 646.175781 1423.617188 594.65625 1431.621094 C 524.625 1442.503906 456.011719 1459.855469 386.925781 1475.085938 C 372.253906 1478.320312 357.277344 1479.027344 342.453125 1481.011719 C 341.441406 1480.09375 339.363281 1479.523438 341.359375 1477.632812 C 366.40625 1473.800781 390.292969 1465.882812 413.527344 1456.152344 C 476.253906 1429.882812 538.875 1403.359375 601.378906 1376.570312 C 615.972656 1370.316406 629.636719 1362.097656 642.742188 1353.027344 C 666.195312 1336.78125 677.550781 1314.230469 678.542969 1285.933594 C 679.648438 1254.585938 671.773438 1224.703125 664.410156 1194.695312 C 656.765625 1163.558594 647.585938 1132.777344 644.210938 1100.683594 C 638.988281 1050.976562 649.441406 1004.058594 668.601562 958.621094 C 675.9375 941.230469 684.140625 924.195312 691.113281 906.664062 C 706.066406 869.089844 700.875 832.226562 686.28125 793.871094 C 682.570312 801.828125 683.21875 808.789062 681.074219 816.074219 C 676.320312 800.511719 679.042969 784.78125 673.972656 768.5625 C 666.558594 780.8125 663.148438 792.917969 659.550781 804.972656 C 657.898438 790.9375 659.542969 777.457031 664.691406 764.480469 C 666.0625 761.023438 666.9375 757.84375 665.011719 754.191406 C 650.175781 726.082031 632.816406 699.554688 614.039062 671.148438 C 610.371094 689.929688 610.0625 706.664062 610.917969 723.582031 C 604.605469 707.171875 601.398438 690.105469 603.957031 672.664062 C 605.417969 662.671875 603.335938 655.101562 597.382812 647.074219 C 585.320312 630.800781 574.3125 613.738281 561.492188 594.984375 C 559.417969 620.46875 569.578125 642.023438 569.628906 664.800781 C 563.90625 652.25 561.363281 638.59375 554.585938 626.484375 C 554.230469 658.316406 551.445312 689.820312 569.160156 719.488281 C 584.742188 745.585938 585.839844 775.265625 580.398438 805.003906 C 576.324219 778.679688 570.800781 752.730469 562.21875 727.472656 C 560.417969 746.074219 561.738281 764.414062 563.820312 782.769531 C 568.5 824.007812 561.371094 864.0625 550.984375 903.738281 C 550.769531 904.5625 550.375 905.40625 549.839844 906.058594 C 549.550781 906.40625 548.789062 906.363281 547.425781 906.695312 C 552.972656 865.859375 554.070312 825.136719 551.585938 784.132812 C 544.648438 800.808594 542.097656 818.859375 535.695312 835.785156 C 530.488281 814.3125 531.554688 792.90625 539.785156 773.019531 C 552.152344 743.128906 551.964844 712.875 547.140625 681.9375 C 546.746094 679.40625 547.453125 676.277344 543.414062 675.175781 C 542.429688 701.03125 538.109375 726.371094 531.488281 751.8125 C 530.792969 739.207031 529.421875 726.589844 529.570312 713.992188 C 529.765625 697.472656 531.960938 681.050781 536.792969 665.175781 C 544.53125 639.75 546.929688 613.425781 550.210938 587.265625 C 551.882812 573.976562 540.105469 567.265625 534.097656 557.371094 C 528.679688 591.566406 525.980469 625.667969 526.234375 660.097656 C 512.703125 630.695312 515.308594 599.699219 517.886719 568.535156 C 513.34375 573.667969 512.269531 579.992188 510.867188 586.078125 C 505.675781 608.628906 506.40625 631.296875 509.574219 654.070312 C 511.1875 665.675781 509.414062 677.183594 506.90625 691.042969 C 504.28125 681.804688 506.582031 673.785156 500.230469 667.953125 C 498.398438 694.164062 495.5 719.933594 496.695312 745.917969 C 479.707031 703.441406 489.652344 660.371094 494.015625 617.269531 C 479.589844 657.792969 468.664062 698.808594 468.917969 742.195312 C 461.894531 723.6875 463.175781 704.375 462.628906 685.269531 C 464.480469 675.660156 465.128906 665.832031 468.179688 656.445312 C 475.40625 634.21875 484.277344 612.769531 496.871094 592.949219 C 501.992188 584.890625 507.070312 576.683594 509.203125 566.109375 C 498.011719 570.90625 490.945312 578.761719 483.132812 585.644531 C 482.628906 585.070312 482.121094 584.492188 481.617188 583.917969 C 483.46875 579.335938 485.316406 574.753906 487.164062 570.175781 C 476.71875 584.796875 468.992188 600.753906 460.542969 616.417969 C 460.71875 589.074219 471.167969 564.785156 484.164062 539.953125 C 455.066406 552.425781 444.144531 573.929688 451.925781 602.105469 C 459.457031 629.367188 466.535156 656.570312 460.679688 685.195312 C 459.46875 689.160156 458.261719 693.125 457.054688 697.089844 C 454.023438 668.484375 450.359375 640.179688 441.671875 612.6875 C 437.984375 646.179688 436.117188 679.683594 436.601562 713.328125 C 436.988281 740.15625 439.96875 766.660156 447.636719 792.371094 C 457.4375 825.226562 457.808594 857.855469 447.863281 890.636719 C 446.578125 891.5625 445.257812 892.808594 444.304688 890.292969 C 447.046875 866.953125 445.613281 843.808594 440.777344 820.578125 C 437.996094 855.851562 425.773438 888.585938 414.5625 923.808594 C 412.90625 898.917969 412.992188 876.011719 414.546875 853.078125 C 416.195312 828.761719 422.875 805.21875 425.40625 781.03125 C 426.84375 767.277344 426.699219 753.566406 425.253906 739.640625 C 417.714844 767.625 409.867188 795.476562 404.199219 823.949219 C 399.917969 796.726562 401.5625 769.984375 409.460938 743.609375 C 415.808594 722.402344 423.996094 701.667969 425.585938 679.214844 C 426.148438 671.226562 426.457031 663.328125 424.199219 654.910156 C 414.902344 683.5625 405.605469 712.21875 396.308594 740.871094 C 395.113281 702.296875 400.207031 665.277344 419.199219 631.421875 C 426.910156 617.683594 431.277344 602.730469 435.863281 587.84375 C 446.285156 553.996094 465.992188 530.183594 503.160156 524.972656 C 505.160156 524.695312 507.066406 523.722656 509.863281 522.785156 C 499.609375 508.089844 487.332031 496.515625 473.023438 486.9375 C 467.945312 483.535156 467.09375 487.0625 465.929688 490.722656 C 458.292969 514.738281 449.417969 538.277344 438.195312 560.863281 C 434.355469 568.59375 430.023438 576.074219 425.035156 583.371094 C 429.128906 550.363281 438.289062 518.886719 454.21875 488.972656 C 434.773438 493.636719 414.578125 518.039062 411.925781 540.761719 C 409.488281 561.605469 408.402344 582.601562 406.324219 603.488281 C 405.160156 615.171875 401.996094 626.457031 397.433594 637.304688 C 396.664062 639.132812 396.488281 641.484375 393.039062 642.011719 C 397.699219 613.339844 393.835938 584.585938 396.644531 555.972656 C 383.90625 580.238281 392.757812 608.40625 382.039062 635.492188 C 380.117188 618.980469 379.121094 604.75 379.042969 590.394531 C 368.304688 612.957031 363.5625 636.140625 371.5 660.558594 C 380.601562 688.5625 384.929688 717.128906 381.777344 746.78125 C 376.574219 726.179688 369.007812 706.253906 364.507812 685.285156 C 364.261719 714.820312 373.460938 743.449219 371.09375 773.125 C 368.734375 802.730469 368.597656 832.449219 370.894531 863.039062 C 364.007812 848.851562 356.507812 815.179688 356.335938 796.835938 C 356.128906 774.347656 356.289062 751.855469 355.414062 729.253906 C 347.539062 749.785156 335.226562 769.335938 346.128906 793.105469 C 355.101562 812.664062 358.148438 843.707031 355.082031 871.132812 C 345 842.992188 338.671875 815.175781 331.953125 787.4375 C 330.25 812.09375 332.445312 836.046875 341.933594 859.132812 C 355.574219 892.328125 360.332031 927.261719 361.316406 964.800781 C 349.1875 937.601562 341.824219 910.914062 336.183594 883.542969 C 334.460938 900.550781 335.640625 917.34375 338.957031 933.933594 C 343.1875 955.089844 349.394531 975.851562 351.339844 997.460938 C 354.703125 1034.851562 347.710938 1070.238281 330.667969 1103.808594 C 340.320312 1058.308594 341.347656 1012.765625 331.308594 965.585938 C 327.28125 981.613281 326.605469 996.625 325.917969 1011.566406 C 325.226562 1026.699219 324.917969 1041.871094 325.597656 1057.097656 C 315.816406 1033.390625 309.53125 1009.132812 313.40625 983.082031 C 315.265625 970.570312 318.902344 958.546875 322.527344 946.488281 C 327.816406 928.871094 327.855469 911.011719 323.464844 892.703125 C 316.933594 922.472656 310.402344 952.242188 303.871094 982.007812 C 297.792969 952.660156 297.902344 923.699219 306.234375 895.179688 C 309.164062 885.148438 313.550781 875.542969 317.054688 865.664062 C 321.609375 852.824219 323.199219 839.570312 321.632812 825.796875 C 315.992188 842.558594 311.382812 859.667969 301.464844 876.390625 C 301.664062 853.996094 305.6875 833.699219 311.972656 813.992188 C 322.875 779.804688 319.066406 745.351562 315.089844 710.691406 C 310.210938 748.445312 313.085938 787.628906 293.5 823.902344 C 291.316406 785.96875 297.578125 749.929688 302.84375 713.808594 C 308.136719 677.480469 319.214844 643.003906 337.15625 610.621094 C 327.132812 618.082031 319.429688 626.980469 311.640625 636.183594 C 311.996094 629.230469 314.492188 622.898438 317.675781 616.910156 C 321.070312 610.523438 322.476562 604.503906 321.921875 596.777344 C 319.503906 563.042969 322.488281 529.644531 331.886719 496.984375 C 337.515625 477.433594 338.601562 457.542969 335.523438 437.191406 C 329.691406 458.945312 323.863281 480.695312 318.035156 502.449219 C 317.3125 502.195312 316.585938 501.941406 315.863281 501.691406 C 316.617188 447.371094 328.796875 397.558594 373.644531 361.03125 C 386.507812 350.554688 395.503906 337.386719 404.15625 321.292969 C 384.59375 324.238281 374.992188 340.386719 360.445312 348.414062 C 364.941406 340.015625 369.34375 331.832031 375.414062 324.582031 C 360.699219 327.757812 353.945312 339.136719 347.992188 351.132812 C 342.101562 362.992188 340.8125 376.425781 335.636719 388.796875 C 335.636719 372.394531 335.636719 356.234375 335.636719 339.617188 C 325.640625 347.605469 321.566406 358.082031 322.78125 370.769531 C 324.921875 393.171875 321.804688 414.789062 312.941406 438.316406 C 312.941406 423.324219 312.941406 410.941406 312.941406 398.5625 C 303.410156 421.375 291.316406 443.316406 297.78125 469.554688 C 302.765625 489.78125 302.722656 510.582031 301.742188 532.066406 C 297.644531 528.511719 299.402344 522.230469 294.265625 518.796875 C 295.464844 543.101562 295.507812 566.453125 292.296875 592.007812 C 282.375 559.472656 280.996094 528.214844 282.046875 496.578125 C 276.3125 511.035156 274.722656 525.933594 275.714844 541.234375 C 277.328125 566.1875 283.34375 590.371094 288.378906 614.726562 C 293.382812 638.933594 295.660156 663.367188 294.753906 688.082031 C 294.683594 690.023438 294.410156 691.960938 293.339844 693.996094 C 286.839844 674.882812 285.597656 654.457031 277.457031 635.8125 C 277.324219 675.636719 267.949219 715.316406 279.945312 755.03125 C 289.996094 788.304688 285.398438 822.878906 285.769531 859.484375 C 272.753906 832.21875 276.667969 804.773438 272.796875 775.933594 C 265.90625 802.796875 264.246094 827.355469 266.769531 852.304688 C 268.460938 869.015625 269.863281 885.765625 270.980469 902.523438 C 271.390625 908.710938 271.433594 915.074219 268.324219 923.246094 C 265.886719 912.390625 263.890625 903.488281 261.894531 894.585938 C 254.4375 921.304688 251.421875 948.554688 249.703125 976.027344 C 241.84375 945.929688 240.621094 915.816406 246.9375 885.40625 C 250.652344 867.503906 254.140625 849.519531 254.359375 831.117188 C 254.980469 827.929688 255.5625 824.738281 253.789062 820.808594 C 253.078125 824.765625 252.507812 827.933594 251.941406 831.101562 C 245.898438 856.742188 239.863281 882.378906 233.261719 910.398438 C 230.539062 871.25 233 835.414062 252.105469 802.453125 C 258.550781 791.335938 261.25 779.277344 262.179688 766.613281 C 253.921875 781.78125 248.289062 798.375 235.601562 813.734375 C 243.625 771.746094 255.46875 733.296875 262.394531 693.664062 C 256.039062 708.703125 249.375 723.371094 241.539062 737.425781 C 237.941406 736.496094 238.933594 734.378906 239.273438 732.386719 C 244.75 700.460938 256.269531 670.0625 262.941406 638.449219 C 268.816406 610.625 269.710938 582.554688 266.15625 554.34375 C 265.957031 552.738281 266.523438 550.542969 263.273438 550.171875 C 257.066406 584.316406 251.4375 618.585938 243.292969 654.621094 C 239.574219 626.675781 238.578125 601.003906 240.996094 575.175781 C 243.410156 549.355469 256.601562 527.257812 266.925781 502.5 C 258.445312 503.726562 253.449219 507.339844 248.789062 511.375 C 226 531.101562 216.53125 557.125 215.246094 586.253906 C 214.1875 610.261719 219.0625 634.050781 219.902344 658.03125 C 220.046875 662.070312 220.359375 666.105469 219.917969 670.261719 C 212.671875 654.4375 209.53125 637.515625 205.898438 619.789062 C 193.84375 649.988281 205.976562 676.144531 216.632812 702.589844 C 203.242188 693.0625 196.433594 679.390625 190.542969 665.09375 C 190.28125 664.550781 190.015625 664.007812 189.75 663.460938 C 188.625 664.242188 188.878906 665.132812 189.550781 666.054688 Z M 1049.96875 77.050781 C 1049.460938 77.394531 1048.953125 77.738281 1048.449219 78.078125 C 1048.605469 78.132812 1048.847656 78.273438 1048.902344 78.21875 C 1049.285156 77.847656 1049.625 77.4375 1049.976562 77.039062 C 1048.464844 79.09375 1048.859375 80.691406 1051.113281 81.851562 C 1054.652344 86.84375 1058.195312 91.839844 1061.734375 96.832031 C 1073.179688 120.742188 1079.4375 146.410156 1086.644531 171.710938 C 1092.140625 191.019531 1092.210938 210.789062 1088.222656 230.5625 C 1083.152344 211.917969 1078.996094 193.125 1071.128906 175.375 C 1068.960938 215.132812 1069.371094 254.496094 1086.65625 291.621094 C 1086.09375 292.070312 1085.53125 292.519531 1084.96875 292.972656 C 1084.019531 292.296875 1082.980469 291.722656 1082.136719 290.933594 C 1064.238281 274.320312 1060.046875 252.320312 1057.984375 229.480469 C 1057.984375 225.582031 1057.984375 221.679688 1057.984375 217.78125 C 1056.308594 221.703125 1054.875 225.542969 1055.382812 229.722656 C 1054.386719 236.308594 1054.828125 242.855469 1055.945312 249.386719 C 1059.863281 272.316406 1068.972656 293.421875 1077.746094 314.792969 C 1083.894531 329.773438 1095.574219 337.226562 1108.554688 344.175781 C 1111.609375 345.8125 1113.542969 346.707031 1114.636719 341.804688 C 1118.78125 323.261719 1127.292969 306.347656 1135.011719 289.144531 C 1141.777344 274.0625 1147.527344 258.621094 1148.882812 241.949219 C 1151.898438 204.742188 1145.464844 168.425781 1137.703125 132.351562 C 1129.789062 95.578125 1098.464844 70.71875 1060.210938 70.25 C 1071.210938 79.605469 1081.871094 88.695312 1092.554688 97.757812 C 1103.539062 107.070312 1111.429688 118.679688 1116.863281 131.847656 C 1122.019531 144.351562 1128.765625 156.652344 1126.371094 172.320312 C 1116.382812 155.082031 1107.167969 139.179688 1097.957031 123.273438 C 1097.707031 122.5625 1097.457031 121.855469 1097.207031 121.140625 C 1097.03125 121.511719 1096.683594 121.898438 1096.722656 122.242188 C 1096.804688 123.019531 1097.035156 123.855469 1098.121094 123.074219 C 1099.765625 141.796875 1102.886719 159.890625 1116.589844 174.382812 C 1125.359375 183.652344 1131.625 194.261719 1130.523438 207.792969 L 1130.363281 207.9375 C 1124.132812 203.347656 1123.664062 194.574219 1117.191406 189.042969 C 1120.054688 204.238281 1123.007812 218.402344 1125.34375 232.664062 C 1129.085938 255.480469 1128.941406 265.476562 1125.25 276.015625 C 1122.078125 266.433594 1120.171875 257.039062 1115.835938 248.640625 C 1114.988281 248.777344 1114.144531 248.914062 1113.296875 249.054688 C 1113.296875 269.582031 1113.296875 290.109375 1113.296875 310.636719 C 1101.371094 287.027344 1099.28125 262.324219 1102.585938 237.09375 C 1105.738281 213.042969 1106.488281 189.234375 1098.375 165.921875 C 1089.617188 140.75 1080.722656 115.628906 1063.84375 94.367188 C 1060.949219 89.046875 1056.828125 84.757812 1052.371094 80.753906 C 1051.570312 79.519531 1050.769531 78.28125 1049.96875 77.050781 Z M 1134.980469 367.746094 C 1136.054688 368.589844 1137.285156 369.503906 1138.199219 367.78125 C 1138.804688 366.644531 1137.839844 365.90625 1136.765625 365.519531 C 1134.8125 364.328125 1132.878906 363.640625 1130.859375 365.90625 C 1132.308594 366.550781 1133.644531 367.148438 1134.980469 367.746094 Z M 492.140625 564.304688 C 500.058594 556.714844 509.148438 551.132812 519.621094 547.71875 C 521.335938 547.160156 524.902344 546.957031 524.136719 544.386719 C 522.695312 539.539062 520.160156 534.582031 516.0625 531.765625 C 512.664062 529.429688 509.523438 533.394531 507.09375 535.699219 C 499.324219 543.078125 495.191406 552.824219 490.542969 562.207031 C 489.101562 564.101562 486.542969 565.554688 487.757812 568.707031 C 490.378906 568.089844 491.011719 565.964844 492.140625 564.304688 Z M 884.476562 141.640625 C 881.742188 141.699219 882.089844 139.582031 881.859375 137.902344 C 880.039062 124.574219 878.34375 111.226562 876.386719 97.917969 C 874.792969 87.074219 873.261719 76.167969 867.761719 66.363281 C 868.230469 79.464844 865.707031 92.148438 864.679688 104.949219 C 863.511719 119.511719 861.246094 134.234375 866.203125 148.519531 C 867.589844 152.511719 868.390625 158.496094 872.621094 159.324219 C 876.03125 159.988281 877.746094 154.210938 880.253906 151.351562 C 882.386719 148.921875 883.988281 146.03125 885.824219 143.34375 C 886.476562 142.699219 887.128906 142.050781 887.78125 141.40625 C 909.042969 119.660156 932.339844 100.484375 958.679688 85.128906 C 960.96875 83.792969 963.503906 82.359375 963.394531 79.085938 C 962.964844 66.425781 960.238281 54.574219 951.320312 43.640625 C 948.21875 62.644531 940.933594 78.628906 932.46875 94.199219 C 931.910156 80.488281 933.925781 67.171875 935.574219 53.824219 C 938.65625 28.933594 936.179688 25.035156 912.136719 16.800781 C 911.28125 16.507812 910.40625 16.277344 909.578125 15.9375 C 903.070312 13.261719 902.554688 15.835938 904.199219 21.503906 C 910.296875 42.441406 913.28125 64.132812 919.574219 85.132812 C 918.097656 84.28125 917.089844 83.242188 916.207031 82.105469 C 902.230469 64.109375 894.105469 43.847656 892.082031 21.0625 C 891.785156 17.6875 893.160156 12.472656 887.59375 11.546875 C 869.476562 8.523438 851.757812 10.761719 832.589844 15.386719 C 875.820312 47.914062 897.515625 87.652344 884.765625 141.273438 Z M 1295.863281 364.867188 C 1283.367188 356.078125 1274.808594 343.410156 1264.1875 331.570312 C 1264.335938 354.355469 1272.832031 367.992188 1318.042969 418.75 C 1317.476562 399.0625 1317.0625 380.363281 1318.988281 361.640625 C 1321.75 334.734375 1302.761719 316.859375 1274.398438 319.046875 C 1280.464844 334.832031 1290.609375 348.367188 1297.082031 363.726562 C 1296.65625 364.085938 1296.253906 364.46875 1295.863281 364.867188 Z M 769.539062 330.15625 C 766.671875 340.628906 765.058594 351.507812 759.355469 362.847656 C 758.3125 340.847656 761.859375 320.351562 756.527344 300.183594 C 753.5625 318.335938 749.183594 336.070312 742.796875 353.097656 C 732.828125 379.6875 740.398438 404.636719 747.78125 431.632812 C 758.074219 397.148438 764.226562 363.601562 771.515625 330.320312 C 779.765625 300.226562 785.339844 269.5625 789.585938 238.710938 C 792.070312 220.660156 794.085938 202.28125 788.199219 184.320312 C 783.34375 169.515625 779.144531 154.546875 775.414062 139.421875 C 774.355469 135.132812 774.78125 127.683594 769.828125 127.714844 C 765.464844 127.742188 762.871094 134.335938 761.054688 139.207031 C 758.882812 145.03125 758.832031 151.003906 759.996094 156.9375 C 761.035156 162.214844 762.621094 167.390625 764.074219 172.582031 C 771.328125 198.578125 776.367188 224.765625 771.125 253.832031 C 764.105469 226.441406 757.554688 200.867188 750.574219 173.605469 C 749.042969 189.042969 750.386719 202.484375 753.324219 215.976562 C 761.527344 253.625 772.5625 290.902344 769.539062 330.15625 Z M 489.984375 248.28125 C 481.289062 257.8125 472.589844 267.34375 463.894531 276.875 C 467.90625 259.945312 475.535156 245.488281 487.828125 234.660156 C 496.171875 227.308594 498.082031 219.585938 495.492188 208.957031 C 489.871094 216.683594 486.066406 225.167969 478.5 230.828125 C 484.945312 215.777344 489.308594 200.3125 492.324219 184.421875 C 493.183594 179.90625 492.71875 177.792969 487.203125 178.339844 C 475.347656 179.515625 466.863281 184.800781 462.542969 196.1875 C 458.191406 207.648438 457.226562 219.492188 458.171875 231.605469 C 458.378906 234.28125 458.203125 236.988281 458.203125 241.613281 C 450.71875 229.226562 451.742188 216.4375 446.695312 203.863281 C 439.5 221.691406 435.730469 238.867188 431.171875 255.867188 C 429.140625 263.441406 431.941406 267.023438 436.140625 271.824219 C 446.011719 283.109375 455.316406 294.878906 465 306.324219 C 466.550781 308.15625 466.996094 311.542969 470.8125 311.269531 C 471.753906 296.039062 476.179688 281.878906 482.703125 268.238281 C 485.660156 262.0625 490.003906 256.511719 491.394531 249.605469 C 492.753906 248.621094 493.339844 247.445312 492.296875 245.878906 C 491.523438 246.683594 490.753906 247.484375 489.984375 248.28125 Z M 378.457031 495.410156 C 378.015625 494.878906 377.574219 494.351562 377.128906 493.820312 C 379.609375 490.875 380.019531 487.703125 379.28125 483.863281 C 378.269531 478.601562 377.714844 473.1875 377.613281 467.824219 C 377.074219 438.617188 386.753906 412.523438 403.125 388.875 C 416.542969 369.492188 417.507812 347.585938 418 325.265625 C 411.890625 339.753906 408.441406 355.394531 397.25 367.214844 C 392.90625 366.636719 395.539062 363.796875 395.660156 361.9375 C 395.871094 358.714844 398.625 355.710938 396.585938 351.636719 C 393.644531 357.894531 391.15625 363.5625 393.726562 370.011719 C 392.796875 371.445312 391.867188 372.878906 390.789062 374.550781 C 387.933594 370.902344 389.929688 365.585938 384.5625 359.796875 C 373.90625 392.449219 374.28125 425.835938 362.019531 457.554688 C 361.542969 430.875 361.308594 405.789062 365.597656 379.289062 C 356.035156 388.039062 350.664062 397.289062 348.734375 408.503906 C 345.03125 429.980469 346.035156 451.625 347.460938 473.160156 C 349.175781 498.976562 352 524.71875 354.464844 551.871094 C 369.601562 532.898438 378.757812 512.21875 391.015625 491.332031 C 385.660156 493.074219 382.058594 494.242188 378.457031 495.410156 Z M 1052.578125 510.445312 C 1043.417969 479.363281 1042.183594 448.046875 1048.734375 416.242188 C 1050.691406 406.734375 1050.992188 396.78125 1047.855469 386.738281 C 1044.117188 403.324219 1040.378906 419.90625 1036.636719 436.488281 C 1032.675781 424.476562 1032.597656 412.628906 1034.105469 400.621094 C 1036.117188 384.597656 1044.777344 370.761719 1048.460938 355.34375 C 1049.707031 350.128906 1052.644531 342.742188 1046.542969 339.980469 C 1040.449219 337.222656 1035.691406 343.203125 1031.945312 348.019531 C 1030.484375 349.902344 1029.339844 352.046875 1028.183594 354.144531 C 1021.953125 365.453125 1017.046875 377.296875 1013.039062 389.59375 C 1010.234375 398.203125 1009.714844 407.550781 1004.769531 416.003906 C 1003.589844 404.753906 1002 394.070312 1003.230469 383.21875 C 1004.429688 372.605469 1006.792969 362.261719 1009.984375 351.707031 C 969.730469 370.183594 942.332031 402.160156 915.230469 438.476562 C 960.492188 431.125 994.828125 446.558594 1023.503906 477.167969 C 1033.15625 487.472656 1040.675781 499.390625 1049.238281 510.519531 C 1051.714844 516.457031 1055.253906 521.660156 1059.511719 526.796875 C 1073.992188 502.601562 1075.0625 465.75 1062.292969 442.996094 C 1058.539062 463.742188 1057.253906 484.644531 1055.234375 505.46875 C 1055.058594 507.246094 1056.988281 510.71875 1052.578125 510.445312 Z M 1226.015625 306.023438 C 1229.136719 304.960938 1227.523438 303.449219 1226.398438 301.988281 C 1226.265625 296.3125 1226.011719 290.628906 1226.015625 284.949219 C 1226.027344 264.933594 1231.59375 245.792969 1235.917969 226.53125 C 1242.507812 197.171875 1237.3125 170.367188 1220.210938 143.339844 C 1226.027344 178.585938 1220.183594 210.726562 1212.445312 242.707031 C 1210.523438 218.851562 1209.363281 195.015625 1207.671875 171.21875 C 1205.699219 143.5 1198.75 117.371094 1181 95.148438 C 1173.078125 85.226562 1162.859375 78.609375 1150.96875 74.546875 C 1155.847656 80.300781 1162.210938 84.542969 1166.617188 93.609375 C 1151.578125 84.457031 1138.714844 76.925781 1126.164062 68.90625 C 1110.980469 59.203125 1094.394531 55.242188 1076.589844 55.527344 C 1073.703125 54.9375 1070.867188 54.964844 1067.898438 56.132812 C 1070.902344 56.761719 1073.472656 58.390625 1076.449219 57.707031 C 1109.96875 63.917969 1135.785156 84.28125 1160.460938 105.550781 C 1176.296875 119.199219 1180.101562 139.347656 1181.46875 161.367188 C 1169.378906 143.097656 1158.351562 126.429688 1147.320312 109.757812 C 1149.949219 131.683594 1157.152344 151.0625 1171.058594 167.878906 C 1177.894531 176.144531 1181.714844 186.582031 1185.554688 196.679688 C 1194.039062 218.988281 1195.824219 242.089844 1193.601562 265.6875 C 1187.714844 245.183594 1181.910156 224.773438 1171.574219 206.046875 C 1175.789062 233.328125 1181.789062 260.109375 1184.292969 287.464844 C 1184.539062 290.164062 1185.5625 291.722656 1188.058594 292.921875 C 1200.214844 298.761719 1212.285156 304.773438 1226.015625 306.023438 Z M 547.257812 205.660156 C 546.710938 205.394531 546.160156 205.121094 545.613281 204.855469 C 545.691406 205.546875 545.765625 206.238281 545.84375 206.925781 C 560.75 233.054688 570.988281 261.804688 589.859375 285.953125 C 584.535156 254.929688 593.5 226.679688 605.242188 199.125 C 617.773438 169.730469 622.652344 139.800781 614.015625 107.710938 C 606.808594 131.816406 605.796875 156.539062 599.433594 180.210938 C 589.542969 138.40625 604.359375 100.859375 620.691406 63.277344 C 606.957031 63.1875 597.160156 68.179688 592.003906 81.042969 C 589.777344 86.59375 586.976562 91.945312 584.0625 97.175781 C 576.699219 110.394531 568.089844 122.609375 554.917969 130.804688 C 552.105469 132.554688 549.386719 135.15625 545.304688 133.3125 C 560.59375 118.914062 569.9375 101.289062 577.46875 82.226562 C 576.121094 81.921875 575.332031 81.5 575.058594 81.722656 C 547.625 103.921875 527.453125 131.332031 515.574219 164.710938 C 514.695312 167.183594 515.015625 168.457031 517.179688 169.863281 C 530.21875 178.328125 539.351562 191.519531 553.453125 198.972656 C 561.242188 203.089844 567.503906 209.976562 571.277344 218.777344 C 563.269531 214.40625 555.265625 210.035156 547.257812 205.660156 Z M 462.65625 444.269531 C 462.128906 443.75 461.601562 443.230469 461.074219 442.714844 C 464.015625 437.152344 466.835938 431.53125 469.914062 426.046875 C 478.414062 410.878906 487.195312 395.878906 490.285156 378.363281 C 491.972656 368.78125 491.160156 359.933594 484.09375 351.003906 C 476.550781 375.675781 474.007812 401.125 460.835938 422.980469 L 460.871094 423.222656 C 458.292969 419.132812 460.589844 415.0625 461.210938 411.125 C 464.191406 392.148438 469.0625 373.609375 474.542969 355.203125 C 478.644531 341.410156 476.613281 338.578125 462.714844 333.5 C 455.789062 330.96875 453.457031 331.234375 454.226562 339.796875 C 455.5625 354.675781 453.8125 369.386719 446.667969 384.878906 C 444.632812 364.273438 439.355469 346.140625 440.117188 326.660156 C 434 328.75 433.851562 332.789062 432.976562 336.492188 C 426.835938 362.367188 424.894531 388.613281 425.71875 415.132812 C 425.929688 421.917969 425.753906 428.714844 425.753906 435.507812 C 419.054688 420.265625 417.007812 404.726562 414.902344 387.625 C 407.246094 400.296875 405.320312 412.335938 407.183594 425.1875 C 409.074219 438.234375 412.394531 451.148438 411.804688 464.445312 C 411.550781 470.148438 413.488281 470.777344 418.539062 469.550781 C 427.574219 467.355469 436.796875 466.082031 446.183594 466.601562 C 476.703125 468.292969 499.644531 484.179688 519.753906 505.558594 C 525.375 511.535156 530.089844 518.472656 537.941406 524.066406 C 537.53125 520.132812 537.339844 517.515625 536.980469 514.921875 C 534.542969 497.332031 530.113281 480.136719 524.121094 463.527344 C 521.15625 455.3125 522.488281 445.617188 513.417969 438.75 C 509.214844 435.5625 510.53125 425.222656 509.148438 418.164062 C 506.5625 404.976562 504.773438 391.523438 497.214844 377.984375 C 492.523438 391.296875 489.183594 403.164062 483.296875 414.007812 C 477.4375 424.800781 471.488281 435.515625 462.65625 444.269531 Z M 667.695312 586.421875 C 675.863281 583.921875 680.773438 577.371094 683.722656 570.398438 C 687.980469 560.328125 693.082031 551.050781 700.144531 542.789062 C 707.449219 534.242188 712.277344 524.390625 716.035156 513.855469 C 728.203125 479.71875 724.089844 444.566406 723.050781 409.570312 C 713.363281 437.363281 712.40625 466.808594 706.78125 495.363281 C 704.003906 485.832031 702.347656 476.441406 701.730469 466.847656 C 699.5625 433.023438 707.4375 401.546875 723.445312 371.902344 C 733.601562 359.449219 739.8125 345.253906 742.613281 329.539062 C 736.9375 339.65625 732.34375 350.269531 727.285156 360.65625 C 726.195312 362.898438 726.929688 367.972656 721.605469 366.308594 C 721.785156 357.90625 722.714844 349.636719 724.328125 341.335938 C 727.511719 324.976562 734.257812 310 740.628906 294.789062 C 748.621094 275.695312 752.078125 255.96875 746.007812 235.382812 C 740.46875 262.945312 726.695312 287.308594 716.296875 315.738281 C 716.296875 310.222656 716.203125 307.320312 716.3125 304.429688 C 717.359375 275.277344 725.425781 247.765625 735.601562 220.695312 C 740.441406 207.820312 741.421875 194.390625 739.882812 180.65625 C 730.476562 199.675781 725.246094 220.359375 714.492188 240.722656 C 714.472656 211.894531 718.121094 186.019531 733.113281 162.9375 C 735.199219 159.726562 737.027344 156.890625 732.335938 154.125 C 721.75 147.882812 711.390625 141.226562 699.246094 138.226562 C 693.554688 136.816406 691.703125 137.71875 693.917969 144.199219 C 701.054688 165.078125 703.101562 186.507812 698.824219 208.480469 C 694.230469 187.496094 688.277344 167 679.289062 146 C 676.933594 152.628906 674.941406 157.90625 674.753906 163.574219 C 673.894531 189.417969 674.882812 215.15625 679.359375 240.695312 C 682.886719 260.859375 692.050781 279.421875 695.71875 299.550781 C 700.0625 323.421875 698.429688 346.859375 691.753906 370.015625 C 689.964844 343.828125 686.835938 317.917969 680.359375 292.347656 C 679.640625 320.996094 675.546875 349.148438 670.816406 377.242188 C 667.925781 394.378906 669.164062 411.3125 674.425781 427.921875 C 676.78125 435.351562 679.152344 442.78125 681.300781 450.265625 C 688.511719 475.367188 685.015625 500.664062 683.902344 525.914062 C 683.113281 525.976562 682.324219 526.039062 681.539062 526.101562 C 679.058594 507.648438 676.582031 489.195312 674.101562 470.742188 C 662.421875 498.230469 674.144531 523.773438 679.574219 551.402344 C 672.519531 546.691406 671.625 539.445312 667.0625 535.289062 C 666.175781 535.46875 665.289062 535.652344 664.402344 535.832031 C 664.402344 551.988281 664.402344 568.140625 664.402344 584.292969 C 663.007812 606.140625 662.144531 628.039062 660.039062 649.816406 C 658.554688 665.164062 665.21875 676.5625 674.765625 688.179688 C 674.765625 678.042969 674.894531 668.824219 674.734375 659.609375 C 674.480469 645.234375 676.808594 631.679688 684.730469 619.210938 C 691.554688 608.464844 688.738281 596.382812 689.058594 583.503906 C 677.917969 590.6875 672.851562 600.945312 666.445312 611.171875 C 663.476562 601.890625 668.75 594.34375 667.695312 586.421875 Z M 640.496094 60.121094 C 636.679688 61.753906 634.742188 65.199219 632.753906 68.46875 C 621.675781 86.714844 620.296875 106.277344 625.234375 126.601562 C 628.84375 141.445312 633.019531 156.167969 636.132812 171.117188 C 638.351562 181.792969 641.238281 192.753906 635.847656 204.328125 C 632.761719 194.359375 632.261719 184.167969 626.96875 175.429688 C 628.671875 206.183594 625.613281 236.273438 617.4375 265.875 C 614.828125 249.351562 613.953125 232.753906 613.011719 216.105469 C 601.285156 245.679688 605.5 276.234375 608.128906 308.207031 C 602.90625 301.914062 603.519531 294.730469 599.203125 288.882812 C 597.925781 297.9375 599.433594 305.183594 604.0625 312.085938 C 609.742188 320.546875 614.308594 329.679688 617.941406 339.246094 C 624.460938 356.402344 626.390625 376.015625 622.496094 389.722656 C 618.320312 373.648438 613.835938 358.609375 606.441406 342.925781 C 602.699219 349.726562 606.070312 354.144531 606.617188 358.554688 C 609.972656 385.617188 613.867188 412.632812 621.210938 438.972656 C 629.585938 469.023438 638.757812 498.90625 637.097656 530.695312 C 637.085938 530.898438 638 531.15625 638.488281 531.371094 C 652.730469 506.652344 665.300781 450.445312 659.507812 437.4375 C 654.722656 451.347656 651.644531 465.867188 644.480469 480.605469 C 641.699219 458.574219 644.394531 439.21875 653.675781 420.664062 C 661.140625 405.734375 662.261719 396.8125 659.523438 386.335938 C 651.324219 399.789062 644.835938 413.710938 637.304688 429.550781 C 635.839844 409.625 640.097656 393.164062 647.058594 377.148438 C 652.304688 365.070312 658.730469 353.488281 662.527344 340.785156 C 663.855469 336.320312 665.253906 331.933594 663.007812 326.597656 C 659.914062 331.789062 657.242188 336.34375 654.488281 340.855469 C 653.722656 342.105469 652.824219 343.597656 651.039062 343.117188 C 648.457031 342.417969 649.289062 340.042969 649.691406 338.667969 C 654.839844 321.054688 655.636719 302.652344 659.671875 284.824219 C 665.222656 260.3125 667.410156 235.464844 663.625 209.925781 C 655.800781 235.238281 647.976562 260.550781 639.464844 288.085938 C 636.175781 255.746094 640.652344 227.273438 654.9375 200.59375 C 660.570312 190.066406 664.867188 179.136719 664.984375 166.777344 C 660.351562 173.332031 656.546875 180.289062 652.714844 187.226562 C 651.863281 188.765625 651.011719 190.875 648.78125 189.664062 C 647.242188 188.828125 648.097656 187.234375 648.511719 185.730469 C 651.921875 173.234375 656.4375 161.257812 663.828125 150.480469 C 665.300781 148.335938 667.96875 146.570312 667.769531 143.128906 C 658.777344 144.777344 654.511719 153.328125 645.769531 156.675781 C 652.414062 138.582031 664.472656 129.398438 681.53125 126.988281 C 693.992188 125.226562 706.078125 127.289062 717.351562 133.089844 C 724.546875 136.792969 731.652344 140.664062 738.75 144.550781 C 742.59375 146.65625 744.875 146.167969 747.179688 141.882812 C 750.839844 135.054688 755.476562 128.753906 759.703125 122.230469 C 766.382812 115.914062 774.367188 111.828125 783.089844 109.359375 C 786.796875 108.3125 788.734375 107.144531 788.507812 102.832031 C 787.632812 86.035156 788.492188 69.253906 789.460938 52.472656 C 789.773438 47.0625 789.761719 41.367188 784.9375 35.804688 C 783.382812 40.492188 782.226562 44.128906 780.976562 47.734375 C 773.902344 68.148438 769.90625 89.40625 763.765625 110.070312 C 763.152344 112.125 764.820312 116.992188 759.4375 115.921875 C 758.664062 102.308594 757.890625 88.695312 757.042969 73.769531 C 746.949219 84.488281 743.039062 97.667969 735.628906 108.6875 C 733.59375 78.167969 753.0625 57.027344 769.703125 33.382812 C 761.082031 32.542969 754.539062 31.925781 748.003906 31.265625 C 744.691406 30.929688 742.574219 32.074219 740.734375 35.128906 C 728.726562 55.074219 711.394531 69.804688 692.742188 83.140625 C 689.753906 85.277344 686.71875 87.917969 680.847656 86.988281 C 696.496094 70.335938 708.601562 52.25 723.195312 33.214844 C 699.3125 39.40625 685.746094 57.328125 667.433594 70.886719 C 673.640625 57.5 682.957031 49.480469 691.125 40.503906 C 691.464844 40.246094 691.804688 39.988281 692.144531 39.730469 C 691.503906 38.953125 690.933594 38.863281 690.488281 39.910156 C 682.851562 39.816406 676.132812 43.710938 668.824219 44.90625 C 658.179688 46.648438 654.0625 53.132812 653.003906 63.371094 C 650.996094 82.773438 650.003906 102.15625 651.335938 121.632812 C 651.550781 124.726562 652.207031 127.914062 650.375 131.691406 C 649.265625 129.835938 648.515625 128.652344 647.839844 127.429688 C 636.132812 106.242188 636.46875 83.914062 641.566406 61.132812 C 641.640625 60.398438 642 59.167969 641.734375 59.011719 C 640.695312 58.402344 640.628906 59.398438 640.496094 60.121094 Z M 1015.890625 304.816406 C 996.804688 288.941406 992.003906 266.078125 986.3125 243.457031 C 979.449219 265.046875 979.265625 286.886719 979.984375 308.910156 C 971.265625 286.984375 965.429688 264.769531 972.871094 241.171875 C 976.472656 229.75 981.285156 218.730469 983.78125 206.933594 C 988.859375 182.941406 988.292969 159.707031 975.144531 136.824219 C 970.101562 163.785156 965.261719 189.667969 960.421875 215.546875 C 951.761719 175.933594 955.214844 136.976562 966.414062 98.238281 C 961.460938 102.585938 957.617188 107.089844 954.023438 111.785156 C 937.335938 133.578125 929.925781 157.6875 935.34375 185.203125 C 937.488281 196.085938 938.980469 207.109375 940.390625 218.113281 C 941.5 226.738281 942.320312 235.421875 942.730469 244.105469 C 943.121094 252.464844 942.8125 260.851562 942.8125 270.53125 C 928.367188 242.179688 927.214844 212.328125 923.214844 181.59375 C 913.367188 208.589844 916.195312 233.980469 922.628906 259.285156 C 927.425781 278.15625 934.253906 296.507812 937 315.902344 C 939.613281 334.363281 939.960938 352.730469 935.25 373.367188 C 930.003906 346.003906 925.21875 321.035156 919.976562 293.679688 C 912.546875 328.628906 916.726562 360.3125 924.113281 391.824219 C 924.605469 391.78125 925.019531 391.871094 925.164062 391.710938 C 957.046875 357.046875 995.902344 334.789062 1042.324219 326.207031 C 1047.398438 325.265625 1046.871094 323.316406 1045.332031 319.664062 C 1040.527344 308.273438 1037.417969 296.40625 1036.371094 284.054688 C 1033.675781 252.230469 1039.855469 222.261719 1053.261719 193.210938 C 1066.558594 164.390625 1064.179688 134.832031 1053.28125 105.625 C 1052.550781 103.675781 1052.25 101.324219 1049.417969 101.480469 C 1046.214844 101.652344 1046.953125 104.503906 1046.667969 106.277344 C 1045.574219 113.089844 1044.820312 119.953125 1043.863281 126.785156 C 1041.191406 145.851562 1039.898438 165.035156 1039.070312 184.316406 C 1031.292969 160.898438 1029.367188 137.03125 1032.398438 112.75 C 1033.519531 103.773438 1034.277344 94.789062 1032.78125 85.839844 C 1031.019531 75.324219 1023.589844 69.730469 1013.800781 70.976562 C 1008.429688 71.660156 1005.878906 73.105469 1010.214844 78.746094 C 1015.382812 85.464844 1020.324219 92.484375 1022.765625 100.996094 C 1019.921875 101.960938 1018.753906 100.394531 1017.566406 99.210938 C 1012.046875 93.699219 1006.4375 88.261719 1001.167969 82.515625 C 997.84375 78.882812 994.617188 80.054688 991.628906 82.253906 C 987.882812 85.003906 991.90625 86.839844 993.015625 88.824219 C 1004.1875 108.75 1007.160156 130.269531 1005.601562 152.78125 C 996.640625 131.386719 990.746094 108.625 976.402344 89.785156 C 976.765625 114.960938 982.117188 138.371094 998.640625 158.203125 C 1012.136719 174.398438 1020.953125 193.023438 1025.195312 213.601562 C 1027.679688 225.636719 1029.054688 237.917969 1025.390625 250.097656 C 1023.382812 240.878906 1020.089844 232.171875 1017.308594 223.320312 C 1014.617188 214.746094 1011.835938 206.195312 1008.867188 197.714844 C 1005.957031 189.398438 1003.800781 180.683594 997.320312 172.203125 C 1001.15625 217.410156 997.699219 261.925781 1017.464844 302.839844 C 1016.941406 303.503906 1016.417969 304.160156 1015.890625 304.816406 Z M 833.296875 373.074219 C 832.683594 374.667969 832.027344 376.246094 831.464844 377.859375 C 822.832031 402.632812 818.304688 428.277344 815.019531 454.210938 C 814.398438 459.117188 814.699219 464.511719 810.082031 468.722656 C 804.835938 426.867188 808.367188 386.859375 825.34375 348.328125 C 834.148438 328.339844 842.984375 308.273438 848.449219 286.984375 C 849.441406 283.125 850.542969 279.285156 848.496094 272.886719 C 844.0625 287.074219 839.132812 298.515625 832.824219 309.316406 C 831.964844 310.789062 831.054688 312.984375 828.902344 311.878906 C 828.109375 311.476562 827.742188 309.191406 828.003906 307.9375 C 830.621094 295.382812 833.386719 282.859375 836.152344 270.335938 C 837.707031 263.3125 839.417969 256.324219 840.925781 249.292969 C 842.433594 242.261719 844.082031 235.238281 845.128906 228.132812 C 846.125 221.390625 846.417969 214.542969 847.023438 207.742188 C 833.113281 230.4375 828.335938 255.996094 821.316406 281.453125 C 820.695312 280.023438 820.125 279.257812 820.039062 278.441406 C 816.980469 249.132812 821.542969 221.53125 839.207031 197.199219 C 846.757812 186.800781 850.398438 175.640625 849.988281 162.777344 C 849.480469 146.863281 850.886719 131.007812 852.679688 115.183594 C 854.730469 97.050781 859.074219 78.882812 854.710938 60.617188 C 850.539062 43.144531 839.765625 29.921875 824.683594 20.722656 C 815.714844 15.246094 808.605469 24.597656 800.371094 25.980469 C 799.800781 26.078125 799.285156 26.5 798.714844 26.671875 C 794.039062 28.082031 794.824219 30.238281 797.878906 32.703125 C 820.425781 50.851562 827.496094 76.996094 834.21875 103.277344 C 835.09375 106.703125 836.40625 110.449219 833.921875 114.609375 C 819.375 93.972656 811.480469 70.859375 798.855469 47.773438 C 797.023438 64.070312 797.371094 78.402344 800.289062 92.328125 C 810.054688 138.9375 809.984375 185.898438 806.648438 233.039062 C 802.699219 288.828125 792.828125 343.800781 781.636719 398.429688 C 771.8125 446.402344 775.183594 491.984375 797.621094 535.765625 C 798.847656 538.152344 798.964844 541.375 802.183594 543.039062 C 810.828125 525.746094 819.542969 509 830.054688 493.28125 C 831.820312 490.636719 832.5625 487.816406 832.621094 484.816406 C 833.363281 447.632812 835.589844 410.480469 833.296875 373.074219 Z M 701.289062 603.199219 C 689.738281 627.953125 692.121094 652.910156 699.230469 677.847656 C 702.847656 690.53125 708.210938 703.011719 708.554688 716.1875 C 709.042969 735.226562 714.085938 752.460938 722.613281 769.339844 C 731.425781 786.78125 735.730469 805.988281 740.574219 825.136719 C 741.601562 824.488281 741.949219 824.390625 742.074219 824.167969 C 743.089844 822.355469 744.050781 820.511719 745.058594 818.695312 C 769.335938 774.898438 784.871094 728.933594 781.074219 677.882812 C 776.585938 617.460938 764.382812 558.621094 745.875 501.015625 C 745.308594 499.257812 744.726562 497.503906 741.511719 498.101562 C 747.632812 530.390625 753.960938 562.78125 748.464844 597.957031 C 737.925781 568.566406 729.308594 540.929688 729.335938 511.257812 C 727.921875 512.175781 727.378906 512.886719 727.078125 513.691406 C 717.65625 538.644531 717.679688 563.574219 727.902344 588.242188 C 735.554688 606.722656 738.679688 625.605469 734.753906 645.398438 C 734.015625 649.125 733.960938 649.117188 731.035156 652.578125 C 729.472656 636.785156 726.527344 621.183594 720.96875 606.179688 C 719.320312 634.125 719.109375 661.90625 723.210938 689.578125 C 707.871094 662.605469 702.695312 633.386719 701.289062 603.199219 Z M 538.910156 401.679688 C 522.019531 438.898438 541.117188 469 552.476562 500.273438 C 552.277344 476.3125 561.671875 407.78125 567.4375 396.6875 C 578.199219 412.269531 583.363281 447.246094 577.1875 465.695312 C 574.472656 454.398438 573.746094 443.398438 569.257812 431.578125 C 564.515625 462.402344 574.675781 490.652344 573.933594 521.457031 C 566.300781 507.898438 562.34375 495.199219 560.304688 481.808594 C 555.269531 527.578125 573.980469 564.753906 601.777344 598.867188 C 603.453125 582.058594 608.191406 566.421875 612.707031 550.660156 C 625.132812 507.335938 619.453125 464.6875 606.65625 422.269531 C 604.21875 441.566406 603.242188 461.085938 595.230469 479.171875 C 591.625 457.472656 591.578125 435.761719 592.375 414.027344 C 593.507812 383.152344 595.558594 352.234375 588.113281 321.769531 C 585.835938 312.460938 584.027344 302.964844 578.75 294.394531 C 584.082031 316.320312 581.511719 337.964844 577.84375 359.6875 C 574.488281 344.753906 574.804688 329.191406 568.8125 314.640625 C 565.769531 353.433594 546.613281 388.632812 544.105469 427.660156 C 542.492188 419.589844 540.878906 411.519531 538.910156 401.679688 Z M 524.359375 354.839844 C 521.042969 318.144531 524.195312 281.898438 537.332031 247.683594 C 543.972656 230.375 543.269531 216.414062 532.597656 202.164062 C 532.242188 201.6875 532.019531 201.113281 531.753906 200.578125 C 528.875 194.730469 526.847656 196.242188 524.339844 201.066406 C 513.097656 222.671875 505.742188 245.109375 507.09375 269.945312 C 507.761719 282.203125 508.574219 294.5625 506.878906 309.128906 C 502.195312 296.140625 499.765625 284.976562 497.40625 273.582031 C 490.921875 289.554688 485.710938 305.691406 483.71875 322.722656 C 483.128906 327.78125 484.78125 331.957031 488.078125 335.882812 C 498.40625 348.179688 505.683594 362.234375 511.121094 377.28125 C 514.921875 387.796875 518.699219 398.324219 523.03125 410.375 C 526.550781 391.871094 534.679688 376.78125 541.125 361.007812 C 552.605469 332.925781 562.683594 304.324219 561.257812 273.242188 C 560.699219 260.949219 557.085938 249.542969 549.0625 237.097656 C 543.105469 278.367188 532.316406 316.246094 524.359375 354.839844 Z M 858.726562 356.167969 C 854.769531 341.949219 852.304688 327.53125 850.347656 312.921875 C 845.785156 326.304688 846.695312 339.953125 848.695312 353.460938 C 853.839844 388.171875 854.621094 422.6875 846.027344 457.023438 C 844.953125 461.324219 844.660156 465.816406 843.710938 472.191406 C 858.621094 453.992188 872.269531 437.738281 885.445312 421.113281 C 894.421875 409.777344 899.570312 396.648438 899.433594 382.058594 C 899.230469 361.167969 893.574219 341.339844 886.308594 321.925781 C 886.214844 321.679688 885.242188 321.761719 884.082031 321.613281 C 885.910156 332.59375 885.6875 343.394531 883.816406 355.296875 C 872.265625 322.476562 875.398438 288.152344 863.371094 256.8125 C 866.179688 290.148438 861.222656 323.039062 858.726562 356.167969 Z M 448.488281 478.027344 C 438.984375 474.007812 428.089844 477.992188 417.066406 479.742188 C 411.929688 480.558594 410.171875 482.855469 409.898438 487.96875 C 409.464844 495.980469 406.847656 503.539062 402.144531 510.574219 C 402.144531 504.769531 402.144531 498.972656 402.144531 490.402344 C 396.59375 499.550781 392.6875 506.371094 390.175781 513.945312 C 382.042969 538.472656 372.390625 562.269531 357.742188 583.796875 C 352.789062 591.082031 350.671875 599.570312 348.785156 608.105469 C 345.203125 624.300781 344.835938 640.820312 343.410156 657.238281 C 341.980469 673.707031 339.417969 689.972656 334.039062 705.699219 C 330.507812 690.6875 330.3125 675.503906 329.03125 660.332031 C 326.386719 672.875 322.890625 685.1875 324.667969 698.203125 C 326.039062 708.238281 325.40625 718.757812 331.652344 727.542969 C 333.808594 730.570312 335.628906 735.355469 339.710938 734.972656 C 342.855469 734.675781 342.878906 729.691406 344.503906 726.910156 C 345.84375 724.621094 346.53125 721.933594 347.445312 719.402344 C 355.222656 697.910156 355.929688 675.3125 357.28125 652.914062 C 361.636719 580.683594 395.476562 524.375 448.488281 478.027344 Z M 883.738281 266.871094 C 888.179688 207.976562 923.347656 161.253906 944.507812 109.238281 C 942.894531 108.117188 941.320312 108.300781 940.160156 109.265625 C 920.523438 125.480469 901.042969 141.839844 884.324219 161.230469 C 879.492188 166.832031 878.285156 171.550781 881.558594 178.761719 C 889.855469 197.046875 889.582031 212.058594 881.992188 228.824219 C 879.230469 212.363281 875.636719 196.769531 865.996094 183.105469 C 854.652344 214.648438 876.492188 239.171875 883.738281 266.871094 Z M 344.644531 504.339844 C 343.40625 504.277344 342.171875 504.210938 340.933594 504.148438 C 332.59375 536.773438 328.839844 570.222656 323.726562 603.625 C 337.148438 595.460938 344.285156 582.792969 344.566406 565.234375 C 344.894531 544.941406 344.644531 524.640625 344.644531 504.339844 Z M 649.046875 543.183594 C 639.285156 550.980469 631.046875 558.222656 636.261719 573.390625 C 642.03125 590.175781 639.984375 607.730469 633.378906 624.449219 C 629.925781 633.195312 630.042969 633.488281 638.652344 638.882812 C 646.027344 607.425781 646.730469 575.324219 649.046875 543.183594 Z M 442.671875 193.746094 C 441.15625 193.632812 440.378906 193.328125 440.070312 193.582031 C 425.019531 206.085938 414.023438 221.5625 406.3125 239.488281 C 405.453125 241.488281 405.488281 242.84375 407.027344 244.203125 C 413.675781 250.101562 420.34375 255.984375 427.449219 262.269531 C 426.972656 221.574219 426.972656 221.574219 442.671875 193.746094 Z M 904.472656 227.152344 C 901.78125 257.695312 886.660156 287.871094 901.511719 318.9375 C 903.320312 288.367188 908.910156 257.90625 904.472656 227.152344 Z M 1048.027344 278.675781 C 1046.929688 293.644531 1048.03125 306.15625 1050.117188 318.578125 C 1050.511719 320.941406 1050.15625 324.886719 1053.765625 324.957031 C 1062.542969 325.128906 1071.082031 327.335938 1080.183594 327.816406 C 1073.257812 318.449219 1066.8125 309.296875 1060.234375 298.035156 C 1060.234375 304.699219 1060.234375 309.242188 1060.234375 315.699219 C 1053.703125 303.726562 1051.484375 292.378906 1048.027344 278.675781 Z M 625.558594 625.8125 C 634.855469 605.007812 631.605469 584.796875 625.296875 564.574219 C 624.179688 578.4375 621.410156 591.992188 617.523438 605.15625 C 614.738281 614.582031 617.78125 620.402344 625.558594 625.8125 Z M 1228.5625 306.875 C 1233.429688 307.3125 1237.550781 307.667969 1241.667969 308.054688 C 1244.898438 308.355469 1246.683594 307.335938 1246.683594 303.664062 C 1246.6875 288.992188 1246.410156 274.359375 1243.335938 258.097656 C 1237.648438 275.058594 1232.515625 290.238281 1228.5625 306.875 Z M 383.273438 485.410156 C 400.886719 480.375 407.632812 453.367188 396.324219 435.019531 C 391.105469 451.558594 386.167969 468.0625 383.273438 485.410156 Z M 684.660156 655.296875 C 684.273438 675.761719 679.894531 696.976562 693.988281 717.339844 C 692.886719 695.082031 690.34375 675.03125 684.660156 655.296875 Z M 1210.589844 390.113281 C 1212.925781 410.917969 1224.289062 427.347656 1236.296875 443.464844 C 1233.941406 422.726562 1220.332031 407.375 1210.589844 390.113281 Z M 795.199219 158.34375 C 794.042969 146.457031 792.738281 134.582031 791.796875 122.675781 C 791.347656 116.960938 787.824219 118.242188 784.890625 119.488281 C 782.289062 120.597656 775.894531 119.664062 779.113281 125.53125 C 784.964844 136.207031 789.394531 147.464844 795.199219 158.34375 Z M 501.835938 222.359375 C 506.339844 215.699219 509.613281 211.234375 512.476562 206.519531 C 515.734375 201.15625 518.542969 195.515625 519.671875 189.257812 C 520.433594 185.007812 518.101562 182.066406 514.378906 181.046875 C 509.621094 179.738281 510.257812 184.585938 509.617188 186.824219 C 506.539062 197.625 503.246094 208.417969 501.835938 222.359375 Z M 284.324219 444.40625 C 276.582031 448.945312 271.972656 455.234375 268.804688 462.789062 C 266.601562 468.039062 270.429688 468.871094 273.503906 470.480469 C 277.796875 472.722656 277.765625 468.972656 278.402344 466.699219 C 280.484375 459.296875 282.367188 451.839844 284.324219 444.40625 Z M 327.019531 737.613281 C 326.53125 745.546875 327.550781 752.34375 331.675781 759.710938 C 333.503906 751.144531 339.097656 743.152344 327.019531 737.613281 Z M 1228.070312 475.417969 C 1233.550781 464.285156 1232.984375 456.390625 1226.441406 449.453125 C 1227.980469 457.441406 1227.953125 465.484375 1228.070312 475.417969 Z M 989.195312 68.289062 C 983.871094 66.457031 980.019531 62.804688 975.101562 65.308594 C 974.691406 65.515625 975.515625 70.519531 977.015625 71.691406 C 981.855469 75.472656 984.621094 70.324219 989.195312 68.289062 Z M 697.648438 564.484375 C 706.191406 563.714844 708.554688 558.566406 709.457031 552.109375 C 704.980469 555.375 700.78125 558.882812 697.648438 564.484375 Z M 628.710938 549.75 C 631.8125 541.277344 628.96875 534.742188 626.453125 526.296875 C 625.402344 535.085938 626.140625 541.828125 628.710938 549.75 Z M 1253.710938 320.570312 C 1255.023438 325.816406 1254.679688 331.636719 1259.828125 336.613281 C 1258.671875 330.164062 1257.324219 324.953125 1253.710938 320.570312 Z M 1078.121094 666.210938 C 1077.875 665.90625 1077.421875 665.339844 1076.972656 664.773438 C 1076.605469 665.847656 1076.160156 666.910156 1075.929688 668.015625 C 1075.871094 668.3125 1076.515625 669.089844 1076.765625 669.058594 C 1078.242188 668.886719 1078.269531 667.75 1078.121094 666.210938 Z M 1003.277344 576.691406 C 1003.492188 576.171875 1003.835938 575.699219 1003.832031 575.226562 C 1003.832031 574.925781 1003.324219 574.625 1003.042969 574.324219 C 1002.816406 574.824219 1002.453125 575.3125 1002.414062 575.824219 C 1002.394531 576.085938 1002.960938 576.394531 1003.277344 576.691406 Z M 133.753906 507.207031 C 133.339844 507.433594 132.972656 507.636719 132.609375 507.839844 C 132.796875 508.023438 133.027344 508.382812 133.171875 508.351562 C 133.566406 508.261719 133.925781 508.011719 134.296875 507.820312 C 134.125 507.625 133.949219 507.429688 133.753906 507.207031 Z M 133.753906 507.207031 " fill-opacity="1" fill-rule="evenodd"/></g><path fill="#036b39" d="M 1153.253906 376.242188 C 1153.652344 376.042969 1154.050781 375.84375 1154.449219 375.648438 C 1154.390625 375.746094 1154.335938 375.921875 1154.261719 375.933594 C 1153.988281 375.960938 1153.703125 375.941406 1153.398438 375.984375 C 1153.375 376.027344 1153.253906 376.242188 1153.253906 376.242188 Z M 1153.253906 376.242188 " fill-opacity="1" fill-rule="evenodd"/><path fill="#036b39" d="M 1187.894531 510.484375 L 1188.039062 510.679688 C 1188.039062 510.679688 1187.742188 510.652344 1187.734375 510.6875 C 1187.726562 510.722656 1187.894531 510.484375 1187.894531 510.484375 Z M 1187.894531 510.484375 " fill-opacity="1" fill-rule="evenodd"/><path fill="#036b39" d="M 483.121094 585.640625 C 482.285156 586.304688 481.453125 586.964844 480.617188 587.628906 C 479.765625 586.074219 480.316406 584.894531 481.605469 583.910156 C 482.113281 584.488281 482.617188 585.0625 483.121094 585.640625 Z M 483.121094 585.640625 " fill-opacity="1" fill-rule="evenodd"/><path fill="#036b39" d="M 1017.46875 302.84375 C 1018.988281 303.730469 1019.460938 305.324219 1018.324219 306.347656 C 1017.351562 307.230469 1016.554688 305.644531 1015.890625 304.816406 C 1016.417969 304.160156 1016.941406 303.503906 1017.46875 302.84375 Z M 1017.46875 302.84375 " fill-opacity="1" fill-rule="evenodd"/><path fill="#036b39" d="M 1086.65625 291.621094 C 1087.171875 292.527344 1087.835938 293.523438 1086.554688 294.21875 C 1086.320312 294.347656 1085.515625 293.417969 1084.972656 292.972656 C 1085.535156 292.523438 1086.09375 292.074219 1086.65625 291.621094 Z M 1086.65625 291.621094 " fill-opacity="1" fill-rule="evenodd"/><path fill="#036b39" d="M 1130.519531 207.792969 C 1130.894531 208.015625 1131.265625 208.242188 1131.636719 208.464844 C 1131.332031 208.71875 1131.023438 208.972656 1130.714844 209.226562 C 1130.601562 208.796875 1130.480469 208.363281 1130.363281 207.9375 C 1130.363281 207.9375 1130.519531 207.792969 1130.519531 207.792969 Z M 1130.519531 207.792969 " fill-opacity="1" fill-rule="evenodd"/><path fill="#036b39" d="M 462.65625 444.269531 C 461.777344 445.824219 460.542969 445.871094 459.121094 445.089844 C 459.773438 444.296875 460.425781 443.503906 461.074219 442.714844 C 461.601562 443.230469 462.128906 443.75 462.65625 444.269531 Z M 462.65625 444.269531 " fill-opacity="1" fill-rule="evenodd"/><path fill="#036b39" d="M 460.835938 422.984375 C 460.375 422.835938 459.917969 422.6875 459.460938 422.539062 C 460.417969 421.605469 460.714844 422.195312 460.863281 423.183594 C 460.871094 423.222656 460.835938 422.984375 460.835938 422.984375 Z M 460.835938 422.984375 " fill-opacity="1" fill-rule="evenodd"/><path fill="#036b39" d="M 378.457031 495.410156 C 377.519531 495.960938 376.519531 496.699219 375.710938 495.394531 C 375.609375 495.226562 376.628906 494.363281 377.132812 493.820312 C 377.574219 494.351562 378.015625 494.882812 378.457031 495.410156 Z M 378.457031 495.410156 " fill-opacity="1" fill-rule="evenodd"/><path fill="#036b39" d="M 1297.082031 363.726562 C 1297.679688 364.535156 1298.625 365.359375 1297.300781 366.242188 C 1297.183594 366.324219 1296.359375 365.351562 1295.863281 364.863281 C 1296.253906 364.46875 1296.65625 364.085938 1297.082031 363.726562 Z M 1297.082031 363.726562 " fill-opacity="1" fill-rule="evenodd"/><g clip-path="url(#900d3f2eac)"><g clip-path="url(#1904d1daa3)"><g transform="matrix(1, 0, 0, 1, 737, 1224)"><g clip-path="url(#7a2284ab41)"><g clip-path="url(#bb3bf92067)"><g clip-path="url(#42095e5e23)"><path fill="#036b39" d="M 0.691406 0.910156 L 21.78125 0.910156 L 21.78125 22 L 0.691406 22 Z M 0.691406 0.910156 " fill-opacity="1" fill-rule="nonzero"/></g></g></g></g></g></g></svg>