<svg xmlns="http://www.w3.org/2000/svg" xmlns:xlink="http://www.w3.org/1999/xlink" width="1080" zoomAndPan="magnify" viewBox="0 0 810 809.999993" height="1080" preserveAspectRatio="xMidYMid meet" version="1.0"><defs><clipPath id="7660ede773"><path d="M 12.65625 0 L 797.15625 0 L 797.15625 810 L 12.65625 810 Z M 12.65625 0 " clip-rule="nonzero"/></clipPath><clipPath id="0ac65088df"><path d="M 592.875 428.679688 L 616.375 428.679688 L 616.375 452.179688 L 592.875 452.179688 Z M 592.875 428.679688 " clip-rule="nonzero"/></clipPath><clipPath id="7587d1a553"><path d="M 604.625 428.679688 C 598.132812 428.679688 592.875 433.941406 592.875 440.429688 C 592.875 446.921875 598.132812 452.179688 604.625 452.179688 C 611.113281 452.179688 616.375 446.921875 616.375 440.429688 C 616.375 433.941406 611.113281 428.679688 604.625 428.679688 Z M 604.625 428.679688 " clip-rule="nonzero"/></clipPath><clipPath id="8f719b174d"><path d="M 0.875 0.679688 L 24.375 0.679688 L 24.375 24.179688 L 0.875 24.179688 Z M 0.875 0.679688 " clip-rule="nonzero"/></clipPath><clipPath id="fcd7b99558"><path d="M 12.625 0.679688 C 6.132812 0.679688 0.875 5.941406 0.875 12.429688 C 0.875 18.921875 6.132812 24.179688 12.625 24.179688 C 19.113281 24.179688 24.375 18.921875 24.375 12.429688 C 24.375 5.941406 19.113281 0.679688 12.625 0.679688 Z M 12.625 0.679688 " clip-rule="nonzero"/></clipPath><clipPath id="a25ae084bc"><rect x="0" width="25" y="0" height="25"/></clipPath></defs><g clip-path="url(#7660ede773)"><path fill="#000000" d="M 297.960938 0.757812 L 134.6875 0.757812 C 120.222656 0.757812 106.886719 8.476562 99.695312 20.964844 L 18.039062 162.417969 C 10.804688 174.902344 10.804688 190.34375 18.039062 202.832031 L 99.695312 344.28125 C 106.886719 356.769531 120.222656 364.488281 134.6875 364.488281 L 297.960938 364.488281 C 312.386719 364.488281 325.722656 356.769531 332.953125 344.28125 L 414.613281 202.832031 C 421.84375 190.34375 421.84375 174.902344 414.613281 162.417969 L 332.953125 20.964844 C 325.761719 8.476562 312.386719 0.757812 297.960938 0.757812 Z M 297.960938 445.316406 L 134.6875 445.316406 C 120.261719 445.316406 106.929688 453.035156 99.695312 465.523438 L 18.039062 606.976562 C 10.804688 619.464844 10.804688 634.902344 18.039062 647.390625 L 99.695312 788.839844 C 106.886719 801.328125 120.222656 809.046875 134.6875 809.046875 L 297.960938 809.046875 C 312.386719 809.046875 325.722656 801.328125 332.953125 788.839844 L 414.613281 647.390625 C 421.84375 634.902344 421.84375 619.464844 414.613281 606.976562 L 332.953125 465.523438 C 325.761719 453.035156 312.386719 445.316406 297.960938 445.316406 Z M 674.980469 223.039062 L 511.703125 223.039062 C 497.28125 223.039062 483.945312 230.757812 476.714844 243.246094 L 395.054688 384.695312 C 387.824219 397.183594 387.824219 412.621094 395.054688 425.109375 L 476.714844 566.5625 C 483.945312 579.050781 497.28125 586.769531 511.703125 586.769531 L 674.980469 586.769531 C 689.40625 586.769531 702.738281 579.050781 709.96875 566.5625 L 791.628906 425.109375 C 798.859375 412.621094 798.859375 397.183594 791.628906 384.695312 L 709.96875 243.246094 C 702.738281 230.757812 689.40625 223.039062 674.980469 223.039062 Z M 674.980469 223.039062 " fill-opacity="1" fill-rule="nonzero"/></g><g clip-path="url(#0ac65088df)"><g clip-path="url(#7587d1a553)"><g transform="matrix(1, 0, 0, 1, 592, 428)"><g clip-path="url(#a25ae084bc)"><g clip-path="url(#8f719b174d)"><g clip-path="url(#fcd7b99558)"><path fill="#000000" d="M 0.875 0.679688 L 24.375 0.679688 L 24.375 24.179688 L 0.875 24.179688 Z M 0.875 0.679688 " fill-opacity="1" fill-rule="nonzero"/></g></g></g></g></g></g></svg>