<svg xmlns="http://www.w3.org/2000/svg" xmlns:xlink="http://www.w3.org/1999/xlink" width="2000" zoomAndPan="magnify" viewBox="0 0 1500 1499.999933" height="2000" preserveAspectRatio="xMidYMid meet" version="1.0"><defs><clipPath id="630ae30aa7"><path d="M 13 6 L 1419 6 L 1419 1497 L 13 1497 Z M 13 6 " clip-rule="nonzero"/></clipPath><clipPath id="d2199e3771"><path d="M -112.339844 1353.710938 L 17.289062 0.15625 L 1544.800781 146.441406 L 1415.171875 1500 Z M -112.339844 1353.710938 " clip-rule="nonzero"/></clipPath><clipPath id="1f60770dc4"><path d="M -112.339844 1353.710938 L 17.289062 0.15625 L 1544.800781 146.441406 L 1415.171875 1500 Z M -112.339844 1353.710938 " clip-rule="nonzero"/></clipPath></defs><rect x="-150" width="1800" fill="#ffffff" y="-149.999993" height="1799.99992" fill-opacity="1"/><rect x="-150" width="1800" fill="#ffffff" y="-149.999993" height="1799.99992" fill-opacity="1"/><g clip-path="url(#630ae30aa7)"><g clip-path="url(#d2199e3771)"><g clip-path="url(#1f60770dc4)"><path fill="#008000" d="M 16.554688 63.207031 C 22.5 79.792969 45.867188 155.503906 61.484375 208.808594 C 84.703125 288.511719 100.117188 348.863281 144.382812 535.847656 C 191.375 733.691406 219.695312 828.957031 257.507812 918.535156 C 307.433594 1036.589844 368.214844 1129.78125 444.222656 1204.175781 C 510.976562 1269.445312 601.761719 1324.765625 689.003906 1353.140625 C 810.066406 1392.285156 958.488281 1401.554688 1104.554688 1378.804688 C 1126.769531 1375.515625 1152.667969 1370.695312 1162.058594 1368.535156 L 1178.695312 1364.476562 L 1209.519531 1389.328125 C 1278.636719 1444.695312 1356.3125 1494.289062 1377.078125 1496.277344 C 1397.148438 1498.199219 1412.824219 1486.984375 1417.011719 1467.839844 C 1421.925781 1443.582031 1416.039062 1436.1875 1370.203125 1408.25 C 1330.351562 1384.179688 1304.3125 1365.910156 1263.613281 1333.515625 C 1241.074219 1315.578125 1236.789062 1311.164062 1238.101562 1307.285156 C 1273.164062 1196.898438 1286.035156 1133.839844 1293.207031 1036.796875 C 1300.484375 936.230469 1295.492188 853.089844 1276.800781 767.933594 C 1239.253906 596.898438 1147.625 452.007812 1001.054688 332.464844 C 828.710938 191.855469 579.519531 86.507812 298.335938 34.851562 C 187.941406 14.625 58.304688 1.03125 39.765625 7.734375 C 18.546875 15.355469 8.410156 40.054688 16.554688 63.207031 Z M 133.527344 88.539062 C 236.179688 98.605469 373.945312 125.695312 475.164062 155.640625 C 700.921875 222.949219 880.820312 319.066406 1008.578125 440.808594 C 1038.8125 469.375 1088.632812 529.488281 1111.617188 564.894531 C 1178.949219 668.367188 1214.648438 787.417969 1219.988281 925.929688 C 1221.71875 971.78125 1214.117188 1078.207031 1205.636719 1124.964844 C 1197 1173.355469 1176.867188 1250.789062 1171.941406 1255.5 C 1169.382812 1257.609375 1107.070312 1200.066406 1058.367188 1150.421875 C 1012.640625 1104.125 1017.035156 1112.320312 1009.0625 1057.859375 C 997.195312 975.242188 1001.792969 870.652344 1021.40625 786.335938 C 1026.675781 763.292969 1026.191406 753.589844 1018.964844 743.007812 C 1004.25 722.050781 974.269531 720.355469 956.878906 739.652344 C 950.539062 746.816406 942.421875 779.949219 933.847656 832.585938 C 926.777344 876.890625 922.832031 947.632812 925.03125 988.585938 C 925.613281 999.707031 925.910156 1008.921875 925.632812 1009.367188 C 923.03125 1011.941406 768.183594 821.429688 716.011719 751.4375 C 689.292969 715.671875 690.78125 719.820312 684.230469 665.261719 C 675.144531 590.445312 676.382812 518.503906 687.570312 460.699219 C 690.925781 442.886719 694.136719 424.121094 694.628906 418.984375 C 696.148438 398.171875 681.757812 381.25 660.988281 379.261719 C 646.753906 377.898438 634.039062 382.804688 627.007812 392.257812 C 615.597656 408.121094 602.222656 488.792969 600.957031 548.722656 C 600.523438 567.992188 599.683594 584.160156 599.171875 584.582031 C 597.101562 586.503906 499.988281 434.964844 484.234375 405.195312 C 477.863281 393.046875 465.53125 384.09375 454.097656 383 C 444.0625 382.039062 426.203125 389.039062 419.585938 396.648438 C 413.527344 403.371094 409.382812 422.046875 411.84375 430.761719 C 413.953125 438.265625 459.355469 512.554688 498.539062 573.0625 C 575.753906 691.375 660.339844 808.984375 737.457031 903.738281 L 770.941406 945.097656 L 745.347656 944.292969 C 665.769531 941.617188 571.753906 949.570312 556.632812 959.898438 C 528.398438 979.328125 538.320312 1025.730469 571.222656 1028.882812 C 577.289062 1029.464844 598.859375 1027.996094 619.097656 1025.695312 C 678.34375 1019.359375 704.746094 1019.0625 776.523438 1024.523438 L 842.464844 1029.425781 L 860.066406 1049.714844 C 928.769531 1129.0625 1031.761719 1236.421875 1084.890625 1284.136719 L 1103.972656 1301.269531 L 1081.757812 1304.558594 C 949.480469 1323.449219 814.308594 1313.566406 706.625 1277.347656 C 650.746094 1258.335938 585.355469 1223.109375 541.167969 1187.792969 C 447.757812 1113.140625 373.878906 1006.6875 319.15625 867.445312 C 281.621094 772.480469 258.605469 690.675781 208.035156 473.648438 C 185.847656 378.269531 172.085938 322.785156 152.921875 252.421875 C 138.015625 196.59375 111.46875 107.386719 106.472656 95.605469 C 104.917969 92.160156 103.855469 88.523438 103.734375 87.335938 C 103.820312 86.402344 117.191406 86.976562 133.527344 88.539062 Z M 133.527344 88.539062 " fill-opacity="1" fill-rule="nonzero"/></g></g></g></svg>