<svg xmlns="http://www.w3.org/2000/svg" xmlns:xlink="http://www.w3.org/1999/xlink" width="2000" zoomAndPan="magnify" viewBox="0 0 1500 1499.999933" height="2000" preserveAspectRatio="xMidYMid meet" version="1.0"><defs><clipPath id="3667a7856d"><path d="M 26 10 L 1329 10 L 1329 1493 L 26 1493 Z M 26 10 " clip-rule="nonzero"/></clipPath><clipPath id="4e00d4a166"><path d="M -167.058594 1232.320312 L 54.839844 -0.367188 L 1541.445312 267.238281 L 1319.546875 1499.925781 Z M -167.058594 1232.320312 " clip-rule="nonzero"/></clipPath><clipPath id="57458ebef0"><path d="M -167.058594 1232.320312 L 54.839844 -0.367188 L 1541.445312 267.238281 L 1319.546875 1499.925781 Z M -167.058594 1232.320312 " clip-rule="nonzero"/></clipPath><clipPath id="cdfc050cb7"><path d="M -167.058594 1232.320312 L 54.839844 -0.367188 L 1541.445312 267.238281 L 1319.546875 1499.925781 Z M -167.058594 1232.320312 " clip-rule="nonzero"/></clipPath></defs><rect x="-150" width="1800" fill="#ffffff" y="-149.999993" height="1799.99992" fill-opacity="1"/><rect x="-150" width="1800" fill="#ffffff" y="-149.999993" height="1799.99992" fill-opacity="1"/><g clip-path="url(#3667a7856d)"><g clip-path="url(#4e00d4a166)"><g clip-path="url(#57458ebef0)"><g clip-path="url(#cdfc050cb7)"><path fill="#1d1c1a" d="M 497.835938 572.84375 C 630.582031 785.558594 811.101562 1007.566406 996.640625 1177.132812 C 1111.988281 941.972656 1122.371094 651.855469 932.941406 460.359375 C 732.792969 258.035156 411.082031 160.480469 131.945312 108.835938 C 110.832031 376.503906 103.664062 702.5625 216.398438 951.710938 C 323.875 1189.261719 575.351562 1283.019531 822.28125 1264.339844 C 853.089844 1262.003906 874.816406 1282.40625 874.265625 1311.335938 C 873.808594 1335.683594 854.773438 1354.683594 825.324219 1356.339844 C 537.597656 1372.492188 256.546875 1265.570312 132.066406 991.761719 C 42.316406 794.332031 22.570312 552.109375 27.683594 335.886719 C 29.988281 238.621094 32.808594 146.238281 46.46875 50.171875 C 55.863281 -15.867188 145.347656 17.8125 211.46875 30.675781 C 473.136719 81.59375 755.84375 179.417969 958.683594 355.675781 C 1222.847656 585.210938 1220.316406 938.105469 1070.367188 1240.207031 C 1140.765625 1301.328125 1212.570312 1355.980469 1293.703125 1399.164062 C 1319.089844 1412.675781 1333.816406 1430.265625 1326.304688 1456.820312 C 1319.757812 1479.996094 1291.511719 1502.464844 1262.808594 1487.863281 C 1174.992188 1443.164062 1099.382812 1385.761719 1022.851562 1322.890625 C 770.003906 1115.183594 514.136719 796.558594 354.023438 511.714844 C 341.332031 489.144531 360.816406 462.207031 377.539062 455.078125 C 399.921875 445.527344 428.632812 452.5625 440.703125 477.0625 C 457.375 510.9375 477.75 540.6875 497.816406 572.839844 Z M 497.835938 572.84375 " fill-opacity="1" fill-rule="nonzero"/></g></g></g></g></svg>