<svg xmlns="http://www.w3.org/2000/svg" xmlns:xlink="http://www.w3.org/1999/xlink" width="1080" zoomAndPan="magnify" viewBox="0 0 810 809.999993" height="1080" preserveAspectRatio="xMidYMid meet" version="1.0"><defs><clipPath id="fbec090088"><path d="M 632.625 646.453125 L 656.125 646.453125 L 656.125 669.953125 L 632.625 669.953125 Z M 632.625 646.453125 " clip-rule="nonzero"/></clipPath><clipPath id="4343cabee6"><path d="M 644.375 646.453125 C 637.886719 646.453125 632.625 651.714844 632.625 658.203125 C 632.625 664.691406 637.886719 669.953125 644.375 669.953125 C 650.863281 669.953125 656.125 664.691406 656.125 658.203125 C 656.125 651.714844 650.863281 646.453125 644.375 646.453125 Z M 644.375 646.453125 " clip-rule="nonzero"/></clipPath><clipPath id="3008e3d5ff"><path d="M 0.625 0.453125 L 24.125 0.453125 L 24.125 23.953125 L 0.625 23.953125 Z M 0.625 0.453125 " clip-rule="nonzero"/></clipPath><clipPath id="d2a5b3a6d0"><path d="M 12.375 0.453125 C 5.886719 0.453125 0.625 5.714844 0.625 12.203125 C 0.625 18.691406 5.886719 23.953125 12.375 23.953125 C 18.863281 23.953125 24.125 18.691406 24.125 12.203125 C 24.125 5.714844 18.863281 0.453125 12.375 0.453125 Z M 12.375 0.453125 " clip-rule="nonzero"/></clipPath><clipPath id="afe0e1715c"><rect x="0" width="25" y="0" height="24"/></clipPath></defs><path fill="#000000" d="M 791.675781 1.832031 L 718.371094 1.832031 C 717.769531 1.832031 717.171875 1.863281 716.574219 1.921875 C 715.976562 1.980469 715.382812 2.066406 714.796875 2.183594 C 714.207031 2.300781 713.625 2.449219 713.050781 2.621094 C 712.476562 2.796875 711.914062 2.996094 711.359375 3.226562 C 710.804688 3.457031 710.261719 3.714844 709.730469 3.996094 C 709.203125 4.28125 708.6875 4.585938 708.191406 4.921875 C 707.691406 5.253906 707.210938 5.613281 706.746094 5.992188 C 706.28125 6.375 705.835938 6.777344 705.414062 7.199219 C 704.988281 7.625 704.585938 8.070312 704.207031 8.53125 C 703.824219 8.996094 703.46875 9.476562 703.132812 9.976562 C 702.800781 10.476562 702.492188 10.992188 702.210938 11.519531 C 701.925781 12.050781 701.667969 12.589844 701.441406 13.144531 C 701.210938 13.699219 701.007812 14.265625 700.835938 14.839844 C 700.660156 15.414062 700.515625 15.996094 700.398438 16.582031 C 700.28125 17.171875 700.191406 17.765625 700.132812 18.363281 C 700.074219 18.960938 700.046875 19.558594 700.046875 20.160156 C 700.046875 20.160156 566.265625 20.160156 565.570312 20.304688 L 414.472656 39.382812 C 412.402344 39.640625 278.40625 106.929688 278.40625 106.929688 C 274.003906 109.140625 269.863281 111.757812 265.980469 114.785156 C 262.09375 117.8125 258.546875 121.191406 255.332031 124.921875 C 252.117188 128.652344 249.300781 132.660156 246.878906 136.949219 C 244.457031 141.238281 242.480469 145.71875 240.949219 150.398438 L 208.125 249.671875 C 186.574219 314.707031 280.292969 355.519531 311.320312 292.847656 L 351.507812 211.664062 C 352.390625 209.878906 353.523438 208.265625 354.902344 206.828125 C 356.28125 205.390625 357.84375 204.191406 359.589844 203.234375 L 441.394531 188.957031 C 442.261719 188.808594 443.136719 188.722656 444.015625 188.699219 C 444.898438 188.679688 445.773438 188.71875 446.648438 188.824219 C 447.523438 188.925781 448.386719 189.09375 449.234375 189.320312 C 450.085938 189.550781 450.914062 189.835938 451.722656 190.183594 C 452.53125 190.53125 453.3125 190.9375 454.0625 191.398438 C 454.8125 191.855469 455.527344 192.367188 456.203125 192.933594 C 456.882812 193.496094 457.515625 194.105469 458.101562 194.757812 C 458.691406 195.414062 459.230469 196.105469 459.722656 196.835938 L 466.941406 207.6875 C 467.511719 208.542969 468.007812 209.441406 468.429688 210.382812 C 468.847656 211.320312 469.1875 212.289062 469.445312 213.289062 C 469.703125 214.285156 469.875 215.296875 469.960938 216.324219 C 470.046875 217.351562 470.046875 218.375 469.960938 219.402344 C 469.871094 220.429688 469.699219 221.441406 469.441406 222.4375 C 469.183594 223.4375 468.847656 224.40625 468.425781 225.34375 C 468.003906 226.285156 467.507812 227.183594 466.9375 228.039062 C 466.363281 228.894531 465.722656 229.699219 465.015625 230.445312 L 402.25 297.042969 C 401.105469 298.058594 400.007812 299.125 398.957031 300.242188 C 397.910156 301.355469 396.910156 302.519531 395.964844 303.722656 C 395.019531 304.929688 394.128906 306.171875 393.296875 307.457031 C 392.464844 308.742188 391.6875 310.0625 390.972656 311.417969 C 390.257812 312.773438 389.605469 314.15625 389.015625 315.570312 C 388.425781 316.984375 387.898438 318.421875 387.4375 319.882812 C 386.976562 321.339844 386.582031 322.820312 386.253906 324.316406 C 385.925781 325.8125 385.664062 327.320312 385.46875 328.839844 C 385.277344 330.359375 385.152344 331.882812 385.097656 333.414062 C 385.039062 334.945312 385.050781 336.476562 385.132812 338.003906 C 385.214844 339.535156 385.363281 341.058594 385.582031 342.574219 C 385.800781 344.089844 386.085938 345.59375 386.441406 347.085938 C 386.792969 348.574219 387.210938 350.046875 387.699219 351.5 C 388.183594 352.953125 388.734375 354.378906 389.347656 355.785156 C 389.960938 357.1875 390.636719 358.5625 391.371094 359.902344 C 392.109375 361.246094 392.90625 362.554688 393.761719 363.824219 C 394.613281 365.097656 395.523438 366.328125 396.488281 367.515625 C 397.453125 368.707031 398.472656 369.847656 399.539062 370.949219 C 400.605469 372.046875 401.722656 373.09375 402.882812 374.089844 C 404.046875 375.089844 405.25 376.035156 406.496094 376.921875 C 407.742188 377.8125 409.027344 378.644531 410.347656 379.421875 C 411.671875 380.195312 413.023438 380.90625 414.410156 381.5625 C 415.796875 382.214844 417.207031 382.804688 418.648438 383.328125 C 420.085938 383.855469 421.546875 384.316406 423.023438 384.710938 C 424.503906 385.105469 426 385.433594 427.507812 385.691406 C 429.019531 385.953125 430.535156 386.144531 432.0625 386.269531 C 433.589844 386.394531 435.121094 386.449219 436.652344 386.4375 C 438.183594 386.421875 439.710938 386.339844 441.234375 386.191406 C 442.761719 386.039062 444.273438 385.820312 445.777344 385.535156 C 447.285156 385.25 448.773438 384.894531 450.246094 384.472656 C 451.71875 384.054688 453.171875 383.570312 454.597656 383.019531 C 456.027344 382.46875 457.429688 381.851562 458.804688 381.175781 C 581.585938 318.867188 577.0625 322.296875 580.871094 318.464844 L 670.722656 227.625 L 700.410156 224.070312 C 700.539062 225.160156 700.765625 226.230469 701.089844 227.28125 C 701.410156 228.332031 701.828125 229.347656 702.332031 230.320312 C 702.839844 231.296875 703.433594 232.21875 704.105469 233.085938 C 704.78125 233.953125 705.53125 234.75 706.351562 235.480469 C 707.171875 236.210938 708.050781 236.863281 708.992188 237.433594 C 709.929688 238.003906 710.914062 238.488281 711.941406 238.878906 C 712.96875 239.269531 714.019531 239.566406 715.101562 239.765625 C 716.183594 239.964844 717.273438 240.066406 718.371094 240.066406 L 791.675781 240.066406 C 792.273438 240.066406 792.875 240.039062 793.46875 239.980469 C 794.066406 239.921875 794.660156 239.832031 795.25 239.714844 C 795.839844 239.597656 796.417969 239.453125 796.992188 239.277344 C 797.566406 239.105469 798.132812 238.902344 798.6875 238.671875 C 799.242188 238.441406 799.785156 238.1875 800.3125 237.902344 C 800.84375 237.621094 801.355469 237.3125 801.855469 236.980469 C 802.355469 236.644531 802.835938 236.289062 803.300781 235.90625 C 803.765625 235.527344 804.207031 235.125 804.632812 234.699219 C 805.058594 234.277344 805.460938 233.832031 805.839844 233.367188 C 806.222656 232.902344 806.578125 232.421875 806.910156 231.921875 C 807.246094 231.425781 807.554688 230.910156 807.835938 230.378906 C 808.117188 229.851562 808.375 229.308594 808.605469 228.753906 C 808.835938 228.199219 809.035156 227.636719 809.210938 227.0625 C 809.386719 226.488281 809.53125 225.90625 809.648438 225.316406 C 809.765625 224.730469 809.851562 224.136719 809.910156 223.539062 C 809.96875 222.941406 810 222.34375 810 221.742188 L 810 20.160156 C 810 19.558594 809.96875 18.960938 809.910156 18.363281 C 809.851562 17.765625 809.765625 17.171875 809.648438 16.582031 C 809.53125 15.996094 809.386719 15.414062 809.210938 14.839844 C 809.035156 14.265625 808.835938 13.699219 808.605469 13.144531 C 808.375 12.589844 808.117188 12.050781 807.835938 11.519531 C 807.554688 10.992188 807.246094 10.476562 806.910156 9.976562 C 806.578125 9.476562 806.222656 8.996094 805.839844 8.53125 C 805.460938 8.070312 805.058594 7.625 804.632812 7.199219 C 804.207031 6.777344 803.765625 6.375 803.300781 5.992188 C 802.835938 5.613281 802.355469 5.253906 801.855469 4.921875 C 801.355469 4.585938 800.84375 4.28125 800.3125 3.996094 C 799.785156 3.714844 799.242188 3.457031 798.6875 3.226562 C 798.132812 2.996094 797.566406 2.796875 796.992188 2.621094 C 796.417969 2.449219 795.839844 2.300781 795.25 2.183594 C 794.660156 2.066406 794.066406 1.980469 793.46875 1.921875 C 792.875 1.863281 792.273438 1.832031 791.675781 1.832031 Z M 660.09375 192 C 658.039062 192.242188 656.082031 192.820312 654.222656 193.726562 C 652.363281 194.636719 650.703125 195.824219 649.246094 197.296875 L 556.921875 290.574219 L 442.292969 348.484375 C 441.503906 348.867188 440.6875 349.171875 439.84375 349.40625 C 438.996094 349.640625 438.140625 349.796875 437.265625 349.875 C 436.390625 349.953125 435.519531 349.949219 434.648438 349.871094 C 433.773438 349.789062 432.914062 349.628906 432.070312 349.390625 C 431.226562 349.15625 430.414062 348.84375 429.625 348.457031 C 428.835938 348.070312 428.089844 347.617188 427.386719 347.097656 C 426.683594 346.574219 426.03125 345.996094 425.429688 345.355469 C 424.832031 344.714844 424.296875 344.027344 423.820312 343.289062 C 423.347656 342.550781 422.945312 341.777344 422.609375 340.96875 C 422.277344 340.15625 422.019531 339.320312 421.839844 338.464844 C 421.65625 337.605469 421.554688 336.738281 421.53125 335.863281 C 421.507812 334.988281 421.5625 334.117188 421.699219 333.25 C 421.832031 332.382812 422.042969 331.535156 422.332031 330.710938 C 422.621094 329.882812 422.984375 329.085938 423.417969 328.324219 C 423.851562 327.5625 424.347656 326.847656 424.914062 326.175781 C 425.476562 325.503906 426.09375 324.886719 426.769531 324.328125 C 427.980469 323.304688 436.867188 313.738281 491.753906 255.609375 C 492.816406 254.492188 493.832031 253.332031 494.796875 252.128906 C 495.761719 250.925781 496.671875 249.683594 497.53125 248.402344 C 498.390625 247.121094 499.195312 245.808594 499.945312 244.457031 C 500.691406 243.109375 501.382812 241.734375 502.015625 240.328125 C 502.648438 238.917969 503.21875 237.488281 503.730469 236.035156 C 504.242188 234.578125 504.6875 233.105469 505.074219 231.613281 C 505.460938 230.117188 505.785156 228.613281 506.042969 227.089844 C 506.300781 225.570312 506.496094 224.042969 506.625 222.507812 C 506.753906 220.96875 506.820312 219.429688 506.820312 217.886719 C 506.820312 216.347656 506.753906 214.804688 506.621094 213.269531 C 506.492188 211.734375 506.296875 210.203125 506.035156 208.683594 C 505.777344 207.164062 505.453125 205.660156 505.066406 204.164062 C 504.675781 202.671875 504.226562 201.199219 503.714844 199.746094 C 503.203125 198.289062 502.628906 196.859375 501.996094 195.453125 C 501.363281 194.046875 500.671875 192.671875 499.921875 191.324219 C 499.175781 189.976562 498.371094 188.660156 497.507812 187.382812 L 490.289062 176.53125 C 489.035156 174.65625 487.667969 172.863281 486.195312 171.15625 C 484.722656 169.449219 483.148438 167.839844 481.476562 166.324219 C 479.800781 164.808594 478.042969 163.402344 476.199219 162.105469 C 474.351562 160.804688 472.433594 159.625 470.445312 158.5625 C 468.453125 157.5 466.40625 156.5625 464.300781 155.75 C 462.195312 154.941406 460.050781 154.261719 457.859375 153.710938 C 455.671875 153.164062 453.457031 152.753906 451.21875 152.480469 C 448.976562 152.203125 446.730469 152.066406 444.472656 152.066406 C 441.339844 152.066406 347.898438 168.25 346.578125 168.835938 C 343.554688 170.144531 340.671875 171.710938 337.921875 173.527344 C 335.175781 175.347656 332.609375 177.390625 330.21875 179.660156 C 327.832031 181.929688 325.660156 184.390625 323.703125 187.039062 C 321.75 189.691406 320.039062 192.492188 318.574219 195.445312 L 278.386719 276.628906 C 277.816406 277.691406 277.148438 278.691406 276.390625 279.632812 C 275.632812 280.574219 274.792969 281.433594 273.875 282.21875 C 272.953125 283 271.972656 283.691406 270.921875 284.292969 C 269.875 284.890625 268.78125 285.390625 267.640625 285.785156 C 266.5 286.183594 265.332031 286.46875 264.136719 286.648438 C 262.941406 286.828125 261.742188 286.894531 260.535156 286.847656 C 259.328125 286.800781 258.136719 286.644531 256.957031 286.378906 C 255.78125 286.113281 254.636719 285.738281 253.53125 285.257812 C 252.421875 284.777344 251.367188 284.199219 250.367188 283.523438 C 249.367188 282.84375 248.4375 282.082031 247.578125 281.230469 C 246.722656 280.382812 245.949219 279.460938 245.261719 278.464844 C 244.578125 277.472656 243.988281 276.425781 243.496094 275.320312 C 243.007812 274.21875 242.621094 273.078125 242.34375 271.902344 C 242.066406 270.726562 241.898438 269.535156 241.839844 268.332031 C 241.785156 267.125 241.839844 265.921875 242.007812 264.726562 C 242.171875 263.53125 242.449219 262.359375 242.835938 261.214844 L 275.65625 161.910156 C 276.449219 159.507812 277.46875 157.207031 278.714844 155.007812 C 279.960938 152.8125 281.414062 150.757812 283.066406 148.84375 C 284.722656 146.933594 286.546875 145.203125 288.542969 143.65625 C 290.542969 142.105469 292.671875 140.769531 294.933594 139.640625 L 422.207031 75.355469 L 568.996094 56.808594 L 700.046875 56.808594 L 700.046875 187.199219 Z M 773.347656 203.417969 L 736.695312 203.417969 L 736.695312 38.484375 L 773.347656 38.484375 Z M 773.347656 203.417969 " fill-opacity="1" fill-rule="nonzero"/><path fill="#000000" d="M 388.507812 514.953125 C 384.292969 515.058594 380.09375 515.347656 375.902344 515.816406 C 371.714844 516.28125 367.554688 516.929688 363.421875 517.757812 C 359.289062 518.589844 355.199219 519.59375 351.152344 520.773438 C 347.105469 521.957031 343.121094 523.3125 339.191406 524.839844 C 335.261719 526.367188 331.40625 528.058594 327.625 529.921875 C 323.84375 531.78125 320.148438 533.800781 316.539062 535.980469 C 312.933594 538.160156 309.425781 540.492188 306.019531 542.976562 C 302.613281 545.460938 299.324219 548.085938 296.144531 550.855469 C 290.90625 556.679688 286.191406 562.902344 282 569.523438 C 277.808594 576.140625 274.203125 583.066406 271.175781 590.292969 C 268.152344 597.519531 265.753906 604.949219 263.980469 612.582031 C 262.207031 620.210938 261.082031 627.9375 260.609375 635.757812 C 247 651.355469 234.65625 667.898438 223.574219 685.382812 L 223.574219 513.324219 C 232.867188 512.421875 242.027344 510.785156 251.058594 508.417969 C 260.085938 506.046875 268.871094 502.976562 277.410156 499.199219 C 285.945312 495.421875 294.128906 490.988281 301.957031 485.902344 C 309.785156 480.8125 317.15625 475.132812 324.074219 468.867188 C 327.652344 464.789062 331.046875 460.5625 334.257812 456.191406 C 337.46875 451.816406 340.480469 447.308594 343.296875 442.671875 C 346.109375 438.035156 348.714844 433.28125 351.113281 428.414062 C 353.511719 423.546875 355.691406 418.585938 357.652344 413.527344 C 359.617188 408.46875 361.351562 403.335938 362.863281 398.125 C 364.375 392.914062 365.65625 387.648438 366.707031 382.324219 C 367.757812 377.003906 368.574219 371.644531 369.152344 366.25 C 369.734375 360.855469 370.074219 355.445312 370.179688 350.023438 C 370.179688 349.421875 370.152344 348.824219 370.09375 348.226562 C 370.035156 347.628906 369.945312 347.035156 369.828125 346.449219 C 369.710938 345.859375 369.566406 345.277344 369.390625 344.703125 C 369.21875 344.128906 369.015625 343.5625 368.785156 343.007812 C 368.554688 342.457031 368.300781 341.914062 368.015625 341.382812 C 367.734375 340.855469 367.425781 340.339844 367.09375 339.839844 C 366.757812 339.34375 366.402344 338.859375 366.019531 338.398438 C 365.640625 337.933594 365.238281 337.488281 364.8125 337.0625 C 364.390625 336.640625 363.945312 336.238281 363.480469 335.855469 C 363.015625 335.476562 362.535156 335.117188 362.035156 334.785156 C 361.539062 334.453125 361.023438 334.144531 360.492188 333.859375 C 359.964844 333.578125 359.421875 333.320312 358.867188 333.09375 C 358.3125 332.863281 357.75 332.660156 357.175781 332.484375 C 356.601562 332.3125 356.019531 332.167969 355.429688 332.050781 C 354.839844 331.933594 354.25 331.84375 353.652344 331.785156 C 353.054688 331.726562 352.457031 331.695312 351.855469 331.695312 C 346.433594 331.804688 341.03125 332.148438 335.640625 332.730469 C 330.25 333.308594 324.894531 334.125 319.578125 335.175781 C 314.257812 336.226562 308.996094 337.507812 303.789062 339.019531 C 298.582031 340.53125 293.453125 342.265625 288.398438 344.226562 C 283.34375 346.191406 278.386719 348.367188 273.523438 350.765625 C 268.660156 353.160156 263.914062 355.765625 259.277344 358.578125 C 254.644531 361.390625 250.140625 364.402344 245.769531 367.609375 C 241.398438 370.816406 237.175781 374.207031 233.105469 377.785156 C 223.988281 387.027344 216.339844 397.359375 210.160156 408.773438 C 206.277344 397.078125 201.136719 385.960938 194.738281 375.421875 C 188.34375 364.886719 180.851562 355.199219 172.261719 346.359375 C 116.550781 290.648438 24.792969 295.046875 21.039062 295.265625 C 19.921875 295.328125 18.820312 295.488281 17.734375 295.753906 C 16.648438 296.015625 15.59375 296.375 14.574219 296.832031 C 13.554688 297.289062 12.582031 297.835938 11.664062 298.46875 C 10.742188 299.101562 9.886719 299.8125 9.097656 300.605469 C 8.304688 301.394531 7.59375 302.25 6.960938 303.171875 C 6.324219 304.089844 5.78125 305.0625 5.324219 306.082031 C 4.867188 307.101562 4.507812 308.15625 4.246094 309.242188 C 3.980469 310.328125 3.820312 311.429688 3.757812 312.546875 C 3.664062 316.359375 -0.789062 408.023438 54.976562 463.640625 C 95.972656 504.617188 156.375 513.121094 186.921875 514.589844 L 186.921875 571.765625 C 183.96875 568.027344 180.816406 564.464844 177.46875 561.082031 C 131.617188 515.191406 60.476562 515.191406 58.640625 514.953125 C 58.042969 514.953125 57.445312 514.984375 56.847656 515.042969 C 56.25 515.101562 55.65625 515.191406 55.066406 515.308594 C 54.480469 515.425781 53.898438 515.570312 53.324219 515.742188 C 52.75 515.917969 52.183594 516.121094 51.628906 516.351562 C 51.074219 516.578125 50.53125 516.835938 50.003906 517.117188 C 49.472656 517.402344 48.960938 517.710938 48.460938 518.042969 C 47.960938 518.375 47.480469 518.734375 47.015625 519.113281 C 46.554688 519.496094 46.109375 519.898438 45.683594 520.324219 C 45.261719 520.746094 44.855469 521.191406 44.476562 521.65625 C 44.097656 522.117188 43.738281 522.601562 43.40625 523.097656 C 43.070312 523.597656 42.761719 524.113281 42.480469 524.640625 C 42.199219 525.171875 41.941406 525.714844 41.710938 526.269531 C 41.480469 526.820312 41.28125 527.386719 41.105469 527.960938 C 40.929688 528.535156 40.785156 529.117188 40.667969 529.707031 C 40.550781 530.292969 40.464844 530.886719 40.40625 531.484375 C 40.347656 532.082031 40.316406 532.679688 40.316406 533.28125 C 40.425781 538.703125 40.769531 544.109375 41.351562 549.5 C 41.933594 554.890625 42.75 560.246094 43.800781 565.566406 C 44.851562 570.882812 46.132812 576.148438 47.644531 581.355469 C 49.15625 586.5625 50.894531 591.691406 52.855469 596.746094 C 54.820312 601.800781 57 606.761719 59.394531 611.625 C 61.792969 616.488281 64.398438 621.238281 67.210938 625.871094 C 70.023438 630.507812 73.035156 635.011719 76.246094 639.382812 C 79.453125 643.753906 82.847656 647.976562 86.425781 652.050781 C 89.867188 655.207031 93.429688 658.21875 97.113281 661.085938 C 100.800781 663.957031 104.59375 666.671875 108.496094 669.238281 C 112.398438 671.800781 116.398438 674.207031 120.492188 676.449219 C 124.589844 678.691406 128.769531 680.769531 133.03125 682.675781 C 137.292969 684.582031 141.625 686.316406 146.027344 687.875 C 150.429688 689.433594 154.886719 690.816406 159.398438 692.015625 C 163.914062 693.21875 168.464844 694.234375 173.0625 695.070312 C 177.65625 695.90625 182.277344 696.558594 186.921875 697.023438 L 186.921875 808.167969 L 223.574219 808.167969 L 223.574219 789.839844 C 223.574219 738.53125 271.9375 678.714844 287.21875 661.066406 C 294.9375 660.550781 302.554688 659.394531 310.078125 657.605469 C 317.601562 655.8125 324.925781 653.410156 332.046875 650.398438 C 339.171875 647.382812 345.992188 643.796875 352.515625 639.644531 C 359.039062 635.488281 365.171875 630.820312 370.914062 625.640625 C 373.703125 622.476562 376.347656 619.195312 378.84375 615.796875 C 381.34375 612.402344 383.691406 608.898438 385.882812 605.296875 C 388.074219 601.691406 390.105469 598 391.972656 594.21875 C 393.839844 590.4375 395.539062 586.578125 397.066406 582.648438 C 398.597656 578.71875 399.949219 574.726562 401.128906 570.675781 C 402.304688 566.625 403.304688 562.53125 404.121094 558.394531 C 404.941406 554.257812 405.578125 550.089844 406.03125 545.898438 C 406.480469 541.703125 406.75 537.496094 406.832031 533.28125 C 406.832031 532.679688 406.804688 532.082031 406.746094 531.484375 C 406.683594 530.886719 406.597656 530.292969 406.480469 529.707031 C 406.363281 529.117188 406.21875 528.535156 406.042969 527.960938 C 405.871094 527.386719 405.667969 526.820312 405.4375 526.265625 C 405.207031 525.714844 404.953125 525.171875 404.667969 524.640625 C 404.386719 524.113281 404.078125 523.597656 403.742188 523.097656 C 403.410156 522.601562 403.054688 522.117188 402.671875 521.65625 C 402.292969 521.191406 401.890625 520.746094 401.464844 520.320312 C 401.039062 519.898438 400.597656 519.496094 400.132812 519.113281 C 399.667969 518.734375 399.1875 518.375 398.6875 518.042969 C 398.1875 517.710938 397.675781 517.402344 397.144531 517.117188 C 396.617188 516.835938 396.074219 516.578125 395.519531 516.351562 C 394.964844 516.121094 394.402344 515.917969 393.828125 515.742188 C 393.253906 515.570312 392.671875 515.425781 392.082031 515.308594 C 391.492188 515.191406 390.898438 515.101562 390.304688 515.042969 C 389.707031 514.984375 389.105469 514.953125 388.507812 514.953125 Z M 258.945312 403.699219 C 263.980469 399.179688 269.328125 395.0625 274.984375 391.347656 C 280.644531 387.636719 286.550781 384.371094 292.703125 381.546875 C 298.851562 378.726562 305.183594 376.382812 311.6875 374.519531 C 318.191406 372.652344 324.800781 371.285156 331.511719 370.417969 C 330.652344 377.132812 329.289062 383.742188 327.425781 390.25 C 325.558594 396.753906 323.214844 403.082031 320.386719 409.234375 C 317.5625 415.382812 314.285156 421.285156 310.5625 426.9375 C 306.839844 432.589844 302.714844 437.925781 298.179688 442.953125 C 293.140625 447.472656 287.792969 451.589844 282.136719 455.300781 C 276.476562 459.015625 270.574219 462.28125 264.421875 465.101562 C 258.269531 467.925781 251.941406 470.265625 245.433594 472.132812 C 238.929688 474 232.320312 475.363281 225.609375 476.230469 C 226.46875 469.519531 227.832031 462.910156 229.699219 456.402344 C 231.5625 449.898438 233.90625 443.570312 236.734375 437.417969 C 239.5625 431.269531 242.835938 425.367188 246.558594 419.714844 C 250.28125 414.0625 254.410156 408.722656 258.945312 403.699219 Z M 80.816406 437.804688 C 77.699219 434.140625 74.746094 430.355469 71.957031 426.441406 C 69.164062 422.527344 66.546875 418.5 64.101562 414.359375 C 61.652344 410.222656 59.390625 405.988281 57.308594 401.652344 C 55.222656 397.320312 53.332031 392.90625 51.625 388.410156 C 49.921875 383.917969 48.414062 379.355469 47.101562 374.730469 C 45.789062 370.105469 44.675781 365.433594 43.761719 360.714844 C 42.851562 355.996094 42.140625 351.242188 41.636719 346.460938 C 41.132812 341.683594 40.832031 336.886719 40.738281 332.082031 C 45.542969 332.171875 50.339844 332.464844 55.121094 332.96875 C 59.902344 333.46875 64.652344 334.175781 69.371094 335.085938 C 74.09375 336 78.765625 337.109375 83.390625 338.425781 C 88.011719 339.738281 92.574219 341.246094 97.066406 342.953125 C 101.5625 344.660156 105.976562 346.554688 110.304688 348.640625 C 114.636719 350.726562 118.871094 352.996094 123.007812 355.445312 C 127.144531 357.898438 131.164062 360.519531 135.074219 363.316406 C 138.984375 366.113281 142.769531 369.074219 146.421875 372.195312 C 149.539062 375.859375 152.492188 379.644531 155.285156 383.558594 C 158.074219 387.472656 160.695312 391.5 163.140625 395.640625 C 165.585938 399.777344 167.851562 404.011719 169.933594 408.347656 C 172.015625 412.679688 173.910156 417.09375 175.613281 421.589844 C 177.316406 426.082031 178.824219 430.644531 180.140625 435.269531 C 181.453125 439.894531 182.566406 444.566406 183.476562 449.285156 C 184.390625 454.003906 185.097656 458.757812 185.601562 463.539062 C 186.109375 468.316406 186.40625 473.113281 186.5 477.917969 C 181.695312 477.828125 176.902344 477.535156 172.121094 477.03125 C 167.339844 476.53125 162.589844 475.824219 157.867188 474.914062 C 153.148438 474 148.476562 472.890625 143.851562 471.574219 C 139.226562 470.261719 134.667969 468.753906 130.171875 467.046875 C 125.679688 465.339844 121.265625 463.445312 116.933594 461.359375 C 112.601562 459.273438 108.367188 457.003906 104.234375 454.554688 C 100.097656 452.101562 96.074219 449.480469 92.164062 446.683594 C 88.253906 443.886719 84.472656 440.925781 80.816406 437.804688 Z M 112.335938 626.210938 C 107.820312 621.175781 103.703125 615.835938 99.992188 610.179688 C 96.28125 604.527344 93.015625 598.625 90.195312 592.480469 C 87.371094 586.332031 85.027344 580.007812 83.164062 573.507812 C 81.296875 567.007812 79.925781 560.402344 79.058594 553.695312 C 85.765625 554.5625 92.367188 555.929688 98.867188 557.792969 C 105.371094 559.660156 111.691406 562 117.839844 564.820312 C 123.988281 567.640625 129.886719 570.90625 135.542969 574.617188 C 141.195312 578.324219 146.539062 582.441406 151.574219 586.957031 C 156.089844 591.988281 160.207031 597.332031 163.917969 602.988281 C 167.628906 608.640625 170.894531 614.542969 173.714844 620.6875 C 176.535156 626.835938 178.878906 633.160156 180.746094 639.660156 C 182.613281 646.160156 183.980469 652.765625 184.851562 659.472656 C 178.144531 658.601562 171.542969 657.238281 165.042969 655.371094 C 158.542969 653.507812 152.21875 651.164062 146.070312 648.34375 C 139.921875 645.523438 134.023438 642.261719 128.367188 638.550781 C 122.714844 634.839844 117.371094 630.726562 112.335938 626.210938 Z M 345.074219 599.75 C 341.914062 602.636719 338.5625 605.292969 335.027344 607.710938 C 331.492188 610.132812 327.804688 612.292969 323.964844 614.191406 C 320.128906 616.089844 316.175781 617.714844 312.105469 619.058594 C 308.039062 620.402344 303.898438 621.453125 299.683594 622.214844 C 300.445312 618 301.496094 613.855469 302.839844 609.785156 C 304.183594 605.714844 305.804688 601.761719 307.703125 597.917969 C 309.601562 594.074219 311.757812 590.386719 314.175781 586.847656 C 316.59375 583.308594 319.242188 579.953125 322.128906 576.785156 C 325.292969 573.894531 328.640625 571.242188 332.175781 568.820312 C 335.710938 566.402344 339.398438 564.242188 343.238281 562.34375 C 347.078125 560.441406 351.03125 558.820312 355.097656 557.476562 C 359.167969 556.132812 363.308594 555.078125 367.523438 554.320312 C 366.753906 558.535156 365.695312 562.679688 364.34375 566.746094 C 362.992188 570.816406 361.367188 574.769531 359.460938 578.609375 C 357.554688 582.449219 355.394531 586.140625 352.972656 589.675781 C 350.550781 593.214844 347.894531 596.566406 345 599.730469 Z M 345.074219 599.75 " fill-opacity="1" fill-rule="nonzero"/><path fill="#000000" d="M 791.675781 459.976562 C 786.253906 460.085938 780.847656 460.429688 775.457031 461.007812 C 770.070312 461.589844 764.714844 462.40625 759.394531 463.457031 C 754.078125 464.507812 748.816406 465.789062 743.609375 467.300781 C 738.402344 468.8125 733.273438 470.546875 728.21875 472.507812 C 723.164062 474.46875 718.207031 476.648438 713.34375 479.046875 C 708.480469 481.441406 703.730469 484.046875 699.097656 486.859375 C 694.460938 489.671875 689.960938 492.683594 685.589844 495.890625 C 681.21875 499.097656 676.996094 502.488281 672.921875 506.066406 C 663.804688 515.308594 656.160156 525.636719 649.980469 537.054688 C 646.097656 525.355469 640.957031 514.242188 634.558594 503.703125 C 628.160156 493.167969 620.667969 483.480469 612.082031 474.636719 C 556.371094 418.945312 464.652344 423.324219 460.855469 423.546875 C 459.742188 423.609375 458.640625 423.769531 457.554688 424.035156 C 456.46875 424.296875 455.414062 424.65625 454.394531 425.113281 C 453.371094 425.570312 452.402344 426.113281 451.480469 426.75 C 450.5625 427.382812 449.707031 428.09375 448.914062 428.886719 C 448.125 429.675781 447.414062 430.53125 446.777344 431.453125 C 446.144531 432.371094 445.601562 433.34375 445.144531 434.363281 C 444.6875 435.382812 444.328125 436.4375 444.0625 437.523438 C 443.800781 438.609375 443.636719 439.710938 443.574219 440.828125 C 443.484375 444.640625 439.03125 536.304688 494.796875 591.921875 C 535.792969 632.898438 596.191406 641.402344 626.742188 642.867188 L 626.742188 696.746094 C 623.582031 694.015625 620.3125 691.425781 616.929688 688.980469 C 613.546875 686.535156 610.066406 684.238281 606.484375 682.089844 C 602.902344 679.945312 599.234375 677.960938 595.480469 676.132812 C 591.726562 674.304688 587.902344 672.640625 584.003906 671.144531 C 580.105469 669.648438 576.152344 668.320312 572.136719 667.167969 C 568.125 666.011719 564.070312 665.035156 559.972656 664.230469 C 555.875 663.429688 551.753906 662.804688 547.601562 662.359375 C 543.449219 661.914062 539.289062 661.648438 535.113281 661.5625 C 534.511719 661.5625 533.914062 661.589844 533.316406 661.648438 C 532.71875 661.707031 532.125 661.796875 531.539062 661.914062 C 530.949219 662.03125 530.367188 662.175781 529.792969 662.351562 C 529.21875 662.523438 528.65625 662.726562 528.101562 662.957031 C 527.546875 663.1875 527.003906 663.441406 526.472656 663.726562 C 525.945312 664.007812 525.429688 664.316406 524.933594 664.648438 C 524.433594 664.984375 523.953125 665.339844 523.488281 665.722656 C 523.023438 666.101562 522.578125 666.503906 522.15625 666.929688 C 521.730469 667.351562 521.328125 667.796875 520.945312 668.261719 C 520.566406 668.726562 520.210938 669.207031 519.875 669.707031 C 519.542969 670.203125 519.234375 670.71875 518.953125 671.25 C 518.667969 671.777344 518.410156 672.320312 518.183594 672.875 C 517.953125 673.429688 517.75 673.992188 517.578125 674.566406 C 517.402344 675.140625 517.257812 675.722656 517.140625 676.3125 C 517.023438 676.902344 516.933594 677.492188 516.875 678.089844 C 516.816406 678.6875 516.789062 679.285156 516.789062 679.886719 C 516.871094 684.101562 517.140625 688.304688 517.59375 692.496094 C 518.046875 696.6875 518.683594 700.851562 519.503906 704.984375 C 520.324219 709.121094 521.320312 713.214844 522.5 717.261719 C 523.679688 721.308594 525.03125 725.296875 526.5625 729.226562 C 528.089844 733.152344 529.789062 737.007812 531.65625 740.789062 C 533.523438 744.566406 535.550781 748.257812 537.742188 751.859375 C 539.933594 755.460938 542.28125 758.960938 544.777344 762.355469 C 547.277344 765.75 549.917969 769.03125 552.707031 772.195312 C 555.863281 774.996094 559.136719 777.65625 562.527344 780.167969 C 565.917969 782.679688 569.414062 785.039062 573.015625 787.238281 C 576.617188 789.441406 580.308594 791.480469 584.089844 793.355469 C 587.871094 795.226562 591.726562 796.929688 595.660156 798.464844 C 599.59375 799.996094 603.585938 801.347656 607.640625 802.527344 C 611.695312 803.703125 615.792969 804.699219 619.933594 805.511719 C 624.074219 806.328125 628.242188 806.953125 632.441406 807.398438 C 636.640625 807.839844 640.847656 808.097656 645.066406 808.167969 C 645.667969 808.167969 646.265625 808.136719 646.863281 808.078125 C 647.460938 808.019531 648.054688 807.933594 648.644531 807.816406 C 649.230469 807.699219 649.8125 807.550781 650.386719 807.378906 C 650.960938 807.203125 651.527344 807.003906 652.082031 806.773438 C 652.636719 806.542969 653.175781 806.285156 653.707031 806.003906 C 654.234375 805.71875 654.75 805.414062 655.25 805.078125 C 655.75 804.746094 656.230469 804.386719 656.695312 804.007812 C 657.15625 803.625 657.601562 803.222656 658.027344 802.800781 C 658.449219 802.375 658.851562 801.929688 659.234375 801.46875 C 659.613281 801.003906 659.972656 800.523438 660.304688 800.023438 C 660.636719 799.523438 660.945312 799.007812 661.230469 798.480469 C 661.511719 797.949219 661.769531 797.410156 662 796.855469 C 662.226562 796.300781 662.429688 795.734375 662.605469 795.160156 C 662.777344 794.585938 662.925781 794.003906 663.042969 793.417969 C 663.160156 792.828125 663.246094 792.234375 663.304688 791.636719 C 663.363281 791.039062 663.394531 790.441406 663.394531 789.839844 L 663.394531 641.84375 C 672.691406 640.925781 681.859375 639.273438 690.894531 636.886719 C 699.929688 634.5 708.714844 631.40625 717.253906 627.609375 C 725.789062 623.8125 733.972656 619.359375 741.792969 614.25 C 749.617188 609.140625 756.984375 603.4375 763.890625 597.144531 C 767.472656 593.070312 770.867188 588.84375 774.078125 584.472656 C 777.289062 580.097656 780.300781 575.589844 783.113281 570.953125 C 785.929688 566.316406 788.535156 561.5625 790.933594 556.695312 C 793.328125 551.828125 795.511719 546.867188 797.472656 541.808594 C 799.433594 536.75 801.171875 531.617188 802.683594 526.40625 C 804.195312 521.195312 805.476562 515.929688 806.527344 510.605469 C 807.578125 505.285156 808.390625 499.925781 808.972656 494.53125 C 809.550781 489.136719 809.894531 483.726562 810 478.304688 C 810 477.703125 809.96875 477.105469 809.910156 476.507812 C 809.851562 475.910156 809.765625 475.316406 809.648438 474.726562 C 809.53125 474.140625 809.386719 473.558594 809.210938 472.984375 C 809.035156 472.410156 808.835938 471.84375 808.605469 471.289062 C 808.375 470.734375 808.117188 470.195312 807.835938 469.664062 C 807.554688 469.136719 807.246094 468.621094 806.910156 468.121094 C 806.578125 467.621094 806.222656 467.140625 805.839844 466.675781 C 805.460938 466.214844 805.058594 465.769531 804.632812 465.34375 C 804.207031 464.921875 803.765625 464.519531 803.300781 464.136719 C 802.835938 463.757812 802.355469 463.398438 801.855469 463.066406 C 801.355469 462.730469 800.84375 462.425781 800.3125 462.140625 C 799.785156 461.859375 799.242188 461.601562 798.6875 461.371094 C 798.132812 461.144531 797.566406 460.941406 796.992188 460.765625 C 796.417969 460.59375 795.839844 460.445312 795.25 460.328125 C 794.660156 460.210938 794.066406 460.125 793.46875 460.066406 C 792.875 460.007812 792.273438 459.976562 791.675781 459.976562 Z M 520.636719 566.082031 C 517.519531 562.421875 514.566406 558.636719 511.773438 554.722656 C 508.984375 550.808594 506.363281 546.78125 503.917969 542.640625 C 501.472656 538.503906 499.207031 534.265625 497.125 529.933594 C 495.042969 525.601562 493.148438 521.1875 491.445312 516.691406 C 489.742188 512.195312 488.234375 507.636719 486.917969 503.011719 C 485.605469 498.386719 484.492188 493.714844 483.582031 488.996094 C 482.667969 484.273438 481.960938 479.523438 481.457031 474.742188 C 480.949219 469.960938 480.652344 465.167969 480.558594 460.363281 C 485.363281 460.453125 490.15625 460.746094 494.9375 461.25 C 499.71875 461.75 504.46875 462.457031 509.191406 463.367188 C 513.910156 464.277344 518.582031 465.390625 523.207031 466.703125 C 527.832031 468.019531 532.390625 469.527344 536.886719 471.234375 C 541.382812 472.941406 545.792969 474.835938 550.125 476.921875 C 554.457031 479.007812 558.691406 481.277344 562.824219 483.726562 C 566.960938 486.175781 570.984375 488.800781 574.894531 491.597656 C 578.804688 494.394531 582.585938 497.355469 586.242188 500.476562 C 589.359375 504.136719 592.3125 507.925781 595.101562 511.839844 C 597.894531 515.753906 600.511719 519.78125 602.957031 523.917969 C 605.40625 528.058594 607.667969 532.292969 609.75 536.625 C 611.835938 540.960938 613.726562 545.375 615.433594 549.871094 C 617.136719 554.363281 618.644531 558.925781 619.957031 563.550781 C 621.269531 568.171875 622.382812 572.847656 623.296875 577.566406 C 624.207031 582.285156 624.917969 587.035156 625.421875 591.816406 C 625.925781 596.597656 626.226562 601.390625 626.320312 606.199219 C 621.515625 606.109375 616.71875 605.8125 611.9375 605.3125 C 607.15625 604.808594 602.40625 604.105469 597.6875 603.191406 C 592.964844 602.28125 588.292969 601.167969 583.667969 599.855469 C 579.046875 598.542969 574.484375 597.035156 569.992188 595.328125 C 565.496094 593.621094 561.082031 591.726562 556.753906 589.640625 C 552.421875 587.554688 548.1875 585.285156 544.050781 582.835938 C 539.917969 580.382812 535.894531 577.761719 531.984375 574.964844 C 528.074219 572.167969 524.289062 569.207031 520.636719 566.082031 Z M 578.617188 746.355469 C 575.726562 743.191406 573.070312 739.839844 570.648438 736.300781 C 568.226562 732.761719 566.066406 729.074219 564.164062 725.230469 C 562.261719 721.386719 560.636719 717.429688 559.292969 713.359375 C 557.949219 709.289062 556.894531 705.144531 556.132812 700.925781 C 560.351562 701.6875 564.496094 702.742188 568.5625 704.085938 C 572.632812 705.433594 576.589844 707.054688 580.433594 708.957031 C 584.273438 710.855469 587.964844 713.015625 591.503906 715.433594 C 595.042969 717.851562 598.394531 720.503906 601.5625 723.390625 C 604.457031 726.558594 607.113281 729.90625 609.535156 733.445312 C 611.953125 736.984375 614.117188 740.675781 616.019531 744.515625 C 617.917969 748.359375 619.542969 752.316406 620.886719 756.386719 C 622.234375 760.457031 623.285156 764.601562 624.046875 768.820312 C 619.828125 768.058594 615.6875 767 611.617188 765.65625 C 607.546875 764.308594 603.589844 762.683594 599.746094 760.78125 C 595.90625 758.882812 592.214844 756.722656 588.675781 754.300781 C 585.136719 751.882812 581.785156 749.226562 578.617188 746.335938 Z M 738.054688 571.234375 C 733.015625 575.753906 727.667969 579.871094 722.011719 583.582031 C 716.351562 587.296875 710.445312 590.5625 704.296875 593.382812 C 698.144531 596.203125 691.816406 598.546875 685.308594 600.414062 C 678.804688 602.277344 672.195312 603.644531 665.484375 604.511719 C 666.34375 597.800781 667.707031 591.191406 669.570312 584.683594 C 671.4375 578.175781 673.78125 571.847656 676.609375 565.699219 C 679.433594 559.550781 682.710938 553.648438 686.433594 547.996094 C 690.15625 542.34375 694.285156 537.003906 698.816406 531.980469 C 703.855469 527.460938 709.203125 523.34375 714.859375 519.628906 C 720.519531 515.917969 726.421875 512.648438 732.574219 509.828125 C 738.726562 507.007812 745.054688 504.664062 751.5625 502.800781 C 758.066406 500.933594 764.675781 499.566406 771.386719 498.699219 C 770.523438 505.414062 769.152344 512.027344 767.28125 518.535156 C 765.410156 525.042969 763.058594 531.371094 760.226562 537.519531 C 757.394531 543.667969 754.113281 549.570312 750.382812 555.222656 C 746.65625 560.875 742.519531 566.210938 737.980469 571.234375 Z M 738.054688 571.234375 " fill-opacity="1" fill-rule="nonzero"/><g clip-path="url(#fbec090088)"><g clip-path="url(#4343cabee6)"><g transform="matrix(1, 0, 0, 1, 632, 646)"><g clip-path="url(#afe0e1715c)"><g clip-path="url(#3008e3d5ff)"><g clip-path="url(#d2a5b3a6d0)"><path fill="#000000" d="M 0.625 0.453125 L 24.125 0.453125 L 24.125 23.953125 L 0.625 23.953125 Z M 0.625 0.453125 " fill-opacity="1" fill-rule="nonzero"/></g></g></g></g></g></g></svg>