<svg xmlns="http://www.w3.org/2000/svg" xmlns:xlink="http://www.w3.org/1999/xlink" width="1080" zoomAndPan="magnify" viewBox="0 0 810 809.999993" height="1080" preserveAspectRatio="xMidYMid meet" version="1.0"><defs><clipPath id="286ccdb6f3"><path d="M 681.019531 563.492188 L 704.519531 563.492188 L 704.519531 586.992188 L 681.019531 586.992188 Z M 681.019531 563.492188 " clip-rule="nonzero"/></clipPath><clipPath id="1a423720c8"><path d="M 692.769531 563.492188 C 686.28125 563.492188 681.019531 568.753906 681.019531 575.242188 C 681.019531 581.730469 686.28125 586.992188 692.769531 586.992188 C 699.257812 586.992188 704.519531 581.730469 704.519531 575.242188 C 704.519531 568.753906 699.257812 563.492188 692.769531 563.492188 Z M 692.769531 563.492188 " clip-rule="nonzero"/></clipPath><clipPath id="cc613122c7"><path d="M 0.0195312 0.492188 L 23.519531 0.492188 L 23.519531 23.992188 L 0.0195312 23.992188 Z M 0.0195312 0.492188 " clip-rule="nonzero"/></clipPath><clipPath id="ac85e83374"><path d="M 11.769531 0.492188 C 5.28125 0.492188 0.0195312 5.753906 0.0195312 12.242188 C 0.0195312 18.730469 5.28125 23.992188 11.769531 23.992188 C 18.257812 23.992188 23.519531 18.730469 23.519531 12.242188 C 23.519531 5.753906 18.257812 0.492188 11.769531 0.492188 Z M 11.769531 0.492188 " clip-rule="nonzero"/></clipPath><clipPath id="9c75f3235a"><rect x="0" width="24" y="0" height="24"/></clipPath></defs><path fill="#000000" d="M 791.675781 1.832031 L 718.371094 1.832031 C 717.769531 1.832031 717.171875 1.863281 716.574219 1.921875 C 715.976562 1.980469 715.382812 2.066406 714.796875 2.183594 C 714.207031 2.300781 713.625 2.449219 713.050781 2.621094 C 712.476562 2.796875 711.914062 2.996094 711.359375 3.226562 C 710.804688 3.457031 710.261719 3.714844 709.730469 3.996094 C 709.203125 4.28125 708.6875 4.585938 708.191406 4.921875 C 707.691406 5.253906 707.210938 5.613281 706.746094 5.992188 C 706.28125 6.375 705.835938 6.777344 705.414062 7.199219 C 704.988281 7.625 704.585938 8.070312 704.207031 8.53125 C 703.824219 8.996094 703.46875 9.476562 703.132812 9.976562 C 702.800781 10.476562 702.492188 10.992188 702.210938 11.519531 C 701.925781 12.050781 701.667969 12.589844 701.441406 13.144531 C 701.210938 13.699219 701.007812 14.265625 700.835938 14.839844 C 700.660156 15.414062 700.515625 15.996094 700.398438 16.582031 C 700.28125 17.171875 700.191406 17.765625 700.132812 18.363281 C 700.074219 18.960938 700.046875 19.558594 700.046875 20.160156 L 567.917969 20.160156 C 566.082031 20.160156 413.210938 39.089844 408.480469 41.234375 L 278.367188 106.839844 C 273.976562 109.070312 269.839844 111.707031 265.964844 114.753906 C 262.089844 117.796875 258.550781 121.191406 255.34375 124.933594 C 252.136719 128.675781 249.324219 132.691406 246.910156 136.988281 C 244.492188 141.28125 242.515625 145.769531 240.984375 150.453125 L 208.179688 249.597656 C 186.703125 314.726562 280.238281 355.683594 311.355469 292.847656 L 351.488281 211.664062 C 352.355469 209.867188 353.476562 208.25 354.855469 206.8125 C 356.230469 205.371094 357.796875 204.179688 359.550781 203.234375 L 441.46875 188.9375 C 442.335938 188.785156 443.210938 188.695312 444.09375 188.667969 C 444.972656 188.640625 445.851562 188.675781 446.726562 188.777344 C 447.601562 188.878906 448.46875 189.042969 449.320312 189.269531 C 450.171875 189.5 451 189.785156 451.8125 190.132812 C 452.621094 190.484375 453.402344 190.886719 454.152344 191.351562 C 454.902344 191.8125 455.617188 192.324219 456.292969 192.890625 C 456.96875 193.457031 457.601562 194.070312 458.1875 194.726562 C 458.773438 195.386719 459.308594 196.082031 459.792969 196.820312 L 467.125 207.632812 C 467.683594 208.492188 468.167969 209.394531 468.574219 210.335938 C 468.984375 211.277344 469.3125 212.246094 469.558594 213.242188 C 469.808594 214.238281 469.972656 215.25 470.050781 216.273438 C 470.128906 217.296875 470.125 218.316406 470.035156 219.339844 C 469.941406 220.363281 469.769531 221.371094 469.511719 222.363281 C 469.25 223.359375 468.914062 224.324219 468.492188 225.261719 C 468.074219 226.199219 467.582031 227.09375 467.011719 227.949219 C 466.445312 228.804688 465.808594 229.605469 465.109375 230.355469 L 402.25 297.0625 C 401.101562 298.078125 400.003906 299.144531 398.949219 300.261719 C 397.898438 301.375 396.898438 302.539062 395.949219 303.742188 C 395.003906 304.949219 394.109375 306.195312 393.273438 307.480469 C 392.4375 308.765625 391.664062 310.089844 390.945312 311.445312 C 390.230469 312.800781 389.574219 314.1875 388.980469 315.601562 C 388.390625 317.015625 387.863281 318.453125 387.398438 319.917969 C 386.9375 321.378906 386.539062 322.859375 386.210938 324.355469 C 385.882812 325.855469 385.621094 327.363281 385.425781 328.886719 C 385.230469 330.40625 385.105469 331.933594 385.050781 333.46875 C 384.992188 335 385.007812 336.53125 385.085938 338.0625 C 385.167969 339.597656 385.320312 341.121094 385.539062 342.640625 C 385.757812 344.15625 386.042969 345.664062 386.398438 347.15625 C 386.75 348.648438 387.171875 350.121094 387.65625 351.574219 C 388.144531 353.03125 388.695312 354.460938 389.308594 355.863281 C 389.925781 357.269531 390.601562 358.644531 391.339844 359.988281 C 392.078125 361.332031 392.878906 362.640625 393.734375 363.914062 C 394.589844 365.183594 395.503906 366.417969 396.46875 367.605469 C 397.4375 368.796875 398.457031 369.941406 399.527344 371.039062 C 400.597656 372.140625 401.714844 373.1875 402.878906 374.1875 C 404.042969 375.183594 405.25 376.128906 406.5 377.015625 C 407.75 377.90625 409.035156 378.738281 410.359375 379.511719 C 411.683594 380.285156 413.042969 381 414.429688 381.648438 C 415.820312 382.300781 417.234375 382.890625 418.675781 383.414062 C 420.117188 383.9375 421.578125 384.398438 423.0625 384.789062 C 424.542969 385.183594 426.039062 385.507812 427.550781 385.765625 C 429.066406 386.027344 430.585938 386.214844 432.113281 386.335938 C 433.644531 386.457031 435.175781 386.511719 436.707031 386.496094 C 438.242188 386.476562 439.773438 386.394531 441.296875 386.238281 C 442.824219 386.085938 444.339844 385.863281 445.847656 385.570312 C 447.351562 385.28125 448.84375 384.925781 450.316406 384.5 C 451.789062 384.074219 453.242188 383.585938 454.671875 383.03125 C 456.101562 382.476562 457.503906 381.859375 458.878906 381.175781 L 576.164062 321.984375 C 581.824219 318.832031 576.417969 322.460938 670.90625 227.605469 L 700.59375 224.125 C 700.710938 225.210938 700.929688 226.277344 701.242188 227.324219 C 701.554688 228.371094 701.960938 229.378906 702.460938 230.351562 C 702.957031 231.324219 703.539062 232.242188 704.207031 233.109375 C 704.875 233.972656 705.617188 234.773438 706.429688 235.5 C 707.242188 236.230469 708.113281 236.878906 709.046875 237.449219 C 709.980469 238.019531 710.957031 238.5 711.976562 238.890625 C 712.996094 239.28125 714.046875 239.574219 715.121094 239.773438 C 716.195312 239.96875 717.277344 240.070312 718.371094 240.066406 L 791.675781 240.066406 C 792.273438 240.066406 792.875 240.039062 793.46875 239.980469 C 794.066406 239.921875 794.660156 239.832031 795.25 239.714844 C 795.839844 239.597656 796.417969 239.453125 796.992188 239.277344 C 797.566406 239.105469 798.132812 238.902344 798.6875 238.671875 C 799.242188 238.441406 799.785156 238.1875 800.3125 237.902344 C 800.84375 237.621094 801.355469 237.3125 801.855469 236.980469 C 802.355469 236.644531 802.835938 236.289062 803.300781 235.90625 C 803.765625 235.527344 804.207031 235.125 804.632812 234.699219 C 805.058594 234.277344 805.460938 233.832031 805.839844 233.367188 C 806.222656 232.902344 806.578125 232.421875 806.910156 231.921875 C 807.246094 231.425781 807.554688 230.910156 807.835938 230.378906 C 808.117188 229.851562 808.375 229.308594 808.605469 228.753906 C 808.835938 228.199219 809.035156 227.636719 809.210938 227.0625 C 809.386719 226.488281 809.53125 225.90625 809.648438 225.316406 C 809.765625 224.730469 809.851562 224.136719 809.910156 223.539062 C 809.96875 222.941406 810 222.34375 810 221.742188 L 810 20.160156 C 810 19.558594 809.96875 18.960938 809.910156 18.363281 C 809.851562 17.765625 809.765625 17.171875 809.648438 16.582031 C 809.53125 15.996094 809.386719 15.414062 809.210938 14.839844 C 809.035156 14.265625 808.835938 13.699219 808.605469 13.144531 C 808.375 12.589844 808.117188 12.050781 807.835938 11.519531 C 807.554688 10.992188 807.246094 10.476562 806.910156 9.976562 C 806.578125 9.476562 806.222656 8.996094 805.839844 8.53125 C 805.460938 8.070312 805.058594 7.625 804.632812 7.199219 C 804.207031 6.777344 803.765625 6.375 803.300781 5.992188 C 802.835938 5.613281 802.355469 5.253906 801.855469 4.921875 C 801.355469 4.585938 800.84375 4.28125 800.3125 3.996094 C 799.785156 3.714844 799.242188 3.457031 798.6875 3.226562 C 798.132812 2.996094 797.566406 2.796875 796.992188 2.621094 C 796.417969 2.449219 795.839844 2.300781 795.25 2.183594 C 794.660156 2.066406 794.066406 1.980469 793.46875 1.921875 C 792.875 1.863281 792.273438 1.832031 791.675781 1.832031 Z M 700.046875 187.289062 L 660.09375 192.054688 C 658.039062 192.289062 656.085938 192.863281 654.226562 193.773438 C 652.371094 194.6875 650.722656 195.882812 649.28125 197.367188 L 556.921875 290.648438 L 442.382812 348.554688 C 441.59375 348.9375 440.777344 349.242188 439.933594 349.476562 C 439.085938 349.707031 438.226562 349.863281 437.351562 349.9375 C 436.480469 350.015625 435.605469 350.011719 434.734375 349.929688 C 433.863281 349.847656 433.003906 349.6875 432.160156 349.449219 C 431.316406 349.210938 430.5 348.898438 429.714844 348.511719 C 428.925781 348.125 428.179688 347.671875 427.476562 347.152344 C 426.769531 346.628906 426.117188 346.050781 425.519531 345.410156 C 424.917969 344.769531 424.382812 344.082031 423.90625 343.34375 C 423.433594 342.609375 423.027344 341.832031 422.695312 341.023438 C 422.359375 340.214844 422.101562 339.378906 421.917969 338.523438 C 421.734375 337.664062 421.628906 336.796875 421.605469 335.921875 C 421.578125 335.042969 421.632812 334.171875 421.765625 333.308594 C 421.898438 332.441406 422.105469 331.59375 422.394531 330.765625 C 422.679688 329.933594 423.039062 329.140625 423.46875 328.375 C 423.898438 327.613281 424.394531 326.894531 424.957031 326.21875 C 425.515625 325.546875 426.132812 324.929688 426.808594 324.367188 C 429.539062 321.636719 416.308594 335.527344 491.679688 255.644531 C 492.746094 254.527344 493.765625 253.367188 494.734375 252.160156 C 495.703125 250.957031 496.617188 249.714844 497.484375 248.433594 C 498.347656 247.152344 499.152344 245.835938 499.90625 244.484375 C 500.660156 243.136719 501.351562 241.757812 501.988281 240.347656 C 502.625 238.941406 503.199219 237.507812 503.710938 236.050781 C 504.226562 234.59375 504.679688 233.117188 505.066406 231.621094 C 505.457031 230.125 505.78125 228.617188 506.042969 227.09375 C 506.304688 225.570312 506.503906 224.039062 506.636719 222.5 C 506.765625 220.957031 506.832031 219.417969 506.835938 217.871094 C 506.835938 216.324219 506.773438 214.78125 506.644531 213.242188 C 506.515625 211.703125 506.320312 210.171875 506.0625 208.648438 C 505.804688 207.125 505.480469 205.613281 505.097656 204.117188 C 504.710938 202.621094 504.261719 201.144531 503.75 199.6875 C 503.238281 198.226562 502.667969 196.792969 502.035156 195.382812 C 501.402344 193.972656 500.710938 192.59375 499.960938 191.242188 C 499.210938 189.890625 498.40625 188.574219 497.546875 187.289062 L 490.398438 176.476562 C 489.136719 174.609375 487.765625 172.828125 486.285156 171.128906 C 484.808594 169.429688 483.230469 167.824219 481.554688 166.320312 C 479.878906 164.8125 478.121094 163.414062 476.273438 162.121094 C 474.429688 160.828125 472.511719 159.652344 470.519531 158.59375 C 468.53125 157.535156 466.484375 156.601562 464.382812 155.792969 C 462.28125 154.984375 460.136719 154.308594 457.949219 153.761719 C 455.765625 153.214844 453.554688 152.800781 451.316406 152.523438 C 449.082031 152.246094 446.835938 152.109375 444.582031 152.105469 C 435.421875 152.105469 349.398438 167.625 346.722656 168.78125 C 343.695312 170.078125 340.804688 171.632812 338.050781 173.445312 C 335.296875 175.257812 332.722656 177.296875 330.332031 179.5625 C 327.9375 181.828125 325.765625 184.289062 323.808594 186.941406 C 321.851562 189.59375 320.144531 192.398438 318.683594 195.351562 L 278.550781 276.535156 C 277.980469 277.597656 277.3125 278.597656 276.554688 279.535156 C 275.796875 280.46875 274.957031 281.328125 274.039062 282.109375 C 273.117188 282.890625 272.136719 283.582031 271.089844 284.179688 C 270.042969 284.777344 268.949219 285.273438 267.808594 285.667969 C 266.667969 286.0625 265.503906 286.351562 264.308594 286.527344 C 263.117188 286.707031 261.917969 286.769531 260.714844 286.726562 C 259.507812 286.679688 258.316406 286.523438 257.140625 286.257812 C 255.964844 285.992188 254.824219 285.617188 253.71875 285.140625 C 252.613281 284.660156 251.558594 284.082031 250.558594 283.40625 C 249.558594 282.734375 248.632812 281.972656 247.773438 281.125 C 246.917969 280.277344 246.144531 279.355469 245.457031 278.363281 C 244.773438 277.375 244.183594 276.328125 243.691406 275.226562 C 243.199219 274.125 242.8125 272.988281 242.53125 271.816406 C 242.253906 270.640625 242.082031 269.453125 242.023438 268.25 C 241.964844 267.042969 242.015625 265.84375 242.179688 264.652344 C 242.34375 263.457031 242.617188 262.285156 243 261.140625 L 275.804688 161.816406 C 276.585938 159.417969 277.59375 157.125 278.835938 154.929688 C 280.078125 152.734375 281.523438 150.683594 283.179688 148.78125 C 284.832031 146.875 286.65625 145.15625 288.652344 143.617188 C 290.652344 142.078125 292.78125 140.753906 295.046875 139.640625 L 422.226562 75.320312 L 569.015625 56.808594 L 700.046875 56.808594 Z M 700.046875 187.289062 " fill-opacity="1" fill-rule="nonzero"/><path fill="#000000" d="M 388.507812 514.953125 C 384.292969 515.050781 380.089844 515.332031 375.898438 515.796875 C 371.707031 516.257812 367.542969 516.902344 363.410156 517.726562 C 359.273438 518.554688 355.183594 519.554688 351.136719 520.738281 C 347.089844 521.917969 343.101562 523.273438 339.171875 524.800781 C 335.242188 526.328125 331.386719 528.023438 327.601562 529.890625 C 323.820312 531.753906 320.128906 533.777344 316.519531 535.960938 C 312.914062 538.148438 309.410156 540.484375 306.007812 542.972656 C 302.605469 545.464844 299.316406 548.097656 296.144531 550.875 C 290.90625 556.695312 286.191406 562.910156 282 569.527344 C 277.808594 576.140625 274.199219 583.058594 271.171875 590.28125 C 268.144531 597.503906 265.746094 604.929688 263.96875 612.554688 C 262.191406 620.183594 261.066406 627.90625 260.59375 635.722656 C 247.050781 651.378906 234.710938 667.933594 223.574219 685.382812 L 223.574219 513.304688 C 228.214844 512.859375 232.824219 512.230469 237.414062 511.414062 C 242 510.59375 246.546875 509.597656 251.054688 508.414062 C 255.5625 507.230469 260.015625 505.871094 264.414062 504.328125 C 268.8125 502.789062 273.140625 501.074219 277.398438 499.183594 C 281.660156 497.296875 285.835938 495.238281 289.929688 493.015625 C 294.023438 490.789062 298.023438 488.402344 301.925781 485.855469 C 305.828125 483.308594 309.621094 480.609375 313.304688 477.757812 C 316.992188 474.90625 320.554688 471.914062 324 468.773438 C 327.589844 464.707031 330.996094 460.492188 334.210938 456.125 C 337.429688 451.761719 340.449219 447.261719 343.273438 442.628906 C 346.09375 437.996094 348.707031 433.25 351.109375 428.386719 C 353.511719 423.523438 355.699219 418.566406 357.664062 413.507812 C 359.628906 408.453125 361.367188 403.324219 362.882812 398.113281 C 364.394531 392.90625 365.675781 387.640625 366.726562 382.320312 C 367.777344 376.996094 368.589844 371.640625 369.164062 366.246094 C 369.742188 360.855469 370.082031 355.445312 370.179688 350.023438 C 370.179688 349.421875 370.152344 348.824219 370.09375 348.226562 C 370.035156 347.628906 369.945312 347.035156 369.828125 346.449219 C 369.710938 345.859375 369.566406 345.277344 369.390625 344.703125 C 369.21875 344.128906 369.015625 343.5625 368.785156 343.007812 C 368.554688 342.457031 368.300781 341.914062 368.015625 341.382812 C 367.734375 340.855469 367.425781 340.339844 367.09375 339.839844 C 366.757812 339.34375 366.402344 338.859375 366.019531 338.398438 C 365.640625 337.933594 365.238281 337.488281 364.8125 337.0625 C 364.390625 336.640625 363.945312 336.238281 363.480469 335.855469 C 363.015625 335.476562 362.535156 335.117188 362.035156 334.785156 C 361.539062 334.453125 361.023438 334.144531 360.492188 333.859375 C 359.964844 333.578125 359.421875 333.320312 358.867188 333.09375 C 358.3125 332.863281 357.75 332.660156 357.175781 332.484375 C 356.601562 332.3125 356.019531 332.167969 355.429688 332.050781 C 354.839844 331.933594 354.25 331.84375 353.652344 331.785156 C 353.054688 331.726562 352.457031 331.695312 351.855469 331.695312 C 337.09375 332.097656 322.554688 334.113281 308.238281 337.746094 C 301.21875 339.328125 294.339844 341.371094 287.59375 343.882812 C 280.851562 346.390625 274.304688 349.339844 267.957031 352.730469 C 261.609375 356.121094 255.519531 359.921875 249.683594 364.132812 C 243.847656 368.339844 238.324219 372.921875 233.105469 377.878906 C 223.882812 387.066406 216.1875 397.390625 210.011719 408.847656 C 206.207031 397.121094 201.113281 385.980469 194.738281 375.425781 C 188.363281 364.875 180.871094 355.183594 172.261719 346.359375 C 116.550781 290.648438 24.90625 295.046875 21.054688 295.226562 C 19.945312 295.292969 18.847656 295.457031 17.765625 295.722656 C 16.683594 295.988281 15.636719 296.347656 14.621094 296.804688 C 13.605469 297.261719 12.640625 297.804688 11.722656 298.4375 C 10.804688 299.066406 9.953125 299.777344 9.167969 300.566406 C 8.378906 301.351562 7.667969 302.203125 7.039062 303.121094 C 6.40625 304.039062 5.863281 305.003906 5.40625 306.019531 C 4.949219 307.035156 4.589844 308.082031 4.324219 309.164062 C 4.058594 310.246094 3.894531 311.34375 3.832031 312.453125 C 3.648438 316.304688 -0.75 407.933594 54.960938 463.640625 C 95.824219 504.691406 156.300781 513.121094 186.90625 514.589844 L 186.90625 571.765625 C 183.972656 568.003906 180.796875 564.460938 177.375 561.136719 C 131.5625 515.136719 60.476562 515.136719 58.640625 514.953125 C 58.042969 514.953125 57.445312 514.984375 56.847656 515.042969 C 56.25 515.101562 55.65625 515.191406 55.066406 515.308594 C 54.480469 515.425781 53.898438 515.570312 53.324219 515.742188 C 52.75 515.917969 52.183594 516.121094 51.628906 516.351562 C 51.074219 516.578125 50.53125 516.835938 50.003906 517.117188 C 49.472656 517.402344 48.960938 517.710938 48.460938 518.042969 C 47.960938 518.375 47.480469 518.734375 47.015625 519.113281 C 46.554688 519.496094 46.109375 519.898438 45.683594 520.324219 C 45.261719 520.746094 44.855469 521.191406 44.476562 521.65625 C 44.097656 522.117188 43.738281 522.601562 43.40625 523.097656 C 43.070312 523.597656 42.761719 524.113281 42.480469 524.640625 C 42.199219 525.171875 41.941406 525.714844 41.710938 526.269531 C 41.480469 526.820312 41.28125 527.386719 41.105469 527.960938 C 40.929688 528.535156 40.785156 529.117188 40.667969 529.707031 C 40.550781 530.292969 40.464844 530.886719 40.40625 531.484375 C 40.347656 532.082031 40.316406 532.679688 40.316406 533.28125 C 40.417969 538.703125 40.753906 544.113281 41.332031 549.503906 C 41.910156 554.898438 42.722656 560.253906 43.769531 565.578125 C 44.820312 570.898438 46.101562 576.164062 47.617188 581.371094 C 49.128906 586.582031 50.867188 591.710938 52.835938 596.769531 C 54.800781 601.824219 56.984375 606.78125 59.386719 611.644531 C 61.792969 616.507812 64.402344 621.253906 67.226562 625.886719 C 70.046875 630.519531 73.066406 635.019531 76.285156 639.382812 C 79.503906 643.75 82.90625 647.964844 86.496094 652.03125 C 89.9375 655.191406 93.496094 658.207031 97.175781 661.082031 C 100.855469 663.953125 104.644531 666.675781 108.542969 669.242188 C 112.441406 671.8125 116.4375 674.21875 120.53125 676.46875 C 124.621094 678.714844 128.796875 680.796875 133.058594 682.707031 C 137.316406 684.621094 141.648438 686.359375 146.046875 687.921875 C 150.445312 689.488281 154.902344 690.871094 159.410156 692.078125 C 163.921875 693.285156 168.472656 694.308594 173.066406 695.148438 C 177.660156 695.988281 182.277344 696.644531 186.921875 697.113281 L 186.921875 808.167969 L 223.574219 808.167969 L 223.574219 789.839844 C 223.574219 738.53125 271.953125 678.789062 287.164062 661.011719 C 294.886719 660.511719 302.511719 659.371094 310.042969 657.59375 C 317.574219 655.8125 324.902344 653.417969 332.03125 650.40625 C 339.15625 647.398438 345.984375 643.8125 352.511719 639.65625 C 359.039062 635.5 365.171875 630.828125 370.914062 625.640625 C 373.703125 622.480469 376.351562 619.199219 378.851562 615.800781 C 381.355469 612.40625 383.703125 608.90625 385.894531 605.300781 C 388.089844 601.699219 390.121094 598.007812 391.988281 594.226562 C 393.855469 590.441406 395.554688 586.585938 397.085938 582.65625 C 398.613281 578.722656 399.964844 574.730469 401.144531 570.679688 C 402.320312 566.628906 403.320312 562.535156 404.136719 558.398438 C 404.953125 554.257812 405.585938 550.09375 406.035156 545.898438 C 406.488281 541.703125 406.753906 537.5 406.832031 533.28125 C 406.832031 532.679688 406.804688 532.082031 406.746094 531.484375 C 406.683594 530.886719 406.597656 530.292969 406.480469 529.707031 C 406.363281 529.117188 406.21875 528.535156 406.042969 527.960938 C 405.871094 527.386719 405.667969 526.820312 405.4375 526.265625 C 405.207031 525.714844 404.953125 525.171875 404.667969 524.640625 C 404.386719 524.113281 404.078125 523.597656 403.742188 523.097656 C 403.410156 522.601562 403.054688 522.117188 402.671875 521.65625 C 402.292969 521.191406 401.890625 520.746094 401.464844 520.320312 C 401.039062 519.898438 400.597656 519.496094 400.132812 519.113281 C 399.667969 518.734375 399.1875 518.375 398.6875 518.042969 C 398.1875 517.710938 397.675781 517.402344 397.144531 517.117188 C 396.617188 516.835938 396.074219 516.578125 395.519531 516.351562 C 394.964844 516.121094 394.402344 515.917969 393.828125 515.742188 C 393.253906 515.570312 392.671875 515.425781 392.082031 515.308594 C 391.492188 515.191406 390.898438 515.101562 390.304688 515.042969 C 389.707031 514.984375 389.105469 514.953125 388.507812 514.953125 Z M 80.796875 437.804688 C 49.644531 406.648438 42.3125 357.902344 40.664062 332.0625 C 45.472656 332.148438 50.269531 332.445312 55.054688 332.945312 C 59.839844 333.445312 64.59375 334.148438 69.316406 335.058594 C 74.039062 335.972656 78.714844 337.082031 83.339844 338.394531 C 87.96875 339.710938 92.53125 341.21875 97.027344 342.925781 C 101.523438 344.632812 105.941406 346.53125 110.273438 348.617188 C 114.605469 350.707031 118.84375 352.976562 122.980469 355.429688 C 127.117188 357.882812 131.144531 360.507812 135.054688 363.308594 C 138.964844 366.109375 142.75 369.070312 146.40625 372.195312 C 177.558594 403.351562 184.890625 452.097656 186.539062 477.9375 C 181.730469 477.851562 176.933594 477.554688 172.148438 477.054688 C 167.363281 476.554688 162.609375 475.851562 157.886719 474.941406 C 153.164062 474.027344 148.488281 472.917969 143.863281 471.605469 C 139.234375 470.289062 134.671875 468.78125 130.175781 467.074219 C 125.679688 465.367188 121.261719 463.46875 116.929688 461.382812 C 112.597656 459.292969 108.359375 457.023438 104.222656 454.570312 C 100.085938 452.117188 96.058594 449.492188 92.148438 446.691406 C 88.238281 443.890625 84.453125 440.929688 80.796875 437.804688 Z M 345.074219 599.804688 C 341.914062 602.695312 338.5625 605.347656 335.023438 607.765625 C 331.484375 610.179688 327.792969 612.335938 323.945312 614.226562 C 320.101562 616.117188 316.140625 617.726562 312.066406 619.058594 C 307.996094 620.386719 303.847656 621.421875 299.625 622.160156 C 300.394531 617.949219 301.453125 613.808594 302.792969 609.742188 C 304.136719 605.675781 305.753906 601.722656 307.644531 597.882812 C 309.53125 594.039062 311.679688 590.34375 314.082031 586.800781 C 316.480469 583.253906 319.117188 579.894531 321.984375 576.710938 C 325.144531 573.820312 328.496094 571.167969 332.035156 568.75 C 335.574219 566.335938 339.265625 564.179688 343.113281 562.289062 C 346.957031 560.398438 350.917969 558.789062 354.992188 557.460938 C 359.0625 556.128906 363.210938 555.09375 367.433594 554.355469 C 366.664062 558.566406 365.605469 562.707031 364.265625 566.773438 C 362.921875 570.839844 361.304688 574.792969 359.414062 578.632812 C 357.523438 582.476562 355.378906 586.171875 352.976562 589.714844 C 350.578125 593.261719 347.941406 596.625 345.074219 599.804688 Z M 345.074219 599.804688 " fill-opacity="1" fill-rule="nonzero"/><path fill="#000000" d="M 791.675781 459.976562 C 786.25 460.078125 780.839844 460.414062 775.449219 460.992188 C 770.054688 461.570312 764.695312 462.382812 759.375 463.429688 C 754.050781 464.480469 748.785156 465.761719 743.574219 467.273438 C 738.367188 468.789062 733.234375 470.527344 728.179688 472.496094 C 723.121094 474.460938 718.164062 476.644531 713.300781 479.046875 C 708.4375 481.449219 703.6875 484.0625 699.054688 486.886719 C 694.421875 489.707031 689.921875 492.726562 685.554688 495.945312 C 681.1875 499.164062 676.972656 502.566406 672.90625 506.160156 C 663.683594 515.347656 655.988281 525.671875 649.8125 537.128906 C 646.007812 525.402344 640.921875 514.261719 634.546875 503.710938 C 628.175781 493.15625 620.6875 483.464844 612.082031 474.636719 C 556.371094 418.925781 464.722656 423.324219 460.875 423.507812 C 459.765625 423.574219 458.667969 423.738281 457.585938 424.003906 C 456.503906 424.269531 455.457031 424.628906 454.441406 425.085938 C 453.425781 425.539062 452.457031 426.085938 451.542969 426.714844 C 450.625 427.347656 449.773438 428.058594 448.984375 428.84375 C 448.199219 429.632812 447.488281 430.484375 446.855469 431.402344 C 446.222656 432.316406 445.679688 433.285156 445.226562 434.300781 C 444.769531 435.316406 444.410156 436.363281 444.144531 437.445312 C 443.878906 438.527344 443.714844 439.625 443.648438 440.734375 C 443.464844 444.582031 439.066406 536.210938 494.777344 591.921875 C 535.644531 632.972656 596.136719 641.402344 626.722656 642.867188 L 626.722656 696.746094 C 623.566406 694.011719 620.300781 691.421875 616.917969 688.972656 C 613.539062 686.523438 610.058594 684.226562 606.476562 682.078125 C 602.898438 679.929688 599.230469 677.941406 595.476562 676.113281 C 591.722656 674.285156 587.898438 672.621094 584 671.125 C 580.105469 669.628906 576.148438 668.304688 572.136719 667.148438 C 568.125 665.996094 564.070312 665.019531 559.972656 664.21875 C 555.875 663.414062 551.753906 662.792969 547.601562 662.351562 C 543.449219 661.90625 539.285156 661.644531 535.113281 661.5625 C 534.511719 661.5625 533.914062 661.589844 533.316406 661.648438 C 532.71875 661.707031 532.125 661.796875 531.539062 661.914062 C 530.949219 662.03125 530.367188 662.175781 529.792969 662.351562 C 529.21875 662.523438 528.65625 662.726562 528.101562 662.957031 C 527.546875 663.1875 527.003906 663.441406 526.472656 663.726562 C 525.945312 664.007812 525.429688 664.316406 524.933594 664.648438 C 524.433594 664.984375 523.953125 665.339844 523.488281 665.722656 C 523.023438 666.101562 522.578125 666.503906 522.15625 666.929688 C 521.730469 667.351562 521.328125 667.796875 520.945312 668.261719 C 520.566406 668.726562 520.210938 669.207031 519.875 669.707031 C 519.542969 670.203125 519.234375 670.71875 518.953125 671.25 C 518.667969 671.777344 518.410156 672.320312 518.183594 672.875 C 517.953125 673.429688 517.75 673.992188 517.578125 674.566406 C 517.402344 675.140625 517.257812 675.722656 517.140625 676.3125 C 517.023438 676.902344 516.933594 677.492188 516.875 678.089844 C 516.816406 678.6875 516.789062 679.285156 516.789062 679.886719 C 516.867188 684.105469 517.132812 688.308594 517.582031 692.503906 C 518.03125 696.699219 518.667969 700.867188 519.484375 705.003906 C 520.300781 709.140625 521.296875 713.238281 522.476562 717.289062 C 523.652344 721.339844 525.007812 725.328125 526.535156 729.261719 C 528.066406 733.191406 529.761719 737.050781 531.632812 740.832031 C 533.5 744.613281 535.53125 748.304688 537.726562 751.910156 C 539.917969 755.511719 542.265625 759.011719 544.769531 762.410156 C 547.269531 765.804688 549.914062 769.085938 552.707031 772.25 C 555.863281 775.050781 559.136719 777.707031 562.527344 780.21875 C 565.917969 782.730469 569.414062 785.085938 573.015625 787.285156 C 576.617188 789.488281 580.308594 791.523438 584.089844 793.394531 C 587.871094 795.269531 591.730469 796.96875 595.664062 798.5 C 599.597656 800.027344 603.589844 801.378906 607.640625 802.554688 C 611.695312 803.730469 615.792969 804.722656 619.933594 805.53125 C 624.078125 806.34375 628.246094 806.96875 632.441406 807.410156 C 636.640625 807.847656 640.847656 808.101562 645.066406 808.167969 C 645.667969 808.167969 646.265625 808.136719 646.863281 808.078125 C 647.460938 808.019531 648.054688 807.933594 648.644531 807.816406 C 649.230469 807.699219 649.8125 807.550781 650.386719 807.378906 C 650.960938 807.203125 651.527344 807.003906 652.082031 806.773438 C 652.636719 806.542969 653.175781 806.285156 653.707031 806.003906 C 654.234375 805.71875 654.75 805.414062 655.25 805.078125 C 655.75 804.746094 656.230469 804.386719 656.695312 804.007812 C 657.15625 803.625 657.601562 803.222656 658.027344 802.800781 C 658.449219 802.375 658.851562 801.929688 659.234375 801.46875 C 659.613281 801.003906 659.972656 800.523438 660.304688 800.023438 C 660.636719 799.523438 660.945312 799.007812 661.230469 798.480469 C 661.511719 797.949219 661.769531 797.410156 662 796.855469 C 662.226562 796.300781 662.429688 795.734375 662.605469 795.160156 C 662.777344 794.585938 662.925781 794.003906 663.042969 793.417969 C 663.160156 792.828125 663.246094 792.234375 663.304688 791.636719 C 663.363281 791.039062 663.394531 790.441406 663.394531 789.839844 L 663.394531 641.769531 C 668.035156 641.324219 672.652344 640.691406 677.246094 639.875 C 681.835938 639.054688 686.386719 638.054688 690.898438 636.867188 C 695.40625 635.679688 699.863281 634.3125 704.261719 632.765625 C 708.660156 631.21875 712.992188 629.496094 717.253906 627.601562 C 721.511719 625.703125 725.691406 623.636719 729.785156 621.402344 C 733.875 619.167969 737.875 616.773438 741.773438 614.214844 C 745.671875 611.65625 749.460938 608.945312 753.144531 606.078125 C 756.824219 603.214844 760.382812 600.207031 763.820312 597.054688 C 767.410156 592.988281 770.8125 588.773438 774.03125 584.40625 C 777.25 580.039062 780.269531 575.542969 783.089844 570.910156 C 785.914062 566.277344 788.527344 561.53125 790.929688 556.667969 C 793.332031 551.804688 795.515625 546.84375 797.480469 541.789062 C 799.449219 536.734375 801.1875 531.601562 802.699219 526.394531 C 804.214844 521.1875 805.496094 515.921875 806.546875 510.601562 C 807.59375 505.277344 808.40625 499.921875 808.984375 494.527344 C 809.5625 489.132812 809.898438 483.726562 810 478.304688 C 810 477.703125 809.96875 477.105469 809.910156 476.507812 C 809.851562 475.910156 809.765625 475.316406 809.648438 474.726562 C 809.53125 474.140625 809.386719 473.558594 809.210938 472.984375 C 809.035156 472.410156 808.835938 471.84375 808.605469 471.289062 C 808.375 470.734375 808.117188 470.195312 807.835938 469.664062 C 807.554688 469.136719 807.246094 468.621094 806.910156 468.121094 C 806.578125 467.621094 806.222656 467.140625 805.839844 466.675781 C 805.460938 466.214844 805.058594 465.769531 804.632812 465.34375 C 804.207031 464.921875 803.765625 464.519531 803.300781 464.136719 C 802.835938 463.757812 802.355469 463.398438 801.855469 463.066406 C 801.355469 462.730469 800.84375 462.425781 800.3125 462.140625 C 799.785156 461.859375 799.242188 461.601562 798.6875 461.371094 C 798.132812 461.144531 797.566406 460.941406 796.992188 460.765625 C 796.417969 460.59375 795.839844 460.445312 795.25 460.328125 C 794.660156 460.210938 794.066406 460.125 793.46875 460.066406 C 792.875 460.007812 792.273438 459.976562 791.675781 459.976562 Z M 520.617188 566.082031 C 489.464844 534.929688 482.132812 486.183594 480.484375 460.34375 C 485.292969 460.429688 490.089844 460.722656 494.875 461.226562 C 499.65625 461.726562 504.410156 462.429688 509.132812 463.339844 C 513.859375 464.25 518.53125 465.363281 523.160156 466.675781 C 527.789062 467.992188 532.351562 469.5 536.847656 471.207031 C 541.34375 472.914062 545.757812 474.8125 550.09375 476.898438 C 554.425781 478.988281 558.660156 481.257812 562.800781 483.710938 C 566.9375 486.164062 570.960938 488.789062 574.875 491.589844 C 578.785156 494.386719 582.566406 497.351562 586.222656 500.476562 C 617.378906 531.632812 624.707031 580.378906 626.355469 606.21875 C 621.546875 606.128906 616.75 605.835938 611.96875 605.335938 C 607.183594 604.835938 602.429688 604.128906 597.707031 603.21875 C 592.984375 602.308594 588.308594 601.199219 583.679688 599.882812 C 579.054688 598.570312 574.492188 597.0625 569.996094 595.355469 C 565.496094 593.648438 561.082031 591.75 556.75 589.660156 C 552.414062 587.574219 548.179688 585.304688 544.042969 582.851562 C 539.902344 580.398438 535.878906 577.773438 531.96875 574.972656 C 528.058594 572.171875 524.273438 569.210938 520.617188 566.082031 Z M 520.617188 566.082031 " fill-opacity="1" fill-rule="nonzero"/><g clip-path="url(#286ccdb6f3)"><g clip-path="url(#1a423720c8)"><g transform="matrix(1, 0, 0, 1, 681, 563)"><g clip-path="url(#9c75f3235a)"><g clip-path="url(#cc613122c7)"><g clip-path="url(#ac85e83374)"><path fill="#000000" d="M 0.0195312 0.492188 L 23.519531 0.492188 L 23.519531 23.992188 L 0.0195312 23.992188 Z M 0.0195312 0.492188 " fill-opacity="1" fill-rule="nonzero"/></g></g></g></g></g></g></svg>