<svg xmlns="http://www.w3.org/2000/svg" xmlns:xlink="http://www.w3.org/1999/xlink" width="1080" zoomAndPan="magnify" viewBox="0 0 810 809.999993" height="1080" preserveAspectRatio="xMidYMid meet" version="1.0"><defs><clipPath id="c01137eb22"><path d="M 346 76.273438 L 477 76.273438 L 477 251 L 346 251 Z M 346 76.273438 " clip-rule="nonzero"/></clipPath><clipPath id="255a27ce96"><path d="M 437 781 L 467 781 L 467 809.773438 L 437 809.773438 Z M 437 781 " clip-rule="nonzero"/></clipPath><clipPath id="b0d8cca39c"><path d="M 617.070312 717.25 L 640.570312 717.25 L 640.570312 740.75 L 617.070312 740.75 Z M 617.070312 717.25 " clip-rule="nonzero"/></clipPath><clipPath id="6b86d7ceba"><path d="M 628.820312 717.25 C 622.332031 717.25 617.070312 722.511719 617.070312 729 C 617.070312 735.488281 622.332031 740.75 628.820312 740.75 C 635.308594 740.75 640.570312 735.488281 640.570312 729 C 640.570312 722.511719 635.308594 717.25 628.820312 717.25 Z M 628.820312 717.25 " clip-rule="nonzero"/></clipPath><clipPath id="99f444b75a"><path d="M 0.0703125 0.25 L 23.570312 0.25 L 23.570312 23.75 L 0.0703125 23.75 Z M 0.0703125 0.25 " clip-rule="nonzero"/></clipPath><clipPath id="d402590a41"><path d="M 11.820312 0.25 C 5.332031 0.25 0.0703125 5.511719 0.0703125 12 C 0.0703125 18.488281 5.332031 23.75 11.820312 23.75 C 18.308594 23.75 23.570312 18.488281 23.570312 12 C 23.570312 5.511719 18.308594 0.25 11.820312 0.25 Z M 11.820312 0.25 " clip-rule="nonzero"/></clipPath><clipPath id="b4d180f1c5"><rect x="0" width="24" y="0" height="24"/></clipPath></defs><g clip-path="url(#c01137eb22)"><path fill="#000000" d="M 381.996094 243.441406 C 384.167969 244.535156 386.378906 245.472656 388.613281 246.296875 C 389.582031 237.109375 391.59375 228 394.742188 219.140625 L 415.761719 159.867188 C 416.996094 156.402344 420.808594 154.601562 424.261719 155.824219 C 427.730469 157.058594 429.539062 160.851562 428.316406 164.320312 L 407.296875 223.59375 C 404.300781 232.046875 402.480469 240.753906 401.707031 249.535156 C 404.628906 249.945312 407.574219 250.21875 410.5625 250.21875 C 434.925781 250.21875 456.839844 236.710938 467.75 214.953125 C 471.511719 207.414062 472.894531 201.296875 473.382812 198.308594 C 478.679688 166.378906 475.976562 124.472656 465.578125 76.695312 C 421.085938 96.960938 385.890625 119.867188 363.472656 143.210938 C 361.351562 145.421875 357.226562 150.261719 353.488281 157.714844 C 337.714844 189.199219 350.507812 227.65625 381.996094 243.441406 Z M 381.996094 243.441406 " fill-opacity="1" fill-rule="nonzero"/></g><path fill="#000000" d="M 720.144531 638.121094 L 738.164062 634.972656 C 746.21875 633.570312 752.804688 628.507812 756.226562 621.082031 C 759.652344 613.667969 759.226562 605.375 755.066406 598.34375 L 739.683594 572.285156 C 735.289062 564.851562 727.191406 560.238281 718.550781 560.238281 C 716.773438 560.238281 714.992188 560.425781 713.253906 560.816406 C 702.773438 563.140625 695.09375 571.867188 694.132812 582.554688 L 691.480469 611.761719 C 690.851562 618.707031 693.085938 625.355469 697.769531 630.492188 C 702.429688 635.582031 709.011719 638.511719 715.835938 638.511719 C 717.253906 638.5 718.691406 638.378906 720.144531 638.121094 Z M 720.144531 638.121094 " fill-opacity="1" fill-rule="nonzero"/><path fill="#000000" d="M 458.640625 379.832031 C 468.84375 375.949219 480.019531 373.578125 492.105469 373.578125 C 492.707031 373.578125 493.320312 373.589844 493.929688 373.597656 C 497.605469 373.675781 500.523438 376.710938 500.453125 380.382812 C 500.382812 384.0625 496.972656 387.035156 493.664062 386.902344 C 481.757812 386.742188 470.792969 389.445312 460.796875 393.6875 C 461.175781 394.964844 461.378906 396.25 461.886719 397.507812 C 468.976562 415.253906 485.902344 426.734375 505.003906 426.734375 C 510.886719 426.734375 516.660156 425.613281 522.179688 423.414062 C 527.839844 421.164062 531.539062 418.511719 533.242188 417.136719 C 551.667969 402.246094 570.59375 378.148438 588.257812 347.132812 C 559.050781 338.246094 533.179688 333.75 511.257812 333.75 C 507.515625 333.75 503.816406 333.882812 500.167969 334.175781 C 497.984375 334.34375 493.488281 334.964844 487.800781 337.226562 C 469.84375 344.382812 458.859375 361.589844 458.640625 379.832031 Z M 458.640625 379.832031 " fill-opacity="1" fill-rule="nonzero"/><path fill="#000000" d="M 265.898438 342.261719 C 267.265625 343.371094 271.042969 346.175781 276.980469 348.550781 C 282.488281 350.742188 288.253906 351.859375 294.136719 351.859375 C 310.59375 351.859375 325.382812 343.316406 333.707031 329.632812 C 328.550781 328.152344 323.085938 326.945312 317.078125 326.289062 C 313.425781 325.890625 310.789062 322.609375 311.1875 318.964844 C 311.589844 315.300781 314.863281 312.550781 318.527344 313.074219 C 325.871094 313.882812 332.5625 315.363281 338.789062 317.234375 C 344.679688 294.902344 333.316406 271.125 311.332031 262.351562 C 305.707031 260.109375 301.164062 259.46875 298.964844 259.28125 C 295.324219 259 291.636719 258.867188 287.890625 258.867188 C 265.996094 258.867188 240.117188 263.371094 210.882812 272.265625 C 228.574219 303.300781 247.507812 327.398438 265.898438 342.261719 Z M 265.898438 342.261719 " fill-opacity="1" fill-rule="nonzero"/><path fill="#000000" d="M 648.65625 723.105469 C 646.226562 715.875 639.464844 710.847656 631.835938 710.597656 L 570.363281 708.578125 C 570.355469 708.578125 570.34375 708.578125 570.34375 708.578125 C 560.007812 708.578125 551.960938 716.167969 551.402344 725.871094 L 551.277344 727.980469 C 550.878906 734.980469 554.578125 741.695312 560.710938 745.089844 L 636.492188 787.183594 C 643.039062 790.820312 651.671875 789.949219 657.378906 785.074219 C 663.089844 780.175781 665.230469 772.40625 662.824219 765.285156 Z M 648.65625 723.105469 " fill-opacity="1" fill-rule="nonzero"/><path fill="#000000" d="M 244.402344 699.265625 C 240.675781 693.5 234.332031 690.058594 227.457031 690.058594 C 224.449219 690.058594 221.539062 690.714844 218.804688 692.019531 C 211.964844 695.265625 207.566406 701.976562 207.300781 709.5625 L 206.046875 746.589844 C 205.757812 755.273438 208.898438 763.476562 214.902344 769.683594 C 220.910156 775.894531 229.238281 779.457031 237.746094 779.46875 C 241.101562 779.46875 244.464844 778.917969 247.738281 777.835938 C 257.175781 774.742188 264.488281 767.609375 267.796875 758.242188 C 271.113281 748.871094 269.917969 738.722656 264.515625 730.378906 Z M 244.402344 699.265625 " fill-opacity="1" fill-rule="nonzero"/><path fill="#000000" d="M 154.484375 557.828125 C 149.003906 552.355469 141.726562 549.339844 133.972656 549.339844 C 126.238281 549.339844 118.960938 552.355469 113.480469 557.828125 L 65.6875 605.597656 C 51.972656 619.316406 51.972656 641.648438 65.6875 655.371094 C 72.339844 662.011719 81.167969 665.675781 90.554688 665.675781 C 101.992188 665.675781 112.761719 660.117188 119.351562 650.792969 L 158.292969 595.691406 C 166.460938 584.125 165.132812 568.46875 155.125 558.464844 Z M 154.484375 557.828125 " fill-opacity="1" fill-rule="nonzero"/><path fill="#000000" d="M 486.308594 596.878906 C 499.183594 623.546875 522.90625 643.476562 551.394531 651.558594 L 574.40625 658.074219 C 575.011719 658.253906 575.625 658.324219 576.226562 658.324219 C 579.128906 658.324219 581.789062 656.417969 582.625 653.480469 C 583.625 649.953125 581.566406 646.269531 578.035156 645.269531 L 555.023438 638.75 C 530.199219 631.707031 509.519531 614.332031 498.289062 591.085938 C 484.367188 562.246094 457.328125 541.144531 425.945312 534.632812 L 417.179688 532.816406 L 411.40625 498.875 C 411.21875 497.746094 410.960938 496.621094 410.730469 495.503906 C 410.6875 495.300781 410.652344 495.097656 410.605469 494.890625 C 410.457031 494.171875 410.332031 493.445312 410.171875 492.726562 L 408.273438 484.285156 C 427.160156 485.171875 437.523438 489.871094 448.339844 494.867188 C 461.113281 500.761719 474.332031 506.875 500.460938 506.875 C 526.578125 506.875 539.800781 500.773438 552.574219 494.867188 C 564.570312 489.320312 575.890625 484.089844 599.082031 484.089844 C 622.273438 484.089844 633.609375 489.320312 645.605469 494.867188 C 658.378906 500.761719 671.589844 506.875 697.710938 506.875 C 723.828125 506.875 737.039062 500.773438 749.8125 494.867188 C 761.816406 489.320312 773.144531 484.089844 796.335938 484.089844 C 800.011719 484.089844 802.992188 481.109375 802.992188 477.4375 C 802.992188 473.765625 800.011719 470.785156 796.335938 470.785156 C 770.21875 470.785156 757.007812 476.886719 744.234375 482.792969 C 732.230469 488.335938 720.898438 493.570312 697.710938 493.570312 C 674.519531 493.570312 663.179688 488.335938 651.183594 482.792969 C 638.410156 476.898438 625.199219 470.785156 599.082031 470.785156 C 572.972656 470.785156 559.761719 476.886719 546.992188 482.792969 C 535 488.335938 523.667969 493.570312 500.46875 493.570312 C 477.261719 493.570312 465.921875 488.335938 453.929688 482.792969 C 441.746094 477.164062 429.042969 471.425781 405.273438 470.890625 L 400.210938 448.410156 C 404.742188 441.171875 422.042969 415.691406 448.648438 399.832031 C 447.0625 395.246094 446.03125 390.601562 445.597656 385.960938 C 423.460938 397.96875 407.085938 416.105469 397.414062 428.984375 C 396.6875 416.640625 397.972656 404.222656 401.574219 392.347656 L 408.628906 369.136719 C 414.964844 348.285156 415.40625 326.121094 409.898438 305.03125 L 404.679688 285.054688 C 402.773438 277.773438 401.699219 270.378906 401.378906 262.972656 C 396.828125 262.421875 392.382812 261.367188 388.011719 260.019531 C 388.132812 269.535156 389.351562 279.0625 391.796875 288.417969 L 397.015625 308.390625 C 401.628906 326.039062 401.371094 344.507812 396.625 362.085938 C 388.90625 349.5 374.871094 332.472656 351.546875 321.945312 C 351.003906 323.832031 350.375 325.703125 349.628906 327.566406 C 348.699219 329.90625 347.554688 332.097656 346.367188 334.261719 C 376.085938 347.859375 388.347656 373.429688 391.265625 380.53125 L 388.828125 388.480469 C 382.910156 407.972656 382.15625 428.800781 386.617188 448.710938 L 391.675781 471.148438 C 372.058594 472.496094 360.675781 477.703125 349.675781 482.792969 C 337.664062 488.335938 326.332031 493.570312 303.117188 493.570312 C 279.925781 493.570312 268.585938 488.335938 256.589844 482.792969 C 243.816406 476.898438 230.605469 470.785156 204.488281 470.785156 C 178.34375 470.785156 165.113281 476.886719 152.328125 482.792969 C 140.316406 488.335938 128.980469 493.570312 105.753906 493.570312 C 82.542969 493.570312 71.195312 488.335938 59.191406 482.792969 C 46.410156 476.898438 33.179688 470.785156 7.035156 470.785156 C 3.363281 470.785156 0.382812 473.765625 0.382812 477.4375 C 0.382812 481.109375 3.363281 484.089844 7.035156 484.089844 C 30.261719 484.089844 41.601562 489.320312 53.613281 494.867188 C 66.398438 500.773438 79.617188 506.875 105.753906 506.875 C 131.898438 506.875 145.125 500.773438 157.910156 494.867188 C 169.921875 489.320312 181.261719 484.089844 204.488281 484.089844 C 227.679688 484.089844 239.015625 489.320312 251.011719 494.867188 C 263.785156 500.761719 276.996094 506.875 303.117188 506.875 C 329.253906 506.875 342.472656 500.773438 355.253906 494.867188 C 365.945312 489.925781 376.15625 485.269531 394.636719 484.300781 L 397.203125 495.65625 C 397.246094 495.839844 397.273438 496.035156 397.316406 496.214844 L 381.390625 527.601562 C 372.832031 544.433594 357.597656 557.394531 339.625 563.15625 C 311.660156 572.105469 290.039062 595.398438 283.199219 623.9375 L 276.925781 650.128906 C 276.074219 653.703125 278.273438 657.296875 281.851562 658.148438 C 282.375 658.269531 282.898438 658.332031 283.402344 658.332031 C 286.410156 658.332031 289.132812 656.285156 289.871094 653.234375 L 296.140625 627.042969 C 301.898438 603 320.121094 583.371094 343.675781 575.832031 C 365.023438 568.992188 383.09375 553.625 393.261719 533.640625 L 401.183594 518.03125 L 404.371094 536.761719 C 407.777344 556.851562 405.292969 577.359375 397.167969 596.070312 C 391.796875 608.410156 384.214844 619.449219 374.632812 628.886719 L 335.398438 667.546875 C 332.78125 670.128906 332.757812 674.339844 335.328125 676.957031 C 336.632812 678.28125 338.347656 678.945312 340.066406 678.945312 C 341.753906 678.945312 343.4375 678.304688 344.734375 677.027344 L 383.964844 638.367188 C 386.40625 635.964844 388.703125 633.429688 390.902344 630.847656 C 397.46875 643.496094 407.964844 669.089844 403.570312 696.558594 C 403.554688 696.683594 403.535156 696.789062 403.507812 696.90625 C 400.875 712.941406 393.171875 729.585938 376.582031 744.664062 C 373.859375 747.128906 373.664062 751.34375 376.132812 754.066406 C 377.445312 755.503906 379.253906 756.238281 381.054688 756.238281 C 382.652344 756.238281 384.257812 755.671875 385.527344 754.511719 C 402.703125 738.910156 411.519531 721.773438 415.292969 705.019531 C 427.410156 704.949219 458.941406 707.75 467.511719 737.84375 C 468.34375 740.773438 471.007812 742.679688 473.90625 742.679688 C 474.511719 742.679688 475.125 742.597656 475.734375 742.429688 C 479.265625 741.429688 481.316406 737.746094 480.3125 734.207031 C 470.839844 700.859375 438.542969 692 417.324219 691.671875 C 419.878906 658.765625 405.417969 629.464844 399.605469 619.203125 C 403.3125 613.5625 406.625 607.636719 409.347656 601.375 C 416.863281 584.082031 420.019531 565.410156 418.8125 546.757812 L 423.242188 547.679688 C 450.601562 553.339844 474.183594 571.734375 486.308594 596.878906 Z M 486.308594 596.878906 " fill-opacity="1" fill-rule="nonzero"/><path fill="#000000" d="M 62.890625 752.976562 C 62.890625 753.90625 62.800781 754.828125 62.621094 755.738281 C 62.4375 756.652344 62.171875 757.535156 61.8125 758.394531 C 61.457031 759.253906 61.023438 760.070312 60.503906 760.84375 C 59.988281 761.617188 59.402344 762.332031 58.742188 762.992188 C 58.085938 763.648438 57.371094 764.234375 56.597656 764.753906 C 55.820312 765.269531 55.003906 765.707031 54.144531 766.0625 C 53.285156 766.417969 52.402344 766.6875 51.488281 766.867188 C 50.574219 767.050781 49.65625 767.140625 48.722656 767.140625 C 47.792969 767.140625 46.871094 767.050781 45.960938 766.867188 C 45.046875 766.6875 44.160156 766.417969 43.300781 766.0625 C 42.441406 765.707031 41.625 765.269531 40.851562 764.753906 C 40.078125 764.234375 39.363281 763.648438 38.707031 762.992188 C 38.046875 762.332031 37.460938 761.617188 36.945312 760.84375 C 36.425781 760.070312 35.992188 759.253906 35.632812 758.394531 C 35.277344 757.535156 35.007812 756.652344 34.828125 755.738281 C 34.648438 754.828125 34.554688 753.90625 34.554688 752.976562 C 34.554688 752.046875 34.648438 751.125 34.828125 750.210938 C 35.007812 749.300781 35.277344 748.414062 35.632812 747.554688 C 35.992188 746.695312 36.425781 745.878906 36.945312 745.105469 C 37.460938 744.332031 38.046875 743.617188 38.707031 742.960938 C 39.363281 742.300781 40.078125 741.714844 40.851562 741.199219 C 41.625 740.683594 42.441406 740.246094 43.300781 739.890625 C 44.160156 739.535156 45.046875 739.265625 45.960938 739.082031 C 46.871094 738.902344 47.792969 738.8125 48.722656 738.8125 C 49.65625 738.8125 50.574219 738.902344 51.488281 739.082031 C 52.402344 739.265625 53.285156 739.535156 54.144531 739.890625 C 55.003906 740.246094 55.820312 740.683594 56.597656 741.199219 C 57.371094 741.714844 58.085938 742.300781 58.742188 742.960938 C 59.402344 743.617188 59.988281 744.332031 60.503906 745.105469 C 61.023438 745.878906 61.457031 746.695312 61.8125 747.554688 C 62.171875 748.414062 62.4375 749.300781 62.621094 750.210938 C 62.800781 751.125 62.890625 752.046875 62.890625 752.976562 Z M 62.890625 752.976562 " fill-opacity="1" fill-rule="nonzero"/><path fill="#000000" d="M 111.625 742.269531 C 111.625 743.199219 111.535156 744.121094 111.351562 745.035156 C 111.171875 745.945312 110.902344 746.832031 110.546875 747.691406 C 110.191406 748.550781 109.753906 749.367188 109.238281 750.140625 C 108.722656 750.914062 108.132812 751.628906 107.476562 752.285156 C 106.816406 752.945312 106.101562 753.53125 105.328125 754.046875 C 104.554688 754.5625 103.738281 755 102.878906 755.355469 C 102.019531 755.710938 101.132812 755.980469 100.222656 756.164062 C 99.308594 756.34375 98.386719 756.433594 97.457031 756.433594 C 96.527344 756.433594 95.605469 756.34375 94.691406 756.164062 C 93.78125 755.980469 92.894531 755.710938 92.035156 755.355469 C 91.175781 755 90.359375 754.5625 89.585938 754.046875 C 88.8125 753.53125 88.097656 752.945312 87.4375 752.285156 C 86.78125 751.628906 86.195312 750.914062 85.675781 750.140625 C 85.160156 749.367188 84.722656 748.550781 84.367188 747.691406 C 84.011719 746.832031 83.742188 745.945312 83.5625 745.035156 C 83.378906 744.121094 83.289062 743.199219 83.289062 742.269531 C 83.289062 741.339844 83.378906 740.417969 83.5625 739.507812 C 83.742188 738.59375 84.011719 737.710938 84.367188 736.851562 C 84.722656 735.992188 85.160156 735.175781 85.675781 734.402344 C 86.195312 733.628906 86.78125 732.914062 87.4375 732.253906 C 88.097656 731.597656 88.8125 731.011719 89.585938 730.492188 C 90.359375 729.976562 91.175781 729.539062 92.035156 729.183594 C 92.894531 728.828125 93.78125 728.558594 94.691406 728.378906 C 95.605469 728.195312 96.527344 728.105469 97.457031 728.105469 C 98.386719 728.105469 99.308594 728.195312 100.222656 728.378906 C 101.132812 728.558594 102.019531 728.828125 102.878906 729.183594 C 103.738281 729.539062 104.554688 729.976562 105.328125 730.492188 C 106.101562 731.011719 106.816406 731.597656 107.476562 732.253906 C 108.132812 732.914062 108.722656 733.628906 109.238281 734.402344 C 109.753906 735.175781 110.191406 735.992188 110.546875 736.851562 C 110.902344 737.710938 111.171875 738.59375 111.351562 739.507812 C 111.535156 740.417969 111.625 741.339844 111.625 742.269531 Z M 111.625 742.269531 " fill-opacity="1" fill-rule="nonzero"/><path fill="#000000" d="M 252.003906 594.09375 C 252.003906 595.023438 251.914062 595.945312 251.734375 596.855469 C 251.550781 597.769531 251.28125 598.65625 250.925781 599.515625 C 250.570312 600.375 250.132812 601.1875 249.617188 601.960938 C 249.101562 602.734375 248.511719 603.453125 247.855469 604.109375 C 247.199219 604.765625 246.480469 605.355469 245.707031 605.871094 C 244.933594 606.386719 244.117188 606.824219 243.257812 607.179688 C 242.398438 607.535156 241.511719 607.804688 240.601562 607.984375 C 239.6875 608.167969 238.765625 608.257812 237.835938 608.257812 C 236.90625 608.257812 235.984375 608.167969 235.074219 607.984375 C 234.160156 607.804688 233.273438 607.535156 232.414062 607.179688 C 231.554688 606.824219 230.738281 606.386719 229.964844 605.871094 C 229.191406 605.355469 228.476562 604.765625 227.816406 604.109375 C 227.160156 603.453125 226.574219 602.734375 226.054688 601.960938 C 225.539062 601.1875 225.101562 600.375 224.746094 599.515625 C 224.390625 598.65625 224.121094 597.769531 223.941406 596.855469 C 223.757812 595.945312 223.667969 595.023438 223.667969 594.09375 C 223.667969 593.164062 223.757812 592.242188 223.941406 591.332031 C 224.121094 590.417969 224.390625 589.53125 224.746094 588.671875 C 225.101562 587.8125 225.539062 586.996094 226.054688 586.222656 C 226.574219 585.449219 227.160156 584.734375 227.816406 584.078125 C 228.476562 583.421875 229.191406 582.832031 229.964844 582.316406 C 230.738281 581.800781 231.554688 581.363281 232.414062 581.007812 C 233.273438 580.652344 234.160156 580.382812 235.074219 580.203125 C 235.984375 580.019531 236.90625 579.929688 237.835938 579.929688 C 238.765625 579.929688 239.6875 580.019531 240.601562 580.203125 C 241.511719 580.382812 242.398438 580.652344 243.257812 581.007812 C 244.117188 581.363281 244.933594 581.800781 245.707031 582.316406 C 246.480469 582.832031 247.199219 583.421875 247.855469 584.078125 C 248.511719 584.734375 249.101562 585.449219 249.617188 586.222656 C 250.132812 586.996094 250.570312 587.8125 250.925781 588.671875 C 251.28125 589.53125 251.550781 590.417969 251.734375 591.332031 C 251.914062 592.242188 252.003906 593.164062 252.003906 594.09375 Z M 252.003906 594.09375 " fill-opacity="1" fill-rule="nonzero"/><path fill="#000000" d="M 354.226562 736.019531 C 354.226562 736.949219 354.136719 737.871094 353.953125 738.78125 C 353.773438 739.695312 353.503906 740.582031 353.148438 741.441406 C 352.789062 742.300781 352.355469 743.117188 351.835938 743.890625 C 351.320312 744.664062 350.730469 745.382812 350.074219 746.039062 C 349.414062 746.699219 348.699219 747.285156 347.925781 747.800781 C 347.152344 748.320312 346.335938 748.753906 345.472656 749.113281 C 344.613281 749.46875 343.726562 749.738281 342.816406 749.917969 C 341.902344 750.101562 340.980469 750.191406 340.050781 750.191406 C 339.117188 750.191406 338.195312 750.101562 337.285156 749.917969 C 336.371094 749.738281 335.484375 749.46875 334.625 749.113281 C 333.765625 748.753906 332.945312 748.320312 332.171875 747.800781 C 331.398438 747.285156 330.683594 746.699219 330.023438 746.039062 C 329.367188 745.382812 328.777344 744.664062 328.261719 743.890625 C 327.742188 743.117188 327.308594 742.300781 326.949219 741.441406 C 326.59375 740.582031 326.324219 739.695312 326.144531 738.78125 C 325.960938 737.871094 325.871094 736.949219 325.871094 736.019531 C 325.871094 735.085938 325.960938 734.164062 326.144531 733.253906 C 326.324219 732.339844 326.59375 731.453125 326.949219 730.59375 C 327.308594 729.734375 327.742188 728.917969 328.261719 728.144531 C 328.777344 727.371094 329.367188 726.652344 330.023438 725.996094 C 330.683594 725.339844 331.398438 724.75 332.171875 724.234375 C 332.945312 723.714844 333.765625 723.28125 334.625 722.921875 C 335.484375 722.566406 336.371094 722.296875 337.285156 722.117188 C 338.195312 721.9375 339.117188 721.84375 340.050781 721.84375 C 340.980469 721.84375 341.902344 721.9375 342.816406 722.117188 C 343.726562 722.296875 344.613281 722.566406 345.472656 722.921875 C 346.335938 723.28125 347.152344 723.714844 347.925781 724.234375 C 348.699219 724.75 349.414062 725.339844 350.074219 725.996094 C 350.730469 726.652344 351.320312 727.371094 351.835938 728.144531 C 352.355469 728.917969 352.789062 729.734375 353.148438 730.59375 C 353.503906 731.453125 353.773438 732.339844 353.953125 733.253906 C 354.136719 734.164062 354.226562 735.085938 354.226562 736.019531 Z M 354.226562 736.019531 " fill-opacity="1" fill-rule="nonzero"/><g clip-path="url(#255a27ce96)"><path fill="#000000" d="M 466.082031 796.152344 C 466.082031 797.082031 465.992188 798 465.808594 798.914062 C 465.628906 799.824219 465.359375 800.710938 465.003906 801.570312 C 464.648438 802.429688 464.210938 803.246094 463.695312 804.019531 C 463.179688 804.792969 462.589844 805.507812 461.933594 806.167969 C 461.273438 806.824219 460.558594 807.410156 459.785156 807.925781 C 459.011719 808.445312 458.195312 808.878906 457.335938 809.238281 C 456.476562 809.59375 455.589844 809.859375 454.679688 810.042969 C 453.765625 810.222656 452.84375 810.316406 451.914062 810.316406 C 450.984375 810.316406 450.0625 810.222656 449.148438 810.042969 C 448.238281 809.859375 447.351562 809.59375 446.492188 809.238281 C 445.632812 808.878906 444.816406 808.445312 444.042969 807.925781 C 443.269531 807.410156 442.554688 806.824219 441.894531 806.167969 C 441.238281 805.507812 440.652344 804.792969 440.132812 804.019531 C 439.617188 803.246094 439.179688 802.429688 438.824219 801.570312 C 438.46875 800.710938 438.199219 799.824219 438.019531 798.914062 C 437.835938 798 437.746094 797.082031 437.746094 796.152344 C 437.746094 795.21875 437.835938 794.300781 438.019531 793.386719 C 438.199219 792.476562 438.46875 791.589844 438.824219 790.730469 C 439.179688 789.871094 439.617188 789.054688 440.132812 788.28125 C 440.652344 787.507812 441.238281 786.792969 441.894531 786.136719 C 442.554688 785.476562 443.269531 784.890625 444.042969 784.375 C 444.816406 783.855469 445.632812 783.421875 446.492188 783.066406 C 447.351562 782.707031 448.238281 782.441406 449.148438 782.257812 C 450.0625 782.078125 450.984375 781.988281 451.914062 781.988281 C 452.84375 781.988281 453.765625 782.078125 454.679688 782.257812 C 455.589844 782.441406 456.476562 782.707031 457.335938 783.066406 C 458.195312 783.421875 459.011719 783.855469 459.785156 784.375 C 460.558594 784.890625 461.273438 785.476562 461.933594 786.136719 C 462.589844 786.792969 463.179688 787.507812 463.695312 788.28125 C 464.210938 789.054688 464.648438 789.871094 465.003906 790.730469 C 465.359375 791.589844 465.628906 792.476562 465.808594 793.386719 C 465.992188 794.300781 466.082031 795.21875 466.082031 796.152344 Z M 466.082031 796.152344 " fill-opacity="1" fill-rule="nonzero"/></g><path fill="#000000" d="M 515.472656 684.285156 C 515.472656 685.214844 515.382812 686.136719 515.199219 687.046875 C 515.019531 687.960938 514.75 688.84375 514.394531 689.703125 C 514.039062 690.5625 513.601562 691.378906 513.085938 692.152344 C 512.566406 692.925781 511.980469 693.640625 511.324219 694.300781 C 510.664062 694.957031 509.949219 695.542969 509.175781 696.0625 C 508.402344 696.578125 507.585938 697.015625 506.726562 697.371094 C 505.867188 697.726562 504.980469 697.996094 504.066406 698.175781 C 503.15625 698.355469 502.234375 698.449219 501.304688 698.449219 C 500.375 698.449219 499.453125 698.355469 498.539062 698.175781 C 497.628906 697.996094 496.742188 697.726562 495.882812 697.371094 C 495.023438 697.015625 494.207031 696.578125 493.433594 696.0625 C 492.660156 695.542969 491.941406 694.957031 491.285156 694.300781 C 490.628906 693.640625 490.039062 692.925781 489.523438 692.152344 C 489.007812 691.378906 488.570312 690.5625 488.214844 689.703125 C 487.859375 688.84375 487.589844 687.960938 487.40625 687.046875 C 487.226562 686.136719 487.136719 685.214844 487.136719 684.285156 C 487.136719 683.355469 487.226562 682.433594 487.40625 681.519531 C 487.589844 680.609375 487.859375 679.722656 488.214844 678.863281 C 488.570312 678.003906 489.007812 677.1875 489.523438 676.414062 C 490.039062 675.640625 490.628906 674.925781 491.285156 674.269531 C 491.941406 673.609375 492.660156 673.023438 493.433594 672.507812 C 494.207031 671.992188 495.023438 671.554688 495.882812 671.199219 C 496.742188 670.84375 497.628906 670.574219 498.539062 670.390625 C 499.453125 670.210938 500.375 670.121094 501.304688 670.121094 C 502.234375 670.121094 503.15625 670.210938 504.066406 670.390625 C 504.980469 670.574219 505.867188 670.84375 506.726562 671.199219 C 507.585938 671.554688 508.402344 671.992188 509.175781 672.507812 C 509.949219 673.023438 510.664062 673.609375 511.324219 674.269531 C 511.980469 674.925781 512.566406 675.640625 513.085938 676.414062 C 513.601562 677.1875 514.039062 678.003906 514.394531 678.863281 C 514.75 679.722656 515.019531 680.609375 515.199219 681.519531 C 515.382812 682.433594 515.472656 683.355469 515.472656 684.285156 Z M 515.472656 684.285156 " fill-opacity="1" fill-rule="nonzero"/><path fill="#000000" d="M 810.496094 546.050781 C 810.496094 546.980469 810.40625 547.902344 810.222656 548.8125 C 810.042969 549.726562 809.773438 550.609375 809.417969 551.46875 C 809.0625 552.328125 808.625 553.144531 808.109375 553.917969 C 807.59375 554.691406 807.003906 555.40625 806.347656 556.066406 C 805.6875 556.722656 804.972656 557.308594 804.199219 557.828125 C 803.425781 558.34375 802.609375 558.78125 801.75 559.136719 C 800.890625 559.492188 800.003906 559.757812 799.09375 559.941406 C 798.179688 560.121094 797.257812 560.214844 796.328125 560.214844 C 795.398438 560.214844 794.476562 560.121094 793.5625 559.941406 C 792.652344 559.761719 791.765625 559.492188 790.90625 559.136719 C 790.046875 558.78125 789.230469 558.34375 788.457031 557.828125 C 787.683594 557.308594 786.96875 556.722656 786.308594 556.066406 C 785.652344 555.40625 785.066406 554.691406 784.546875 553.917969 C 784.03125 553.144531 783.59375 552.328125 783.238281 551.46875 C 782.882812 550.609375 782.613281 549.726562 782.433594 548.8125 C 782.25 547.902344 782.160156 546.980469 782.160156 546.050781 C 782.160156 545.121094 782.25 544.199219 782.433594 543.285156 C 782.613281 542.375 782.882812 541.488281 783.238281 540.628906 C 783.59375 539.769531 784.03125 538.953125 784.546875 538.179688 C 785.066406 537.40625 785.652344 536.691406 786.308594 536.035156 C 786.96875 535.375 787.683594 534.789062 788.457031 534.273438 C 789.230469 533.753906 790.046875 533.320312 790.90625 532.964844 C 791.765625 532.609375 792.652344 532.339844 793.5625 532.15625 C 794.476562 531.976562 795.398438 531.886719 796.328125 531.886719 C 797.257812 531.886719 798.179688 531.976562 799.09375 532.15625 C 800.003906 532.339844 800.890625 532.609375 801.75 532.964844 C 802.609375 533.320312 803.425781 533.753906 804.199219 534.273438 C 804.972656 534.789062 805.6875 535.375 806.347656 536.035156 C 807.003906 536.691406 807.59375 537.40625 808.109375 538.179688 C 808.625 538.953125 809.0625 539.769531 809.417969 540.628906 C 809.773438 541.488281 810.042969 542.375 810.222656 543.285156 C 810.40625 544.199219 810.496094 545.121094 810.496094 546.050781 Z M 810.496094 546.050781 " fill-opacity="1" fill-rule="nonzero"/><path fill="#000000" d="M 28.710938 542.6875 C 28.710938 543.617188 28.617188 544.539062 28.4375 545.449219 C 28.253906 546.363281 27.988281 547.25 27.628906 548.109375 C 27.273438 548.96875 26.839844 549.785156 26.320312 550.558594 C 25.804688 551.332031 25.21875 552.046875 24.558594 552.703125 C 23.902344 553.359375 23.1875 553.949219 22.414062 554.464844 C 21.640625 554.980469 20.824219 555.417969 19.964844 555.773438 C 19.101562 556.128906 18.21875 556.398438 17.304688 556.578125 C 16.394531 556.761719 15.472656 556.851562 14.539062 556.851562 C 13.609375 556.851562 12.6875 556.761719 11.777344 556.578125 C 10.863281 556.398438 9.976562 556.128906 9.117188 555.773438 C 8.257812 555.417969 7.441406 554.980469 6.667969 554.464844 C 5.894531 553.949219 5.179688 553.359375 4.523438 552.703125 C 3.863281 552.046875 3.277344 551.332031 2.761719 550.558594 C 2.242188 549.785156 1.808594 548.96875 1.449219 548.109375 C 1.09375 547.25 0.828125 546.363281 0.644531 545.449219 C 0.464844 544.539062 0.371094 543.617188 0.371094 542.6875 C 0.371094 541.757812 0.464844 540.835938 0.644531 539.925781 C 0.828125 539.011719 1.09375 538.125 1.449219 537.265625 C 1.808594 536.410156 2.242188 535.59375 2.761719 534.820312 C 3.277344 534.046875 3.863281 533.328125 4.523438 532.671875 C 5.179688 532.015625 5.894531 531.425781 6.667969 530.910156 C 7.441406 530.394531 8.257812 529.957031 9.117188 529.601562 C 9.976562 529.246094 10.863281 528.976562 11.777344 528.796875 C 12.6875 528.613281 13.609375 528.523438 14.539062 528.523438 C 15.472656 528.523438 16.394531 528.613281 17.304688 528.796875 C 18.21875 528.976562 19.101562 529.246094 19.964844 529.601562 C 20.824219 529.957031 21.640625 530.394531 22.414062 530.910156 C 23.1875 531.425781 23.902344 532.015625 24.558594 532.671875 C 25.21875 533.328125 25.804688 534.046875 26.320312 534.820312 C 26.839844 535.59375 27.273438 536.410156 27.628906 537.265625 C 27.988281 538.125 28.253906 539.011719 28.4375 539.925781 C 28.617188 540.835938 28.710938 541.757812 28.710938 542.6875 Z M 28.710938 542.6875 " fill-opacity="1" fill-rule="nonzero"/><path fill="#000000" d="M 629.21875 546.050781 C 629.21875 546.980469 629.128906 547.902344 628.945312 548.816406 C 628.765625 549.730469 628.496094 550.617188 628.136719 551.476562 C 627.78125 552.335938 627.34375 553.152344 626.828125 553.929688 C 626.308594 554.703125 625.722656 555.417969 625.0625 556.078125 C 624.40625 556.734375 623.6875 557.324219 622.914062 557.839844 C 622.140625 558.359375 621.320312 558.796875 620.460938 559.152344 C 619.601562 559.507812 618.714844 559.777344 617.800781 559.957031 C 616.886719 560.140625 615.964844 560.230469 615.03125 560.230469 C 614.101562 560.230469 613.179688 560.140625 612.265625 559.957031 C 611.351562 559.777344 610.464844 559.507812 609.601562 559.152344 C 608.742188 558.796875 607.925781 558.359375 607.152344 557.839844 C 606.375 557.324219 605.660156 556.734375 605 556.078125 C 604.34375 555.417969 603.753906 554.703125 603.238281 553.929688 C 602.71875 553.152344 602.28125 552.335938 601.925781 551.476562 C 601.570312 550.617188 601.300781 549.730469 601.117188 548.816406 C 600.9375 547.902344 600.847656 546.980469 600.847656 546.050781 C 600.847656 545.117188 600.9375 544.195312 601.117188 543.28125 C 601.300781 542.371094 601.570312 541.484375 601.925781 540.621094 C 602.28125 539.761719 602.71875 538.945312 603.238281 538.171875 C 603.753906 537.394531 604.34375 536.679688 605 536.019531 C 605.660156 535.363281 606.375 534.773438 607.152344 534.257812 C 607.925781 533.742188 608.742188 533.304688 609.601562 532.945312 C 610.464844 532.589844 611.351562 532.320312 612.265625 532.140625 C 613.179688 531.957031 614.101562 531.867188 615.03125 531.867188 C 615.964844 531.867188 616.886719 531.957031 617.800781 532.140625 C 618.714844 532.320312 619.601562 532.589844 620.460938 532.945312 C 621.320312 533.304688 622.140625 533.742188 622.914062 534.257812 C 623.6875 534.773438 624.40625 535.363281 625.0625 536.019531 C 625.722656 536.679688 626.308594 537.394531 626.828125 538.171875 C 627.34375 538.945312 627.78125 539.761719 628.136719 540.621094 C 628.496094 541.484375 628.765625 542.371094 628.945312 543.28125 C 629.128906 544.195312 629.21875 545.117188 629.21875 546.050781 Z M 629.21875 546.050781 " fill-opacity="1" fill-rule="nonzero"/><path fill="#000000" d="M 580.433594 565.703125 C 580.433594 566.632812 580.339844 567.554688 580.160156 568.46875 C 579.976562 569.382812 579.707031 570.265625 579.351562 571.128906 C 578.996094 571.988281 578.558594 572.804688 578.042969 573.578125 C 577.527344 574.351562 576.9375 575.066406 576.28125 575.726562 C 575.621094 576.382812 574.90625 576.96875 574.132812 577.488281 C 573.355469 578.003906 572.539062 578.441406 571.679688 578.796875 C 570.820312 579.152344 569.933594 579.421875 569.019531 579.605469 C 568.109375 579.785156 567.1875 579.875 566.253906 579.875 C 565.324219 579.875 564.402344 579.785156 563.488281 579.605469 C 562.574219 579.421875 561.6875 579.152344 560.828125 578.796875 C 559.96875 578.441406 559.152344 578.003906 558.378906 577.488281 C 557.605469 576.96875 556.886719 576.382812 556.230469 575.726562 C 555.570312 575.066406 554.984375 574.351562 554.464844 573.578125 C 553.949219 572.804688 553.511719 571.988281 553.15625 571.128906 C 552.800781 570.265625 552.53125 569.382812 552.351562 568.46875 C 552.167969 567.554688 552.078125 566.632812 552.078125 565.703125 C 552.078125 564.773438 552.167969 563.851562 552.351562 562.9375 C 552.53125 562.027344 552.800781 561.140625 553.15625 560.28125 C 553.511719 559.417969 553.949219 558.601562 554.464844 557.828125 C 554.984375 557.054688 555.570312 556.339844 556.230469 555.679688 C 556.886719 555.023438 557.605469 554.4375 558.378906 553.917969 C 559.152344 553.402344 559.96875 552.964844 560.828125 552.609375 C 561.6875 552.253906 562.574219 551.984375 563.488281 551.804688 C 564.402344 551.621094 565.324219 551.53125 566.253906 551.53125 C 567.1875 551.53125 568.109375 551.621094 569.019531 551.804688 C 569.933594 551.984375 570.820312 552.253906 571.679688 552.609375 C 572.539062 552.964844 573.355469 553.402344 574.132812 553.917969 C 574.90625 554.4375 575.621094 555.023438 576.28125 555.679688 C 576.9375 556.339844 577.527344 557.054688 578.042969 557.828125 C 578.558594 558.601562 578.996094 559.417969 579.351562 560.28125 C 579.707031 561.140625 579.976562 562.027344 580.160156 562.9375 C 580.339844 563.851562 580.433594 564.773438 580.433594 565.703125 Z M 580.433594 565.703125 " fill-opacity="1" fill-rule="nonzero"/><path fill="#000000" d="M 617.605469 594.09375 C 617.605469 595.023438 617.515625 595.945312 617.332031 596.859375 C 617.152344 597.769531 616.882812 598.65625 616.527344 599.515625 C 616.167969 600.378906 615.734375 601.195312 615.214844 601.96875 C 614.699219 602.742188 614.109375 603.457031 613.453125 604.117188 C 612.792969 604.773438 612.078125 605.359375 611.304688 605.878906 C 610.53125 606.394531 609.714844 606.832031 608.851562 607.1875 C 607.992188 607.542969 607.105469 607.8125 606.195312 607.992188 C 605.28125 608.175781 604.359375 608.265625 603.429688 608.265625 C 602.496094 608.265625 601.574219 608.175781 600.660156 607.992188 C 599.75 607.8125 598.863281 607.542969 598.003906 607.1875 C 597.140625 606.832031 596.324219 606.394531 595.550781 605.878906 C 594.777344 605.359375 594.0625 604.773438 593.402344 604.117188 C 592.746094 603.457031 592.15625 602.742188 591.640625 601.96875 C 591.121094 601.195312 590.6875 600.378906 590.328125 599.515625 C 589.972656 598.65625 589.703125 597.769531 589.523438 596.859375 C 589.339844 595.945312 589.25 595.023438 589.25 594.09375 C 589.25 593.164062 589.339844 592.242188 589.523438 591.328125 C 589.703125 590.414062 589.972656 589.53125 590.328125 588.667969 C 590.6875 587.808594 591.121094 586.992188 591.640625 586.21875 C 592.15625 585.445312 592.746094 584.730469 593.402344 584.070312 C 594.0625 583.414062 594.777344 582.824219 595.550781 582.308594 C 596.324219 581.792969 597.140625 581.355469 598.003906 581 C 598.863281 580.644531 599.75 580.375 600.660156 580.191406 C 601.574219 580.011719 602.496094 579.921875 603.429688 579.921875 C 604.359375 579.921875 605.28125 580.011719 606.195312 580.191406 C 607.105469 580.375 607.992188 580.644531 608.851562 581 C 609.714844 581.355469 610.53125 581.792969 611.304688 582.308594 C 612.078125 582.824219 612.792969 583.414062 613.453125 584.070312 C 614.109375 584.730469 614.699219 585.445312 615.214844 586.21875 C 615.734375 586.992188 616.167969 587.808594 616.527344 588.667969 C 616.882812 589.53125 617.152344 590.414062 617.332031 591.328125 C 617.515625 592.242188 617.605469 593.164062 617.605469 594.09375 Z M 617.605469 594.09375 " fill-opacity="1" fill-rule="nonzero"/><path fill="#000000" d="M 773.535156 717.394531 C 773.535156 718.324219 773.445312 719.246094 773.265625 720.15625 C 773.082031 721.070312 772.8125 721.957031 772.457031 722.816406 C 772.101562 723.675781 771.664062 724.492188 771.148438 725.265625 C 770.628906 726.039062 770.042969 726.757812 769.382812 727.414062 C 768.726562 728.074219 768.007812 728.660156 767.234375 729.175781 C 766.460938 729.695312 765.644531 730.128906 764.785156 730.488281 C 763.925781 730.84375 763.039062 731.113281 762.125 731.292969 C 761.210938 731.476562 760.289062 731.566406 759.359375 731.566406 C 758.429688 731.566406 757.507812 731.476562 756.59375 731.292969 C 755.679688 731.113281 754.792969 730.84375 753.933594 730.488281 C 753.074219 730.128906 752.257812 729.695312 751.484375 729.175781 C 750.707031 728.660156 749.992188 728.074219 749.335938 727.414062 C 748.675781 726.757812 748.089844 726.039062 747.570312 725.265625 C 747.054688 724.492188 746.617188 723.675781 746.261719 722.816406 C 745.90625 721.957031 745.636719 721.070312 745.453125 720.15625 C 745.273438 719.246094 745.183594 718.324219 745.183594 717.394531 C 745.183594 716.460938 745.273438 715.539062 745.453125 714.628906 C 745.636719 713.714844 745.90625 712.828125 746.261719 711.96875 C 746.617188 711.109375 747.054688 710.292969 747.570312 709.519531 C 748.089844 708.746094 748.675781 708.027344 749.335938 707.371094 C 749.992188 706.710938 750.707031 706.125 751.484375 705.609375 C 752.257812 705.089844 753.074219 704.65625 753.933594 704.296875 C 754.792969 703.941406 755.679688 703.671875 756.59375 703.492188 C 757.507812 703.3125 758.429688 703.21875 759.359375 703.21875 C 760.289062 703.21875 761.210938 703.3125 762.125 703.492188 C 763.039062 703.671875 763.925781 703.941406 764.785156 704.296875 C 765.644531 704.65625 766.460938 705.089844 767.234375 705.609375 C 768.007812 706.125 768.726562 706.710938 769.382812 707.371094 C 770.042969 708.027344 770.628906 708.746094 771.148438 709.519531 C 771.664062 710.292969 772.101562 711.109375 772.457031 711.96875 C 772.8125 712.828125 773.082031 713.714844 773.265625 714.628906 C 773.445312 715.539062 773.535156 716.460938 773.535156 717.394531 Z M 773.535156 717.394531 " fill-opacity="1" fill-rule="nonzero"/><path fill="#000000" d="M 740.738281 761.613281 C 740.738281 762.542969 740.648438 763.464844 740.464844 764.378906 C 740.285156 765.292969 740.015625 766.179688 739.65625 767.039062 C 739.300781 767.898438 738.863281 768.714844 738.347656 769.488281 C 737.832031 770.261719 737.242188 770.976562 736.585938 771.636719 C 735.925781 772.292969 735.210938 772.882812 734.4375 773.398438 C 733.664062 773.914062 732.84375 774.351562 731.984375 774.707031 C 731.125 775.0625 730.238281 775.332031 729.324219 775.515625 C 728.414062 775.695312 727.492188 775.789062 726.558594 775.789062 C 725.628906 775.789062 724.707031 775.695312 723.792969 775.515625 C 722.882812 775.332031 721.996094 775.0625 721.132812 774.707031 C 720.273438 774.351562 719.457031 773.914062 718.683594 773.398438 C 717.910156 772.882812 717.195312 772.292969 716.535156 771.636719 C 715.878906 770.976562 715.289062 770.261719 714.773438 769.488281 C 714.253906 768.714844 713.816406 767.898438 713.460938 767.039062 C 713.105469 766.179688 712.835938 765.292969 712.65625 764.378906 C 712.472656 763.464844 712.382812 762.542969 712.382812 761.613281 C 712.382812 760.683594 712.472656 759.761719 712.65625 758.847656 C 712.835938 757.9375 713.105469 757.050781 713.460938 756.191406 C 713.816406 755.332031 714.253906 754.515625 714.773438 753.738281 C 715.289062 752.964844 715.878906 752.25 716.535156 751.59375 C 717.195312 750.933594 717.910156 750.347656 718.683594 749.828125 C 719.457031 749.3125 720.273438 748.875 721.132812 748.519531 C 721.996094 748.164062 722.882812 747.894531 723.792969 747.714844 C 724.707031 747.53125 725.628906 747.441406 726.558594 747.441406 C 727.492188 747.441406 728.414062 747.53125 729.324219 747.714844 C 730.238281 747.894531 731.125 748.164062 731.984375 748.519531 C 732.84375 748.875 733.664062 749.3125 734.4375 749.828125 C 735.210938 750.347656 735.925781 750.933594 736.585938 751.59375 C 737.242188 752.25 737.832031 752.964844 738.347656 753.738281 C 738.863281 754.515625 739.300781 755.332031 739.65625 756.191406 C 740.015625 757.050781 740.285156 757.9375 740.464844 758.847656 C 740.648438 759.761719 740.738281 760.683594 740.738281 761.613281 Z M 740.738281 761.613281 " fill-opacity="1" fill-rule="nonzero"/><path fill="#000000" d="M 100.660156 786.109375 C 100.660156 787.042969 100.570312 787.964844 100.386719 788.875 C 100.207031 789.789062 99.9375 790.675781 99.582031 791.535156 C 99.222656 792.394531 98.789062 793.210938 98.269531 793.984375 C 97.753906 794.757812 97.164062 795.472656 96.507812 796.132812 C 95.847656 796.789062 95.132812 797.378906 94.359375 797.894531 C 93.585938 798.410156 92.769531 798.847656 91.90625 799.203125 C 91.046875 799.5625 90.160156 799.828125 89.25 800.011719 C 88.335938 800.191406 87.414062 800.285156 86.484375 800.285156 C 85.550781 800.285156 84.628906 800.191406 83.71875 800.011719 C 82.804688 799.828125 81.917969 799.5625 81.058594 799.203125 C 80.199219 798.847656 79.378906 798.414062 78.605469 797.894531 C 77.832031 797.378906 77.117188 796.789062 76.457031 796.132812 C 75.800781 795.472656 75.210938 794.757812 74.695312 793.984375 C 74.175781 793.210938 73.742188 792.394531 73.382812 791.535156 C 73.027344 790.675781 72.757812 789.789062 72.578125 788.875 C 72.394531 787.964844 72.304688 787.042969 72.304688 786.109375 C 72.304688 785.179688 72.394531 784.257812 72.578125 783.347656 C 72.757812 782.433594 73.027344 781.546875 73.382812 780.6875 C 73.742188 779.828125 74.175781 779.011719 74.695312 778.238281 C 75.210938 777.464844 75.800781 776.746094 76.457031 776.089844 C 77.117188 775.429688 77.832031 774.84375 78.605469 774.328125 C 79.378906 773.808594 80.199219 773.371094 81.058594 773.015625 C 81.917969 772.660156 82.804688 772.390625 83.71875 772.210938 C 84.628906 772.027344 85.550781 771.9375 86.484375 771.9375 C 87.414062 771.9375 88.335938 772.027344 89.25 772.210938 C 90.160156 772.390625 91.046875 772.660156 91.90625 773.015625 C 92.769531 773.371094 93.585938 773.808594 94.359375 774.328125 C 95.132812 774.84375 95.847656 775.429688 96.507812 776.089844 C 97.164062 776.746094 97.753906 777.464844 98.269531 778.238281 C 98.789062 779.011719 99.222656 779.828125 99.582031 780.6875 C 99.9375 781.546875 100.207031 782.433594 100.386719 783.347656 C 100.570312 784.257812 100.660156 785.179688 100.660156 786.109375 Z M 100.660156 786.109375 " fill-opacity="1" fill-rule="nonzero"/><g clip-path="url(#b0d8cca39c)"><g clip-path="url(#6b86d7ceba)"><g transform="matrix(1, 0, 0, 1, 617, 717)"><g clip-path="url(#b4d180f1c5)"><g clip-path="url(#99f444b75a)"><g clip-path="url(#d402590a41)"><path fill="#000000" d="M 0.0703125 0.25 L 23.570312 0.25 L 23.570312 23.75 L 0.0703125 23.75 Z M 0.0703125 0.25 " fill-opacity="1" fill-rule="nonzero"/></g></g></g></g></g></g></svg>