<svg xmlns="http://www.w3.org/2000/svg" xmlns:xlink="http://www.w3.org/1999/xlink" width="1080" zoomAndPan="magnify" viewBox="0 0 810 809.999993" height="1080" preserveAspectRatio="xMidYMid meet" version="1.0"><defs><clipPath id="1cfccd5a3a"><path d="M 28.855469 0 L 781.105469 0 L 781.105469 810 L 28.855469 810 Z M 28.855469 0 " clip-rule="nonzero"/></clipPath><clipPath id="658b13bfd7"><path d="M 544.480469 532.382812 L 567.980469 532.382812 L 567.980469 555.882812 L 544.480469 555.882812 Z M 544.480469 532.382812 " clip-rule="nonzero"/></clipPath><clipPath id="1a6a59edb7"><path d="M 556.230469 532.382812 C 549.742188 532.382812 544.480469 537.640625 544.480469 544.132812 C 544.480469 550.621094 549.742188 555.882812 556.230469 555.882812 C 562.71875 555.882812 567.980469 550.621094 567.980469 544.132812 C 567.980469 537.640625 562.71875 532.382812 556.230469 532.382812 Z M 556.230469 532.382812 " clip-rule="nonzero"/></clipPath><clipPath id="025c1f49d0"><path d="M 0.480469 0.382812 L 23.980469 0.382812 L 23.980469 23.882812 L 0.480469 23.882812 Z M 0.480469 0.382812 " clip-rule="nonzero"/></clipPath><clipPath id="2c7c1e6da9"><path d="M 12.230469 0.382812 C 5.742188 0.382812 0.480469 5.640625 0.480469 12.132812 C 0.480469 18.621094 5.742188 23.882812 12.230469 23.882812 C 18.71875 23.882812 23.980469 18.621094 23.980469 12.132812 C 23.980469 5.640625 18.71875 0.382812 12.230469 0.382812 Z M 12.230469 0.382812 " clip-rule="nonzero"/></clipPath><clipPath id="fe01d4552c"><rect x="0" width="24" y="0" height="24"/></clipPath></defs><g clip-path="url(#1cfccd5a3a)"><path fill="#070707" d="M 443.714844 95.769531 C 445.128906 96.203125 446.679688 95.570312 447.324219 94.210938 C 448.089844 92.59375 450.640625 86.753906 454.976562 76.613281 C 477.742188 23.382812 519.128906 6.3125 572.546875 0.128906 C 575.472656 -0.207031 578.007812 2.078125 578.007812 5.050781 L 578.007812 25.429688 C 578.007812 28.742188 575.375 31.46875 572.109375 31.570312 C 522.339844 33.117188 489.945312 58.464844 475.640625 107.617188 C 475.242188 108.980469 475.683594 110.5 476.859375 111.417969 C 524.324219 148.460938 539.582031 195.796875 523.605469 254.878906 C 523.304688 256 523.804688 257.207031 524.875 257.753906 C 561.332031 276.449219 592.285156 293.105469 618.269531 306.550781 C 694.152344 345.816406 756.640625 382.453125 777.519531 470.097656 C 789.0625 518.554688 771.777344 546.449219 736.523438 579.003906 C 683.355469 628.105469 623.207031 608.59375 569.914062 573.6875 C 568.792969 572.957031 567.273438 573.636719 567.039062 574.957031 C 564.691406 587.960938 562.796875 598.109375 561.09375 605.375 C 544.015625 678.152344 499.976562 739.71875 423.191406 753.617188 C 421.535156 753.914062 420.316406 755.371094 420.316406 757.078125 L 420.316406 805.871094 C 420.316406 808.066406 418.5625 809.816406 416.367188 809.871094 C 413.757812 809.933594 396.675781 809.90625 393.996094 809.871094 C 391.800781 809.84375 390.023438 808.066406 390.023438 805.871094 L 390.023438 757.078125 C 390.023438 755.421875 388.777344 753.96875 387.074219 753.667969 C 310.265625 740.007812 266.105469 678.359375 248.980469 605.617188 C 247.269531 598.355469 245.332031 588.203125 242.984375 575.199219 C 242.746094 573.882812 241.269531 573.1875 240.109375 573.929688 C 186.511719 608.335938 126.753906 628.503906 73.5 579.488281 C 38.191406 546.992188 20.894531 519.089844 32.359375 470.636719 C 53.109375 382.9375 115.496094 346.1875 191.367188 306.84375 C 217.339844 293.375 248.777344 277.675781 284.710938 257.949219 C 285.746094 257.382812 286.292969 256.191406 285.980469 255.027344 C 270.246094 195.894531 285.484375 149.0625 332.53125 111.511719 C 333.671875 110.605469 334.125 109.078125 333.703125 107.710938 C 318.585938 58.785156 286.957031 33.3125 237.140625 31.808594 C 233.875 31.710938 231.21875 28.980469 231.21875 25.667969 L 231.21875 5.292969 C 231.21875 2.320312 233.777344 0.0351562 236.65625 0.367188 C 290.0625 6.558594 331.558594 23.457031 354.375 76.65625 C 358.722656 86.792969 361.273438 92.683594 362.03125 94.253906 C 362.683594 95.609375 364.222656 96.25 365.636719 95.8125 C 392.910156 87.390625 416.441406 87.390625 443.726562 95.765625 Z M 406.183594 199.796875 C 437.476562 214.714844 466.050781 228.882812 492.21875 241.769531 C 493.722656 242.511719 495.503906 241.675781 495.875 240.0625 C 507.183594 190.910156 490.910156 154.203125 448.785156 130.332031 C 424.042969 116.308594 385.15625 116.164062 359.875 130.964844 C 318.117188 155.417969 301.980469 192.421875 314.300781 241.328125 C 314.707031 242.945312 316.546875 243.730469 318.003906 242.984375 C 343.992188 229.734375 372.40625 215.25 403.457031 199.84375 C 404.253906 199.445312 405.332031 199.476562 406.1875 199.796875 Z M 376.542969 249.566406 C 376.988281 248.347656 375.71875 247.179688 374.546875 247.761719 C 315.8125 276.875 250.664062 310.109375 179.226562 347.984375 C 121.679688 378.496094 75.6875 411.992188 61.796875 480.96875 C 57.554688 502.027344 61.429688 520.328125 73.398438 535.855469 C 100.101562 570.507812 136.605469 587.683594 179.90625 571.734375 C 239.988281 549.597656 281.683594 495.050781 304.746094 437.4375 C 327.0625 381.667969 351.234375 319.117188 376.542969 249.5625 Z M 433.382812 248.6875 C 458.691406 318.417969 482.714844 381.183594 504.992188 437.097656 C 528.003906 494.863281 569.691406 549.621094 629.828125 571.886719 C 673.21875 587.949219 709.777344 570.769531 736.628906 536.105469 C 748.671875 520.558594 752.578125 502.226562 748.378906 481.121094 C 734.613281 411.988281 688.566406 378.316406 630.949219 347.648438 C 559.4375 309.582031 494.199219 276.125 435.386719 246.886719 C 434.214844 246.304688 432.945312 247.472656 433.386719 248.691406 Z M 371.769531 352.570312 C 371.429688 353.546875 372.160156 354.570312 373.183594 354.570312 L 437.234375 354.570312 C 438.257812 354.570312 438.988281 353.546875 438.648438 352.570312 L 406.574219 263.800781 C 406.136719 262.484375 404.28125 262.484375 403.84375 263.800781 Z M 450.835938 386.011719 C 450.59375 385.375 449.957031 384.988281 449.277344 384.988281 L 361.242188 384.988281 C 360.5625 384.988281 359.925781 385.378906 359.683594 386.011719 L 342.378906 425.542969 C 341.894531 426.664062 342.71875 427.929688 343.9375 427.929688 L 467.164062 427.929688 C 468.382812 427.929688 469.214844 426.664062 468.722656 425.542969 Z M 478.667969 458.15625 C 329.261719 458.15625 330.046875 457.683594 329.261719 458.988281 L 308.109375 498.667969 C 307.570312 499.691406 308.304688 500.960938 309.472656 500.960938 L 500.84375 500.960938 C 502.0625 500.960938 502.800781 499.6875 502.210938 498.617188 C 479.585938 457.636719 480.113281 458.15625 478.667969 458.15625 Z M 278.957031 574.027344 L 530.675781 574.027344 C 535.597656 574.027344 539.546875 570.082031 539.546875 565.15625 L 539.546875 557.75 C 539.546875 542.882812 527.3125 530.839844 512.25 530.839844 L 297.382812 530.839844 C 282.320312 530.839844 270.085938 542.878906 270.085938 557.75 L 270.085938 565.15625 C 270.085938 570.082031 274.035156 574.027344 278.957031 574.027344 Z M 511.667969 646.417969 C 514.058594 645.976562 516.054688 644.324219 516.886719 642.03125 L 530.046875 606.449219 C 530.441406 605.375 529.609375 604.230469 528.4375 604.328125 L 281.25 604.328125 C 280.128906 604.28125 279.253906 605.425781 279.691406 606.5 L 292.855469 642.082031 C 293.730469 644.375 295.6875 646.042969 298.117188 646.46875 C 301.207031 647.015625 508.585938 646.992188 511.667969 646.421875 Z M 405.941406 724.707031 C 440.449219 724.660156 470.273438 709.269531 495.777344 678.933594 C 496.601562 677.957031 495.921875 676.644531 494.65625 676.644531 L 317.078125 676.644531 C 315.863281 676.644531 315.132812 678.25 315.960938 679.226562 C 341.546875 709.519531 371.433594 724.753906 405.941406 724.707031 Z M 405.941406 724.707031 " fill-opacity="1" fill-rule="nonzero"/></g><g clip-path="url(#658b13bfd7)"><g clip-path="url(#1a6a59edb7)"><g transform="matrix(1, 0, 0, 1, 544, 532)"><g clip-path="url(#fe01d4552c)"><g clip-path="url(#025c1f49d0)"><g clip-path="url(#2c7c1e6da9)"><path fill="#000000" d="M 0.480469 0.382812 L 23.980469 0.382812 L 23.980469 23.882812 L 0.480469 23.882812 Z M 0.480469 0.382812 " fill-opacity="1" fill-rule="nonzero"/></g></g></g></g></g></g></svg>