<svg xmlns="http://www.w3.org/2000/svg" xmlns:xlink="http://www.w3.org/1999/xlink" width="1080" zoomAndPan="magnify" viewBox="0 0 810 809.999993" height="1080" preserveAspectRatio="xMidYMid meet" version="1.0"><defs><clipPath id="406d4427ac"><path d="M 51.132812 1 L 736 1 L 736 807 L 51.132812 807 Z M 51.132812 1 " clip-rule="nonzero"/></clipPath><clipPath id="f13438549e"><path d="M 585.960938 81 L 609.460938 81 L 609.460938 104.5 L 585.960938 104.5 Z M 585.960938 81 " clip-rule="nonzero"/></clipPath><clipPath id="c0d4aa3b22"><path d="M 597.710938 81 C 591.222656 81 585.960938 86.261719 585.960938 92.75 C 585.960938 99.238281 591.222656 104.5 597.710938 104.5 C 604.199219 104.5 609.460938 99.238281 609.460938 92.75 C 609.460938 86.261719 604.199219 81 597.710938 81 Z M 597.710938 81 " clip-rule="nonzero"/></clipPath><clipPath id="39a752aeb7"><path d="M 0.960938 0 L 24.460938 0 L 24.460938 23.5 L 0.960938 23.5 Z M 0.960938 0 " clip-rule="nonzero"/></clipPath><clipPath id="1ab2f804d0"><path d="M 12.710938 0 C 6.222656 0 0.960938 5.261719 0.960938 11.75 C 0.960938 18.238281 6.222656 23.5 12.710938 23.5 C 19.199219 23.5 24.460938 18.238281 24.460938 11.75 C 24.460938 5.261719 19.199219 0 12.710938 0 Z M 12.710938 0 " clip-rule="nonzero"/></clipPath><clipPath id="c6e2718281"><rect x="0" width="25" y="0" height="24"/></clipPath></defs><g clip-path="url(#406d4427ac)"><path fill="#000000" d="M 583.984375 198.496094 C 592.917969 205.742188 600.6875 213.921875 607.46875 222.886719 C 629.597656 225.730469 653.386719 226.734375 674.207031 219.84375 C 734.445312 199.964844 759.148438 145.582031 708.308594 129.851562 C 694.648438 125.648438 677.5 125.128906 659.382812 128.941406 C 642.789062 160.308594 614.328125 180.246094 583.984375 198.496094 Z M 542.328125 174.605469 C 551.007812 177.953125 559.636719 182.125 567.960938 187.242188 C 594.296875 171.761719 624.890625 152.347656 640.375 126.417969 C 651.023438 108.503906 657.414062 88.121094 657.023438 69.816406 C 656.304688 36.191406 633.320312 22.539062 603.390625 37.855469 C 588.171875 45.675781 572.992188 60.171875 561.480469 79.445312 C 545.675781 105.980469 543.328125 143.417969 542.328125 174.605469 Z M 520.148438 186.382812 C 516.691406 236.234375 479.402344 287.019531 432.859375 305.238281 L 443.261719 320.054688 C 493.132812 298.652344 531.910156 245.84375 537.332031 191.875 Z M 631.886719 312.074219 C 621.289062 335.515625 605.554688 356.972656 586.363281 374.113281 C 610.515625 375.4375 634.628906 376.242188 658.828125 379.535156 C 648.429688 357.472656 640.355469 334.691406 631.886719 312.074219 Z M 498.738281 360.316406 C 550.792969 353.375 598.449219 290.5625 593.113281 237.722656 L 592.398438 232.65625 C 585.488281 223.78125 577.683594 215.871094 568.605469 209.179688 L 554.339844 200 C 546.265625 256.097656 507.242188 309.265625 456.097656 333.816406 C 468.894531 345.75 482.144531 354.125 498.738281 360.316406 Z M 610.261719 261.144531 C 604.015625 305.632812 571.847656 349.457031 531.300781 368.726562 C 540.589844 370.355469 550.167969 371.464844 559.976562 372.324219 C 566.582031 367.652344 573.027344 362.375 579.113281 356.453125 C 592.773438 343.316406 604.425781 327.335938 612.914062 310.445312 C 616.726562 302.894531 619.824219 295.179688 622.292969 287.414062 C 618.535156 278.34375 614.578125 269.574219 610.261719 261.144531 Z M 485.238281 183.589844 C 488.140625 224.785156 457.386719 257.496094 418.808594 268.140625 C 420.023438 275.140625 422.046875 282.242188 424.839844 289.1875 C 466.140625 273.867188 500.152344 227.503906 502.425781 183.574219 C 496.605469 183.089844 490.808594 183.089844 485.238281 183.589844 Z M 389.789062 112.726562 C 331.59375 112.835938 282.167969 189.835938 334.636719 234.660156 C 364.78125 260.429688 414.65625 260.984375 445.410156 234.519531 C 497.664062 189.476562 448.398438 112.726562 389.789062 112.726562 Z M 482.195312 1.335938 C 493.867188 0.171875 495.75 17.867188 484.023438 19.085938 C 455.203125 22.074219 441.847656 49.773438 434.953125 78.890625 C 432.269531 90.359375 414.851562 86.242188 417.554688 74.773438 C 426.328125 37.75 444.746094 5.289062 482.195312 1.335938 Z M 296.417969 19.085938 C 284.746094 17.921875 286.570312 0.171875 298.242188 1.335938 C 335.691406 5.234375 354.167969 37.855469 362.882812 74.792969 C 365.621094 86.261719 348.222656 90.359375 345.484375 78.90625 C 338.574219 49.722656 325.292969 22.128906 296.417969 19.085938 Z M 122.96875 695.75 C 100.34375 681.757812 77.695312 667.691406 61.210938 649.636719 C 65.828125 715.472656 133.371094 797.445312 198.171875 805.910156 C 210.398438 749.9375 166.757812 722.898438 122.96875 695.75 Z M 215.070312 761.550781 C 218.976562 774.488281 219.796875 789.195312 216.398438 806.339844 C 288.09375 809.632812 315.5 749.523438 343.050781 689.273438 C 358.425781 655.433594 373.894531 621.613281 396.984375 597.007812 C 364.351562 601.679688 330.160156 619.019531 299.960938 643.480469 C 260.847656 675.117188 228.675781 718.386719 215.070312 761.550781 Z M 212.886719 379.089844 C 200.859375 404.410156 183.457031 416.882812 182.851562 417.847656 C 175.1875 446.210938 169.246094 473.5 165.039062 499.878906 C 157.070312 549.425781 154.53125 598.886719 160.222656 646.988281 C 162.65625 667.890625 166.613281 687.878906 172.089844 706.898438 C 184.78125 716.492188 196.042969 726.996094 204.261719 739.164062 C 207.25 732.058594 210.597656 725.007812 214.410156 718.066406 C 189.957031 651.621094 189.796875 577.96875 201.164062 506.855469 C 205.011719 482.5 210.398438 457.304688 217.34375 431.234375 C 214.804688 423.46875 213.085938 415.359375 212.28125 406.933594 C 211.3125 397.394531 211.5625 388.054688 212.886719 379.089844 Z M 293.730469 295.789062 C 288.609375 285.230469 277.296875 274.53125 264.496094 263.722656 C 251.859375 253.019531 240.4375 244.394531 230.289062 241.855469 C 220.691406 239.421875 213.28125 242.875 204.207031 253.109375 C 194.558594 264.671875 190.457031 279.074219 191.621094 293.035156 C 194.109375 323.363281 220.90625 346.089844 251.304688 343.550781 C 265.410156 342.386719 279.105469 335.835938 288.953125 324.222656 C 297.632812 313.953125 298.046875 304.613281 293.730469 295.789062 Z M 184.675781 249.675781 L 191.371094 240.636719 C 158.898438 202.648438 102.617188 195.792969 61.925781 225.015625 C 69.445312 234.554688 78.824219 242.769531 89.421875 248.90625 C 117.4375 239.921875 147.835938 242.105469 174.007812 254.792969 Z M 173.613281 292.140625 C 173.363281 286.609375 173.71875 280.972656 174.6875 275.441406 C 134.5 250.839844 82.082031 258.910156 51.167969 294.964844 C 87.347656 323.382812 138.757812 322.273438 173.613281 292.140625 Z M 204.367188 348.148438 C 196.542969 342.566406 189.957031 335.570312 184.871094 327.660156 C 143.914062 342.226562 117.832031 382.488281 121.199219 425.8125 C 162.855469 420.78125 196.597656 389.324219 204.367188 348.148438 Z M 261.902344 360.066406 C 253.433594 361.890625 244.644531 362.140625 236.015625 360.871094 C 221.25 398.914062 232.167969 442.238281 263.210938 468.867188 C 268.238281 462.421875 272.5 455.375 275.738281 447.859375 C 279.589844 439.035156 282.183594 429.550781 283.257812 419.601562 C 283.027344 418.742188 264.140625 396.015625 261.902344 360.066406 Z M 306.816406 330.238281 C 299.960938 340.328125 290.078125 348.648438 279.570312 353.929688 C 280.035156 391.8125 302.554688 425.863281 337.160156 441.074219 C 352.589844 401.546875 340.308594 356.363281 306.816406 330.238281 Z M 306.816406 330.238281 " fill-opacity="1" fill-rule="nonzero"/></g><g clip-path="url(#f13438549e)"><g clip-path="url(#c0d4aa3b22)"><g transform="matrix(1, 0, 0, 1, 585, 81)"><g clip-path="url(#c6e2718281)"><g clip-path="url(#39a752aeb7)"><g clip-path="url(#1ab2f804d0)"><path fill="#000000" d="M 0.960938 0 L 24.460938 0 L 24.460938 23.5 L 0.960938 23.5 Z M 0.960938 0 " fill-opacity="1" fill-rule="nonzero"/></g></g></g></g></g></g></svg>