<svg xmlns="http://www.w3.org/2000/svg" xmlns:xlink="http://www.w3.org/1999/xlink" width="1080" zoomAndPan="magnify" viewBox="0 0 810 809.999993" height="1080" preserveAspectRatio="xMidYMid meet" version="1.0"><defs><clipPath id="039d0f8ac4"><path d="M 523.738281 463.246094 L 547.238281 463.246094 L 547.238281 486.75 L 523.738281 486.75 Z M 523.738281 463.246094 " clip-rule="nonzero"/></clipPath><clipPath id="5d79f86781"><path d="M 535.488281 463.246094 C 529 463.246094 523.738281 468.507812 523.738281 475 C 523.738281 481.488281 529 486.75 535.488281 486.75 C 541.980469 486.75 547.238281 481.488281 547.238281 475 C 547.238281 468.507812 541.980469 463.246094 535.488281 463.246094 Z M 535.488281 463.246094 " clip-rule="nonzero"/></clipPath><clipPath id="e5ae19bf45"><path d="M 0.738281 0.246094 L 24.238281 0.246094 L 24.238281 23.75 L 0.738281 23.75 Z M 0.738281 0.246094 " clip-rule="nonzero"/></clipPath><clipPath id="94bd852826"><path d="M 12.488281 0.246094 C 6 0.246094 0.738281 5.507812 0.738281 12 C 0.738281 18.488281 6 23.75 12.488281 23.75 C 18.980469 23.75 24.238281 18.488281 24.238281 12 C 24.238281 5.507812 18.980469 0.246094 12.488281 0.246094 Z M 12.488281 0.246094 " clip-rule="nonzero"/></clipPath><clipPath id="ca22c77ebe"><rect x="0" width="25" y="0" height="24"/></clipPath></defs><path fill="#000000" d="M 792.023438 450.714844 L 809.667969 468.359375 L 792.023438 486.109375 C 790.914062 484.890625 789.917969 483.890625 789.027344 483.003906 C 776.710938 470.578125 790.914062 484.890625 774.492188 468.359375 L 787.808594 455.042969 Z M 754.632812 500.648438 L 751.523438 503.753906 L 736.988281 518.289062 C 754.632812 536.042969 736.988281 518.289062 754.632812 536.042969 L 772.273438 518.289062 L 757.074219 503.085938 Z M 562.230469 680.621094 C 579.871094 698.375 562.230469 680.621094 579.871094 698.375 L 597.511719 680.621094 L 579.871094 662.980469 Z M 367.71875 550.46875 L 362.390625 555.792969 C 380.144531 573.546875 362.390625 555.792969 380.144531 573.546875 L 382.695312 570.996094 L 397.789062 555.792969 L 380.144531 538.152344 Z M 741.425781 692.714844 C 744.203125 709.582031 738.210938 730.332031 721.789062 737.210938 C 718.015625 738.765625 714.242188 739.429688 710.691406 739.429688 C 700.59375 739.429688 691.941406 734.4375 688.390625 732.550781 C 644.894531 707.808594 622.921875 659.761719 611.9375 619.816406 C 606.5 599.953125 603.617188 582.089844 602.175781 569.996094 C 598.289062 536.707031 598.289062 502.867188 598.289062 470.132812 C 598.289062 459.257812 598.289062 448.386719 598.070312 437.289062 C 597.847656 419.3125 597.292969 401.226562 595.628906 383.585938 C 591.410156 337.425781 579.425781 298.257812 561.121094 269.519531 C 560.230469 268.1875 559.453125 266.632812 558.566406 265.304688 C 555.570312 260.976562 549.578125 255.871094 543.699219 250.878906 C 534.15625 242.777344 524.28125 234.457031 519.953125 223.804688 C 516.070312 214.039062 516.515625 202.945312 521.285156 191.738281 C 522.171875 189.628906 523.28125 187.632812 524.503906 185.523438 L 512.1875 163 C 482.78125 182.527344 452.824219 203.609375 428.300781 223.136719 C 418.09375 231.347656 408.882812 242 400.449219 254.316406 C 395.679688 265.191406 390.464844 274.734375 385.136719 283.054688 C 400.339844 287.160156 413.988281 297.035156 422.640625 310.351562 C 426.414062 307.910156 430.296875 305.914062 434.292969 304.582031 C 447.054688 300.367188 459.371094 302.140625 469.023438 309.574219 C 472.796875 312.460938 476.457031 315.679688 479.898438 318.894531 C 510.632812 347.855469 531.824219 392.792969 543.699219 453.15625 C 552.796875 499.871094 556.238281 555.792969 554.019531 620.925781 C 553.464844 635.238281 552.796875 649.886719 551.6875 665.085938 L 551.132812 672.855469 C 548.691406 714.6875 537.042969 750.96875 517.289062 777.820312 C 509.746094 788.140625 496.320312 799.792969 481.339844 801.457031 C 480.121094 801.566406 478.789062 801.679688 477.566406 801.679688 C 470.355469 801.679688 463.699219 799.238281 458.148438 794.464844 C 440.394531 779.265625 447.054688 751.746094 449.9375 740.097656 C 455.707031 716.351562 459.59375 691.941406 461.699219 667.195312 L 461.589844 667.195312 L 461.8125 666.308594 C 464.472656 635.574219 464.253906 604.394531 461.367188 573.546875 C 459.925781 558.234375 457.816406 543.03125 455.042969 527.941406 L 453.820312 521.617188 C 452.824219 516.292969 451.824219 510.632812 450.605469 504.863281 C 445.390625 478.121094 438.066406 447.386719 425.417969 428.078125 C 421.867188 422.753906 417.425781 417.980469 412.765625 412.878906 C 401.226562 400.5625 387.359375 385.472656 390.351562 360.171875 C 390.6875 356.953125 391.351562 353.625 392.351562 350.074219 C 394.457031 342.308594 398.453125 334.652344 403.667969 327.882812 C 397.898438 315.898438 384.917969 307.246094 371.710938 306.136719 C 365.832031 318.453125 360.0625 331.433594 354.292969 344.527344 C 351.296875 351.183594 348.523438 357.953125 345.746094 364.722656 C 342.972656 371.378906 340.421875 378.035156 337.757812 384.582031 C 319.339844 431.1875 300.253906 479.34375 256.980469 514.960938 C 232.902344 534.820312 198.949219 572.992188 164.332031 615.488281 L 205.050781 620.480469 C 216.371094 608.941406 265.191406 563.78125 327.660156 581.757812 C 366.054688 592.851562 416.652344 673.296875 422.308594 682.398438 L 429.523438 694.046875 L 417.425781 700.152344 C 409.105469 704.367188 342.640625 737.320312 300.699219 737.320312 C 295.152344 737.320312 290.046875 736.765625 285.609375 735.4375 C 283.722656 734.878906 281.945312 734.324219 280.171875 733.660156 C 275.179688 758.957031 261.53125 787.585938 258.089844 794.6875 L 250.65625 809.777344 L 238.339844 798.238281 C 230.351562 790.804688 190.292969 752.078125 185.300781 725.558594 C 178.644531 690.386719 194.511719 664.3125 204.941406 651.550781 C 204.164062 649.21875 203.5 647.113281 202.832031 645.113281 L 146.023438 638.234375 C 96.644531 700.371094 48.820312 766.28125 28.40625 796.128906 L 21.304688 806.449219 L 0.664062 792.359375 L 7.765625 782.039062 C 10.097656 778.597656 13.648438 773.496094 18.085938 767.28125 C 58.585938 710.027344 177.3125 548.136719 241.335938 495.542969 C 279.617188 464.03125 296.703125 420.867188 314.789062 375.261719 C 316.675781 370.601562 318.5625 365.941406 320.449219 361.171875 C 324 352.183594 327.773438 343.195312 331.765625 334.207031 C 332.210938 333.210938 332.65625 332.320312 333.097656 331.324219 C 321.003906 336.980469 311.238281 338.648438 306.46875 339.089844 C 304.914062 342.308594 303.25 345.859375 301.253906 349.519531 C 295.261719 360.839844 287.273438 373.710938 277.398438 385.691406 C 259.53125 420.3125 238.5625 452.378906 209.824219 476.125 C 140.808594 532.9375 66.574219 628.691406 28.40625 680.734375 L 20.972656 690.832031 L 18.308594 688.832031 L 0.886719 676.074219 L 8.320312 665.976562 C 47.15625 613.046875 122.941406 515.402344 193.957031 456.816406 C 205.605469 447.164062 215.925781 435.847656 225.246094 423.199219 C 217.703125 425.527344 209.710938 426.859375 201.058594 426.859375 C 130.042969 426.859375 28.183594 360.839844 23.855469 357.953125 L 11.761719 349.964844 L 21.414062 339.089844 C 24.855469 335.316406 105.410156 245.886719 178.3125 245.886719 C 196.617188 245.886719 215.703125 250.988281 233.566406 258.3125 C 229.128906 248.4375 225.355469 237.675781 222.804688 226.132812 C 218.144531 205.386719 217.257812 182.082031 222.917969 156.785156 C 239.449219 83.886719 286.164062 44.382812 324.554688 23.632812 C 354.957031 7.210938 380.035156 2.550781 380.589844 2.441406 L 391.128906 0.664062 L 394.570312 10.761719 C 394.792969 11.316406 395.234375 12.871094 396.125 15.535156 C 400.894531 30.734375 415.097656 79.78125 418.535156 134.59375 C 455.597656 107.964844 496.320312 81.554688 529.382812 61.027344 C 565.890625 38.390625 592.964844 22.636719 595.40625 21.304688 L 622.699219 6.992188 C 640.898438 -2.550781 663.644531 3.441406 674.40625 20.636719 C 679.957031 29.515625 681.507812 39.945312 678.734375 49.929688 C 675.960938 60.027344 669.082031 68.683594 659.652344 73.566406 L 634.683594 86.660156 C 633.242188 87.546875 620.371094 94.980469 601.285156 106.519531 C 583.089844 117.503906 559.121094 132.375 533.601562 148.90625 L 542.367188 164.886719 C 546.804688 161.222656 551.464844 158.339844 556.015625 156.453125 C 576.984375 148.128906 602.394531 152.234375 625.917969 167.660156 C 651.328125 184.414062 671.855469 211.597656 685.949219 245.886719 C 694.933594 267.855469 701.371094 292.820312 704.589844 319.894531 C 708.695312 354.179688 707.917969 388.800781 706.140625 422.753906 C 705.699219 431.628906 705.253906 440.617188 704.699219 449.382812 C 703.8125 464.253906 703.035156 479.007812 702.480469 493.765625 C 702.371094 496.652344 702.257812 499.535156 702.257812 502.421875 C 701.703125 522.171875 701.925781 543.808594 703.921875 565.78125 C 704.367188 569.886719 704.8125 573.992188 705.253906 578.097656 C 708.695312 604.503906 715.128906 631.132812 727.113281 655.101562 L 730 660.761719 C 734.324219 670.523438 739.542969 680.84375 741.425781 692.714844 Z M 238.671875 624.699219 L 244.996094 625.476562 L 324.445312 648.554688 L 317.453125 672.523438 L 243.332031 650.996094 L 239.003906 649.773438 L 230.460938 648.777344 C 232.015625 652.660156 233.902344 656.875 236.121094 661.316406 C 242.445312 673.632812 251.65625 687.058594 264.96875 697.488281 C 269.742188 701.261719 275.066406 704.476562 280.835938 707.253906 C 284.5 709.027344 288.382812 710.582031 292.488281 711.691406 C 311.792969 717.238281 360.285156 699.597656 393.683594 684.0625 C 372.933594 652.882812 340.3125 611.605469 320.894531 605.945312 C 286.71875 596.070312 256.535156 611.605469 238.671875 624.699219 Z M 209.824219 721.121094 C 211.820312 731.773438 227.796875 751.746094 242.890625 767.722656 C 249.324219 752.191406 255.316406 734.4375 256.757812 722.34375 C 238.339844 710.359375 225.578125 693.824219 216.925781 678.402344 C 211.15625 688.832031 206.496094 703.367188 209.824219 721.121094 Z M 453.820312 329.4375 C 452.710938 328.550781 449.382812 325.996094 442.28125 328.328125 C 433.074219 331.433594 423.417969 341.085938 418.648438 351.296875 C 417.871094 353.070312 417.09375 354.847656 416.652344 356.734375 C 412.878906 370.714844 416.097656 378.371094 424.308594 388.246094 L 437.84375 376.925781 L 453.820312 396.125 L 440.839844 406.996094 C 442.726562 409.328125 444.613281 411.878906 446.386719 414.542969 C 452.269531 423.53125 457.039062 434.070312 461.035156 445.277344 L 480.007812 443.167969 L 482.78125 468.023438 L 468.359375 469.578125 C 471.019531 480.121094 473.351562 490.769531 475.347656 501.089844 C 476.457031 506.527344 477.457031 511.964844 478.34375 517.179688 L 479.453125 523.503906 C 480.894531 530.9375 482.003906 538.371094 483.113281 545.917969 L 501.644531 545.917969 L 501.644531 570.882812 L 486.109375 570.882812 C 486.554688 575.988281 487 580.980469 487.332031 586.085938 C 488.773438 606.835938 488.996094 627.582031 487.996094 648.222656 L 504.308594 652.328125 L 498.207031 676.515625 L 486.109375 673.519531 C 483.78125 698.042969 479.785156 722.34375 474.015625 746.085938 C 472.574219 752.078125 468.136719 770.386719 474.347656 775.714844 C 475.347656 776.601562 476.347656 777.046875 478.34375 776.824219 C 483.78125 776.15625 491.660156 770.5 496.984375 763.175781 C 503.976562 753.742188 509.632812 742.648438 514.183594 730.554688 L 493.878906 719.234375 L 505.972656 697.375 L 521.285156 705.921875 C 523.613281 695.046875 525.28125 683.617188 525.945312 671.523438 L 526.5 663.421875 C 527.5 649.664062 528.164062 636.460938 528.609375 623.8125 L 509.300781 623.8125 L 509.300781 598.84375 L 529.273438 598.84375 C 529.828125 565.445312 528.609375 535.710938 526.167969 509.523438 L 501.757812 512.742188 L 499.757812 498.207031 L 498.425781 487.996094 L 518.621094 485.335938 L 523.28125 484.667969 C 523.058594 482.894531 522.726562 481.117188 522.503906 479.34375 C 517.402344 444.945312 509.746094 417.539062 500.644531 395.679688 L 489.105469 407.21875 L 471.574219 389.796875 L 489.328125 372.046875 C 479.230469 354.292969 468.246094 341.53125 457.371094 332.320312 C 456.261719 331.433594 455.042969 330.4375 453.820312 329.4375 Z M 500.089844 140.917969 L 502.089844 139.808594 C 526.945312 123.386719 551.132812 108.183594 571.328125 95.757812 C 599.84375 78.226562 620.148438 66.464844 622.257812 65.242188 L 647.667969 51.929688 C 650.996094 50.152344 653.324219 47.269531 654.324219 43.828125 C 655.210938 40.609375 654.65625 37.171875 652.882812 34.285156 C 649.109375 28.183594 640.675781 26.074219 634.019531 29.515625 L 607.167969 43.605469 C 605.058594 44.828125 580.980469 58.699219 548.027344 79.113281 C 510.300781 102.414062 460.921875 134.261719 418.980469 165.441406 C 418.757812 177.421875 417.761719 189.40625 415.984375 201.167969 C 440.949219 181.417969 470.910156 160.445312 500.203125 141.027344 Z M 255.980469 372.265625 C 267.078125 359.285156 275.734375 344.527344 281.613281 332.65625 C 279.285156 333.097656 276.84375 333.542969 274.289062 333.984375 C 260.421875 336.316406 243 338.3125 223.472656 338.3125 C 180.417969 338.3125 134.371094 351.851562 133.925781 351.960938 L 121.945312 355.511719 L 114.84375 331.546875 L 126.714844 327.882812 C 128.710938 327.328125 176.757812 313.238281 223.472656 313.238281 C 239.78125 313.238281 254.652344 311.683594 266.746094 309.796875 C 269.074219 309.464844 271.40625 309.019531 273.515625 308.6875 C 268.742188 305.582031 263.417969 302.140625 257.535156 298.703125 C 234.566406 285.164062 204.609375 271.292969 177.976562 271.292969 C 129.820312 271.292969 73.011719 322.558594 50.042969 345.414062 C 79.003906 362.726562 150.683594 402.226562 200.613281 402.226562 C 223.25 402.335938 241.667969 388.800781 255.980469 372.265625 Z M 354.734375 282.613281 C 355.070312 282.167969 355.511719 281.835938 355.84375 281.28125 C 356.179688 280.835938 356.511719 280.28125 356.953125 279.839844 C 364.390625 270.296875 371.824219 257.980469 378.589844 242.335938 C 379.8125 239.449219 381.03125 236.5625 382.253906 233.457031 C 387.914062 218.589844 391.242188 202.390625 392.792969 185.632812 C 393.347656 180.085938 393.683594 174.425781 393.902344 168.769531 C 394.125 163.441406 394.125 158.226562 394.015625 152.902344 C 393.015625 101.417969 380.257812 51.484375 374.042969 30.070312 C 345.414062 38.167969 268.410156 68.460938 247.105469 162.777344 C 240.78125 190.515625 244.109375 215.59375 251.875 237.007812 C 257.867188 253.652344 266.414062 268.078125 275.066406 279.949219 C 278.507812 282.058594 281.835938 284.164062 284.832031 286.164062 C 284.609375 281.613281 284.609375 276.953125 284.609375 271.960938 C 285.273438 225.246094 297.8125 161.335938 337.09375 76.785156 L 342.308594 65.464844 L 364.945312 76.007812 L 359.730469 87.324219 C 326.550781 158.78125 313.457031 214.039062 310.351562 255.871094 C 309.574219 266.632812 309.351562 276.621094 309.796875 285.71875 C 310.019531 290.378906 310.351562 294.816406 310.796875 299.035156 L 311.019531 298.921875 L 313.679688 307.132812 L 313.679688 307.355469 L 317.5625 310.574219 L 317.34375 311.351562 C 327.21875 307.355469 340.867188 299.476562 354.734375 282.613281 Z M 716.792969 696.710938 C 715.464844 688.722656 711.578125 681.066406 707.363281 672.964844 L 704.257812 666.863281 C 693.9375 646.003906 687.28125 623.699219 683.0625 601.175781 C 682.953125 600.398438 682.839844 599.621094 682.617188 598.84375 L 654.878906 603.839844 L 650.441406 579.316406 L 679.070312 574.210938 C 678.402344 568.332031 677.847656 562.449219 677.515625 556.570312 C 677.292969 553.796875 677.183594 551.023438 677.070312 548.246094 L 667.863281 549.136719 L 656.765625 550.132812 L 654.546875 525.28125 L 665.753906 524.28125 L 676.40625 523.28125 C 676.40625 519.289062 676.40625 515.402344 676.515625 511.632812 C 676.628906 505.417969 676.738281 499.425781 676.960938 493.546875 C 677.515625 478.898438 678.292969 464.363281 679.179688 449.714844 L 659.429688 447.386719 L 662.425781 422.53125 L 680.621094 424.640625 C 680.734375 423.417969 680.734375 422.308594 680.84375 421.089844 C 681.398438 409.550781 681.84375 398.007812 682.0625 386.46875 L 644.894531 393.792969 L 640.011719 369.269531 L 681.84375 360.949219 C 681.507812 348.300781 680.734375 335.652344 679.289062 323.222656 C 678.957031 320.117188 678.511719 317.007812 677.957031 313.902344 L 655.878906 323.335938 L 646.003906 300.367188 L 673.078125 288.714844 C 669.082031 272.292969 663.644531 257.203125 657.097656 243.777344 C 648.332031 225.691406 637.347656 210.488281 624.699219 198.949219 L 610.496094 222.582031 L 589.082031 209.710938 L 604.28125 184.414062 C 590.078125 177.089844 575.988281 175.316406 564.667969 179.863281 C 561.894531 180.972656 557.902344 183.746094 554.019531 187.519531 L 554.238281 187.964844 L 552.796875 188.742188 C 549.355469 192.292969 546.140625 196.617188 544.140625 201.390625 C 541.921875 206.382812 541.589844 210.820312 543.03125 214.261719 C 544.808594 218.8125 551.6875 224.800781 558.125 230.238281 L 575.875 221.363281 L 587.082031 243.664062 L 577.320312 248.546875 C 577.875 249.324219 578.539062 250.101562 579.09375 250.878906 C 580.757812 253.429688 582.421875 256.09375 583.976562 258.644531 C 585.640625 261.308594 587.304688 264.082031 588.859375 266.855469 L 591.300781 266.300781 C 600.621094 264.414062 609.386719 259.089844 615.378906 251.875 L 618.929688 247.550781 L 623.367188 242.222656 L 627.695312 245.886719 L 642.5625 258.203125 L 634.574219 267.855469 C 625.585938 278.730469 613.269531 286.386719 599.734375 289.9375 C 603.726562 299.8125 607.277344 310.464844 610.164062 321.558594 L 629.027344 318.5625 L 632.910156 343.195312 L 615.601562 345.96875 C 617.597656 357.066406 619.261719 368.714844 620.371094 380.8125 C 621.589844 393.570312 622.148438 406.441406 622.480469 419.3125 L 637.238281 419.203125 L 637.238281 422.753906 L 637.457031 444.167969 L 623.035156 444.28125 C 623.144531 452.824219 623.144531 461.257812 623.144531 469.6875 C 623.144531 473.128906 623.144531 476.570312 623.144531 480.117188 L 659.207031 481.449219 L 658.207031 506.417969 L 623.367188 505.085938 C 623.476562 514.738281 623.8125 524.390625 624.253906 534.046875 L 635.792969 534.046875 L 635.792969 559.011719 L 626.140625 559.011719 C 626.363281 561.5625 626.472656 564.113281 626.808594 566.667969 C 628.804688 583.53125 631.910156 599.511719 636.128906 614.378906 C 638.679688 623.367188 641.675781 631.910156 645.003906 639.898438 L 668.195312 631.46875 L 676.738281 654.878906 L 655.878906 662.425781 C 667.972656 683.839844 683.175781 700.484375 700.484375 710.359375 C 707.917969 714.574219 710.914062 714.132812 711.800781 713.796875 C 715.351562 712.800781 718.125 704.699219 716.792969 696.710938 Z M 467.46875 273.847656 L 485.113281 256.09375 L 467.46875 238.449219 L 449.714844 256.09375 C 467.46875 273.847656 449.714844 256.09375 467.46875 273.847656 Z M 754.632812 261.308594 L 772.273438 243.554688 L 754.632812 225.914062 L 736.988281 243.554688 C 739.652344 246.21875 741.539062 248.105469 742.757812 249.4375 C 749.972656 256.648438 739.652344 246.328125 754.632812 261.308594 Z M 792.023438 211.375 L 809.777344 193.625 L 792.023438 175.980469 L 781.816406 186.1875 L 774.492188 193.625 C 791.914062 211.15625 774.9375 194.066406 791.582031 210.820312 C 791.691406 211.042969 791.800781 211.15625 792.023438 211.375 Z M 722.230469 168.65625 L 704.589844 151.015625 L 686.945312 168.65625 C 704.589844 186.410156 686.945312 168.65625 704.589844 186.410156 Z M 667.195312 101.195312 L 657.765625 110.515625 L 649.441406 118.835938 C 667.195312 136.589844 649.441406 118.835938 667.195312 136.589844 L 684.839844 118.835938 L 679.179688 113.179688 Z M 380.035156 450.714844 L 362.28125 468.359375 C 380.035156 486.109375 362.28125 468.359375 380.035156 486.109375 L 397.675781 468.359375 Z M 736.878906 380.921875 C 754.632812 398.675781 736.878906 380.921875 754.632812 398.675781 L 772.386719 380.921875 L 754.632812 363.28125 Z M 92.871094 149.019531 L 110.625 131.265625 L 107.410156 128.15625 L 92.871094 113.621094 L 79.890625 126.605469 L 75.339844 131.152344 C 92.871094 149.019531 75.230469 131.265625 92.871094 149.019531 Z M 485.113281 43.828125 L 467.359375 26.1875 L 449.714844 43.828125 C 467.359375 61.582031 449.714844 43.828125 467.359375 61.582031 Z M 92.871094 236.34375 L 104.523438 224.582031 L 110.402344 218.589844 L 92.761719 200.945312 L 75.007812 218.589844 C 76.117188 219.699219 77.117188 220.695312 78.003906 221.585938 C 90.765625 234.234375 76.230469 219.808594 92.871094 236.34375 Z M 167.769531 149.019531 L 185.523438 131.265625 L 167.878906 113.621094 L 155.007812 126.492188 L 150.238281 131.265625 C 167.769531 149.019531 150.128906 131.265625 167.769531 149.019531 Z M 167.769531 211.375 L 185.414062 193.625 L 167.769531 175.980469 L 150.128906 193.625 C 167.769531 211.375 150.128906 193.625 167.769531 211.375 Z M 19.308594 181.417969 L 35.507812 165.105469 L 20.972656 150.460938 L 17.863281 147.351562 L 0.109375 165.105469 C 17.863281 182.859375 0.109375 165.105469 17.863281 182.859375 Z M 19.308594 181.417969 " fill-opacity="1" fill-rule="nonzero"/><g clip-path="url(#039d0f8ac4)"><g clip-path="url(#5d79f86781)"><g transform="matrix(1, 0, 0, 1, 523, 463)"><g clip-path="url(#ca22c77ebe)"><g clip-path="url(#e5ae19bf45)"><g clip-path="url(#94bd852826)"><path fill="#000000" d="M 0.738281 0.246094 L 24.238281 0.246094 L 24.238281 23.75 L 0.738281 23.75 Z M 0.738281 0.246094 " fill-opacity="1" fill-rule="nonzero"/></g></g></g></g></g></g></svg>