<svg xmlns="http://www.w3.org/2000/svg" xmlns:xlink="http://www.w3.org/1999/xlink" width="1080" zoomAndPan="magnify" viewBox="0 0 810 809.999993" height="1080" preserveAspectRatio="xMidYMid meet" version="1.0"><defs><clipPath id="11cccb719c"><path d="M 580.777344 504.726562 L 604.277344 504.726562 L 604.277344 528.226562 L 580.777344 528.226562 Z M 580.777344 504.726562 " clip-rule="nonzero"/></clipPath><clipPath id="998b0fe20a"><path d="M 592.527344 504.726562 C 586.035156 504.726562 580.777344 509.988281 580.777344 516.476562 C 580.777344 522.96875 586.035156 528.226562 592.527344 528.226562 C 599.015625 528.226562 604.277344 522.96875 604.277344 516.476562 C 604.277344 509.988281 599.015625 504.726562 592.527344 504.726562 Z M 592.527344 504.726562 " clip-rule="nonzero"/></clipPath><clipPath id="eb38005ca1"><path d="M 0.777344 0.726562 L 24.277344 0.726562 L 24.277344 24.226562 L 0.777344 24.226562 Z M 0.777344 0.726562 " clip-rule="nonzero"/></clipPath><clipPath id="6ab8079b87"><path d="M 12.527344 0.726562 C 6.035156 0.726562 0.777344 5.988281 0.777344 12.476562 C 0.777344 18.96875 6.035156 24.226562 12.527344 24.226562 C 19.015625 24.226562 24.277344 18.96875 24.277344 12.476562 C 24.277344 5.988281 19.015625 0.726562 12.527344 0.726562 Z M 12.527344 0.726562 " clip-rule="nonzero"/></clipPath><clipPath id="b2e7a340d4"><rect x="0" width="25" y="0" height="25"/></clipPath></defs><path fill="#000000" d="M 294.625 536.785156 C 294.90625 536.496094 295.214844 536.214844 295.503906 535.949219 C 308.90625 521.09375 320.875 505.15625 331.402344 488.140625 C 341.929688 471.125 350.851562 453.300781 358.167969 434.675781 L 329.523438 441.714844 L 251.074219 460.957031 C 250.949219 461.273438 250.757812 461.574219 250.632812 461.890625 C 250.511719 462.207031 250.449219 462.3125 250.359375 462.523438 C 249.9375 463.570312 249.480469 464.589844 249.015625 465.628906 C 247.976562 467.953125 246.851562 470.25 245.613281 472.535156 C 245.164062 473.371094 244.734375 474.207031 244.257812 475.035156 C 243.886719 475.667969 243.527344 476.304688 243.148438 476.9375 C 241.113281 480.316406 238.90625 483.582031 236.527344 486.730469 L 289.957031 540.175781 C 291.71875 539.332031 293.277344 538.203125 294.625 536.785156 Z M 294.625 536.785156 " fill-opacity="1" fill-rule="nonzero"/><path fill="#000000" d="M 210 512.019531 C 207.363281 513.867188 204.726562 515.714844 202.042969 517.296875 C 200.285156 518.292969 198.578125 519.058594 196.835938 519.9375 C 194.355469 521.1875 191.894531 522.453125 189.386719 523.457031 C 188.910156 523.640625 188.464844 523.933594 187.996094 524.117188 L 161.824219 631.03125 C 163.769531 630.300781 165.703125 629.519531 167.644531 628.746094 C 169.589844 627.96875 171.699219 627.152344 173.722656 626.28125 C 176.097656 625.261719 178.464844 624.132812 180.828125 623.042969 C 182.871094 622.101562 184.902344 621.195312 186.933594 620.199219 C 189.28125 619.046875 191.621094 617.789062 193.96875 616.558594 C 195.984375 615.503906 198.015625 614.480469 200.027344 613.371094 C 202.421875 612.042969 204.796875 610.617188 207.171875 609.226562 C 209.105469 608.09375 211.046875 607.003906 212.972656 605.816406 C 215.488281 604.265625 217.980469 602.613281 220.484375 600.976562 C 222.246094 599.832031 224.003906 598.730469 225.761719 597.550781 C 228.53125 595.660156 231.277344 593.664062 234.019531 591.683594 C 235.460938 590.644531 236.914062 589.660156 238.347656 588.59375 C 241.953125 585.902344 245.515625 583.105469 249.070312 580.253906 C 249.605469 579.8125 250.160156 579.417969 250.695312 578.976562 C 254.800781 575.621094 258.878906 572.160156 262.929688 568.585938 C 263.90625 567.71875 264.785156 566.757812 265.566406 565.710938 L 265.691406 565.585938 C 266.289062 564.753906 266.808594 563.875 267.238281 562.945312 L 213.714844 509.535156 C 212.535156 510.46875 211.234375 511.15625 210 512.019531 Z M 210 512.019531 " fill-opacity="1" fill-rule="nonzero"/><path fill="#000000" d="M 302.285156 575.273438 C 237.777344 639.824219 158.648438 674.304688 94.359375 671.992188 C 96.996094 673.429688 99.664062 674.8125 102.359375 676.140625 C 105.050781 677.472656 107.773438 678.75 110.515625 679.96875 C 113.261719 681.191406 116.03125 682.355469 118.820312 683.464844 C 121.613281 684.574219 124.425781 685.628906 127.261719 686.625 C 130.09375 687.625 132.949219 688.5625 135.820312 689.445312 C 138.691406 690.328125 141.578125 691.152344 144.484375 691.921875 C 147.390625 692.6875 150.308594 693.394531 153.242188 694.042969 C 156.175781 694.695312 159.121094 695.285156 162.078125 695.816406 C 165.035156 696.347656 168 696.820312 170.976562 697.230469 C 173.953125 697.644531 176.933594 697.996094 179.925781 698.289062 C 182.914062 698.582031 185.910156 698.8125 188.910156 698.984375 C 191.90625 699.160156 194.910156 699.269531 197.914062 699.324219 C 200.917969 699.375 203.921875 699.367188 206.925781 699.296875 C 209.925781 699.230469 212.929688 699.101562 215.925781 698.910156 C 218.925781 698.722656 221.917969 698.472656 224.90625 698.164062 C 227.894531 697.855469 230.875 697.484375 233.847656 697.058594 C 236.824219 696.628906 239.785156 696.140625 242.742188 695.59375 C 245.695312 695.042969 248.636719 694.4375 251.566406 693.773438 C 254.496094 693.105469 257.410156 692.382812 260.3125 691.597656 C 263.210938 690.816406 266.09375 689.976562 268.960938 689.078125 C 271.828125 688.179688 274.675781 687.222656 277.503906 686.210938 C 280.332031 685.199219 283.140625 684.128906 285.925781 683.003906 C 288.710938 681.878906 291.472656 680.695312 294.210938 679.460938 C 296.949219 678.222656 299.664062 676.933594 302.347656 675.589844 C 305.035156 674.242188 307.695312 672.84375 310.324219 671.394531 C 312.957031 669.941406 315.554688 668.4375 318.125 666.882812 C 320.695312 665.324219 323.234375 663.71875 325.738281 662.058594 C 328.246094 660.402344 330.71875 658.695312 333.15625 656.9375 C 335.59375 655.179688 337.992188 653.375 340.359375 651.519531 C 342.722656 649.667969 345.050781 647.765625 347.339844 645.820312 C 349.628906 643.871094 351.875 641.878906 354.085938 639.84375 C 356.292969 637.804688 358.460938 635.726562 360.585938 633.601562 C 362.117188 632.070312 363.636719 630.566406 364.984375 628.957031 C 365.117188 628.816406 365.238281 628.664062 365.378906 628.523438 C 369.214844 624.441406 372.8125 620.226562 376.285156 615.960938 C 376.972656 615.078125 377.664062 614.289062 378.335938 613.433594 C 381.636719 609.261719 384.765625 605.011719 387.726562 600.675781 C 388.261719 599.894531 388.773438 599.09375 389.292969 598.300781 C 392.097656 594.085938 394.773438 589.800781 397.261719 585.445312 C 397.488281 585.050781 397.734375 584.671875 397.957031 584.273438 C 400.59375 579.679688 402.914062 575 405.160156 570.277344 C 405.617188 569.316406 406.039062 568.355469 406.511719 567.390625 C 408.648438 562.691406 410.65625 557.957031 412.457031 553.152344 C 412.714844 552.484375 412.933594 551.796875 413.179688 551.121094 C 414.832031 546.566406 416.339844 541.976562 417.699219 537.351562 C 417.894531 536.671875 418.113281 536.003906 418.304688 535.316406 C 419.695312 530.40625 420.875 525.460938 421.921875 520.480469 C 422.132812 519.480469 422.324219 518.476562 422.519531 517.464844 C 423.503906 512.429688 424.355469 507.378906 424.980469 502.304688 C 425.035156 501.890625 425.0625 501.476562 425.113281 501.054688 C 425.683594 496.207031 426.074219 491.375 426.328125 486.464844 C 426.378906 485.585938 426.441406 484.707031 426.476562 483.824219 C 426.675781 478.804688 426.707031 473.777344 426.566406 468.746094 C 426.566406 467.769531 426.496094 466.800781 426.449219 465.824219 C 426.03125 455.441406 424.894531 445.140625 423.039062 434.921875 C 422.863281 433.960938 422.695312 433.003906 422.511719 432.042969 C 421.542969 427.085938 420.40625 422.160156 419.097656 417.261719 C 418.878906 416.382812 418.621094 415.582031 418.386719 414.746094 C 417.058594 409.992188 415.589844 405.269531 413.945312 400.589844 C 413.804688 400.210938 413.6875 399.824219 413.558594 399.433594 C 411.796875 394.570312 409.835938 389.757812 407.734375 384.988281 C 407.320312 384.046875 406.898438 383.097656 406.46875 382.15625 C 404.324219 377.457031 402.070312 372.800781 399.539062 368.226562 L 399.238281 367.707031 C 401.550781 429.554688 369.628906 504.609375 308.988281 568.25 C 306.9375 570.539062 304.609375 572.949219 302.285156 575.273438 Z M 302.285156 575.273438 " fill-opacity="1" fill-rule="nonzero"/><path fill="#000000" d="M 469.957031 95.328125 C 443.53125 82.128906 412.40625 71.9375 400.355469 84.417969 C 399.761719 85.0625 399.105469 85.640625 398.394531 86.15625 C 397.683594 86.667969 396.925781 87.109375 396.128906 87.472656 C 395.328125 87.835938 394.5 88.117188 393.644531 88.316406 C 392.789062 88.511719 391.921875 88.625 391.046875 88.648438 C 390.167969 88.675781 389.296875 88.613281 388.429688 88.460938 C 387.566406 88.3125 386.722656 88.082031 385.902344 87.761719 C 385.085938 87.445312 384.304688 87.050781 383.566406 86.578125 C 382.824219 86.105469 382.140625 85.5625 381.507812 84.953125 C 380.875 84.34375 380.3125 83.675781 379.8125 82.953125 C 379.3125 82.230469 378.890625 81.464844 378.546875 80.65625 C 378.199219 79.847656 377.9375 79.015625 377.757812 78.15625 C 377.578125 77.296875 377.484375 76.425781 377.476562 75.546875 C 377.472656 74.667969 377.554688 73.800781 377.71875 72.9375 C 377.886719 72.074219 378.140625 71.238281 378.472656 70.425781 C 378.808594 69.613281 379.21875 68.839844 379.710938 68.113281 C 380.199219 67.382812 380.753906 66.707031 381.378906 66.089844 C 403.363281 43.28125 442.273438 53.566406 472.683594 67.347656 C 458.480469 47.222656 438.386719 25.226562 413.898438 15.988281 C 411.742188 15.160156 409.550781 14.445312 407.316406 13.847656 C 405.085938 13.25 402.828125 12.769531 400.546875 12.410156 C 398.265625 12.046875 395.96875 11.808594 393.664062 11.6875 C 391.355469 11.566406 389.050781 11.566406 386.742188 11.6875 C 384.433594 11.808594 382.140625 12.046875 379.859375 12.410156 C 377.578125 12.769531 375.320312 13.25 373.089844 13.847656 C 370.855469 14.445312 368.664062 15.160156 366.503906 15.988281 C 364.347656 16.816406 362.242188 17.753906 360.183594 18.800781 C 331.089844 32.414062 309.3125 42.453125 295.335938 48.71875 C 316.488281 69.554688 369.820312 107.433594 469.957031 95.328125 Z M 469.957031 95.328125 " fill-opacity="1" fill-rule="nonzero"/><path fill="#000000" d="M 532.171875 127.566406 C 534.355469 127.566406 536.515625 127.664062 538.679688 127.734375 C 538.039062 119.8125 537.351562 111.796875 536.632812 103.835938 C 536.632812 103.640625 536.613281 103.449219 536.578125 103.253906 C 535.824219 94.964844 535.023438 86.757812 534.203125 78.742188 L 534.203125 78.679688 C 530.898438 46.300781 527.167969 17.386719 524.019531 2.058594 C 515.929688 4.875 507.625 6.710938 499.105469 7.566406 C 512.148438 37.507812 533.5625 92.503906 532.171875 127.566406 Z M 532.171875 127.566406 " fill-opacity="1" fill-rule="nonzero"/><path fill="#000000" d="M 353.882812 315.933594 L 286.445312 383.414062 C 286.113281 383.808594 285.761719 384.195312 285.398438 384.566406 L 252.78125 417.191406 C 252.832031 417.316406 252.839844 417.445312 252.886719 417.570312 C 253.925781 420.292969 254.703125 423.085938 255.214844 425.957031 C 255.261719 426.191406 255.367188 426.394531 255.402344 426.632812 L 359.707031 401.070312 C 360.878906 400.628906 361.988281 400.0625 363.039062 399.375 C 364.089844 398.6875 365.050781 397.898438 365.929688 397 C 366.804688 396.105469 367.578125 395.125 368.238281 394.058594 C 368.902344 392.996094 369.445312 391.871094 369.863281 390.6875 C 374.550781 359.636719 370.382812 332.878906 357.808594 312.933594 C 356.355469 313.746094 355.046875 314.746094 353.882812 315.933594 Z M 353.882812 315.933594 " fill-opacity="1" fill-rule="nonzero"/><path fill="#000000" d="M 202.824219 424.519531 C 200.890625 425.089844 198.992188 425.765625 197.136719 426.546875 C 196.335938 426.863281 195.5625 427.027344 194.769531 427.425781 C 192.90625 428.253906 191.039062 429.34375 189.175781 430.390625 C 188.296875 430.867188 187.476562 431.21875 186.632812 431.738281 C 185.789062 432.253906 184.832031 433.039062 183.925781 433.65625 C 179.34375 436.710938 175.101562 440.183594 171.199219 444.074219 C 169.609375 445.65625 168.210938 447.347656 166.800781 449.007812 C 166.027344 449.886719 165.15625 450.769531 164.425781 451.648438 C 163.179688 453.207031 162.148438 454.824219 161.050781 456.425781 C 160.300781 457.515625 159.449219 458.582031 158.761719 459.683594 C 158 460.941406 157.433594 462.207031 156.757812 463.464844 C 155.964844 464.953125 155.078125 466.429688 154.425781 467.910156 C 153.96875 468.945312 153.722656 469.949219 153.335938 470.980469 C 152.664062 472.664062 152.074219 474.382812 151.578125 476.128906 L 151.480469 476.585938 C 150.933594 478 150.5625 479.457031 150.367188 480.960938 C 150.167969 482.460938 150.152344 483.96875 150.316406 485.476562 C 150.476562 486.980469 150.816406 488.449219 151.332031 489.875 C 151.84375 491.300781 152.519531 492.644531 153.355469 493.910156 C 154.621094 494.746094 155.964844 495.421875 157.390625 495.933594 C 158.816406 496.449219 160.28125 496.789062 161.789062 496.953125 C 163.296875 497.117188 164.800781 497.101562 166.304688 496.90625 C 167.804688 496.714844 169.265625 496.34375 170.679688 495.800781 C 175.210938 494.554688 179.5625 492.851562 183.734375 490.6875 C 187.90625 488.527344 191.808594 485.957031 195.4375 482.972656 C 198.121094 480.839844 200.671875 478.554688 203.089844 476.117188 C 207.894531 471.367188 212.066406 466.113281 215.613281 460.359375 L 215.699219 460.226562 C 218.933594 455.050781 221.320312 449.507812 222.859375 443.597656 C 223.582031 441.246094 223.941406 438.84375 223.941406 436.386719 C 223.941406 433.929688 223.582031 431.527344 222.859375 429.175781 C 222.433594 428.078125 221.8125 427.109375 220.996094 426.261719 C 220.113281 425.480469 219.128906 424.855469 218.042969 424.394531 C 216.953125 423.929688 215.824219 423.652344 214.644531 423.5625 C 214.441406 423.5625 214.300781 423.457031 214.101562 423.429688 C 213.632812 423.429688 213.0625 423.429688 212.570312 423.429688 C 209.554688 423.332031 206.585938 423.652344 203.660156 424.390625 Z M 202.824219 424.519531 " fill-opacity="1" fill-rule="nonzero"/><path fill="#000000" d="M 529.359375 153.894531 C 524.363281 153.886719 519.371094 154.023438 514.386719 154.304688 C 509.398438 154.585938 504.425781 155.015625 499.460938 155.585938 C 494.5 156.15625 489.558594 156.871094 484.640625 157.726562 C 479.71875 158.585938 474.828125 159.585938 469.964844 160.726562 C 465.101562 161.867188 460.277344 163.148438 455.488281 164.570312 C 450.699219 165.992188 445.957031 167.550781 441.257812 169.246094 C 436.558594 170.945312 431.914062 172.773438 427.324219 174.742188 C 422.730469 176.707031 418.199219 178.804688 413.730469 181.035156 C 409.257812 183.261719 404.855469 185.621094 400.523438 188.105469 C 396.191406 190.589844 391.929688 193.195312 387.75 195.929688 C 383.566406 198.660156 379.464844 201.507812 375.449219 204.480469 C 371.433594 207.449219 367.503906 210.53125 363.664062 213.730469 C 359.828125 216.925781 356.082031 220.230469 352.4375 223.644531 C 348.789062 227.0625 345.246094 230.578125 341.800781 234.199219 C 338.359375 237.816406 335.023438 241.535156 331.796875 245.347656 C 328.566406 249.160156 325.453125 253.066406 322.453125 257.058594 C 326.378906 258.421875 330.226562 259.984375 333.992188 261.75 L 334.050781 261.75 C 345.710938 267.148438 356.09375 274.378906 365.195312 283.449219 C 367.304688 285.664062 368.96875 287.441406 370.472656 289.195312 L 370.78125 289.484375 C 373.285156 291.746094 376.207031 294.492188 379.144531 297.402344 C 382.082031 300.316406 384.964844 303.378906 387.746094 306.441406 C 388.625 307.453125 389.503906 308.488281 390.382812 309.511719 C 392.210938 311.585938 394.042969 313.65625 395.792969 315.777344 C 396.804688 317.007812 397.753906 318.273438 398.746094 319.523438 C 400.285156 321.476562 401.851562 323.421875 403.335938 325.402344 C 404.347656 326.757812 405.289062 328.148438 406.273438 329.519531 C 407.648438 331.429688 409.027344 333.339844 410.339844 335.273438 C 411.316406 336.726562 412.230469 338.203125 413.179688 339.671875 C 414.402344 341.582031 415.640625 343.472656 416.8125 345.410156 C 417.734375 346.921875 418.570312 348.453125 419.449219 349.976562 C 420.558594 351.902344 421.675781 353.8125 422.730469 355.757812 C 423.609375 357.324219 424.382812 358.90625 425.191406 360.484375 C 426.195312 362.425781 427.199219 364.363281 428.148438 366.316406 C 428.921875 367.925781 429.652344 369.554688 430.398438 371.171875 C 431.277344 373.125 432.160156 375.089844 433.039062 377.058594 C 433.742188 378.714844 434.402344 380.367188 435.070312 382.03125 C 435.859375 384.003906 436.644531 385.972656 437.382812 387.960938 C 438.007812 389.652344 438.597656 391.359375 439.140625 393.054688 C 439.835938 395.035156 440.511719 397.023438 441.148438 399.011719 C 441.699219 400.773438 442.210938 402.460938 442.722656 404.195312 C 443.308594 406.195312 443.875 408.195312 444.425781 410.195312 C 444.902344 411.957031 445.304688 413.714844 445.773438 415.476562 C 446.257812 417.480469 446.730469 419.488281 447.171875 421.511719 C 447.558594 423.273438 447.925781 425.03125 448.269531 426.792969 C 448.667969 428.816406 449.042969 430.839844 449.386719 432.863281 C 449.695312 434.621094 449.976562 436.425781 450.265625 438.210938 C 450.566406 440.253906 450.839844 442.285156 451.09375 444.371094 C 451.3125 446.132812 451.523438 447.953125 451.699219 449.757812 C 451.910156 451.789062 452.078125 453.832031 452.238281 455.863281 C 452.367188 457.675781 452.5 459.488281 452.597656 461.300781 C 452.710938 463.332031 452.78125 465.367188 452.84375 467.40625 C 452.894531 469.21875 452.949219 471.03125 452.964844 472.855469 C 452.964844 474.894531 452.964844 476.925781 452.914062 478.96875 C 452.914062 480.78125 452.859375 482.601562 452.789062 484.414062 C 452.710938 486.457031 452.578125 488.488281 452.457031 490.574219 C 452.34375 492.335938 452.238281 494.191406 452.078125 495.996094 C 451.902344 498.035156 451.675781 500.085938 451.453125 502.152344 C 451.25 503.914062 451.066406 505.742188 450.828125 507.53125 C 450.566406 509.582031 450.230469 511.613281 449.949219 513.691406 C 449.675781 515.449219 449.414062 517.210938 449.070312 519.023438 C 448.703125 521.082031 448.261719 523.128906 447.839844 525.179688 C 447.480469 526.941406 447.144531 528.699219 446.75 530.398438 C 446.28125 532.464844 445.738281 534.527344 445.210938 536.558594 C 444.769531 538.265625 444.332031 539.972656 443.890625 541.671875 C 443.308594 543.773438 442.652344 545.847656 442.007812 547.933594 C 441.507812 549.570312 441.042969 551.21875 440.503906 552.84375 C 439.773438 555.070312 438.949219 557.246094 438.15625 559.488281 C 437.621094 560.949219 437.136719 562.425781 436.582031 563.886719 C 435.535156 566.613281 434.390625 569.316406 433.25 572.019531 C 432.863281 572.941406 432.519531 573.867188 432.113281 574.78125 C 430.539062 578.371094 428.878906 581.929688 427.136719 585.453125 C 426.519531 586.683594 425.851562 587.882812 425.21875 589.105469 C 424.03125 591.410156 422.84375 593.722656 421.578125 596.011719 C 420.796875 597.410156 419.949219 598.785156 419.140625 600.164062 C 417.9375 602.234375 416.757812 604.308594 415.492188 606.324219 C 414.613281 607.792969 413.601562 609.238281 412.652344 610.722656 C 411.402344 612.652344 410.171875 614.578125 408.859375 616.480469 C 407.847656 617.949219 406.777344 619.390625 405.722656 620.878906 C 404.394531 622.726562 403.082031 624.574219 401.691406 626.386719 C 400.585938 627.839844 399.414062 629.261719 398.273438 630.707031 C 397.128906 632.148438 396.074219 633.539062 394.921875 634.921875 C 399.175781 637.496094 403.503906 639.949219 407.898438 642.273438 C 412.296875 644.601562 416.753906 646.800781 421.277344 648.871094 C 425.800781 650.941406 430.382812 652.878906 435.015625 654.683594 C 439.652344 656.492188 444.332031 658.160156 449.0625 659.699219 C 453.796875 661.234375 458.566406 662.632812 463.378906 663.894531 C 468.1875 665.15625 473.03125 666.277344 477.910156 667.257812 C 482.785156 668.242188 487.683594 669.082031 492.609375 669.78125 C 497.535156 670.484375 502.472656 671.039062 507.429688 671.457031 C 512.386719 671.871094 517.351562 672.144531 522.324219 672.273438 C 527.296875 672.402344 532.265625 672.386719 537.238281 672.230469 C 542.210938 672.074219 547.171875 671.773438 552.128906 671.332031 C 557.082031 670.886719 562.019531 670.300781 566.9375 669.574219 C 571.859375 668.847656 576.753906 667.980469 581.625 666.96875 C 586.496094 665.960938 591.332031 664.8125 596.136719 663.523438 C 600.941406 662.234375 605.703125 660.808594 610.425781 659.246094 C 615.148438 657.683594 619.824219 655.988281 624.445312 654.15625 C 629.070312 652.324219 633.640625 650.359375 638.152344 648.265625 C 642.664062 646.167969 647.109375 643.945312 651.492188 641.59375 C 655.878906 639.242188 660.1875 636.765625 664.429688 634.167969 C 668.671875 631.566406 672.835938 628.847656 676.917969 626.007812 C 681.003906 623.167969 685.003906 620.214844 688.917969 617.144531 C 692.832031 614.074219 696.65625 610.894531 700.386719 607.601562 C 704.117188 604.3125 707.75 600.917969 711.285156 597.417969 C 714.824219 593.917969 718.253906 590.320312 721.582031 586.621094 C 724.914062 582.925781 728.132812 579.132812 731.242188 575.25 C 734.355469 571.367188 737.351562 567.398438 740.230469 563.34375 C 743.113281 559.289062 745.878906 555.152344 748.523438 550.9375 C 751.167969 546.722656 753.6875 542.4375 756.085938 538.078125 C 758.480469 533.714844 760.75 529.292969 762.894531 524.800781 C 765.035156 520.308594 767.046875 515.761719 768.929688 511.152344 C 770.808594 506.546875 772.558594 501.890625 774.171875 497.183594 C 775.78125 492.476562 777.257812 487.726562 778.597656 482.933594 C 779.9375 478.140625 781.136719 473.3125 782.199219 468.453125 C 783.261719 463.589844 784.183594 458.703125 784.960938 453.789062 C 785.742188 448.875 786.378906 443.941406 786.875 438.988281 C 787.371094 434.039062 787.726562 429.078125 787.9375 424.105469 C 788.148438 419.132812 788.214844 414.160156 788.140625 409.183594 C 788.0625 404.207031 787.84375 399.238281 787.484375 394.277344 C 787.121094 389.3125 786.617188 384.363281 785.972656 379.429688 C 785.324219 374.496094 784.535156 369.585938 783.609375 364.695312 C 782.679688 359.808594 781.609375 354.949219 780.402344 350.125 C 779.191406 345.296875 777.84375 340.507812 776.359375 335.757812 C 774.875 331.007812 773.257812 326.304688 771.5 321.652344 C 769.746094 316.996094 767.859375 312.394531 765.839844 307.84375 C 763.820312 303.296875 761.667969 298.8125 759.390625 294.390625 C 757.113281 289.964844 754.710938 285.609375 752.179688 281.328125 C 749.652344 277.042969 747.003906 272.832031 744.230469 268.699219 C 741.460938 264.566406 738.574219 260.519531 735.566406 256.550781 C 732.5625 252.585938 729.449219 248.710938 726.222656 244.925781 C 722.992188 241.136719 719.660156 237.445312 716.21875 233.851562 C 712.78125 230.257812 709.242188 226.765625 705.601562 223.375 C 701.960938 219.984375 698.222656 216.703125 694.394531 213.527344 C 690.566406 210.351562 686.648438 207.289062 682.640625 204.339844 C 678.636719 201.390625 674.546875 198.558594 670.378906 195.84375 C 666.210938 193.128906 661.964844 190.539062 657.648438 188.070312 C 653.328125 185.597656 648.945312 183.253906 644.492188 181.039062 C 640.039062 178.820312 635.527344 176.734375 630.953125 174.777344 C 626.378906 172.820312 621.753906 170.996094 617.074219 169.308594 C 612.398438 167.617188 607.675781 166.0625 602.90625 164.644531 C 598.140625 163.226562 593.335938 161.945312 588.492188 160.804688 C 583.652344 159.664062 578.78125 158.664062 573.882812 157.800781 C 568.984375 156.941406 564.066406 156.222656 559.125 155.644531 C 554.183594 155.066406 549.230469 154.632812 544.265625 154.339844 C 539.300781 154.046875 534.332031 153.898438 529.359375 153.894531 Z M 671.210938 404.414062 C 671.386719 403.566406 671.652344 402.746094 672.011719 401.953125 C 672.296875 401.121094 672.707031 400.359375 673.242188 399.664062 C 673.691406 398.933594 674.21875 398.257812 674.816406 397.640625 C 675.453125 397.039062 676.132812 396.480469 676.847656 395.96875 C 677.566406 395.5 678.328125 395.117188 679.132812 394.824219 C 679.925781 394.46875 680.746094 394.203125 681.597656 394.03125 C 683.324219 393.675781 685.054688 393.675781 686.785156 394.03125 C 687.628906 394.230469 688.449219 394.492188 689.246094 394.824219 C 690.027344 395.117188 690.757812 395.5 691.445312 395.96875 C 692.179688 396.457031 692.851562 397.015625 693.46875 397.640625 C 694.707031 398.878906 695.660156 400.304688 696.332031 401.917969 C 697 403.535156 697.335938 405.21875 697.339844 406.96875 C 697.34375 407.828125 697.253906 408.679688 697.074219 409.519531 C 696.933594 410.367188 696.699219 411.1875 696.371094 411.984375 C 696.03125 412.785156 695.621094 413.546875 695.140625 414.269531 C 694.648438 415 694.09375 415.675781 693.46875 416.292969 C 692.238281 417.539062 690.8125 418.496094 689.199219 419.167969 C 687.582031 419.839844 685.898438 420.171875 684.148438 420.164062 C 683.289062 420.164062 682.4375 420.078125 681.597656 419.902344 C 680.761719 419.722656 679.9375 419.484375 679.132812 419.199219 C 678.34375 418.839844 677.582031 418.429688 676.847656 417.964844 C 676.132812 417.453125 675.453125 416.898438 674.816406 416.292969 C 674.195312 415.695312 673.671875 415.019531 673.242188 414.269531 C 672.6875 413.585938 672.277344 412.824219 672.011719 411.984375 C 671.652344 411.191406 671.386719 410.371094 671.210938 409.519531 C 671.035156 408.675781 670.953125 407.828125 670.953125 406.96875 C 670.957031 406.109375 671.042969 405.257812 671.210938 404.414062 Z M 697.074219 493.109375 C 696.933594 493.984375 696.699219 494.835938 696.371094 495.660156 C 696.011719 496.421875 695.601562 497.15625 695.140625 497.859375 C 694.648438 498.589844 694.09375 499.265625 693.46875 499.882812 C 692.851562 500.511719 692.179688 501.066406 691.445312 501.554688 C 690.742188 502.019531 690.007812 502.429688 689.246094 502.789062 C 688.367188 503.050781 687.578125 503.316406 686.785156 503.492188 C 685.914062 503.667969 685.035156 503.753906 684.144531 503.753906 C 683.289062 503.753906 682.4375 503.667969 681.597656 503.492188 C 680.761719 503.3125 679.9375 503.074219 679.132812 502.789062 C 678.34375 502.429688 677.582031 502.019531 676.847656 501.554688 C 676.132812 501.042969 675.453125 500.488281 674.816406 499.882812 C 674.195312 499.285156 673.671875 498.609375 673.242188 497.859375 C 672.707031 497.195312 672.296875 496.464844 672.007812 495.660156 C 671.652344 494.839844 671.386719 493.988281 671.210938 493.109375 C 671.035156 492.265625 670.953125 491.417969 670.953125 490.558594 C 670.957031 489.699219 671.042969 488.847656 671.210938 488.003906 C 671.386719 487.15625 671.652344 486.335938 672.007812 485.542969 C 672.296875 484.710938 672.707031 483.949219 673.242188 483.253906 C 674.140625 481.746094 675.339844 480.546875 676.847656 479.648438 C 677.542969 479.113281 678.304688 478.703125 679.132812 478.414062 C 679.925781 478.054688 680.746094 477.792969 681.597656 477.621094 C 682.65625 477.410156 683.730469 477.328125 684.808594 477.378906 C 685.890625 477.429688 686.949219 477.613281 687.988281 477.929688 C 689.023438 478.242188 690.003906 478.679688 690.933594 479.238281 C 691.859375 479.796875 692.707031 480.460938 693.46875 481.230469 C 694.070312 481.867188 694.628906 482.542969 695.140625 483.253906 C 695.601562 483.988281 696.011719 484.75 696.371094 485.542969 C 696.699219 486.335938 696.933594 487.15625 697.074219 488.003906 C 697.25 488.847656 697.339844 489.699219 697.339844 490.558594 C 697.34375 491.417969 697.253906 492.269531 697.074219 493.109375 Z M 720.558594 444.539062 C 721.015625 445.273438 721.425781 446.035156 721.78125 446.828125 C 722.152344 447.609375 722.386719 448.429688 722.484375 449.289062 C 722.691406 450.128906 722.808594 450.980469 722.835938 451.84375 C 722.816406 452.707031 722.699219 453.554688 722.484375 454.394531 C 722.375 455.28125 722.140625 456.128906 721.78125 456.945312 C 721.425781 457.707031 721.015625 458.441406 720.558594 459.144531 C 720.097656 459.898438 719.539062 460.574219 718.886719 461.167969 C 718.300781 461.796875 717.65625 462.351562 716.949219 462.839844 C 716.214844 463.300781 715.453125 463.710938 714.664062 464.074219 C 713.871094 464.335938 712.984375 464.601562 712.191406 464.777344 C 710.464844 465.132812 708.738281 465.132812 707.011719 464.777344 C 706.175781 464.59375 705.351562 464.359375 704.542969 464.074219 C 703.753906 463.710938 702.996094 463.300781 702.265625 462.839844 C 701.546875 462.332031 700.875 461.777344 700.242188 461.167969 C 699.644531 460.546875 699.113281 459.871094 698.648438 459.144531 C 698.160156 458.457031 697.75 457.726562 697.425781 456.945312 C 697.078125 456.121094 696.816406 455.269531 696.636719 454.394531 C 696.453125 453.554688 696.363281 452.703125 696.371094 451.84375 C 696.367188 450.980469 696.457031 450.132812 696.636719 449.289062 C 696.800781 448.4375 697.066406 447.617188 697.425781 446.828125 C 697.75 446.019531 698.15625 445.257812 698.648438 444.539062 C 699.132812 443.828125 699.664062 443.152344 700.242188 442.515625 C 700.875 441.90625 701.546875 441.351562 702.265625 440.84375 C 702.980469 440.375 703.738281 439.996094 704.542969 439.699219 C 705.335938 439.34375 706.160156 439.078125 707.011719 438.90625 C 708.074219 438.695312 709.144531 438.613281 710.226562 438.664062 C 711.308594 438.71875 712.367188 438.898438 713.402344 439.214844 C 714.441406 439.53125 715.421875 439.964844 716.347656 440.523438 C 717.277344 441.082031 718.121094 441.746094 718.886719 442.515625 C 719.515625 443.128906 720.074219 443.804688 720.558594 444.539062 Z M 720.558594 444.539062 " fill-opacity="1" fill-rule="nonzero"/><path fill="#000000" d="M 123.074219 459.1875 C 123.257812 458.714844 123.558594 458.246094 123.742188 457.773438 C 124.746094 455.265625 126.011719 452.808594 127.261719 450.328125 C 128.140625 448.570312 128.914062 446.808594 129.898438 445.09375 C 131.429688 442.453125 133.222656 439.9375 135.007812 437.386719 C 135.886719 436.074219 136.664062 434.691406 137.648438 433.398438 L 84.203125 379.9375 C 83.695312 380.183594 83.207031 380.460938 82.734375 380.765625 C 82.433594 380.957031 82.167969 381.070312 81.851562 381.308594 C 80.71875 382.125 79.691406 383.054688 78.765625 384.097656 C 75.191406 388.140625 71.722656 392.226562 68.363281 396.355469 C 67.234375 397.738281 66.191406 399.152344 65.089844 400.542969 C 62.910156 403.308594 60.691406 406.0625 58.625 408.851562 C 57.378906 410.53125 56.214844 412.238281 54.992188 413.9375 C 53.171875 416.46875 51.316406 418.996094 49.585938 421.554688 C 48.363281 423.316406 47.226562 425.171875 46.066406 426.984375 C 44.449219 429.464844 42.804688 431.9375 41.265625 434.429688 C 40.105469 436.3125 39.050781 438.203125 37.941406 440.085938 C 36.5 442.53125 35.03125 444.96875 33.675781 447.425781 C 32.601562 449.351562 31.636719 451.289062 30.625 453.214844 C 29.339844 455.652344 28.039062 458.082031 26.832031 460.519531 C 25.875 462.472656 25.011719 464.433594 24.097656 466.386719 C 22.980469 468.804688 21.835938 471.21875 20.800781 473.636719 C 19.921875 475.644531 19.164062 477.648438 18.355469 479.664062 C 17.546875 481.679688 16.808594 483.507812 16.085938 485.425781 L 29.777344 482.066406 Z M 123.074219 459.1875 " fill-opacity="1" fill-rule="nonzero"/><path fill="#000000" d="M 657.453125 80.261719 C 645.539062 66.714844 596.664062 75.027344 561.644531 86.019531 C 561.828125 87.980469 562.011719 90.054688 562.199219 92.097656 C 672.484375 123.667969 738.972656 86.605469 765.359375 65.949219 C 752.605469 59.304688 733.484375 49.132812 708.394531 35.636719 C 657.683594 8.359375 605.566406 34.464844 577.050781 54.289062 C 610.472656 46.125 657.269531 40.050781 677.3125 62.832031 C 677.90625 63.480469 678.429688 64.179688 678.886719 64.929688 C 679.339844 65.683594 679.714844 66.472656 680.011719 67.296875 C 680.308594 68.125 680.523438 68.972656 680.648438 69.84375 C 680.777344 70.710938 680.816406 71.585938 680.769531 72.460938 C 680.722656 73.339844 680.589844 74.203125 680.371094 75.054688 C 680.152344 75.90625 679.851562 76.726562 679.46875 77.515625 C 679.085938 78.308594 678.628906 79.050781 678.097656 79.75 C 677.566406 80.449219 676.96875 81.089844 676.308594 81.671875 C 675.652344 82.25 674.941406 82.761719 674.179688 83.199219 C 673.417969 83.636719 672.621094 83.996094 671.789062 84.273438 C 670.957031 84.554688 670.105469 84.75 669.234375 84.855469 C 668.363281 84.964844 667.488281 84.988281 666.613281 84.921875 C 665.738281 84.855469 664.875 84.707031 664.03125 84.46875 C 663.1875 84.230469 662.371094 83.910156 661.589844 83.511719 C 660.808594 83.113281 660.074219 82.636719 659.386719 82.089844 C 658.699219 81.542969 658.074219 80.933594 657.507812 80.261719 Z M 657.453125 80.261719 " fill-opacity="1" fill-rule="nonzero"/><path fill="#000000" d="M 221.628906 392.019531 C 222.957031 392.273438 224.265625 392.597656 225.515625 392.960938 C 226.332031 393.1875 227.152344 393.410156 227.953125 393.679688 C 228.515625 393.875 229.078125 394.058594 229.632812 394.269531 C 229.730469 394.269531 229.84375 394.324219 229.949219 394.359375 L 261.488281 362.804688 C 261.820312 362.402344 262.171875 362.015625 262.542969 361.644531 L 331.054688 293.109375 L 331.113281 293.046875 C 332.273438 291.914062 333.261719 290.652344 334.078125 289.253906 C 329.101562 286.207031 323.878906 283.675781 318.402344 281.660156 C 312.925781 279.648438 307.304688 278.191406 301.539062 277.289062 C 286.5 274.714844 271.457031 274.691406 256.410156 277.21875 C 255.265625 277.613281 254.175781 278.125 253.136719 278.757812 C 252.101562 279.386719 251.144531 280.117188 250.261719 280.953125 C 249.382812 281.789062 248.601562 282.707031 247.917969 283.707031 C 247.234375 284.710938 246.664062 285.773438 246.210938 286.898438 C 246.167969 287.066406 246.140625 287.230469 246.097656 287.390625 L 220.511719 391.746094 L 220.582031 391.746094 C 220.953125 391.824219 221.285156 391.921875 221.628906 392.019531 Z M 221.628906 392.019531 " fill-opacity="1" fill-rule="nonzero"/><path fill="#000000" d="M 20.226562 604.117188 L 94.199219 530.207031 L 121.464844 502.929688 C 121.410156 502.804688 121.402344 502.65625 121.351562 502.523438 C 120.34375 499.851562 119.589844 497.109375 119.082031 494.296875 C 119.027344 494.015625 118.90625 493.769531 118.863281 493.496094 L 14.511719 519.046875 L 14.222656 519.109375 C 13.511719 519.363281 12.835938 519.691406 12.199219 520.09375 C 11.75 520.3125 11.316406 520.550781 10.898438 520.816406 C 10.261719 521.304688 9.652344 521.828125 9.078125 522.382812 C 8.671875 522.753906 8.242188 523.078125 7.871094 523.472656 C 7.324219 524.082031 6.816406 524.726562 6.351562 525.402344 C 6.085938 525.769531 5.742188 526.132812 5.523438 526.492188 C 4.960938 527.324219 4.578125 528.234375 4.371094 529.21875 C -0.324219 560.316406 3.835938 587.089844 16.402344 607.054688 C 17.8125 606.25 19.085938 605.269531 20.226562 604.117188 Z M 20.226562 604.117188 " fill-opacity="1" fill-rule="nonzero"/><path fill="#000000" d="M 117.753906 642.796875 C 118.925781 642.402344 120.039062 641.882812 121.09375 641.242188 C 122.152344 640.597656 123.125 639.847656 124.015625 638.992188 C 124.90625 638.136719 125.695312 637.191406 126.375 636.160156 C 127.058594 635.128906 127.621094 634.035156 128.0625 632.878906 C 128.148438 632.519531 128.253906 632.167969 128.367188 631.824219 L 128.367188 631.71875 L 146.40625 558.222656 L 153.722656 528.304688 L 153.582031 528.304688 C 150.492188 527.773438 147.484375 526.941406 144.558594 525.804688 C 144.472656 525.804688 144.367188 525.804688 144.277344 525.726562 L 43.09375 626.851562 C 41.898438 628.042969 40.886719 629.375 40.058594 630.847656 C 44.21875 633.289062 48.53125 635.417969 52.992188 637.242188 C 57.457031 639.066406 62.027344 640.5625 66.707031 641.734375 C 71.382812 642.90625 76.117188 643.738281 80.914062 644.230469 C 85.710938 644.722656 90.519531 644.871094 95.335938 644.679688 C 102.851562 644.570312 110.324219 643.945312 117.753906 642.796875 Z M 117.753906 642.796875 " fill-opacity="1" fill-rule="nonzero"/><path fill="#000000" d="M 164.226562 408.085938 C 166.863281 406.226562 169.503906 404.378906 172.191406 402.804688 C 173.882812 401.828125 175.597656 401.046875 177.3125 400.164062 C 179.808594 398.90625 182.296875 397.632812 184.832031 396.644531 C 185.304688 396.453125 185.761719 396.152344 186.238281 395.976562 L 202.535156 329.492188 L 212.464844 288.972656 C 193.847656 296.25 176.042969 305.144531 159.046875 315.664062 C 142.050781 326.183594 126.140625 338.152344 111.324219 351.570312 C 110.25 352.511719 109.296875 353.5625 108.457031 354.71875 C 108.210938 355.054688 108.097656 355.316406 107.902344 355.597656 C 107.582031 356.074219 107.289062 356.566406 107.023438 357.078125 L 160.46875 410.546875 C 161.683594 409.640625 162.984375 408.957031 164.226562 408.085938 Z M 164.226562 408.085938 " fill-opacity="1" fill-rule="nonzero"/><g clip-path="url(#11cccb719c)"><g clip-path="url(#998b0fe20a)"><g transform="matrix(1, 0, 0, 1, 580, 504)"><g clip-path="url(#b2e7a340d4)"><g clip-path="url(#eb38005ca1)"><g clip-path="url(#6ab8079b87)"><path fill="#000000" d="M 0.777344 0.726562 L 24.277344 0.726562 L 24.277344 24.226562 L 0.777344 24.226562 Z M 0.777344 0.726562 " fill-opacity="1" fill-rule="nonzero"/></g></g></g></g></g></g></svg>