<svg xmlns="http://www.w3.org/2000/svg" xmlns:xlink="http://www.w3.org/1999/xlink" width="1080" zoomAndPan="magnify" viewBox="0 0 810 809.999993" height="1080" preserveAspectRatio="xMidYMid meet" version="1.0"><defs><clipPath id="ca7a622d96"><path d="M 393.25 419.417969 L 416.75 419.417969 L 416.75 442.917969 L 393.25 442.917969 Z M 393.25 419.417969 " clip-rule="nonzero"/></clipPath><clipPath id="d02f96900b"><path d="M 405 419.417969 C 398.511719 419.417969 393.25 424.679688 393.25 431.167969 C 393.25 437.65625 398.511719 442.917969 405 442.917969 C 411.488281 442.917969 416.75 437.65625 416.75 431.167969 C 416.75 424.679688 411.488281 419.417969 405 419.417969 Z M 405 419.417969 " clip-rule="nonzero"/></clipPath><clipPath id="95e8c2d67d"><path d="M 0.25 0.417969 L 23.75 0.417969 L 23.75 23.917969 L 0.25 23.917969 Z M 0.25 0.417969 " clip-rule="nonzero"/></clipPath><clipPath id="d1bc296cdc"><path d="M 12 0.417969 C 5.511719 0.417969 0.25 5.679688 0.25 12.167969 C 0.25 18.65625 5.511719 23.917969 12 23.917969 C 18.488281 23.917969 23.75 18.65625 23.75 12.167969 C 23.75 5.679688 18.488281 0.417969 12 0.417969 Z M 12 0.417969 " clip-rule="nonzero"/></clipPath><clipPath id="d852b566e4"><rect x="0" width="24" y="0" height="24"/></clipPath></defs><path fill="#000000" d="M 545.90625 261.875 C 501.960938 254.199219 457.058594 261.683594 418.296875 282.402344 C 416.378906 263.792969 411.773438 246.335938 404.289062 229.835938 C 526.523438 207.386719 589.847656 136.976562 592.726562 19.75 C 592.726562 14.570312 590.808594 9.390625 587.160156 5.746094 C 583.515625 2.101562 578.335938 -0.394531 573.152344 0.183594 C 460.511719 2.867188 391.046875 61.960938 365.910156 175.15625 C 347.105469 156.160156 323.886719 139.085938 295.292969 123.929688 C 285.890625 118.941406 274.378906 122.585938 269.386719 131.988281 C 264.398438 141.390625 268.046875 152.898438 277.449219 157.886719 C 339.046875 190.3125 372.625 230.792969 379.726562 281.253906 C 341.539062 261.492188 297.789062 254.390625 254.804688 261.875 C 202.800781 271.085938 157.707031 299.863281 127.386719 343.222656 C 97.261719 386.390625 85.75 438.765625 94.957031 490.761719 C 116.449219 612.011719 179.390625 727.320312 251.734375 777.777344 C 284.738281 800.800781 319.089844 810.007812 351.132812 804.253906 C 368.597656 801.183594 385.097656 793.507812 400.449219 781.804688 C 415.417969 793.507812 432.113281 800.992188 449.765625 804.253906 C 455.90625 805.40625 462.238281 805.980469 468.574219 805.980469 C 494.863281 805.980469 522.300781 796.386719 548.78125 777.96875 C 621.125 727.511719 684.257812 612.207031 705.941406 490.761719 C 724.941406 383.511719 653.171875 280.867188 546.097656 261.875 Z M 302.011719 372 C 271.691406 371.234375 245.019531 382.550781 228.324219 403.65625 C 208.941406 428.023438 203.570312 463.898438 213.355469 502.078125 C 216.042969 512.441406 209.902344 522.800781 199.539062 525.484375 C 198.003906 525.871094 196.277344 526.0625 194.742188 526.0625 C 186.109375 526.0625 178.433594 520.304688 176.128906 511.671875 C 163.273438 461.789062 171.332031 413.824219 198.195312 379.867188 C 222.566406 349.167969 259.792969 332.863281 302.777344 333.628906 C 313.332031 333.820312 321.773438 342.648438 321.582031 353.199219 C 321.390625 363.75 312.757812 372.382812 302.011719 372 Z M 553.003906 39.898438 C 544.371094 124.503906 495.628906 173.238281 401.410156 191.464844 C 419.640625 97.261719 468.378906 48.53125 553.003906 39.898438 Z M 553.003906 39.898438 " fill-opacity="1" fill-rule="nonzero"/><g clip-path="url(#ca7a622d96)"><g clip-path="url(#d02f96900b)"><g transform="matrix(1, 0, 0, 1, 393, 419)"><g clip-path="url(#d852b566e4)"><g clip-path="url(#95e8c2d67d)"><g clip-path="url(#d1bc296cdc)"><path fill="#000000" d="M 0.25 0.417969 L 23.75 0.417969 L 23.75 23.917969 L 0.25 23.917969 Z M 0.25 0.417969 " fill-opacity="1" fill-rule="nonzero"/></g></g></g></g></g></g></svg>