<svg xmlns="http://www.w3.org/2000/svg" xmlns:xlink="http://www.w3.org/1999/xlink" width="1080" zoomAndPan="magnify" viewBox="0 0 810 809.999993" height="1080" preserveAspectRatio="xMidYMid meet" version="1.0"><defs><clipPath id="06ea0bfa25"><path d="M 627.441406 660.28125 L 650.941406 660.28125 L 650.941406 683.78125 L 627.441406 683.78125 Z M 627.441406 660.28125 " clip-rule="nonzero"/></clipPath><clipPath id="9e3760e19c"><path d="M 639.191406 660.28125 C 632.703125 660.28125 627.441406 665.539062 627.441406 672.03125 C 627.441406 678.519531 632.703125 683.78125 639.191406 683.78125 C 645.679688 683.78125 650.941406 678.519531 650.941406 672.03125 C 650.941406 665.539062 645.679688 660.28125 639.191406 660.28125 Z M 639.191406 660.28125 " clip-rule="nonzero"/></clipPath><clipPath id="53dd74529c"><path d="M 0.441406 0.28125 L 23.941406 0.28125 L 23.941406 23.78125 L 0.441406 23.78125 Z M 0.441406 0.28125 " clip-rule="nonzero"/></clipPath><clipPath id="3cf6fed257"><path d="M 12.191406 0.28125 C 5.703125 0.28125 0.441406 5.539062 0.441406 12.03125 C 0.441406 18.519531 5.703125 23.78125 12.191406 23.78125 C 18.679688 23.78125 23.941406 18.519531 23.941406 12.03125 C 23.941406 5.539062 18.679688 0.28125 12.191406 0.28125 Z M 12.191406 0.28125 " clip-rule="nonzero"/></clipPath><clipPath id="d26a331535"><rect x="0" width="24" y="0" height="24"/></clipPath></defs><path fill="#000000" d="M 80.980469 447.804688 C 0.015625 543.710938 53.800781 690.378906 145.519531 779.691406 C 160.730469 794.503906 181 802.089844 201.621094 802.089844 C 217.90625 802.089844 234.417969 797.351562 248.816406 787.703125 C 254.734375 783.734375 260.199219 780.542969 265.429688 777.742188 C 211.277344 737.316406 176.144531 673.871094 176.144531 602.433594 C 176.144531 594.996094 182.167969 588.96875 189.601562 588.96875 L 336.453125 588.96875 C 336.230469 583.316406 335.925781 577.679688 336.078125 571.960938 C 337.734375 510.550781 361.730469 452.398438 403.648438 408.214844 C 405.292969 406.480469 406.785156 404.644531 408.316406 402.832031 C 390.109375 403.222656 372.632812 406.722656 357.363281 411.367188 C 341.042969 416.332031 324.351562 419.226562 307.585938 420.226562 C 305.332031 398.328125 300.242188 311.117188 353.886719 256.839844 C 359.109375 251.546875 359.058594 243.03125 353.773438 237.796875 C 348.476562 232.578125 339.964844 232.625 334.734375 237.910156 C 307.394531 265.574219 293.183594 299.566406 286.007812 331.230469 C 277.535156 310.40625 264.617188 290.800781 244.734375 278.089844 C 178.164062 235.542969 120.277344 256.3125 117.839844 257.199219 C 114.996094 258.257812 113.214844 261.09375 113.484375 264.117188 C 113.777344 267.402344 121.367188 345.1875 173.90625 393.71875 C 177.613281 397.140625 181.421875 400.0625 185.230469 402.9375 C 150.164062 401.359375 111.925781 411.15625 80.980469 447.804688 Z M 80.980469 447.804688 " fill-opacity="1" fill-rule="nonzero"/><path fill="#000000" d="M 616.414062 602.433594 L 189.601562 602.433594 C 189.601562 717.046875 285.148438 809.960938 403.007812 809.960938 C 520.867188 809.960938 616.414062 717.046875 616.414062 602.433594 Z M 441.132812 671.730469 C 422.46875 694.96875 393.136719 690.152344 386.09375 662.691406 L 377.171875 627.90625 C 375.890625 622.921875 380.632812 618.5 385.511719 620.121094 L 439.363281 638.023438 C 449.570312 641.414062 450.550781 660.007812 441.132812 671.730469 Z M 441.132812 671.730469 " fill-opacity="1" fill-rule="nonzero"/><path fill="#000000" d="M 556.320312 195.519531 C 494.925781 207.679688 452.097656 265.484375 450.371094 329.503906 C 449.480469 362.589844 435.945312 393.730469 413.414062 417.480469 C 375.292969 457.660156 351.160156 511.929688 349.535156 572.324219 C 349.382812 577.9375 349.683594 583.445312 349.921875 588.96875 L 616.414062 588.96875 C 623.847656 588.96875 629.875 594.996094 629.875 602.433594 C 629.875 688.070312 579.507812 762.320312 506.207031 798.992188 C 527.992188 806.140625 551.230469 810.039062 575.417969 810.039062 C 582.070312 810.039062 588.789062 809.746094 595.570312 809.148438 C 697.429688 800.1875 782.683594 719.070312 798.746094 615.636719 C 810.003906 543.164062 788.027344 475.460938 745.839844 426.097656 C 724.679688 401.339844 713.082031 369.546875 713.96875 336.628906 L 714.101562 331.542969 C 715.980469 261.921875 665.367188 202.894531 599.308594 194.164062 C 599.390625 189.441406 599.429688 184.914062 599.425781 180.578125 C 599.378906 119.535156 589.898438 94.902344 542.730469 54.46875 C 537.105469 49.640625 528.601562 50.304688 523.75 55.929688 C 518.914062 61.578125 519.5625 70.074219 525.207031 74.914062 C 565.199219 109.1875 572.6875 126.0625 572.578125 179.957031 C 572.570312 184.191406 572.507812 188.707031 572.417969 193.425781 C 567.101562 193.828125 561.746094 194.445312 556.320312 195.519531 Z M 556.320312 195.519531 " fill-opacity="1" fill-rule="nonzero"/><g clip-path="url(#06ea0bfa25)"><g clip-path="url(#9e3760e19c)"><g transform="matrix(1, 0, 0, 1, 627, 660)"><g clip-path="url(#d26a331535)"><g clip-path="url(#53dd74529c)"><g clip-path="url(#3cf6fed257)"><path fill="#000000" d="M 0.441406 0.28125 L 23.941406 0.28125 L 23.941406 23.78125 L 0.441406 23.78125 Z M 0.441406 0.28125 " fill-opacity="1" fill-rule="nonzero"/></g></g></g></g></g></g></svg>