<svg xmlns="http://www.w3.org/2000/svg" xmlns:xlink="http://www.w3.org/1999/xlink" width="1080" zoomAndPan="magnify" viewBox="0 0 810 809.999993" height="1080" preserveAspectRatio="xMidYMid meet" version="1.0"><defs><clipPath id="4135905fb2"><path d="M 96.1875 236 L 340 236 L 340 481 L 96.1875 481 Z M 96.1875 236 " clip-rule="nonzero"/></clipPath><clipPath id="17bcfe589a"><path d="M 482.257812 618.800781 L 505.761719 618.800781 L 505.761719 642.300781 L 482.257812 642.300781 Z M 482.257812 618.800781 " clip-rule="nonzero"/></clipPath><clipPath id="951a65526f"><path d="M 494.011719 618.800781 C 487.519531 618.800781 482.257812 624.058594 482.257812 630.550781 C 482.257812 637.039062 487.519531 642.300781 494.011719 642.300781 C 500.5 642.300781 505.761719 637.039062 505.761719 630.550781 C 505.761719 624.058594 500.5 618.800781 494.011719 618.800781 Z M 494.011719 618.800781 " clip-rule="nonzero"/></clipPath><clipPath id="ee5d8d04f2"><path d="M 0.257812 0.800781 L 23.761719 0.800781 L 23.761719 24.300781 L 0.257812 24.300781 Z M 0.257812 0.800781 " clip-rule="nonzero"/></clipPath><clipPath id="b5b6851523"><path d="M 12.011719 0.800781 C 5.519531 0.800781 0.257812 6.058594 0.257812 12.550781 C 0.257812 19.039062 5.519531 24.300781 12.011719 24.300781 C 18.5 24.300781 23.761719 19.039062 23.761719 12.550781 C 23.761719 6.058594 18.5 0.800781 12.011719 0.800781 Z M 12.011719 0.800781 " clip-rule="nonzero"/></clipPath><clipPath id="f2457844e1"><rect x="0" width="24" y="0" height="25"/></clipPath></defs><g clip-path="url(#4135905fb2)"><path fill="#000000" d="M 218.820312 293.847656 C 183.273438 293.398438 154.089844 321.835938 153.644531 357.363281 C 153.195312 392.894531 181.648438 422.054688 217.199219 422.503906 C 252.746094 422.949219 281.929688 394.511719 282.378906 358.984375 C 282.824219 323.457031 254.371094 294.292969 218.820312 293.847656 Z M 96.070312 356.636719 C 96.917969 289.332031 152.203125 235.460938 219.546875 236.308594 C 286.894531 237.15625 340.800781 292.40625 339.953125 359.710938 C 339.101562 427.015625 283.820312 480.890625 216.472656 480.042969 C 149.128906 479.191406 95.222656 423.941406 96.070312 356.636719 Z M 96.070312 356.636719 " fill-opacity="1" fill-rule="evenodd"/></g><path fill="#000000" d="M 405.132812 296.1875 C 369.585938 295.742188 340.40625 324.179688 339.957031 359.707031 C 339.507812 395.234375 367.960938 424.394531 403.511719 424.84375 C 439.058594 425.292969 468.242188 396.855469 468.6875 361.328125 C 469.136719 325.800781 440.683594 296.636719 405.132812 296.1875 Z M 282.382812 358.980469 C 283.230469 291.675781 338.511719 237.800781 405.859375 238.648438 C 473.207031 239.5 527.109375 294.746094 526.261719 362.054688 C 525.414062 429.355469 470.132812 483.230469 402.785156 482.382812 C 335.4375 481.535156 281.53125 426.285156 282.382812 358.980469 Z M 282.382812 358.980469 " fill-opacity="1" fill-rule="evenodd"/><path fill="#000000" d="M 429.992188 286.710938 C 401.515625 212.535156 438.597656 129.328125 512.820312 100.867188 L 620.332031 59.640625 C 635.179688 53.949219 651.832031 61.363281 657.523438 76.195312 C 686 150.375 648.921875 233.578125 574.695312 262.039062 L 467.183594 303.265625 C 452.339844 308.957031 435.6875 301.546875 429.992188 286.710938 Z M 478.027344 237.476562 L 554.070312 208.316406 C 589.183594 194.851562 610.441406 160.976562 609.492188 125.433594 L 533.449219 154.59375 C 498.335938 168.054688 477.078125 201.933594 478.027344 237.476562 Z M 478.027344 237.476562 " fill-opacity="1" fill-rule="evenodd"/><path fill="#000000" d="M 389.945312 286.710938 C 418.421875 212.535156 381.339844 129.328125 307.117188 100.867188 L 199.605469 59.640625 C 184.757812 53.949219 168.109375 61.363281 162.414062 76.195312 C 133.933594 150.375 171.015625 233.578125 245.238281 262.039062 L 352.753906 303.265625 C 367.597656 308.957031 384.25 301.546875 389.945312 286.710938 Z M 341.914062 237.476562 L 265.867188 208.316406 C 230.757812 194.851562 209.496094 160.976562 210.445312 125.433594 L 286.492188 154.59375 C 321.601562 168.054688 342.859375 201.933594 341.914062 237.476562 Z M 341.914062 237.476562 " fill-opacity="1" fill-rule="evenodd"/><path fill="#000000" d="M 309.933594 456.734375 C 274.386719 456.285156 245.203125 484.722656 244.757812 520.25 C 244.308594 555.78125 272.761719 584.945312 308.3125 585.390625 C 343.859375 585.835938 373.042969 557.398438 373.488281 521.875 C 373.9375 486.347656 345.484375 457.183594 309.933594 456.734375 Z M 187.183594 519.523438 C 188.03125 452.222656 243.316406 398.347656 310.660156 399.195312 C 378.007812 400.042969 431.910156 455.296875 431.0625 522.597656 C 430.214844 589.902344 374.933594 643.777344 307.585938 642.925781 C 240.238281 642.078125 186.335938 586.832031 187.183594 519.523438 Z M 187.183594 519.523438 " fill-opacity="1" fill-rule="evenodd"/><path fill="#000000" d="M 591.4375 298.53125 C 555.886719 298.082031 526.707031 326.519531 526.257812 362.046875 C 525.808594 397.574219 554.261719 426.738281 589.8125 427.183594 C 625.363281 427.632812 654.542969 399.195312 654.992188 363.667969 C 655.4375 328.140625 626.984375 298.976562 591.4375 298.53125 Z M 468.683594 361.320312 C 469.53125 294.015625 524.816406 240.144531 592.160156 240.992188 C 659.507812 241.839844 713.414062 297.089844 712.5625 364.394531 C 711.714844 431.699219 656.433594 485.570312 589.085938 484.722656 C 521.738281 483.875 467.835938 428.628906 468.683594 361.320312 Z M 468.683594 361.320312 " fill-opacity="1" fill-rule="evenodd"/><path fill="#000000" d="M 496.25 459.09375 C 460.695312 458.644531 431.515625 487.082031 431.066406 522.613281 C 430.621094 558.140625 459.078125 587.304688 494.625 587.75 C 530.171875 588.199219 559.351562 559.761719 559.800781 524.230469 C 560.25 488.707031 531.796875 459.542969 496.25 459.09375 Z M 373.496094 521.886719 C 374.34375 454.582031 429.628906 400.707031 496.972656 401.554688 C 564.316406 402.40625 618.226562 457.65625 617.375 524.960938 C 616.527344 592.261719 561.242188 646.136719 493.898438 645.289062 C 426.550781 644.4375 372.644531 589.191406 373.496094 521.886719 Z M 373.496094 521.886719 " fill-opacity="1" fill-rule="evenodd"/><path fill="#000000" d="M 401.03125 620.96875 C 365.480469 620.523438 336.296875 648.960938 335.847656 684.488281 C 335.402344 720.015625 363.859375 749.179688 399.40625 749.628906 C 434.957031 750.074219 464.136719 721.636719 464.585938 686.113281 C 465.035156 650.585938 436.578125 621.417969 401.03125 620.96875 Z M 278.277344 683.765625 C 279.125 616.457031 334.410156 562.582031 401.753906 563.433594 C 469.101562 564.28125 523.007812 619.53125 522.160156 686.835938 C 521.308594 754.140625 466.027344 808.015625 398.679688 807.164062 C 331.335938 806.316406 277.429688 751.070312 278.277344 683.765625 Z M 278.277344 683.765625 " fill-opacity="1" fill-rule="evenodd"/><path fill="#000000" d="M 467.117188 24.164062 C 474.828125 38.0625 469.8125 55.574219 455.90625 63.28125 C 452.089844 65.394531 447.914062 69.730469 444.226562 78.84375 C 440.472656 88.113281 438.054688 100.386719 436.847656 114.988281 C 435.050781 136.769531 436.132812 158.789062 437.109375 178.539062 C 437.476562 186.039062 437.832031 193.210938 438.003906 199.917969 L 439.183594 245.832031 C 439.597656 261.714844 427.042969 274.925781 411.148438 275.335938 C 395.253906 275.746094 382.039062 263.199219 381.625 247.3125 L 380.445312 201.402344 C 380.328125 196.894531 380.050781 191.277344 379.730469 184.871094 C 378.726562 164.523438 377.324219 136.21875 379.464844 110.257812 C 380.910156 92.765625 384.042969 74.074219 390.851562 57.257812 C 397.726562 40.285156 409.117188 23.417969 427.980469 12.960938 C 441.882812 5.253906 459.40625 10.269531 467.117188 24.164062 Z M 467.117188 24.164062 " fill-opacity="1" fill-rule="evenodd"/><g clip-path="url(#17bcfe589a)"><g clip-path="url(#951a65526f)"><g transform="matrix(1, 0, 0, 1, 482, 618)"><g clip-path="url(#f2457844e1)"><g clip-path="url(#ee5d8d04f2)"><g clip-path="url(#b5b6851523)"><path fill="#000000" d="M 0.257812 0.800781 L 23.761719 0.800781 L 23.761719 24.300781 L 0.257812 24.300781 Z M 0.257812 0.800781 " fill-opacity="1" fill-rule="nonzero"/></g></g></g></g></g></g></svg>