<svg xmlns="http://www.w3.org/2000/svg" xmlns:xlink="http://www.w3.org/1999/xlink" width="1080" zoomAndPan="magnify" viewBox="0 0 810 809.999993" height="1080" preserveAspectRatio="xMidYMid meet" version="1.0"><defs><clipPath id="d8534756d9"><path d="M 627.441406 660.28125 L 650.941406 660.28125 L 650.941406 683.78125 L 627.441406 683.78125 Z M 627.441406 660.28125 " clip-rule="nonzero"/></clipPath><clipPath id="003a53a68d"><path d="M 639.191406 660.28125 C 632.703125 660.28125 627.441406 665.539062 627.441406 672.03125 C 627.441406 678.519531 632.703125 683.78125 639.191406 683.78125 C 645.679688 683.78125 650.941406 678.519531 650.941406 672.03125 C 650.941406 665.539062 645.679688 660.28125 639.191406 660.28125 Z M 639.191406 660.28125 " clip-rule="nonzero"/></clipPath><clipPath id="19e2b7a60d"><path d="M 0.441406 0.28125 L 23.941406 0.28125 L 23.941406 23.78125 L 0.441406 23.78125 Z M 0.441406 0.28125 " clip-rule="nonzero"/></clipPath><clipPath id="39627c0c37"><path d="M 12.191406 0.28125 C 5.703125 0.28125 0.441406 5.539062 0.441406 12.03125 C 0.441406 18.519531 5.703125 23.78125 12.191406 23.78125 C 18.679688 23.78125 23.941406 18.519531 23.941406 12.03125 C 23.941406 5.539062 18.679688 0.28125 12.191406 0.28125 Z M 12.191406 0.28125 " clip-rule="nonzero"/></clipPath><clipPath id="42e09c7d7c"><rect x="0" width="24" y="0" height="24"/></clipPath></defs><path fill="#000000" d="M 463.007812 693.191406 C 464.566406 694.585938 466.207031 695.871094 467.933594 697.054688 C 469.660156 698.234375 471.453125 699.300781 473.320312 700.246094 C 475.183594 701.195312 477.101562 702.019531 479.070312 702.71875 C 481.042969 703.417969 483.050781 703.984375 485.097656 704.421875 C 487.140625 704.859375 489.207031 705.164062 491.292969 705.332031 C 493.375 705.503906 495.464844 705.535156 497.554688 705.433594 C 499.640625 705.332031 501.714844 705.097656 503.773438 704.726562 C 505.832031 704.351562 507.859375 703.851562 509.851562 703.214844 C 572.597656 683.304688 634.484375 614.554688 667.433594 528.039062 C 694.796875 456.421875 696.085938 387.953125 670.585938 344.410156 C 669.492188 342.226562 668.320312 340.085938 667.078125 337.980469 C 665.835938 335.878906 664.523438 333.820312 663.140625 331.808594 C 661.753906 329.796875 660.300781 327.832031 658.78125 325.921875 C 657.261719 324.007812 655.675781 322.152344 654.027344 320.347656 C 652.378906 318.546875 650.671875 316.800781 648.902344 315.117188 C 647.132812 313.433594 645.308594 311.808594 643.429688 310.25 C 641.546875 308.691406 639.613281 307.199219 637.628906 305.773438 C 635.648438 304.347656 633.617188 302.992188 631.539062 301.707031 C 629.460938 300.421875 627.339844 299.210938 625.179688 298.074219 C 623.019531 296.933594 620.820312 295.871094 618.585938 294.882812 C 616.351562 293.894531 614.085938 292.988281 611.789062 292.15625 C 609.492188 291.324219 607.167969 290.574219 604.820312 289.902344 C 602.46875 289.234375 600.101562 288.644531 597.710938 288.136719 C 595.320312 287.632812 592.914062 287.207031 590.496094 286.867188 C 588.078125 286.527344 585.648438 286.269531 583.210938 286.09375 C 580.777344 285.921875 578.335938 285.832031 575.890625 285.828125 C 568.289062 286.144531 560.726562 286.886719 553.203125 288.058594 C 545.683594 289.230469 538.253906 290.824219 530.914062 292.835938 C 523.570312 294.847656 516.367188 297.269531 509.300781 300.097656 C 502.234375 302.921875 495.351562 306.140625 488.648438 309.75 C 487.503906 310.339844 486.382812 310.972656 485.289062 311.65625 C 484.195312 312.335938 483.128906 313.058594 482.09375 313.824219 C 481.058594 314.589844 480.054688 315.398438 479.082031 316.242188 C 478.109375 317.089844 477.171875 317.972656 476.273438 318.894531 C 475.371094 319.816406 474.511719 320.773438 473.6875 321.765625 C 472.863281 322.757812 472.082031 323.777344 471.339844 324.832031 C 470.597656 325.886719 469.898438 326.96875 469.246094 328.078125 C 468.589844 329.1875 467.980469 330.324219 467.417969 331.480469 C 466.855469 332.640625 466.339844 333.820312 465.871094 335.019531 C 465.402344 336.21875 464.980469 337.4375 464.609375 338.671875 C 464.238281 339.90625 463.917969 341.152344 463.648438 342.414062 C 463.375 343.671875 463.15625 344.941406 462.988281 346.21875 C 462.820312 347.496094 462.703125 348.777344 462.636719 350.066406 C 462.570312 351.351562 462.554688 352.640625 462.59375 353.925781 C 462.628906 355.214844 462.71875 356.5 462.859375 357.78125 C 463 359.0625 463.191406 360.335938 463.4375 361.601562 C 471.886719 407.003906 480.625 469.167969 474.035156 506.695312 C 468.449219 538.78125 456.988281 599.941406 447.964844 647.925781 C 447.550781 649.96875 447.273438 652.027344 447.128906 654.105469 C 446.984375 656.183594 446.976562 658.261719 447.101562 660.339844 C 447.230469 662.421875 447.488281 664.480469 447.882812 666.527344 C 448.28125 668.570312 448.804688 670.582031 449.460938 672.558594 C 450.117188 674.535156 450.902344 676.460938 451.808594 678.335938 C 452.714844 680.210938 453.742188 682.019531 454.886719 683.761719 C 456.027344 685.5 457.28125 687.160156 458.636719 688.738281 C 459.996094 690.316406 461.453125 691.800781 463.007812 693.191406 Z M 591.9375 489.222656 C 591.9375 490.164062 591.84375 491.09375 591.660156 492.015625 C 591.480469 492.9375 591.207031 493.835938 590.847656 494.703125 C 590.488281 495.574219 590.046875 496.398438 589.523438 497.179688 C 589 497.960938 588.40625 498.6875 587.742188 499.351562 C 587.078125 500.015625 586.351562 500.609375 585.570312 501.132812 C 584.789062 501.65625 583.960938 502.09375 583.09375 502.457031 C 582.226562 502.816406 581.328125 503.085938 580.40625 503.269531 C 579.484375 503.453125 578.550781 503.546875 577.613281 503.546875 L 543.515625 502.257812 C 542.574219 502.257812 541.644531 502.164062 540.722656 501.980469 C 539.800781 501.796875 538.902344 501.527344 538.035156 501.167969 C 537.164062 500.804688 536.339844 500.367188 535.558594 499.84375 C 534.773438 499.320312 534.050781 498.726562 533.386719 498.0625 C 532.722656 497.398438 532.128906 496.671875 531.605469 495.890625 C 531.082031 495.109375 530.640625 494.285156 530.28125 493.414062 C 529.921875 492.546875 529.648438 491.648438 529.464844 490.726562 C 529.28125 489.804688 529.191406 488.875 529.191406 487.933594 C 529.191406 486.992188 529.28125 486.0625 529.464844 485.140625 C 529.648438 484.214844 529.921875 483.320312 530.28125 482.453125 C 530.640625 481.582031 531.082031 480.757812 531.605469 479.976562 C 532.128906 479.195312 532.722656 478.46875 533.386719 477.804688 C 534.050781 477.140625 534.777344 476.546875 535.558594 476.023438 C 536.339844 475.5 537.164062 475.058594 538.035156 474.699219 C 538.902344 474.339844 539.800781 474.070312 540.722656 473.886719 C 541.644531 473.703125 542.574219 473.609375 543.515625 473.609375 L 577.613281 474.898438 C 578.535156 474.925781 579.445312 475.042969 580.34375 475.246094 C 581.246094 475.449219 582.117188 475.738281 582.960938 476.109375 C 583.804688 476.484375 584.605469 476.933594 585.363281 477.460938 C 586.121094 477.984375 586.820312 478.582031 587.464844 479.242188 C 588.105469 479.90625 588.679688 480.625 589.183594 481.394531 C 589.6875 482.167969 590.113281 482.984375 590.460938 483.839844 C 590.804688 484.695312 591.066406 485.574219 591.242188 486.480469 C 591.421875 487.386719 591.507812 488.300781 591.507812 489.222656 Z M 523.746094 379.648438 C 526.875 376.796875 530.179688 374.167969 533.664062 371.761719 C 537.148438 369.359375 540.777344 367.203125 544.554688 365.289062 C 548.332031 363.378906 552.21875 361.726562 556.21875 360.34375 C 560.21875 358.957031 564.292969 357.847656 568.441406 357.015625 C 569.382812 356.828125 570.335938 356.734375 571.292969 356.730469 C 572.253906 356.730469 573.203125 356.820312 574.144531 357.007812 C 575.085938 357.195312 576 357.46875 576.886719 357.835938 C 577.773438 358.203125 578.617188 358.652344 579.417969 359.183594 C 580.214844 359.714844 580.953125 360.320312 581.632812 360.996094 C 582.3125 361.675781 582.917969 362.410156 583.453125 363.207031 C 583.988281 364.007812 584.4375 364.847656 584.804688 365.734375 C 585.175781 366.621094 585.453125 367.53125 585.640625 368.472656 C 585.828125 369.414062 585.921875 370.363281 585.925781 371.324219 C 585.925781 372.285156 585.832031 373.234375 585.648438 374.175781 C 585.460938 375.117188 585.183594 376.03125 584.816406 376.917969 C 584.449219 377.804688 584 378.644531 583.46875 379.445312 C 582.9375 380.242188 582.332031 380.980469 581.652344 381.660156 C 580.976562 382.339844 580.238281 382.945312 579.441406 383.476562 C 578.644531 384.011719 577.800781 384.460938 576.914062 384.832031 C 576.027344 385.199219 575.113281 385.476562 574.171875 385.664062 C 568.375 386.839844 562.839844 388.765625 557.566406 391.441406 C 552.289062 394.113281 547.460938 397.441406 543.085938 401.417969 C 541.773438 402.613281 540.289062 403.53125 538.632812 404.171875 C 536.980469 404.816406 535.265625 405.136719 533.488281 405.144531 C 532.765625 405.148438 532.050781 405.101562 531.335938 404.996094 C 530.621094 404.894531 529.921875 404.738281 529.230469 404.527344 C 528.539062 404.320312 527.871094 404.0625 527.21875 403.75 C 526.570312 403.441406 525.945312 403.082031 525.347656 402.679688 C 524.75 402.273438 524.1875 401.828125 523.65625 401.339844 C 523.128906 400.847656 522.640625 400.324219 522.1875 399.757812 C 521.738281 399.195312 521.332031 398.601562 520.972656 397.976562 C 520.613281 397.351562 520.300781 396.707031 520.039062 396.035156 C 519.777344 395.363281 519.566406 394.675781 519.40625 393.972656 C 519.25 393.269531 519.144531 392.558594 519.09375 391.839844 C 519.042969 391.117188 519.042969 390.398438 519.101562 389.679688 C 519.160156 388.964844 519.269531 388.253906 519.433594 387.550781 C 519.597656 386.847656 519.816406 386.164062 520.082031 385.492188 C 520.351562 384.824219 520.667969 384.179688 521.035156 383.558594 C 521.398438 382.9375 521.808594 382.347656 522.265625 381.785156 C 522.71875 381.226562 523.214844 380.707031 523.746094 380.21875 Z M 520.164062 564.132812 C 521.101562 564.054688 522.035156 564.070312 522.96875 564.175781 C 523.902344 564.28125 524.816406 564.472656 525.710938 564.757812 C 526.605469 565.042969 527.464844 565.414062 528.285156 565.867188 C 529.109375 566.320312 529.878906 566.847656 530.597656 567.453125 C 531.3125 568.058594 531.964844 568.726562 532.554688 569.460938 C 533.140625 570.195312 533.648438 570.976562 534.082031 571.8125 C 534.515625 572.644531 534.859375 573.511719 535.121094 574.414062 C 535.382812 575.316406 535.554688 576.234375 535.636719 577.167969 C 535.714844 577.691406 535.867188 578.195312 536.082031 578.675781 C 536.300781 579.160156 536.582031 579.601562 536.921875 580.007812 C 537.265625 580.410156 537.65625 580.761719 538.09375 581.058594 C 538.53125 581.355469 539.003906 581.585938 539.503906 581.753906 C 540.445312 581.875 541.363281 582.089844 542.261719 582.390625 C 543.160156 582.695312 544.019531 583.085938 544.84375 583.558594 C 545.664062 584.03125 546.429688 584.578125 547.144531 585.203125 C 547.859375 585.828125 548.503906 586.515625 549.082031 587.265625 C 549.660156 588.019531 550.160156 588.820312 550.582031 589.667969 C 551 590.519531 551.335938 591.402344 551.582031 592.316406 C 551.828125 593.230469 551.984375 594.160156 552.046875 595.109375 C 552.109375 596.054688 552.082031 596.996094 551.957031 597.9375 C 551.835938 598.875 551.625 599.796875 551.320312 600.695312 C 551.015625 601.59375 550.628906 602.453125 550.15625 603.273438 C 549.683594 604.097656 549.136719 604.863281 548.511719 605.578125 C 547.886719 606.292969 547.199219 606.9375 546.449219 607.515625 C 545.699219 608.09375 544.898438 608.59375 544.050781 609.015625 C 543.199219 609.4375 542.316406 609.769531 541.402344 610.019531 C 540.488281 610.265625 539.554688 610.421875 538.609375 610.484375 C 537.664062 610.550781 536.722656 610.519531 535.78125 610.398438 C 534.585938 610.539062 533.394531 610.539062 532.199219 610.398438 C 530.527344 609.949219 528.902344 609.375 527.320312 608.675781 C 525.734375 607.976562 524.214844 607.164062 522.757812 606.234375 C 521.296875 605.304688 519.917969 604.269531 518.613281 603.128906 C 517.3125 601.988281 516.105469 600.757812 514.992188 599.433594 C 513.878906 598.109375 512.871094 596.710938 511.96875 595.230469 C 511.070312 593.753906 510.285156 592.21875 509.617188 590.621094 C 508.953125 589.027344 508.410156 587.386719 507.992188 585.710938 C 507.574219 584.03125 507.289062 582.328125 507.128906 580.605469 C 507.054688 580.128906 507.003906 579.648438 506.976562 579.164062 C 506.949219 578.683594 506.949219 578.199219 506.96875 577.714844 C 506.992188 577.234375 507.039062 576.753906 507.109375 576.273438 C 507.179688 575.796875 507.273438 575.324219 507.394531 574.855469 C 507.511719 574.386719 507.65625 573.921875 507.820312 573.46875 C 507.988281 573.015625 508.175781 572.570312 508.386719 572.132812 C 508.597656 571.699219 508.828125 571.277344 509.082031 570.863281 C 509.335938 570.453125 509.609375 570.054688 509.902344 569.671875 C 510.195312 569.285156 510.507812 568.917969 510.839844 568.566406 C 511.171875 568.214844 511.519531 567.878906 511.886719 567.5625 C 512.25 567.242188 512.632812 566.945312 513.027344 566.667969 C 513.421875 566.390625 513.828125 566.128906 514.25 565.894531 C 514.671875 565.65625 515.105469 565.441406 515.546875 565.246094 C 515.992188 565.054688 516.445312 564.882812 516.90625 564.734375 C 517.363281 564.585938 517.832031 564.464844 518.304688 564.363281 C 518.777344 564.261719 519.253906 564.1875 519.734375 564.132812 Z M 264.453125 703.214844 C 265.449219 703.527344 266.453125 703.808594 267.46875 704.054688 C 268.480469 704.300781 269.5 704.515625 270.53125 704.699219 C 271.558594 704.878906 272.589844 705.027344 273.628906 705.144531 C 274.664062 705.257812 275.703125 705.339844 276.746094 705.390625 C 277.789062 705.4375 278.832031 705.453125 279.875 705.433594 C 280.917969 705.414062 281.960938 705.363281 283 705.277344 C 284.042969 705.191406 285.078125 705.074219 286.109375 704.921875 C 287.144531 704.769531 288.167969 704.585938 289.191406 704.367188 C 290.210938 704.148438 291.222656 703.898438 292.226562 703.613281 C 293.230469 703.332031 294.226562 703.015625 295.210938 702.667969 C 296.195312 702.320312 297.167969 701.945312 298.128906 701.535156 C 299.085938 701.125 300.03125 700.683594 300.964844 700.214844 C 301.894531 699.742188 302.8125 699.242188 303.710938 698.714844 C 304.609375 698.183594 305.492188 697.628906 306.355469 697.042969 C 307.21875 696.457031 308.0625 695.84375 308.886719 695.203125 C 309.710938 694.5625 310.515625 693.898438 311.296875 693.207031 C 312.078125 692.515625 312.835938 691.796875 313.570312 691.058594 C 314.304688 690.316406 315.015625 689.554688 315.703125 688.765625 C 316.390625 687.980469 317.050781 687.171875 317.683594 686.34375 C 318.320312 685.515625 318.925781 684.667969 319.507812 683.800781 C 320.085938 682.933594 320.636719 682.046875 321.160156 681.144531 C 321.683594 680.242188 322.175781 679.324219 322.640625 678.386719 C 323.105469 677.453125 323.539062 676.503906 323.941406 675.542969 C 324.34375 674.578125 324.714844 673.605469 325.054688 672.617188 C 325.394531 671.632812 325.703125 670.636719 325.980469 669.628906 C 326.257812 668.621094 326.5 667.609375 326.710938 666.585938 C 326.921875 665.566406 327.101562 664.535156 327.246094 663.503906 C 327.390625 662.46875 327.5 661.433594 327.578125 660.394531 C 327.65625 659.351562 327.703125 658.308594 327.714844 657.265625 C 327.726562 656.222656 327.703125 655.179688 327.648438 654.136719 C 327.589844 653.097656 327.503906 652.058594 327.378906 651.019531 C 327.257812 649.984375 327.101562 648.953125 326.914062 647.925781 C 317.886719 599.945312 306.570312 538.78125 300.839844 506.695312 C 294.25 469.167969 302.988281 406.433594 311.582031 361.601562 C 311.820312 360.332031 312.003906 359.058594 312.136719 357.777344 C 312.273438 356.492188 312.355469 355.207031 312.386719 353.921875 C 312.417969 352.632812 312.394531 351.34375 312.324219 350.058594 C 312.253906 348.769531 312.128906 347.488281 311.957031 346.210938 C 311.78125 344.933594 311.558594 343.664062 311.28125 342.40625 C 311.007812 341.148438 310.679688 339.902344 310.304688 338.667969 C 309.929688 337.433594 309.507812 336.21875 309.035156 335.019531 C 308.5625 333.820312 308.042969 332.640625 307.476562 331.484375 C 306.910156 330.324219 306.300781 329.191406 305.644531 328.082031 C 304.988281 326.972656 304.285156 325.890625 303.542969 324.839844 C 302.800781 323.785156 302.015625 322.765625 301.191406 321.773438 C 300.367188 320.78125 299.503906 319.828125 298.601562 318.90625 C 297.703125 317.984375 296.765625 317.097656 295.792969 316.253906 C 294.820312 315.40625 293.816406 314.597656 292.78125 313.832031 C 291.746094 313.066406 290.679688 312.339844 289.585938 311.660156 C 288.492188 310.976562 287.371094 310.339844 286.226562 309.75 C 228.925781 281.101562 150.417969 263.914062 103.289062 344.410156 C 77.933594 387.382812 79.078125 456.566406 106.582031 528.039062 C 139.820312 614.554688 201.707031 683.304688 264.453125 703.214844 Z M 267.746094 579.605469 C 267.574219 581.320312 267.273438 583.019531 266.847656 584.691406 C 266.417969 586.363281 265.871094 587.996094 265.195312 589.585938 C 264.523438 591.175781 263.738281 592.707031 262.835938 594.179688 C 261.933594 595.652344 260.925781 597.050781 259.8125 598.371094 C 258.703125 599.691406 257.496094 600.925781 256.199219 602.066406 C 254.90625 603.207031 253.53125 604.242188 252.078125 605.175781 C 250.625 606.113281 249.109375 606.933594 247.535156 607.640625 C 245.960938 608.347656 244.339844 608.933594 242.675781 609.398438 C 241.433594 609.523438 240.195312 609.523438 238.953125 609.398438 C 238.011719 609.519531 237.070312 609.546875 236.121094 609.484375 C 235.175781 609.417969 234.246094 609.261719 233.332031 609.015625 C 232.414062 608.769531 231.535156 608.433594 230.683594 608.011719 C 229.835938 607.59375 229.035156 607.09375 228.28125 606.515625 C 227.53125 605.933594 226.84375 605.289062 226.222656 604.574219 C 225.597656 603.859375 225.046875 603.09375 224.578125 602.273438 C 224.105469 601.449219 223.714844 600.589844 223.414062 599.691406 C 223.109375 598.792969 222.898438 597.875 222.773438 596.933594 C 222.652344 595.992188 222.621094 595.050781 222.6875 594.105469 C 222.75 593.160156 222.90625 592.230469 223.152344 591.3125 C 223.398438 590.398438 223.730469 589.515625 224.152344 588.664062 C 224.574219 587.816406 225.070312 587.015625 225.648438 586.265625 C 226.226562 585.511719 226.875 584.824219 227.585938 584.199219 C 228.300781 583.578125 229.070312 583.027344 229.890625 582.554688 C 230.710938 582.082031 231.570312 581.695312 232.46875 581.390625 C 233.367188 581.085938 234.289062 580.871094 235.226562 580.75 C 235.730469 580.582031 236.199219 580.351562 236.640625 580.054688 C 237.078125 579.757812 237.46875 579.410156 237.808594 579.003906 C 238.152344 578.601562 238.429688 578.15625 238.648438 577.675781 C 238.867188 577.191406 239.015625 576.691406 239.09375 576.167969 C 239.175781 575.222656 239.347656 574.300781 239.613281 573.390625 C 239.878906 572.484375 240.226562 571.609375 240.664062 570.773438 C 241.101562 569.933594 241.617188 569.148438 242.210938 568.410156 C 242.800781 567.675781 243.460938 567.003906 244.1875 566.398438 C 244.914062 565.792969 245.691406 565.261719 246.523438 564.808594 C 247.351562 564.359375 248.21875 563.992188 249.121094 563.710938 C 250.027344 563.433594 250.949219 563.242188 251.886719 563.144531 C 252.828125 563.046875 253.769531 563.042969 254.710938 563.132812 C 255.199219 563.171875 255.6875 563.234375 256.171875 563.324219 C 256.65625 563.410156 257.132812 563.523438 257.605469 563.664062 C 258.078125 563.800781 258.539062 563.960938 258.996094 564.148438 C 259.453125 564.332031 259.894531 564.542969 260.332031 564.773438 C 260.765625 565.003906 261.183594 565.257812 261.59375 565.53125 C 262 565.804688 262.394531 566.101562 262.769531 566.414062 C 263.148438 566.730469 263.507812 567.066406 263.851562 567.417969 C 264.195312 567.769531 264.519531 568.136719 264.824219 568.523438 C 265.128906 568.910156 265.414062 569.308594 265.679688 569.722656 C 265.941406 570.140625 266.183594 570.566406 266.402344 571.003906 C 266.625 571.445312 266.820312 571.894531 266.992188 572.355469 C 267.167969 572.816406 267.316406 573.285156 267.441406 573.757812 C 267.566406 574.234375 267.667969 574.714844 267.746094 575.199219 C 267.820312 575.6875 267.871094 576.175781 267.894531 576.664062 C 267.921875 577.15625 267.921875 577.648438 267.898438 578.136719 C 267.871094 578.628906 267.824219 579.117188 267.746094 579.605469 Z M 189.097656 368.1875 C 189.285156 367.265625 189.5625 366.371094 189.925781 365.503906 C 190.292969 364.636719 190.738281 363.8125 191.261719 363.035156 C 191.789062 362.253906 192.386719 361.535156 193.054688 360.871094 C 193.726562 360.210938 194.453125 359.621094 195.238281 359.101562 C 196.019531 358.582031 196.847656 358.144531 197.71875 357.789062 C 198.589844 357.433594 199.488281 357.167969 200.414062 356.988281 C 201.335938 356.808594 202.269531 356.722656 203.210938 356.726562 C 204.148438 356.730469 205.082031 356.828125 206.003906 357.015625 C 210.152344 357.847656 214.226562 358.957031 218.226562 360.34375 C 222.226562 361.726562 226.117188 363.378906 229.890625 365.289062 C 233.667969 367.203125 237.296875 369.359375 240.78125 371.761719 C 244.265625 374.167969 247.570312 376.796875 250.699219 379.648438 C 251.234375 380.132812 251.726562 380.65625 252.183594 381.214844 C 252.636719 381.773438 253.046875 382.363281 253.414062 382.984375 C 253.777344 383.605469 254.09375 384.25 254.363281 384.921875 C 254.632812 385.589844 254.847656 386.277344 255.011719 386.976562 C 255.175781 387.679688 255.289062 388.390625 255.34375 389.109375 C 255.402344 389.828125 255.40625 390.546875 255.355469 391.265625 C 255.300781 391.984375 255.199219 392.695312 255.039062 393.398438 C 254.878906 394.101562 254.667969 394.789062 254.40625 395.460938 C 254.144531 396.132812 253.832031 396.78125 253.472656 397.40625 C 253.113281 398.027344 252.707031 398.625 252.257812 399.1875 C 251.808594 399.75 251.316406 400.277344 250.789062 400.765625 C 250.257812 401.253906 249.695312 401.703125 249.097656 402.105469 C 248.5 402.511719 247.878906 402.867188 247.226562 403.175781 C 246.578125 403.488281 245.90625 403.746094 245.214844 403.957031 C 244.527344 404.164062 243.824219 404.320312 243.109375 404.425781 C 242.394531 404.527344 241.679688 404.574219 240.957031 404.570312 C 239.183594 404.566406 237.46875 404.242188 235.8125 403.601562 C 234.15625 402.957031 232.671875 402.039062 231.359375 400.847656 C 226.984375 396.867188 222.15625 393.539062 216.882812 390.867188 C 211.605469 388.191406 206.070312 386.265625 200.273438 385.089844 C 199.351562 384.902344 198.457031 384.625 197.589844 384.261719 C 196.722656 383.898438 195.898438 383.453125 195.117188 382.925781 C 194.339844 382.398438 193.617188 381.800781 192.957031 381.132812 C 192.292969 380.464844 191.703125 379.738281 191.183594 378.953125 C 190.664062 378.167969 190.226562 377.339844 189.871094 376.46875 C 189.515625 375.597656 189.25 374.703125 189.070312 373.777344 C 188.890625 372.855469 188.804688 371.921875 188.808594 370.980469 C 188.8125 370.042969 188.910156 369.109375 189.097656 368.1875 Z M 196.261719 474.46875 L 230.355469 473.179688 C 231.296875 473.140625 232.234375 473.195312 233.164062 473.34375 C 234.09375 473.488281 235 473.722656 235.886719 474.050781 C 236.769531 474.375 237.613281 474.78125 238.414062 475.273438 C 239.21875 475.765625 239.96875 476.328125 240.660156 476.96875 C 241.351562 477.605469 241.972656 478.304688 242.527344 479.066406 C 243.082031 479.828125 243.558594 480.636719 243.953125 481.492188 C 244.347656 482.347656 244.65625 483.230469 244.875 484.144531 C 245.097656 485.0625 245.226562 485.988281 245.261719 486.929688 C 245.300781 487.871094 245.246094 488.804688 245.097656 489.738281 C 244.953125 490.667969 244.714844 491.574219 244.390625 492.457031 C 244.066406 493.339844 243.65625 494.183594 243.164062 494.988281 C 242.675781 495.789062 242.109375 496.539062 241.46875 497.230469 C 240.832031 497.921875 240.128906 498.542969 239.367188 499.097656 C 238.605469 499.652344 237.800781 500.125 236.945312 500.519531 C 236.089844 500.914062 235.203125 501.222656 234.289062 501.441406 C 233.371094 501.660156 232.445312 501.789062 231.503906 501.828125 L 197.265625 503.117188 C 196.324219 503.117188 195.390625 503.023438 194.46875 502.839844 C 193.546875 502.65625 192.652344 502.386719 191.78125 502.027344 C 190.914062 501.664062 190.085938 501.226562 189.304688 500.703125 C 188.523438 500.179688 187.800781 499.585938 187.136719 498.921875 C 186.46875 498.257812 185.875 497.53125 185.351562 496.75 C 184.832031 495.96875 184.390625 495.144531 184.03125 494.273438 C 183.667969 493.40625 183.398438 492.507812 183.214844 491.585938 C 183.03125 490.664062 182.9375 489.734375 182.9375 488.792969 C 182.9375 487.851562 183.03125 486.921875 183.214844 486 C 183.398438 485.074219 183.667969 484.179688 184.03125 483.3125 C 184.390625 482.441406 184.832031 481.617188 185.351562 480.835938 C 185.875 480.054688 186.46875 479.328125 187.136719 478.664062 C 187.800781 478 188.523438 477.40625 189.304688 476.882812 C 190.085938 476.359375 190.914062 475.917969 191.78125 475.558594 C 192.652344 475.199219 193.546875 474.929688 194.46875 474.746094 C 195.390625 474.5625 196.324219 474.46875 197.265625 474.46875 Z M 398.828125 806.773438 C 648.808594 806.773438 779.746094 629.449219 779.746094 454.273438 C 779.746094 325.359375 750.234375 252.167969 684.050781 218.792969 C 679.75 216.714844 675.367188 214.816406 670.910156 213.097656 C 666.449219 211.378906 661.929688 209.847656 657.34375 208.5 C 652.757812 207.152344 648.125 205.996094 643.445312 205.03125 C 638.765625 204.066406 634.054688 203.296875 629.3125 202.71875 C 624.566406 202.140625 619.808594 201.757812 615.03125 201.570312 C 610.257812 201.386719 605.484375 201.394531 600.710938 201.601562 C 595.933594 201.808594 591.175781 202.210938 586.4375 202.8125 C 581.695312 203.410156 576.988281 204.199219 572.3125 205.1875 L 500.683594 219.511719 L 430.199219 233.832031 C 418.058594 236.21875 405.800781 237.496094 393.429688 237.664062 C 381.054688 237.835938 368.769531 236.890625 356.566406 234.835938 C 353.703125 234.835938 350.980469 233.976562 348.113281 233.402344 L 256.285156 214.785156 L 216.890625 205.1875 C 204.367188 202.625 191.710938 201.335938 178.929688 201.320312 C 168.726562 201.273438 158.605469 202.152344 148.566406 203.957031 C 138.527344 205.761719 128.734375 208.464844 119.191406 212.0625 C 35.382812 243.71875 -0.429688 316.050781 -0.429688 453.84375 C -0.429688 677.863281 145.121094 806.773438 398.828125 806.773438 Z M 419.3125 642.628906 C 428.195312 594.785156 439.65625 533.769531 445.242188 501.683594 C 449.828125 475.757812 445.242188 427.917969 434.640625 366.898438 C 434.261719 364.871094 433.964844 362.828125 433.75 360.773438 C 433.535156 358.71875 433.40625 356.660156 433.355469 354.59375 C 433.308594 352.53125 433.339844 350.464844 433.460938 348.40625 C 433.578125 346.34375 433.777344 344.289062 434.058594 342.242188 C 434.34375 340.199219 434.707031 338.167969 435.15625 336.148438 C 435.601562 334.132812 436.128906 332.136719 436.734375 330.164062 C 437.34375 328.191406 438.027344 326.242188 438.792969 324.324219 C 439.558594 322.40625 440.398438 320.519531 441.3125 318.671875 C 442.230469 316.820312 443.21875 315.007812 444.28125 313.238281 C 445.34375 311.464844 446.472656 309.738281 447.675781 308.058594 C 448.875 306.378906 450.144531 304.75 451.476562 303.171875 C 452.808594 301.59375 454.199219 300.070312 455.65625 298.605469 C 457.109375 297.140625 458.621094 295.734375 460.191406 294.390625 C 461.757812 293.046875 463.378906 291.765625 465.050781 290.550781 C 466.71875 289.339844 468.4375 288.195312 470.203125 287.117188 C 471.964844 286.042969 473.769531 285.039062 475.613281 284.109375 C 572.167969 235.980469 650.53125 252.167969 695.941406 329.945312 C 726.3125 381.652344 725.882812 457.566406 694.796875 538.351562 C 658.265625 632.601562 589.214844 708.085938 518.589844 730.429688 C 510.910156 732.9375 503.03125 734.179688 494.953125 734.15625 C 493.542969 734.152344 492.128906 734.109375 490.722656 734.027344 C 489.3125 733.945312 487.90625 733.824219 486.503906 733.664062 C 485.101562 733.507812 483.703125 733.308594 482.3125 733.074219 C 480.921875 732.839844 479.539062 732.566406 478.160156 732.253906 C 476.785156 731.945312 475.417969 731.59375 474.058594 731.207031 C 472.703125 730.824219 471.355469 730.398438 470.019531 729.9375 C 468.6875 729.480469 467.367188 728.984375 466.058594 728.449219 C 464.75 727.917969 463.460938 727.351562 462.183594 726.746094 C 460.910156 726.144531 459.648438 725.507812 458.410156 724.835938 C 457.167969 724.164062 455.945312 723.457031 454.742188 722.71875 C 453.542969 721.976562 452.359375 721.207031 451.199219 720.402344 C 450.039062 719.597656 448.902344 718.765625 447.789062 717.898438 C 446.675781 717.03125 445.585938 716.136719 444.519531 715.210938 C 443.453125 714.28125 442.414062 713.328125 441.402344 712.34375 C 440.390625 711.363281 439.40625 710.351562 438.449219 709.316406 C 437.492188 708.277344 436.5625 707.214844 435.664062 706.128906 C 434.765625 705.039062 433.894531 703.929688 433.058594 702.792969 C 432.21875 701.65625 431.414062 700.5 430.640625 699.320312 C 429.863281 698.140625 429.121094 696.941406 428.414062 695.71875 C 427.703125 694.5 427.03125 693.261719 426.390625 692.003906 C 425.75 690.746094 425.144531 689.472656 424.570312 688.179688 C 424 686.890625 423.464844 685.585938 422.964844 684.265625 C 422.46875 682.945312 422.003906 681.613281 421.578125 680.265625 C 421.152344 678.921875 420.761719 677.566406 420.410156 676.199219 C 420.058594 674.832031 419.746094 673.457031 419.46875 672.074219 C 419.191406 670.691406 418.953125 669.300781 418.753906 667.902344 C 418.554688 666.503906 418.390625 665.105469 418.269531 663.699219 C 418.144531 662.292969 418.058594 660.882812 418.011719 659.472656 C 417.96875 658.0625 417.960938 656.652344 417.992188 655.242188 C 418.023438 653.832031 418.09375 652.421875 418.199219 651.015625 C 418.308594 649.609375 418.457031 648.203125 418.640625 646.804688 C 418.828125 645.40625 419.050781 644.015625 419.3125 642.628906 Z M 78.648438 329.945312 C 124.203125 252.167969 202.421875 235.980469 298.976562 284.109375 C 300.816406 285.046875 302.613281 286.054688 304.367188 287.132812 C 306.125 288.214844 307.835938 289.363281 309.5 290.582031 C 311.164062 291.796875 312.777344 293.082031 314.335938 294.429688 C 315.898438 295.777344 317.402344 297.183594 318.851562 298.652344 C 320.296875 300.121094 321.683594 301.644531 323.011719 303.226562 C 324.335938 304.804688 325.59375 306.4375 326.789062 308.117188 C 327.984375 309.796875 329.105469 311.523438 330.164062 313.296875 C 331.21875 315.066406 332.199219 316.878906 333.109375 318.730469 C 334.019531 320.582031 334.851562 322.464844 335.609375 324.382812 C 336.367188 326.300781 337.046875 328.246094 337.648438 330.21875 C 338.25 332.191406 338.773438 334.183594 339.214844 336.195312 C 339.65625 338.210938 340.015625 340.238281 340.292969 342.285156 C 340.570312 344.328125 340.765625 346.378906 340.878906 348.4375 C 340.992188 350.496094 341.019531 352.554688 340.96875 354.617188 C 340.914062 356.679688 340.78125 358.734375 340.5625 360.785156 C 340.34375 362.835938 340.042969 364.875 339.660156 366.898438 C 328.34375 427.917969 324.476562 475.757812 329.0625 501.683594 C 334.792969 533.769531 346.109375 594.785156 355.132812 642.628906 C 355.390625 644.015625 355.605469 645.410156 355.785156 646.808594 C 355.964844 648.207031 356.105469 649.609375 356.210938 651.015625 C 356.3125 652.425781 356.378906 653.832031 356.402344 655.242188 C 356.429688 656.652344 356.417969 658.0625 356.363281 659.472656 C 356.3125 660.882812 356.222656 662.292969 356.097656 663.695312 C 355.96875 665.101562 355.800781 666.5 355.597656 667.898438 C 355.394531 669.292969 355.152344 670.683594 354.871094 672.066406 C 354.589844 673.449219 354.273438 674.820312 353.917969 676.1875 C 353.5625 677.550781 353.167969 678.90625 352.738281 680.25 C 352.308594 681.59375 351.84375 682.925781 351.339844 684.246094 C 350.839844 685.5625 350.300781 686.867188 349.726562 688.15625 C 349.15625 689.445312 348.546875 690.714844 347.902344 691.972656 C 347.261719 693.226562 346.585938 694.464844 345.875 695.683594 C 345.164062 696.902344 344.421875 698.101562 343.644531 699.28125 C 342.867188 700.457031 342.0625 701.613281 341.222656 702.75 C 340.382812 703.882812 339.511719 704.992188 338.613281 706.082031 C 337.714844 707.167969 336.785156 708.230469 335.828125 709.265625 C 334.871094 710.300781 333.882812 711.308594 332.871094 712.292969 C 331.859375 713.273438 330.820312 714.226562 329.753906 715.152344 C 328.6875 716.078125 327.601562 716.972656 326.484375 717.839844 C 325.371094 718.707031 324.234375 719.542969 323.074219 720.34375 C 321.917969 721.148438 320.734375 721.921875 319.535156 722.660156 C 318.332031 723.398438 317.113281 724.105469 315.871094 724.777344 C 314.632812 725.449219 313.375 726.089844 312.097656 726.695312 C 310.824219 727.296875 309.53125 727.867188 308.226562 728.398438 C 306.921875 728.933594 305.601562 729.429688 304.265625 729.894531 C 302.933594 730.355469 301.589844 730.777344 300.230469 731.167969 C 298.875 731.554688 297.507812 731.90625 296.132812 732.21875 C 294.757812 732.53125 293.375 732.808594 291.984375 733.046875 C 290.59375 733.285156 289.195312 733.484375 287.796875 733.644531 C 286.394531 733.808594 284.988281 733.929688 283.578125 734.015625 C 282.171875 734.101562 280.761719 734.148438 279.351562 734.15625 C 271.273438 734.179688 263.394531 732.9375 255.714844 730.429688 C 246.054688 726.9375 236.65625 722.839844 227.523438 718.144531 C 218.390625 713.445312 209.59375 708.183594 201.132812 702.359375 C 192.671875 696.535156 184.617188 690.195312 176.96875 683.339844 C 169.324219 676.484375 162.144531 669.167969 155.433594 661.390625 C 139.242188 643.367188 124.839844 624.015625 112.222656 603.335938 C 99.605469 582.652344 88.984375 560.992188 80.367188 538.351562 C 48.707031 457.566406 48.277344 381.652344 78.648438 329.945312 Z M 443.953125 201.03125 C 442.664062 182.984375 441.230469 164.792969 439.367188 146.601562 C 472.890625 138.726562 501.113281 113.085938 527.328125 87.160156 L 544.804688 69.542969 C 545.183594 79.085938 544.613281 88.570312 543.09375 97.996094 C 541.574219 107.425781 539.136719 116.609375 535.78125 125.546875 C 532.3125 133.5 528.171875 141.085938 523.359375 148.300781 C 518.546875 155.519531 513.136719 162.257812 507.128906 168.519531 C 500.078125 176.359375 493.488281 184.570312 487.359375 193.15625 Z M 204.714844 139.296875 C 200.015625 132.878906 196.015625 126.050781 192.710938 118.8125 C 189.40625 111.578125 186.863281 104.082031 185.085938 96.328125 L 206.289062 108.214844 C 235.945312 124.832031 280.925781 150.183594 326.195312 140.730469 C 332.902344 160.628906 338.0625 180.921875 341.667969 201.605469 L 265.023438 186.136719 C 257.492188 180.175781 249.660156 174.636719 241.53125 169.519531 C 227.523438 161.5 215.253906 151.378906 204.714844 139.15625 Z M 318.03125 50.492188 C 317.027344 48.554688 316.265625 46.527344 315.746094 44.410156 C 315.230469 42.289062 314.972656 40.140625 314.972656 37.960938 C 314.972656 35.777344 315.230469 33.628906 315.746094 31.507812 C 316.265625 29.390625 317.027344 27.363281 318.03125 25.425781 C 318.988281 23.417969 320.160156 21.550781 321.554688 19.816406 C 322.945312 18.082031 324.515625 16.53125 326.269531 15.164062 C 328.023438 13.796875 329.910156 12.648438 331.929688 11.722656 C 333.949219 10.792969 336.050781 10.109375 338.230469 9.671875 C 346.96875 7.953125 355.707031 6.375 364.589844 4.945312 C 366.414062 4.679688 368.25 4.59375 370.09375 4.683594 C 371.9375 4.773438 373.757812 5.039062 375.550781 5.480469 C 377.34375 5.921875 379.074219 6.53125 380.75 7.308594 C 382.425781 8.085938 384.007812 9.015625 385.503906 10.101562 C 386.996094 11.175781 388.363281 12.390625 389.609375 13.746094 C 390.851562 15.097656 391.949219 16.5625 392.898438 18.136719 C 393.84375 19.714844 394.625 21.367188 395.238281 23.101562 C 395.851562 24.835938 396.28125 26.613281 396.535156 28.433594 C 401.835938 63.8125 406.277344 100.050781 409.859375 135.144531 C 412.339844 158.347656 414.347656 181.554688 415.875 204.757812 L 415.875 206.1875 C 401.578125 208.203125 387.253906 208.441406 372.898438 206.90625 C 370.707031 193.183594 367.90625 179.585938 364.5 166.113281 C 361.089844 152.640625 357.085938 139.351562 352.484375 126.238281 C 347.886719 113.125 342.707031 100.242188 336.953125 87.59375 C 331.199219 74.945312 324.890625 62.578125 318.03125 50.492188 Z M 318.03125 50.492188 " fill-opacity="1" fill-rule="nonzero"/><g clip-path="url(#d8534756d9)"><g clip-path="url(#003a53a68d)"><g transform="matrix(1, 0, 0, 1, 627, 660)"><g clip-path="url(#42e09c7d7c)"><g clip-path="url(#19e2b7a60d)"><g clip-path="url(#39627c0c37)"><path fill="#000000" d="M 0.441406 0.28125 L 23.941406 0.28125 L 23.941406 23.78125 L 0.441406 23.78125 Z M 0.441406 0.28125 " fill-opacity="1" fill-rule="nonzero"/></g></g></g></g></g></g></svg>