<svg xmlns="http://www.w3.org/2000/svg" xmlns:xlink="http://www.w3.org/1999/xlink" width="1080" zoomAndPan="magnify" viewBox="0 0 810 809.999993" height="1080" preserveAspectRatio="xMidYMid meet" version="1.0"><defs><clipPath id="467310dfa5"><path d="M 6.582031 0 L 480 0 L 480 810 L 6.582031 810 Z M 6.582031 0 " clip-rule="nonzero"/></clipPath><clipPath id="9c7ad29e96"><path d="M 478.804688 482.257812 L 502.304688 482.257812 L 502.304688 505.757812 L 478.804688 505.757812 Z M 478.804688 482.257812 " clip-rule="nonzero"/></clipPath><clipPath id="0cc797fe62"><path d="M 490.554688 482.257812 C 484.0625 482.257812 478.804688 487.519531 478.804688 494.007812 C 478.804688 500.5 484.0625 505.757812 490.554688 505.757812 C 497.042969 505.757812 502.304688 500.5 502.304688 494.007812 C 502.304688 487.519531 497.042969 482.257812 490.554688 482.257812 Z M 490.554688 482.257812 " clip-rule="nonzero"/></clipPath><clipPath id="51f25a4597"><path d="M 0.804688 0.257812 L 24.304688 0.257812 L 24.304688 23.757812 L 0.804688 23.757812 Z M 0.804688 0.257812 " clip-rule="nonzero"/></clipPath><clipPath id="10b8da251b"><path d="M 12.554688 0.257812 C 6.0625 0.257812 0.804688 5.519531 0.804688 12.007812 C 0.804688 18.5 6.0625 23.757812 12.554688 23.757812 C 19.042969 23.757812 24.304688 18.5 24.304688 12.007812 C 24.304688 5.519531 19.042969 0.257812 12.554688 0.257812 Z M 12.554688 0.257812 " clip-rule="nonzero"/></clipPath><clipPath id="7c51133650"><rect x="0" width="25" y="0" height="24"/></clipPath></defs><path fill="#000000" d="M 465.554688 810 C 443.234375 810 425.074219 791.832031 425.074219 769.5 L 425.074219 661.5 C 425.074219 654.042969 431.113281 648 438.566406 648 C 446.019531 648 452.0625 654.042969 452.0625 661.5 L 452.0625 769.5 C 452.0625 776.945312 458.117188 783 465.554688 783 C 472.996094 783 479.050781 776.945312 479.050781 769.5 L 479.050781 40.5 C 479.050781 33.054688 472.996094 27 465.554688 27 C 458.117188 27 452.0625 33.054688 452.0625 40.5 L 452.0625 594 C 452.0625 601.457031 446.019531 607.5 438.566406 607.5 C 431.113281 607.5 425.074219 601.457031 425.074219 594 L 425.074219 40.5 C 425.074219 18.167969 443.234375 0 465.554688 0 C 487.878906 0 506.039062 18.167969 506.039062 40.5 L 506.039062 769.5 C 506.039062 791.832031 487.878906 810 465.554688 810 Z M 465.554688 810 " fill-opacity="1" fill-rule="nonzero"/><g clip-path="url(#467310dfa5)"><path fill="#000000" d="M 465.554688 810 L 53.976562 810 C 27.933594 810 6.746094 788.804688 6.746094 762.75 L 6.746094 47.25 C 6.746094 21.195312 27.933594 0 53.976562 0 L 465.554688 0 C 473.007812 0 479.050781 6.042969 479.050781 13.5 C 479.050781 20.957031 473.007812 27 465.554688 27 L 53.976562 27 C 42.8125 27 33.734375 36.082031 33.734375 47.25 L 33.734375 762.75 C 33.734375 773.917969 42.8125 783 53.976562 783 L 465.554688 783 C 473.007812 783 479.050781 789.042969 479.050781 796.5 C 479.050781 803.957031 473.007812 810 465.554688 810 Z M 465.554688 810 " fill-opacity="1" fill-rule="nonzero"/></g><path fill="#000000" d="M 643.992188 293.015625 C 617.714844 293.015625 589.605469 287.347656 560.792969 275.988281 C 559.234375 275.371094 557.691406 274.695312 556.203125 273.976562 C 549.496094 270.726562 546.691406 262.65625 549.9375 255.941406 C 553.183594 249.230469 561.253906 246.421875 567.964844 249.671875 C 568.847656 250.097656 569.765625 250.503906 570.695312 250.867188 C 624.195312 271.960938 672.066406 271.332031 709.128906 249.042969 C 746.191406 226.753906 769.203125 184.753906 775.675781 127.582031 C 777.699219 109.726562 767.441406 92.65625 750.730469 86.066406 C 697.21875 64.96875 649.347656 65.601562 612.289062 87.886719 C 575.226562 110.175781 552.214844 152.175781 545.738281 209.347656 C 545.527344 211.222656 545.449219 213.128906 545.503906 215.011719 C 545.726562 222.464844 539.871094 228.6875 532.421875 228.910156 C 525.011719 229.171875 518.75 223.269531 518.527344 215.820312 C 518.433594 212.65625 518.566406 209.457031 518.921875 206.308594 C 526.273438 141.417969 554.492188 91.144531 598.382812 64.746094 C 642.277344 38.351562 699.894531 37.003906 760.628906 60.949219 C 788.671875 72.003906 805.890625 100.65625 802.496094 130.625 C 795.144531 195.515625 766.925781 245.789062 723.035156 272.183594 C 699.964844 286.058594 673.105469 293.015625 643.996094 293.015625 Z M 643.992188 293.015625 " fill-opacity="1" fill-rule="nonzero"/><path fill="#000000" d="M 492.550781 395.34375 C 491.277344 395.34375 489.984375 395.160156 488.703125 394.78125 C 481.558594 392.65625 477.488281 385.144531 479.609375 377.996094 C 507.753906 283.199219 578.09375 209.09375 672.589844 174.683594 C 675.976562 173.453125 678.679688 170.972656 680.203125 167.703125 C 681.726562 164.433594 681.886719 160.769531 680.652344 157.382812 C 678.105469 150.386719 670.347656 146.769531 663.355469 149.316406 C 598.171875 173.050781 542.886719 214.398438 503.476562 268.890625 C 499.105469 274.929688 490.671875 276.285156 484.632812 271.914062 C 478.59375 267.542969 477.242188 259.105469 481.609375 253.0625 C 524.195312 194.183594 583.851562 149.53125 654.125 123.941406 C 675.101562 116.304688 698.378906 127.164062 706.011719 148.144531 C 709.710938 158.3125 709.230469 169.308594 704.664062 179.113281 C 700.09375 188.917969 691.980469 196.355469 681.816406 200.054688 C 595.4375 231.511719 531.167969 299.167969 505.480469 385.679688 C 503.738281 391.546875 498.367188 395.339844 492.546875 395.339844 Z M 492.550781 395.34375 " fill-opacity="1" fill-rule="nonzero"/><path fill="#000000" d="M 644.074219 613.292969 C 638.222656 613.292969 632.269531 613.007812 626.222656 612.4375 C 618.800781 611.738281 613.355469 605.152344 614.054688 597.730469 C 614.757812 590.308594 621.347656 584.867188 628.757812 585.558594 C 667.765625 589.246094 701.851562 578.882812 727.351562 555.597656 C 753.699219 531.546875 770.410156 494.25 775.675781 447.746094 C 777.699219 429.890625 767.441406 412.816406 750.730469 406.226562 C 697.21875 385.128906 649.347656 385.761719 612.289062 408.050781 C 575.226562 430.339844 552.214844 472.339844 545.738281 529.511719 C 545.527344 531.382812 545.449219 533.289062 545.503906 535.171875 C 545.726562 542.628906 539.871094 548.847656 532.421875 549.070312 C 525.011719 549.320312 518.75 543.433594 518.527344 535.980469 C 518.433594 532.816406 518.566406 529.617188 518.921875 526.472656 C 526.273438 461.582031 554.492188 411.308594 598.382812 384.910156 C 642.277344 358.515625 699.894531 357.167969 760.628906 381.109375 C 788.671875 392.167969 805.890625 420.820312 802.496094 450.785156 C 796.480469 503.878906 776.789062 547.019531 745.546875 575.542969 C 718.308594 600.40625 683.503906 613.296875 644.078125 613.296875 Z M 644.074219 613.292969 " fill-opacity="1" fill-rule="nonzero"/><path fill="#000000" d="M 492.550781 715.503906 C 491.277344 715.503906 489.984375 715.324219 488.703125 714.941406 C 481.558594 712.820312 477.488281 705.304688 479.609375 698.15625 C 507.753906 603.359375 578.09375 529.253906 672.589844 494.847656 C 675.976562 493.613281 678.679688 491.132812 680.203125 487.863281 C 681.726562 484.597656 681.886719 480.929688 680.652344 477.542969 C 678.109375 470.550781 670.351562 466.929688 663.355469 469.472656 C 598.171875 493.210938 542.886719 534.558594 503.476562 589.050781 C 499.105469 595.089844 490.671875 596.445312 484.632812 592.074219 C 478.59375 587.703125 477.242188 579.265625 481.609375 573.222656 C 524.195312 514.339844 583.851562 469.691406 654.125 444.101562 C 675.105469 436.46875 698.378906 447.324219 706.011719 468.304688 C 709.710938 478.472656 709.230469 489.46875 704.664062 499.273438 C 700.09375 509.078125 691.980469 516.515625 681.816406 520.214844 C 595.4375 551.671875 531.167969 619.328125 505.480469 705.84375 C 503.738281 711.707031 498.367188 715.5 492.546875 715.5 Z M 492.550781 715.503906 " fill-opacity="1" fill-rule="nonzero"/><path fill="#000000" d="M 88.050781 202.5 C 80.597656 202.5 74.554688 196.457031 74.554688 189 C 74.554688 164.332031 82.703125 139.882812 97.496094 120.148438 C 108.808594 105.058594 115.039062 86.363281 115.039062 67.5 L 115.039062 13.5 C 115.039062 6.042969 121.082031 0 128.53125 0 C 135.984375 0 142.027344 6.042969 142.027344 13.5 L 142.027344 67.5 C 142.027344 92.167969 133.878906 116.617188 119.085938 136.351562 C 107.773438 151.441406 101.542969 170.136719 101.542969 189 C 101.542969 196.457031 95.5 202.5 88.050781 202.5 Z M 88.050781 202.5 " fill-opacity="1" fill-rule="nonzero"/><path fill="#000000" d="M 236.488281 270 C 229.035156 270 222.992188 263.957031 222.992188 256.5 L 222.992188 222.75 C 222.992188 203.890625 216.765625 185.191406 205.449219 170.101562 C 198.460938 160.777344 192.949219 150.484375 189.070312 139.5 C 186.585938 132.46875 190.269531 124.757812 197.296875 122.273438 C 204.320312 119.789062 212.03125 123.472656 214.515625 130.5 C 217.480469 138.898438 221.695312 146.773438 227.039062 153.898438 C 241.832031 173.632812 249.980469 198.082031 249.980469 222.75 L 249.980469 256.5 C 249.980469 263.957031 243.9375 270 236.488281 270 Z M 236.488281 270 " fill-opacity="1" fill-rule="nonzero"/><path fill="#000000" d="M 196.003906 94.5 C 188.550781 94.5 182.511719 88.457031 182.511719 81 L 182.511719 13.5 C 182.511719 6.042969 188.550781 0 196.003906 0 C 203.457031 0 209.5 6.042969 209.5 13.5 L 209.5 81 C 209.5 88.457031 203.457031 94.5 196.003906 94.5 Z M 196.003906 94.5 " fill-opacity="1" fill-rule="nonzero"/><path fill="#000000" d="M 303.960938 324 C 303.082031 324 302.1875 323.914062 301.328125 323.730469 C 300.46875 323.5625 299.609375 323.308594 298.796875 322.96875 C 297.988281 322.632812 297.195312 322.210938 296.472656 321.722656 C 295.730469 321.234375 295.035156 320.675781 294.414062 320.050781 C 293.804688 319.425781 293.230469 318.734375 292.742188 317.992188 C 292.253906 317.265625 291.832031 316.472656 291.496094 315.664062 C 291.15625 314.855469 290.90625 313.992188 290.734375 313.132812 C 290.550781 312.273438 290.464844 311.378906 290.464844 310.5 C 290.464844 309.621094 290.550781 308.726562 290.734375 307.867188 C 290.90625 307.007812 291.15625 306.144531 291.496094 305.335938 C 291.832031 304.527344 292.253906 303.734375 292.742188 303.007812 C 293.230469 302.265625 293.804688 301.574219 294.414062 300.949219 C 295.035156 300.324219 295.730469 299.765625 296.472656 299.277344 C 297.195312 298.789062 297.988281 298.367188 298.796875 298.03125 C 299.609375 297.691406 300.46875 297.4375 301.328125 297.269531 C 303.066406 296.914062 304.855469 296.914062 306.589844 297.269531 C 307.453125 297.4375 308.3125 297.691406 309.121094 298.03125 C 309.929688 298.367188 310.722656 298.789062 311.449219 299.277344 C 312.191406 299.765625 312.882812 300.324219 313.507812 300.949219 C 314.132812 301.574219 314.6875 302.265625 315.175781 303.007812 C 315.667969 303.734375 316.089844 304.527344 316.425781 305.335938 C 316.761719 306.144531 317.015625 307.007812 317.183594 307.867188 C 317.371094 308.726562 317.453125 309.621094 317.453125 310.5 C 317.453125 311.378906 317.371094 312.273438 317.183594 313.132812 C 317.015625 313.992188 316.761719 314.855469 316.425781 315.664062 C 316.089844 316.472656 315.667969 317.265625 315.175781 317.992188 C 314.6875 318.734375 314.132812 319.425781 313.507812 320.050781 C 312.882812 320.675781 312.191406 321.234375 311.449219 321.722656 C 310.722656 322.210938 309.929688 322.632812 309.121094 322.96875 C 308.3125 323.308594 307.453125 323.5625 306.589844 323.730469 C 305.730469 323.914062 304.835938 324 303.960938 324 Z M 303.960938 324 " fill-opacity="1" fill-rule="nonzero"/><path fill="#000000" d="M 303.960938 270 C 296.507812 270 290.464844 263.957031 290.464844 256.5 L 290.464844 13.5 C 290.464844 6.042969 296.507812 0 303.960938 0 C 311.414062 0 317.453125 6.042969 317.453125 13.5 L 317.453125 256.5 C 317.453125 263.957031 311.414062 270 303.960938 270 Z M 303.960938 270 " fill-opacity="1" fill-rule="nonzero"/><path fill="#000000" d="M 357.582031 256.5 C 350.738281 256.5 344.871094 251.308594 344.171875 244.347656 C 342.667969 229.363281 334.898438 215.589844 322.851562 206.550781 C 302.574219 191.332031 290.464844 167.109375 290.464844 141.75 L 290.464844 135 C 290.464844 127.542969 296.507812 121.5 303.960938 121.5 C 311.414062 121.5 317.453125 127.542969 317.453125 135 L 317.453125 141.75 C 317.453125 158.65625 325.527344 174.804688 339.046875 184.949219 C 357.113281 198.507812 368.769531 219.175781 371.027344 241.652344 C 371.773438 249.070312 366.367188 255.6875 358.949219 256.433594 C 358.492188 256.476562 358.035156 256.5 357.582031 256.5 Z M 357.582031 256.5 " fill-opacity="1" fill-rule="nonzero"/><path fill="#000000" d="M 371.09375 810 C 363.644531 810 357.601562 803.957031 357.601562 796.5 L 357.601562 745.351562 C 357.601562 704.792969 328.136719 684.125 324.289062 681.601562 C 323.894531 681.390625 323.507812 681.160156 323.128906 680.90625 L 323.105469 680.894531 C 294.007812 661.476562 276.632812 628.996094 276.632812 594 C 276.632812 586.546875 282.675781 580.5 290.128906 580.5 C 297.582031 580.5 303.621094 586.546875 303.621094 594 C 303.621094 619.957031 316.511719 644.046875 338.097656 658.445312 L 338.089844 658.453125 L 338.097656 658.445312 C 338.15625 658.480469 338.210938 658.519531 338.269531 658.558594 C 345.351562 662.742188 354.984375 671.824219 361.484375 679.914062 C 376.601562 698.714844 384.589844 721.34375 384.589844 745.351562 L 384.589844 796.5 C 384.589844 803.957031 378.550781 810 371.097656 810 Z M 371.09375 810 " fill-opacity="1" fill-rule="nonzero"/><path fill="#000000" d="M 303.621094 810 C 296.171875 810 290.128906 803.957031 290.128906 796.5 L 290.128906 729 C 290.128906 721.542969 296.171875 715.5 303.621094 715.5 C 311.074219 715.5 317.117188 721.542969 317.117188 729 L 317.117188 796.5 C 317.117188 803.957031 311.074219 810 303.621094 810 Z M 303.621094 810 " fill-opacity="1" fill-rule="nonzero"/><path fill="#000000" d="M 87.710938 810 C 80.257812 810 74.21875 803.957031 74.21875 796.5 L 74.21875 713.183594 C 74.21875 684.953125 85.207031 658.414062 105.160156 638.453125 C 120.015625 623.59375 128.195312 603.832031 128.195312 582.816406 C 128.195312 575.359375 134.238281 569.316406 141.691406 569.316406 C 149.140625 569.316406 155.183594 575.359375 155.183594 582.816406 C 155.183594 611.046875 144.195312 637.585938 124.242188 657.542969 C 109.386719 672.40625 101.207031 692.164062 101.207031 713.183594 L 101.207031 796.5 C 101.207031 803.957031 95.164062 810 87.710938 810 Z M 87.710938 810 " fill-opacity="1" fill-rule="nonzero"/><path fill="#000000" d="M 155.183594 810 C 147.730469 810 141.691406 803.957031 141.691406 796.5 L 141.691406 702 C 141.691406 694.542969 147.730469 688.5 155.183594 688.5 C 162.636719 688.5 168.679688 694.542969 168.679688 702 L 168.679688 796.5 C 168.679688 803.957031 162.636719 810 155.183594 810 Z M 155.183594 810 " fill-opacity="1" fill-rule="nonzero"/><path fill="#000000" d="M 222.65625 810 C 215.203125 810 209.160156 803.957031 209.160156 796.5 L 209.160156 648 C 209.160156 640.542969 215.203125 634.5 222.65625 634.5 C 230.109375 634.5 236.152344 640.542969 236.152344 648 L 236.152344 796.5 C 236.152344 803.957031 230.109375 810 222.65625 810 Z M 222.65625 810 " fill-opacity="1" fill-rule="nonzero"/><path fill="#000000" d="M 222.65625 607.5 C 221.777344 607.5 220.886719 607.414062 220.023438 607.230469 C 219.164062 607.0625 218.304688 606.808594 217.496094 606.46875 C 216.683594 606.132812 215.890625 605.710938 215.167969 605.222656 C 214.425781 604.734375 213.734375 604.175781 213.109375 603.550781 C 212.484375 602.925781 211.929688 602.234375 211.4375 601.492188 C 210.949219 600.765625 210.527344 599.972656 210.191406 599.164062 C 209.851562 598.355469 209.601562 597.492188 209.433594 596.632812 C 209.246094 595.773438 209.160156 594.878906 209.160156 594 C 209.160156 593.121094 209.246094 592.226562 209.433594 591.367188 C 209.601562 590.507812 209.851562 589.644531 210.191406 588.835938 C 210.527344 588.027344 210.949219 587.234375 211.4375 586.507812 C 211.929688 585.765625 212.484375 585.074219 213.109375 584.449219 C 213.734375 583.824219 214.425781 583.265625 215.167969 582.777344 C 215.890625 582.289062 216.683594 581.867188 217.496094 581.53125 C 218.304688 581.191406 219.164062 580.9375 220.023438 580.769531 C 221.761719 580.414062 223.550781 580.414062 225.289062 580.769531 C 226.148438 580.9375 227.007812 581.191406 227.816406 581.53125 C 228.628906 581.867188 229.421875 582.289062 230.144531 582.777344 C 230.886719 583.265625 231.578125 583.824219 232.203125 584.449219 C 232.8125 585.074219 233.382812 585.765625 233.875 586.507812 C 234.363281 587.234375 234.785156 588.027344 235.121094 588.835938 C 235.460938 589.644531 235.710938 590.507812 235.882812 591.367188 C 236.066406 592.226562 236.152344 593.121094 236.152344 594 C 236.152344 594.878906 236.066406 595.773438 235.882812 596.632812 C 235.710938 597.492188 235.460938 598.355469 235.121094 599.164062 C 234.785156 599.972656 234.363281 600.765625 233.875 601.492188 C 233.382812 602.234375 232.8125 602.925781 232.203125 603.550781 C 231.578125 604.175781 230.886719 604.734375 230.144531 605.222656 C 229.421875 605.710938 228.628906 606.132812 227.816406 606.46875 C 227.007812 606.808594 226.148438 607.0625 225.289062 607.230469 C 224.425781 607.414062 223.535156 607.5 222.65625 607.5 Z M 222.65625 607.5 " fill-opacity="1" fill-rule="nonzero"/><path fill="#000000" d="M 303.621094 567 C 292.792969 567 282.625 562.78125 274.988281 555.117188 L 234.519531 514.632812 C 226.875 506.996094 222.660156 496.824219 222.660156 486 C 222.660156 475.175781 226.875 465.003906 234.527344 457.363281 C 242.296875 449.570312 252.667969 445.507812 263.136719 445.503906 L 263.136719 391.5 C 263.136719 369.167969 281.300781 351 303.621094 351 C 325.941406 351 344.105469 369.167969 344.105469 391.5 L 344.105469 445.503906 C 354.582031 445.507812 364.949219 449.574219 372.734375 457.375 C 380.371094 465.003906 384.582031 475.175781 384.582031 486 C 384.582031 496.820312 380.367188 506.996094 372.714844 514.636719 L 332.238281 555.128906 C 324.617188 562.777344 314.449219 567 303.621094 567 Z M 263.144531 472.5 C 259.65625 472.5 256.207031 473.851562 253.613281 476.453125 C 251.050781 479.011719 249.648438 482.394531 249.648438 486 C 249.648438 489.609375 251.050781 492.992188 253.59375 495.535156 L 294.085938 536.042969 C 296.636719 538.601562 300.019531 540 303.621094 540 C 307.222656 540 310.609375 538.601562 313.144531 536.054688 L 353.640625 495.542969 L 353.648438 495.535156 C 356.195312 492.992188 357.59375 489.605469 357.59375 486 C 357.59375 482.398438 356.195312 479.011719 353.648438 476.46875 C 349.324219 472.136719 342.640625 471.253906 337.382812 474.308594 C 333.207031 476.730469 328.058594 476.734375 323.875 474.328125 C 319.691406 471.917969 317.117188 467.457031 317.117188 462.628906 L 317.117188 391.5 C 317.117188 384.058594 311.0625 378 303.621094 378 C 296.179688 378 290.125 384.058594 290.125 391.5 L 290.125 462.628906 C 290.125 467.457031 287.550781 471.917969 283.367188 474.328125 C 279.1875 476.738281 274.035156 476.730469 269.863281 474.308594 C 267.765625 473.09375 265.445312 472.5 263.144531 472.5 Z M 263.144531 472.5 " fill-opacity="1" fill-rule="nonzero"/><path fill="#000000" d="M 155.183594 526.5 C 132.859375 526.5 114.699219 508.332031 114.699219 486 L 114.699219 377.996094 C 104.222656 377.992188 93.855469 373.925781 86.074219 366.125 C 78.4375 358.496094 74.222656 348.324219 74.222656 337.5 C 74.222656 326.679688 78.4375 316.503906 86.089844 308.863281 L 126.566406 268.371094 C 134.195312 260.722656 144.363281 256.503906 155.1875 256.503906 C 166.007812 256.503906 176.171875 260.722656 183.8125 268.375 L 224.28125 308.863281 C 231.933594 316.503906 236.148438 326.675781 236.148438 337.5 C 236.148438 348.324219 231.933594 358.496094 224.28125 366.136719 C 216.667969 373.78125 206.5 378 195.671875 378 L 195.671875 486 C 195.671875 508.332031 177.511719 526.5 155.1875 526.5 Z M 128.195312 347.371094 C 130.519531 347.371094 132.847656 347.972656 134.929688 349.175781 C 139.113281 351.582031 141.691406 356.042969 141.691406 360.871094 L 141.691406 486 C 141.691406 493.445312 147.742188 499.5 155.183594 499.5 C 162.625 499.5 168.679688 493.445312 168.679688 486 L 168.679688 360.890625 C 168.679688 356.0625 171.253906 351.605469 175.433594 349.191406 C 179.609375 346.78125 184.761719 346.785156 188.933594 349.207031 C 190.960938 350.378906 193.289062 351 195.664062 351 C 199.269531 351 202.652344 349.597656 205.1875 347.054688 C 207.753906 344.488281 209.15625 341.105469 209.15625 337.5 C 209.15625 333.894531 207.753906 330.511719 205.210938 327.96875 L 205.203125 327.960938 L 164.71875 287.460938 C 162.171875 284.90625 158.785156 283.503906 155.183594 283.503906 C 151.582031 283.503906 148.199219 284.90625 145.65625 287.453125 L 105.164062 327.960938 C 102.613281 330.511719 101.210938 333.894531 101.210938 337.5 C 101.210938 341.105469 102.613281 344.488281 105.160156 347.03125 C 109.480469 351.363281 116.164062 352.246094 121.425781 349.195312 C 123.519531 347.980469 125.855469 347.371094 128.195312 347.371094 Z M 128.195312 347.371094 " fill-opacity="1" fill-rule="nonzero"/><g clip-path="url(#9c7ad29e96)"><g clip-path="url(#0cc797fe62)"><g transform="matrix(1, 0, 0, 1, 478, 482)"><g clip-path="url(#7c51133650)"><g clip-path="url(#51f25a4597)"><g clip-path="url(#10b8da251b)"><path fill="#000000" d="M 0.804688 0.257812 L 24.304688 0.257812 L 24.304688 23.757812 L 0.804688 23.757812 Z M 0.804688 0.257812 " fill-opacity="1" fill-rule="nonzero"/></g></g></g></g></g></g></svg>