<svg xmlns="http://www.w3.org/2000/svg" xmlns:xlink="http://www.w3.org/1999/xlink" width="1080" zoomAndPan="magnify" viewBox="0 0 810 809.999993" height="1080" preserveAspectRatio="xMidYMid meet" version="1.0"><defs><clipPath id="faebfe3a8d"><path d="M 393.25 622.253906 L 416.75 622.253906 L 416.75 645.753906 L 393.25 645.753906 Z M 393.25 622.253906 " clip-rule="nonzero"/></clipPath><clipPath id="95584b9994"><path d="M 405 622.253906 C 398.511719 622.253906 393.25 627.515625 393.25 634.003906 C 393.25 640.496094 398.511719 645.753906 405 645.753906 C 411.488281 645.753906 416.75 640.496094 416.75 634.003906 C 416.75 627.515625 411.488281 622.253906 405 622.253906 Z M 405 622.253906 " clip-rule="nonzero"/></clipPath><clipPath id="a963af16fb"><path d="M 0.25 0.253906 L 23.75 0.253906 L 23.75 23.753906 L 0.25 23.753906 Z M 0.25 0.253906 " clip-rule="nonzero"/></clipPath><clipPath id="2e32738edf"><path d="M 12 0.253906 C 5.511719 0.253906 0.25 5.515625 0.25 12.003906 C 0.25 18.496094 5.511719 23.753906 12 23.753906 C 18.488281 23.753906 23.75 18.496094 23.75 12.003906 C 23.75 5.515625 18.488281 0.253906 12 0.253906 Z M 12 0.253906 " clip-rule="nonzero"/></clipPath><clipPath id="b84b7361d3"><rect x="0" width="24" y="0" height="24"/></clipPath></defs><path fill="#000000" d="M 571.964844 737.921875 C 571.964844 738.457031 571.9375 738.988281 571.886719 739.515625 C 571.835938 740.046875 571.757812 740.570312 571.652344 741.09375 C 571.550781 741.617188 571.417969 742.132812 571.265625 742.640625 C 571.109375 743.152344 570.933594 743.652344 570.726562 744.144531 C 570.523438 744.636719 570.296875 745.117188 570.046875 745.585938 C 569.796875 746.054688 569.523438 746.511719 569.226562 746.953125 C 568.929688 747.398438 568.613281 747.824219 568.277344 748.234375 C 567.9375 748.648438 567.582031 749.039062 567.207031 749.417969 C 566.828125 749.792969 566.433594 750.152344 566.023438 750.488281 C 565.613281 750.824219 565.183594 751.144531 564.742188 751.4375 C 564.300781 751.734375 563.84375 752.007812 563.375 752.257812 C 562.90625 752.511719 562.425781 752.738281 561.933594 752.941406 C 561.441406 753.144531 560.941406 753.324219 560.429688 753.476562 C 559.921875 753.632812 559.40625 753.761719 558.882812 753.867188 C 558.363281 753.96875 557.835938 754.046875 557.304688 754.101562 C 556.777344 754.152344 556.246094 754.179688 555.714844 754.179688 C 555.179688 754.179688 554.652344 754.152344 554.121094 754.101562 C 553.589844 754.046875 553.066406 753.96875 552.542969 753.867188 C 552.019531 753.761719 551.503906 753.632812 550.996094 753.476562 C 550.488281 753.324219 549.984375 753.144531 549.496094 752.941406 C 549.003906 752.738281 548.523438 752.511719 548.054688 752.257812 C 547.582031 752.007812 547.128906 751.734375 546.683594 751.4375 C 546.242188 751.144531 545.816406 750.824219 545.402344 750.488281 C 544.992188 750.152344 544.597656 749.792969 544.222656 749.417969 C 543.847656 749.039062 543.488281 748.648438 543.152344 748.234375 C 542.8125 747.824219 542.496094 747.398438 542.199219 746.953125 C 541.90625 746.511719 541.632812 746.054688 541.382812 745.585938 C 541.128906 745.117188 540.902344 744.636719 540.699219 744.144531 C 540.496094 743.652344 540.316406 743.152344 540.160156 742.640625 C 540.007812 742.132812 539.878906 741.617188 539.773438 741.09375 C 539.671875 740.570312 539.59375 740.046875 539.539062 739.515625 C 539.488281 738.988281 539.460938 738.457031 539.460938 737.921875 C 539.460938 737.390625 539.488281 736.859375 539.539062 736.328125 C 539.59375 735.800781 539.671875 735.273438 539.773438 734.75 C 539.878906 734.230469 540.007812 733.714844 540.160156 733.203125 C 540.316406 732.695312 540.496094 732.195312 540.699219 731.703125 C 540.902344 731.210938 541.128906 730.730469 541.382812 730.261719 C 541.632812 729.789062 541.90625 729.335938 542.199219 728.890625 C 542.496094 728.449219 542.8125 728.023438 543.152344 727.609375 C 543.488281 727.199219 543.847656 726.804688 544.222656 726.429688 C 544.597656 726.050781 544.992188 725.695312 545.402344 725.355469 C 545.816406 725.019531 546.242188 724.703125 546.683594 724.40625 C 547.128906 724.113281 547.582031 723.839844 548.054688 723.585938 C 548.523438 723.335938 549.003906 723.109375 549.496094 722.90625 C 549.984375 722.703125 550.488281 722.523438 550.996094 722.367188 C 551.503906 722.214844 552.019531 722.082031 552.542969 721.980469 C 553.066406 721.875 553.589844 721.796875 554.121094 721.746094 C 554.652344 721.695312 555.179688 721.667969 555.714844 721.667969 C 556.246094 721.667969 556.777344 721.695312 557.304688 721.746094 C 557.835938 721.796875 558.363281 721.875 558.882812 721.980469 C 559.40625 722.082031 559.921875 722.214844 560.429688 722.367188 C 560.941406 722.523438 561.441406 722.703125 561.933594 722.90625 C 562.425781 723.109375 562.90625 723.335938 563.375 723.585938 C 563.84375 723.839844 564.300781 724.113281 564.742188 724.40625 C 565.183594 724.703125 565.613281 725.019531 566.023438 725.355469 C 566.433594 725.695312 566.828125 726.050781 567.207031 726.429688 C 567.582031 726.804688 567.9375 727.199219 568.277344 727.609375 C 568.613281 728.023438 568.929688 728.449219 569.226562 728.890625 C 569.523438 729.335938 569.796875 729.789062 570.046875 730.261719 C 570.296875 730.730469 570.523438 731.210938 570.726562 731.703125 C 570.933594 732.195312 571.109375 732.695312 571.265625 733.203125 C 571.417969 733.714844 571.550781 734.230469 571.652344 734.75 C 571.757812 735.273438 571.835938 735.800781 571.886719 736.328125 C 571.9375 736.859375 571.964844 737.390625 571.964844 737.921875 Z M 571.964844 737.921875 " fill-opacity="1" fill-rule="nonzero"/><path fill="#000000" d="M 637.328125 752.464844 C 628.589844 752.464844 621.480469 759.574219 621.480469 768.316406 C 621.480469 777.058594 628.589844 784.167969 637.328125 784.167969 C 646.066406 784.167969 653.183594 777.058594 653.183594 768.316406 C 653.183594 759.574219 646.0625 752.464844 637.328125 752.464844 Z M 637.328125 752.464844 " fill-opacity="1" fill-rule="nonzero"/><path fill="#000000" d="M 503.359375 776 C 494.449219 776 487.199219 783.25 487.199219 792.164062 C 487.199219 801.074219 494.449219 808.316406 503.359375 808.316406 C 512.265625 808.316406 519.507812 801.0625 519.507812 792.164062 C 519.507812 783.261719 512.253906 776 503.359375 776 Z M 503.359375 776 " fill-opacity="1" fill-rule="nonzero"/><path fill="#000000" d="M 219.574219 723.980469 C 210.238281 723.980469 202.65625 731.570312 202.65625 740.902344 C 202.65625 750.230469 210.246094 757.832031 219.574219 757.832031 C 228.902344 757.832031 236.492188 750.242188 236.492188 740.902344 C 236.492188 731.558594 228.902344 723.980469 219.574219 723.980469 Z M 219.574219 723.980469 " fill-opacity="1" fill-rule="nonzero"/><path fill="#000000" d="M 131.730469 751.117188 C 122.894531 751.117188 115.691406 758.3125 115.691406 767.160156 C 115.691406 776.003906 122.890625 783.210938 131.730469 783.210938 C 140.574219 783.210938 147.769531 776.003906 147.769531 767.160156 C 147.769531 758.3125 140.574219 751.117188 131.730469 751.117188 Z M 131.730469 751.117188 " fill-opacity="1" fill-rule="nonzero"/><path fill="#000000" d="M 277.246094 776.234375 C 268.046875 776.234375 260.554688 783.726562 260.554688 792.917969 C 260.554688 802.105469 268.046875 809.609375 277.246094 809.609375 C 286.445312 809.609375 293.921875 802.117188 293.921875 792.917969 C 293.921875 783.714844 286.433594 776.234375 277.246094 776.234375 Z M 277.246094 776.234375 " fill-opacity="1" fill-rule="nonzero"/><path fill="#000000" d="M 381.089844 390.148438 C 368.53125 385.921875 353.171875 389.46875 343.507812 394.867188 C 327.480469 403.800781 316.289062 422.238281 325.882812 440.183594 C 329.308594 446.558594 335.152344 451.132812 342.820312 453.375 C 346.300781 454.386719 350.050781 454.886719 353.835938 454.886719 C 360.882812 454.886719 368.078125 453.171875 373.894531 449.917969 C 402.519531 433.886719 402.464844 416.65625 397.375 405.007812 C 394.230469 397.820312 388.601562 392.6875 381.101562 390.160156 Z M 371.425781 416.066406 C 371.628906 417.386719 370.496094 419.996094 366.582031 422.957031 C 362.65625 425.964844 359.523438 426.96875 355.144531 428.367188 C 354.332031 428.628906 352.742188 428.230469 351.5625 427.171875 C 350.730469 426.429688 349.828125 425.074219 350.28125 423.015625 C 350.597656 421.539062 352.757812 419.027344 356.890625 416.726562 C 360.40625 414.769531 364.269531 413.628906 366.972656 413.628906 C 367.738281 413.628906 368.425781 413.722656 368.964844 413.910156 C 370 414.285156 371.261719 414.960938 371.429688 416.050781 L 371.429688 416.0625 Z M 371.425781 416.066406 " fill-opacity="1" fill-rule="nonzero"/><path fill="#000000" d="M 379.726562 627.847656 C 370.371094 640.8125 366.640625 661.609375 378.171875 674.617188 C 382.730469 679.765625 389.117188 682.707031 396.648438 683.097656 C 397.234375 683.121094 397.824219 683.144531 398.394531 683.144531 C 407.84375 683.144531 417.898438 679.214844 425.050781 672.675781 C 437.347656 661.425781 443.09375 647.773438 442.101562 632.089844 C 441.121094 616.445312 432.078125 606.710938 417.933594 606.046875 C 399.117188 605.292969 385.871094 619.316406 379.722656 627.839844 Z M 379.726562 627.847656 " fill-opacity="1" fill-rule="nonzero"/><path fill="#000000" d="M 397.511719 480.75 C 389.863281 478.496094 382.027344 479.417969 374.886719 483.386719 C 358.296875 492.621094 357.980469 514.292969 365.023438 531.675781 C 366.769531 535.96875 373.488281 550.410156 387.105469 556.132812 C 390.574219 557.597656 394.144531 558.316406 397.769531 558.316406 C 401.621094 558.316406 405.550781 557.503906 409.515625 555.859375 C 417.570312 552.550781 423.050781 546.941406 425.835938 539.191406 C 430.5 526.171875 426.238281 510.5 420.710938 500.179688 C 416.804688 492.929688 408.671875 484.015625 397.5 480.738281 Z M 397.757812 531.222656 C 392.371094 528.105469 388.488281 523.363281 387.203125 518.25 C 386.519531 515.519531 386.28125 511.445312 389.074219 507.601562 C 389.378906 507.175781 389.730469 506.902344 390.40625 506.902344 L 390.679688 506.902344 C 393.210938 507.140625 396.78125 510.195312 397.617188 511.917969 L 398.390625 513.515625 C 401.039062 518.8125 404.023438 524.769531 397.761719 531.214844 L 397.761719 531.222656 Z M 397.757812 531.222656 " fill-opacity="1" fill-rule="nonzero"/><path fill="#000000" d="M 290.300781 533.960938 C 271.0625 545.773438 273.519531 569.859375 283.960938 587.230469 C 289.375 596.25 300.265625 606.4375 312.371094 608.84375 C 314.242188 609.214844 316.078125 609.40625 317.878906 609.40625 C 323.609375 609.40625 329.039062 607.535156 334.070312 603.820312 C 340.523438 599.054688 344.542969 592.125 345.710938 583.78125 C 347.34375 572.199219 343.289062 558.085938 335.40625 547.8125 C 327.355469 537.316406 308.796875 522.582031 290.292969 533.96875 L 290.292969 533.960938 Z M 304.441406 556.726562 C 314.949219 561.433594 318.9375 569.09375 317.753906 582.285156 C 312.292969 581.191406 307.796875 577.945312 305.171875 573.128906 C 302.445312 568.113281 302.210938 562.132812 304.441406 556.734375 Z M 304.441406 556.726562 " fill-opacity="1" fill-rule="nonzero"/><path fill="#000000" d="M 768.738281 684.691406 C 759.078125 680.648438 748.5 685.027344 738.253906 689.285156 C 725.71875 694.5 713.851562 699.425781 702.597656 691.46875 C 686.789062 680.304688 669.871094 683.394531 654.917969 686.105469 C 644.960938 687.894531 635.554688 689.609375 627.222656 687.277344 C 617.359375 684.496094 607.863281 679.574219 598.6875 674.832031 C 578.652344 664.46875 557.953125 653.722656 531.09375 663.09375 C 474.121094 682.964844 470.066406 694.929688 465.382812 708.785156 C 461.890625 719.078125 458.285156 729.726562 428.367188 746.664062 C 400.449219 762.480469 377.710938 758.074219 350.097656 745.820312 C 324.746094 734.566406 318.96875 724.167969 305.019531 699.050781 L 304.523438 698.148438 C 290.003906 672.027344 235.003906 660.132812 210 667.769531 C 203.277344 669.832031 197.421875 671.9375 191.757812 673.984375 C 177.871094 679 165.878906 683.335938 148.828125 683.480469 C 143.839844 683.523438 138.796875 686.519531 133.464844 689.6875 C 126.429688 693.867188 119.128906 698.191406 112.722656 694.957031 C 60.820312 668.914062 20.75 680.765625 6.480469 695.117188 C 0.363281 701.253906 -1.574219 708.34375 1.308594 714.050781 C 6.164062 723.636719 16.355469 720.042969 28.175781 715.898438 C 43.4375 710.515625 64.335938 703.195312 86.605469 717.53125 C 106.941406 730.644531 124.265625 725.304688 142.589844 719.671875 C 146.621094 718.433594 150.742188 717.148438 154.988281 716.066406 C 161.285156 714.445312 167.148438 713.273438 172.828125 712.136719 C 186.949219 709.308594 200.285156 706.640625 219.257812 697.75 C 227.121094 694.066406 244.925781 695.9375 259.8125 701.996094 C 270.355469 706.289062 277.5625 711.851562 279.601562 717.28125 C 288.609375 741.277344 306.6875 758.925781 336.515625 772.828125 C 357.296875 782.511719 375.550781 787.378906 392.839844 787.378906 C 412.183594 787.378906 430.308594 781.273438 449.382812 768.996094 C 469.667969 755.953125 483 744.441406 495.421875 721.03125 C 503.398438 705.980469 517.664062 695.890625 535.558594 692.601562 C 558.160156 688.464844 583.996094 695.609375 601.316406 710.804688 C 614.550781 722.417969 628.835938 724.921875 645.066406 718.445312 C 664.199219 710.78125 676.972656 715.164062 690.507812 719.796875 C 708.480469 725.933594 727.050781 732.265625 760.632812 713.589844 C 762.324219 712.65625 764.046875 711.902344 765.667969 711.179688 C 769.960938 709.296875 774.003906 707.519531 775.859375 703.441406 C 777.660156 699.488281 777.917969 695.625 776.578125 692.234375 C 775.273438 688.898438 772.570312 686.296875 768.738281 684.699219 L 768.738281 684.6875 Z M 768.738281 684.691406 " fill-opacity="1" fill-rule="nonzero"/><path fill="#000000" d="M 808.832031 203.972656 C 807.085938 199.78125 803.144531 197.167969 797.152344 196.199219 C 772.488281 192.144531 711.210938 218.773438 695.425781 236.910156 C 667.765625 268.640625 643.878906 294.3125 609.375 311.703125 C 549.304688 342.003906 513.976562 386.128906 490.597656 415.339844 C 477.542969 431.648438 467.21875 444.546875 460.035156 444.863281 C 458.660156 444.988281 456.777344 444.671875 454.234375 442.015625 C 438.257812 425.34375 448.503906 392.351562 460.878906 374.246094 L 506.90625 306.933594 C 518.824219 289.519531 519.070312 263.519531 507.539062 242.253906 C 478.214844 188.0625 377.355469 211.074219 357.445312 216.21875 C 299.996094 231.113281 277.070312 247.230469 248.035156 267.628906 C 230.667969 279.828125 210.996094 293.664062 180.171875 310.21875 C 168.214844 316.652344 150.542969 321.699219 133.097656 310.398438 C 174.015625 252.757812 333.773438 146.828125 394.539062 114.859375 C 423.214844 99.777344 467.507812 97.660156 518.777344 95.214844 C 586.53125 91.972656 670.832031 87.9375 753.417969 51.992188 C 764 47.386719 768.664062 40.042969 765.863281 32.359375 C 764.632812 28.980469 761.535156 25.984375 757.394531 24.125 C 752.652344 21.996094 747.371094 21.785156 742.921875 23.5625 C 688.59375 45.179688 635.40625 57.324219 580.324219 60.714844 L 455.558594 68.40625 C 411.222656 71.136719 372.15625 86.261719 324.910156 118.976562 C 314.425781 126.226562 303.941406 133.402344 293.480469 140.566406 C 233.839844 181.402344 172.15625 223.628906 119.21875 276.078125 C 108.753906 286.4375 102.414062 300.472656 102.640625 312.71875 C 102.808594 321.378906 106.1875 328.964844 112.425781 334.695312 C 131.90625 352.539062 157.371094 348.199219 179.953125 344.257812 C 172.398438 361.269531 164.277344 387.628906 176.8125 403.871094 C 195.289062 427.839844 217.398438 417.53125 235.179688 409.277344 C 243.152344 405.558594 250.699219 402.058594 257.015625 401.816406 L 263.199219 401.59375 C 293.695312 400.578125 322.492188 399.613281 345.417969 365.324219 C 353.097656 353.832031 421.605469 252.925781 461.3125 247.511719 C 466.84375 246.777344 471.335938 247.960938 475.078125 251.171875 C 495.765625 268.96875 483.34375 288.332031 459.617188 321.011719 C 439.027344 349.375 413.398438 384.675781 415.851562 428.691406 C 417.171875 451.996094 430.265625 471.109375 447.722656 475.164062 C 451.789062 476.109375 455.605469 476.5625 459.222656 476.5625 C 482.566406 476.5625 497.242188 457.753906 516.554688 432.992188 C 538.945312 404.289062 569.609375 364.976562 629.871094 335.160156 C 666.019531 317.296875 690.132812 289.585938 715.652344 260.265625 L 717.542969 258.09375 C 729.785156 244.035156 752.558594 237.75 772.660156 232.207031 C 790.636719 227.261719 804.824219 223.339844 808.976562 214.792969 C 810.566406 211.550781 810.53125 207.910156 808.875 203.96875 L 808.84375 203.980469 Z M 284.96875 369.578125 C 301.707031 341.96875 377.980469 235.636719 408.003906 234.519531 C 410.152344 234.476562 412.269531 235.027344 413.867188 236.378906 C 393.710938 249.46875 372.707031 277.8125 352.355469 305.25 C 328 338.09375 302.917969 372.136719 284.957031 369.578125 Z M 234.304688 317.292969 L 242.988281 310.453125 C 268.597656 290.226562 292.890625 271.027344 325.078125 260.585938 L 255.253906 354.476562 C 237.675781 378.128906 220.296875 388.394531 202.199219 385.710938 C 205.710938 362.660156 214.148438 333.074219 234.316406 317.289062 L 234.304688 317.289062 Z M 234.304688 317.292969 " fill-opacity="1" fill-rule="nonzero"/><path fill="#000000" d="M 91.484375 35.894531 C 91.484375 34.71875 91.425781 33.546875 91.308594 32.378906 C 91.195312 31.207031 91.019531 30.046875 90.792969 28.894531 C 90.5625 27.742188 90.277344 26.601562 89.9375 25.476562 C 89.59375 24.351562 89.199219 23.246094 88.75 22.160156 C 88.300781 21.078125 87.796875 20.015625 87.242188 18.980469 C 86.691406 17.941406 86.085938 16.9375 85.433594 15.957031 C 84.78125 14.980469 84.082031 14.039062 83.335938 13.128906 C 82.589844 12.222656 81.804688 11.351562 80.972656 10.519531 C 80.140625 9.691406 79.273438 8.902344 78.363281 8.15625 C 77.457031 7.410156 76.515625 6.710938 75.539062 6.058594 C 74.5625 5.40625 73.554688 4.804688 72.519531 4.25 C 71.484375 3.695312 70.421875 3.191406 69.339844 2.742188 C 68.253906 2.292969 67.148438 1.898438 66.023438 1.558594 C 64.902344 1.214844 63.761719 0.929688 62.609375 0.703125 C 61.457031 0.472656 60.296875 0.300781 59.128906 0.183594 C 57.960938 0.0703125 56.789062 0.0117188 55.613281 0.0117188 C 54.441406 0.0117188 53.269531 0.0703125 52.101562 0.183594 C 50.929688 0.300781 49.769531 0.472656 48.617188 0.703125 C 47.46875 0.929688 46.328125 1.214844 45.207031 1.558594 C 44.082031 1.898438 42.976562 2.292969 41.890625 2.742188 C 40.804688 3.191406 39.746094 3.695312 38.710938 4.25 C 37.675781 4.804688 36.667969 5.40625 35.691406 6.058594 C 34.714844 6.710938 33.773438 7.410156 32.863281 8.15625 C 31.957031 8.902344 31.085938 9.691406 30.257812 10.519531 C 29.425781 11.351562 28.636719 12.222656 27.894531 13.128906 C 27.148438 14.039062 26.449219 14.980469 25.796875 15.957031 C 25.144531 16.9375 24.539062 17.941406 23.984375 18.980469 C 23.433594 20.015625 22.929688 21.078125 22.480469 22.160156 C 22.03125 23.246094 21.636719 24.351562 21.292969 25.476562 C 20.953125 26.601562 20.667969 27.742188 20.4375 28.894531 C 20.207031 30.046875 20.035156 31.207031 19.921875 32.378906 C 19.804688 33.546875 19.746094 34.71875 19.746094 35.894531 L 19.746094 144.367188 C 18.601562 145.539062 17.515625 146.761719 16.488281 148.039062 C 15.460938 149.316406 14.5 150.640625 13.601562 152.011719 C 12.707031 153.382812 11.878906 154.792969 11.121094 156.246094 C 10.359375 157.695312 9.675781 159.183594 9.058594 160.703125 C 8.445312 162.222656 7.910156 163.765625 7.445312 165.339844 C 6.984375 166.910156 6.597656 168.5 6.289062 170.109375 C 5.984375 171.71875 5.753906 173.339844 5.605469 174.972656 C 5.457031 176.605469 5.390625 178.238281 5.402344 179.878906 C 5.410156 181.515625 5.503906 183.152344 5.671875 184.78125 C 5.84375 186.410156 6.09375 188.027344 6.421875 189.632812 C 6.753906 191.238281 7.160156 192.824219 7.644531 194.390625 C 8.128906 195.957031 8.6875 197.492188 9.320312 199.003906 C 9.953125 200.515625 10.660156 201.992188 11.441406 203.433594 C 12.21875 204.875 13.066406 206.273438 13.980469 207.632812 C 14.898438 208.992188 15.875 210.300781 16.921875 211.566406 C 17.964844 212.828125 19.066406 214.035156 20.226562 215.191406 C 21.390625 216.347656 22.605469 217.441406 23.875 218.476562 C 25.144531 219.511719 26.460938 220.484375 27.824219 221.390625 C 29.1875 222.296875 30.59375 223.136719 32.039062 223.90625 C 33.484375 224.675781 34.964844 225.371094 36.476562 225.996094 C 37.992188 226.621094 39.53125 227.171875 41.097656 227.644531 C 42.667969 228.117188 44.253906 228.511719 45.859375 228.832031 C 47.464844 229.148438 49.085938 229.390625 50.714844 229.550781 C 52.34375 229.710938 53.976562 229.789062 55.613281 229.789062 C 57.253906 229.789062 58.886719 229.710938 60.515625 229.550781 C 62.144531 229.390625 63.761719 229.148438 65.371094 228.832031 C 66.976562 228.511719 68.5625 228.117188 70.128906 227.644531 C 71.699219 227.171875 73.238281 226.621094 74.753906 225.996094 C 76.265625 225.371094 77.746094 224.675781 79.191406 223.90625 C 80.636719 223.136719 82.042969 222.296875 83.40625 221.390625 C 84.769531 220.484375 86.085938 219.511719 87.355469 218.476562 C 88.625 217.441406 89.839844 216.347656 91 215.191406 C 92.164062 214.035156 93.265625 212.828125 94.308594 211.566406 C 95.351562 210.300781 96.332031 208.992188 97.25 207.632812 C 98.164062 206.273438 99.011719 204.875 99.789062 203.433594 C 100.566406 201.992188 101.273438 200.515625 101.910156 199.003906 C 102.542969 197.492188 103.101562 195.957031 103.585938 194.390625 C 104.070312 192.824219 104.476562 191.238281 104.804688 189.632812 C 105.136719 188.027344 105.386719 186.410156 105.554688 184.78125 C 105.726562 183.152344 105.816406 181.515625 105.828125 179.878906 C 105.839844 178.238281 105.769531 176.605469 105.621094 174.972656 C 105.472656 173.339844 105.246094 171.71875 104.9375 170.109375 C 104.632812 168.5 104.246094 166.910156 103.785156 165.339844 C 103.320312 163.765625 102.785156 162.222656 102.167969 160.703125 C 101.554688 159.183594 100.871094 157.695312 100.109375 156.246094 C 99.351562 154.792969 98.523438 153.382812 97.625 152.011719 C 96.730469 150.640625 95.769531 149.316406 94.742188 148.039062 C 93.714844 146.761719 92.628906 145.539062 91.484375 144.367188 Z M 55.613281 215.367188 C 53.808594 215.367188 52.015625 215.234375 50.230469 214.964844 C 48.445312 214.695312 46.691406 214.292969 44.96875 213.757812 C 43.242188 213.226562 41.570312 212.5625 39.945312 211.773438 C 38.320312 210.988281 36.765625 210.082031 35.277344 209.058594 C 33.789062 208.035156 32.386719 206.90625 31.070312 205.667969 C 29.753906 204.433594 28.539062 203.105469 27.421875 201.6875 C 26.304688 200.269531 25.300781 198.773438 24.410156 197.203125 C 23.519531 195.628906 22.753906 194 22.109375 192.3125 C 21.464844 190.625 20.949219 188.898438 20.566406 187.136719 C 20.183594 185.371094 19.933594 183.585938 19.820312 181.785156 C 19.707031 179.980469 19.726562 178.179688 19.886719 176.378906 C 20.042969 174.582031 20.335938 172.804688 20.761719 171.046875 C 21.1875 169.292969 21.746094 167.578125 22.429688 165.910156 C 23.113281 164.238281 23.921875 162.628906 24.847656 161.078125 C 25.777344 159.527344 26.816406 158.058594 27.96875 156.667969 C 29.117188 155.273438 30.367188 153.976562 31.710938 152.773438 C 32.46875 152.09375 33.054688 151.289062 33.472656 150.355469 C 33.886719 149.425781 34.09375 148.453125 34.09375 147.433594 L 34.09375 35.894531 C 34.09375 35.1875 34.128906 34.484375 34.199219 33.785156 C 34.265625 33.082031 34.371094 32.382812 34.507812 31.691406 C 34.644531 31 34.816406 30.316406 35.019531 29.644531 C 35.226562 28.96875 35.460938 28.304688 35.730469 27.652344 C 36 27 36.304688 26.363281 36.636719 25.742188 C 36.96875 25.121094 37.328125 24.515625 37.722656 23.929688 C 38.113281 23.34375 38.53125 22.777344 38.980469 22.230469 C 39.425781 21.6875 39.898438 21.164062 40.398438 20.664062 C 40.894531 20.167969 41.417969 19.695312 41.960938 19.246094 C 42.507812 18.800781 43.074219 18.378906 43.660156 17.988281 C 44.246094 17.59375 44.847656 17.234375 45.46875 16.902344 C 46.089844 16.566406 46.726562 16.265625 47.378906 15.996094 C 48.03125 15.726562 48.691406 15.488281 49.367188 15.285156 C 50.042969 15.082031 50.726562 14.910156 51.417969 14.773438 C 52.109375 14.632812 52.804688 14.53125 53.503906 14.460938 C 54.207031 14.390625 54.910156 14.359375 55.613281 14.359375 C 56.320312 14.359375 57.023438 14.390625 57.722656 14.460938 C 58.425781 14.53125 59.121094 14.632812 59.8125 14.773438 C 60.503906 14.910156 61.1875 15.082031 61.863281 15.285156 C 62.535156 15.488281 63.199219 15.726562 63.851562 15.996094 C 64.5 16.265625 65.136719 16.566406 65.757812 16.902344 C 66.382812 17.234375 66.984375 17.59375 67.570312 17.988281 C 68.15625 18.378906 68.722656 18.800781 69.265625 19.246094 C 69.8125 19.695312 70.335938 20.167969 70.832031 20.664062 C 71.332031 21.164062 71.804688 21.6875 72.25 22.230469 C 72.699219 22.777344 73.117188 23.34375 73.507812 23.929688 C 73.902344 24.515625 74.261719 25.121094 74.59375 25.742188 C 74.925781 26.363281 75.226562 27 75.496094 27.652344 C 75.765625 28.304688 76.003906 28.96875 76.210938 29.644531 C 76.414062 30.316406 76.585938 31 76.722656 31.691406 C 76.859375 32.382812 76.964844 33.082031 77.03125 33.785156 C 77.101562 34.484375 77.136719 35.1875 77.136719 35.894531 L 77.136719 147.433594 C 77.136719 148.453125 77.34375 149.425781 77.757812 150.355469 C 78.171875 151.289062 78.757812 152.09375 79.515625 152.773438 C 80.863281 153.976562 82.113281 155.273438 83.261719 156.667969 C 84.414062 158.058594 85.453125 159.527344 86.378906 161.078125 C 87.308594 162.628906 88.113281 164.238281 88.800781 165.910156 C 89.484375 167.578125 90.039062 169.292969 90.46875 171.046875 C 90.894531 172.804688 91.1875 174.582031 91.34375 176.378906 C 91.5 178.179688 91.523438 179.980469 91.410156 181.785156 C 91.292969 183.585938 91.046875 185.371094 90.664062 187.136719 C 90.277344 188.898438 89.765625 190.625 89.121094 192.3125 C 88.476562 194 87.707031 195.628906 86.816406 197.203125 C 85.929688 198.773438 84.925781 200.269531 83.808594 201.6875 C 82.691406 203.105469 81.476562 204.433594 80.160156 205.667969 C 78.84375 206.90625 77.441406 208.035156 75.953125 209.058594 C 74.464844 210.082031 72.910156 210.988281 71.285156 211.773438 C 69.660156 212.5625 67.988281 213.226562 66.261719 213.757812 C 64.539062 214.292969 62.785156 214.695312 61 214.964844 C 59.214844 215.234375 57.417969 215.367188 55.613281 215.367188 Z M 55.613281 215.367188 " fill-opacity="1" fill-rule="nonzero"/><path fill="#000000" d="M 62.539062 159.179688 C 62.660156 158.773438 62.746094 158.359375 62.789062 157.9375 L 62.789062 43.074219 C 62.789062 42.601562 62.742188 42.136719 62.652344 41.671875 C 62.558594 41.210938 62.421875 40.761719 62.242188 40.324219 C 62.0625 39.890625 61.839844 39.476562 61.578125 39.085938 C 61.316406 38.691406 61.019531 38.332031 60.6875 37.996094 C 60.355469 37.664062 59.992188 37.367188 59.601562 37.105469 C 59.207031 36.84375 58.796875 36.621094 58.359375 36.441406 C 57.925781 36.261719 57.476562 36.125 57.015625 36.03125 C 56.550781 35.941406 56.085938 35.894531 55.613281 35.894531 C 55.144531 35.894531 54.675781 35.941406 54.214844 36.03125 C 53.753906 36.125 53.304688 36.261719 52.871094 36.441406 C 52.433594 36.621094 52.019531 36.84375 51.628906 37.105469 C 51.238281 37.367188 50.875 37.664062 50.542969 37.996094 C 50.210938 38.332031 49.910156 38.691406 49.648438 39.085938 C 49.386719 39.476562 49.167969 39.890625 48.988281 40.324219 C 48.808594 40.761719 48.671875 41.210938 48.578125 41.671875 C 48.488281 42.136719 48.441406 42.601562 48.441406 43.074219 L 48.441406 157.9375 C 48.484375 158.359375 48.566406 158.773438 48.691406 159.179688 C 47.894531 159.449219 47.117188 159.765625 46.355469 160.128906 C 45.597656 160.492188 44.859375 160.898438 44.148438 161.34375 C 43.433594 161.792969 42.75 162.285156 42.09375 162.8125 C 41.441406 163.34375 40.816406 163.910156 40.230469 164.511719 C 39.640625 165.113281 39.089844 165.75 38.574219 166.414062 C 38.058594 167.082031 37.585938 167.777344 37.152344 168.5 C 36.722656 169.222656 36.332031 169.96875 35.988281 170.738281 C 35.640625 171.507812 35.34375 172.292969 35.089844 173.097656 C 34.835938 173.902344 34.628906 174.714844 34.472656 175.542969 C 34.316406 176.371094 34.207031 177.207031 34.148438 178.046875 C 34.089844 178.886719 34.078125 179.730469 34.117188 180.570312 C 34.15625 181.414062 34.246094 182.25 34.382812 183.082031 C 34.519531 183.910156 34.703125 184.734375 34.9375 185.542969 C 35.171875 186.351562 35.453125 187.144531 35.777344 187.921875 C 36.105469 188.699219 36.476562 189.453125 36.890625 190.1875 C 37.304688 190.921875 37.761719 191.625 38.261719 192.304688 C 38.757812 192.984375 39.292969 193.632812 39.867188 194.25 C 40.441406 194.867188 41.050781 195.449219 41.691406 195.992188 C 42.335938 196.539062 43.007812 197.042969 43.707031 197.511719 C 44.410156 197.976562 45.136719 198.398438 45.886719 198.78125 C 46.636719 199.160156 47.410156 199.496094 48.199219 199.789062 C 48.992188 200.078125 49.796875 200.320312 50.613281 200.515625 C 51.433594 200.710938 52.261719 200.859375 53.097656 200.957031 C 53.933594 201.058594 54.773438 201.105469 55.613281 201.105469 C 56.457031 201.105469 57.296875 201.058594 58.132812 200.957031 C 58.96875 200.859375 59.796875 200.710938 60.617188 200.515625 C 61.433594 200.320312 62.238281 200.078125 63.03125 199.789062 C 63.820312 199.496094 64.589844 199.160156 65.34375 198.78125 C 66.09375 198.398438 66.820312 197.976562 67.523438 197.511719 C 68.222656 197.042969 68.894531 196.539062 69.535156 195.992188 C 70.179688 195.449219 70.789062 194.867188 71.359375 194.25 C 71.933594 193.632812 72.472656 192.984375 72.96875 192.304688 C 73.46875 191.625 73.925781 190.921875 74.339844 190.1875 C 74.753906 189.453125 75.125 188.699219 75.453125 187.921875 C 75.777344 187.144531 76.058594 186.351562 76.292969 185.542969 C 76.523438 184.734375 76.710938 183.910156 76.847656 183.082031 C 76.984375 182.25 77.074219 181.414062 77.113281 180.570312 C 77.152344 179.730469 77.140625 178.886719 77.082031 178.046875 C 77.023438 177.207031 76.914062 176.371094 76.757812 175.542969 C 76.597656 174.714844 76.394531 173.902344 76.140625 173.097656 C 75.886719 172.292969 75.589844 171.507812 75.242188 170.738281 C 74.898438 169.96875 74.507812 169.222656 74.074219 168.5 C 73.644531 167.777344 73.167969 167.082031 72.65625 166.414062 C 72.140625 165.75 71.589844 165.113281 71 164.511719 C 70.410156 163.910156 69.789062 163.34375 69.132812 162.8125 C 68.480469 162.285156 67.796875 161.792969 67.082031 161.34375 C 66.371094 160.898438 65.632812 160.492188 64.875 160.128906 C 64.113281 159.765625 63.335938 159.449219 62.539062 159.179688 Z M 55.613281 186.652344 C 55.144531 186.652344 54.675781 186.605469 54.214844 186.511719 C 53.753906 186.421875 53.304688 186.285156 52.871094 186.105469 C 52.433594 185.925781 52.019531 185.703125 51.628906 185.441406 C 51.238281 185.179688 50.875 184.882812 50.542969 184.546875 C 50.210938 184.214844 49.910156 183.851562 49.648438 183.460938 C 49.386719 183.070312 49.167969 182.65625 48.988281 182.21875 C 48.808594 181.785156 48.671875 181.335938 48.578125 180.871094 C 48.488281 180.410156 48.441406 179.945312 48.441406 179.472656 C 48.441406 179 48.488281 178.535156 48.578125 178.070312 C 48.671875 177.609375 48.808594 177.160156 48.988281 176.726562 C 49.167969 176.289062 49.386719 175.875 49.648438 175.484375 C 49.910156 175.09375 50.210938 174.730469 50.542969 174.394531 C 50.875 174.0625 51.238281 173.765625 51.628906 173.503906 C 52.019531 173.242188 52.433594 173.019531 52.871094 172.839844 C 53.304688 172.660156 53.753906 172.523438 54.214844 172.429688 C 54.675781 172.339844 55.144531 172.292969 55.613281 172.292969 C 56.085938 172.292969 56.550781 172.339844 57.015625 172.429688 C 57.476562 172.523438 57.925781 172.660156 58.359375 172.839844 C 58.796875 173.019531 59.207031 173.242188 59.601562 173.503906 C 59.992188 173.765625 60.355469 174.0625 60.6875 174.394531 C 61.019531 174.730469 61.316406 175.09375 61.578125 175.484375 C 61.839844 175.875 62.0625 176.289062 62.242188 176.726562 C 62.421875 177.160156 62.558594 177.609375 62.652344 178.070312 C 62.742188 178.535156 62.789062 179 62.789062 179.472656 C 62.789062 179.945312 62.742188 180.410156 62.652344 180.871094 C 62.558594 181.335938 62.421875 181.785156 62.242188 182.21875 C 62.0625 182.65625 61.839844 183.070312 61.578125 183.460938 C 61.316406 183.851562 61.019531 184.214844 60.6875 184.546875 C 60.355469 184.882812 59.992188 185.179688 59.601562 185.441406 C 59.207031 185.703125 58.796875 185.925781 58.359375 186.105469 C 57.925781 186.285156 57.476562 186.421875 57.015625 186.511719 C 56.550781 186.605469 56.085938 186.652344 55.613281 186.652344 Z M 55.613281 186.652344 " fill-opacity="1" fill-rule="nonzero"/><path fill="#000000" d="M 113.003906 43.074219 L 141.699219 43.074219 C 142.167969 43.074219 142.636719 43.027344 143.097656 42.933594 C 143.558594 42.84375 144.007812 42.707031 144.445312 42.527344 C 144.878906 42.347656 145.292969 42.125 145.683594 41.863281 C 146.074219 41.601562 146.4375 41.304688 146.769531 40.972656 C 147.105469 40.636719 147.402344 40.273438 147.664062 39.882812 C 147.925781 39.492188 148.144531 39.078125 148.324219 38.640625 C 148.507812 38.207031 148.640625 37.757812 148.734375 37.296875 C 148.824219 36.832031 148.871094 36.367188 148.871094 35.894531 C 148.871094 35.421875 148.824219 34.957031 148.734375 34.492188 C 148.640625 34.03125 148.507812 33.582031 148.324219 33.148438 C 148.144531 32.710938 147.925781 32.296875 147.664062 31.90625 C 147.402344 31.515625 147.105469 31.152344 146.769531 30.816406 C 146.4375 30.484375 146.074219 30.1875 145.683594 29.925781 C 145.292969 29.664062 144.878906 29.441406 144.445312 29.261719 C 144.007812 29.082031 143.558594 28.945312 143.097656 28.855469 C 142.636719 28.761719 142.167969 28.714844 141.699219 28.714844 L 113.003906 28.714844 C 112.53125 28.714844 112.066406 28.761719 111.605469 28.855469 C 111.140625 28.945312 110.695312 29.082031 110.257812 29.261719 C 109.824219 29.441406 109.410156 29.664062 109.019531 29.925781 C 108.625 30.1875 108.265625 30.484375 107.929688 30.816406 C 107.597656 31.152344 107.300781 31.515625 107.039062 31.90625 C 106.777344 32.296875 106.554688 32.710938 106.375 33.148438 C 106.195312 33.582031 106.058594 34.03125 105.96875 34.492188 C 105.875 34.957031 105.832031 35.421875 105.832031 35.894531 C 105.832031 36.367188 105.875 36.832031 105.96875 37.296875 C 106.058594 37.757812 106.195312 38.207031 106.375 38.640625 C 106.554688 39.078125 106.777344 39.492188 107.039062 39.882812 C 107.300781 40.273438 107.597656 40.636719 107.929688 40.972656 C 108.265625 41.304688 108.625 41.601562 109.019531 41.863281 C 109.410156 42.125 109.824219 42.347656 110.257812 42.527344 C 110.695312 42.707031 111.140625 42.84375 111.605469 42.933594 C 112.066406 43.027344 112.53125 43.074219 113.003906 43.074219 Z M 113.003906 43.074219 " fill-opacity="1" fill-rule="nonzero"/><path fill="#000000" d="M 113.003906 71.789062 L 127.351562 71.789062 C 127.820312 71.789062 128.289062 71.742188 128.75 71.652344 C 129.210938 71.558594 129.660156 71.421875 130.097656 71.242188 C 130.53125 71.0625 130.945312 70.839844 131.335938 70.578125 C 131.726562 70.316406 132.089844 70.019531 132.421875 69.6875 C 132.757812 69.351562 133.054688 68.992188 133.316406 68.597656 C 133.578125 68.207031 133.796875 67.792969 133.980469 67.355469 C 134.160156 66.921875 134.296875 66.472656 134.386719 66.011719 C 134.480469 65.546875 134.523438 65.082031 134.523438 64.609375 C 134.523438 64.140625 134.480469 63.671875 134.386719 63.210938 C 134.296875 62.746094 134.160156 62.296875 133.980469 61.863281 C 133.796875 61.425781 133.578125 61.011719 133.316406 60.621094 C 133.054688 60.230469 132.757812 59.867188 132.421875 59.535156 C 132.089844 59.199219 131.726562 58.902344 131.335938 58.640625 C 130.945312 58.378906 130.53125 58.15625 130.097656 57.976562 C 129.660156 57.796875 129.210938 57.660156 128.75 57.570312 C 128.289062 57.476562 127.820312 57.429688 127.351562 57.429688 L 113.003906 57.429688 C 112.53125 57.429688 112.066406 57.476562 111.605469 57.570312 C 111.140625 57.660156 110.695312 57.796875 110.257812 57.976562 C 109.824219 58.15625 109.410156 58.378906 109.019531 58.640625 C 108.625 58.902344 108.265625 59.199219 107.929688 59.535156 C 107.597656 59.867188 107.300781 60.230469 107.039062 60.621094 C 106.777344 61.011719 106.554688 61.425781 106.375 61.863281 C 106.195312 62.296875 106.058594 62.746094 105.96875 63.210938 C 105.875 63.671875 105.832031 64.140625 105.832031 64.609375 C 105.832031 65.082031 105.875 65.546875 105.96875 66.011719 C 106.058594 66.472656 106.195312 66.921875 106.375 67.355469 C 106.554688 67.792969 106.777344 68.207031 107.039062 68.597656 C 107.300781 68.992188 107.597656 69.351562 107.929688 69.6875 C 108.265625 70.019531 108.625 70.316406 109.019531 70.578125 C 109.410156 70.839844 109.824219 71.0625 110.257812 71.242188 C 110.695312 71.421875 111.140625 71.558594 111.605469 71.652344 C 112.066406 71.742188 112.53125 71.789062 113.003906 71.789062 Z M 113.003906 71.789062 " fill-opacity="1" fill-rule="nonzero"/><path fill="#000000" d="M 141.699219 86.148438 L 113.003906 86.148438 C 112.53125 86.148438 112.066406 86.191406 111.605469 86.285156 C 111.140625 86.375 110.695312 86.511719 110.257812 86.691406 C 109.824219 86.875 109.410156 87.09375 109.019531 87.355469 C 108.625 87.617188 108.265625 87.917969 107.929688 88.25 C 107.597656 88.582031 107.300781 88.945312 107.039062 89.335938 C 106.777344 89.730469 106.554688 90.144531 106.375 90.578125 C 106.195312 91.015625 106.058594 91.460938 105.96875 91.925781 C 105.875 92.386719 105.832031 92.855469 105.832031 93.324219 C 105.832031 93.796875 105.875 94.265625 105.96875 94.726562 C 106.058594 95.1875 106.195312 95.636719 106.375 96.074219 C 106.554688 96.507812 106.777344 96.921875 107.039062 97.3125 C 107.300781 97.707031 107.597656 98.070312 107.929688 98.402344 C 108.265625 98.734375 108.625 99.03125 109.019531 99.292969 C 109.410156 99.554688 109.824219 99.777344 110.257812 99.957031 C 110.695312 100.136719 111.140625 100.273438 111.605469 100.367188 C 112.066406 100.457031 112.53125 100.503906 113.003906 100.503906 L 141.699219 100.503906 C 142.167969 100.503906 142.636719 100.457031 143.097656 100.367188 C 143.558594 100.273438 144.007812 100.136719 144.445312 99.957031 C 144.878906 99.777344 145.292969 99.554688 145.683594 99.292969 C 146.074219 99.03125 146.4375 98.734375 146.769531 98.402344 C 147.105469 98.070312 147.402344 97.707031 147.664062 97.3125 C 147.925781 96.921875 148.144531 96.507812 148.324219 96.074219 C 148.507812 95.636719 148.640625 95.1875 148.734375 94.726562 C 148.824219 94.265625 148.871094 93.796875 148.871094 93.324219 C 148.871094 92.855469 148.824219 92.386719 148.734375 91.925781 C 148.640625 91.460938 148.507812 91.015625 148.324219 90.578125 C 148.144531 90.144531 147.925781 89.730469 147.664062 89.335938 C 147.402344 88.945312 147.105469 88.582031 146.769531 88.25 C 146.4375 87.917969 146.074219 87.617188 145.683594 87.355469 C 145.292969 87.09375 144.878906 86.875 144.445312 86.691406 C 144.007812 86.511719 143.558594 86.375 143.097656 86.285156 C 142.636719 86.191406 142.167969 86.148438 141.699219 86.148438 Z M 141.699219 86.148438 " fill-opacity="1" fill-rule="nonzero"/><path fill="#000000" d="M 127.351562 114.863281 L 113.003906 114.863281 C 112.53125 114.863281 112.066406 114.910156 111.605469 115 C 111.140625 115.09375 110.695312 115.226562 110.257812 115.410156 C 109.824219 115.589844 109.410156 115.808594 109.019531 116.070312 C 108.625 116.335938 108.265625 116.632812 107.929688 116.964844 C 107.597656 117.296875 107.300781 117.660156 107.039062 118.054688 C 106.777344 118.445312 106.554688 118.859375 106.375 119.292969 C 106.195312 119.730469 106.058594 120.179688 105.96875 120.640625 C 105.875 121.101562 105.832031 121.570312 105.832031 122.042969 C 105.832031 122.511719 105.875 122.980469 105.96875 123.441406 C 106.058594 123.902344 106.195312 124.351562 106.375 124.789062 C 106.554688 125.222656 106.777344 125.636719 107.039062 126.03125 C 107.300781 126.421875 107.597656 126.785156 107.929688 127.117188 C 108.265625 127.449219 108.625 127.75 109.019531 128.011719 C 109.410156 128.273438 109.824219 128.492188 110.257812 128.671875 C 110.695312 128.855469 111.140625 128.992188 111.605469 129.082031 C 112.066406 129.175781 112.53125 129.21875 113.003906 129.21875 L 127.351562 129.21875 C 127.820312 129.21875 128.289062 129.175781 128.75 129.082031 C 129.210938 128.992188 129.660156 128.855469 130.097656 128.671875 C 130.53125 128.492188 130.945312 128.273438 131.335938 128.011719 C 131.726562 127.75 132.089844 127.449219 132.421875 127.117188 C 132.757812 126.785156 133.054688 126.421875 133.316406 126.03125 C 133.578125 125.636719 133.796875 125.222656 133.980469 124.789062 C 134.160156 124.351562 134.296875 123.902344 134.386719 123.441406 C 134.480469 122.980469 134.523438 122.511719 134.523438 122.042969 C 134.523438 121.570312 134.480469 121.101562 134.386719 120.640625 C 134.296875 120.179688 134.160156 119.730469 133.980469 119.292969 C 133.796875 118.859375 133.578125 118.445312 133.316406 118.054688 C 133.054688 117.660156 132.757812 117.296875 132.421875 116.964844 C 132.089844 116.632812 131.726562 116.335938 131.335938 116.070312 C 130.945312 115.808594 130.53125 115.589844 130.097656 115.410156 C 129.660156 115.226562 129.210938 115.09375 128.75 115 C 128.289062 114.910156 127.820312 114.863281 127.351562 114.863281 Z M 127.351562 114.863281 " fill-opacity="1" fill-rule="nonzero"/><g clip-path="url(#faebfe3a8d)"><g clip-path="url(#95584b9994)"><g transform="matrix(1, 0, 0, 1, 393, 622)"><g clip-path="url(#b84b7361d3)"><g clip-path="url(#a963af16fb)"><g clip-path="url(#2e32738edf)"><path fill="#000000" d="M 0.25 0.253906 L 23.75 0.253906 L 23.75 23.757812 L 0.25 23.757812 Z M 0.25 0.253906 " fill-opacity="1" fill-rule="nonzero"/></g></g></g></g></g></g></svg>