<svg xmlns="http://www.w3.org/2000/svg" xmlns:xlink="http://www.w3.org/1999/xlink" width="1080" zoomAndPan="magnify" viewBox="0 0 810 809.999993" height="1080" preserveAspectRatio="xMidYMid meet" version="1.0"><defs><clipPath id="299246e81a"><path d="M 109 104 L 180 104 L 180 174.75 L 109 174.75 Z M 109 104 " clip-rule="nonzero"/></clipPath></defs><path fill="#000000" d="M 571.964844 726.953125 C 571.964844 727.488281 571.9375 728.019531 571.886719 728.546875 C 571.835938 729.078125 571.757812 729.601562 571.652344 730.125 C 571.550781 730.648438 571.417969 731.164062 571.265625 731.671875 C 571.109375 732.183594 570.933594 732.683594 570.726562 733.175781 C 570.523438 733.667969 570.296875 734.148438 570.046875 734.617188 C 569.796875 735.085938 569.523438 735.542969 569.226562 735.984375 C 568.929688 736.429688 568.613281 736.855469 568.277344 737.265625 C 567.9375 737.679688 567.582031 738.070312 567.207031 738.449219 C 566.828125 738.824219 566.433594 739.183594 566.023438 739.519531 C 565.613281 739.855469 565.183594 740.175781 564.742188 740.46875 C 564.300781 740.765625 563.84375 741.039062 563.375 741.289062 C 562.90625 741.542969 562.425781 741.769531 561.933594 741.972656 C 561.441406 742.175781 560.941406 742.355469 560.429688 742.507812 C 559.921875 742.664062 559.40625 742.792969 558.882812 742.898438 C 558.363281 743 557.835938 743.078125 557.304688 743.132812 C 556.777344 743.183594 556.246094 743.210938 555.714844 743.210938 C 555.179688 743.210938 554.652344 743.183594 554.121094 743.132812 C 553.589844 743.078125 553.066406 743 552.542969 742.898438 C 552.019531 742.792969 551.503906 742.664062 550.996094 742.507812 C 550.488281 742.355469 549.984375 742.175781 549.496094 741.972656 C 549.003906 741.769531 548.523438 741.542969 548.054688 741.289062 C 547.582031 741.039062 547.128906 740.765625 546.683594 740.46875 C 546.242188 740.175781 545.816406 739.855469 545.402344 739.519531 C 544.992188 739.183594 544.597656 738.824219 544.222656 738.449219 C 543.847656 738.070312 543.488281 737.679688 543.152344 737.265625 C 542.8125 736.855469 542.496094 736.429688 542.199219 735.984375 C 541.90625 735.542969 541.632812 735.085938 541.382812 734.617188 C 541.128906 734.148438 540.902344 733.667969 540.699219 733.175781 C 540.496094 732.683594 540.316406 732.183594 540.160156 731.671875 C 540.007812 731.164062 539.878906 730.648438 539.773438 730.125 C 539.671875 729.601562 539.59375 729.078125 539.539062 728.546875 C 539.488281 728.019531 539.460938 727.488281 539.460938 726.953125 C 539.460938 726.421875 539.488281 725.890625 539.539062 725.359375 C 539.59375 724.832031 539.671875 724.304688 539.773438 723.78125 C 539.878906 723.261719 540.007812 722.746094 540.160156 722.234375 C 540.316406 721.726562 540.496094 721.226562 540.699219 720.734375 C 540.902344 720.242188 541.128906 719.761719 541.382812 719.292969 C 541.632812 718.820312 541.90625 718.367188 542.199219 717.921875 C 542.496094 717.480469 542.8125 717.054688 543.152344 716.640625 C 543.488281 716.230469 543.847656 715.835938 544.222656 715.460938 C 544.597656 715.082031 544.992188 714.726562 545.402344 714.386719 C 545.816406 714.050781 546.242188 713.734375 546.683594 713.4375 C 547.128906 713.144531 547.582031 712.871094 548.054688 712.617188 C 548.523438 712.367188 549.003906 712.140625 549.496094 711.9375 C 549.984375 711.734375 550.488281 711.554688 550.996094 711.398438 C 551.503906 711.246094 552.019531 711.113281 552.542969 711.011719 C 553.066406 710.90625 553.589844 710.828125 554.121094 710.777344 C 554.652344 710.726562 555.179688 710.699219 555.714844 710.699219 C 556.246094 710.699219 556.777344 710.726562 557.304688 710.777344 C 557.835938 710.828125 558.363281 710.90625 558.882812 711.011719 C 559.40625 711.113281 559.921875 711.246094 560.429688 711.398438 C 560.941406 711.554688 561.441406 711.734375 561.933594 711.9375 C 562.425781 712.140625 562.90625 712.367188 563.375 712.617188 C 563.84375 712.871094 564.300781 713.144531 564.742188 713.4375 C 565.183594 713.734375 565.613281 714.050781 566.023438 714.386719 C 566.433594 714.726562 566.828125 715.082031 567.207031 715.460938 C 567.582031 715.835938 567.9375 716.230469 568.277344 716.640625 C 568.613281 717.054688 568.929688 717.480469 569.226562 717.921875 C 569.523438 718.367188 569.796875 718.820312 570.046875 719.292969 C 570.296875 719.761719 570.523438 720.242188 570.726562 720.734375 C 570.933594 721.226562 571.109375 721.726562 571.265625 722.234375 C 571.417969 722.746094 571.550781 723.261719 571.652344 723.78125 C 571.757812 724.304688 571.835938 724.832031 571.886719 725.359375 C 571.9375 725.890625 571.964844 726.421875 571.964844 726.953125 Z M 571.964844 726.953125 " fill-opacity="1" fill-rule="nonzero"/><path fill="#000000" d="M 637.328125 741.496094 C 628.589844 741.496094 621.480469 748.605469 621.480469 757.347656 C 621.480469 766.089844 628.589844 773.199219 637.328125 773.199219 C 646.066406 773.199219 653.183594 766.089844 653.183594 757.347656 C 653.183594 748.605469 646.0625 741.496094 637.328125 741.496094 Z M 637.328125 741.496094 " fill-opacity="1" fill-rule="nonzero"/><path fill="#000000" d="M 503.359375 765.03125 C 494.449219 765.03125 487.199219 772.28125 487.199219 781.195312 C 487.199219 790.105469 494.449219 797.347656 503.359375 797.347656 C 512.265625 797.347656 519.507812 790.09375 519.507812 781.195312 C 519.507812 772.292969 512.253906 765.03125 503.359375 765.03125 Z M 503.359375 765.03125 " fill-opacity="1" fill-rule="nonzero"/><path fill="#000000" d="M 219.574219 713.011719 C 210.238281 713.011719 202.65625 720.601562 202.65625 729.933594 C 202.65625 739.261719 210.246094 746.863281 219.574219 746.863281 C 228.902344 746.863281 236.492188 739.273438 236.492188 729.933594 C 236.492188 720.589844 228.902344 713.011719 219.574219 713.011719 Z M 219.574219 713.011719 " fill-opacity="1" fill-rule="nonzero"/><path fill="#000000" d="M 131.730469 740.148438 C 122.894531 740.148438 115.691406 747.34375 115.691406 756.191406 C 115.691406 765.035156 122.890625 772.242188 131.730469 772.242188 C 140.574219 772.242188 147.769531 765.035156 147.769531 756.191406 C 147.769531 747.34375 140.574219 740.148438 131.730469 740.148438 Z M 131.730469 740.148438 " fill-opacity="1" fill-rule="nonzero"/><path fill="#000000" d="M 277.246094 765.265625 C 268.046875 765.265625 260.554688 772.757812 260.554688 781.949219 C 260.554688 791.136719 268.046875 798.640625 277.246094 798.640625 C 286.445312 798.640625 293.921875 791.148438 293.921875 781.949219 C 293.921875 772.746094 286.433594 765.265625 277.246094 765.265625 Z M 277.246094 765.265625 " fill-opacity="1" fill-rule="nonzero"/><path fill="#000000" d="M 381.089844 379.179688 C 368.53125 374.953125 353.171875 378.5 343.507812 383.898438 C 327.480469 392.832031 316.289062 411.269531 325.882812 429.214844 C 329.308594 435.589844 335.152344 440.164062 342.820312 442.40625 C 346.300781 443.417969 350.050781 443.917969 353.835938 443.917969 C 360.882812 443.917969 368.078125 442.203125 373.894531 438.949219 C 402.519531 422.917969 402.464844 405.6875 397.375 394.039062 C 394.230469 386.851562 388.601562 381.71875 381.101562 379.191406 Z M 371.425781 405.097656 C 371.628906 406.417969 370.496094 409.027344 366.582031 411.988281 C 362.65625 414.996094 359.523438 416 355.144531 417.398438 C 354.332031 417.660156 352.742188 417.261719 351.5625 416.203125 C 350.730469 415.460938 349.828125 414.105469 350.28125 412.046875 C 350.597656 410.570312 352.757812 408.058594 356.890625 405.757812 C 360.40625 403.800781 364.269531 402.660156 366.972656 402.660156 C 367.738281 402.660156 368.425781 402.753906 368.964844 402.941406 C 370 403.316406 371.261719 403.992188 371.429688 405.082031 L 371.429688 405.09375 Z M 371.425781 405.097656 " fill-opacity="1" fill-rule="nonzero"/><path fill="#000000" d="M 379.726562 616.878906 C 370.371094 629.84375 366.640625 650.640625 378.171875 663.648438 C 382.730469 668.796875 389.117188 671.738281 396.648438 672.128906 C 397.234375 672.152344 397.824219 672.175781 398.394531 672.175781 C 407.84375 672.175781 417.898438 668.246094 425.050781 661.707031 C 437.347656 650.457031 443.09375 636.804688 442.101562 621.121094 C 441.121094 605.476562 432.078125 595.742188 417.933594 595.078125 C 399.117188 594.324219 385.871094 608.347656 379.722656 616.871094 Z M 379.726562 616.878906 " fill-opacity="1" fill-rule="nonzero"/><path fill="#000000" d="M 397.511719 469.78125 C 389.863281 467.527344 382.027344 468.449219 374.886719 472.417969 C 358.296875 481.652344 357.980469 503.324219 365.023438 520.707031 C 366.769531 525 373.488281 539.441406 387.105469 545.164062 C 390.574219 546.628906 394.144531 547.347656 397.769531 547.347656 C 401.621094 547.347656 405.550781 546.535156 409.515625 544.890625 C 417.570312 541.582031 423.050781 535.972656 425.835938 528.222656 C 430.5 515.203125 426.238281 499.53125 420.710938 489.210938 C 416.804688 481.960938 408.671875 473.046875 397.5 469.769531 Z M 397.757812 520.253906 C 392.371094 517.136719 388.488281 512.394531 387.203125 507.28125 C 386.519531 504.550781 386.28125 500.476562 389.074219 496.632812 C 389.378906 496.207031 389.730469 495.933594 390.40625 495.933594 L 390.679688 495.933594 C 393.210938 496.171875 396.78125 499.226562 397.617188 500.949219 L 398.390625 502.546875 C 401.039062 507.84375 404.023438 513.800781 397.761719 520.246094 L 397.761719 520.253906 Z M 397.757812 520.253906 " fill-opacity="1" fill-rule="nonzero"/><path fill="#000000" d="M 290.300781 522.992188 C 271.0625 534.804688 273.519531 558.890625 283.960938 576.261719 C 289.375 585.28125 300.265625 595.46875 312.371094 597.875 C 314.242188 598.246094 316.078125 598.4375 317.878906 598.4375 C 323.609375 598.4375 329.039062 596.566406 334.070312 592.851562 C 340.523438 588.085938 344.542969 581.15625 345.710938 572.8125 C 347.34375 561.230469 343.289062 547.117188 335.40625 536.84375 C 327.355469 526.347656 308.796875 511.613281 290.292969 523 L 290.292969 522.992188 Z M 304.441406 545.757812 C 314.949219 550.464844 318.9375 558.125 317.753906 571.316406 C 312.292969 570.222656 307.796875 566.976562 305.171875 562.160156 C 302.445312 557.144531 302.210938 551.164062 304.441406 545.765625 Z M 304.441406 545.757812 " fill-opacity="1" fill-rule="nonzero"/><path fill="#000000" d="M 768.738281 673.722656 C 759.078125 669.679688 748.5 674.058594 738.253906 678.316406 C 725.71875 683.53125 713.851562 688.457031 702.597656 680.5 C 686.789062 669.335938 669.871094 672.425781 654.917969 675.136719 C 644.960938 676.925781 635.554688 678.640625 627.222656 676.308594 C 617.359375 673.527344 607.863281 668.605469 598.6875 663.863281 C 578.652344 653.5 557.953125 642.753906 531.09375 652.125 C 474.121094 671.996094 470.066406 683.960938 465.382812 697.816406 C 461.890625 708.109375 458.285156 718.757812 428.367188 735.695312 C 400.449219 751.511719 377.710938 747.105469 350.097656 734.851562 C 324.746094 723.597656 318.96875 713.199219 305.019531 688.082031 L 304.523438 687.179688 C 290.003906 661.058594 235.003906 649.164062 210 656.800781 C 203.277344 658.863281 197.421875 660.96875 191.757812 663.015625 C 177.871094 668.03125 165.878906 672.367188 148.828125 672.511719 C 143.839844 672.554688 138.796875 675.550781 133.464844 678.71875 C 126.429688 682.898438 119.128906 687.222656 112.722656 683.988281 C 60.820312 657.945312 20.75 669.796875 6.480469 684.148438 C 0.363281 690.285156 -1.574219 697.375 1.308594 703.082031 C 6.164062 712.667969 16.355469 709.074219 28.175781 704.929688 C 43.4375 699.546875 64.335938 692.226562 86.605469 706.5625 C 106.941406 719.675781 124.265625 714.335938 142.589844 708.703125 C 146.621094 707.464844 150.742188 706.179688 154.988281 705.097656 C 161.285156 703.476562 167.148438 702.304688 172.828125 701.167969 C 186.949219 698.339844 200.285156 695.671875 219.257812 686.78125 C 227.121094 683.097656 244.925781 684.96875 259.8125 691.027344 C 270.355469 695.320312 277.5625 700.882812 279.601562 706.3125 C 288.609375 730.308594 306.6875 747.957031 336.515625 761.859375 C 357.296875 771.542969 375.550781 776.410156 392.839844 776.410156 C 412.183594 776.410156 430.308594 770.304688 449.382812 758.027344 C 469.667969 744.984375 483 733.472656 495.421875 710.0625 C 503.398438 695.011719 517.664062 684.921875 535.558594 681.632812 C 558.160156 677.496094 583.996094 684.640625 601.316406 699.835938 C 614.550781 711.449219 628.835938 713.953125 645.066406 707.476562 C 664.199219 699.8125 676.972656 704.195312 690.507812 708.828125 C 708.480469 714.964844 727.050781 721.296875 760.632812 702.621094 C 762.324219 701.6875 764.046875 700.933594 765.667969 700.210938 C 769.960938 698.328125 774.003906 696.550781 775.859375 692.472656 C 777.660156 688.519531 777.917969 684.65625 776.578125 681.265625 C 775.273438 677.929688 772.570312 675.328125 768.738281 673.730469 L 768.738281 673.71875 Z M 768.738281 673.722656 " fill-opacity="1" fill-rule="nonzero"/><path fill="#000000" d="M 808.832031 193.003906 C 807.085938 188.8125 803.144531 186.199219 797.152344 185.230469 C 772.488281 181.175781 711.210938 207.804688 695.425781 225.941406 C 667.765625 257.671875 643.878906 283.34375 609.375 300.734375 C 549.304688 331.035156 513.976562 375.160156 490.597656 404.371094 C 477.542969 420.679688 467.21875 433.578125 460.035156 433.894531 C 458.660156 434.019531 456.777344 433.703125 454.234375 431.046875 C 438.257812 414.375 448.503906 381.382812 460.878906 363.277344 L 506.90625 295.964844 C 518.824219 278.550781 519.070312 252.550781 507.539062 231.285156 C 478.214844 177.09375 377.355469 200.105469 357.445312 205.25 C 299.996094 220.144531 277.070312 236.261719 248.035156 256.660156 C 230.667969 268.859375 210.996094 282.695312 180.171875 299.25 C 168.214844 305.683594 150.542969 310.730469 133.097656 299.429688 C 174.015625 241.789062 333.773438 135.859375 394.539062 103.890625 C 423.214844 88.808594 467.507812 86.691406 518.777344 84.246094 C 586.53125 81.003906 670.832031 76.96875 753.417969 41.023438 C 764 36.417969 768.664062 29.074219 765.863281 21.390625 C 764.632812 18.011719 761.535156 15.015625 757.394531 13.15625 C 752.652344 11.027344 747.371094 10.816406 742.921875 12.59375 C 688.59375 34.210938 635.40625 46.355469 580.324219 49.746094 L 455.558594 57.4375 C 411.222656 60.167969 372.15625 75.292969 324.910156 108.007812 C 314.425781 115.257812 303.941406 122.433594 293.480469 129.597656 C 233.839844 170.433594 172.15625 212.660156 119.21875 265.109375 C 108.753906 275.46875 102.414062 289.503906 102.640625 301.75 C 102.808594 310.410156 106.1875 317.996094 112.425781 323.726562 C 131.90625 341.570312 157.371094 337.230469 179.953125 333.289062 C 172.398438 350.300781 164.277344 376.660156 176.8125 392.902344 C 195.289062 416.871094 217.398438 406.5625 235.179688 398.308594 C 243.152344 394.589844 250.699219 391.089844 257.015625 390.847656 L 263.199219 390.625 C 293.695312 389.609375 322.492188 388.644531 345.417969 354.355469 C 353.097656 342.863281 421.605469 241.957031 461.3125 236.542969 C 466.84375 235.808594 471.335938 236.992188 475.078125 240.203125 C 495.765625 258 483.34375 277.363281 459.617188 310.042969 C 439.027344 338.40625 413.398438 373.707031 415.851562 417.722656 C 417.171875 441.027344 430.265625 460.140625 447.722656 464.195312 C 451.789062 465.140625 455.605469 465.59375 459.222656 465.59375 C 482.566406 465.59375 497.242188 446.785156 516.554688 422.023438 C 538.945312 393.320312 569.609375 354.007812 629.871094 324.191406 C 666.019531 306.328125 690.132812 278.617188 715.652344 249.296875 L 717.542969 247.125 C 729.785156 233.066406 752.558594 226.78125 772.660156 221.238281 C 790.636719 216.292969 804.824219 212.371094 808.976562 203.824219 C 810.566406 200.582031 810.53125 196.941406 808.875 193 L 808.84375 193.011719 Z M 284.96875 358.609375 C 301.707031 331 377.980469 224.667969 408.003906 223.550781 C 410.152344 223.507812 412.269531 224.058594 413.867188 225.410156 C 393.710938 238.5 372.707031 266.84375 352.355469 294.28125 C 328 327.125 302.917969 361.167969 284.957031 358.609375 Z M 234.304688 306.324219 L 242.988281 299.484375 C 268.597656 279.257812 292.890625 260.058594 325.078125 249.617188 L 255.253906 343.507812 C 237.675781 367.160156 220.296875 377.425781 202.199219 374.742188 C 205.710938 351.691406 214.148438 322.105469 234.316406 306.320312 L 234.304688 306.320312 Z M 234.304688 306.324219 " fill-opacity="1" fill-rule="nonzero"/><path fill="#000000" d="M 161.238281 56.226562 L 8.230469 56.234375 L 7.859375 140.085938 C 7.832031 146.042969 13.105469 149.625 18.695312 150.074219 L 102.574219 149.875 C 103.875 149.871094 106.851562 151.746094 106.972656 152.824219 C 107.09375 153.902344 106.648438 155.449219 105.902344 157.648438 L 17.046875 157.617188 C 8.320312 157.613281 0.183594 150.082031 0.1875 141.28125 L 0.25 31.261719 C 0.257812 22.445312 9.089844 16.59375 16.878906 16.292969 L 26.777344 15.902344 C 29.886719 15.78125 26.265625 7.542969 31.964844 2.355469 C 34.355469 0.179688 39.273438 -0.621094 42.464844 0.304688 C 54.707031 3.839844 46.734375 16.1875 54.691406 16.175781 L 119.445312 16.089844 C 124.257812 16.085938 118.972656 2.640625 130.027344 0.261719 C 134.71875 -0.75 141.808594 0.726562 142.976562 6.613281 L 144.832031 15.945312 L 152.644531 15.9375 C 161.640625 15.929688 172.210938 21.753906 172.261719 32.808594 L 172.605469 105.296875 C 172.613281 106.472656 169.515625 108.289062 168.457031 107.855469 C 167.398438 107.425781 164.488281 105.402344 164.484375 103.878906 L 164.414062 61.90625 C 164.414062 60.96875 163.570312 56.214844 161.238281 56.214844 Z M 43.148438 28.035156 L 42.910156 10.464844 C 42.894531 9.285156 39.554688 6.632812 38.738281 7.347656 C 38.128906 7.882812 36.003906 9.851562 35.992188 10.660156 L 35.761719 28.292969 C 35.742188 29.671875 38.457031 32.207031 39.828125 32.09375 C 40.851562 32.011719 43.171875 29.332031 43.152344 28.035156 Z M 136.753906 27.65625 L 136.675781 11.550781 C 136.667969 10.019531 133.882812 6.65625 132.652344 7.355469 C 131.664062 7.914062 129.40625 10.5625 129.410156 11.746094 L 129.46875 28.382812 C 129.472656 29.859375 132.363281 32.523438 133.667969 32.09375 C 134.648438 31.769531 136.761719 28.984375 136.753906 27.65625 Z M 131.097656 39.691406 C 119.40625 38.753906 123.941406 24.449219 118.851562 24.449219 L 53.8125 24.429688 C 48.679688 24.429688 53.109375 40.414062 39.226562 39.921875 C 25.296875 39.433594 29.855469 24.394531 26.351562 24.363281 L 15.949219 24.28125 C 6.660156 24.210938 7.089844 40.265625 8.410156 48.472656 L 163.738281 48.464844 C 165.316406 39.332031 165.546875 23.957031 155.160156 24.160156 L 145.433594 24.347656 C 145.054688 25.574219 144.253906 28.511719 144.0625 29.65625 C 142.964844 36.304688 138.671875 40.304688 131.097656 39.695312 Z M 131.097656 39.691406 " fill-opacity="1" fill-rule="nonzero"/><g clip-path="url(#299246e81a)"><path fill="#000000" d="M 180.074219 139.308594 C 180.074219 158.773438 164.304688 174.558594 144.855469 174.558594 C 125.40625 174.558594 109.636719 158.773438 109.636719 139.308594 C 109.636719 119.839844 125.40625 104.054688 144.855469 104.054688 C 164.304688 104.054688 180.074219 119.839844 180.074219 139.308594 Z M 172.15625 139.257812 C 172.15625 124.164062 159.933594 111.925781 144.851562 111.925781 C 129.769531 111.925781 117.542969 124.164062 117.542969 139.257812 C 117.542969 154.351562 129.769531 166.585938 144.851562 166.585938 C 159.933594 166.585938 172.15625 154.351562 172.15625 139.257812 Z M 172.15625 139.257812 " fill-opacity="1" fill-rule="nonzero"/></g><path fill="#000000" d="M 36.214844 137.632812 L 26.730469 137.824219 C 25.078125 137.859375 21.597656 134.875 21.667969 133.242188 L 22.125 122.449219 C 22.207031 120.523438 27.328125 118.261719 29.269531 118.554688 L 39.761719 120.140625 L 40.234375 134.082031 C 40.265625 134.972656 37.207031 137.613281 36.210938 137.632812 Z M 36.214844 137.632812 " fill-opacity="1" fill-rule="nonzero"/><path fill="#000000" d="M 91.441406 137.671875 L 80.90625 137.621094 C 75.65625 137.597656 75.8125 125.492188 78.261719 121.011719 C 79.953125 117.921875 94.394531 118.125 94.832031 121.449219 C 95.101562 123.480469 97.636719 137.699219 91.441406 137.671875 Z M 91.441406 137.671875 " fill-opacity="1" fill-rule="nonzero"/><path fill="#000000" d="M 67.75 136.601562 L 58.367188 137.984375 C 56.523438 138.253906 51.355469 137.300781 50.238281 135.867188 C 48.746094 132.574219 48.648438 125.25 50.027344 121.675781 C 51.566406 117.679688 63.417969 118.375 67.695312 120.929688 Z M 67.75 136.601562 " fill-opacity="1" fill-rule="nonzero"/><path fill="#000000" d="M 67.171875 66.859375 C 67.710938 69.960938 69.789062 84.230469 63.648438 84.15625 L 54.578125 84.046875 C 46.429688 83.949219 49.347656 72.328125 49.777344 66.84375 C 55.726562 64.761719 61.214844 64.78125 67.171875 66.859375 Z M 67.171875 66.859375 " fill-opacity="1" fill-rule="nonzero"/><path fill="#000000" d="M 118.496094 84.421875 L 104.796875 82.96875 C 104.683594 78.234375 104.589844 72.21875 104.71875 68.910156 C 104.902344 64.21875 118.617188 65.003906 122.488281 66.550781 L 123.246094 80.429688 C 123.304688 81.460938 119.6875 84.546875 118.496094 84.421875 Z M 118.496094 84.421875 " fill-opacity="1" fill-rule="nonzero"/><path fill="#000000" d="M 95.039062 81.394531 C 94.476562 85.285156 80.765625 84.882812 77.445312 82.503906 C 76.863281 78.597656 76.636719 72.074219 77.136719 68.835938 C 77.910156 63.820312 90.78125 64.929688 94.789062 66.640625 C 95.398438 70.976562 95.535156 77.9375 95.039062 81.394531 Z M 95.039062 81.394531 " fill-opacity="1" fill-rule="nonzero"/><path fill="#000000" d="M 95.214844 109.90625 L 83.332031 111.039062 C 81.785156 111.1875 77.460938 109.292969 77.285156 107.847656 C 76.792969 103.765625 74.871094 92.035156 81.808594 92.070312 L 91.492188 92.121094 C 92.664062 92.128906 95.664062 94.882812 95.628906 96.050781 L 95.210938 109.90625 Z M 95.214844 109.90625 " fill-opacity="1" fill-rule="nonzero"/><path fill="#000000" d="M 64.847656 110.859375 L 54.289062 110.78125 C 52.644531 110.769531 49.757812 108.382812 49.117188 107.335938 L 49.128906 97.070312 C 49.128906 95.121094 52.257812 92.140625 54.09375 92.113281 L 64.328125 91.945312 L 68.128906 95.59375 L 68.070312 107.105469 L 64.851562 110.863281 Z M 64.847656 110.859375 " fill-opacity="1" fill-rule="nonzero"/><path fill="#000000" d="M 36.679688 110.902344 L 26.636719 110.78125 C 25.035156 110.761719 22.175781 108.355469 21.578125 107.285156 L 21.570312 96.855469 C 21.570312 95.21875 24.683594 92.167969 26.382812 92.152344 L 36.773438 92.066406 C 37.808594 92.726562 40.183594 95.613281 40.207031 97.039062 L 40.386719 107.226562 L 36.675781 110.90625 Z M 36.679688 110.902344 " fill-opacity="1" fill-rule="nonzero"/><path fill="#000000" d="M 140.203125 84.285156 C 138.367188 84.578125 133.054688 82.765625 132.796875 81.09375 C 132.300781 77.867188 132.4375 71.261719 133.011719 68.066406 C 133.675781 64.394531 146.71875 64.726562 150.441406 67.128906 L 150.328125 82.648438 L 140.203125 84.28125 Z M 140.203125 84.285156 " fill-opacity="1" fill-rule="nonzero"/><path fill="#000000" d="M 120.589844 107.648438 C 117.511719 110.511719 111.03125 111.53125 107.359375 110.058594 C 102.933594 108.28125 103.753906 95.3125 106.308594 93.046875 C 110.308594 91.761719 117.480469 91.359375 120.808594 93.136719 C 125.429688 95.601562 124.355469 104.136719 120.589844 107.648438 Z M 120.589844 107.648438 " fill-opacity="1" fill-rule="nonzero"/><path fill="#000000" d="M 157.96875 144.65625 L 144.203125 144.652344 C 142.789062 144.652344 140.179688 141.832031 140.179688 140.214844 L 140.164062 123.183594 C 140.164062 121.203125 141.753906 118.320312 143.332031 118.160156 C 146.011719 117.890625 148.011719 120.4375 147.992188 123.125 L 147.90625 136.457031 L 158.324219 137.265625 C 159.578125 137.363281 161.734375 139.703125 161.816406 140.859375 C 161.917969 142.246094 159.355469 144.65625 157.964844 144.65625 Z M 157.96875 144.65625 " fill-opacity="1" fill-rule="nonzero"/></svg>