<svg xmlns="http://www.w3.org/2000/svg" xmlns:xlink="http://www.w3.org/1999/xlink" width="1080" zoomAndPan="magnify" viewBox="0 0 810 809.999993" height="1080" preserveAspectRatio="xMidYMid meet" version="1.0"><defs><clipPath id="bbf5b50459"><path d="M 741.511719 489.171875 L 765.011719 489.171875 L 765.011719 512.671875 L 741.511719 512.671875 Z M 741.511719 489.171875 " clip-rule="nonzero"/></clipPath><clipPath id="9f2ff4a031"><path d="M 753.261719 489.171875 C 746.773438 489.171875 741.511719 494.433594 741.511719 500.921875 C 741.511719 507.414062 746.773438 512.671875 753.261719 512.671875 C 759.75 512.671875 765.011719 507.414062 765.011719 500.921875 C 765.011719 494.433594 759.75 489.171875 753.261719 489.171875 Z M 753.261719 489.171875 " clip-rule="nonzero"/></clipPath><clipPath id="087b0dd459"><path d="M 0.511719 0.171875 L 24.011719 0.171875 L 24.011719 23.671875 L 0.511719 23.671875 Z M 0.511719 0.171875 " clip-rule="nonzero"/></clipPath><clipPath id="8f1620da2b"><path d="M 12.261719 0.171875 C 5.773438 0.171875 0.511719 5.433594 0.511719 11.921875 C 0.511719 18.414062 5.773438 23.671875 12.261719 23.671875 C 18.75 23.671875 24.011719 18.414062 24.011719 11.921875 C 24.011719 5.433594 18.75 0.171875 12.261719 0.171875 Z M 12.261719 0.171875 " clip-rule="nonzero"/></clipPath><clipPath id="a2d7c9fbc7"><rect x="0" width="25" y="0" height="24"/></clipPath></defs><path fill="#000000" d="M 791.035156 137.742188 C 777.617188 129.351562 696.101562 92.917969 620.007812 61.304688 C 463.296875 -3.8125 449.40625 -0.335938 443.46875 1.148438 C 429.707031 4.589844 320.847656 48.324219 219.46875 91.140625 C 161.691406 115.542969 112.523438 137.039062 77.277344 153.3125 C 8.339844 185.136719 7.019531 189.972656 5.351562 196.101562 C 2.699219 205.8125 -9.972656 284.503906 16.121094 309.226562 C 20.597656 313.023438 25.433594 316.273438 30.640625 318.980469 C 29.773438 362.121094 29 425.8125 29.304688 482.429688 C 29.847656 585.214844 33.191406 589.675781 36.429688 593.988281 C 39.234375 597.730469 45.808594 606.496094 210.75 673.800781 C 272.632812 699.054688 376.230469 740.019531 390.796875 742.445312 C 391.75 742.628906 392.710938 742.722656 393.683594 742.730469 C 399.335938 742.730469 412.082031 739.429688 459.964844 716.183594 C 490.875 701.179688 532.609375 679.632812 577.480469 655.507812 C 634.0625 625.09375 744.164062 564.125 755.882812 551.101562 C 760.898438 545.527344 769.269531 536.226562 772.660156 278.519531 C 783.683594 272.695312 791.179688 268.367188 793.066406 266.480469 C 800.128906 259.417969 804.402344 241.769531 806.746094 228.207031 C 809.972656 209.546875 810.839844 190.246094 809.132812 175.25 C 807.003906 156.535156 800.914062 143.914062 791.035156 137.742188 Z M 738.074219 536.410156 C 727.550781 545.289062 659.457031 585.285156 570.019531 633.453125 C 464.4375 690.320312 405.164062 717.753906 393.777344 719.628906 C 382.339844 716.863281 311.496094 690.046875 223.589844 654.246094 C 121.746094 612.765625 66.980469 587.824219 55.519531 580.390625 C 51.753906 559.539062 51.375 438.324219 53.375 330.460938 C 74.09375 340.164062 100.421875 351.074219 126.40625 361.339844 C 125.5625 367.710938 124.5 376.671875 123.820312 386.019531 C 122.058594 410.199219 122.910156 427.746094 132.777344 434.792969 C 140.644531 440.414062 176.761719 454.207031 197.675781 461.578125 C 240.164062 476.558594 256.910156 479.398438 264.445312 479.398438 C 266.347656 479.4375 268.210938 479.191406 270.039062 478.652344 C 271.035156 478.402344 271.992188 478.039062 272.90625 477.570312 C 273.820312 477.101562 274.671875 476.53125 275.457031 475.867188 C 276.242188 475.203125 276.941406 474.460938 277.554688 473.636719 C 278.171875 472.8125 278.6875 471.929688 279.101562 470.988281 C 283.035156 461.800781 284.601562 435.941406 285.210938 419.449219 C 330.566406 434.847656 380.6875 450.617188 395.722656 450.613281 C 396.335938 450.617188 396.945312 450.585938 397.554688 450.515625 C 414.746094 448.363281 545.234375 387.886719 600.535156 361.984375 C 621.382812 352.222656 699.308594 315.605469 749.539062 290.378906 C 747.191406 453.199219 742.191406 523.976562 738.074219 536.410156 Z M 207.851562 392.183594 C 216.894531 395.484375 237.730469 403.03125 262.488281 411.640625 C 262.207031 426.453125 261.164062 441.210938 259.359375 455.914062 C 251.25 454.535156 234.015625 450.109375 203.65625 439.34375 C 175.839844 429.476562 153.453125 420.125 147.296875 416.800781 C 145.3125 410.722656 145.863281 391.125 148.417969 369.921875 C 171.40625 378.773438 192.707031 386.660156 207.851562 392.183594 Z M 776.875 250.09375 C 767.011719 256.664062 693.746094 293.011719 588.609375 342.222656 C 468.28125 398.542969 403.945312 425.949219 394.859375 427.707031 C 383.640625 427.671875 311.296875 405.578125 213.023438 369.632812 C 186.964844 360.101562 163.710938 351.316406 143.253906 343.269531 C 143.183594 343.242188 143.117188 343.214844 143.046875 343.1875 C 75.90625 316.871094 38.777344 299.066406 31.910156 292.558594 C 27.683594 288.554688 23.109375 275.152344 22.957031 249.546875 C 22.835938 234.457031 24.144531 219.496094 26.894531 204.660156 C 38.101562 196.363281 98.507812 166.988281 236.738281 108.773438 C 344.585938 63.351562 436.835938 26.855469 448.578125 23.542969 L 448.703125 23.542969 C 458.480469 23.542969 507.554688 39.324219 615.070312 84.113281 C 694.207031 117.082031 768.105469 150.476562 778.871094 157.207031 C 779.898438 157.847656 783.410156 160.84375 785.53125 172.425781 C 791.023438 202.417969 780.992188 243.40625 776.875 250.09375 Z M 776.875 250.09375 " fill-opacity="1" fill-rule="nonzero"/><path fill="#000000" d="M 400.6875 473.214844 C 399.933594 473.214844 399.1875 473.289062 398.449219 473.433594 C 397.710938 473.582031 396.992188 473.800781 396.296875 474.089844 C 395.597656 474.375 394.9375 474.730469 394.3125 475.148438 C 393.683594 475.566406 393.105469 476.042969 392.570312 476.578125 C 392.039062 477.109375 391.5625 477.6875 391.144531 478.316406 C 390.726562 478.941406 390.371094 479.605469 390.082031 480.300781 C 389.796875 480.996094 389.578125 481.714844 389.429688 482.453125 C 389.285156 483.191406 389.210938 483.941406 389.210938 484.695312 L 389.210938 671.53125 C 389.210938 672.285156 389.285156 673.03125 389.429688 673.769531 C 389.578125 674.511719 389.796875 675.226562 390.082031 675.925781 C 390.371094 676.621094 390.726562 677.28125 391.144531 677.910156 C 391.5625 678.535156 392.039062 679.117188 392.570312 679.648438 C 393.105469 680.179688 393.683594 680.65625 394.3125 681.074219 C 394.9375 681.496094 395.597656 681.847656 396.296875 682.136719 C 396.992188 682.425781 397.710938 682.644531 398.449219 682.789062 C 399.1875 682.9375 399.933594 683.011719 400.6875 683.011719 C 401.441406 683.011719 402.1875 682.9375 402.925781 682.789062 C 403.667969 682.644531 404.382812 682.425781 405.082031 682.136719 C 405.777344 681.847656 406.4375 681.496094 407.066406 681.074219 C 407.691406 680.65625 408.269531 680.179688 408.804688 679.648438 C 409.335938 679.117188 409.8125 678.535156 410.230469 677.910156 C 410.648438 677.28125 411.003906 676.621094 411.292969 675.925781 C 411.582031 675.226562 411.796875 674.511719 411.945312 673.769531 C 412.09375 673.03125 412.164062 672.285156 412.164062 671.53125 L 412.164062 484.695312 C 412.164062 483.941406 412.09375 483.191406 411.945312 482.453125 C 411.796875 481.714844 411.582031 480.996094 411.292969 480.300781 C 411.003906 479.605469 410.648438 478.941406 410.230469 478.316406 C 409.8125 477.6875 409.335938 477.109375 408.804688 476.578125 C 408.269531 476.042969 407.691406 475.566406 407.066406 475.148438 C 406.4375 474.730469 405.777344 474.375 405.082031 474.089844 C 404.382812 473.800781 403.667969 473.582031 402.925781 473.433594 C 402.1875 473.289062 401.441406 473.214844 400.6875 473.214844 Z M 400.6875 473.214844 " fill-opacity="1" fill-rule="nonzero"/><path fill="#000000" d="M 735.832031 178.191406 C 609.082031 240.671875 415.660156 335.109375 394.796875 342.890625 C 389.171875 342.824219 360.5625 337.378906 217.628906 279.730469 C 137.867188 247.558594 61.199219 214.722656 60.433594 214.394531 C 59.742188 214.097656 59.027344 213.871094 58.289062 213.714844 C 57.554688 213.5625 56.808594 213.476562 56.054688 213.46875 C 55.300781 213.460938 54.554688 213.527344 53.8125 213.664062 C 53.074219 213.800781 52.351562 214.011719 51.652344 214.289062 C 50.953125 214.570312 50.289062 214.917969 49.65625 215.328125 C 49.027344 215.738281 48.441406 216.207031 47.902344 216.734375 C 47.363281 217.257812 46.882812 217.832031 46.453125 218.453125 C 46.027344 219.074219 45.667969 219.734375 45.371094 220.425781 C 45.074219 221.117188 44.847656 221.832031 44.691406 222.570312 C 44.535156 223.304688 44.453125 224.050781 44.441406 224.804688 C 44.433594 225.558594 44.496094 226.304688 44.636719 227.046875 C 44.773438 227.785156 44.980469 228.507812 45.261719 229.207031 C 45.539062 229.90625 45.886719 230.570312 46.296875 231.203125 C 46.707031 231.835938 47.175781 232.421875 47.699219 232.960938 C 48.226562 233.5 48.800781 233.980469 49.421875 234.410156 C 50.042969 234.835938 50.699219 235.195312 51.390625 235.496094 C 52.1875 235.835938 132.195312 270.105469 213.953125 303 C 349.53125 357.546875 383.738281 365.910156 395.488281 365.910156 C 397.480469 365.949219 399.410156 365.628906 401.28125 364.949219 C 424.144531 357.324219 713.109375 214.988281 745.980469 198.785156 C 746.65625 198.449219 747.292969 198.054688 747.890625 197.59375 C 748.488281 197.136719 749.035156 196.621094 749.53125 196.054688 C 750.027344 195.488281 750.460938 194.878906 750.839844 194.226562 C 751.214844 193.574219 751.523438 192.890625 751.765625 192.179688 C 752.007812 191.464844 752.179688 190.734375 752.277344 189.988281 C 752.375 189.242188 752.398438 188.492188 752.347656 187.742188 C 752.300781 186.988281 752.175781 186.25 751.984375 185.523438 C 751.789062 184.796875 751.523438 184.09375 751.191406 183.417969 C 750.859375 182.742188 750.460938 182.105469 750.003906 181.507812 C 749.546875 180.910156 749.035156 180.363281 748.46875 179.867188 C 747.902344 179.371094 747.292969 178.933594 746.640625 178.554688 C 745.988281 178.179688 745.304688 177.871094 744.59375 177.625 C 743.878906 177.382812 743.152344 177.214844 742.40625 177.113281 C 741.65625 177.015625 740.910156 176.992188 740.15625 177.039062 C 739.40625 177.085938 738.667969 177.207031 737.9375 177.402344 C 737.210938 177.597656 736.507812 177.859375 735.832031 178.191406 Z M 735.832031 178.191406 " fill-opacity="1" fill-rule="nonzero"/><g clip-path="url(#bbf5b50459)"><g clip-path="url(#9f2ff4a031)"><g transform="matrix(1, 0, 0, 1, 741, 489)"><g clip-path="url(#a2d7c9fbc7)"><g clip-path="url(#087b0dd459)"><g clip-path="url(#8f1620da2b)"><path fill="#000000" d="M 0.511719 0.171875 L 24.011719 0.171875 L 24.011719 23.671875 L 0.511719 23.671875 Z M 0.511719 0.171875 " fill-opacity="1" fill-rule="nonzero"/></g></g></g></g></g></g></svg>