<svg xmlns="http://www.w3.org/2000/svg" xmlns:xlink="http://www.w3.org/1999/xlink" width="1080" zoomAndPan="magnify" viewBox="0 0 810 809.999993" height="1080" preserveAspectRatio="xMidYMid meet" version="1.0"><defs><clipPath id="4aebcffeff"><path d="M 0 0 L 809.613281 0 L 809.613281 810 L 0 810 Z M 0 0 " clip-rule="nonzero"/></clipPath><clipPath id="36c65e4253"><path d="M 475.347656 662.007812 L 498.847656 662.007812 L 498.847656 685.507812 L 475.347656 685.507812 Z M 475.347656 662.007812 " clip-rule="nonzero"/></clipPath><clipPath id="3c8030046e"><path d="M 487.097656 662.007812 C 480.605469 662.007812 475.347656 667.269531 475.347656 673.757812 C 475.347656 680.246094 480.605469 685.507812 487.097656 685.507812 C 493.585938 685.507812 498.847656 680.246094 498.847656 673.757812 C 498.847656 667.269531 493.585938 662.007812 487.097656 662.007812 Z M 487.097656 662.007812 " clip-rule="nonzero"/></clipPath><clipPath id="50c20d8fc8"><path d="M 0.347656 0.0078125 L 23.847656 0.0078125 L 23.847656 23.507812 L 0.347656 23.507812 Z M 0.347656 0.0078125 " clip-rule="nonzero"/></clipPath><clipPath id="73cfbdf50f"><path d="M 12.097656 0.0078125 C 5.605469 0.0078125 0.347656 5.269531 0.347656 11.757812 C 0.347656 18.246094 5.605469 23.507812 12.097656 23.507812 C 18.585938 23.507812 23.847656 18.246094 23.847656 11.757812 C 23.847656 5.269531 18.585938 0.0078125 12.097656 0.0078125 Z M 12.097656 0.0078125 " clip-rule="nonzero"/></clipPath><clipPath id="56484acac3"><rect x="0" width="24" y="0" height="24"/></clipPath></defs><g clip-path="url(#4aebcffeff)"><path fill="#000000" d="M 455.1875 4.039062 C 443.890625 11.234375 430.792969 26.90625 423.601562 42.582031 C 418.207031 54.65625 417.4375 59.28125 418.464844 77.527344 C 419.234375 95 421.03125 100.910156 428.222656 114.527344 L 436.699219 130.714844 L 395.09375 277.691406 C 356.828125 412.589844 344.5 454.984375 323.183594 527.445312 L 315.738281 553.140625 L 309.316406 539.007812 C 305.722656 531.300781 286.71875 490.703125 267.199219 448.820312 L 231.5 372.761719 L 233.554688 348.609375 C 242.289062 239.917969 243.058594 207.542969 236.894531 207.542969 C 231.246094 207.542969 229.445312 212.425781 216.09375 267.414062 L 203.765625 318.546875 L 189.382812 289.511719 C 175.257812 261.757812 175 260.472656 178.082031 251.480469 C 182.191406 239.917969 182.707031 216.277344 178.855469 204.714844 C 173.460938 189.300781 158.820312 172.082031 140.589844 160.007812 C 117.730469 144.847656 112.59375 145.105469 106.429688 162.578125 C 100.523438 180.050781 101.550781 214.996094 108.484375 229.382812 C 114.90625 242.230469 130.058594 257.132812 144.183594 263.816406 L 154.96875 269.210938 L 180.136719 334.21875 C 194.007812 369.679688 205.820312 400.253906 206.332031 401.796875 C 207.105469 403.597656 187.070312 396.402344 161.648438 385.867188 C 111.3125 365.054688 104.121094 363.253906 102.578125 369.933594 C 101.550781 375.332031 108.230469 380.214844 176.027344 423.636719 L 226.621094 456.015625 L 237.664062 484.023438 C 243.828125 499.4375 258.46875 537.980469 270.539062 569.84375 C 291.597656 624.832031 292.625 628.171875 290.054688 639.21875 C 288.257812 647.957031 149.578125 1135.132812 141.359375 1162.113281 C 140.074219 1166.738281 139.304688 1166.226562 136.222656 1159.03125 C 129.800781 1143.355469 41.199219 943.960938 1.136719 855.058594 L -38.671875 766.410156 L -32.507812 703.457031 C -29.167969 668.769531 -26.34375 633.308594 -26.34375 624.316406 C -26.34375 610.183594 -26.855469 608.386719 -31.222656 608.386719 C -36.617188 608.386719 -39.441406 616.09375 -57.417969 678.789062 C -61.527344 692.664062 -65.121094 704.484375 -65.636719 705 C -66.148438 705.769531 -72.828125 692.152344 -80.273438 675.191406 L -93.886719 644.359375 L -87.980469 630.996094 C -80.019531 612.753906 -79.761719 588.34375 -86.953125 572.414062 C -96.96875 551.085938 -134.207031 515.882812 -143.195312 519.480469 C -153.722656 523.335938 -167.078125 568.300781 -163.484375 588.855469 C -159.886719 610.699219 -144.734375 632.796875 -125.730469 644.359375 C -119.566406 648.210938 -116.484375 653.867188 -109.808594 673.136719 C -102.875 692.921875 -72.3125 775.917969 -33.789062 878.699219 C -29.9375 889.746094 -27.113281 898.738281 -27.628906 898.738281 C -28.398438 898.738281 -38.414062 892.058594 -49.96875 883.835938 C -61.785156 875.355469 -79.761719 863.023438 -89.777344 856.34375 C -103.644531 847.347656 -108.523438 842.46875 -108.523438 838.355469 C -108.523438 827.050781 -117.257812 807.777344 -126.5 798.527344 C -140.882812 784.140625 -189.421875 769.75 -194.558594 777.972656 C -198.925781 785.167969 -195.84375 807.523438 -187.882812 823.453125 C -176.582031 846.835938 -157.0625 859.941406 -133.179688 860.195312 C -124.449219 860.195312 -121.109375 862.253906 -102.359375 880.496094 C -91.0625 891.546875 -62.554688 918.269531 -39.183594 939.59375 L 2.933594 978.652344 L 35.550781 1065.242188 C 53.527344 1112.777344 77.410156 1176.246094 88.96875 1206.308594 C 100.269531 1236.371094 109.769531 1262.582031 109.769531 1264.378906 C 109.769531 1266.4375 80.234375 1371.527344 44.28125 1497.691406 C 6.785156 1628.992188 -21.207031 1732.03125 -21.207031 1737.941406 C -21.207031 1760.039062 -2.203125 1775.96875 21.9375 1774.167969 C 33.496094 1773.398438 37.089844 1771.855469 45.050781 1763.890625 C 54.039062 1754.640625 54.296875 1754.128906 94.617188 1593.789062 C 116.960938 1505.144531 135.453125 1432.425781 135.964844 1432.167969 C 136.480469 1431.65625 155.738281 1416.496094 179.109375 1398.507812 C 202.480469 1380.265625 262.0625 1333.5 311.371094 1294.441406 C 360.9375 1255.386719 404.851562 1220.957031 408.960938 1217.871094 C 413.839844 1214.53125 428.480469 1209.90625 448.769531 1205.796875 C 466.488281 1202.199219 500.390625 1195.003906 524.015625 1190.121094 C 566.90625 1181.386719 567.160156 1181.386719 574.09375 1186.011719 C 593.871094 1199.886719 620.324219 1199.886719 643.179688 1186.011719 C 658.332031 1177.015625 672.199219 1162.882812 672.199219 1156.976562 C 672.199219 1154.917969 667.832031 1150.292969 662.695312 1146.695312 C 633.421875 1126.910156 599.261719 1128.195312 574.09375 1150.292969 C 565.621094 1157.488281 565.105469 1157.488281 521.960938 1159.289062 C 484.210938 1160.828125 478.816406 1160.570312 482.15625 1157.488281 C 487.035156 1152.863281 581.027344 1076.550781 641.382812 1028.242188 C 686.324219 992.269531 686.324219 992.011719 702.503906 990.472656 C 735.121094 987.128906 753.355469 974.027344 767.480469 944.21875 C 776.46875 924.949219 782.375 894.886719 777.75 890.261719 C 773.386719 885.890625 748.472656 886.917969 730.753906 892.058594 C 701.21875 900.539062 680.417969 924.949219 674.511719 957.839844 L 671.429688 975.566406 L 638.300781 997.664062 C 610.820312 1015.910156 605.425781 1018.734375 606.710938 1013.851562 C 607.226562 1010.511719 610.820312 986.101562 614.414062 959.636719 L 621.09375 911.332031 L 630.851562 902.335938 C 646.003906 888.976562 650.113281 878.183594 648.316406 857.371094 C 647.546875 847.863281 644.207031 834.246094 641.125 827.050781 C 636.5 816.257812 634.445312 813.945312 629.054688 813.945312 C 619.296875 813.945312 596.4375 837.84375 592.585938 852.488281 C 588.734375 866.363281 590.53125 886.40625 596.4375 898.996094 C 600.804688 907.988281 600.804688 908.246094 586.421875 952.957031 C 578.71875 977.367188 568.1875 1011.027344 563.050781 1027.214844 L 554.0625 1056.765625 L 517.339844 1082.460938 C 497.308594 1096.589844 446.199219 1132.820312 403.824219 1163.140625 C 283.121094 1249.476562 163.1875 1333.242188 161.902344 1332.214844 C 161.390625 1331.445312 178.855469 1260.011719 200.683594 1173.417969 C 222.511719 1086.570312 246.652344 991.242188 253.84375 961.691406 L 267.457031 907.734375 L 285.433594 891.03125 C 295.449219 881.78125 336.796875 843.238281 377.117188 805.722656 L 450.566406 737.375 L 511.945312 720.160156 C 545.589844 710.910156 600.804688 695.492188 634.191406 686.242188 L 695.054688 669.539062 L 707.382812 675.449219 C 725.875 684.441406 748.988281 683.929688 766.453125 674.164062 C 781.089844 666.199219 804.71875 643.84375 807.285156 635.621094 C 809.597656 628.683594 801.378906 622.519531 780.832031 616.09375 C 760.542969 609.925781 751.8125 609.671875 733.835938 615.066406 C 722.792969 618.40625 716.886719 622.519531 705.328125 634.335938 C 697.367188 642.558594 688.636719 649.496094 686.066406 649.496094 C 680.929688 649.496094 529.152344 674.164062 518.109375 676.734375 C 514.257812 677.503906 552.265625 638.191406 624.429688 566.757812 L 736.917969 455.5 L 754.378906 449.589844 C 775.953125 442.394531 792.648438 428.261719 800.09375 411.046875 C 806.515625 396.402344 811.394531 361.457031 808.570312 348.867188 C 807.027344 341.15625 805.746094 339.871094 798.554688 339.101562 C 788.539062 338.074219 766.964844 344.753906 754.378906 352.71875 C 730.496094 367.878906 720.222656 388.4375 719.195312 421.582031 L 718.683594 444.449219 L 679.390625 478.113281 C 657.816406 496.613281 639.328125 512.800781 638.300781 514.339844 C 637.273438 515.882812 636.246094 491.988281 636.246094 461.410156 C 636.246094 405.394531 634.960938 397.6875 627.257812 405.652344 C 623.917969 409.25 613.902344 452.417969 601.574219 516.910156 C 595.410156 550.058594 594.382812 552.882812 586.679688 559.308594 C 582.054688 562.90625 550.210938 590.398438 515.539062 619.949219 C 442.089844 683.15625 322.15625 785.167969 303.921875 799.8125 C 292.109375 809.320312 291.339844 809.578125 292.878906 803.667969 C 293.90625 800.070312 321.128906 691.636719 353.488281 562.90625 L 412.300781 328.566406 L 430.535156 304.671875 C 486.777344 231.695312 541.222656 158.207031 541.222656 155.125 C 541.222656 144.074219 531.71875 151.527344 481.640625 201.375 C 444.144531 238.890625 428.480469 253.023438 429.25 248.65625 C 430.277344 245.058594 436.441406 217.820312 443.375 187.757812 L 455.703125 133.285156 L 469.058594 120.4375 C 486.007812 103.992188 492.171875 90.117188 492.425781 69.816406 C 492.425781 44.894531 476.503906 1.984375 466.746094 -0.0742188 C 464.691406 -0.332031 459.296875 1.46875 455.1875 4.039062 Z M 455.1875 4.039062 " fill-opacity="1" fill-rule="nonzero"/></g><g clip-path="url(#36c65e4253)"><g clip-path="url(#3c8030046e)"><g transform="matrix(1, 0, 0, 1, 475, 662)"><g clip-path="url(#56484acac3)"><g clip-path="url(#50c20d8fc8)"><g clip-path="url(#73cfbdf50f)"><path fill="#000000" d="M 0.347656 0.0078125 L 23.847656 0.0078125 L 23.847656 23.507812 L 0.347656 23.507812 Z M 0.347656 0.0078125 " fill-opacity="1" fill-rule="nonzero"/></g></g></g></g></g></g></svg>