<svg xmlns="http://www.w3.org/2000/svg" xmlns:xlink="http://www.w3.org/1999/xlink" width="1080" zoomAndPan="magnify" viewBox="0 0 810 809.999993" height="1080" preserveAspectRatio="xMidYMid meet" version="1.0"><defs><clipPath id="c482626240"><path d="M 24.804688 94 L 260 94 L 260 773 L 24.804688 773 Z M 24.804688 94 " clip-rule="nonzero"/></clipPath><clipPath id="57bf8e9a5a"><path d="M 621 406 L 785.304688 406 L 785.304688 571 L 621 571 Z M 621 406 " clip-rule="nonzero"/></clipPath><clipPath id="6c813ac7d0"><path d="M 627.441406 660.28125 L 650.941406 660.28125 L 650.941406 683.78125 L 627.441406 683.78125 Z M 627.441406 660.28125 " clip-rule="nonzero"/></clipPath><clipPath id="545fa7ae60"><path d="M 639.191406 660.28125 C 632.703125 660.28125 627.441406 665.539062 627.441406 672.03125 C 627.441406 678.519531 632.703125 683.78125 639.191406 683.78125 C 645.679688 683.78125 650.941406 678.519531 650.941406 672.03125 C 650.941406 665.539062 645.679688 660.28125 639.191406 660.28125 Z M 639.191406 660.28125 " clip-rule="nonzero"/></clipPath><clipPath id="e5f501d71d"><path d="M 0.441406 0.28125 L 23.941406 0.28125 L 23.941406 23.78125 L 0.441406 23.78125 Z M 0.441406 0.28125 " clip-rule="nonzero"/></clipPath><clipPath id="5ef7cc781a"><path d="M 12.191406 0.28125 C 5.703125 0.28125 0.441406 5.539062 0.441406 12.03125 C 0.441406 18.519531 5.703125 23.78125 12.191406 23.78125 C 18.679688 23.78125 23.941406 18.519531 23.941406 12.03125 C 23.941406 5.539062 18.679688 0.28125 12.191406 0.28125 Z M 12.191406 0.28125 " clip-rule="nonzero"/></clipPath><clipPath id="900cc64c72"><rect x="0" width="24" y="0" height="24"/></clipPath></defs><path stroke-linecap="round" transform="matrix(19.854325, 0, 0, 19.851265, -64.585856, -71.43032)" fill="none" stroke-linejoin="round" d="M 22.316056 14.508907 C 16.762913 14.174979 12.500028 12.210959 12.500028 9.839022 C 12.500028 7.231939 17.649055 5.118959 24.000002 5.118959 C 30.350948 5.118959 35.499976 7.231939 35.499976 9.839022 C 35.499976 11.710951 32.846075 13.328055 28.998913 14.090955 " stroke="#000000" stroke-width="3" stroke-opacity="1" stroke-miterlimit="10"/><path stroke-linecap="round" transform="matrix(19.854325, 0, 0, 19.851265, -64.585856, -71.43032)" fill="none" stroke-linejoin="round" d="M 28.719927 14.154908 L 28.719927 23.999998 " stroke="#000000" stroke-width="3" stroke-opacity="1" stroke-miterlimit="10"/><path stroke-linecap="round" transform="matrix(19.854325, 0, 0, 19.851265, -64.585856, -71.43032)" fill="none" stroke-linejoin="round" d="M 21.264058 42.749984 C 22.134067 42.835975 23.042048 42.882021 23.976982 42.882021 C 30.340914 42.882021 35.499976 40.769041 35.499976 38.161958 L 35.499976 9.839022 " stroke="#000000" stroke-width="3" stroke-opacity="1" stroke-miterlimit="10"/><g clip-path="url(#c482626240)"><path stroke-linecap="round" transform="matrix(19.854325, 0, 0, 19.851265, -64.585856, -71.43032)" fill="none" stroke-linejoin="round" d="M 12.453989 9.839022 L 12.453989 19.909028 L 8.637912 16.991038 C 8.084074 16.566986 7.257939 16.783046 7.005908 17.417058 L 6.068022 19.778959 C 5.944072 20.092029 5.991095 20.443077 6.194923 20.715022 L 12.453989 29.090983 L 12.453989 38.160974 C 12.453989 39.236944 13.333048 40.229088 14.812968 41.023079 " stroke="#000000" stroke-width="3" stroke-opacity="1" stroke-miterlimit="10"/></g><g clip-path="url(#57bf8e9a5a)"><path stroke-linecap="round" transform="matrix(19.854325, 0, 0, 19.851265, -64.585856, -71.43032)" fill="none" stroke-linejoin="round" d="M 36.057946 30.823989 L 41.307904 25.573024 " stroke="#000000" stroke-width="3" stroke-opacity="1" stroke-miterlimit="10"/></g><g clip-path="url(#6c813ac7d0)"><g clip-path="url(#545fa7ae60)"><g transform="matrix(1, 0, 0, 1, 627, 660)"><g clip-path="url(#900cc64c72)"><g clip-path="url(#e5f501d71d)"><g clip-path="url(#5ef7cc781a)"><path fill="#000000" d="M 0.441406 0.28125 L 23.941406 0.28125 L 23.941406 23.78125 L 0.441406 23.78125 Z M 0.441406 0.28125 " fill-opacity="1" fill-rule="nonzero"/></g></g></g></g></g></g></svg>