<svg xmlns="http://www.w3.org/2000/svg" xmlns:xlink="http://www.w3.org/1999/xlink" width="1080" zoomAndPan="magnify" viewBox="0 0 810 809.999993" height="1080" preserveAspectRatio="xMidYMid meet" version="1.0"><defs><clipPath id="6f426a0c0d"><path d="M 61.59375 0 L 748.59375 0 L 748.59375 810 L 61.59375 810 Z M 61.59375 0 " clip-rule="nonzero"/></clipPath><clipPath id="e086c98866"><path d="M 492.628906 447.691406 L 516.128906 447.691406 L 516.128906 471.191406 L 492.628906 471.191406 Z M 492.628906 447.691406 " clip-rule="nonzero"/></clipPath><clipPath id="8f8d7dee90"><path d="M 504.378906 447.691406 C 497.890625 447.691406 492.628906 452.953125 492.628906 459.441406 C 492.628906 465.933594 497.890625 471.191406 504.378906 471.191406 C 510.871094 471.191406 516.128906 465.933594 516.128906 459.441406 C 516.128906 452.953125 510.871094 447.691406 504.378906 447.691406 Z M 504.378906 447.691406 " clip-rule="nonzero"/></clipPath><clipPath id="dc8a4927b4"><path d="M 0.628906 0.691406 L 24.128906 0.691406 L 24.128906 24.191406 L 0.628906 24.191406 Z M 0.628906 0.691406 " clip-rule="nonzero"/></clipPath><clipPath id="e820df7106"><path d="M 12.378906 0.691406 C 5.890625 0.691406 0.628906 5.953125 0.628906 12.441406 C 0.628906 18.933594 5.890625 24.191406 12.378906 24.191406 C 18.871094 24.191406 24.128906 18.933594 24.128906 12.441406 C 24.128906 5.953125 18.871094 0.691406 12.378906 0.691406 Z M 12.378906 0.691406 " clip-rule="nonzero"/></clipPath><clipPath id="7be215b216"><rect x="0" width="25" y="0" height="25"/></clipPath></defs><g clip-path="url(#6f426a0c0d)"><path fill="#070707" d="M 661.492188 39.25 L 569.496094 124.917969 C 569.363281 125.035156 569.230469 125.148438 569.097656 125.25 C 569.0625 125.300781 569.046875 125.316406 569.011719 125.316406 C 568.78125 125.53125 568.53125 125.714844 568.28125 125.863281 C 568.015625 126.078125 567.734375 126.246094 567.453125 126.378906 C 567.171875 126.542969 566.890625 126.695312 566.589844 126.792969 C 565.976562 127.058594 565.363281 127.257812 564.714844 127.375 C 563.386719 127.65625 562.007812 127.65625 560.695312 127.375 C 559.75 127.191406 558.835938 126.859375 557.972656 126.378906 C 557.144531 125.949219 556.363281 125.367188 555.667969 124.652344 C 555.585938 124.585938 555.5 124.503906 555.417969 124.421875 C 555.269531 124.273438 555.136719 124.105469 555.019531 123.941406 C 554.589844 123.457031 554.238281 122.925781 553.957031 122.378906 C 553.941406 122.363281 553.921875 122.328125 553.921875 122.296875 C 553.773438 122.082031 553.675781 121.847656 553.574219 121.601562 C 553.542969 121.550781 553.523438 121.503906 553.507812 121.453125 C 553.375 121.171875 553.277344 120.871094 553.191406 120.574219 C 553.09375 120.308594 553.027344 120.027344 552.976562 119.742188 C 552.894531 119.378906 552.828125 118.996094 552.792969 118.632812 C 552.761719 118.300781 552.746094 117.96875 552.746094 117.636719 L 552.746094 0.136719 L 456.945312 0.136719 L 456.945312 216.09375 C 456.945312 221.601562 452.480469 226.050781 446.984375 226.050781 C 441.476562 226.050781 437.023438 221.605469 437.023438 216.09375 L 437.023438 0.136719 L 316.757812 0.136719 L 316.757812 108.289062 C 316.757812 113.78125 312.292969 118.246094 306.796875 118.246094 C 301.285156 118.246094 296.835938 113.78125 296.835938 108.289062 L 296.835938 0.136719 L 176.566406 0.136719 L 176.566406 216.09375 C 176.566406 221.601562 172.101562 226.050781 166.605469 226.050781 C 161.097656 226.050781 156.644531 221.605469 156.644531 216.09375 L 156.644531 0.136719 L 61.515625 0.136719 L 61.515625 809.863281 L 156.652344 809.863281 L 156.652344 594.605469 C 156.652344 589.113281 161.097656 584.648438 166.613281 584.648438 C 172.105469 584.648438 176.574219 589.113281 176.574219 594.605469 L 176.574219 809.863281 L 296.839844 809.863281 L 296.839844 702.425781 C 296.839844 696.914062 301.289062 692.46875 306.800781 692.46875 C 312.296875 692.46875 316.761719 696.914062 316.761719 702.425781 L 316.761719 809.863281 L 437.03125 809.863281 L 437.03125 594.605469 C 437.03125 589.113281 441.476562 584.648438 446.992188 584.648438 C 452.484375 584.648438 456.953125 589.113281 456.953125 594.605469 L 456.953125 809.863281 L 552.75 809.863281 L 552.75 328.144531 C 552.75 327.464844 552.832031 326.785156 552.949219 326.121094 C 553.015625 325.789062 553.097656 325.457031 553.214844 325.140625 C 553.296875 324.824219 553.414062 324.511719 553.5625 324.195312 C 553.695312 323.878906 553.847656 323.566406 554.027344 323.265625 C 554.195312 322.96875 554.378906 322.667969 554.59375 322.386719 C 554.777344 322.105469 554.992188 321.824219 555.242188 321.558594 C 555.472656 321.277344 555.738281 321.027344 556.003906 320.792969 L 556.386719 320.445312 L 748.515625 145.046875 Z M 301.203125 554.875 C 260.851562 554.875 229.242188 494.847656 229.242188 418.242188 C 229.242188 341.621094 260.851562 281.613281 301.203125 281.613281 C 341.558594 281.613281 373.183594 341.621094 373.183594 418.242188 C 373.183594 494.847656 341.558594 554.875 301.203125 554.875 Z M 301.203125 554.875 " fill-opacity="1" fill-rule="nonzero"/></g><path fill="#070707" d="M 353.261719 418.242188 C 353.261719 450.589844 347.167969 480.84375 336.113281 503.429688 C 326.304688 523.460938 313.585938 534.960938 301.203125 534.960938 C 288.835938 534.960938 276.121094 523.457031 266.308594 503.429688 C 255.253906 480.84375 249.160156 450.589844 249.160156 418.242188 C 249.160156 385.882812 255.253906 355.628906 266.308594 333.042969 C 276.121094 313.011719 288.835938 301.527344 301.203125 301.527344 C 313.585938 301.527344 326.300781 313.011719 336.113281 333.042969 C 347.167969 355.628906 353.261719 385.882812 353.261719 418.242188 Z M 353.261719 418.242188 " fill-opacity="1" fill-rule="nonzero"/><g clip-path="url(#e086c98866)"><g clip-path="url(#8f8d7dee90)"><g transform="matrix(1, 0, 0, 1, 492, 447)"><g clip-path="url(#7be215b216)"><g clip-path="url(#dc8a4927b4)"><g clip-path="url(#e820df7106)"><path fill="#000000" d="M 0.628906 0.691406 L 24.128906 0.691406 L 24.128906 24.191406 L 0.628906 24.191406 Z M 0.628906 0.691406 " fill-opacity="1" fill-rule="nonzero"/></g></g></g></g></g></g></svg>