<svg xmlns="http://www.w3.org/2000/svg" xmlns:xlink="http://www.w3.org/1999/xlink" width="1080" zoomAndPan="magnify" viewBox="0 0 810 809.999993" height="1080" preserveAspectRatio="xMidYMid meet" version="1.0"><defs><clipPath id="4737054e82"><path d="M 265.617188 467.257812 L 282.992188 467.257812 L 282.992188 484.636719 L 265.617188 484.636719 Z M 265.617188 467.257812 " clip-rule="nonzero"/></clipPath><clipPath id="eadcfeb899"><path d="M 274.304688 467.257812 C 269.503906 467.257812 265.617188 471.148438 265.617188 475.945312 C 265.617188 480.746094 269.503906 484.636719 274.304688 484.636719 C 279.101562 484.636719 282.992188 480.746094 282.992188 475.945312 C 282.992188 471.148438 279.101562 467.257812 274.304688 467.257812 Z M 274.304688 467.257812 " clip-rule="nonzero"/></clipPath><clipPath id="c360b29bb1"><path d="M 0.617188 0.257812 L 17.992188 0.257812 L 17.992188 17.636719 L 0.617188 17.636719 Z M 0.617188 0.257812 " clip-rule="nonzero"/></clipPath><clipPath id="016f2da251"><path d="M 9.304688 0.257812 C 4.503906 0.257812 0.617188 4.148438 0.617188 8.945312 C 0.617188 13.746094 4.503906 17.636719 9.304688 17.636719 C 14.101562 17.636719 17.992188 13.746094 17.992188 8.945312 C 17.992188 4.148438 14.101562 0.257812 9.304688 0.257812 Z M 9.304688 0.257812 " clip-rule="nonzero"/></clipPath><clipPath id="118abd3c23"><rect x="0" width="18" y="0" height="18"/></clipPath></defs><path fill="#000000" d="M 211.464844 71.828125 C 243.582031 79.425781 265.320312 104.964844 280.304688 135.839844 C 278.722656 117.816406 264.148438 96.714844 254.316406 85.199219 C 232.90625 60.011719 198.71875 49.148438 170.0625 36.597656 C 177.90625 66.984375 182.945312 102.351562 204.382812 127.644531 C 212.636719 137.285156 225.441406 149.726562 238.980469 156.941406 C 230.453125 134.261719 218.332031 111.636719 200.082031 88.21875 C 196.59375 83.671875 197.355469 77.113281 201.90625 73.546875 C 204.738281 71.367188 208.359375 70.824219 211.464844 71.828125 Z M 292.507812 166.089844 C 298.71875 184.605469 303.128906 203.527344 306.425781 220.410156 C 307.1875 219.238281 307.980469 218.09375 308.742188 216.953125 C 308.359375 206.605469 311.300781 195.960938 315.960938 185.992188 C 322.796875 171.371094 333.367188 157.839844 341.566406 148.910156 C 374.964844 112.699219 427.046875 106.707031 452.953125 90.371094 C 461.886719 84.734375 472.675781 94.617188 467.742188 103.984375 C 453.171875 131.921875 451.753906 183.570312 418.464844 219.675781 C 402.613281 236.855469 373.246094 261.222656 345.570312 257.601562 C 332.222656 277.125 320.074219 297.382812 320.5625 303.835938 C 321.816406 319.515625 322.6875 334.464844 323.289062 348.839844 L 390.109375 348.839844 C 405.960938 348.839844 418.929688 361.71875 418.929688 377.59375 L 418.929688 417.261719 C 418.929688 429.488281 411.054688 440.269531 399.832031 444.300781 L 399.832031 524.023438 C 399.832031 541.472656 407.949219 547.464844 416.394531 559.117188 L 520.535156 692.777344 C 565.699219 750.714844 537.640625 809.910156 459.597656 809.910156 L 105.882812 809.910156 C 27.867188 809.910156 -0.21875 750.714844 44.972656 692.777344 L 157.230469 548.691406 C 162.980469 541.339844 165.648438 533.414062 165.648438 524.050781 L 165.648438 444.328125 C 154.398438 440.296875 146.554688 429.515625 146.554688 417.261719 L 146.554688 377.621094 C 146.554688 361.746094 159.519531 348.867188 175.320312 348.867188 L 271.941406 348.867188 C 270.578125 316.847656 251.484375 296.539062 222.089844 278.621094 C 201.140625 292.535156 168.261719 282.867188 149.332031 274.320312 C 110.839844 256.921875 92.5625 216.898438 71.996094 200.097656 C 63.851562 193.425781 69.460938 179.703125 80.902344 181.828125 C 104.65625 185.777344 148.730469 173.25 187.140625 190.566406 C 202.585938 197.539062 223.015625 210.171875 232.796875 226.644531 C 242.195312 228.714844 250.636719 231.679688 258.375 235.683594 C 255.324219 217.332031 251.945312 199.636719 247.179688 182.183594 C 224.132812 177.144531 201.90625 156.886719 188.449219 141.125 C 155.597656 102.433594 156.386719 49.203125 142.441406 19.714844 C 137.945312 10.214844 148.976562 0.386719 158.15625 6.972656 C 182.972656 24.261719 237.371094 33.113281 270.25 71.722656 C 288.558594 93.203125 315.632812 136.523438 292.507812 166.089844 Z M 339.851562 185.640625 C 356.710938 173.878906 376.324219 166.851562 396.15625 168.542969 C 404.898438 169.277344 409.230469 179.949219 402.3125 186.648438 C 390.515625 198.953125 375.589844 216.84375 361.695312 235.25 C 377.550781 230.128906 393.730469 215.699219 403.101562 205.542969 C 424.648438 182.15625 430.96875 148.476562 439.632812 119.640625 C 397.410156 136.03125 365.402344 143.191406 339.851562 185.640625 Z M 323.941406 369.722656 C 324.378906 389.4375 324.242188 407.871094 323.585938 425.050781 L 390.109375 425.050781 C 394.414062 425.050781 397.953125 421.511719 397.953125 417.261719 L 397.953125 377.59375 C 397.953125 373.292969 394.414062 369.722656 390.109375 369.722656 Z M 322.605469 445.988281 C 318.792969 508.53125 308.851562 553.671875 299.453125 587.054688 C 309.53125 584.574219 319.121094 579.785156 327.484375 572.730469 C 343.882812 558.84375 364.339844 551.492188 385.3125 551.386719 C 380.957031 542.890625 378.859375 533.796875 378.859375 524.023438 L 378.859375 445.988281 Z M 292.859375 609.433594 C 289.128906 621.523438 284.0625 636.960938 281.9375 646.597656 C 270.035156 701.027344 220.621094 689.808594 233.503906 644.503906 C 237.644531 629.800781 241.511719 615.613281 245.027344 601.730469 C 237.753906 598.378906 230.890625 594.023438 224.515625 588.660156 C 215.578125 581.089844 205.203125 576.160156 194.414062 573.847656 C 184.335938 571.667969 173.875 571.75 163.824219 574.121094 L 61.371094 705.628906 C 43.9375 728.007812 35.085938 758.066406 58.265625 776.121094 C 68.589844 784.152344 84.5 789 105.910156 789 L 459.597656 789 C 489.917969 789 521.242188 778.1875 521.242188 747.558594 C 521.242188 734.871094 515.605469 720.359375 504.136719 705.628906 L 401.6875 574.121094 C 391.660156 571.75 381.199219 571.667969 371.09375 573.847656 C 360.335938 576.160156 349.957031 581.089844 340.996094 588.660156 C 326.910156 600.613281 310.105469 607.527344 292.859375 609.433594 Z M 250.066406 580.953125 C 260.824219 535.074219 267.882812 491.785156 271.070312 446.015625 L 186.625 446.015625 L 186.625 524.050781 C 186.625 533.824219 184.527344 542.917969 180.167969 551.414062 C 201.140625 551.519531 221.574219 558.871094 238 572.757812 C 241.8125 575.945312 245.84375 578.667969 250.066406 580.953125 Z M 272.183594 425.050781 C 272.949219 407.132812 273.085938 388.757812 272.621094 369.722656 L 175.320312 369.722656 C 171.070312 369.722656 167.527344 373.292969 167.527344 377.59375 L 167.527344 417.261719 C 167.527344 421.808594 171.015625 425.050781 176.109375 425.050781 Z M 196.648438 264.761719 C 178.996094 256.078125 169.164062 251.964844 149.140625 242.816406 C 139.199219 238.324219 142.167969 223.351562 153.144531 222.96875 C 171.097656 222.261719 186.894531 222.015625 200.953125 222.722656 C 193.542969 217.035156 185.125 212.539062 178.558594 209.574219 C 155.488281 199.144531 127.703125 202.167969 103.429688 203.148438 C 118.824219 222.015625 134.757812 244.777344 157.9375 255.261719 C 167.828125 259.726562 183.328125 265.0625 196.648438 264.761719 Z M 268.234375 160.398438 C 261.808594 143.953125 253.714844 128.542969 243.472656 116.347656 C 267.746094 161.246094 274.609375 204.371094 282.183594 252.238281 C 283.027344 257.382812 284.445312 262.011719 280.058594 266.421875 C 276 270.453125 269.378906 270.425781 265.320312 266.371094 C 248.023438 249.023438 224.839844 244.886719 200.789062 243.578125 C 250.148438 267.242188 290.382812 293.976562 292.75 346.636719 L 292.859375 348.867188 L 302.339844 348.867188 C 301.742188 335.007812 300.898438 320.605469 299.726562 305.496094 C 297.898438 281.96875 349.328125 216.132812 368.015625 193.863281 C 342.65625 204.183594 318.195312 231.601562 312.175781 258.363281 L 312.121094 258.363281 C 309.640625 269.472656 293.433594 268.984375 291.664062 257.65625 C 288.011719 233.996094 281.773438 195.035156 268.234375 160.398438 Z M 293.542969 369.722656 C 293.921875 388.730469 293.785156 407.082031 293.050781 425.050781 L 302.695312 425.050781 C 303.265625 407.898438 303.457031 389.492188 303.019531 369.722656 Z M 291.960938 445.988281 C 288.746094 494.152344 281.230469 539.785156 269.871094 587.898438 C 272.292969 588.386719 274.773438 588.6875 277.226562 588.90625 C 286.8125 556.042969 297.601562 510.652344 301.632812 445.988281 Z M 264.886719 608.261719 C 261.453125 621.847656 257.667969 635.761719 253.605469 650.140625 C 252.082031 655.53125 251.726562 659.261719 252.246094 661.4375 C 255.597656 658.988281 259.21875 652.808594 261.535156 642.1875 C 263.496094 633.121094 267.363281 621.03125 271.070312 609.269531 C 269 609 266.957031 608.644531 264.886719 608.261719 Z M 264.886719 608.261719 " fill-opacity="1" fill-rule="nonzero"/><g clip-path="url(#4737054e82)"><g clip-path="url(#eadcfeb899)"><g transform="matrix(1, 0, 0, 1, 265, 467)"><g clip-path="url(#118abd3c23)"><g clip-path="url(#c360b29bb1)"><g clip-path="url(#016f2da251)"><path fill="#000000" d="M 0.617188 0.257812 L 17.992188 0.257812 L 17.992188 17.636719 L 0.617188 17.636719 Z M 0.617188 0.257812 " fill-opacity="1" fill-rule="nonzero"/></g></g></g></g></g></g></svg>