<svg xmlns="http://www.w3.org/2000/svg" xmlns:xlink="http://www.w3.org/1999/xlink" width="1080" zoomAndPan="magnify" viewBox="0 0 810 809.999993" height="1080" preserveAspectRatio="xMidYMid meet" version="1.0"><defs><clipPath id="0de9745d28"><path d="M 0 0.613281 L 810 0.613281 L 810 783.578125 L 0 783.578125 Z M 0 0.613281 " clip-rule="nonzero"/></clipPath><clipPath id="a0a9b8ed28"><path d="M 405 0.613281 L 810 783.578125 L 0 783.578125 Z M 405 0.613281 " clip-rule="nonzero"/></clipPath><clipPath id="c2b74c5be5"><path d="M 0 0.613281 L 810 0.613281 L 810 783.578125 L 0 783.578125 Z M 0 0.613281 " clip-rule="nonzero"/></clipPath><clipPath id="bb9df5684c"><path d="M 405 0.613281 L 810 783.578125 L 0 783.578125 Z M 405 0.613281 " clip-rule="nonzero"/></clipPath><clipPath id="d001165bb0"><rect x="0" width="810" y="0" height="784"/></clipPath><clipPath id="ce6dc9f02e"><path d="M 49 74.828125 L 747 74.828125 L 747 783.578125 L 49 783.578125 Z M 49 74.828125 " clip-rule="nonzero"/></clipPath><clipPath id="69edd2df4a"><path d="M 314.570312 299.484375 L 481.242188 299.484375 L 481.242188 729 L 314.570312 729 Z M 314.570312 299.484375 " clip-rule="nonzero"/></clipPath><clipPath id="df2e358c0d"><path d="M 0.570312 0.484375 L 167.242188 0.484375 L 167.242188 430 L 0.570312 430 Z M 0.570312 0.484375 " clip-rule="nonzero"/></clipPath><clipPath id="1968753a8c"><rect x="0" width="168" y="0" height="430"/></clipPath><clipPath id="a063406eee"><path d="M 244.753906 471.441406 L 565.753906 471.441406 L 565.753906 763.191406 L 244.753906 763.191406 Z M 244.753906 471.441406 " clip-rule="nonzero"/></clipPath><clipPath id="b2f862cc48"><path d="M 281.167969 274.097656 L 295.164062 274.097656 L 295.164062 288.09375 L 281.167969 288.09375 Z M 281.167969 274.097656 " clip-rule="nonzero"/></clipPath><clipPath id="9382d5212d"><path d="M 288.164062 274.097656 C 284.300781 274.097656 281.167969 277.230469 281.167969 281.097656 C 281.167969 284.960938 284.300781 288.09375 288.164062 288.09375 C 292.03125 288.09375 295.164062 284.960938 295.164062 281.097656 C 295.164062 277.230469 292.03125 274.097656 288.164062 274.097656 Z M 288.164062 274.097656 " clip-rule="nonzero"/></clipPath><clipPath id="c01c815d8d"><path d="M 0.167969 0.0976562 L 14.164062 0.0976562 L 14.164062 14.09375 L 0.167969 14.09375 Z M 0.167969 0.0976562 " clip-rule="nonzero"/></clipPath><clipPath id="a24b54d5dd"><path d="M 7.164062 0.0976562 C 3.300781 0.0976562 0.167969 3.230469 0.167969 7.097656 C 0.167969 10.960938 3.300781 14.09375 7.164062 14.09375 C 11.03125 14.09375 14.164062 10.960938 14.164062 7.097656 C 14.164062 3.230469 11.03125 0.0976562 7.164062 0.0976562 Z M 7.164062 0.0976562 " clip-rule="nonzero"/></clipPath><clipPath id="b794a8ba0d"><rect x="0" width="15" y="0" height="15"/></clipPath></defs><g clip-path="url(#0de9745d28)"><g clip-path="url(#a0a9b8ed28)"><g transform="matrix(1, 0, 0, 1, 0, 0.000000000000039746)"><g clip-path="url(#d001165bb0)"><g clip-path="url(#c2b74c5be5)"><g clip-path="url(#bb9df5684c)"><path fill="#ffffff" d="M 0 0.613281 L 810.492188 0.613281 L 810.492188 783.578125 L 0 783.578125 Z M 0 0.613281 " fill-opacity="1" fill-rule="nonzero"/></g></g></g></g></g></g><g clip-path="url(#ce6dc9f02e)"><path fill="#000000" d="M 741.4375 715.273438 L 428.28125 93.488281 C 422.480469 81.976562 410.816406 74.828125 397.835938 74.828125 C 384.855469 74.828125 373.191406 81.976562 367.394531 93.488281 L 54.234375 715.269531 C 46.839844 729.917969 47.554688 747.015625 56.15625 760.992188 C 64.851562 775.128906 79.992188 783.566406 96.65625 783.566406 L 699.015625 783.566406 C 715.679688 783.566406 730.820312 775.128906 739.515625 760.992188 C 748.113281 747.015625 748.835938 729.921875 741.4375 715.273438 Z M 676.34375 722.28125 C 669.707031 733.042969 658.148438 739.472656 645.410156 739.472656 L 150.25 739.472656 C 137.519531 739.472656 125.953125 733.042969 119.316406 722.28125 C 112.765625 711.644531 112.203125 698.648438 117.8125 687.492188 L 377.433594 172.066406 C 381.367188 164.230469 388.996094 159.550781 397.824219 159.550781 C 406.65625 159.550781 414.28125 164.230469 418.226562 172.074219 L 677.839844 687.488281 C 683.457031 698.640625 682.894531 711.644531 676.34375 722.28125 Z M 676.34375 722.28125 " fill-opacity="1" fill-rule="nonzero"/></g><path fill="#000000" d="M 450.3125 308.085938 L 345.363281 308.085938 C 343.777344 308.085938 342.269531 308.753906 341.199219 309.925781 C 340.132812 311.101562 339.609375 312.664062 339.761719 314.246094 L 369.738281 627.894531 C 370.011719 630.785156 372.4375 632.984375 375.339844 632.984375 L 420.332031 632.984375 C 423.234375 632.984375 425.65625 630.78125 425.9375 627.894531 L 455.914062 314.238281 C 456.066406 312.664062 455.542969 311.09375 454.472656 309.917969 C 453.40625 308.753906 451.898438 308.085938 450.3125 308.085938 Z M 450.3125 308.085938 " fill-opacity="1" fill-rule="nonzero"/><path fill="#000000" d="M 418.027344 653.910156 L 377.644531 653.910156 C 374.542969 653.910156 372.019531 656.425781 372.019531 659.535156 L 372.019531 699.75 C 372.019531 702.859375 374.542969 705.375 377.644531 705.375 L 418.027344 705.375 C 421.132812 705.375 423.652344 702.859375 423.652344 699.75 L 423.652344 659.535156 C 423.652344 656.429688 421.132812 653.910156 418.027344 653.910156 Z M 418.027344 653.910156 " fill-opacity="1" fill-rule="nonzero"/><g clip-path="url(#69edd2df4a)"><g transform="matrix(1, 0, 0, 1, 314, 299)"><g clip-path="url(#1968753a8c)"><g clip-path="url(#df2e358c0d)"><path fill="#ffffff" d="M 0.570312 0.484375 L 167.242188 0.484375 L 167.242188 430.1875 L 0.570312 430.1875 Z M 0.570312 0.484375 " fill-opacity="1" fill-rule="nonzero"/></g></g></g></g><g clip-path="url(#a063406eee)"><path fill="#000000" d="M 558.5625 500.292969 C 519.691406 500.292969 464.777344 503.546875 436.714844 531.597656 C 424.566406 543.75 418.5 563.558594 420.074219 585.980469 C 420.277344 588.941406 422.246094 591.464844 425.078125 592.398438 C 427.890625 593.316406 430.984375 592.457031 432.910156 590.195312 C 448.515625 571.832031 467.914062 557.113281 490.609375 546.449219 C 492.535156 545.53125 494.808594 545.457031 496.882812 546.1875 C 498.703125 546.84375 500.132812 548.082031 500.878906 549.671875 C 502.421875 552.941406 501.925781 557.242188 496.792969 559.664062 C 496.5 559.8125 496.238281 560 495.949219 560.132812 C 495.84375 560.175781 495.730469 560.160156 495.640625 560.203125 C 439.722656 586.492188 412.226562 632.355469 399.742188 679.515625 C 390.640625 620.464844 371.417969 585.703125 353.257812 564.363281 C 340.117188 547.324219 327.195312 538.292969 319.726562 533.1875 C 318.339844 532.238281 314.15625 529.382812 312.417969 527.644531 C 309.574219 524.800781 309.574219 520.175781 312.417969 517.332031 C 315.261719 514.5 319.902344 514.5 323.066406 517.652344 C 323.839844 518.339844 325.078125 519.214844 326.65625 520.265625 L 327.953125 521.140625 C 338.511719 528.375 358.171875 541.808594 375.617188 570.738281 C 377.179688 573.320312 380.199219 574.703125 383.128906 574.148438 C 386.105469 573.625 388.4375 571.335938 389.023438 568.375 C 392.828125 548.929688 391.121094 520.074219 373.78125 502.730469 C 345.71875 474.691406 290.804688 471.441406 251.949219 471.441406 C 247.921875 471.441406 244.65625 474.707031 244.65625 478.734375 C 244.65625 517.609375 247.90625 572.53125 275.957031 600.597656 C 287.652344 612.296875 305.695312 617.546875 323.621094 617.546875 C 338.25 617.546875 352.585938 613.886719 363.570312 607.539062 C 378.550781 638.582031 390.507812 684.957031 390.507812 755.894531 C 390.507812 759.921875 393.777344 763.191406 397.800781 763.191406 C 401.828125 763.191406 405.09375 759.921875 405.09375 755.894531 C 405.09375 716.320312 411.878906 668.824219 437.09375 629.726562 C 447.203125 639.605469 464.601562 645.863281 483.886719 646.445312 C 484.847656 646.476562 485.796875 646.488281 486.746094 646.488281 C 506.332031 646.488281 523.644531 640.347656 534.539062 629.4375 C 562.601562 601.371094 565.839844 546.449219 565.839844 507.574219 C 565.855469 503.546875 562.601562 500.292969 558.5625 500.292969 Z M 558.5625 500.292969 " fill-opacity="1" fill-rule="nonzero"/></g><g clip-path="url(#b2f862cc48)"><g clip-path="url(#9382d5212d)"><g transform="matrix(1, 0, 0, 1, 281, 274)"><g clip-path="url(#b794a8ba0d)"><g clip-path="url(#c01c815d8d)"><g clip-path="url(#a24b54d5dd)"><path fill="#2f2f2f" d="M 0.167969 0.0976562 L 14.164062 0.0976562 L 14.164062 14.09375 L 0.167969 14.09375 Z M 0.167969 0.0976562 " fill-opacity="1" fill-rule="nonzero"/></g></g></g></g></g></g></svg>