<svg xmlns="http://www.w3.org/2000/svg" xmlns:xlink="http://www.w3.org/1999/xlink" width="1080" zoomAndPan="magnify" viewBox="0 0 810 809.999993" height="1080" preserveAspectRatio="xMidYMid meet" version="1.0"><defs><clipPath id="659e55a321"><path d="M 273.453125 461.621094 L 290.832031 461.621094 L 290.832031 479 L 273.453125 479 Z M 273.453125 461.621094 " clip-rule="nonzero"/></clipPath><clipPath id="6d353f889a"><path d="M 282.140625 461.621094 C 277.34375 461.621094 273.453125 465.511719 273.453125 470.3125 C 273.453125 475.109375 277.34375 479 282.140625 479 C 286.941406 479 290.832031 475.109375 290.832031 470.3125 C 290.832031 465.511719 286.941406 461.621094 282.140625 461.621094 Z M 282.140625 461.621094 " clip-rule="nonzero"/></clipPath><clipPath id="aca550cad7"><path d="M 0.453125 0.621094 L 17.832031 0.621094 L 17.832031 18 L 0.453125 18 Z M 0.453125 0.621094 " clip-rule="nonzero"/></clipPath><clipPath id="91af45c2c4"><path d="M 9.140625 0.621094 C 4.34375 0.621094 0.453125 4.511719 0.453125 9.3125 C 0.453125 14.109375 4.34375 18 9.140625 18 C 13.941406 18 17.832031 14.109375 17.832031 9.3125 C 17.832031 4.511719 13.941406 0.621094 9.140625 0.621094 Z M 9.140625 0.621094 " clip-rule="nonzero"/></clipPath><clipPath id="777e816d79"><rect x="0" width="18" y="0" height="18"/></clipPath></defs><path fill="#000000" d="M 784.265625 501.753906 L 537.125 75.46875 C 509.757812 28.207031 460.734375 0 406.167969 0 C 351.601562 0 302.660156 28.207031 275.207031 75.46875 L 28.066406 501.671875 C 0.617188 549.101562 0.449219 605.679688 27.816406 653.195312 C 55.183594 700.625 104.207031 729 159.027344 729 L 653.308594 729 C 708.125 729 757.152344 700.710938 784.433594 653.195312 C 811.800781 605.765625 811.71875 549.101562 784.265625 501.753906 Z M 740.363281 627.84375 C 722.230469 659.324219 689.65625 678.128906 653.308594 678.128906 L 159.027344 678.128906 C 122.675781 678.128906 90.105469 659.324219 71.972656 627.757812 C 53.839844 596.277344 53.921875 558.671875 72.140625 527.191406 L 319.28125 100.90625 C 337.496094 69.507812 369.984375 50.789062 406.167969 50.789062 C 442.347656 50.789062 474.921875 69.507812 493.050781 100.90625 L 740.277344 527.273438 C 758.496094 558.671875 758.496094 596.277344 740.363281 627.84375 Z M 740.363281 627.84375 " fill-opacity="1" fill-rule="nonzero"/><path fill="#000000" d="M 456.367188 122.226562 C 433.953125 83.613281 378.296875 83.613281 355.882812 122.226562 L 108.824219 548.511719 C 86.410156 587.210938 114.28125 635.734375 159.027344 635.734375 L 653.308594 635.734375 C 698.050781 635.734375 726.007812 587.210938 703.507812 548.511719 Z M 404.570312 206.511719 C 423.628906 205.671875 439.746094 220.363281 440.667969 239.417969 C 440.753906 240.425781 440.753906 241.601562 440.667969 242.609375 L 432.273438 426.035156 C 431.601562 440.386719 419.429688 451.554688 404.992188 450.882812 C 391.476562 450.292969 380.816406 439.296875 380.144531 426.035156 L 371.75 242.609375 C 370.824219 223.550781 385.515625 207.433594 404.570312 206.511719 Z M 406.167969 565.972656 C 384.507812 565.972656 366.964844 548.429688 366.964844 526.769531 C 366.964844 505.113281 384.507812 487.566406 406.167969 487.566406 C 427.824219 487.566406 445.371094 505.113281 445.371094 526.769531 C 445.371094 548.429688 427.824219 565.972656 406.167969 565.972656 Z M 406.167969 565.972656 " fill-opacity="1" fill-rule="nonzero"/><g clip-path="url(#659e55a321)"><g clip-path="url(#6d353f889a)"><g transform="matrix(1, 0, 0, 1, 273, 461)"><g clip-path="url(#777e816d79)"><g clip-path="url(#aca550cad7)"><g clip-path="url(#91af45c2c4)"><path fill="#000000" d="M 0.453125 0.621094 L 17.832031 0.621094 L 17.832031 18 L 0.453125 18 Z M 0.453125 0.621094 " fill-opacity="1" fill-rule="nonzero"/></g></g></g></g></g></g></svg>