<svg xmlns="http://www.w3.org/2000/svg" xmlns:xlink="http://www.w3.org/1999/xlink" width="1080" zoomAndPan="magnify" viewBox="0 0 810 809.999993" height="1080" preserveAspectRatio="xMidYMid meet" version="1.0"><defs><clipPath id="57b22a7851"><path d="M 0 0.613281 L 810 0.613281 L 810 783.578125 L 0 783.578125 Z M 0 0.613281 " clip-rule="nonzero"/></clipPath><clipPath id="5663739226"><path d="M 405 0.613281 L 810 783.578125 L 0 783.578125 Z M 405 0.613281 " clip-rule="nonzero"/></clipPath><clipPath id="d8fc2719e6"><path d="M 0 0.613281 L 810 0.613281 L 810 783.578125 L 0 783.578125 Z M 0 0.613281 " clip-rule="nonzero"/></clipPath><clipPath id="e71f8f1e76"><path d="M 405 0.613281 L 810 783.578125 L 0 783.578125 Z M 405 0.613281 " clip-rule="nonzero"/></clipPath><clipPath id="281cc91496"><rect x="0" width="810" y="0" height="784"/></clipPath><clipPath id="c2929afec4"><path d="M 49 74.828125 L 747 74.828125 L 747 783.578125 L 49 783.578125 Z M 49 74.828125 " clip-rule="nonzero"/></clipPath><clipPath id="e603085b56"><path d="M 314.570312 299.484375 L 481.242188 299.484375 L 481.242188 729 L 314.570312 729 Z M 314.570312 299.484375 " clip-rule="nonzero"/></clipPath><clipPath id="e722ec5bcb"><path d="M 0.570312 0.484375 L 167.242188 0.484375 L 167.242188 430 L 0.570312 430 Z M 0.570312 0.484375 " clip-rule="nonzero"/></clipPath><clipPath id="5aacbc9f1c"><rect x="0" width="168" y="0" height="430"/></clipPath><clipPath id="6c004ba98e"><path d="M 218.496094 325.164062 L 553 325.164062 L 553 765.816406 L 218.496094 765.816406 Z M 218.496094 325.164062 " clip-rule="nonzero"/></clipPath><clipPath id="9c9c1f3901"><path d="M 314.570312 214.726562 L 328.566406 214.726562 L 328.566406 228.722656 L 314.570312 228.722656 Z M 314.570312 214.726562 " clip-rule="nonzero"/></clipPath><clipPath id="7cff1aa5d0"><path d="M 321.566406 214.726562 C 317.703125 214.726562 314.570312 217.859375 314.570312 221.726562 C 314.570312 225.589844 317.703125 228.722656 321.566406 228.722656 C 325.433594 228.722656 328.566406 225.589844 328.566406 221.726562 C 328.566406 217.859375 325.433594 214.726562 321.566406 214.726562 Z M 321.566406 214.726562 " clip-rule="nonzero"/></clipPath><clipPath id="67cf95d045"><path d="M 0.570312 0.726562 L 14.566406 0.726562 L 14.566406 14.722656 L 0.570312 14.722656 Z M 0.570312 0.726562 " clip-rule="nonzero"/></clipPath><clipPath id="afa796dc24"><path d="M 7.566406 0.726562 C 3.703125 0.726562 0.570312 3.859375 0.570312 7.726562 C 0.570312 11.589844 3.703125 14.722656 7.566406 14.722656 C 11.433594 14.722656 14.566406 11.589844 14.566406 7.726562 C 14.566406 3.859375 11.433594 0.726562 7.566406 0.726562 Z M 7.566406 0.726562 " clip-rule="nonzero"/></clipPath><clipPath id="2daaa9121b"><rect x="0" width="15" y="0" height="15"/></clipPath></defs><g clip-path="url(#57b22a7851)"><g clip-path="url(#5663739226)"><g transform="matrix(1, 0, 0, 1, 0, 0.000000000000039746)"><g clip-path="url(#281cc91496)"><g clip-path="url(#d8fc2719e6)"><g clip-path="url(#e71f8f1e76)"><path fill="#ffffff" d="M 0 0.613281 L 810.492188 0.613281 L 810.492188 783.578125 L 0 783.578125 Z M 0 0.613281 " fill-opacity="1" fill-rule="nonzero"/></g></g></g></g></g></g><g clip-path="url(#c2929afec4)"><path fill="#000000" d="M 741.4375 715.273438 L 428.28125 93.488281 C 422.480469 81.976562 410.816406 74.828125 397.835938 74.828125 C 384.855469 74.828125 373.191406 81.976562 367.394531 93.488281 L 54.234375 715.269531 C 46.839844 729.917969 47.554688 747.015625 56.15625 760.992188 C 64.851562 775.128906 79.992188 783.566406 96.65625 783.566406 L 699.015625 783.566406 C 715.679688 783.566406 730.820312 775.128906 739.515625 760.992188 C 748.113281 747.015625 748.835938 729.921875 741.4375 715.273438 Z M 676.34375 722.28125 C 669.707031 733.042969 658.148438 739.472656 645.410156 739.472656 L 150.25 739.472656 C 137.519531 739.472656 125.953125 733.042969 119.316406 722.28125 C 112.765625 711.644531 112.203125 698.648438 117.8125 687.492188 L 377.433594 172.066406 C 381.367188 164.230469 388.996094 159.550781 397.824219 159.550781 C 406.65625 159.550781 414.28125 164.230469 418.226562 172.074219 L 677.839844 687.488281 C 683.457031 698.640625 682.894531 711.644531 676.34375 722.28125 Z M 676.34375 722.28125 " fill-opacity="1" fill-rule="nonzero"/></g><path fill="#000000" d="M 450.3125 308.085938 L 345.363281 308.085938 C 343.777344 308.085938 342.269531 308.753906 341.199219 309.925781 C 340.132812 311.101562 339.609375 312.664062 339.761719 314.246094 L 369.738281 627.894531 C 370.011719 630.785156 372.4375 632.984375 375.339844 632.984375 L 420.332031 632.984375 C 423.234375 632.984375 425.65625 630.78125 425.9375 627.894531 L 455.914062 314.238281 C 456.066406 312.664062 455.542969 311.09375 454.472656 309.917969 C 453.40625 308.753906 451.898438 308.085938 450.3125 308.085938 Z M 450.3125 308.085938 " fill-opacity="1" fill-rule="nonzero"/><path fill="#000000" d="M 418.027344 653.910156 L 377.644531 653.910156 C 374.542969 653.910156 372.019531 656.425781 372.019531 659.535156 L 372.019531 699.75 C 372.019531 702.859375 374.542969 705.375 377.644531 705.375 L 418.027344 705.375 C 421.132812 705.375 423.652344 702.859375 423.652344 699.75 L 423.652344 659.535156 C 423.652344 656.429688 421.132812 653.910156 418.027344 653.910156 Z M 418.027344 653.910156 " fill-opacity="1" fill-rule="nonzero"/><g clip-path="url(#e603085b56)"><g transform="matrix(1, 0, 0, 1, 314, 299)"><g clip-path="url(#5aacbc9f1c)"><g clip-path="url(#e722ec5bcb)"><path fill="#ffffff" d="M 0.570312 0.484375 L 167.242188 0.484375 L 167.242188 430.1875 L 0.570312 430.1875 Z M 0.570312 0.484375 " fill-opacity="1" fill-rule="nonzero"/></g></g></g></g><g clip-path="url(#6c004ba98e)"><path fill="#000000" d="M 522.324219 750.625 L 400.800781 750.625 L 400.800781 714.636719 C 413.289062 691.613281 428.46875 674.09375 442.121094 659.421875 C 485.722656 659.042969 511.90625 651.324219 529.160156 633.785156 C 545.839844 616.824219 553.320312 591.148438 552.703125 552.96875 C 552.636719 548.820312 549.246094 545.492188 545.109375 545.492188 C 475.628906 545.492188 432.328125 562.980469 431.277344 648.773438 C 421.441406 659.324219 410.832031 671.351562 400.796875 685.789062 L 400.796875 583.480469 C 400.796875 573.617188 411.28125 555.542969 427.03125 537.878906 C 496.925781 537.53125 529.917969 525.851562 529.917969 431.527344 C 529.917969 427.335938 526.515625 423.933594 522.324219 423.933594 C 450.804688 423.933594 416.734375 434.253906 416.019531 527.332031 C 412.214844 531.597656 406.375 538.535156 400.796875 546.632812 L 400.796875 461.980469 C 400.875 451.917969 401.574219 443.3125 403.0625 435.425781 C 397.859375 436.460938 392.335938 434.523438 388.585938 430.9375 C 391.609375 416.066406 397.117188 403.203125 406.230469 389.363281 C 408.539062 385.859375 413.242188 384.878906 416.75 387.195312 C 420.25 389.507812 421.214844 394.222656 418.914062 397.726562 C 410.050781 411.175781 405.066406 423.253906 402.652344 438.039062 C 426.761719 433.4375 449.644531 418.695312 462.070312 399.21875 C 474.65625 379.492188 476.972656 355.703125 468.78125 330.421875 C 467.652344 326.925781 464.1875 324.722656 460.535156 325.238281 C 420.585938 330.679688 392.484375 347.308594 381.386719 372.070312 C 373 390.78125 375.539062 412.816406 388.09375 433.011719 C 388.109375 432.902344 388.148438 432.8125 388.160156 432.707031 C 386.523438 441.472656 385.691406 450.957031 385.609375 461.863281 L 385.609375 515.410156 C 379.601562 506.839844 373.433594 500.011719 370.28125 496.699219 C 370.304688 496.722656 370.320312 496.738281 370.34375 496.761719 C 369.972656 462.382812 363.742188 441.496094 349.59375 427.5625 C 336.246094 414.425781 315.671875 408.339844 286.742188 408.734375 C 282.605469 408.800781 279.277344 412.183594 279.277344 416.332031 C 279.277344 470.140625 293.132812 506.191406 359.484375 507.390625 C 359.128906 507.011719 358.78125 506.644531 358.449219 506.300781 C 366.886719 515.019531 385.613281 537.617188 385.613281 553.089844 L 385.613281 649.609375 C 378.714844 640.96875 372.199219 634.816406 366.871094 629.816406 C 365.378906 628.402344 364.03125 627.125 362.769531 625.886719 C 361.777344 520.675781 311.820312 499.90625 226.109375 499.90625 C 221.910156 499.90625 218.515625 503.308594 218.515625 507.503906 C 218.515625 592.148438 263.460938 635.507812 351.964844 636.5625 C 353.351562 637.929688 354.835938 639.351562 356.480469 640.894531 C 364.433594 648.355469 375.234375 658.566406 385.609375 676.722656 L 385.609375 750.625 L 264.085938 750.625 C 259.886719 750.625 256.492188 754.027344 256.492188 758.222656 C 256.492188 762.421875 259.886719 765.820312 264.085938 765.820312 L 522.324219 765.820312 C 526.519531 765.820312 529.921875 762.421875 529.921875 758.222656 C 529.917969 754.027344 526.519531 750.625 522.324219 750.625 Z M 481.316406 599.304688 C 485.152344 597.625 489.632812 599.394531 491.3125 603.242188 C 492.984375 607.09375 491.222656 611.566406 487.371094 613.238281 C 467.601562 621.855469 455 639.574219 445.285156 655.769531 C 445.066406 656.140625 444.769531 656.441406 444.496094 656.757812 C 447.117188 653.691406 446.941406 649.101562 443.972656 646.316406 C 440.902344 643.4375 436.097656 643.59375 433.234375 646.660156 C 433.058594 646.84375 432.882812 647.039062 432.707031 647.230469 C 443.609375 629.160156 457.917969 609.5 481.316406 599.304688 Z M 421.375 521.398438 C 429.996094 511.765625 447.945312 491.707031 464.464844 478.738281 C 467.761719 476.148438 472.539062 476.726562 475.128906 480.023438 C 477.71875 483.320312 477.140625 488.101562 473.84375 490.691406 C 458.371094 502.839844 441.023438 522.222656 432.691406 531.535156 C 431.21875 533.183594 430.027344 534.519531 429.167969 535.449219 C 429.648438 534.921875 430.253906 534.246094 430.9375 533.488281 C 425.941406 531.785156 421.777344 527.558594 420.3125 522.582031 L 417.996094 525.152344 Z M 359.511719 500.113281 C 358.023438 501.078125 356.238281 501.660156 354.363281 501.9375 L 357.449219 505.277344 C 357.742188 505.574219 358.0625 505.902344 358.394531 506.246094 C 358.0625 505.902344 357.742188 505.574219 357.449219 505.277344 L 326.859375 472.136719 C 324.011719 469.050781 324.210938 464.253906 327.285156 461.402344 C 330.382812 458.5625 335.175781 458.757812 338.015625 461.835938 L 365.914062 492.058594 C 364.90625 495.160156 362.867188 497.953125 359.511719 500.113281 Z M 360.765625 623.867188 C 357.902344 620.8125 353.101562 620.652344 350.027344 623.527344 C 347.058594 626.304688 346.882812 630.894531 349.503906 633.964844 C 349.273438 633.699219 349.015625 633.460938 348.824219 633.15625 C 329.625 603.09375 310.804688 584.140625 291.300781 575.195312 C 287.488281 573.441406 285.808594 568.9375 287.554688 565.125 C 289.308594 561.300781 293.820312 559.636719 297.628906 561.375 C 319.699219 571.496094 340.480469 592.085938 361.128906 624.238281 C 361.015625 624.117188 360.878906 623.988281 360.765625 623.867188 Z M 360.765625 623.867188 " fill-opacity="1" fill-rule="nonzero"/></g><g clip-path="url(#9c9c1f3901)"><g clip-path="url(#7cff1aa5d0)"><g transform="matrix(1, 0, 0, 1, 314, 214)"><g clip-path="url(#2daaa9121b)"><g clip-path="url(#67cf95d045)"><g clip-path="url(#afa796dc24)"><path fill="#2f2f2f" d="M 0.570312 0.726562 L 14.566406 0.726562 L 14.566406 14.722656 L 0.570312 14.722656 Z M 0.570312 0.726562 " fill-opacity="1" fill-rule="nonzero"/></g></g></g></g></g></g></svg>