<svg xmlns="http://www.w3.org/2000/svg" xmlns:xlink="http://www.w3.org/1999/xlink" width="1080" zoomAndPan="magnify" viewBox="0 0 810 809.999993" height="1080" preserveAspectRatio="xMidYMid meet" version="1.0"><defs><clipPath id="982711f71f"><path d="M 0 0 L 615 0 L 615 786.75 L 0 786.75 Z M 0 0 " clip-rule="nonzero"/></clipPath><clipPath id="8f7d171261"><path d="M 271.574219 504.824219 L 288.953125 504.824219 L 288.953125 522.199219 L 271.574219 522.199219 Z M 271.574219 504.824219 " clip-rule="nonzero"/></clipPath><clipPath id="39f2f8c149"><path d="M 280.261719 504.824219 C 275.464844 504.824219 271.574219 508.710938 271.574219 513.511719 C 271.574219 518.308594 275.464844 522.199219 280.261719 522.199219 C 285.0625 522.199219 288.953125 518.308594 288.953125 513.511719 C 288.953125 508.710938 285.0625 504.824219 280.261719 504.824219 Z M 280.261719 504.824219 " clip-rule="nonzero"/></clipPath><clipPath id="637d2179f0"><path d="M 0.574219 0.824219 L 17.953125 0.824219 L 17.953125 18.199219 L 0.574219 18.199219 Z M 0.574219 0.824219 " clip-rule="nonzero"/></clipPath><clipPath id="897daa8bd3"><path d="M 9.261719 0.824219 C 4.464844 0.824219 0.574219 4.710938 0.574219 9.511719 C 0.574219 14.308594 4.464844 18.199219 9.261719 18.199219 C 14.0625 18.199219 17.953125 14.308594 17.953125 9.511719 C 17.953125 4.710938 14.0625 0.824219 9.261719 0.824219 Z M 9.261719 0.824219 " clip-rule="nonzero"/></clipPath><clipPath id="af41e7513e"><rect x="0" width="18" y="0" height="19"/></clipPath></defs><path fill="#000000" d="M 782.726562 106.484375 L 738.996094 81.226562 C 734.890625 78.867188 730.089844 78.25 725.476562 79.484375 C 720.871094 80.71875 717.042969 83.644531 714.699219 87.722656 L 699.023438 114.871094 L 773.605469 157.945312 L 789.261719 130.828125 C 791.628906 126.734375 792.25 121.941406 791.011719 117.328125 C 789.769531 112.707031 786.828125 108.855469 782.726562 106.484375 Z M 782.726562 106.484375 " fill-opacity="1" fill-rule="nonzero"/><g clip-path="url(#982711f71f)"><path fill="#000000" d="M 582.855469 786.855469 C 600.507812 786.855469 614.867188 772.496094 614.867188 754.84375 L 614.867188 480.410156 L 604.511719 498.347656 C 604.511719 498.347656 504.875 670.964844 504.875 670.964844 C 504.613281 671.417969 504.316406 671.855469 503.996094 672.269531 C 503.820312 672.5 503.621094 672.703125 503.433594 672.917969 C 503.277344 673.089844 503.136719 673.273438 502.96875 673.4375 C 502.722656 673.683594 502.453125 673.902344 502.1875 674.125 C 502.058594 674.234375 501.9375 674.355469 501.796875 674.460938 C 501.496094 674.691406 501.175781 674.890625 500.855469 675.09375 C 500.742188 675.164062 500.640625 675.246094 500.523438 675.316406 L 500.457031 675.351562 C 500.445312 675.359375 500.429688 675.367188 500.417969 675.375 L 405.363281 730.238281 C 403.523438 731.300781 401.472656 731.832031 399.421875 731.832031 C 397.367188 731.832031 395.316406 731.300781 393.476562 730.238281 C 389.800781 728.113281 387.535156 724.191406 387.535156 719.945312 L 387.535156 610.046875 C 387.535156 610.011719 387.539062 609.980469 387.539062 609.945312 C 387.542969 609.460938 387.574219 608.976562 387.636719 608.492188 C 387.640625 608.460938 387.648438 608.429688 387.652344 608.398438 C 387.714844 607.964844 387.804688 607.53125 387.914062 607.101562 C 387.945312 606.984375 387.976562 606.867188 388.011719 606.753906 C 388.109375 606.402344 388.230469 606.058594 388.363281 605.714844 C 388.410156 605.601562 388.449219 605.484375 388.5 605.375 C 388.683594 604.945312 388.886719 604.519531 389.125 604.105469 L 488.761719 431.488281 C 488.761719 431.488281 614.867188 213.078125 614.867188 213.078125 L 614.867188 32.078125 C 614.867188 14.425781 600.503906 0.0625 582.855469 0.0625 L 32.355469 0.0625 C 14.703125 0.0625 0.34375 14.425781 0.34375 32.078125 L 0.34375 754.84375 C 0.34375 772.496094 14.703125 786.859375 32.355469 786.859375 L 582.859375 786.859375 Z M 135.359375 157.425781 L 479.851562 157.425781 C 486.414062 157.425781 491.734375 162.75 491.734375 169.3125 C 491.734375 175.878906 486.414062 181.199219 479.851562 181.199219 L 135.359375 181.199219 C 128.792969 181.199219 123.472656 175.878906 123.472656 169.3125 C 123.472656 162.75 128.792969 157.425781 135.359375 157.425781 Z M 135.359375 306.839844 L 464.0625 306.839844 C 470.628906 306.839844 475.949219 312.164062 475.949219 318.726562 C 475.949219 325.292969 470.628906 330.613281 464.0625 330.613281 L 135.359375 330.613281 C 128.792969 330.613281 123.472656 325.292969 123.472656 318.726562 C 123.472656 312.164062 128.792969 306.839844 135.359375 306.839844 Z M 135.359375 456.304688 L 377.761719 456.304688 C 384.324219 456.304688 389.644531 461.625 389.644531 468.191406 C 389.644531 474.757812 384.324219 480.078125 377.761719 480.078125 L 135.359375 480.078125 C 128.792969 480.078125 123.472656 474.757812 123.472656 468.191406 C 123.472656 461.625 128.792969 456.304688 135.359375 456.304688 Z M 135.359375 605.769531 L 309.746094 605.769531 C 316.3125 605.769531 321.632812 611.089844 321.632812 617.65625 C 321.632812 624.21875 316.3125 629.542969 309.746094 629.542969 L 135.359375 629.542969 C 128.792969 629.542969 123.472656 624.21875 123.472656 617.65625 C 123.472656 611.089844 128.792969 605.769531 135.359375 605.769531 Z M 135.359375 605.769531 " fill-opacity="1" fill-rule="nonzero"/></g><path fill="#000000" d="M 415.632812 605.679688 L 503.425781 453.679688 L 578.003906 496.757812 L 490.207031 648.761719 Z M 415.632812 605.679688 " fill-opacity="1" fill-rule="nonzero"/><path fill="#000000" d="M 515.289062 433.089844 L 663.359375 176.640625 L 737.941406 219.707031 L 589.871094 476.160156 Z M 515.289062 433.089844 " fill-opacity="1" fill-rule="nonzero"/><path fill="#000000" d="M 785.1875 192.089844 L 782.300781 190.421875 L 761.714844 178.535156 L 687.136719 135.460938 L 676.839844 129.511719 C 671.199219 126.257812 664.007812 128.148438 660.6875 133.726562 C 660.660156 133.773438 660.628906 133.816406 660.601562 133.859375 C 660.574219 133.910156 660.554688 133.957031 660.527344 134.003906 C 657.355469 139.667969 659.3125 146.84375 664.949219 150.101562 L 675.25 156.050781 L 749.832031 199.125 L 770.417969 211.011719 L 773.296875 212.675781 C 785.328125 219.628906 789.46875 235.058594 782.523438 247.082031 L 682.597656 420.226562 C 679.316406 425.914062 681.265625 433.183594 686.953125 436.464844 C 688.824219 437.546875 690.867188 438.058594 692.882812 438.058594 C 696.992188 438.058594 700.984375 435.925781 703.1875 432.113281 L 803.109375 258.96875 C 816.609375 235.597656 808.570312 205.597656 785.191406 192.089844 Z M 785.1875 192.089844 " fill-opacity="1" fill-rule="nonzero"/><path fill="#000000" d="M 411.304688 699.359375 L 470.808594 665.015625 L 411.304688 630.644531 Z M 411.304688 699.359375 " fill-opacity="1" fill-rule="nonzero"/><g clip-path="url(#8f7d171261)"><g clip-path="url(#39f2f8c149)"><g transform="matrix(1, 0, 0, 1, 271, 504)"><g clip-path="url(#af41e7513e)"><g clip-path="url(#637d2179f0)"><g clip-path="url(#897daa8bd3)"><path fill="#000000" d="M 0.574219 0.824219 L 17.953125 0.824219 L 17.953125 18.199219 L 0.574219 18.199219 Z M 0.574219 0.824219 " fill-opacity="1" fill-rule="nonzero"/></g></g></g></g></g></g></svg>