<svg xmlns="http://www.w3.org/2000/svg" xmlns:xlink="http://www.w3.org/1999/xlink" width="1080" zoomAndPan="magnify" viewBox="0 0 810 809.999993" height="1080" preserveAspectRatio="xMidYMid meet" version="1.0"><defs><clipPath id="1e5caddb25"><path d="M 0 46.238281 L 810 46.238281 L 810 763.988281 L 0 763.988281 Z M 0 46.238281 " clip-rule="nonzero"/></clipPath><clipPath id="0e7941cbf2"><path d="M 210.910156 302.511719 L 234.410156 302.511719 L 234.410156 326.011719 L 210.910156 326.011719 Z M 210.910156 302.511719 " clip-rule="nonzero"/></clipPath><clipPath id="3f1bbdb3c8"><path d="M 222.660156 302.511719 C 216.171875 302.511719 210.910156 307.773438 210.910156 314.261719 C 210.910156 320.75 216.171875 326.011719 222.660156 326.011719 C 229.148438 326.011719 234.410156 320.75 234.410156 314.261719 C 234.410156 307.773438 229.148438 302.511719 222.660156 302.511719 Z M 222.660156 302.511719 " clip-rule="nonzero"/></clipPath><clipPath id="7fa8c17c20"><path d="M 0.910156 0.511719 L 24.410156 0.511719 L 24.410156 24.011719 L 0.910156 24.011719 Z M 0.910156 0.511719 " clip-rule="nonzero"/></clipPath><clipPath id="bf983d20bc"><path d="M 12.660156 0.511719 C 6.171875 0.511719 0.910156 5.773438 0.910156 12.261719 C 0.910156 18.75 6.171875 24.011719 12.660156 24.011719 C 19.148438 24.011719 24.410156 18.75 24.410156 12.261719 C 24.410156 5.773438 19.148438 0.511719 12.660156 0.511719 Z M 12.660156 0.511719 " clip-rule="nonzero"/></clipPath><clipPath id="9af4931692"><rect x="0" width="25" y="0" height="25"/></clipPath></defs><g clip-path="url(#1e5caddb25)"><path fill="#12100b" d="M 153.566406 138.375 C 187.242188 138.375 214.6875 165.796875 214.6875 199.515625 C 214.6875 233.234375 187.242188 260.671875 153.566406 260.671875 C 119.890625 260.671875 92.378906 233.234375 92.378906 199.515625 C 92.378906 165.796875 119.824219 138.375 153.566406 138.375 Z M 153.566406 280.851562 C 198.363281 280.851562 234.84375 244.375 234.84375 199.53125 C 234.84375 154.691406 198.34375 118.230469 153.566406 118.230469 C 108.789062 118.230469 72.226562 154.707031 72.226562 199.53125 C 72.226562 244.359375 108.722656 280.851562 153.566406 280.851562 Z M 809.863281 487.269531 C 809.863281 492.832031 805.328125 497.351562 799.785156 497.351562 L 758.417969 497.351562 C 752.855469 497.351562 748.40625 492.832031 748.40625 487.269531 C 748.40625 481.710938 752.855469 477.191406 758.417969 477.191406 L 799.785156 477.191406 C 805.34375 477.191406 809.863281 481.691406 809.863281 487.269531 Z M 748.390625 442.34375 C 748.390625 436.765625 752.839844 432.261719 758.398438 432.261719 L 782.6875 432.261719 C 788.246094 432.261719 792.765625 436.765625 792.765625 442.34375 C 792.765625 447.921875 788.230469 452.425781 782.6875 452.425781 L 758.398438 452.425781 C 752.839844 452.425781 748.390625 447.90625 748.390625 442.34375 Z M 748.390625 397.382812 C 748.390625 391.804688 752.839844 387.304688 758.398438 387.304688 L 799.769531 387.304688 C 805.328125 387.304688 809.84375 391.804688 809.84375 397.382812 C 809.84375 402.960938 805.308594 407.464844 799.769531 407.464844 L 758.398438 407.464844 C 752.839844 407.464844 748.390625 402.945312 748.390625 397.382812 Z M 748.390625 352.457031 C 748.390625 346.878906 752.839844 342.375 758.398438 342.375 L 782.6875 342.375 C 788.246094 342.375 792.765625 346.878906 792.765625 352.457031 C 792.765625 358.035156 788.230469 362.539062 782.6875 362.539062 L 758.398438 362.539062 C 752.839844 362.539062 748.390625 358.019531 748.390625 352.457031 Z M 683.507812 637.136719 C 667.667969 637.136719 654.769531 624.25 654.769531 608.425781 C 654.769531 592.597656 667.667969 579.695312 683.507812 579.695312 C 699.347656 579.695312 712.246094 592.582031 712.246094 608.425781 C 712.246094 624.269531 699.347656 637.136719 683.507812 637.136719 Z M 693.601562 560.589844 L 693.601562 354.085938 C 693.601562 348.507812 689.066406 344.007812 683.523438 344.007812 C 677.980469 344.007812 673.445312 348.507812 673.445312 354.085938 L 673.445312 560.589844 C 651.292969 565.246094 634.699219 584.917969 634.699219 608.425781 C 634.699219 635.375 656.582031 657.300781 683.542969 657.300781 C 710.5 657.300781 732.382812 635.375 732.382812 608.425781 C 732.382812 584.917969 715.789062 565.246094 693.636719 560.589844 Z M 683.507812 679.492188 C 722.675781 679.492188 754.570312 647.605469 754.570312 608.425781 C 754.570312 582.382812 740.378906 558.472656 717.46875 545.992188 C 714.242188 544.226562 712.261719 540.832031 712.261719 537.136719 L 712.261719 340.292969 C 712.261719 324.449219 699.363281 311.5625 683.523438 311.5625 C 667.6875 311.5625 654.785156 324.449219 654.785156 340.292969 L 654.785156 537.136719 C 654.785156 540.832031 652.804688 544.226562 649.582031 545.992188 C 626.671875 558.472656 612.476562 582.398438 612.476562 608.425781 C 612.476562 647.605469 644.375 679.492188 683.542969 679.492188 Z M 386.859375 743.726562 C 469.175781 743.726562 546.472656 712.390625 605.324219 655.332031 C 597.09375 641.625 592.355469 625.5625 592.355469 608.425781 C 592.355469 577.054688 608.414062 548.074219 634.683594 531.390625 L 634.683594 340.292969 C 634.683594 339.269531 634.683594 338.261719 634.75 337.269531 C 627.964844 335.101562 621.648438 332.53125 615.886719 329.558594 C 606.902344 324.921875 596.890625 325.457031 588.445312 331.070312 C 580.011719 336.664062 575.613281 345.6875 576.433594 355.765625 C 577.125 364.824219 579.390625 371.894531 581.792969 379.371094 C 584.328125 387.453125 587 395.804688 587.351562 406.035156 C 588.375 441.320312 561.554688 471.007812 526.367188 473.644531 C 524.71875 473.761719 523.074219 473.828125 521.429688 473.828125 C 488.375 473.828125 460.175781 449.199219 456.125 415.832031 C 455.234375 408.605469 454.816406 401.214844 454.816406 393.871094 C 454.816406 383.875 455.640625 373.878906 457.21875 364.167969 C 459.132812 352.710938 456.394531 342.324219 449.121094 333.285156 C 441.78125 324.246094 432.242188 319.375 420.652344 318.789062 C 413.734375 318.433594 407.066406 317.878906 400.835938 317.109375 C 375.726562 314.050781 357.28125 298.660156 347.542969 272.632812 C 335.601562 240.914062 346.785156 209.429688 357.550781 178.984375 C 364.691406 158.941406 371.410156 140.003906 371.410156 121.976562 C 371.410156 119.792969 371.273438 117.609375 371.140625 115.425781 C 342.335938 116.835938 314.203125 122.144531 287.042969 131.25 C 286.773438 131.90625 286.488281 132.546875 286.152344 133.132812 L 277.300781 147.71875 C 273.589844 153.832031 272.699219 160.167969 274.5625 167.089844 C 276.410156 174.011719 280.324219 179.035156 286.640625 182.480469 L 301.589844 190.679688 C 304.8125 192.457031 306.796875 195.835938 306.796875 199.515625 C 306.796875 203.195312 304.8125 206.589844 301.589844 208.371094 L 286.640625 216.570312 C 280.324219 220.011719 276.429688 225.035156 274.5625 231.957031 C 272.714844 238.878906 273.605469 245.214844 277.300781 251.332031 L 286.152344 265.914062 C 288.066406 269.054688 288.066406 272.988281 286.289062 276.179688 C 284.441406 279.304688 281.148438 281.21875 277.503906 281.21875 L 277.300781 281.21875 L 260.289062 280.832031 C 253.148438 280.664062 247.1875 283.066406 242.113281 288.125 C 237.042969 293.199219 234.707031 299.128906 234.84375 306.289062 L 235.179688 323.339844 C 235.246094 327.019531 233.332031 330.449219 230.171875 332.296875 C 226.949219 334.128906 223.035156 334.09375 219.875 332.179688 L 205.332031 323.339844 C 199.152344 319.609375 192.851562 318.71875 185.914062 320.570312 C 179.0625 322.417969 173.972656 326.363281 170.546875 332.648438 L 162.316406 347.601562 C 160.605469 350.828125 157.179688 352.828125 153.535156 352.828125 C 149.890625 352.828125 146.460938 350.828125 144.683594 347.601562 L 136.453125 332.648438 C 133.027344 326.363281 128.019531 322.417969 121.085938 320.570312 C 114.164062 318.71875 107.847656 319.609375 101.667969 323.339844 L 88.082031 331.589844 C 82.722656 347.988281 78.757812 364.773438 76.140625 381.824219 C 81.414062 393.921875 87.726562 404.558594 94.933594 413.429688 C 95.269531 413.847656 95.554688 414.285156 95.824219 414.738281 C 111.8125 442.261719 133.75 458.035156 156.121094 458.035156 C 160.789062 458.035156 165.441406 457.363281 170.042969 456.035156 C 205.5 445.820312 240.417969 451.382812 270.9375 472.167969 C 285.617188 482.144531 299.671875 493.839844 312.773438 506.945312 C 329.4375 523.5625 343.644531 541.605469 355.101562 560.523438 C 363.597656 574.605469 362.304688 591.859375 351.742188 604.492188 C 341.175781 617.128906 324.449219 621.511719 309.078125 615.648438 C 300.984375 612.574219 292.753906 608.8125 284.589844 604.492188 C 282.945312 603.601562 281.433594 603.519531 279.71875 604.222656 C 277.941406 604.929688 276.914062 606.039062 276.292969 607.835938 C 274.378906 613.683594 275.472656 619.96875 279.316406 625.074219 C 306.273438 660.878906 298.664062 698.378906 277.535156 724.101562 C 311.632812 736.769531 348.398438 743.726562 386.808594 743.726562 Z M 72.628906 429.390625 C 72.628906 425.425781 72.695312 421.441406 72.828125 417.496094 C 74.8125 420.285156 76.808594 422.988281 78.859375 425.558594 C 98.476562 459.027344 126.59375 478.214844 156.152344 478.214844 C 162.671875 478.214844 169.253906 477.273438 175.636719 475.441406 C 205.199219 466.925781 234.21875 471.5625 259.667969 488.851562 C 273.253906 498.125 286.355469 509.011719 298.566406 521.210938 C 314.066406 536.699219 327.300781 553.433594 337.867188 570.972656 C 341.914062 577.679688 341.292969 585.574219 336.289062 591.589844 C 331.285156 597.605469 323.589844 599.621094 316.335938 596.832031 C 308.996094 594.042969 301.519531 590.632812 294.113281 586.699219 C 287.195312 583.039062 279.433594 582.617188 272.230469 585.542969 C 264.957031 588.449219 259.683594 594.125 257.214844 601.554688 C 253.167969 613.75 255.367188 626.753906 263.242188 637.207031 C 286.355469 667.933594 275.589844 697.789062 257.820312 715.984375 C 148.761719 666.640625 72.628906 556.742188 72.628906 429.390625 Z M 47.667969 260.6875 C 59.746094 260.738281 70.644531 265.292969 79.230469 273.894531 C 87.796875 282.496094 92.398438 293.382812 92.398438 305.449219 C 99.316406 301.5 106.808594 299.5 114.417969 299.5 C 118.398438 299.5 122.378906 300.039062 126.359375 301.113281 C 138.082031 304.253906 147.488281 311.410156 153.585938 321.84375 C 159.613281 311.410156 169.019531 304.253906 180.742188 301.113281 C 192.464844 297.972656 204.207031 299.464844 214.703125 305.449219 C 214.769531 293.382812 219.304688 282.496094 227.871094 273.894531 C 236.523438 265.292969 247.355469 260.738281 259.429688 260.6875 C 253.46875 250.203125 251.957031 238.496094 255.113281 226.75 C 258.273438 215.007812 265.410156 205.632812 275.824219 199.53125 C 265.394531 193.449219 258.273438 184.074219 255.113281 172.332031 C 251.957031 160.585938 253.46875 148.875 259.429688 138.390625 C 247.355469 138.34375 236.453125 133.789062 227.871094 125.1875 C 219.304688 116.585938 214.769531 105.695312 214.703125 93.617188 C 204.207031 99.613281 192.484375 101.109375 180.742188 97.96875 C 169.019531 94.828125 159.613281 87.667969 153.582031 77.234375 C 147.488281 87.667969 138.082031 94.828125 126.359375 97.96875 C 114.632812 101.128906 102.894531 99.613281 92.398438 93.617188 C 92.398438 105.695312 87.792969 116.585938 79.230469 125.1875 C 70.664062 133.789062 59.746094 138.34375 47.667969 138.390625 C 53.632812 148.875 55.144531 160.585938 51.984375 172.332031 C 48.828125 184.074219 41.691406 193.449219 31.277344 199.53125 C 41.707031 205.632812 48.914062 215.007812 51.984375 226.75 C 55.144531 238.496094 53.632812 250.203125 47.667969 260.6875 Z M 670.207031 293.285156 C 657.105469 296.980469 646.269531 306 640.15625 317.847656 C 634.664062 316.066406 629.660156 314.015625 625.140625 311.664062 C 609.640625 303.683594 591.800781 304.65625 577.257812 314.285156 C 562.78125 323.929688 554.96875 340.023438 556.328125 357.378906 C 557.21875 368.753906 560.042969 377.675781 562.578125 385.539062 C 564.914062 392.898438 566.960938 399.25 567.179688 406.640625 C 567.867188 431.121094 549.34375 451.734375 524.921875 453.550781 C 500.5 455.382812 479.035156 437.757812 476.148438 413.429688 C 475.324219 407.011719 474.988281 400.441406 474.988281 393.890625 C 474.988281 384.984375 475.675781 376.097656 477.121094 367.476562 C 479.925781 350.355469 475.675781 334.160156 464.777344 320.652344 C 453.941406 307.144531 438.976562 299.535156 421.695312 298.660156 C 415.246094 298.339844 409.082031 297.820312 403.320312 297.113281 C 385.617188 294.964844 373.558594 284.648438 366.421875 265.578125 C 357.097656 240.746094 366.554688 214.015625 376.566406 185.738281 C 383.90625 164.972656 391.511719 143.5 391.511719 121.996094 C 391.511719 119.691406 391.445312 117.390625 391.3125 115.089844 C 510.929688 116.769531 618.625 185.90625 670.207031 293.285156 Z M 732.347656 531.40625 L 732.347656 340.308594 C 732.347656 316.21875 714.863281 296.15625 691.957031 292.15625 C 637.90625 172.128906 518.824219 94.894531 386.859375 94.894531 C 344.535156 94.894531 303.316406 102.722656 264.21875 118.128906 L 260.304688 118.214844 C 253.097656 118.382812 247.203125 115.996094 242.132812 110.9375 C 237.058594 105.863281 234.722656 99.933594 234.859375 92.761719 L 235.195312 75.722656 C 235.261719 72.042969 233.347656 68.617188 230.191406 66.769531 C 226.964844 64.921875 223.050781 64.972656 219.894531 66.886719 L 205.347656 75.722656 C 199.167969 79.453125 192.871094 80.359375 185.933594 78.496094 C 179.078125 76.648438 173.992188 72.683594 170.566406 66.414062 L 162.335938 51.460938 C 160.621094 48.238281 157.195312 46.222656 153.550781 46.222656 C 149.90625 46.222656 146.480469 48.238281 144.699219 51.460938 L 136.46875 66.414062 C 133.042969 72.683594 128.039062 76.648438 121.101562 78.496094 C 114.179688 80.359375 107.867188 79.453125 101.683594 75.722656 L 87.140625 66.886719 C 83.980469 64.972656 80.070312 64.921875 76.84375 66.769531 C 73.6875 68.617188 71.773438 72.042969 71.839844 75.722656 L 72.175781 92.761719 C 72.375 99.933594 69.976562 105.863281 64.902344 110.921875 C 59.828125 115.996094 54 118.398438 46.730469 118.214844 L 29.714844 117.84375 C 26.085938 117.761719 22.578125 119.691406 20.796875 122.886719 C 18.949219 126.078125 18.949219 130.007812 20.863281 133.152344 L 29.714844 147.734375 C 33.425781 153.851562 34.316406 160.183594 32.519531 167.105469 C 30.605469 174.027344 26.691406 179.050781 20.375 182.496094 L 5.496094 190.695312 C 2.203125 192.476562 0.222656 195.851562 0.222656 199.53125 C 0.222656 203.210938 2.203125 206.605469 5.496094 208.386719 L 20.375 216.585938 C 26.691406 220.03125 30.589844 225.054688 32.519531 231.976562 C 34.300781 238.898438 33.410156 245.230469 29.714844 251.347656 L 20.863281 265.929688 C 18.949219 269.074219 18.949219 273.003906 20.796875 276.195312 C 22.578125 279.320312 25.867188 281.238281 29.511719 281.238281 L 29.714844 281.238281 L 46.730469 280.851562 C 53.933594 280.683594 59.828125 283.085938 64.902344 288.140625 C 69.976562 293.214844 72.375 299.148438 72.175781 306.304688 L 71.972656 316.503906 C 59.007812 352.660156 52.421875 390.628906 52.421875 429.390625 C 52.421875 613.835938 202.425781 763.902344 386.808594 763.902344 C 473.644531 763.902344 555.136719 731.140625 617.617188 671.445312 C 634.210938 688.820312 657.609375 699.671875 683.457031 699.671875 C 733.726562 699.671875 774.609375 658.746094 774.609375 608.441406 C 774.609375 577.074219 758.550781 548.074219 732.28125 531.40625 Z M 529.589844 630.199219 C 522.25 642.933594 510.242188 654.394531 495.714844 662.457031 C 484.125 668.890625 471.226562 669.429688 463.617188 663.800781 C 455.789062 657.972656 456.144531 647.589844 457.855469 639.925781 C 460.527344 627.34375 457.519531 614.992188 449.289062 605.113281 C 438.039062 591.707031 432.34375 582.332031 426.382812 558.996094 C 423.710938 548.511719 429.671875 538.496094 436.8125 533.222656 C 438.589844 531.878906 443.664062 528.566406 449.359375 528.566406 C 451.691406 528.566406 454.09375 529.105469 456.429688 530.550781 C 461.097656 533.40625 463.769531 537.625 464.390625 543.066406 C 464.726562 546.359375 465.011719 549.738281 465.28125 553.382812 C 466.371094 572.082031 478.714844 587.40625 496.753906 592.429688 C 499.84375 593.304688 503.070312 594.328125 506.296875 595.472656 C 511.097656 597.183594 515.902344 599.167969 520.554688 601.386719 C 526.046875 603.957031 529.609375 608.019531 531.386719 613.800781 C 533.234375 619.582031 532.632812 624.941406 529.609375 630.199219 Z M 529.1875 583.15625 C 539.753906 588.144531 547.160156 596.664062 550.652344 607.785156 C 554.144531 618.925781 552.921875 630.148438 547.09375 640.261719 C 537.972656 656.140625 523.160156 670.304688 505.457031 680.097656 C 496.199219 685.273438 486.257812 687.84375 476.851562 687.84375 C 467.445312 687.84375 458.613281 685.222656 451.609375 679.980469 C 438.925781 670.574219 434.054688 654.410156 438.085938 635.640625 C 439.53125 629.105469 438.085938 623.210938 433.769531 618.085938 C 421.007812 602.828125 413.734375 590.851562 406.8125 564.035156 C 402.429688 546.832031 409.484375 528.367188 424.785156 517.027344 C 438.222656 507.078125 454.414062 505.683594 466.976562 513.378906 C 476.917969 519.480469 483.101562 529.238281 484.394531 540.867188 C 484.8125 544.511719 485.082031 548.226562 485.351562 552.222656 C 485.90625 562.339844 492.355469 570.300781 502.164062 573.023438 C 505.722656 574.03125 509.367188 575.191406 513.0625 576.503906 C 518.488281 578.433594 523.898438 580.667969 529.1875 583.15625 Z M 529.1875 583.15625 " fill-opacity="1" fill-rule="evenodd"/></g><g clip-path="url(#0e7941cbf2)"><g clip-path="url(#3f1bbdb3c8)"><g transform="matrix(1, 0, 0, 1, 210, 302)"><g clip-path="url(#9af4931692)"><g clip-path="url(#7fa8c17c20)"><g clip-path="url(#bf983d20bc)"><path fill="#000000" d="M 0.910156 0.511719 L 24.410156 0.511719 L 24.410156 24.011719 L 0.910156 24.011719 Z M 0.910156 0.511719 " fill-opacity="1" fill-rule="nonzero"/></g></g></g></g></g></g></svg>