<svg xmlns="http://www.w3.org/2000/svg" xmlns:xlink="http://www.w3.org/1999/xlink" width="1080" zoomAndPan="magnify" viewBox="0 0 810 809.999993" height="1080" preserveAspectRatio="xMidYMid meet" version="1.0"><defs><clipPath id="21ee4a14ca"><path d="M 237.414062 349.136719 L 349.136719 349.136719 L 349.136719 810 L 237.414062 810 Z M 237.414062 349.136719 " clip-rule="nonzero"/></clipPath><clipPath id="b54281bb13"><path d="M 162.425781 310.851562 L 176.417969 310.851562 L 176.417969 324.847656 L 162.425781 324.847656 Z M 162.425781 310.851562 " clip-rule="nonzero"/></clipPath><clipPath id="a1e9bff041"><path d="M 169.421875 310.851562 C 165.558594 310.851562 162.425781 313.984375 162.425781 317.851562 C 162.425781 321.714844 165.558594 324.847656 169.421875 324.847656 C 173.285156 324.847656 176.417969 321.714844 176.417969 317.851562 C 176.417969 313.984375 173.285156 310.851562 169.421875 310.851562 Z M 169.421875 310.851562 " clip-rule="nonzero"/></clipPath><clipPath id="adc9978b93"><path d="M 0.425781 0.851562 L 14.417969 0.851562 L 14.417969 14.847656 L 0.425781 14.847656 Z M 0.425781 0.851562 " clip-rule="nonzero"/></clipPath><clipPath id="7fd62400e7"><path d="M 7.421875 0.851562 C 3.558594 0.851562 0.425781 3.984375 0.425781 7.851562 C 0.425781 11.714844 3.558594 14.847656 7.421875 14.847656 C 11.285156 14.847656 14.417969 11.714844 14.417969 7.851562 C 14.417969 3.984375 11.285156 0.851562 7.421875 0.851562 Z M 7.421875 0.851562 " clip-rule="nonzero"/></clipPath><clipPath id="d992ef4665"><rect x="0" width="15" y="0" height="15"/></clipPath></defs><path fill="#000000" d="M 530.691406 377.339844 C 499.867188 377.339844 474.828125 402.382812 474.828125 433.203125 L 446.898438 433.203125 C 446.898438 392.015625 476.792969 357.757812 515.960938 350.773438 C 509.6875 295.074219 462.335938 251.652344 405 251.652344 C 388.199219 251.652344 371.832031 255.578125 356.828125 262.726562 C 360.8125 277.019531 363.101562 291.964844 363.101562 307.515625 L 335.171875 307.515625 C 335.171875 230.484375 272.546875 167.859375 195.515625 167.859375 C 118.542969 167.859375 55.863281 230.484375 55.863281 307.515625 C 55.863281 321.96875 58.152344 336.15625 62.464844 349.738281 C 105.613281 353.121094 139.65625 389.234375 139.65625 433.203125 L 111.722656 433.203125 C 111.722656 402.382812 86.683594 377.339844 55.863281 377.339844 C 25.039062 377.339844 0 402.382812 0 433.203125 C 0 464.027344 25.039062 489.066406 55.863281 489.066406 L 237.414062 489.066406 L 237.414062 377.339844 C 237.414062 346.519531 262.453125 321.480469 293.277344 321.480469 C 324.097656 321.480469 349.136719 346.519531 349.136719 377.339844 L 349.136719 489.066406 L 530.691406 489.066406 C 561.511719 489.066406 586.550781 464.027344 586.550781 433.203125 C 586.550781 402.382812 561.511719 377.339844 530.691406 377.339844 " fill-opacity="1" fill-rule="nonzero"/><g clip-path="url(#21ee4a14ca)"><path fill="#000000" d="M 307.242188 768.375 L 279.308594 768.375 L 279.308594 740.445312 L 307.242188 740.445312 Z M 326.769531 710.003906 L 321.207031 705.804688 L 321.207031 377.339844 C 321.207031 361.957031 308.660156 349.410156 293.277344 349.410156 C 277.890625 349.410156 265.34375 361.957031 265.34375 377.339844 L 265.34375 405.273438 L 293.277344 405.273438 L 293.277344 433.203125 L 265.34375 433.203125 L 265.34375 461.136719 L 293.277344 461.136719 L 293.277344 489.066406 L 265.34375 489.066406 L 265.34375 516.996094 L 293.277344 516.996094 L 293.277344 544.929688 L 265.34375 544.929688 L 265.34375 572.859375 L 293.277344 572.859375 L 293.277344 600.789062 L 265.34375 600.789062 L 265.34375 628.722656 L 293.277344 628.722656 L 293.277344 656.652344 L 265.34375 656.652344 L 265.34375 705.804688 L 259.78125 710.003906 C 242.488281 723.097656 234.46875 743.609375 238.394531 764.9375 C 242.378906 786.816406 259.5625 804.542969 281.164062 809.019531 C 298.402344 812.617188 315.207031 808.582031 328.515625 797.78125 C 341.609375 787.085938 349.136719 771.265625 349.136719 754.410156 C 349.136719 736.953125 340.953125 720.75 326.769531 710.003906 " fill-opacity="1" fill-rule="nonzero"/></g><path fill="#000000" d="M 712.242188 251.652344 C 712.242188 166.929688 643.339844 98.03125 558.621094 98.03125 C 484.265625 98.03125 420.765625 152.148438 407.5625 223.832031 C 479.082031 225.140625 537.5625 280.402344 544 350.554688 C 571.714844 355.03125 594.84375 373.03125 606.464844 397.636719 C 669.308594 377.179688 712.242188 318.804688 712.242188 251.652344 " fill-opacity="1" fill-rule="nonzero"/><path fill="#000000" d="M 780.488281 329.445312 C 789.925781 327.042969 807.601562 322.570312 810.273438 318.589844 C 809.453125 315.097656 796.960938 302.933594 790.199219 296.386719 C 775.90625 282.472656 761.175781 268.128906 761.175781 251.652344 C 761.175781 235.175781 775.90625 220.828125 790.199219 206.917969 C 796.960938 200.371094 809.453125 188.152344 810 183.515625 C 807.601562 180.679688 789.925781 176.261719 780.488281 173.859375 C 760.683594 168.839844 742.082031 164.148438 734.117188 150.402344 C 725.988281 136.382812 731.28125 117.726562 736.84375 97.921875 C 739.464844 88.648438 744.320312 71.464844 742.300781 67.101562 C 738.917969 66.007812 721.625 70.808594 712.351562 73.429688 C 692.546875 78.992188 673.835938 84.285156 659.871094 76.15625 C 646.125 68.191406 641.378906 49.535156 636.414062 29.785156 C 634.011719 20.347656 629.539062 2.671875 625.558594 0 C 622.066406 0.816406 609.898438 13.3125 603.355469 20.074219 C 589.441406 34.367188 575.09375 49.097656 558.621094 49.097656 C 542.144531 49.097656 527.796875 34.367188 513.886719 20.074219 C 507.339844 13.3125 495.175781 0.816406 490.484375 0.273438 C 487.648438 2.671875 483.230469 20.347656 480.828125 29.785156 C 475.863281 49.535156 471.117188 68.191406 457.371094 76.15625 C 443.40625 84.285156 424.695312 78.992188 404.890625 73.429688 C 395.617188 70.808594 378.378906 65.953125 374.070312 67.972656 C 372.921875 71.464844 377.777344 88.648438 380.398438 97.921875 C 385.960938 117.726562 391.253906 136.4375 383.125 150.402344 C 375.160156 164.148438 356.558594 168.894531 336.753906 173.859375 C 328.082031 176.042969 312.695312 179.96875 308.058594 183.679688 C 324.316406 198.464844 337.628906 216.355469 347.066406 236.433594 C 357.265625 231.792969 368.011719 228.523438 379.03125 226.449219 C 391.417969 137.964844 468.117188 70.101562 558.621094 70.101562 C 658.726562 70.101562 740.171875 151.546875 740.171875 251.652344 C 740.171875 331.410156 688.949219 400.636719 614.046875 424.476562 C 614.320312 427.367188 614.484375 430.257812 614.484375 433.203125 C 614.484375 450.550781 609.191406 466.644531 600.136719 480.011719 C 601.226562 481.101562 602.261719 482.082031 603.355469 483.175781 C 609.898438 489.9375 622.066406 502.484375 626.757812 503.03125 C 629.59375 500.578125 634.011719 482.957031 636.414062 473.519531 C 641.378906 453.714844 646.125 435.058594 659.871094 427.09375 C 673.835938 419.019531 692.546875 424.3125 712.351562 429.875 C 721.625 432.496094 738.808594 437.296875 743.171875 435.332031 C 744.320312 431.839844 739.464844 414.601562 736.84375 405.382812 C 731.28125 385.578125 725.988281 366.867188 734.117188 352.902344 C 742.082031 339.101562 760.683594 334.410156 780.488281 329.445312 " fill-opacity="1" fill-rule="nonzero"/><g clip-path="url(#b54281bb13)"><g clip-path="url(#a1e9bff041)"><g transform="matrix(1, 0, 0, 1, 162, 310)"><g clip-path="url(#d992ef4665)"><g clip-path="url(#adc9978b93)"><g clip-path="url(#7fd62400e7)"><path fill="#2f2f2f" d="M 0.425781 0.851562 L 14.417969 0.851562 L 14.417969 14.847656 L 0.425781 14.847656 Z M 0.425781 0.851562 " fill-opacity="1" fill-rule="nonzero"/></g></g></g></g></g></g></svg>