<svg xmlns="http://www.w3.org/2000/svg" xmlns:xlink="http://www.w3.org/1999/xlink" width="1080" zoomAndPan="magnify" viewBox="0 0 810 809.999993" height="1080" preserveAspectRatio="xMidYMid meet" version="1.0"><defs><clipPath id="adbdd55d2b"><path d="M 0 108.675781 L 810 108.675781 L 810 809.925781 L 0 809.925781 Z M 0 108.675781 " clip-rule="nonzero"/></clipPath><clipPath id="5866cf8005"><path d="M 393.25 656.824219 L 416.75 656.824219 L 416.75 680.324219 L 393.25 680.324219 Z M 393.25 656.824219 " clip-rule="nonzero"/></clipPath><clipPath id="aaf1ebff2a"><path d="M 405 656.824219 C 398.511719 656.824219 393.25 662.082031 393.25 668.574219 C 393.25 675.0625 398.511719 680.324219 405 680.324219 C 411.488281 680.324219 416.75 675.0625 416.75 668.574219 C 416.75 662.082031 411.488281 656.824219 405 656.824219 Z M 405 656.824219 " clip-rule="nonzero"/></clipPath><clipPath id="76f1625d44"><path d="M 0.25 0.824219 L 23.75 0.824219 L 23.75 24.324219 L 0.25 24.324219 Z M 0.25 0.824219 " clip-rule="nonzero"/></clipPath><clipPath id="6af3298787"><path d="M 12 0.824219 C 5.511719 0.824219 0.25 6.082031 0.25 12.574219 C 0.25 19.0625 5.511719 24.324219 12 24.324219 C 18.488281 24.324219 23.75 19.0625 23.75 12.574219 C 23.75 6.082031 18.488281 0.824219 12 0.824219 Z M 12 0.824219 " clip-rule="nonzero"/></clipPath><clipPath id="b7c923bb66"><rect x="0" width="24" y="0" height="25"/></clipPath></defs><g clip-path="url(#adbdd55d2b)"><path fill="#000000" d="M 805.167969 337.644531 C 783.117188 315.269531 756.40625 297.421875 727.3125 285.398438 C 648.433594 252.398438 547.113281 264.957031 487.433594 327.988281 C 488.339844 304.089844 483.082031 280.109375 474.160156 257.929688 C 451.375 199.957031 404.757812 151.914062 347.25 127.511719 C 318.445312 115.230469 287.113281 108.722656 255.746094 108.609375 C 247.292969 108.5625 240.429688 115.359375 240.378906 123.828125 C 240.152344 155.242188 246.414062 186.75 258.488281 215.808594 C 291.753906 296.917969 375.546875 360.863281 464.828125 355.019531 C 458.953125 359.792969 453.808594 365.4375 449.089844 371.34375 C 412.171875 415.460938 390.625 469.570312 388.109375 527.105469 C 387.28125 544.726562 388.207031 562.589844 390.589844 580.03125 C 391.09375 583.730469 391.679688 587.445312 392.375 591.144531 C 314.730469 531.632812 194.199219 553.375 147.335938 648.679688 C 67.757812 647.511719 -0.765625 714.246094 0.351562 795.078125 C 0.402344 803.304688 7.105469 809.957031 15.347656 809.910156 C 15.347656 809.910156 276.761719 808.546875 276.761719 808.546875 C 277.960938 808.578125 279.113281 808.449219 280.234375 808.171875 L 524.445312 806.46875 C 525.355469 806.679688 526.3125 806.808594 527.300781 806.792969 C 544.113281 806.679688 560.957031 806.519531 577.78125 806.175781 C 626.542969 805.089844 675.988281 802.28125 724.148438 798.421875 C 725.476562 795.273438 726.03125 790.925781 725.804688 787.308594 C 725.753906 774.425781 722.945312 761.640625 718.015625 749.714844 C 690.476562 685.476562 610.542969 667.710938 557.140625 707.316406 C 552.371094 699.707031 546.953125 692.488281 540.980469 685.753906 C 513.039062 654.164062 472.195312 634.742188 430.167969 632.308594 C 428.578125 629.84375 426.9375 627.425781 425.234375 625.089844 C 424.195312 611.960938 422.558594 598.820312 421.082031 586.164062 C 417.023438 554.542969 417.898438 522.171875 423.628906 490.859375 C 427.847656 469.117188 434.433594 447.519531 443.863281 427.449219 C 443.863281 427.449219 447.96875 418.785156 447.96875 418.785156 C 449.429688 416.09375 453.46875 408.710938 454.863281 406.128906 C 456.570312 403.40625 460.722656 396.703125 462.507812 393.847656 C 469.226562 383.707031 476.917969 374.71875 482.90625 364.351562 C 499.601562 383.707031 521.589844 398.113281 545.070312 408.109375 C 602.171875 433 669.121094 434.003906 727.035156 410.59375 C 756.082031 398.910156 782.855469 381.355469 805.101562 359.257812 C 811.125 353.316406 811.15625 343.648438 805.214844 337.628906 Z M 408.519531 249.867188 C 399.042969 242.03125 388.171875 234.761719 375.757812 232.359375 C 372.804688 232.082031 369.480469 230.867188 366.785156 232.714844 C 364.351562 234.4375 363.785156 237.8125 365.503906 240.246094 C 373.390625 250.789062 383.160156 259.195312 392.863281 267.972656 C 411.636719 285.59375 428.382812 305.777344 444.316406 326.15625 C 447.335938 330.019531 450.386719 334.007812 453.4375 338.035156 C 355.28125 314.246094 280.394531 243.164062 271.875 139.84375 C 365.359375 146.21875 443.019531 213.523438 465.234375 305.484375 C 447.855469 285.496094 429.113281 266.773438 408.519531 249.851562 Z M 516.671875 367.5625 C 513.054688 365.488281 509.289062 363.230469 505.523438 360.925781 C 523.148438 359.046875 540.882812 357.472656 558.503906 356.515625 C 583.882812 355.671875 608.386719 354.777344 633.894531 353.089844 C 635.453125 353.058594 636.945312 352.394531 637.984375 351.09375 C 639.785156 348.824219 639.394531 345.53125 637.125 343.726562 C 631.316406 339.136719 624.695312 336.136719 618.089844 333.75 C 598.585938 326.804688 577.914062 326.253906 557.53125 326.609375 C 544.113281 326.773438 530.726562 327.503906 517.386719 328.640625 C 600.515625 284.183594 696.820312 285.253906 771.578125 348.613281 C 700.667969 410.460938 597.578125 417.585938 516.6875 367.578125 Z M 516.671875 367.5625 " fill-opacity="1" fill-rule="nonzero"/></g><path fill="#000000" d="M 91.484375 35.894531 C 91.484375 34.71875 91.425781 33.546875 91.308594 32.378906 C 91.195312 31.207031 91.019531 30.046875 90.792969 28.894531 C 90.5625 27.742188 90.277344 26.601562 89.9375 25.476562 C 89.59375 24.351562 89.199219 23.246094 88.75 22.160156 C 88.300781 21.078125 87.796875 20.015625 87.242188 18.980469 C 86.691406 17.941406 86.085938 16.9375 85.433594 15.957031 C 84.78125 14.980469 84.082031 14.039062 83.335938 13.128906 C 82.589844 12.222656 81.804688 11.351562 80.972656 10.519531 C 80.140625 9.691406 79.273438 8.902344 78.363281 8.15625 C 77.457031 7.410156 76.515625 6.710938 75.539062 6.058594 C 74.5625 5.40625 73.554688 4.804688 72.519531 4.25 C 71.484375 3.695312 70.421875 3.191406 69.339844 2.742188 C 68.253906 2.292969 67.148438 1.898438 66.023438 1.558594 C 64.902344 1.214844 63.761719 0.929688 62.609375 0.703125 C 61.457031 0.472656 60.296875 0.300781 59.128906 0.183594 C 57.960938 0.0703125 56.789062 0.0117188 55.613281 0.0117188 C 54.441406 0.0117188 53.269531 0.0703125 52.101562 0.183594 C 50.929688 0.300781 49.769531 0.472656 48.617188 0.703125 C 47.46875 0.929688 46.328125 1.214844 45.207031 1.558594 C 44.082031 1.898438 42.976562 2.292969 41.890625 2.742188 C 40.804688 3.191406 39.746094 3.695312 38.710938 4.25 C 37.675781 4.804688 36.667969 5.40625 35.691406 6.058594 C 34.714844 6.710938 33.773438 7.410156 32.863281 8.15625 C 31.957031 8.902344 31.085938 9.691406 30.257812 10.519531 C 29.425781 11.351562 28.636719 12.222656 27.894531 13.128906 C 27.148438 14.039062 26.449219 14.980469 25.796875 15.957031 C 25.144531 16.9375 24.539062 17.941406 23.984375 18.980469 C 23.433594 20.015625 22.929688 21.078125 22.480469 22.160156 C 22.03125 23.246094 21.636719 24.351562 21.292969 25.476562 C 20.953125 26.601562 20.667969 27.742188 20.4375 28.894531 C 20.207031 30.046875 20.035156 31.207031 19.921875 32.378906 C 19.804688 33.546875 19.746094 34.71875 19.746094 35.894531 L 19.746094 144.367188 C 18.601562 145.539062 17.515625 146.761719 16.488281 148.039062 C 15.460938 149.316406 14.5 150.640625 13.601562 152.011719 C 12.707031 153.382812 11.878906 154.792969 11.121094 156.246094 C 10.359375 157.695312 9.675781 159.183594 9.058594 160.703125 C 8.445312 162.222656 7.910156 163.765625 7.445312 165.339844 C 6.984375 166.910156 6.597656 168.5 6.289062 170.109375 C 5.984375 171.71875 5.753906 173.339844 5.605469 174.972656 C 5.457031 176.605469 5.390625 178.238281 5.402344 179.878906 C 5.410156 181.515625 5.503906 183.152344 5.671875 184.78125 C 5.84375 186.410156 6.09375 188.027344 6.421875 189.632812 C 6.753906 191.238281 7.160156 192.824219 7.644531 194.390625 C 8.128906 195.957031 8.6875 197.492188 9.320312 199.003906 C 9.953125 200.515625 10.660156 201.992188 11.441406 203.433594 C 12.21875 204.875 13.066406 206.273438 13.980469 207.632812 C 14.898438 208.992188 15.875 210.300781 16.921875 211.566406 C 17.964844 212.828125 19.066406 214.035156 20.226562 215.191406 C 21.390625 216.347656 22.605469 217.441406 23.875 218.476562 C 25.144531 219.511719 26.460938 220.484375 27.824219 221.390625 C 29.1875 222.296875 30.59375 223.136719 32.039062 223.90625 C 33.484375 224.675781 34.964844 225.371094 36.476562 225.996094 C 37.992188 226.621094 39.53125 227.171875 41.097656 227.644531 C 42.667969 228.117188 44.253906 228.511719 45.859375 228.832031 C 47.464844 229.148438 49.085938 229.390625 50.714844 229.550781 C 52.34375 229.710938 53.976562 229.789062 55.613281 229.789062 C 57.253906 229.789062 58.886719 229.710938 60.515625 229.550781 C 62.144531 229.390625 63.761719 229.148438 65.371094 228.832031 C 66.976562 228.511719 68.5625 228.117188 70.128906 227.644531 C 71.699219 227.171875 73.238281 226.621094 74.753906 225.996094 C 76.265625 225.371094 77.746094 224.675781 79.191406 223.90625 C 80.636719 223.136719 82.042969 222.296875 83.40625 221.390625 C 84.769531 220.484375 86.085938 219.511719 87.355469 218.476562 C 88.625 217.441406 89.839844 216.347656 91 215.191406 C 92.164062 214.035156 93.265625 212.828125 94.308594 211.566406 C 95.351562 210.300781 96.332031 208.992188 97.25 207.632812 C 98.164062 206.273438 99.011719 204.875 99.789062 203.433594 C 100.566406 201.992188 101.273438 200.515625 101.910156 199.003906 C 102.542969 197.492188 103.101562 195.957031 103.585938 194.390625 C 104.070312 192.824219 104.476562 191.238281 104.804688 189.632812 C 105.136719 188.027344 105.386719 186.410156 105.554688 184.78125 C 105.726562 183.152344 105.816406 181.515625 105.828125 179.878906 C 105.839844 178.238281 105.769531 176.605469 105.621094 174.972656 C 105.472656 173.339844 105.246094 171.71875 104.9375 170.109375 C 104.632812 168.5 104.246094 166.910156 103.785156 165.339844 C 103.320312 163.765625 102.785156 162.222656 102.167969 160.703125 C 101.554688 159.183594 100.871094 157.695312 100.109375 156.246094 C 99.351562 154.792969 98.523438 153.382812 97.625 152.011719 C 96.730469 150.640625 95.769531 149.316406 94.742188 148.039062 C 93.714844 146.761719 92.628906 145.539062 91.484375 144.367188 Z M 55.613281 215.367188 C 53.808594 215.367188 52.015625 215.234375 50.230469 214.964844 C 48.445312 214.695312 46.691406 214.292969 44.96875 213.757812 C 43.242188 213.226562 41.570312 212.5625 39.945312 211.773438 C 38.320312 210.988281 36.765625 210.082031 35.277344 209.058594 C 33.789062 208.035156 32.386719 206.90625 31.070312 205.667969 C 29.753906 204.433594 28.539062 203.105469 27.421875 201.6875 C 26.304688 200.269531 25.300781 198.773438 24.410156 197.203125 C 23.519531 195.628906 22.753906 194 22.109375 192.3125 C 21.464844 190.625 20.949219 188.898438 20.566406 187.136719 C 20.183594 185.371094 19.933594 183.585938 19.820312 181.785156 C 19.707031 179.980469 19.726562 178.179688 19.886719 176.378906 C 20.042969 174.582031 20.335938 172.804688 20.761719 171.046875 C 21.1875 169.292969 21.746094 167.578125 22.429688 165.910156 C 23.113281 164.238281 23.921875 162.628906 24.847656 161.078125 C 25.777344 159.527344 26.816406 158.058594 27.96875 156.667969 C 29.117188 155.273438 30.367188 153.976562 31.710938 152.773438 C 32.46875 152.09375 33.054688 151.289062 33.472656 150.355469 C 33.886719 149.425781 34.09375 148.453125 34.09375 147.433594 L 34.09375 35.894531 C 34.09375 35.1875 34.128906 34.484375 34.199219 33.785156 C 34.265625 33.082031 34.371094 32.382812 34.507812 31.691406 C 34.644531 31 34.816406 30.316406 35.019531 29.644531 C 35.226562 28.96875 35.460938 28.304688 35.730469 27.652344 C 36 27 36.304688 26.363281 36.636719 25.742188 C 36.96875 25.121094 37.328125 24.515625 37.722656 23.929688 C 38.113281 23.34375 38.53125 22.777344 38.980469 22.230469 C 39.425781 21.6875 39.898438 21.164062 40.398438 20.664062 C 40.894531 20.167969 41.417969 19.695312 41.960938 19.246094 C 42.507812 18.800781 43.074219 18.378906 43.660156 17.988281 C 44.246094 17.59375 44.847656 17.234375 45.46875 16.902344 C 46.089844 16.566406 46.726562 16.265625 47.378906 15.996094 C 48.03125 15.726562 48.691406 15.488281 49.367188 15.285156 C 50.042969 15.082031 50.726562 14.910156 51.417969 14.773438 C 52.109375 14.632812 52.804688 14.53125 53.503906 14.460938 C 54.207031 14.390625 54.910156 14.359375 55.613281 14.359375 C 56.320312 14.359375 57.023438 14.390625 57.722656 14.460938 C 58.425781 14.53125 59.121094 14.632812 59.8125 14.773438 C 60.503906 14.910156 61.1875 15.082031 61.863281 15.285156 C 62.535156 15.488281 63.199219 15.726562 63.851562 15.996094 C 64.5 16.265625 65.136719 16.566406 65.757812 16.902344 C 66.382812 17.234375 66.984375 17.59375 67.570312 17.988281 C 68.15625 18.378906 68.722656 18.800781 69.265625 19.246094 C 69.8125 19.695312 70.335938 20.167969 70.832031 20.664062 C 71.332031 21.164062 71.804688 21.6875 72.25 22.230469 C 72.699219 22.777344 73.117188 23.34375 73.507812 23.929688 C 73.902344 24.515625 74.261719 25.121094 74.59375 25.742188 C 74.925781 26.363281 75.226562 27 75.496094 27.652344 C 75.765625 28.304688 76.003906 28.96875 76.210938 29.644531 C 76.414062 30.316406 76.585938 31 76.722656 31.691406 C 76.859375 32.382812 76.964844 33.082031 77.03125 33.785156 C 77.101562 34.484375 77.136719 35.1875 77.136719 35.894531 L 77.136719 147.433594 C 77.136719 148.453125 77.34375 149.425781 77.757812 150.355469 C 78.171875 151.289062 78.757812 152.09375 79.515625 152.773438 C 80.863281 153.976562 82.113281 155.273438 83.261719 156.667969 C 84.414062 158.058594 85.453125 159.527344 86.378906 161.078125 C 87.308594 162.628906 88.113281 164.238281 88.800781 165.910156 C 89.484375 167.578125 90.039062 169.292969 90.46875 171.046875 C 90.894531 172.804688 91.1875 174.582031 91.34375 176.378906 C 91.5 178.179688 91.523438 179.980469 91.410156 181.785156 C 91.292969 183.585938 91.046875 185.371094 90.664062 187.136719 C 90.277344 188.898438 89.765625 190.625 89.121094 192.3125 C 88.476562 194 87.707031 195.628906 86.816406 197.203125 C 85.929688 198.773438 84.925781 200.269531 83.808594 201.6875 C 82.691406 203.105469 81.476562 204.433594 80.160156 205.667969 C 78.84375 206.90625 77.441406 208.035156 75.953125 209.058594 C 74.464844 210.082031 72.910156 210.988281 71.285156 211.773438 C 69.660156 212.5625 67.988281 213.226562 66.261719 213.757812 C 64.539062 214.292969 62.785156 214.695312 61 214.964844 C 59.214844 215.234375 57.417969 215.367188 55.613281 215.367188 Z M 55.613281 215.367188 " fill-opacity="1" fill-rule="nonzero"/><path fill="#000000" d="M 62.539062 159.179688 C 62.660156 158.773438 62.746094 158.359375 62.789062 157.9375 L 62.789062 43.074219 C 62.789062 42.601562 62.742188 42.136719 62.652344 41.671875 C 62.558594 41.210938 62.421875 40.761719 62.242188 40.324219 C 62.0625 39.890625 61.839844 39.476562 61.578125 39.085938 C 61.316406 38.691406 61.019531 38.332031 60.6875 37.996094 C 60.355469 37.664062 59.992188 37.367188 59.601562 37.105469 C 59.207031 36.84375 58.796875 36.621094 58.359375 36.441406 C 57.925781 36.261719 57.476562 36.125 57.015625 36.03125 C 56.550781 35.941406 56.085938 35.894531 55.613281 35.894531 C 55.144531 35.894531 54.675781 35.941406 54.214844 36.03125 C 53.753906 36.125 53.304688 36.261719 52.871094 36.441406 C 52.433594 36.621094 52.019531 36.84375 51.628906 37.105469 C 51.238281 37.367188 50.875 37.664062 50.542969 37.996094 C 50.210938 38.332031 49.910156 38.691406 49.648438 39.085938 C 49.386719 39.476562 49.167969 39.890625 48.988281 40.324219 C 48.808594 40.761719 48.671875 41.210938 48.578125 41.671875 C 48.488281 42.136719 48.441406 42.601562 48.441406 43.074219 L 48.441406 157.9375 C 48.484375 158.359375 48.566406 158.773438 48.691406 159.179688 C 47.894531 159.449219 47.117188 159.765625 46.355469 160.128906 C 45.597656 160.492188 44.859375 160.898438 44.148438 161.34375 C 43.433594 161.792969 42.75 162.285156 42.09375 162.8125 C 41.441406 163.34375 40.816406 163.910156 40.230469 164.511719 C 39.640625 165.113281 39.089844 165.75 38.574219 166.414062 C 38.058594 167.082031 37.585938 167.777344 37.152344 168.5 C 36.722656 169.222656 36.332031 169.96875 35.988281 170.738281 C 35.640625 171.507812 35.34375 172.292969 35.089844 173.097656 C 34.835938 173.902344 34.628906 174.714844 34.472656 175.542969 C 34.316406 176.371094 34.207031 177.207031 34.148438 178.046875 C 34.089844 178.886719 34.078125 179.730469 34.117188 180.570312 C 34.15625 181.414062 34.246094 182.25 34.382812 183.082031 C 34.519531 183.910156 34.703125 184.734375 34.9375 185.542969 C 35.171875 186.351562 35.453125 187.144531 35.777344 187.921875 C 36.105469 188.699219 36.476562 189.453125 36.890625 190.1875 C 37.304688 190.921875 37.761719 191.625 38.261719 192.304688 C 38.757812 192.984375 39.292969 193.632812 39.867188 194.25 C 40.441406 194.867188 41.050781 195.449219 41.691406 195.992188 C 42.335938 196.539062 43.007812 197.042969 43.707031 197.511719 C 44.410156 197.976562 45.136719 198.398438 45.886719 198.78125 C 46.636719 199.160156 47.410156 199.496094 48.199219 199.789062 C 48.992188 200.078125 49.796875 200.320312 50.613281 200.515625 C 51.433594 200.710938 52.261719 200.859375 53.097656 200.957031 C 53.933594 201.058594 54.773438 201.105469 55.613281 201.105469 C 56.457031 201.105469 57.296875 201.058594 58.132812 200.957031 C 58.96875 200.859375 59.796875 200.710938 60.617188 200.515625 C 61.433594 200.320312 62.238281 200.078125 63.03125 199.789062 C 63.820312 199.496094 64.589844 199.160156 65.34375 198.78125 C 66.09375 198.398438 66.820312 197.976562 67.523438 197.511719 C 68.222656 197.042969 68.894531 196.539062 69.535156 195.992188 C 70.179688 195.449219 70.789062 194.867188 71.359375 194.25 C 71.933594 193.632812 72.472656 192.984375 72.96875 192.304688 C 73.46875 191.625 73.925781 190.921875 74.339844 190.1875 C 74.753906 189.453125 75.125 188.699219 75.453125 187.921875 C 75.777344 187.144531 76.058594 186.351562 76.292969 185.542969 C 76.523438 184.734375 76.710938 183.910156 76.847656 183.082031 C 76.984375 182.25 77.074219 181.414062 77.113281 180.570312 C 77.152344 179.730469 77.140625 178.886719 77.082031 178.046875 C 77.023438 177.207031 76.914062 176.371094 76.757812 175.542969 C 76.597656 174.714844 76.394531 173.902344 76.140625 173.097656 C 75.886719 172.292969 75.589844 171.507812 75.242188 170.738281 C 74.898438 169.96875 74.507812 169.222656 74.074219 168.5 C 73.644531 167.777344 73.167969 167.082031 72.65625 166.414062 C 72.140625 165.75 71.589844 165.113281 71 164.511719 C 70.410156 163.910156 69.789062 163.34375 69.132812 162.8125 C 68.480469 162.285156 67.796875 161.792969 67.082031 161.34375 C 66.371094 160.898438 65.632812 160.492188 64.875 160.128906 C 64.113281 159.765625 63.335938 159.449219 62.539062 159.179688 Z M 55.613281 186.652344 C 55.144531 186.652344 54.675781 186.605469 54.214844 186.511719 C 53.753906 186.421875 53.304688 186.285156 52.871094 186.105469 C 52.433594 185.925781 52.019531 185.703125 51.628906 185.441406 C 51.238281 185.179688 50.875 184.882812 50.542969 184.546875 C 50.210938 184.214844 49.910156 183.851562 49.648438 183.460938 C 49.386719 183.070312 49.167969 182.65625 48.988281 182.21875 C 48.808594 181.785156 48.671875 181.335938 48.578125 180.871094 C 48.488281 180.410156 48.441406 179.945312 48.441406 179.472656 C 48.441406 179 48.488281 178.535156 48.578125 178.070312 C 48.671875 177.609375 48.808594 177.160156 48.988281 176.726562 C 49.167969 176.289062 49.386719 175.875 49.648438 175.484375 C 49.910156 175.09375 50.210938 174.730469 50.542969 174.394531 C 50.875 174.0625 51.238281 173.765625 51.628906 173.503906 C 52.019531 173.242188 52.433594 173.019531 52.871094 172.839844 C 53.304688 172.660156 53.753906 172.523438 54.214844 172.429688 C 54.675781 172.339844 55.144531 172.292969 55.613281 172.292969 C 56.085938 172.292969 56.550781 172.339844 57.015625 172.429688 C 57.476562 172.523438 57.925781 172.660156 58.359375 172.839844 C 58.796875 173.019531 59.207031 173.242188 59.601562 173.503906 C 59.992188 173.765625 60.355469 174.0625 60.6875 174.394531 C 61.019531 174.730469 61.316406 175.09375 61.578125 175.484375 C 61.839844 175.875 62.0625 176.289062 62.242188 176.726562 C 62.421875 177.160156 62.558594 177.609375 62.652344 178.070312 C 62.742188 178.535156 62.789062 179 62.789062 179.472656 C 62.789062 179.945312 62.742188 180.410156 62.652344 180.871094 C 62.558594 181.335938 62.421875 181.785156 62.242188 182.21875 C 62.0625 182.65625 61.839844 183.070312 61.578125 183.460938 C 61.316406 183.851562 61.019531 184.214844 60.6875 184.546875 C 60.355469 184.882812 59.992188 185.179688 59.601562 185.441406 C 59.207031 185.703125 58.796875 185.925781 58.359375 186.105469 C 57.925781 186.285156 57.476562 186.421875 57.015625 186.511719 C 56.550781 186.605469 56.085938 186.652344 55.613281 186.652344 Z M 55.613281 186.652344 " fill-opacity="1" fill-rule="nonzero"/><path fill="#000000" d="M 113.003906 43.074219 L 141.699219 43.074219 C 142.167969 43.074219 142.636719 43.027344 143.097656 42.933594 C 143.558594 42.84375 144.007812 42.707031 144.445312 42.527344 C 144.878906 42.347656 145.292969 42.125 145.683594 41.863281 C 146.074219 41.601562 146.4375 41.304688 146.769531 40.972656 C 147.105469 40.636719 147.402344 40.273438 147.664062 39.882812 C 147.925781 39.492188 148.144531 39.078125 148.324219 38.640625 C 148.507812 38.207031 148.640625 37.757812 148.734375 37.296875 C 148.824219 36.832031 148.871094 36.367188 148.871094 35.894531 C 148.871094 35.421875 148.824219 34.957031 148.734375 34.492188 C 148.640625 34.03125 148.507812 33.582031 148.324219 33.148438 C 148.144531 32.710938 147.925781 32.296875 147.664062 31.90625 C 147.402344 31.515625 147.105469 31.152344 146.769531 30.816406 C 146.4375 30.484375 146.074219 30.1875 145.683594 29.925781 C 145.292969 29.664062 144.878906 29.441406 144.445312 29.261719 C 144.007812 29.082031 143.558594 28.945312 143.097656 28.855469 C 142.636719 28.761719 142.167969 28.714844 141.699219 28.714844 L 113.003906 28.714844 C 112.53125 28.714844 112.066406 28.761719 111.605469 28.855469 C 111.140625 28.945312 110.695312 29.082031 110.257812 29.261719 C 109.824219 29.441406 109.410156 29.664062 109.019531 29.925781 C 108.625 30.1875 108.265625 30.484375 107.929688 30.816406 C 107.597656 31.152344 107.300781 31.515625 107.039062 31.90625 C 106.777344 32.296875 106.554688 32.710938 106.375 33.148438 C 106.195312 33.582031 106.058594 34.03125 105.96875 34.492188 C 105.875 34.957031 105.832031 35.421875 105.832031 35.894531 C 105.832031 36.367188 105.875 36.832031 105.96875 37.296875 C 106.058594 37.757812 106.195312 38.207031 106.375 38.640625 C 106.554688 39.078125 106.777344 39.492188 107.039062 39.882812 C 107.300781 40.273438 107.597656 40.636719 107.929688 40.972656 C 108.265625 41.304688 108.625 41.601562 109.019531 41.863281 C 109.410156 42.125 109.824219 42.347656 110.257812 42.527344 C 110.695312 42.707031 111.140625 42.84375 111.605469 42.933594 C 112.066406 43.027344 112.53125 43.074219 113.003906 43.074219 Z M 113.003906 43.074219 " fill-opacity="1" fill-rule="nonzero"/><path fill="#000000" d="M 113.003906 71.789062 L 127.351562 71.789062 C 127.820312 71.789062 128.289062 71.742188 128.75 71.652344 C 129.210938 71.558594 129.660156 71.421875 130.097656 71.242188 C 130.53125 71.0625 130.945312 70.839844 131.335938 70.578125 C 131.726562 70.316406 132.089844 70.019531 132.421875 69.6875 C 132.757812 69.351562 133.054688 68.992188 133.316406 68.597656 C 133.578125 68.207031 133.796875 67.792969 133.980469 67.355469 C 134.160156 66.921875 134.296875 66.472656 134.386719 66.011719 C 134.480469 65.546875 134.523438 65.082031 134.523438 64.609375 C 134.523438 64.140625 134.480469 63.671875 134.386719 63.210938 C 134.296875 62.746094 134.160156 62.296875 133.980469 61.863281 C 133.796875 61.425781 133.578125 61.011719 133.316406 60.621094 C 133.054688 60.230469 132.757812 59.867188 132.421875 59.535156 C 132.089844 59.199219 131.726562 58.902344 131.335938 58.640625 C 130.945312 58.378906 130.53125 58.15625 130.097656 57.976562 C 129.660156 57.796875 129.210938 57.660156 128.75 57.570312 C 128.289062 57.476562 127.820312 57.429688 127.351562 57.429688 L 113.003906 57.429688 C 112.53125 57.429688 112.066406 57.476562 111.605469 57.570312 C 111.140625 57.660156 110.695312 57.796875 110.257812 57.976562 C 109.824219 58.15625 109.410156 58.378906 109.019531 58.640625 C 108.625 58.902344 108.265625 59.199219 107.929688 59.535156 C 107.597656 59.867188 107.300781 60.230469 107.039062 60.621094 C 106.777344 61.011719 106.554688 61.425781 106.375 61.863281 C 106.195312 62.296875 106.058594 62.746094 105.96875 63.210938 C 105.875 63.671875 105.832031 64.140625 105.832031 64.609375 C 105.832031 65.082031 105.875 65.546875 105.96875 66.011719 C 106.058594 66.472656 106.195312 66.921875 106.375 67.355469 C 106.554688 67.792969 106.777344 68.207031 107.039062 68.597656 C 107.300781 68.992188 107.597656 69.351562 107.929688 69.6875 C 108.265625 70.019531 108.625 70.316406 109.019531 70.578125 C 109.410156 70.839844 109.824219 71.0625 110.257812 71.242188 C 110.695312 71.421875 111.140625 71.558594 111.605469 71.652344 C 112.066406 71.742188 112.53125 71.789062 113.003906 71.789062 Z M 113.003906 71.789062 " fill-opacity="1" fill-rule="nonzero"/><path fill="#000000" d="M 141.699219 86.148438 L 113.003906 86.148438 C 112.53125 86.148438 112.066406 86.191406 111.605469 86.285156 C 111.140625 86.375 110.695312 86.511719 110.257812 86.691406 C 109.824219 86.875 109.410156 87.09375 109.019531 87.355469 C 108.625 87.617188 108.265625 87.917969 107.929688 88.25 C 107.597656 88.582031 107.300781 88.945312 107.039062 89.335938 C 106.777344 89.730469 106.554688 90.144531 106.375 90.578125 C 106.195312 91.015625 106.058594 91.460938 105.96875 91.925781 C 105.875 92.386719 105.832031 92.855469 105.832031 93.324219 C 105.832031 93.796875 105.875 94.265625 105.96875 94.726562 C 106.058594 95.1875 106.195312 95.636719 106.375 96.074219 C 106.554688 96.507812 106.777344 96.921875 107.039062 97.3125 C 107.300781 97.707031 107.597656 98.070312 107.929688 98.402344 C 108.265625 98.734375 108.625 99.03125 109.019531 99.292969 C 109.410156 99.554688 109.824219 99.777344 110.257812 99.957031 C 110.695312 100.136719 111.140625 100.273438 111.605469 100.367188 C 112.066406 100.457031 112.53125 100.503906 113.003906 100.503906 L 141.699219 100.503906 C 142.167969 100.503906 142.636719 100.457031 143.097656 100.367188 C 143.558594 100.273438 144.007812 100.136719 144.445312 99.957031 C 144.878906 99.777344 145.292969 99.554688 145.683594 99.292969 C 146.074219 99.03125 146.4375 98.734375 146.769531 98.402344 C 147.105469 98.070312 147.402344 97.707031 147.664062 97.3125 C 147.925781 96.921875 148.144531 96.507812 148.324219 96.074219 C 148.507812 95.636719 148.640625 95.1875 148.734375 94.726562 C 148.824219 94.265625 148.871094 93.796875 148.871094 93.324219 C 148.871094 92.855469 148.824219 92.386719 148.734375 91.925781 C 148.640625 91.460938 148.507812 91.015625 148.324219 90.578125 C 148.144531 90.144531 147.925781 89.730469 147.664062 89.335938 C 147.402344 88.945312 147.105469 88.582031 146.769531 88.25 C 146.4375 87.917969 146.074219 87.617188 145.683594 87.355469 C 145.292969 87.09375 144.878906 86.875 144.445312 86.691406 C 144.007812 86.511719 143.558594 86.375 143.097656 86.285156 C 142.636719 86.191406 142.167969 86.148438 141.699219 86.148438 Z M 141.699219 86.148438 " fill-opacity="1" fill-rule="nonzero"/><path fill="#000000" d="M 127.351562 114.863281 L 113.003906 114.863281 C 112.53125 114.863281 112.066406 114.910156 111.605469 115 C 111.140625 115.09375 110.695312 115.226562 110.257812 115.410156 C 109.824219 115.589844 109.410156 115.808594 109.019531 116.070312 C 108.625 116.335938 108.265625 116.632812 107.929688 116.964844 C 107.597656 117.296875 107.300781 117.660156 107.039062 118.054688 C 106.777344 118.445312 106.554688 118.859375 106.375 119.292969 C 106.195312 119.730469 106.058594 120.179688 105.96875 120.640625 C 105.875 121.101562 105.832031 121.570312 105.832031 122.042969 C 105.832031 122.511719 105.875 122.980469 105.96875 123.441406 C 106.058594 123.902344 106.195312 124.351562 106.375 124.789062 C 106.554688 125.222656 106.777344 125.636719 107.039062 126.03125 C 107.300781 126.421875 107.597656 126.785156 107.929688 127.117188 C 108.265625 127.449219 108.625 127.75 109.019531 128.011719 C 109.410156 128.273438 109.824219 128.492188 110.257812 128.671875 C 110.695312 128.855469 111.140625 128.992188 111.605469 129.082031 C 112.066406 129.175781 112.53125 129.21875 113.003906 129.21875 L 127.351562 129.21875 C 127.820312 129.21875 128.289062 129.175781 128.75 129.082031 C 129.210938 128.992188 129.660156 128.855469 130.097656 128.671875 C 130.53125 128.492188 130.945312 128.273438 131.335938 128.011719 C 131.726562 127.75 132.089844 127.449219 132.421875 127.117188 C 132.757812 126.785156 133.054688 126.421875 133.316406 126.03125 C 133.578125 125.636719 133.796875 125.222656 133.980469 124.789062 C 134.160156 124.351562 134.296875 123.902344 134.386719 123.441406 C 134.480469 122.980469 134.523438 122.511719 134.523438 122.042969 C 134.523438 121.570312 134.480469 121.101562 134.386719 120.640625 C 134.296875 120.179688 134.160156 119.730469 133.980469 119.292969 C 133.796875 118.859375 133.578125 118.445312 133.316406 118.054688 C 133.054688 117.660156 132.757812 117.296875 132.421875 116.964844 C 132.089844 116.632812 131.726562 116.335938 131.335938 116.070312 C 130.945312 115.808594 130.53125 115.589844 130.097656 115.410156 C 129.660156 115.226562 129.210938 115.09375 128.75 115 C 128.289062 114.910156 127.820312 114.863281 127.351562 114.863281 Z M 127.351562 114.863281 " fill-opacity="1" fill-rule="nonzero"/><g clip-path="url(#5866cf8005)"><g clip-path="url(#aaf1ebff2a)"><g transform="matrix(1, 0, 0, 1, 393, 656)"><g clip-path="url(#b7c923bb66)"><g clip-path="url(#76f1625d44)"><g clip-path="url(#6af3298787)"><path fill="#000000" d="M 0.25 0.824219 L 23.75 0.824219 L 23.75 24.324219 L 0.25 24.324219 Z M 0.25 0.824219 " fill-opacity="1" fill-rule="nonzero"/></g></g></g></g></g></g></svg>