<svg xmlns="http://www.w3.org/2000/svg" xmlns:xlink="http://www.w3.org/1999/xlink" width="1080" zoomAndPan="magnify" viewBox="0 0 810 809.999993" height="1080" preserveAspectRatio="xMidYMid meet" version="1.0"><defs><clipPath id="ac27778f95"><path d="M 0 108.675781 L 810 108.675781 L 810 809.925781 L 0 809.925781 Z M 0 108.675781 " clip-rule="nonzero"/></clipPath><clipPath id="eb25f52762"><path d="M 109 104 L 180 104 L 180 174.75 L 109 174.75 Z M 109 104 " clip-rule="nonzero"/></clipPath><clipPath id="2456281a09"><path d="M 393.25 662.007812 L 416.75 662.007812 L 416.75 685.507812 L 393.25 685.507812 Z M 393.25 662.007812 " clip-rule="nonzero"/></clipPath><clipPath id="6db39c188b"><path d="M 405 662.007812 C 398.511719 662.007812 393.25 667.269531 393.25 673.757812 C 393.25 680.246094 398.511719 685.507812 405 685.507812 C 411.488281 685.507812 416.75 680.246094 416.75 673.757812 C 416.75 667.269531 411.488281 662.007812 405 662.007812 Z M 405 662.007812 " clip-rule="nonzero"/></clipPath><clipPath id="75cac928ef"><path d="M 0.25 0.0078125 L 23.75 0.0078125 L 23.75 23.507812 L 0.25 23.507812 Z M 0.25 0.0078125 " clip-rule="nonzero"/></clipPath><clipPath id="c7d61686c7"><path d="M 12 0.0078125 C 5.511719 0.0078125 0.25 5.269531 0.25 11.757812 C 0.25 18.246094 5.511719 23.507812 12 23.507812 C 18.488281 23.507812 23.75 18.246094 23.75 11.757812 C 23.75 5.269531 18.488281 0.0078125 12 0.0078125 Z M 12 0.0078125 " clip-rule="nonzero"/></clipPath><clipPath id="e3db3af2c3"><rect x="0" width="24" y="0" height="24"/></clipPath></defs><g clip-path="url(#ac27778f95)"><path fill="#000000" d="M 805.167969 337.644531 C 783.117188 315.269531 756.40625 297.421875 727.3125 285.398438 C 648.433594 252.398438 547.113281 264.957031 487.433594 327.988281 C 488.339844 304.089844 483.082031 280.109375 474.160156 257.929688 C 451.375 199.957031 404.757812 151.914062 347.25 127.511719 C 318.445312 115.230469 287.113281 108.722656 255.746094 108.609375 C 247.292969 108.5625 240.429688 115.359375 240.378906 123.828125 C 240.152344 155.242188 246.414062 186.75 258.488281 215.808594 C 291.753906 296.917969 375.546875 360.863281 464.828125 355.019531 C 458.953125 359.792969 453.808594 365.4375 449.089844 371.34375 C 412.171875 415.460938 390.625 469.570312 388.109375 527.105469 C 387.28125 544.726562 388.207031 562.589844 390.589844 580.03125 C 391.09375 583.730469 391.679688 587.445312 392.375 591.144531 C 314.730469 531.632812 194.199219 553.375 147.335938 648.679688 C 67.757812 647.511719 -0.765625 714.246094 0.351562 795.078125 C 0.402344 803.304688 7.105469 809.957031 15.347656 809.910156 C 15.347656 809.910156 276.761719 808.546875 276.761719 808.546875 C 277.960938 808.578125 279.113281 808.449219 280.234375 808.171875 L 524.445312 806.46875 C 525.355469 806.679688 526.3125 806.808594 527.300781 806.792969 C 544.113281 806.679688 560.957031 806.519531 577.78125 806.175781 C 626.542969 805.089844 675.988281 802.28125 724.148438 798.421875 C 725.476562 795.273438 726.03125 790.925781 725.804688 787.308594 C 725.753906 774.425781 722.945312 761.640625 718.015625 749.714844 C 690.476562 685.476562 610.542969 667.710938 557.140625 707.316406 C 552.371094 699.707031 546.953125 692.488281 540.980469 685.753906 C 513.039062 654.164062 472.195312 634.742188 430.167969 632.308594 C 428.578125 629.84375 426.9375 627.425781 425.234375 625.089844 C 424.195312 611.960938 422.558594 598.820312 421.082031 586.164062 C 417.023438 554.542969 417.898438 522.171875 423.628906 490.859375 C 427.847656 469.117188 434.433594 447.519531 443.863281 427.449219 C 443.863281 427.449219 447.96875 418.785156 447.96875 418.785156 C 449.429688 416.09375 453.46875 408.710938 454.863281 406.128906 C 456.570312 403.40625 460.722656 396.703125 462.507812 393.847656 C 469.226562 383.707031 476.917969 374.71875 482.90625 364.351562 C 499.601562 383.707031 521.589844 398.113281 545.070312 408.109375 C 602.171875 433 669.121094 434.003906 727.035156 410.59375 C 756.082031 398.910156 782.855469 381.355469 805.101562 359.257812 C 811.125 353.316406 811.15625 343.648438 805.214844 337.628906 Z M 408.519531 249.867188 C 399.042969 242.03125 388.171875 234.761719 375.757812 232.359375 C 372.804688 232.082031 369.480469 230.867188 366.785156 232.714844 C 364.351562 234.4375 363.785156 237.8125 365.503906 240.246094 C 373.390625 250.789062 383.160156 259.195312 392.863281 267.972656 C 411.636719 285.59375 428.382812 305.777344 444.316406 326.15625 C 447.335938 330.019531 450.386719 334.007812 453.4375 338.035156 C 355.28125 314.246094 280.394531 243.164062 271.875 139.84375 C 365.359375 146.21875 443.019531 213.523438 465.234375 305.484375 C 447.855469 285.496094 429.113281 266.773438 408.519531 249.851562 Z M 516.671875 367.5625 C 513.054688 365.488281 509.289062 363.230469 505.523438 360.925781 C 523.148438 359.046875 540.882812 357.472656 558.503906 356.515625 C 583.882812 355.671875 608.386719 354.777344 633.894531 353.089844 C 635.453125 353.058594 636.945312 352.394531 637.984375 351.09375 C 639.785156 348.824219 639.394531 345.53125 637.125 343.726562 C 631.316406 339.136719 624.695312 336.136719 618.089844 333.75 C 598.585938 326.804688 577.914062 326.253906 557.53125 326.609375 C 544.113281 326.773438 530.726562 327.503906 517.386719 328.640625 C 600.515625 284.183594 696.820312 285.253906 771.578125 348.613281 C 700.667969 410.460938 597.578125 417.585938 516.6875 367.578125 Z M 516.671875 367.5625 " fill-opacity="1" fill-rule="nonzero"/></g><path fill="#000000" d="M 161.238281 56.226562 L 8.230469 56.234375 L 7.859375 140.085938 C 7.832031 146.042969 13.105469 149.625 18.695312 150.074219 L 102.574219 149.875 C 103.875 149.871094 106.851562 151.746094 106.972656 152.824219 C 107.09375 153.902344 106.648438 155.449219 105.902344 157.648438 L 17.046875 157.617188 C 8.320312 157.613281 0.183594 150.082031 0.1875 141.28125 L 0.25 31.261719 C 0.257812 22.445312 9.089844 16.59375 16.878906 16.292969 L 26.777344 15.902344 C 29.886719 15.78125 26.265625 7.542969 31.964844 2.355469 C 34.355469 0.179688 39.273438 -0.621094 42.464844 0.304688 C 54.707031 3.839844 46.734375 16.1875 54.691406 16.175781 L 119.445312 16.089844 C 124.257812 16.085938 118.972656 2.640625 130.027344 0.261719 C 134.71875 -0.75 141.808594 0.726562 142.976562 6.613281 L 144.832031 15.945312 L 152.644531 15.9375 C 161.640625 15.929688 172.210938 21.753906 172.261719 32.808594 L 172.605469 105.296875 C 172.613281 106.472656 169.515625 108.289062 168.457031 107.855469 C 167.398438 107.425781 164.488281 105.402344 164.484375 103.878906 L 164.414062 61.90625 C 164.414062 60.96875 163.570312 56.214844 161.238281 56.214844 Z M 43.148438 28.035156 L 42.910156 10.464844 C 42.894531 9.285156 39.554688 6.632812 38.738281 7.347656 C 38.128906 7.882812 36.003906 9.851562 35.992188 10.660156 L 35.761719 28.292969 C 35.742188 29.671875 38.457031 32.207031 39.828125 32.09375 C 40.851562 32.011719 43.171875 29.332031 43.152344 28.035156 Z M 136.753906 27.65625 L 136.675781 11.550781 C 136.667969 10.019531 133.882812 6.65625 132.652344 7.355469 C 131.664062 7.914062 129.40625 10.5625 129.410156 11.746094 L 129.46875 28.382812 C 129.472656 29.859375 132.363281 32.523438 133.667969 32.09375 C 134.648438 31.769531 136.761719 28.984375 136.753906 27.65625 Z M 131.097656 39.691406 C 119.40625 38.753906 123.941406 24.449219 118.851562 24.449219 L 53.8125 24.429688 C 48.679688 24.429688 53.109375 40.414062 39.226562 39.921875 C 25.296875 39.433594 29.855469 24.394531 26.351562 24.363281 L 15.949219 24.28125 C 6.660156 24.210938 7.089844 40.265625 8.410156 48.472656 L 163.738281 48.464844 C 165.316406 39.332031 165.546875 23.957031 155.160156 24.160156 L 145.433594 24.347656 C 145.054688 25.574219 144.253906 28.511719 144.0625 29.65625 C 142.964844 36.304688 138.671875 40.304688 131.097656 39.695312 Z M 131.097656 39.691406 " fill-opacity="1" fill-rule="nonzero"/><g clip-path="url(#eb25f52762)"><path fill="#000000" d="M 180.074219 139.308594 C 180.074219 158.773438 164.304688 174.558594 144.855469 174.558594 C 125.40625 174.558594 109.636719 158.773438 109.636719 139.308594 C 109.636719 119.839844 125.40625 104.054688 144.855469 104.054688 C 164.304688 104.054688 180.074219 119.839844 180.074219 139.308594 Z M 172.15625 139.257812 C 172.15625 124.164062 159.933594 111.925781 144.851562 111.925781 C 129.769531 111.925781 117.542969 124.164062 117.542969 139.257812 C 117.542969 154.351562 129.769531 166.585938 144.851562 166.585938 C 159.933594 166.585938 172.15625 154.351562 172.15625 139.257812 Z M 172.15625 139.257812 " fill-opacity="1" fill-rule="nonzero"/></g><path fill="#000000" d="M 36.214844 137.632812 L 26.730469 137.824219 C 25.078125 137.859375 21.597656 134.875 21.667969 133.242188 L 22.125 122.449219 C 22.207031 120.523438 27.328125 118.261719 29.269531 118.554688 L 39.761719 120.140625 L 40.234375 134.082031 C 40.265625 134.972656 37.207031 137.613281 36.210938 137.632812 Z M 36.214844 137.632812 " fill-opacity="1" fill-rule="nonzero"/><path fill="#000000" d="M 91.441406 137.671875 L 80.90625 137.621094 C 75.65625 137.597656 75.8125 125.492188 78.261719 121.011719 C 79.953125 117.921875 94.394531 118.125 94.832031 121.449219 C 95.101562 123.480469 97.636719 137.699219 91.441406 137.671875 Z M 91.441406 137.671875 " fill-opacity="1" fill-rule="nonzero"/><path fill="#000000" d="M 67.75 136.601562 L 58.367188 137.984375 C 56.523438 138.253906 51.355469 137.300781 50.238281 135.867188 C 48.746094 132.574219 48.648438 125.25 50.027344 121.675781 C 51.566406 117.679688 63.417969 118.375 67.695312 120.929688 Z M 67.75 136.601562 " fill-opacity="1" fill-rule="nonzero"/><path fill="#000000" d="M 67.171875 66.859375 C 67.710938 69.960938 69.789062 84.230469 63.648438 84.15625 L 54.578125 84.046875 C 46.429688 83.949219 49.347656 72.328125 49.777344 66.84375 C 55.726562 64.761719 61.214844 64.78125 67.171875 66.859375 Z M 67.171875 66.859375 " fill-opacity="1" fill-rule="nonzero"/><path fill="#000000" d="M 118.496094 84.421875 L 104.796875 82.96875 C 104.683594 78.234375 104.589844 72.21875 104.71875 68.910156 C 104.902344 64.21875 118.617188 65.003906 122.488281 66.550781 L 123.246094 80.429688 C 123.304688 81.460938 119.6875 84.546875 118.496094 84.421875 Z M 118.496094 84.421875 " fill-opacity="1" fill-rule="nonzero"/><path fill="#000000" d="M 95.039062 81.394531 C 94.476562 85.285156 80.765625 84.882812 77.445312 82.503906 C 76.863281 78.597656 76.636719 72.074219 77.136719 68.835938 C 77.910156 63.820312 90.78125 64.929688 94.789062 66.640625 C 95.398438 70.976562 95.535156 77.9375 95.039062 81.394531 Z M 95.039062 81.394531 " fill-opacity="1" fill-rule="nonzero"/><path fill="#000000" d="M 95.214844 109.90625 L 83.332031 111.039062 C 81.785156 111.1875 77.460938 109.292969 77.285156 107.847656 C 76.792969 103.765625 74.871094 92.035156 81.808594 92.070312 L 91.492188 92.121094 C 92.664062 92.128906 95.664062 94.882812 95.628906 96.050781 L 95.210938 109.90625 Z M 95.214844 109.90625 " fill-opacity="1" fill-rule="nonzero"/><path fill="#000000" d="M 64.847656 110.859375 L 54.289062 110.78125 C 52.644531 110.769531 49.757812 108.382812 49.117188 107.335938 L 49.128906 97.070312 C 49.128906 95.121094 52.257812 92.140625 54.09375 92.113281 L 64.328125 91.945312 L 68.128906 95.59375 L 68.070312 107.105469 L 64.851562 110.863281 Z M 64.847656 110.859375 " fill-opacity="1" fill-rule="nonzero"/><path fill="#000000" d="M 36.679688 110.902344 L 26.636719 110.78125 C 25.035156 110.761719 22.175781 108.355469 21.578125 107.285156 L 21.570312 96.855469 C 21.570312 95.21875 24.683594 92.167969 26.382812 92.152344 L 36.773438 92.066406 C 37.808594 92.726562 40.183594 95.613281 40.207031 97.039062 L 40.386719 107.226562 L 36.675781 110.90625 Z M 36.679688 110.902344 " fill-opacity="1" fill-rule="nonzero"/><path fill="#000000" d="M 140.203125 84.285156 C 138.367188 84.578125 133.054688 82.765625 132.796875 81.09375 C 132.300781 77.867188 132.4375 71.261719 133.011719 68.066406 C 133.675781 64.394531 146.71875 64.726562 150.441406 67.128906 L 150.328125 82.648438 L 140.203125 84.28125 Z M 140.203125 84.285156 " fill-opacity="1" fill-rule="nonzero"/><path fill="#000000" d="M 120.589844 107.648438 C 117.511719 110.511719 111.03125 111.53125 107.359375 110.058594 C 102.933594 108.28125 103.753906 95.3125 106.308594 93.046875 C 110.308594 91.761719 117.480469 91.359375 120.808594 93.136719 C 125.429688 95.601562 124.355469 104.136719 120.589844 107.648438 Z M 120.589844 107.648438 " fill-opacity="1" fill-rule="nonzero"/><path fill="#000000" d="M 157.96875 144.65625 L 144.203125 144.652344 C 142.789062 144.652344 140.179688 141.832031 140.179688 140.214844 L 140.164062 123.183594 C 140.164062 121.203125 141.753906 118.320312 143.332031 118.160156 C 146.011719 117.890625 148.011719 120.4375 147.992188 123.125 L 147.90625 136.457031 L 158.324219 137.265625 C 159.578125 137.363281 161.734375 139.703125 161.816406 140.859375 C 161.917969 142.246094 159.355469 144.65625 157.964844 144.65625 Z M 157.96875 144.65625 " fill-opacity="1" fill-rule="nonzero"/><g clip-path="url(#2456281a09)"><g clip-path="url(#6db39c188b)"><g transform="matrix(1, 0, 0, 1, 393, 662)"><g clip-path="url(#e3db3af2c3)"><g clip-path="url(#75cac928ef)"><g clip-path="url(#c7d61686c7)"><path fill="#000000" d="M 0.25 0.0078125 L 23.75 0.0078125 L 23.75 23.507812 L 0.25 23.507812 Z M 0.25 0.0078125 " fill-opacity="1" fill-rule="nonzero"/></g></g></g></g></g></g></svg>