<svg xmlns="http://www.w3.org/2000/svg" xmlns:xlink="http://www.w3.org/1999/xlink" width="1080" zoomAndPan="magnify" viewBox="0 0 810 809.999993" height="1080" preserveAspectRatio="xMidYMid meet" version="1.0"><defs><clipPath id="65264edcb8"><path d="M 0 136.6875 L 810 136.6875 L 810 810 L 0 810 Z M 0 136.6875 " clip-rule="nonzero"/></clipPath><clipPath id="adb15d00f1"><path d="M 405 570.40625 L 428.5 570.40625 L 428.5 593.90625 L 405 593.90625 Z M 405 570.40625 " clip-rule="nonzero"/></clipPath><clipPath id="d62f6301b5"><path d="M 416.75 570.40625 C 410.261719 570.40625 405 575.667969 405 582.15625 C 405 588.644531 410.261719 593.90625 416.75 593.90625 C 423.238281 593.90625 428.5 588.644531 428.5 582.15625 C 428.5 575.667969 423.238281 570.40625 416.75 570.40625 Z M 416.75 570.40625 " clip-rule="nonzero"/></clipPath><clipPath id="15ab019929"><path d="M 0 0.40625 L 23.5 0.40625 L 23.5 23.90625 L 0 23.90625 Z M 0 0.40625 " clip-rule="nonzero"/></clipPath><clipPath id="edcfc07c6f"><path d="M 11.75 0.40625 C 5.261719 0.40625 0 5.667969 0 12.15625 C 0 18.644531 5.261719 23.90625 11.75 23.90625 C 18.238281 23.90625 23.5 18.644531 23.5 12.15625 C 23.5 5.667969 18.238281 0.40625 11.75 0.40625 Z M 11.75 0.40625 " clip-rule="nonzero"/></clipPath><clipPath id="bc4fb10131"><rect x="0" width="24" y="0" height="24"/></clipPath></defs><g clip-path="url(#65264edcb8)"><path fill="#000000" d="M 397.878906 344.875 C 382.609375 290.289062 320.726562 136.433594 115.082031 184.695312 C 125.0625 234.140625 173.691406 380.226562 397.878906 344.875 Z M 422.023438 298.707031 C 452.105469 234.21875 524.234375 146.679688 687.871094 191.933594 C 697.125 194.488281 702.835938 203.4375 701.582031 212.65625 C 700.210938 226.484375 677.019531 419.003906 439.882812 384.414062 L 439.882812 626.113281 C 439.882812 652.738281 428.992188 676.964844 411.472656 694.488281 C 394.375 711.589844 370.917969 722.371094 345.058594 722.90625 C 340.070312 745.265625 326.398438 765.109375 306.902344 780.195312 C 283.40625 798.367188 251.265625 809.566406 216.074219 809.566406 C 180.886719 809.566406 148.710938 798.367188 125.25 780.195312 C 100.382812 760.996094 85 734.066406 85 703.972656 C 85 673.878906 100.382812 646.949219 125.25 627.710938 C 148.746094 609.578125 180.886719 598.34375 216.074219 598.34375 C 251.300781 598.34375 283.441406 609.578125 306.902344 627.710938 C 326.398438 642.796875 340.03125 662.566406 345.058594 684.925781 C 360.445312 684.429688 374.421875 677.917969 384.664062 667.671875 C 395.328125 657.003906 401.953125 642.261719 401.953125 626.113281 L 401.953125 524.175781 L 19.117188 524.175781 C 8.605469 524.175781 0.113281 515.683594 0.113281 505.207031 C 0.113281 494.691406 8.605469 486.238281 19.117188 486.238281 L 401.953125 486.238281 L 401.953125 382.664062 C 104.34375 429.023438 76.542969 188.238281 75.097656 173.039062 C 73.878906 163.824219 79.589844 154.871094 88.808594 152.320312 C 303.285156 93.007812 389.730469 219.285156 422.0625 298.707031 Z M 661.328125 224.351562 C 507.515625 190.183594 457.820312 301.222656 444.148438 346.703125 C 611.746094 371.273438 652.035156 265.566406 661.328125 224.351562 Z M 283.746094 657.691406 C 266.6875 644.511719 242.734375 636.320312 216.039062 636.320312 C 189.34375 636.320312 165.425781 644.511719 148.328125 657.691406 C 132.640625 669.84375 122.929688 686.222656 122.929688 703.972656 C 122.929688 721.722656 132.640625 738.105469 148.328125 750.253906 C 165.425781 763.433594 189.34375 771.625 216.039062 771.625 C 242.734375 771.625 266.6875 763.433594 283.746094 750.253906 C 299.4375 738.101562 309.148438 721.761719 309.148438 703.972656 C 309.148438 686.222656 299.4375 669.84375 283.746094 657.691406 Z M 551.882812 524.175781 C 541.371094 524.175781 532.878906 515.683594 532.878906 505.207031 C 532.878906 494.691406 541.371094 486.238281 551.882812 486.238281 L 791.074219 486.238281 C 801.582031 486.238281 810.039062 494.730469 810.039062 505.207031 C 810.039062 515.683594 801.546875 524.175781 791.074219 524.175781 Z M 551.882812 524.175781 " fill-opacity="1" fill-rule="nonzero"/></g><g clip-path="url(#adb15d00f1)"><g clip-path="url(#d62f6301b5)"><g transform="matrix(1, 0, 0, 1, 405, 570)"><g clip-path="url(#bc4fb10131)"><g clip-path="url(#15ab019929)"><g clip-path="url(#edcfc07c6f)"><path fill="#000000" d="M 0 0.40625 L 23.5 0.40625 L 23.5 23.90625 L 0 23.90625 Z M 0 0.40625 " fill-opacity="1" fill-rule="nonzero"/></g></g></g></g></g></g></svg>