<svg xmlns="http://www.w3.org/2000/svg" xmlns:xlink="http://www.w3.org/1999/xlink" width="1080" zoomAndPan="magnify" viewBox="0 0 810 809.999993" height="1080" preserveAspectRatio="xMidYMid meet" version="1.0"><defs><clipPath id="82a1cf8763"><path d="M 0 0.328125 L 558.734375 0.328125 L 558.734375 809.636719 L 0 809.636719 Z M 0 0.328125 " clip-rule="nonzero"/></clipPath></defs><g clip-path="url(#82a1cf8763)"><path fill="#1d191a" d="M 422.109375 415.425781 C 422.199219 415.734375 422.273438 416.046875 422.367188 416.355469 C 419.761719 414.683594 417.117188 413.222656 414.429688 412 C 414.425781 411.957031 414.421875 411.914062 414.417969 411.878906 C 412.015625 381.667969 407.363281 351.160156 413.671875 321.113281 C 421.382812 284.398438 445.394531 257.683594 470.949219 231.789062 C 492.734375 209.714844 511.4375 185.992188 527.167969 159.230469 C 539.03125 139.050781 549.046875 115.660156 546.746094 91.738281 C 545.941406 83.414062 543.753906 75.511719 540.5 68.019531 C 544.699219 73.425781 548.285156 79.292969 551.003906 85.59375 C 556.667969 98.746094 553.992188 113.164062 549.605469 126.210938 C 541.054688 151.636719 523.894531 174.25 508.03125 195.511719 C 496.03125 211.597656 484.289062 227.90625 471.335938 243.246094 C 456.148438 261.238281 440.441406 278.902344 428.367188 299.222656 C 417.332031 317.800781 414.773438 337.242188 414.695312 358.535156 C 414.628906 377.488281 416.695312 397.070312 422.109375 415.425781 Z M 411.875 410.871094 C 411.890625 410.863281 411.910156 410.851562 411.925781 410.84375 C 411.925781 410.855469 411.929688 410.875 411.929688 410.890625 C 411.910156 410.886719 411.894531 410.878906 411.875 410.871094 Z M 423.296875 419.253906 C 423.660156 420.378906 423.988281 421.519531 424.378906 422.625 C 420.300781 420.894531 416.195312 419.464844 412.085938 418.285156 C 411.53125 418.128906 410.976562 417.960938 410.425781 417.808594 C 388.980469 412.0625 367.214844 413.988281 346.398438 425.054688 C 318.597656 439.84375 297.789062 466.242188 279.601562 491.21875 C 259.058594 519.433594 241.316406 549.578125 220.570312 577.648438 C 211.441406 589.996094 200.449219 602.828125 187.875 612.988281 C 230.714844 567.0625 246.570312 501.371094 292.679688 457.457031 C 321.070312 430.417969 370.160156 396.828125 410.863281 413.074219 C 411.429688 413.300781 411.996094 413.53125 412.554688 413.777344 C 415.859375 415.214844 419.101562 416.984375 422.273438 419.128906 C 422.632812 419.375 422.992188 419.375 423.296875 419.253906 Z M 175.777344 621.53125 C 159.441406 631.4375 140.925781 636.015625 120.691406 629.664062 C 120.558594 629.203125 120.367188 628.769531 120.21875 628.3125 C 144.144531 622.738281 165.75 610.171875 183.832031 593.679688 C 203.136719 576.070312 215.921875 552.359375 235.511719 535.15625 C 221.175781 561.832031 207.125 588.75 186.421875 611.179688 C 183.0625 614.816406 179.476562 618.238281 175.777344 621.53125 Z M 109.171875 610.136719 C 139.035156 571.644531 194.195312 564.640625 223.320312 525.328125 C 233.230469 518.917969 242.839844 512.050781 252.410156 505.152344 C 250.0625 508.996094 247.773438 512.886719 245.546875 516.835938 C 242.671875 521.929688 239.871094 527.082031 237.085938 532.246094 C 216.886719 548.9375 204.058594 572.730469 185.175781 590.777344 C 166.925781 608.214844 144.488281 621.449219 119.816406 627.167969 C 117.515625 620.820312 113.761719 615.242188 109.171875 610.136719 Z M 88.128906 591.175781 C 112.179688 571.386719 143.277344 562.164062 171.910156 551.203125 C 186.878906 545.480469 201.257812 538.894531 214.988281 530.59375 C 216.789062 529.5 218.550781 528.347656 220.332031 527.21875 C 190.835938 564.183594 137.605469 571.785156 108.339844 609.257812 C 102.328125 602.761719 95.105469 596.96875 88.128906 591.175781 Z M 71.863281 575.964844 C 68.136719 571.625 65.363281 567.046875 63.246094 562.304688 C 99.5625 540.195312 149.570312 540.789062 176.375 504.066406 C 176.628906 503.722656 176.425781 503.398438 176.125 503.253906 C 191.222656 500.390625 206.34375 497.808594 221.257812 493.929688 C 238.636719 489.417969 255.496094 483.539062 272.074219 476.757812 C 265.753906 484.722656 259.941406 493.09375 254.5 501.773438 C 254.335938 501.777344 254.175781 501.816406 254.023438 501.929688 C 240.582031 511.613281 227.125 521.28125 212.941406 529.859375 C 199.25 538.140625 184.753906 544.492188 169.835938 550.199219 C 141.328125 561.113281 109.984375 569.691406 86.078125 589.464844 C 80.894531 585.109375 75.941406 580.71875 71.863281 575.964844 Z M 56.214844 528.886719 C 72.828125 528.695312 88.871094 523.308594 104.738281 518.941406 C 123.816406 513.699219 143.488281 509.957031 162.847656 505.886719 C 167.027344 505.007812 171.21875 504.191406 175.40625 503.394531 C 175.390625 503.410156 175.371094 503.40625 175.359375 503.421875 C 148.773438 539.839844 98.863281 539.273438 62.78125 561.179688 C 58.472656 550.992188 57.101562 540.054688 56.214844 528.886719 Z M 55.199219 515.378906 C 63.886719 518.972656 75.21875 513.828125 83.792969 511.527344 C 95.316406 508.425781 106.421875 504.214844 118.101562 501.644531 C 134.039062 498.136719 150.265625 495.636719 166.480469 493.835938 C 181.644531 492.148438 196.980469 491.875 212.054688 494.445312 C 196.148438 498.113281 180.050781 500.628906 164.042969 503.914062 C 145.03125 507.8125 125.761719 511.636719 106.996094 516.585938 C 90.289062 520.996094 73.546875 527.042969 56.089844 527.203125 C 55.792969 523.273438 55.527344 519.328125 55.199219 515.378906 Z M 54.890625 511.984375 C 54.632812 509.28125 54.332031 506.585938 53.945312 503.898438 C 76.71875 498.066406 98.808594 489.800781 121.710938 484.433594 C 142.363281 479.59375 164.773438 480.148438 183.164062 468.289062 C 183.433594 468.113281 183.464844 467.839844 183.398438 467.59375 C 223.453125 461.667969 262.398438 449.488281 302.75 445.335938 C 301.882812 446.050781 301.027344 446.769531 300.183594 447.480469 C 290.480469 455.691406 281.828125 464.742188 273.953125 474.414062 C 273.777344 474.359375 273.582031 474.347656 273.371094 474.433594 C 256.25 481.527344 238.835938 487.554688 220.886719 492.285156 C 218.832031 492.828125 216.769531 493.335938 214.703125 493.828125 C 214.632812 493.734375 214.550781 493.644531 214.398438 493.613281 C 199.871094 490.886719 185.152344 490.871094 170.46875 492.222656 C 154.640625 493.683594 138.804688 496.191406 123.222656 499.332031 C 111.242188 501.746094 99.929688 505.507812 88.253906 509 C 82.609375 510.6875 76.886719 512.175781 71.054688 513.0625 C 65.914062 513.847656 59.972656 514.304688 55.152344 511.957031 C 55.066406 511.917969 54.976562 511.929688 54.890625 511.984375 Z M 53.25 499.523438 C 51.910156 492.167969 49.238281 485.851562 45.828125 480.082031 C 55.859375 477.527344 66.132812 476.878906 76.433594 476.191406 C 87.773438 475.433594 99.105469 474.625 110.453125 473.945312 C 132.070312 472.664062 153.695312 471.382812 175.199219 468.710938 C 177.324219 468.449219 179.441406 468.144531 181.5625 467.839844 C 163.5 478.949219 141.589844 478.625 121.445312 483.257812 C 98.578125 488.511719 76.242188 495.425781 53.515625 501.1875 C 53.421875 500.632812 53.347656 500.074219 53.25 499.523438 Z M 34.242188 464.386719 C 65.023438 457.777344 96.792969 462.234375 127.96875 460.109375 C 139.15625 459.347656 150.382812 458.90625 161.515625 457.527344 C 171.523438 456.285156 183.847656 454.554688 191.515625 447.308594 C 191.621094 447.210938 191.6875 447.101562 191.730469 446.988281 C 194.082031 447.003906 196.433594 447.039062 198.785156 447.113281 C 207.28125 447.390625 215.707031 447.359375 224.214844 447.304688 C 233.496094 447.253906 243.070312 447.882812 251.453125 452.195312 C 225.988281 457.574219 200.664062 463.765625 174.824219 467.0625 C 152.460938 469.917969 129.914062 471.105469 107.417969 472.441406 C 96.621094 473.085938 85.84375 473.878906 75.050781 474.597656 C 65.007812 475.273438 53.976562 474.875 44.152344 477.347656 C 41.195312 472.792969 37.796875 468.546875 34.242188 464.386719 Z M 20.886719 448.777344 C 23.777344 448.535156 26.675781 448.15625 29.554688 448 C 34.851562 447.710938 40.148438 447.511719 45.449219 447.355469 C 56.085938 447.039062 66.730469 446.988281 77.367188 447.074219 C 97.894531 447.230469 118.433594 448.648438 138.953125 448.503906 C 155.746094 448.390625 172.503906 447.039062 189.292969 446.996094 C 180.984375 453.921875 167.964844 455.136719 157.722656 456.28125 C 146.085938 457.578125 134.269531 458.160156 122.578125 458.742188 C 92.714844 460.234375 61.132812 454.882812 31.652344 461.394531 C 28.050781 457.257812 24.371094 453.125 20.886719 448.777344 Z M 13.574219 438.601562 C 11.984375 436.050781 10.71875 433.414062 9.613281 430.742188 C 48.742188 429.671875 87.839844 427.757812 126.933594 425.722656 C 146.535156 424.707031 166.136719 423.660156 185.742188 422.679688 C 201.878906 421.875 217.738281 420.71875 233.582031 417.320312 C 249.523438 413.902344 265.816406 408.703125 279.34375 399.351562 C 288.730469 399.6875 298.113281 399.964844 307.488281 400.394531 C 328.671875 401.378906 349.820312 403.445312 370.425781 408.625 C 346.511719 414.03125 323.054688 428.9375 304.949219 443.550781 C 304.808594 443.484375 304.660156 443.445312 304.476562 443.457031 C 287.210938 445.113281 270.203125 448.265625 253.261719 451.8125 C 253.324219 451.519531 253.226562 451.203125 252.875 451.011719 C 237.71875 442.886719 219.882812 446.550781 203.460938 445.640625 C 182.992188 444.507812 162.539062 446.378906 142.074219 446.777344 C 121.074219 447.183594 100.027344 445.625 79.023438 445.402344 C 68.382812 445.285156 57.738281 445.351562 47.101562 445.625 C 41.796875 445.757812 36.496094 445.96875 31.199219 446.226562 C 27.253906 446.421875 22.925781 446.246094 18.867188 446.210938 C 17.007812 443.773438 15.226562 441.25 13.574219 438.601562 Z M 4.851562 407.179688 C 47.542969 405.148438 90.1875 402.515625 132.875 406.15625 C 153.113281 407.882812 173.328125 410.160156 193.675781 409.3125 C 203.226562 408.917969 212.664062 407.464844 222.121094 406.136719 C 231 404.894531 239.835938 403.050781 247.550781 398.273438 C 247.785156 398.128906 247.90625 397.925781 247.949219 397.710938 C 257.695312 398.480469 267.464844 398.921875 277.238281 399.277344 C 264.339844 407.765625 249.238281 412.574219 234.285156 415.929688 C 217.882812 419.617188 201.351562 420.703125 184.609375 421.535156 C 145.351562 423.496094 106.105469 425.722656 66.835938 427.457031 C 47.9375 428.296875 27.394531 427.3125 8.417969 427.757812 C 6.105469 421.15625 5.074219 414.242188 4.851562 407.179688 Z M 5.679688 389.660156 C 22.03125 391.25 38.511719 390.71875 54.902344 391.605469 C 71.136719 392.480469 88.046875 394.679688 102.382812 402.820312 C 69.855469 402 37.320312 403.949219 4.792969 405.5 C 4.722656 400.273438 5.078125 394.972656 5.679688 389.660156 Z M 7.628906 376.109375 C 35.742188 374.292969 63.28125 383.230469 90.996094 386.453125 C 103.59375 387.917969 116.476562 388.867188 129.152344 388.925781 C 140.875 388.988281 153.144531 387.8125 163.695312 382.34375 C 187.078125 388.597656 210.789062 393.695312 234.851562 396.476562 C 238.378906 396.878906 241.910156 397.21875 245.445312 397.519531 C 237.757812 401.875 229.101562 403.457031 220.417969 404.675781 C 210.5625 406.058594 200.765625 407.394531 190.8125 407.734375 C 170.988281 408.414062 151.199219 406.03125 131.480469 404.347656 C 122.835938 403.605469 114.179688 403.1875 105.535156 402.925781 C 105.480469 402.765625 105.382812 402.613281 105.199219 402.5 C 75.953125 384.496094 38.476562 391.113281 5.871094 387.988281 C 6.355469 384.019531 6.964844 380.050781 7.628906 376.109375 Z M 10.238281 361.308594 C 29.421875 367.140625 49.941406 365.628906 69.710938 368.078125 C 77.710938 369.070312 85.621094 370.765625 93.667969 371.394531 C 100.582031 371.933594 108.191406 371.679688 114.238281 367.890625 C 129.8125 372.679688 145.410156 377.398438 161.136719 381.664062 C 150.09375 386.796875 137.480469 387.425781 125.464844 387.195312 C 113.167969 386.960938 100.675781 385.957031 88.464844 384.457031 C 61.839844 381.191406 35.285156 371.070312 8.238281 372.558594 C 8.902344 368.769531 9.585938 365.015625 10.238281 361.308594 Z M 12.21875 348.84375 C 12.574219 346.167969 12.851562 343.488281 13.144531 340.808594 C 38.566406 344.738281 63.214844 352.257812 87.765625 359.757812 C 96.054688 362.285156 104.335938 364.847656 112.621094 367.394531 C 106.414062 370.769531 98.90625 370.652344 92.035156 370.050781 C 84.214844 369.363281 76.5 367.707031 68.710938 366.742188 C 49.367188 364.34375 29.484375 364.285156 10.714844 358.53125 C 11.273438 355.253906 11.800781 352.015625 12.21875 348.84375 Z M 343.304688 383.777344 C 367.226562 386.96875 390.757812 394.800781 411.582031 406.929688 C 411.65625 407.753906 411.730469 408.582031 411.800781 409.40625 C 389.59375 398.90625 366.582031 390.953125 343.304688 383.777344 Z M 14.679688 320.210938 C 14.835938 316.320312 14.90625 312.425781 14.894531 308.523438 C 22.148438 310.25 29.304688 313.285156 36.523438 315.269531 C 45.277344 317.671875 54.160156 319.601562 63.074219 321.289062 C 80.613281 324.613281 98.355469 326.746094 116.085938 328.703125 C 152.691406 332.734375 189.613281 335.882812 225.152344 346.089844 C 227.394531 347.125 229.636719 348.160156 231.890625 349.164062 C 256.292969 359.984375 281.808594 367.25 307.402344 374.609375 C 316.558594 377.238281 325.707031 379.894531 334.828125 382.65625 C 334.917969 382.765625 335.042969 382.847656 335.214844 382.863281 C 335.355469 382.878906 335.496094 382.894531 335.632812 382.910156 C 360.164062 390.355469 384.40625 398.644531 407.726562 409.40625 C 396.453125 405.835938 384.679688 405.792969 372.964844 408.097656 C 372.964844 407.777344 372.792969 407.46875 372.382812 407.363281 C 325.476562 395.207031 276.628906 400.144531 228.941406 394.058594 C 223.09375 393.3125 217.277344 392.417969 211.480469 391.414062 C 150.3125 357.542969 83.6875 331.8125 14.679688 320.210938 Z M 14.570312 323.152344 C 82.371094 334.460938 147.421875 357.785156 207.679688 390.726562 C 193.054688 388.050781 178.585938 384.65625 164.207031 380.820312 C 164.023438 380.632812 163.757812 380.542969 163.453125 380.621094 C 135.222656 373.0625 107.363281 363.882812 79.460938 355.46875 C 57.8125 348.9375 35.910156 341.066406 13.527344 337.46875 C 13.996094 332.703125 14.328125 327.933594 14.570312 323.152344 Z M 106.824219 287.898438 C 126.226562 295.027344 144.667969 304.667969 162.960938 314.289062 C 180.78125 323.664062 198.46875 333.289062 216.597656 342.042969 C 184.664062 333.941406 151.71875 330.875 119.023438 327.328125 C 100.464844 325.3125 81.921875 323.085938 63.5625 319.671875 C 54.636719 318.015625 46.042969 315.074219 37.28125 312.714844 C 30.089844 310.78125 22.167969 306.714844 14.871094 304.859375 C 14.855469 303.808594 14.882812 302.761719 14.851562 301.707031 C 14.664062 295.25 14.230469 288.867188 13.832031 282.503906 C 29.164062 287.792969 45.941406 285.914062 61.980469 286.597656 C 69.757812 286.929688 77.515625 287.378906 85.261719 288.144531 C 92.417969 288.859375 99.746094 289.496094 106.824219 287.898438 Z M 85.300781 286.941406 C 77.886719 286.21875 70.472656 285.761719 63.027344 285.433594 C 46.679688 284.714844 29.664062 284.636719 14.042969 279.167969 C 13.894531 279.117188 13.765625 279.226562 13.652344 279.402344 C 13.429688 275.644531 13.230469 271.886719 13.128906 268.121094 C 38.761719 272.167969 64.558594 275.550781 89.648438 282.355469 C 94.707031 283.726562 99.671875 285.355469 104.585938 287.105469 C 98.222656 288.171875 91.695312 287.570312 85.300781 286.941406 Z M 13.664062 248.421875 C 14.175781 243.191406 15.089844 238.097656 16.363281 233.167969 C 50.050781 234.050781 81.414062 247.125 110.589844 263.125 C 139.875 279.1875 167.667969 297.746094 197.332031 313.15625 C 213.523438 321.570312 230.136719 329.226562 247.296875 335.453125 C 264.390625 341.660156 282.210938 346.5 300.421875 347.585938 C 300.46875 347.585938 300.488281 347.550781 300.53125 347.542969 C 302.390625 348.484375 304.242188 349.441406 306.117188 350.355469 C 341.167969 367.375 381.265625 376.203125 410.535156 403.410156 C 410.769531 403.628906 411.046875 403.667969 411.292969 403.617188 C 411.351562 404.234375 411.402344 404.855469 411.457031 405.472656 C 388.765625 392.40625 362.96875 384.382812 336.929688 381.832031 C 313.132812 374.644531 289.101562 368.101562 265.410156 360.351562 C 251.890625 355.929688 238.800781 350.535156 225.949219 344.621094 C 225.875 344.566406 225.789062 344.515625 225.683594 344.484375 C 225.660156 344.476562 225.632812 344.46875 225.605469 344.464844 C 190.519531 328.285156 157.222656 308.089844 122.027344 292.132812 C 87.769531 276.59375 49.875 270.542969 13.074219 264.699219 C 13.007812 259.3125 13.128906 253.898438 13.664062 248.421875 Z M 30.011719 203.714844 C 84.960938 224.046875 130.574219 261.902344 174.601562 299.261719 C 154.261719 287.542969 134.386719 275.027344 113.875 263.570312 C 83.78125 246.753906 52.1875 230.800781 17.285156 229.863281 C 20.132812 220.316406 24.414062 211.472656 30.011719 203.714844 Z M 40.710938 191.683594 C 136.339844 223.410156 207.605469 299.203125 295.761719 345.121094 C 295.832031 345.203125 295.902344 345.28125 295.96875 345.363281 C 296.1875 345.625 296.457031 345.675781 296.707031 345.621094 C 297.058594 345.800781 297.417969 345.976562 297.773438 346.160156 C 263.714844 343.480469 230.785156 328.898438 200.734375 313.558594 C 193.582031 309.910156 186.546875 306.0625 179.574219 302.109375 C 179.566406 301.992188 179.535156 301.867188 179.402344 301.757812 C 133.832031 263.253906 88.855469 222.035156 32.058594 201 C 34.691406 197.660156 37.578125 194.546875 40.710938 191.683594 Z M 64.757812 176.867188 C 92.082031 191.125 116.882812 209.417969 141.246094 228.195312 C 152.933594 237.203125 164.515625 246.375 176.402344 255.121094 C 187.230469 263.085938 198.871094 270.710938 211.980469 274.238281 C 212.152344 274.28125 212.289062 274.242188 212.410156 274.175781 C 223.667969 282.855469 235.320312 291.070312 246.570312 299.714844 C 263.09375 312.410156 279.027344 325.972656 292.765625 341.671875 C 287.460938 338.847656 282.207031 335.921875 277.003906 332.90625 C 232.019531 306.855469 191.253906 274.320312 148.152344 245.398438 C 115.015625 223.164062 80.117188 203.125 42.160156 190.386719 C 48.710938 184.707031 56.269531 180.113281 64.757812 176.867188 Z M 78.734375 172.929688 C 85.359375 171.691406 92.453125 171.421875 99.449219 172.167969 C 136.660156 196.242188 163.289062 232.007812 196.285156 261.007812 C 200.765625 264.945312 205.398438 268.710938 210.101562 272.382812 C 197.660156 268.550781 186.617188 261.136719 176.207031 253.480469 C 164.601562 244.941406 153.296875 235.980469 141.886719 227.175781 C 117.851562 208.632812 96.679688 189.34375 70.015625 175.078125 C 72.832031 174.222656 75.734375 173.496094 78.734375 172.929688 Z M 124.699219 180.183594 C 137.601562 187.835938 147.035156 200.105469 160.304688 207.332031 C 163.273438 208.949219 166.152344 210.007812 168.84375 210.5625 C 180.105469 224.738281 187.457031 241.480469 195.1875 257.78125 C 163.851562 229.960938 138.238281 196.246094 103.265625 172.691406 C 110.898438 173.921875 118.296875 176.386719 124.699219 180.183594 Z M 172.339844 211.011719 C 184.601562 218.867188 196.929688 226.585938 209.121094 234.519531 C 258.5625 275.332031 294.199219 331.621094 348.742188 366.34375 C 348.410156 366.207031 348.070312 366.070312 347.734375 365.9375 C 335.480469 361.070312 323.171875 356.488281 311.207031 350.917969 C 306.375 348.667969 301.601562 346.273438 296.863281 343.816406 C 283.085938 327.382812 266.84375 313.375 249.96875 300.21875 C 232.496094 286.601562 214.011719 274.1875 197.289062 259.628906 C 197.289062 259.542969 197.324219 259.46875 197.277344 259.375 C 189.324219 242.734375 181.953125 225.507812 170.628906 210.871094 C 171.210938 210.945312 171.78125 210.988281 172.339844 211.011719 Z M 183.148438 189.964844 C 182.832031 189.203125 182.496094 188.449219 182.148438 187.703125 C 220.308594 225.46875 268.011719 253.917969 298.796875 298.65625 C 298.585938 298.484375 298.378906 298.308594 298.171875 298.136719 C 278.210938 281.859375 257.789062 266.144531 236.808594 251.210938 C 216.796875 236.972656 195.972656 224.101562 175.300781 210.898438 C 183.761719 209.820312 188.261719 202.183594 183.148438 189.964844 Z M 176.078125 176.855469 C 172.402344 171.214844 168.222656 165.875 164.054688 160.566406 C 190.886719 182.339844 218.542969 203.09375 244.757812 225.625 C 259.125 237.964844 273.117188 250.816406 285.78125 264.914062 C 298.304688 278.863281 309.78125 293.710938 321.019531 308.699219 C 326.863281 316.496094 332.65625 324.332031 338.496094 332.132812 C 326.507812 321.742188 314.40625 311.488281 302.140625 301.417969 C 302.3125 301.203125 302.367188 300.910156 302.15625 300.597656 C 270.429688 252.722656 215.878906 217.671875 176.078125 176.855469 Z M 141.183594 113.289062 C 141.128906 111.9375 141.152344 110.589844 141.214844 109.246094 C 150.417969 124.378906 163.417969 134.527344 177.390625 145.875 C 193.105469 158.636719 210.121094 169.695312 225.488281 182.894531 C 225.734375 183.109375 226.019531 183.0625 226.242188 182.929688 C 238.339844 203.011719 250.128906 223.320312 264.582031 241.796875 C 238.832031 217.691406 210.769531 196.175781 183.128906 174.3125 C 175.601562 168.351562 168.121094 162.339844 160.6875 156.261719 C 150.828125 143.539062 141.886719 130.503906 141.183594 113.289062 Z M 149.878906 82.382812 C 160.285156 95.707031 171.710938 108.1875 182.6875 121.035156 C 194.15625 134.453125 204.648438 148.492188 214.164062 163.359375 C 217.878906 169.164062 221.476562 175.046875 225.042969 180.953125 C 196 156.363281 161.003906 137.855469 141.765625 103.761719 C 142.957031 96.195312 145.839844 88.925781 149.878906 82.382812 Z M 158.898438 70.832031 C 163.359375 66.25 168.144531 63.171875 173.195312 61.117188 C 184.71875 90.667969 205.707031 115.679688 224.351562 140.921875 C 235.285156 155.722656 246.449219 170.039062 258.675781 183.8125 C 271.066406 197.761719 282.917969 212.476562 297.675781 224.019531 C 297.75 224.078125 297.828125 224.101562 297.902344 224.132812 C 302.984375 232.320312 308.195312 240.433594 313.625 248.394531 C 317.683594 254.351562 321.960938 260.152344 326.1875 265.992188 C 334.117188 278.460938 341.171875 291.492188 347.550781 304.8125 C 355.734375 321.90625 362.773438 339.664062 367.765625 357.96875 C 359.078125 350.191406 350.347656 342.464844 341.550781 334.808594 C 341.640625 334.617188 341.675781 334.390625 341.515625 334.175781 C 318.980469 304.1875 297.339844 273.296875 270.261719 247.140625 C 270.253906 247.03125 270.253906 246.917969 270.164062 246.816406 C 248.195312 220.457031 232.550781 189.71875 214.0625 160.972656 C 204.851562 146.660156 194.613281 133.179688 183.582031 120.222656 C 172.550781 107.269531 161.03125 94.738281 150.574219 81.3125 C 153.011719 77.539062 155.8125 74.007812 158.898438 70.832031 Z M 207.332031 58.023438 C 210.46875 58.261719 213.386719 58.207031 216.164062 57.875 C 217.339844 60.699219 219.074219 63.191406 221.066406 65.644531 C 225.035156 70.53125 228.472656 75.390625 231.355469 81.019531 C 237.125 92.265625 240.738281 104.515625 245.058594 116.355469 C 253.574219 139.691406 263.75 162.410156 275.207031 184.449219 C 281.453125 196.464844 288.164062 208.238281 295.207031 219.800781 C 281.726562 208.488281 270.523438 194.609375 258.875 181.488281 C 247 168.117188 236.191406 154.171875 225.601562 139.785156 C 207.097656 114.652344 186.261719 89.878906 174.765625 60.511719 C 184.753906 56.914062 195.742188 57.140625 207.332031 58.023438 Z M 234.558594 50.148438 C 261.140625 85.667969 265.980469 129.117188 269.992188 170.335938 C 269.773438 169.894531 269.539062 169.46875 269.328125 169.027344 C 258.1875 146.21875 249.199219 122.699219 240.609375 98.84375 C 237.640625 90.617188 234.351562 82.507812 229.96875 74.925781 C 226.484375 68.894531 220.664062 63.976562 217.882812 57.585938 C 223.9375 56.574219 229.308594 54.144531 234.558594 50.148438 Z M 263.292969 31.15625 C 272.457031 70.625 290.449219 108.445312 308.03125 144.792969 C 316.628906 162.566406 328.300781 178.464844 337.226562 196.035156 C 342.242188 205.917969 345.234375 216.65625 348.640625 227.164062 C 351.945312 237.363281 355.351562 247.523438 359.238281 257.511719 C 359.320312 257.71875 359.457031 257.839844 359.605469 257.910156 C 361.214844 271.835938 363.035156 285.730469 366.035156 299.449219 C 373.207031 332.300781 388.664062 362.660156 409.832031 388.699219 C 409.871094 388.75 409.914062 388.765625 409.957031 388.800781 C 410.082031 390.179688 410.199219 391.550781 410.328125 392.925781 C 398.296875 381.738281 386.046875 370.785156 373.777344 359.847656 C 367.09375 337.828125 358.53125 316.382812 347.546875 296.140625 C 335.632812 274.183594 319.582031 254.847656 306.011719 233.929688 C 293.140625 214.085938 281.480469 193.464844 270.972656 172.273438 C 271.183594 172.15625 271.347656 171.9375 271.320312 171.640625 C 267.234375 129.476562 262 83.574219 237.722656 47.570312 C 246.035156 40.277344 253.90625 34.15625 263.292969 31.15625 Z M 275.539062 29.195312 C 275.542969 29.199219 275.542969 29.203125 275.546875 29.207031 C 278.046875 34.96875 281.269531 40.300781 284.683594 45.566406 C 288.242188 51.058594 291.246094 56.941406 294.460938 62.644531 C 300.675781 73.660156 306.828125 84.707031 312.066406 96.222656 C 316.96875 107.011719 320.539062 118.363281 325.035156 129.324219 C 325.371094 130.144531 325.722656 130.949219 326.0625 131.765625 C 313.285156 120.640625 303.039062 106.773438 294.035156 92.515625 C 286.132812 80 279.195312 66.863281 272.90625 53.453125 C 270.613281 45.769531 268.492188 38.042969 266.707031 30.214844 C 269.496094 29.585938 272.425781 29.230469 275.539062 29.195312 Z M 358.914062 251.882812 C 355.644531 243.089844 352.683594 234.191406 349.792969 225.265625 C 346.792969 216.011719 344.082031 206.644531 339.960938 197.800781 C 331.683594 180.039062 319.488281 164.410156 310.875 146.78125 C 297.261719 118.917969 284.53125 90.320312 275.082031 60.707031 C 280.671875 72.085938 286.746094 83.226562 293.519531 93.941406 C 302.859375 108.734375 313.644531 123.023438 327.125 134.289062 C 330.941406 143.386719 334.875 152.429688 338.617188 161.558594 C 343.136719 172.578125 347.292969 183.761719 350.394531 195.273438 C 353.445312 206.566406 354.914062 218.253906 356.363281 229.84375 C 357.28125 237.179688 358.089844 244.53125 358.914062 251.882812 Z M 279.484375 29.296875 C 286.144531 29.769531 292.660156 30.9375 299.210938 31.910156 C 303.871094 48.25 313.105469 64.15625 320.617188 79.238281 C 328.59375 95.265625 336.644531 111.265625 343.707031 127.722656 C 358.496094 162.195312 366.4375 199.140625 373.339844 235.878906 C 377.671875 258.960938 380.742188 282.285156 385.546875 305.277344 C 389.9375 326.320312 395.824219 348.316406 408.25 366.191406 C 408.273438 366.222656 408.3125 366.222656 408.339844 366.25 C 408.386719 367.34375 408.425781 368.433594 408.488281 369.523438 C 408.679688 372.988281 408.921875 376.445312 409.191406 379.902344 C 394.230469 365.238281 388.550781 344.390625 376.207031 327.835938 C 375.183594 325.167969 374.199219 322.484375 373.304688 319.769531 C 365.902344 297.441406 363.042969 273.996094 360.449219 250.714844 C 357.855469 227.4375 355.566406 204.191406 348.089844 181.871094 C 340.84375 160.246094 330.714844 139.734375 322.515625 118.480469 C 319.730469 111.253906 317.292969 103.941406 314.1875 96.835938 C 310.742188 88.949219 306.726562 81.3125 302.605469 73.765625 C 298.5 66.25 294.21875 58.835938 290.0625 51.351562 C 285.921875 43.894531 280.929688 37.011719 277.414062 29.214844 C 278.101562 29.234375 278.78125 29.246094 279.484375 29.296875 Z M 315.074219 33.410156 C 317.363281 33.4375 319.605469 33.269531 321.820312 33.011719 C 323.207031 42.585938 327.363281 51.964844 331.640625 60.488281 C 333.808594 64.808594 336.222656 68.996094 338.753906 73.117188 C 347.882812 107.3125 359.460938 141.007812 361.488281 176.554688 C 360.464844 172.636719 359.425781 168.726562 358.332031 164.832031 C 351.824219 141.617188 341.8125 119.570312 331.253906 97.96875 C 320.769531 76.523438 308.347656 55.449219 301.996094 32.308594 C 306.3125 32.902344 310.652344 33.355469 315.074219 33.410156 Z M 348.210938 24.152344 C 349.421875 23.515625 350.617188 22.871094 351.816406 22.234375 C 348.46875 60.378906 367.292969 95.429688 371.957031 132.882812 C 371.59375 131.855469 371.253906 130.816406 370.878906 129.796875 C 366.554688 118.070312 361.277344 106.699219 355.023438 95.878906 C 348.730469 84.980469 341.367188 74.734375 335.257812 63.71875 C 330.082031 54.386719 325.003906 43.613281 323.492188 32.824219 C 332.167969 31.546875 340.34375 28.285156 348.210938 24.152344 Z M 355.738281 20.148438 C 362.425781 16.582031 369.050781 13.164062 376.074219 10.449219 C 375.027344 26.191406 378.285156 41.679688 380.117188 57.386719 C 381.113281 65.972656 382.238281 74.550781 383.125 83.152344 C 384.085938 92.472656 384.480469 101.828125 385.351562 111.152344 C 387.089844 129.78125 389.714844 148.324219 390.460938 167.035156 C 391.074219 182.292969 390.152344 197.558594 390.1875 212.820312 C 389.722656 209.476562 389.296875 206.128906 388.777344 202.800781 C 385.464844 181.511719 381.027344 160.300781 374.335938 139.804688 C 371.0625 99.503906 351.613281 61.058594 355.738281 20.148438 Z M 340.96875 76.679688 C 344.367188 82.070312 347.886719 87.394531 351.222656 92.808594 C 360.34375 107.625 367.277344 123.644531 372.691406 140.167969 C 372.703125 140.316406 372.722656 140.457031 372.734375 140.601562 C 372.753906 140.859375 372.867188 141.054688 373.023438 141.191406 C 375.40625 148.558594 377.519531 156.011719 379.335938 163.515625 C 385.449219 188.75 389.164062 214.484375 391.921875 240.277344 C 394.550781 264.875 395.492188 289.703125 398.632812 314.230469 C 400.238281 326.714844 403.179688 338.960938 408.203125 350.519531 C 408.078125 354.988281 408.089844 359.472656 408.238281 363.960938 C 399.75 351.140625 394.609375 336.367188 390.640625 321.609375 C 386.425781 305.90625 383.691406 289.847656 381.117188 273.8125 C 376.140625 242.847656 370.445312 211.941406 362.753906 181.527344 C 362.859375 181.433594 362.929688 181.292969 362.921875 181.101562 C 361.722656 145.109375 350.332031 111.109375 340.96875 76.679688 Z M 409.699219 385.789062 C 396.863281 369.691406 386.066406 351.839844 378.203125 332.789062 C 388.859375 348.910156 394.769531 368.050781 409.167969 381.585938 C 409.21875 381.636719 409.285156 381.625 409.34375 381.652344 C 409.457031 383.03125 409.578125 384.410156 409.699219 385.789062 Z M 375.238281 364.664062 C 374.980469 363.789062 374.707031 362.921875 374.445312 362.054688 C 386.546875 372.84375 398.632812 383.65625 410.492188 394.714844 C 410.558594 395.488281 410.632812 396.265625 410.703125 397.03125 C 398.9375 386.183594 387.128906 375.382812 375.238281 364.664062 Z M 369.429688 359.453125 C 364.382812 340.417969 357.066406 322.015625 348.621094 304.257812 C 344.851562 296.335938 340.804688 288.527344 336.488281 280.875 C 342.925781 290.796875 348.582031 301.226562 353.671875 311.898438 C 361.4375 328.191406 367.699219 345.191406 372.828125 362.488281 C 371.699219 361.46875 370.5625 360.464844 369.429688 359.453125 Z M 373.816406 365.621094 C 373.90625 365.765625 374.023438 365.875 374.164062 365.9375 C 386.3125 376.90625 398.394531 387.960938 410.425781 399.0625 C 410.578125 399.199219 410.746094 399.253906 410.914062 399.273438 C 410.984375 400.078125 411.054688 400.882812 411.128906 401.6875 C 394.796875 386.738281 374.691406 376.964844 354.335938 368.609375 C 354.316406 368.464844 354.230469 368.332031 354.070312 368.234375 C 299.660156 335.507812 264.195312 281.125 217.117188 239.773438 C 222.996094 243.671875 228.832031 247.640625 234.605469 251.714844 C 255.191406 266.265625 275.167969 281.660156 294.753906 297.523438 C 321.792969 319.421875 347.988281 342.316406 373.816406 365.621094 Z M 379.507812 9.210938 C 382.125 8.3125 384.785156 7.484375 387.558594 6.828125 C 388.21875 6.671875 388.867188 6.558594 389.523438 6.421875 C 382.578125 69.71875 393.425781 134.460938 409.617188 195.746094 C 409.648438 195.878906 409.742188 195.945312 409.828125 196.019531 C 410.039062 200.214844 410.226562 204.417969 410.367188 208.617188 C 410.726562 219.664062 410.863281 230.761719 410.179688 241.800781 C 409.589844 251.289062 408.515625 260.734375 407.703125 270.199219 C 406.160156 288.140625 405.449219 306.710938 410.855469 324.101562 C 409.511719 331.453125 408.710938 338.917969 408.351562 346.445312 C 399.90625 324.964844 399.148438 301.902344 397.207031 279.097656 C 395.617188 260.429688 393.933594 241.761719 391.609375 223.171875 C 390.890625 205.230469 392.15625 187.28125 391.742188 169.335938 C 391.320312 150.945312 388.699219 132.664062 386.863281 114.386719 C 385.921875 104.980469 385.492188 95.546875 384.621094 86.136719 C 383.847656 77.820312 382.78125 69.53125 381.78125 61.234375 C 379.695312 43.976562 377.957031 26.59375 379.507812 9.210938 Z M 393.03125 5.792969 C 396.398438 5.28125 399.707031 5.039062 402.957031 5.058594 C 395.539062 36.503906 400.96875 68.742188 403.746094 100.582031 C 405.261719 117.972656 405.886719 135.402344 407.0625 152.808594 C 407.90625 165.382812 408.824219 177.949219 409.53125 190.53125 C 394.15625 130.644531 386.15625 67.449219 393.03125 5.792969 Z M 416.976562 6.777344 C 404.609375 31.671875 412.972656 61.21875 403.707031 86.976562 C 401.207031 59.554688 399.152344 31.953125 405.449219 5.117188 C 409.367188 5.300781 413.207031 5.871094 416.976562 6.777344 Z M 424.363281 9.015625 C 418.691406 30.964844 420.664062 56.398438 421.371094 78.753906 C 422.128906 102.636719 423.964844 126.507812 425.367188 150.363281 C 428.148438 197.910156 429.734375 245.902344 420.453125 292.859375 C 416.257812 302.121094 413.3125 311.734375 411.34375 321.5625 C 403.285156 292.875 411.113281 262.574219 411.753906 233.40625 C 412.5625 196.308594 408.449219 159.199219 406.535156 122.183594 C 405.984375 111.453125 404.960938 100.628906 403.964844 89.773438 C 403.972656 89.753906 403.988281 89.753906 403.996094 89.738281 C 414.597656 63.457031 407.035156 33.109375 419.898438 7.542969 C 421.398438 7.976562 422.882812 8.472656 424.363281 9.015625 Z M 442.113281 18.152344 C 447.519531 21.75 452.863281 24.136719 458.367188 25.875 C 451.84375 41.097656 450.324219 57.632812 449.433594 74.019531 C 448.574219 89.808594 447.714844 105.554688 447.457031 121.363281 C 447.1875 137.710938 446.898438 154.078125 445.019531 170.328125 C 443.191406 186.164062 439.710938 202.183594 432.042969 216.289062 C 431.148438 217.945312 430.148438 219.535156 429.113281 221.113281 C 429.472656 198.554688 428.511719 175.933594 427.226562 153.402344 C 425.859375 129.539062 424.109375 105.679688 423.164062 81.796875 C 422.234375 58.136719 422.453125 33.800781 428.957031 10.859375 C 433.429688 12.839844 437.808594 15.289062 442.113281 18.152344 Z M 469.488281 28.542969 C 461.214844 47.265625 458.335938 67.613281 457.074219 87.945312 C 455.761719 109.050781 455.253906 130.292969 454.625 151.433594 C 454.570312 153.292969 454.515625 155.152344 454.460938 157.015625 C 454.441406 157.074219 454.417969 157.136719 454.398438 157.199219 C 454.304688 157.449219 454.335938 157.664062 454.4375 157.835938 C 453.882812 176.867188 453.269531 195.910156 450.828125 214.808594 C 448.433594 233.347656 444.117188 252.308594 434.832031 268.691406 C 431.371094 273.398438 428.121094 278.28125 425.210938 283.445312 C 424.53125 284.65625 423.898438 285.878906 423.261719 287.101562 C 427.007812 265.996094 428.65625 244.699219 429.082031 223.34375 C 446.644531 197.765625 447.722656 163.878906 448.429688 133.953125 C 448.796875 118.425781 449.003906 102.941406 449.933594 87.433594 C 450.976562 70.109375 451.113281 52.570312 456.007812 35.769531 C 456.957031 32.515625 458.164062 29.34375 459.507812 26.234375 C 462.753906 27.199219 466.066406 27.945312 469.488281 28.542969 Z M 480.710938 30.097656 C 482.289062 30.273438 483.851562 30.546875 485.40625 30.878906 C 481.769531 72.316406 470.199219 112.6875 456.328125 151.789062 C 456.886719 132.910156 457.5625 114.023438 458.386719 95.160156 C 459.375 72.582031 461.878906 49.628906 471.203125 28.832031 C 474.269531 29.324219 477.421875 29.730469 480.710938 30.097656 Z M 498.886719 35.46875 C 485.140625 66.3125 474.335938 98.855469 469.886719 132.398438 C 465.84375 162.871094 464.691406 194.601562 451.34375 222.804688 C 451.402344 222.410156 451.476562 222.023438 451.535156 221.628906 C 454.933594 200.582031 455.523438 179.167969 456.128906 157.898438 C 456.132812 157.699219 456.140625 157.507812 456.148438 157.308594 C 470.816406 116.636719 485.386719 75.042969 489.316406 31.835938 C 492.566406 32.78125 495.757812 34.019531 498.886719 35.46875 Z M 505.683594 38.976562 C 497.671875 53.933594 492.90625 70.378906 489.050781 86.835938 C 485.246094 103.066406 481.835938 119.480469 479.515625 135.992188 C 474.8125 169.417969 473.644531 204.792969 459.214844 235.894531 C 457.5 239.597656 455.527344 243.171875 453.371094 246.636719 C 453.351562 246.664062 453.371094 246.691406 453.355469 246.71875 C 448.863281 251.515625 444.492188 256.40625 440.355469 261.5 C 445.382812 250.402344 448.523438 238.464844 450.703125 226.453125 C 450.847656 226.425781 450.980469 226.34375 451.074219 226.164062 C 465.304688 198.042969 466.875 166.152344 470.707031 135.445312 C 475.003906 100.980469 485.875 67.640625 499.96875 35.976562 C 501.90625 36.910156 503.808594 37.910156 505.683594 38.976562 Z M 518.839844 47.605469 C 509.234375 86.246094 497.617188 125.953125 477.65625 160.484375 C 477.957031 157.941406 478.253906 155.410156 478.558594 152.894531 C 480.582031 136.160156 483.316406 119.699219 486.71875 103.191406 C 490.398438 85.359375 495.269531 68.480469 502.25 51.605469 C 503.863281 47.699219 505.949219 44.03125 508.027344 40.355469 C 511.777344 42.613281 515.394531 45.082031 518.839844 47.605469 Z M 523.546875 51.152344 C 527.1875 53.96875 530.613281 57.066406 533.828125 60.367188 C 507.773438 111.582031 507.070312 175.550781 474.90625 223.765625 C 473.347656 225.527344 471.800781 227.292969 470.214844 229.023438 C 470.074219 229.167969 470.050781 229.332031 470.066406 229.488281 C 465.671875 233.96875 461.265625 238.429688 456.929688 242.953125 C 470.378906 218.894531 474.105469 190.460938 477.335938 163.210938 C 477.429688 163.164062 477.53125 163.132812 477.601562 163.015625 C 498.230469 127.90625 511.628906 88.960938 521.484375 49.578125 C 522.175781 50.105469 522.867188 50.632812 523.546875 51.152344 Z M 542.164062 81.421875 C 545.855469 97.285156 544.421875 113.847656 538.429688 130.464844 C 533.898438 143.039062 527.242188 154.792969 520.183594 166.097656 C 512.578125 178.28125 504.464844 190.410156 495.492188 201.632812 C 491.6875 206.398438 487.652344 210.976562 483.523438 215.453125 C 497.722656 198.144531 510.246094 179.367188 520.683594 159.621094 C 527.21875 147.246094 533.230469 134.316406 536.128906 120.5625 C 538.859375 107.628906 539.429688 94.351562 542.164062 81.421875 Z M 536.3125 64.984375 C 538.511719 69.542969 540.230469 74.1875 541.496094 78.894531 C 538.476562 91.839844 537.792969 105.160156 535.375 118.214844 C 532.753906 132.3125 526.703125 145.421875 520.136719 158.070312 C 509.175781 179.1875 495.660156 199.21875 480.300781 217.496094 C 508.191406 170.816406 512.035156 113.515625 536.3125 64.984375 Z M 473.558594 461.265625 C 491.863281 484.507812 505.0625 512.117188 515.351562 539.71875 C 522.554688 559.042969 527.019531 579.195312 529.789062 599.613281 C 529.75 599.699219 529.664062 599.738281 529.65625 599.863281 C 529.121094 607.777344 528.300781 615.542969 528.261719 623.5 C 528.222656 632.515625 528.667969 641.53125 529.03125 650.539062 C 529.800781 669.667969 529.710938 688.414062 525.839844 707.234375 C 522.203125 724.949219 517.894531 742.601562 509.316406 758.652344 C 501.085938 774.050781 494.800781 790.167969 489.722656 806.855469 C 486.015625 807.421875 482.273438 807.527344 478.875 806.203125 C 485.230469 790.234375 493.339844 775.394531 501.453125 760.277344 C 508.476562 747.183594 513.71875 733.191406 517.753906 718.914062 C 526.167969 689.128906 528.210938 657.710938 526.445312 626.914062 C 523.429688 574.257812 509.140625 521.246094 480.382812 476.71875 C 468.019531 457.578125 451.1875 437.757812 430.613281 426.492188 C 430.636719 426.140625 430.609375 425.78125 430.457031 425.398438 C 430.039062 424.339844 429.660156 423.257812 429.261719 422.183594 C 446.257812 432.203125 461.085938 445.4375 473.558594 461.265625 Z M 530.808594 607.699219 C 532.40625 621.699219 533.273438 635.785156 533.722656 649.792969 C 534.953125 687.925781 530.589844 723.386719 516.316406 759.285156 C 510.0625 775.019531 499.875 788.214844 497.761719 805.203125 C 495.796875 805.636719 493.722656 806.132812 491.621094 806.53125 C 496.785156 789.695312 503.273438 773.59375 511.582031 758.054688 C 519.710938 742.84375 523.722656 725.789062 527.222656 709.035156 C 530.960938 691.125 531.554688 673.4375 530.921875 655.191406 C 530.613281 646.164062 530.148438 637.144531 530.003906 628.117188 C 529.894531 621.246094 530.324219 614.488281 530.808594 607.699219 Z M 472.28125 249.535156 C 487.675781 231.449219 501.640625 212.226562 515.78125 193.15625 C 530.851562 172.832031 545.484375 151.523438 554.21875 127.613281 C 561.644531 107.289062 560.296875 86.777344 547.304688 68.992188 C 532.785156 49.117188 509.601562 31.261719 485.214844 25.9375 C 477.988281 24.363281 470.546875 24.453125 463.300781 22.839844 C 453.660156 20.691406 445.851562 14.746094 437.730469 9.507812 C 425.726562 1.769531 411.671875 -0.335938 397.644531 0.496094 C 370.199219 2.128906 350.804688 22.589844 324.828125 27.757812 C 301.074219 32.480469 278.140625 18.363281 255.066406 28.726562 C 240.074219 35.457031 231.601562 52.066406 214.222656 53.347656 C 200.941406 54.328125 188.011719 49.6875 175.066406 54.882812 C 152.269531 64.035156 138.238281 85.664062 136.417969 109.820312 C 134.214844 139.117188 158.339844 157.277344 172.488281 179.644531 C 175.832031 184.925781 178.554688 190.636719 180.285156 196.640625 C 184.875 212.558594 162.890625 203.5 157.355469 200.003906 C 144.695312 192.007812 135.335938 179.871094 121.792969 173.109375 C 100.433594 162.4375 72.640625 166.402344 52.222656 176.949219 C 26.679688 190.144531 13.695312 216.925781 9.359375 244.1875 C 6.769531 260.457031 8.128906 276.898438 9.546875 293.191406 C 11.042969 310.402344 9.875 327.726562 7.875 344.839844 C 4.652344 372.488281 -5.589844 402.511719 4.003906 429.796875 C 12.996094 455.367188 39.335938 468.648438 47.21875 495.007812 C 54.683594 519.945312 48.058594 545.960938 61.449219 569.578125 C 74.96875 593.425781 110.113281 605.253906 116.550781 632.625 C 116.914062 634.167969 118.308594 634.640625 119.5 634.339844 C 189.316406 656.089844 235.164062 565.410156 266.1875 519.035156 C 301.59375 466.113281 353.265625 394.460938 425.6875 428.417969 C 426.121094 428.621094 426.539062 428.65625 426.945312 428.628906 C 427.765625 429.203125 428.890625 428.980469 429.683594 428.316406 C 460.117188 444.707031 482.367188 480.921875 495.972656 509.835938 C 507.261719 533.835938 514.332031 559.617188 519.070312 585.65625 C 524.824219 617.285156 526.347656 649.820312 522.585938 681.769531 C 520.0625 703.234375 514.75 724.375 506.390625 744.308594 C 502.214844 754.265625 496.78125 763.464844 491.671875 772.9375 C 485.902344 783.632812 480.785156 794.667969 476.351562 805.976562 C 476.085938 806.265625 475.957031 806.679688 476.019531 807.0625 C 476.019531 807.09375 476.023438 807.117188 476.023438 807.144531 C 476.027344 807.160156 476.03125 807.179688 476.035156 807.195312 C 476.132812 807.953125 476.9375 808.457031 477.585938 808.277344 C 484.179688 811.066406 491.746094 808.933594 498.445312 807.488281 C 498.859375 807.402344 499.132812 807.140625 499.296875 806.835938 C 499.683594 806.738281 500.007812 806.464844 500.066406 805.9375 C 502.152344 788.386719 512.785156 774.65625 519.230469 758.441406 C 525.71875 742.117188 530.125 728.792969 532.722656 711.464844 C 535.382812 693.695312 536.636719 674.136719 536.285156 656.222656 C 535.929688 637.816406 534.769531 619.425781 532.402344 601.160156 C 528.035156 567.417969 517.820312 535.652344 503.039062 505.085938 C 491.199219 480.601562 476.253906 457.441406 456.222656 438.859375 C 447.65625 430.90625 438.128906 424.125 427.953125 418.496094 C 418.457031 390.351562 416.765625 357.203125 421.707031 328.402344 C 426.886719 298.230469 453.277344 271.859375 472.28125 249.535156 " fill-opacity="1" fill-rule="nonzero"/></g></svg>