<svg xmlns="http://www.w3.org/2000/svg" xmlns:xlink="http://www.w3.org/1999/xlink" width="1080" zoomAndPan="magnify" viewBox="0 0 810 809.999993" height="1080" preserveAspectRatio="xMidYMid meet" version="1.0"><defs><clipPath id="93e3199700"><path d="M 0 34 L 336 34 L 336 705.75 L 0 705.75 Z M 0 34 " clip-rule="nonzero"/></clipPath><clipPath id="5c185a800e"><path d="M 575.589844 622.253906 L 599.089844 622.253906 L 599.089844 645.753906 L 575.589844 645.753906 Z M 575.589844 622.253906 " clip-rule="nonzero"/></clipPath><clipPath id="9d25c0eacd"><path d="M 587.339844 622.253906 C 580.851562 622.253906 575.589844 627.515625 575.589844 634.003906 C 575.589844 640.496094 580.851562 645.753906 587.339844 645.753906 C 593.828125 645.753906 599.089844 640.496094 599.089844 634.003906 C 599.089844 627.515625 593.828125 622.253906 587.339844 622.253906 Z M 587.339844 622.253906 " clip-rule="nonzero"/></clipPath><clipPath id="eefe574e2c"><path d="M 0.589844 0.253906 L 24.089844 0.253906 L 24.089844 23.753906 L 0.589844 23.753906 Z M 0.589844 0.253906 " clip-rule="nonzero"/></clipPath><clipPath id="1dc4ecbad2"><path d="M 12.339844 0.253906 C 5.851562 0.253906 0.589844 5.515625 0.589844 12.003906 C 0.589844 18.496094 5.851562 23.753906 12.339844 23.753906 C 18.828125 23.753906 24.089844 18.496094 24.089844 12.003906 C 24.089844 5.515625 18.828125 0.253906 12.339844 0.253906 Z M 12.339844 0.253906 " clip-rule="nonzero"/></clipPath><clipPath id="4435274ca4"><rect x="0" width="25" y="0" height="24"/></clipPath></defs><path fill="#000000" d="M 489.140625 370.308594 L 461.195312 370.308594 L 461.195312 398.265625 L 489.140625 398.265625 Z M 489.140625 370.308594 " fill-opacity="1" fill-rule="nonzero"/><path fill="#000000" d="M 363.394531 552.050781 L 782.582031 552.050781 L 782.582031 580.011719 L 363.394531 580.011719 Z M 363.394531 552.050781 " fill-opacity="1" fill-rule="nonzero"/><path fill="#000000" d="M 517.082031 621.957031 L 628.863281 621.957031 L 628.863281 649.917969 L 517.082031 649.917969 Z M 517.082031 621.957031 " fill-opacity="1" fill-rule="nonzero"/><path fill="#000000" d="M 656.820312 621.957031 L 684.765625 621.957031 L 684.765625 649.917969 L 656.820312 649.917969 Z M 656.820312 621.957031 " fill-opacity="1" fill-rule="nonzero"/><path fill="#000000" d="M 405.304688 188.5625 L 433.25 188.5625 L 433.25 566.039062 L 405.304688 566.039062 Z M 405.304688 188.5625 " fill-opacity="1" fill-rule="nonzero"/><path fill="#000000" d="M 545.042969 188.5625 L 572.988281 188.5625 L 572.988281 566.039062 L 545.042969 566.039062 Z M 545.042969 188.5625 " fill-opacity="1" fill-rule="nonzero"/><path fill="#000000" d="M 293.527344 370.308594 L 419.285156 370.308594 L 419.285156 398.265625 L 293.527344 398.265625 Z M 293.527344 370.308594 " fill-opacity="1" fill-rule="nonzero"/><path fill="#000000" d="M 559.007812 370.308594 L 740.65625 370.308594 L 740.65625 398.265625 L 559.007812 398.265625 Z M 559.007812 370.308594 " fill-opacity="1" fill-rule="nonzero"/><path fill="#000000" d="M 726.691406 189.960938 L 754.636719 189.960938 L 754.636719 566.039062 L 726.691406 566.039062 Z M 726.691406 189.960938 " fill-opacity="1" fill-rule="nonzero"/><path fill="#000000" d="M 775.621094 221.03125 L 489.140625 92.050781 L 257.34375 196.429688 L 245.875 170.925781 L 489.140625 61.386719 L 761.597656 184.054688 L 773.0625 158.570312 L 489.140625 30.722656 L 257.34375 135.101562 L 245.875 109.597656 L 489.140625 0.0585938 L 810.015625 144.539062 Z M 775.621094 221.03125 " fill-opacity="1" fill-rule="nonzero"/><path fill="#000000" d="M 475.175781 76.726562 L 503.117188 76.726562 L 503.117188 188.5625 L 475.175781 188.5625 Z M 475.175781 76.726562 " fill-opacity="1" fill-rule="nonzero"/><path fill="#000000" d="M 251.601562 174.589844 L 737.546875 174.589844 L 737.546875 202.550781 L 251.601562 202.550781 Z M 251.601562 174.589844 " fill-opacity="1" fill-rule="nonzero"/><path fill="#000000" d="M 167.769531 594 C 136.945312 594 111.878906 568.917969 111.878906 538.078125 C 111.878906 507.242188 136.945312 482.160156 167.769531 482.160156 C 198.589844 482.160156 223.65625 507.242188 223.65625 538.078125 C 223.65625 568.917969 198.589844 594 167.769531 594 Z M 167.769531 510.121094 C 152.363281 510.121094 139.824219 522.667969 139.824219 538.078125 C 139.824219 553.492188 152.363281 566.039062 167.769531 566.039062 C 183.171875 566.039062 195.710938 553.492188 195.710938 538.078125 C 195.710938 522.667969 183.171875 510.121094 167.769531 510.121094 Z M 167.769531 510.121094 " fill-opacity="1" fill-rule="nonzero"/><g clip-path="url(#93e3199700)"><path fill="#000000" d="M 167.769531 705.835938 C 75.300781 705.835938 0.101562 630.582031 0.101562 538.078125 C 0.101562 483.804688 26.082031 433.46875 69.96875 401.917969 L 69.96875 104.683594 C 69.96875 66.140625 101.3125 34.777344 139.835938 34.777344 L 195.726562 34.777344 C 234.25 34.777344 265.597656 66.140625 265.597656 104.683594 L 265.597656 401.917969 C 309.480469 433.46875 335.464844 483.804688 335.464844 538.078125 C 335.464844 630.59375 260.25 705.835938 167.796875 705.835938 Z M 139.824219 62.738281 C 116.703125 62.738281 97.898438 81.550781 97.898438 104.683594 L 97.898438 416.847656 L 91.5625 420.992188 C 51.773438 446.960938 28.03125 490.722656 28.03125 538.078125 C 28.03125 615.167969 90.71875 677.878906 167.753906 677.878906 C 244.785156 677.878906 307.476562 615.152344 307.476562 538.078125 C 307.476562 490.738281 283.730469 446.960938 243.945312 420.992188 L 237.609375 416.847656 L 237.609375 104.683594 C 237.609375 81.550781 218.804688 62.738281 195.683594 62.738281 L 139.792969 62.738281 Z M 139.824219 62.738281 " fill-opacity="1" fill-rule="nonzero"/></g><path fill="#000000" d="M 181.746094 496.132812 L 153.789062 496.132812 L 153.789062 104.683594 L 209.691406 104.683594 L 209.691406 132.644531 L 181.746094 132.644531 Z M 181.746094 496.132812 " fill-opacity="1" fill-rule="nonzero"/><path fill="#000000" d="M 167.769531 174.589844 L 209.691406 174.589844 L 209.691406 202.550781 L 167.769531 202.550781 Z M 167.769531 174.589844 " fill-opacity="1" fill-rule="nonzero"/><path fill="#000000" d="M 167.769531 244.484375 L 209.691406 244.484375 L 209.691406 272.441406 L 167.769531 272.441406 Z M 167.769531 244.484375 " fill-opacity="1" fill-rule="nonzero"/><path fill="#000000" d="M 167.769531 314.390625 L 209.691406 314.390625 L 209.691406 342.347656 L 167.769531 342.347656 Z M 167.769531 314.390625 " fill-opacity="1" fill-rule="nonzero"/><g clip-path="url(#5c185a800e)"><g clip-path="url(#9d25c0eacd)"><g transform="matrix(1, 0, 0, 1, 575, 622)"><g clip-path="url(#4435274ca4)"><g clip-path="url(#eefe574e2c)"><g clip-path="url(#1dc4ecbad2)"><path fill="#000000" d="M 0.589844 0.253906 L 24.089844 0.253906 L 24.089844 23.757812 L 0.589844 23.757812 Z M 0.589844 0.253906 " fill-opacity="1" fill-rule="nonzero"/></g></g></g></g></g></g></svg>