<svg xmlns="http://www.w3.org/2000/svg" xmlns:xlink="http://www.w3.org/1999/xlink" width="1080" zoomAndPan="magnify" viewBox="0 0 810 809.999993" height="1080" preserveAspectRatio="xMidYMid meet" version="1.0"><defs><clipPath id="068fc5d4de"><path d="M 627.441406 660.28125 L 650.941406 660.28125 L 650.941406 683.78125 L 627.441406 683.78125 Z M 627.441406 660.28125 " clip-rule="nonzero"/></clipPath><clipPath id="8f6fb120d3"><path d="M 639.191406 660.28125 C 632.703125 660.28125 627.441406 665.539062 627.441406 672.03125 C 627.441406 678.519531 632.703125 683.78125 639.191406 683.78125 C 645.679688 683.78125 650.941406 678.519531 650.941406 672.03125 C 650.941406 665.539062 645.679688 660.28125 639.191406 660.28125 Z M 639.191406 660.28125 " clip-rule="nonzero"/></clipPath><clipPath id="18837357c5"><path d="M 0.441406 0.28125 L 23.941406 0.28125 L 23.941406 23.78125 L 0.441406 23.78125 Z M 0.441406 0.28125 " clip-rule="nonzero"/></clipPath><clipPath id="65d74a7599"><path d="M 12.191406 0.28125 C 5.703125 0.28125 0.441406 5.539062 0.441406 12.03125 C 0.441406 18.519531 5.703125 23.78125 12.191406 23.78125 C 18.679688 23.78125 23.941406 18.519531 23.941406 12.03125 C 23.941406 5.539062 18.679688 0.28125 12.191406 0.28125 Z M 12.191406 0.28125 " clip-rule="nonzero"/></clipPath><clipPath id="dd77df71ec"><rect x="0" width="24" y="0" height="24"/></clipPath></defs><path fill="#000000" d="M 102.386719 301.34375 C 99.769531 302.1875 97.210938 303.1875 94.714844 304.339844 C 92.214844 305.492188 89.796875 306.785156 87.453125 308.226562 C 85.109375 309.667969 82.859375 311.242188 80.707031 312.953125 C 78.550781 314.660156 76.507812 316.492188 74.570312 318.449219 C 72.632812 320.402344 70.820312 322.464844 69.132812 324.632812 C 67.441406 326.804688 65.886719 329.066406 64.46875 331.421875 C 63.050781 333.777344 61.777344 336.210938 60.648438 338.71875 C 59.519531 341.226562 58.542969 343.792969 57.722656 346.417969 C 60.339844 345.570312 62.894531 344.574219 65.394531 343.421875 C 67.890625 342.269531 70.3125 340.972656 72.65625 339.53125 C 75 338.09375 77.246094 336.515625 79.402344 334.808594 C 81.558594 333.097656 83.601562 331.265625 85.539062 329.3125 C 87.476562 327.359375 89.289062 325.296875 90.976562 323.128906 C 92.667969 320.957031 94.222656 318.695312 95.640625 316.335938 C 97.058594 313.980469 98.332031 311.550781 99.460938 309.042969 C 100.589844 306.535156 101.566406 303.96875 102.386719 301.34375 Z M 102.386719 301.34375 " fill-opacity="1" fill-rule="nonzero"/><path fill="#000000" d="M 140.53125 301.648438 C 131.785156 306.285156 123.375 311.472656 115.308594 317.207031 C 107.242188 322.945312 99.585938 329.1875 92.335938 335.929688 C 85.089844 342.671875 78.3125 349.859375 72.007812 357.492188 C 65.703125 365.125 59.921875 373.136719 54.671875 381.527344 C 63.417969 376.890625 71.828125 371.707031 79.894531 365.96875 C 87.960938 360.230469 95.617188 353.988281 102.867188 347.246094 C 110.113281 340.503906 116.890625 333.316406 123.195312 325.683594 C 129.5 318.050781 135.28125 310.039062 140.53125 301.648438 Z M 140.53125 301.648438 " fill-opacity="1" fill-rule="nonzero"/><path fill="#000000" d="M 290.4375 301.34375 C 287.925781 302.214844 285.476562 303.238281 283.09375 304.414062 C 280.707031 305.585938 278.402344 306.90625 276.179688 308.363281 C 273.957031 309.824219 271.835938 311.417969 269.808594 313.140625 C 267.785156 314.863281 265.871094 316.703125 264.074219 318.664062 C 262.277344 320.621094 260.605469 322.683594 259.066406 324.851562 C 257.523438 327.015625 256.121094 329.269531 254.855469 331.609375 C 253.59375 333.949219 252.480469 336.355469 251.511719 338.835938 C 250.546875 341.3125 249.738281 343.839844 249.085938 346.417969 C 251.597656 345.542969 254.046875 344.519531 256.433594 343.347656 C 258.820312 342.171875 261.121094 340.855469 263.34375 339.394531 C 265.566406 337.933594 267.691406 336.34375 269.71875 334.621094 C 271.742188 332.898438 273.652344 331.054688 275.453125 329.097656 C 277.25 327.136719 278.917969 325.074219 280.460938 322.910156 C 282.003906 320.742188 283.40625 318.488281 284.667969 316.152344 C 285.933594 313.8125 287.046875 311.402344 288.011719 308.925781 C 288.976562 306.449219 289.785156 303.917969 290.4375 301.34375 Z M 290.4375 301.34375 " fill-opacity="1" fill-rule="nonzero"/><path fill="#000000" d="M 280.695312 336.304688 C 233.945312 385.605469 242.238281 393.867188 291.320312 346.871094 C 337.996094 297.527344 329.820312 289.382812 280.695312 336.304688 Z M 280.695312 336.304688 " fill-opacity="1" fill-rule="nonzero"/><path fill="#000000" d="M 517.28125 301.34375 C 514.570312 302.167969 511.917969 303.148438 509.324219 304.28125 C 506.730469 305.414062 504.207031 306.695312 501.761719 308.121094 C 499.3125 309.546875 496.957031 311.109375 494.691406 312.808594 C 492.425781 314.507812 490.265625 316.332031 488.210938 318.28125 C 486.15625 320.230469 484.222656 322.289062 482.40625 324.464844 C 480.589844 326.636719 478.90625 328.910156 477.355469 331.277344 C 475.800781 333.644531 474.390625 336.09375 473.125 338.628906 C 471.855469 341.160156 470.738281 343.757812 469.769531 346.417969 C 472.480469 345.589844 475.128906 344.613281 477.726562 343.476562 C 480.320312 342.34375 482.84375 341.066406 485.289062 339.640625 C 487.738281 338.214844 490.09375 336.652344 492.359375 334.953125 C 494.625 333.253906 496.785156 331.429688 498.839844 329.480469 C 500.894531 327.53125 502.828125 325.46875 504.644531 323.296875 C 506.460938 321.125 508.144531 318.851562 509.695312 316.484375 C 511.25 314.113281 512.660156 311.664062 513.929688 309.132812 C 515.195312 306.601562 516.3125 304.003906 517.28125 301.34375 Z M 517.28125 301.34375 " fill-opacity="1" fill-rule="nonzero"/><path fill="#000000" d="M 507.257812 335.949219 C 453.242188 385.417969 460.894531 394.179688 517.125 347.226562 C 571.066406 297.714844 563.519531 289.078125 507.257812 335.949219 Z M 507.257812 335.949219 " fill-opacity="1" fill-rule="nonzero"/><path fill="#000000" d="M 726.722656 567.152344 L 726.722656 223.582031 C 726.734375 220.847656 726.613281 218.121094 726.351562 215.398438 C 726.089844 212.675781 725.695312 209.972656 725.164062 207.289062 C 724.632812 204.609375 723.964844 201.960938 723.167969 199.34375 C 722.371094 196.726562 721.441406 194.160156 720.386719 191.636719 C 719.332031 189.113281 718.152344 186.652344 716.847656 184.246094 C 715.542969 181.84375 714.121094 179.511719 712.585938 177.25 C 711.046875 174.988281 709.398438 172.808594 707.640625 170.714844 C 705.882812 168.621094 704.027344 166.617188 702.066406 164.707031 C 700.855469 163.523438 699.609375 162.378906 698.328125 161.269531 C 697.050781 160.160156 695.734375 159.089844 694.390625 158.0625 C 693.046875 157.03125 691.671875 156.042969 690.265625 155.09375 C 688.863281 154.148438 687.433594 153.242188 685.972656 152.382812 C 684.515625 151.523438 683.03125 150.703125 681.523438 149.933594 C 680.015625 149.160156 678.484375 148.433594 676.933594 147.753906 C 675.382812 147.074219 673.8125 146.441406 672.222656 145.855469 C 670.632812 145.269531 669.027344 144.730469 667.40625 144.242188 C 665.785156 143.753906 664.148438 143.3125 662.5 142.921875 C 660.851562 142.53125 659.195312 142.1875 657.527344 141.898438 C 655.855469 141.605469 654.179688 141.363281 652.496094 141.171875 C 650.816406 140.984375 649.128906 140.84375 647.433594 140.753906 C 645.742188 140.664062 644.050781 140.625 642.355469 140.636719 C 640.664062 140.648438 638.972656 140.714844 637.28125 140.828125 C 635.589844 140.941406 633.90625 141.105469 632.226562 141.320312 C 630.542969 141.535156 628.871094 141.800781 627.207031 142.117188 C 625.542969 142.433594 623.890625 142.800781 622.246094 143.214844 C 620.605469 143.628906 618.976562 144.09375 617.363281 144.605469 C 615.75 145.121094 614.152344 145.679688 612.570312 146.289062 C 610.988281 146.898438 609.429688 147.554688 607.886719 148.257812 C 606.34375 148.960938 604.828125 149.707031 603.332031 150.503906 C 601.835938 151.296875 600.363281 152.136719 598.917969 153.019531 C 597.472656 153.898438 596.054688 154.824219 594.664062 155.792969 C 593.273438 156.761719 591.914062 157.769531 590.582031 158.820312 C 589.253906 159.867188 587.957031 160.957031 586.691406 162.082031 C 585.425781 163.210938 584.199219 164.375 583.003906 165.578125 C 581.808594 166.777344 580.652344 168.015625 579.53125 169.285156 C 578.410156 170.554688 577.332031 171.859375 576.289062 173.195312 C 575.246094 174.53125 574.246094 175.894531 573.289062 177.292969 C 572.328125 178.6875 571.410156 180.109375 570.539062 181.5625 C 569.664062 183.011719 568.832031 184.488281 568.046875 185.988281 C 567.261719 187.492188 566.523438 189.011719 565.828125 190.558594 L 335.207031 3.296875 C 334.542969 2.769531 333.835938 2.296875 333.089844 1.886719 C 332.34375 1.472656 331.566406 1.128906 330.761719 0.847656 C 329.957031 0.566406 329.136719 0.355469 328.292969 0.214844 C 327.453125 0.0703125 326.609375 0 325.757812 0 C 324.902344 0 324.058594 0.0703125 323.21875 0.214844 C 322.378906 0.355469 321.554688 0.566406 320.75 0.847656 C 319.945312 1.128906 319.171875 1.472656 318.421875 1.886719 C 317.675781 2.296875 316.96875 2.769531 316.304688 3.296875 L 7.125 254.300781 C 4.855469 256.304688 3.238281 258.742188 2.269531 261.613281 C 1.886719 263.035156 1.597656 264.480469 1.394531 265.941406 L 1.394531 695.289062 C 1.394531 696.273438 1.488281 697.246094 1.679688 698.210938 C 1.875 699.179688 2.15625 700.117188 2.535156 701.023438 C 2.910156 701.933594 3.375 702.796875 3.921875 703.617188 C 4.46875 704.433594 5.089844 705.191406 5.785156 705.890625 C 6.480469 706.585938 7.238281 707.207031 8.058594 707.753906 C 8.875 708.300781 9.742188 708.761719 10.648438 709.140625 C 11.558594 709.515625 12.496094 709.800781 13.460938 709.992188 C 14.429688 710.183594 15.402344 710.28125 16.386719 710.28125 L 220.34375 710.28125 C 275.082031 710.421875 455.773438 710.257812 507.394531 710.28125 C 508.648438 714.707031 510.125 719.054688 511.824219 723.328125 C 513.523438 727.601562 515.433594 731.777344 517.558594 735.859375 C 519.679688 739.9375 522.007812 743.898438 524.535156 747.742188 C 527.0625 751.582031 529.777344 755.289062 532.683594 758.855469 C 535.589844 762.417969 538.667969 765.828125 541.917969 769.082031 C 545.171875 772.332031 548.578125 775.414062 552.144531 778.316406 C 555.710938 781.222656 559.414062 783.9375 563.257812 786.46875 C 567.101562 788.996094 571.0625 791.320312 575.140625 793.445312 C 723.140625 867.628906 853.285156 674.679688 726.722656 567.152344 Z M 235.558594 280.957031 L 415.949219 280.957031 L 415.949219 437.636719 L 235.558594 437.636719 Z M 445.9375 280.933594 L 558.703125 280.933594 L 558.703125 437.636719 L 445.9375 437.636719 Z M 558.703125 223.582031 L 558.703125 250.949219 L 440.910156 250.949219 L 362.6875 64.238281 C 362.636719 64.371094 559.03125 223.328125 558.703125 223.582031 Z M 408.394531 250.949219 L 243.109375 250.949219 L 325.757812 53.703125 Z M 205.566406 280.933594 L 205.566406 437.636719 L 31.382812 437.636719 L 31.382812 280.933594 Z M 31.382812 467.625 L 205.566406 467.625 L 205.566406 678.902344 L 190.738281 663.398438 C 152.457031 621.363281 66.199219 624.28125 31.382812 669.578125 Z M 53.503906 678.949219 C 81.277344 648.003906 148.8125 648.445312 175.785156 680.296875 L 52.222656 680.292969 Z M 257.523438 680.292969 C 285.011719 647.96875 353.601562 647.992188 381.085938 680.296875 Z M 412.195312 680.292969 L 396.039062 663.398438 C 357.179688 620.84375 270.3125 624.519531 235.558594 670.765625 L 235.554688 467.625 L 415.949219 467.625 L 415.949219 680.292969 Z M 502.371094 680.292969 L 471.078125 680.292969 C 475.398438 675.695312 480.238281 671.738281 485.605469 668.421875 C 490.972656 665.105469 496.679688 662.542969 502.726562 660.738281 C 501.949219 667.246094 501.832031 673.765625 502.371094 680.292969 Z M 507.191406 636.421875 C 501.183594 637.640625 495.328125 639.378906 489.625 641.628906 C 483.921875 643.878906 478.457031 646.609375 473.234375 649.816406 C 468.007812 653.027344 463.105469 656.667969 458.519531 660.738281 C 453.9375 664.808594 449.742188 669.25 445.9375 674.054688 L 445.9375 467.625 L 558.703125 467.625 L 558.703125 562.714844 C 552.480469 567.175781 546.679688 572.128906 541.296875 577.578125 C 535.914062 583.023438 531.027344 588.886719 526.644531 595.160156 C 522.257812 601.4375 518.429688 608.039062 515.164062 614.964844 C 511.902344 621.890625 509.242188 629.042969 507.191406 636.421875 Z M 288.828125 64.230469 L 210.59375 250.949219 L 58.835938 250.949219 Z M 744.519531 698.960938 C 717.605469 807.304688 558.519531 804.597656 534.445312 695.78125 C 533.867188 693.136719 533.394531 690.472656 533.019531 687.792969 C 532.648438 685.109375 532.378906 682.417969 532.210938 679.714844 C 532.046875 677.011719 531.980469 674.308594 532.023438 671.601562 C 532.0625 668.894531 532.207031 666.191406 532.457031 663.496094 C 532.703125 660.796875 533.054688 658.113281 533.507812 655.445312 C 533.960938 652.777344 534.515625 650.128906 535.171875 647.5 C 535.828125 644.875 536.582031 642.277344 537.4375 639.707031 C 538.292969 637.136719 539.246094 634.605469 540.292969 632.109375 C 541.34375 629.613281 542.488281 627.160156 543.722656 624.75 C 544.960938 622.34375 546.289062 619.984375 547.707031 617.675781 C 549.125 615.371094 550.628906 613.121094 552.21875 610.929688 C 553.808594 608.738281 555.480469 606.609375 557.234375 604.546875 C 558.984375 602.484375 560.816406 600.488281 562.722656 598.566406 C 564.628906 596.640625 566.605469 594.792969 568.652344 593.023438 C 570.699219 591.25 572.8125 589.558594 574.988281 587.949219 C 577.164062 586.335938 579.402344 584.8125 581.695312 583.375 C 582.765625 582.699219 583.738281 581.898438 584.605469 580.976562 C 585.476562 580.054688 586.21875 579.039062 586.828125 577.929688 C 587.441406 576.820312 587.90625 575.652344 588.222656 574.425781 C 588.539062 573.199219 588.695312 571.953125 588.695312 570.6875 C 588.695312 570.25 588.695312 452.78125 588.695312 452.414062 C 589.03125 451.972656 588.453125 266.109375 588.695312 265.722656 C 589.316406 254.410156 586.765625 217.683594 591.359375 206.949219 C 591.738281 205.875 592.148438 204.808594 592.59375 203.757812 C 593.039062 202.707031 593.515625 201.671875 594.023438 200.652344 C 594.535156 199.632812 595.078125 198.628906 595.648438 197.640625 C 596.222656 196.65625 596.824219 195.6875 597.457031 194.738281 C 598.09375 193.789062 598.753906 192.859375 599.445312 191.953125 C 600.136719 191.046875 600.859375 190.160156 601.605469 189.300781 C 602.351562 188.4375 603.125 187.597656 603.925781 186.785156 C 604.726562 185.972656 605.550781 185.183594 606.398438 184.421875 C 607.25 183.660156 608.121094 182.925781 609.015625 182.21875 C 609.914062 181.511719 610.828125 180.832031 611.765625 180.183594 C 612.703125 179.535156 613.664062 178.914062 614.640625 178.324219 C 615.617188 177.734375 616.609375 177.175781 617.621094 176.648438 C 618.632812 176.121094 619.660156 175.628906 620.703125 175.164062 C 621.746094 174.703125 622.804688 174.273438 623.875 173.875 C 624.945312 173.480469 626.023438 173.117188 627.117188 172.789062 C 628.210938 172.460938 629.3125 172.164062 630.421875 171.90625 C 631.535156 171.644531 632.652344 171.421875 633.777344 171.230469 C 634.902344 171.042969 636.035156 170.890625 637.167969 170.769531 C 638.304688 170.652344 639.441406 170.570312 640.582031 170.523438 C 641.722656 170.476562 642.863281 170.464844 644.003906 170.488281 C 645.144531 170.511719 646.28125 170.574219 647.417969 170.667969 C 648.554688 170.765625 649.6875 170.894531 650.816406 171.0625 C 651.945312 171.230469 653.070312 171.433594 654.183594 171.667969 C 655.300781 171.90625 656.410156 172.179688 657.507812 172.484375 C 658.605469 172.792969 659.695312 173.132812 660.773438 173.507812 C 661.851562 173.882812 662.914062 174.292969 663.964844 174.734375 C 665.019531 175.175781 666.054688 175.652344 667.078125 176.15625 C 668.101562 176.664062 669.105469 177.203125 670.09375 177.773438 C 671.082031 178.34375 672.050781 178.945312 673.003906 179.574219 C 673.953125 180.207031 674.882812 180.867188 675.792969 181.554688 C 676.703125 182.246094 677.589844 182.960938 678.453125 183.707031 C 679.316406 184.453125 680.15625 185.222656 680.972656 186.019531 C 683.480469 188.460938 685.722656 191.125 687.695312 194.015625 C 689.664062 196.910156 691.328125 199.96875 692.679688 203.195312 C 694.035156 206.421875 695.050781 209.753906 695.734375 213.183594 C 696.414062 216.617188 696.746094 220.082031 696.730469 223.582031 L 696.730469 574.589844 C 696.730469 575.78125 696.871094 576.957031 697.152344 578.117188 C 697.433594 579.277344 697.847656 580.390625 698.394531 581.449219 C 698.941406 582.511719 699.601562 583.492188 700.382812 584.398438 C 701.164062 585.300781 702.039062 586.097656 703.011719 586.792969 C 705.164062 588.332031 707.253906 589.953125 709.285156 591.648438 C 711.316406 593.34375 713.28125 595.113281 715.179688 596.957031 C 717.082031 598.800781 718.910156 600.710938 720.667969 602.6875 C 722.425781 604.667969 724.105469 606.707031 725.710938 608.8125 C 727.316406 610.917969 728.839844 613.078125 730.285156 615.292969 C 731.730469 617.511719 733.089844 619.777344 734.367188 622.097656 C 735.644531 624.414062 736.832031 626.777344 737.933594 629.183594 C 739.03125 631.589844 740.042969 634.035156 740.960938 636.515625 C 741.878906 639 742.703125 641.511719 743.433594 644.054688 C 744.164062 646.597656 744.800781 649.164062 745.34375 651.753906 C 745.882812 654.34375 746.328125 656.953125 746.671875 659.574219 C 747.019531 662.199219 747.269531 664.832031 747.417969 667.472656 C 747.570312 670.113281 747.621094 672.757812 747.574219 675.40625 C 747.53125 678.050781 747.386719 680.691406 747.140625 683.324219 C 746.898438 685.960938 746.558594 688.582031 746.121094 691.191406 C 745.683594 693.800781 745.152344 696.394531 744.519531 698.960938 Z M 744.519531 698.960938 " fill-opacity="1" fill-rule="nonzero"/><path fill="#000000" d="M 667.835938 611.765625 L 667.835938 232.132812 C 667.824219 231.253906 667.773438 230.375 667.679688 229.5 C 667.582031 228.625 667.445312 227.757812 667.265625 226.898438 C 667.085938 226.035156 666.863281 225.183594 666.601562 224.347656 C 666.339844 223.507812 666.035156 222.683594 665.691406 221.871094 C 665.351562 221.0625 664.96875 220.269531 664.546875 219.496094 C 664.128906 218.726562 663.667969 217.972656 663.175781 217.246094 C 662.683594 216.519531 662.15625 215.816406 661.59375 215.140625 C 661.03125 214.460938 660.4375 213.816406 659.808594 213.195312 C 659.183594 212.578125 658.53125 211.992188 657.847656 211.4375 C 657.164062 210.882812 656.457031 210.359375 655.722656 209.875 C 654.992188 209.390625 654.234375 208.941406 653.457031 208.527344 C 652.679688 208.117188 651.882812 207.742188 651.070312 207.410156 C 650.257812 207.074219 649.429688 206.78125 648.585938 206.527344 C 647.746094 206.273438 646.890625 206.0625 646.027344 205.890625 C 645.164062 205.71875 644.296875 205.589844 643.421875 205.507812 C 642.542969 205.421875 641.667969 205.378906 640.785156 205.378906 C 639.90625 205.378906 639.03125 205.421875 638.152344 205.507812 C 637.277344 205.589844 636.410156 205.71875 635.546875 205.890625 C 634.683594 206.0625 633.828125 206.273438 632.988281 206.527344 C 632.144531 206.78125 631.316406 207.074219 630.503906 207.410156 C 629.6875 207.742188 628.894531 208.117188 628.117188 208.527344 C 627.339844 208.941406 626.582031 209.390625 625.851562 209.875 C 625.117188 210.359375 624.410156 210.882812 623.726562 211.4375 C 623.042969 211.992188 622.390625 212.578125 621.761719 213.195312 C 621.136719 213.816406 620.542969 214.460938 619.980469 215.140625 C 619.417969 215.816406 618.890625 216.519531 618.398438 217.246094 C 617.902344 217.972656 617.445312 218.726562 617.027344 219.496094 C 616.605469 220.269531 616.222656 221.0625 615.878906 221.871094 C 615.539062 222.683594 615.234375 223.507812 614.972656 224.347656 C 614.707031 225.183594 614.488281 226.035156 614.308594 226.898438 C 614.128906 227.757812 613.992188 228.625 613.894531 229.5 C 613.800781 230.375 613.75 231.253906 613.738281 232.132812 L 613.738281 610.875 C 612.183594 611.503906 610.648438 612.1875 609.144531 612.929688 C 607.636719 613.671875 606.160156 614.464844 604.714844 615.316406 C 603.265625 616.167969 601.851562 617.070312 600.472656 618.027344 C 599.09375 618.984375 597.75 619.988281 596.445312 621.042969 C 595.136719 622.097656 593.875 623.203125 592.648438 624.351562 C 591.425781 625.5 590.246094 626.691406 589.109375 627.929688 C 587.976562 629.164062 586.886719 630.441406 585.847656 631.757812 C 584.804688 633.074219 583.8125 634.429688 582.875 635.820312 C 581.933594 637.210938 581.046875 638.632812 580.210938 640.089844 C 579.375 641.546875 578.597656 643.03125 577.871094 644.546875 C 577.144531 646.058594 576.476562 647.597656 575.867188 649.164062 C 575.257812 650.726562 574.703125 652.3125 574.210938 653.914062 C 573.71875 655.519531 573.285156 657.140625 572.910156 658.777344 C 572.539062 660.414062 572.226562 662.0625 571.976562 663.722656 C 571.726562 665.382812 571.535156 667.046875 571.410156 668.722656 C 571.28125 670.394531 571.214844 672.070312 571.210938 673.75 C 571.222656 675.101562 571.273438 676.449219 571.363281 677.792969 C 571.453125 679.140625 571.582031 680.484375 571.753906 681.824219 C 571.921875 683.164062 572.132812 684.496094 572.378906 685.820312 C 572.628906 687.148438 572.914062 688.464844 573.238281 689.777344 C 573.566406 691.085938 573.929688 692.386719 574.332031 693.671875 C 574.734375 694.960938 575.175781 696.238281 575.652344 697.5 C 576.128906 698.761719 576.644531 700.007812 577.195312 701.242188 C 577.746094 702.472656 578.332031 703.6875 578.957031 704.886719 C 579.578125 706.082031 580.238281 707.261719 580.929688 708.417969 C 581.621094 709.578125 582.347656 710.714844 583.105469 711.832031 C 583.867188 712.945312 584.65625 714.039062 585.480469 715.109375 C 586.304688 716.175781 587.160156 717.222656 588.046875 718.238281 C 588.929688 719.257812 589.84375 720.25 590.789062 721.214844 C 591.734375 722.179688 592.703125 723.117188 593.703125 724.023438 C 594.703125 724.929688 595.726562 725.808594 596.777344 726.65625 C 597.828125 727.5 598.90625 728.316406 600.003906 729.101562 C 601.101562 729.882812 602.222656 730.636719 603.367188 731.351562 C 604.511719 732.070312 605.671875 732.753906 606.855469 733.402344 C 608.039062 734.050781 609.242188 734.664062 610.460938 735.242188 C 611.683594 735.820312 612.917969 736.363281 614.167969 736.867188 C 615.421875 737.371094 616.6875 737.839844 617.964844 738.269531 C 619.246094 738.703125 620.535156 739.09375 621.839844 739.449219 C 623.140625 739.804688 624.453125 740.117188 625.773438 740.394531 C 627.09375 740.671875 628.421875 740.910156 629.757812 741.109375 C 631.09375 741.308594 632.433594 741.46875 633.777344 741.585938 C 635.121094 741.707031 636.46875 741.785156 637.820312 741.828125 C 639.167969 741.867188 640.515625 741.867188 641.867188 741.828125 C 643.214844 741.789062 644.5625 741.710938 645.90625 741.589844 C 647.25 741.472656 648.589844 741.316406 649.925781 741.117188 C 651.261719 740.917969 652.589844 740.683594 653.910156 740.40625 C 655.234375 740.128906 656.542969 739.816406 657.847656 739.460938 C 659.148438 739.109375 660.441406 738.71875 661.722656 738.289062 C 721.960938 720.054688 722.417969 633.699219 667.835938 611.765625 Z M 667.835938 611.765625 " fill-opacity="1" fill-rule="nonzero"/><g clip-path="url(#068fc5d4de)"><g clip-path="url(#8f6fb120d3)"><g transform="matrix(1, 0, 0, 1, 627, 660)"><g clip-path="url(#dd77df71ec)"><g clip-path="url(#18837357c5)"><g clip-path="url(#65d74a7599)"><path fill="#000000" d="M 0.441406 0.28125 L 23.941406 0.28125 L 23.941406 23.78125 L 0.441406 23.78125 Z M 0.441406 0.28125 " fill-opacity="1" fill-rule="nonzero"/></g></g></g></g></g></g></svg>