<svg xmlns="http://www.w3.org/2000/svg" xmlns:xlink="http://www.w3.org/1999/xlink" width="1080" zoomAndPan="magnify" viewBox="0 0 810 809.999993" height="1080" preserveAspectRatio="xMidYMid meet" version="1.0"><defs><clipPath id="44b984987a"><path d="M 273.453125 461.621094 L 290.832031 461.621094 L 290.832031 479 L 273.453125 479 Z M 273.453125 461.621094 " clip-rule="nonzero"/></clipPath><clipPath id="f839729924"><path d="M 282.140625 461.621094 C 277.34375 461.621094 273.453125 465.511719 273.453125 470.3125 C 273.453125 475.109375 277.34375 479 282.140625 479 C 286.941406 479 290.832031 475.109375 290.832031 470.3125 C 290.832031 465.511719 286.941406 461.621094 282.140625 461.621094 Z M 282.140625 461.621094 " clip-rule="nonzero"/></clipPath><clipPath id="eda3426d35"><path d="M 0.453125 0.621094 L 17.832031 0.621094 L 17.832031 18 L 0.453125 18 Z M 0.453125 0.621094 " clip-rule="nonzero"/></clipPath><clipPath id="58b99fe160"><path d="M 9.140625 0.621094 C 4.34375 0.621094 0.453125 4.511719 0.453125 9.3125 C 0.453125 14.109375 4.34375 18 9.140625 18 C 13.941406 18 17.832031 14.109375 17.832031 9.3125 C 17.832031 4.511719 13.941406 0.621094 9.140625 0.621094 Z M 9.140625 0.621094 " clip-rule="nonzero"/></clipPath><clipPath id="591b254357"><rect x="0" width="18" y="0" height="18"/></clipPath><clipPath id="6a84c16c11"><path d="M 335.5625 537.484375 L 352.9375 537.484375 L 352.9375 554.863281 L 335.5625 554.863281 Z M 335.5625 537.484375 " clip-rule="nonzero"/></clipPath><clipPath id="131a109074"><path d="M 344.25 537.484375 C 339.449219 537.484375 335.5625 541.375 335.5625 546.171875 C 335.5625 550.972656 339.449219 554.863281 344.25 554.863281 C 349.050781 554.863281 352.9375 550.972656 352.9375 546.171875 C 352.9375 541.375 349.050781 537.484375 344.25 537.484375 Z M 344.25 537.484375 " clip-rule="nonzero"/></clipPath><clipPath id="37411f1de6"><path d="M 0.5625 0.484375 L 17.9375 0.484375 L 17.9375 17.863281 L 0.5625 17.863281 Z M 0.5625 0.484375 " clip-rule="nonzero"/></clipPath><clipPath id="5a32d94e8b"><path d="M 9.25 0.484375 C 4.449219 0.484375 0.5625 4.375 0.5625 9.171875 C 0.5625 13.972656 4.449219 17.863281 9.25 17.863281 C 14.050781 17.863281 17.9375 13.972656 17.9375 9.171875 C 17.9375 4.375 14.050781 0.484375 9.25 0.484375 Z M 9.25 0.484375 " clip-rule="nonzero"/></clipPath><clipPath id="1a3b143da2"><rect x="0" width="18" y="0" height="18"/></clipPath></defs><path fill="#000000" d="M 20.535156 679.117188 C 4.359375 700.691406 1.796875 729.066406 13.851562 753.164062 L 38.542969 802.535156 C 40.835938 807.109375 45.507812 810 50.625 810 L 347.625 810 C 355.089844 810 361.125 803.953125 361.125 796.5 L 361.125 478.871094 C 361.125 476.792969 361.609375 474.6875 362.542969 472.835938 L 418.984375 359.964844 C 436.765625 324.40625 442.894531 325.121094 469.652344 334.410156 C 474.957031 396.535156 527.132812 445.5 590.625 445.5 L 617.625 445.5 C 625.089844 445.5 631.125 439.453125 631.125 432 C 631.125 365.011719 576.625 310.5 509.625 310.5 L 484.21875 310.5 L 480.195312 309.542969 C 471.40625 306.464844 463.5625 304.183594 456.367188 303.019531 C 459.351562 300.171875 462.144531 297.160156 464.820312 294.058594 C 472.175781 290.574219 492.628906 281.285156 520.804688 271.539062 C 537.433594 283.433594 578.125 310.5 604.125 310.5 C 632.988281 310.5 674.164062 296.890625 675.890625 296.3125 C 680.65625 294.71875 684.140625 290.628906 684.949219 285.660156 C 685.757812 280.691406 683.734375 275.710938 679.726562 272.699219 L 669.316406 264.882812 C 633.945312 238.355469 589.046875 228.042969 545.96875 236.640625 C 536.015625 238.625 526.878906 241.003906 518.84375 243.675781 C 507.261719 247.535156 496.933594 251.355469 487.835938 254.90625 C 492.546875 242.3125 495.289062 228.960938 495.855469 215.230469 C 556.644531 208.628906 604.125 157.019531 604.125 94.5 C 604.125 87.046875 598.089844 81 590.625 81 C 523.625 81 469.125 135.511719 469.125 202.5 L 469.125 209.953125 C 469.125 243.148438 452.882812 274.332031 425.695312 293.367188 L 382.359375 323.703125 C 378.160156 326.660156 372.925781 326.96875 368.386719 324.621094 C 363.839844 322.257812 361.125 317.777344 361.125 312.648438 L 361.125 13.5 C 361.125 6.046875 355.089844 0 347.625 0 L 50.625 0 C 43.160156 0 37.125 6.046875 37.125 13.5 L 37.125 171.003906 L 20.535156 193.117188 C 4.359375 214.691406 1.796875 243.054688 13.851562 267.164062 L 37.125 313.6875 L 37.125 656.992188 Z M 509.625 337.5 C 557.160156 337.5 596.59375 372.761719 603.167969 418.5 L 590.625 418.5 C 543.089844 418.5 503.65625 383.238281 497.082031 337.5 Z M 640.5625 278.167969 C 628.734375 280.976562 615.058594 283.5 604.125 283.5 C 593.742188 283.5 573.980469 273.589844 555.742188 262.320312 C 584.980469 257.578125 614.980469 263.277344 640.5625 278.167969 Z M 575.992188 109.132812 C 569.6875 149.554688 537.679688 181.5625 497.257812 187.867188 C 503.5625 147.445312 535.570312 115.4375 575.992188 109.132812 Z M 355.914062 348.570312 C 368.359375 355.035156 382.996094 354.644531 394.941406 347.679688 C 394.902344 347.746094 394.875 347.8125 394.835938 347.894531 L 338.390625 460.769531 C 335.597656 466.359375 334.125 472.621094 334.125 478.871094 L 334.125 540 L 331.84375 540 C 281.851562 540 239.625 512.433594 239.625 479.816406 L 239.625 316.683594 C 239.625 284.066406 281.851562 256.5 331.84375 256.5 L 334.125 256.5 L 334.125 312.648438 C 334.125 327.808594 342.480469 341.5625 355.914062 348.570312 Z M 62.707031 304.464844 L 38.015625 255.097656 C 30.5625 240.191406 32.144531 222.65625 42.148438 209.316406 L 61.425781 183.601562 C 63.179688 181.265625 64.125 178.417969 64.125 175.5 L 64.125 27 L 334.125 27 L 334.125 229.5 L 331.84375 229.5 C 266.113281 229.5 212.625 268.609375 212.625 316.683594 L 212.625 479.816406 C 212.625 527.890625 266.113281 567 331.84375 567 L 334.125 567 L 334.125 783 L 58.96875 783 L 38.003906 741.097656 C 30.550781 726.191406 32.128906 708.65625 42.132812 695.316406 L 61.425781 669.601562 C 63.179688 667.265625 64.125 664.414062 64.125 661.5 L 64.125 310.5 C 64.125 308.40625 63.640625 306.328125 62.707031 304.464844 Z M 62.707031 304.464844 " fill-opacity="1" fill-rule="nonzero"/><path fill="#000000" d="M 292.222656 397.492188 L 280.125 391.5 L 268.042969 385.464844 C 266.761719 388.03125 237.234375 448.714844 284.082031 495.542969 L 303.167969 476.457031 C 270.242188 443.515625 291.304688 399.355469 292.222656 397.492188 Z M 292.222656 397.492188 " fill-opacity="1" fill-rule="nonzero"/><path fill="#000000" d="M 97.132812 294.730469 L 112.105469 272.269531 C 79.125 250.277344 77.652344 230 77.613281 229.148438 L 50.625 229.5 C 50.625 233.011719 51.949219 264.613281 97.132812 294.730469 Z M 97.132812 294.730469 " fill-opacity="1" fill-rule="nonzero"/><path fill="#000000" d="M 97.132812 780.730469 L 112.105469 758.269531 C 79.125 736.277344 77.652344 716 77.613281 715.148438 L 50.625 715.5 C 50.625 719.011719 51.949219 750.613281 97.132812 780.730469 Z M 97.132812 780.730469 " fill-opacity="1" fill-rule="nonzero"/><g clip-path="url(#44b984987a)"><g clip-path="url(#f839729924)"><g transform="matrix(1, 0, 0, 1, 273, 461)"><g clip-path="url(#591b254357)"><g clip-path="url(#eda3426d35)"><g clip-path="url(#58b99fe160)"><path fill="#000000" d="M 0.453125 0.621094 L 17.832031 0.621094 L 17.832031 18 L 0.453125 18 Z M 0.453125 0.621094 " fill-opacity="1" fill-rule="nonzero"/></g></g></g></g></g></g><g clip-path="url(#6a84c16c11)"><g clip-path="url(#131a109074)"><g transform="matrix(1, 0, 0, 1, 335, 537)"><g clip-path="url(#1a3b143da2)"><g clip-path="url(#37411f1de6)"><g clip-path="url(#5a32d94e8b)"><path fill="#000000" d="M 0.5625 0.484375 L 17.9375 0.484375 L 17.9375 17.863281 L 0.5625 17.863281 Z M 0.5625 0.484375 " fill-opacity="1" fill-rule="nonzero"/></g></g></g></g></g></g></svg>