<svg xmlns="http://www.w3.org/2000/svg" xmlns:xlink="http://www.w3.org/1999/xlink" width="1080" zoomAndPan="magnify" viewBox="0 0 810 809.999993" height="1080" preserveAspectRatio="xMidYMid meet" version="1.0"><defs><clipPath id="dcac329c36"><path d="M 513.371094 359.546875 L 536.871094 359.546875 L 536.871094 383.046875 L 513.371094 383.046875 Z M 513.371094 359.546875 " clip-rule="nonzero"/></clipPath><clipPath id="4ff046962a"><path d="M 525.121094 359.546875 C 518.628906 359.546875 513.371094 364.808594 513.371094 371.296875 C 513.371094 377.785156 518.628906 383.046875 525.121094 383.046875 C 531.609375 383.046875 536.871094 377.785156 536.871094 371.296875 C 536.871094 364.808594 531.609375 359.546875 525.121094 359.546875 Z M 525.121094 359.546875 " clip-rule="nonzero"/></clipPath><clipPath id="46c16c0cb9"><path d="M 0.371094 0.546875 L 23.871094 0.546875 L 23.871094 24.046875 L 0.371094 24.046875 Z M 0.371094 0.546875 " clip-rule="nonzero"/></clipPath><clipPath id="96c194cf88"><path d="M 12.121094 0.546875 C 5.628906 0.546875 0.371094 5.808594 0.371094 12.296875 C 0.371094 18.785156 5.628906 24.046875 12.121094 24.046875 C 18.609375 24.046875 23.871094 18.785156 23.871094 12.296875 C 23.871094 5.808594 18.609375 0.546875 12.121094 0.546875 Z M 12.121094 0.546875 " clip-rule="nonzero"/></clipPath><clipPath id="6b0e05e19c"><rect x="0" width="24" y="0" height="25"/></clipPath></defs><path fill="#000000" d="M 548.777344 518.757812 L 526.855469 496.839844 C 526.640625 496.625 526.542969 496.34375 526.367188 496.101562 C 526.097656 495.746094 525.832031 495.414062 525.644531 495.019531 C 525.480469 494.660156 525.398438 494.292969 525.296875 493.914062 C 525.1875 493.5 525.078125 493.105469 525.054688 492.679688 C 525.035156 492.289062 525.089844 491.914062 525.140625 491.53125 C 525.199219 491.109375 525.246094 490.703125 525.382812 490.296875 C 525.519531 489.90625 525.734375 489.5625 525.945312 489.207031 C 526.105469 488.929688 526.167969 488.632812 526.367188 488.378906 C 618.769531 372.210938 605.71875 201.914062 496.644531 100.660156 C 394.246094 5.609375 233.492188 0.0507812 122.726562 87.71875 C 31.136719 160.210938 1.019531 283.128906 45.980469 400.875 C 46.144531 401.328125 46.726562 401.980469 47.414062 401.15625 C 47.527344 401.03125 47.703125 400.753906 47.625 400.316406 C 34.492188 319.195312 64.84375 239.636719 128.828125 187.511719 C 214.378906 117.804688 336.988281 119.894531 420.371094 192.488281 C 507.226562 268.101562 524.007812 396.632812 459.398438 491.441406 C 447.390625 509.078125 449.5625 532.746094 464.578125 547.746094 L 492.175781 575.335938 Z M 548.777344 518.757812 " fill-opacity="1" fill-rule="nonzero"/><path fill="#000000" d="M 614.804688 521.304688 L 589.527344 496.042969 L 469.402344 616.117188 L 494.679688 641.378906 L 513.820312 622.246094 L 595.660156 540.4375 Z M 614.804688 521.304688 " fill-opacity="1" fill-rule="nonzero"/><path fill="#000000" d="M 767.492188 721.21875 L 600.167969 553.960938 L 527.339844 626.753906 L 543.28125 642.683594 L 573.78125 612.203125 C 576.273438 609.710938 580.300781 609.710938 582.792969 612.203125 C 585.285156 614.695312 585.285156 618.722656 582.792969 621.214844 L 552.292969 651.695312 L 575.710938 675.105469 L 606.210938 644.617188 C 608.703125 642.125 612.734375 642.125 615.226562 644.617188 C 617.71875 647.109375 617.71875 651.136719 615.226562 653.628906 L 584.726562 684.117188 L 608.136719 707.515625 L 638.636719 677.027344 C 641.128906 674.535156 645.15625 674.535156 647.648438 677.027344 C 650.144531 679.519531 650.144531 683.546875 647.648438 686.039062 L 617.152344 716.527344 L 640.5625 739.929688 L 671.058594 709.441406 C 673.554688 706.949219 677.582031 706.949219 680.074219 709.441406 C 682.566406 711.933594 682.566406 715.960938 680.074219 718.453125 L 649.574219 748.941406 L 694.660156 794.011719 C 710.777344 810.121094 737 810.109375 753.105469 794.011719 L 767.488281 779.632812 C 783.609375 763.527344 783.609375 737.324219 767.492188 721.21875 Z M 743.71875 770.253906 C 733.710938 780.257812 717.484375 780.257812 707.476562 770.253906 C 697.46875 760.246094 697.46875 744.027344 707.476562 734.023438 C 717.484375 724.015625 733.710938 724.015625 743.71875 734.023438 C 753.730469 744.027344 753.730469 760.246094 743.71875 770.253906 Z M 743.71875 770.253906 " fill-opacity="1" fill-rule="nonzero"/><g clip-path="url(#dcac329c36)"><g clip-path="url(#4ff046962a)"><g transform="matrix(1, 0, 0, 1, 513, 359)"><g clip-path="url(#6b0e05e19c)"><g clip-path="url(#46c16c0cb9)"><g clip-path="url(#96c194cf88)"><path fill="#000000" d="M 0.371094 0.546875 L 23.871094 0.546875 L 23.871094 24.046875 L 0.371094 24.046875 Z M 0.371094 0.546875 " fill-opacity="1" fill-rule="nonzero"/></g></g></g></g></g></g></svg>