<svg xmlns="http://www.w3.org/2000/svg" xmlns:xlink="http://www.w3.org/1999/xlink" width="1080" zoomAndPan="magnify" viewBox="0 0 810 809.999993" height="1080" preserveAspectRatio="xMidYMid meet" version="1.0"><defs><clipPath id="6ab61199f7"><path d="M 0 1.011719 L 810 1.011719 L 810 808.761719 L 0 808.761719 Z M 0 1.011719 " clip-rule="nonzero"/></clipPath><clipPath id="11cf146499"><path d="M 611.886719 430.410156 L 635.386719 430.410156 L 635.386719 453.910156 L 611.886719 453.910156 Z M 611.886719 430.410156 " clip-rule="nonzero"/></clipPath><clipPath id="736cd4e2e5"><path d="M 623.636719 430.410156 C 617.144531 430.410156 611.886719 435.671875 611.886719 442.160156 C 611.886719 448.648438 617.144531 453.910156 623.636719 453.910156 C 630.125 453.910156 635.386719 448.648438 635.386719 442.160156 C 635.386719 435.671875 630.125 430.410156 623.636719 430.410156 Z M 623.636719 430.410156 " clip-rule="nonzero"/></clipPath><clipPath id="63e36bddd6"><path d="M 0.886719 0.410156 L 24.386719 0.410156 L 24.386719 23.910156 L 0.886719 23.910156 Z M 0.886719 0.410156 " clip-rule="nonzero"/></clipPath><clipPath id="39cc13f28d"><path d="M 12.636719 0.410156 C 6.144531 0.410156 0.886719 5.671875 0.886719 12.160156 C 0.886719 18.648438 6.144531 23.910156 12.636719 23.910156 C 19.125 23.910156 24.386719 18.648438 24.386719 12.160156 C 24.386719 5.671875 19.125 0.410156 12.636719 0.410156 Z M 12.636719 0.410156 " clip-rule="nonzero"/></clipPath><clipPath id="c0bb89b84e"><rect x="0" width="25" y="0" height="24"/></clipPath></defs><g clip-path="url(#6ab61199f7)"><path fill="#000000" d="M 331.476562 0.953125 L 110.460938 0.953125 L -0.0273438 192.273438 L 110.460938 383.59375 L 331.476562 383.59375 L 441.964844 192.273438 Z M 699.511719 213.53125 L 478.539062 213.53125 L 368.050781 404.851562 L 478.539062 596.175781 L 699.511719 596.175781 L 810 404.851562 Z M 331.476562 426.113281 L 110.460938 426.113281 L -0.0273438 617.433594 L 110.460938 808.753906 L 331.476562 808.753906 L 441.964844 617.433594 Z M 331.476562 426.113281 " fill-opacity="1" fill-rule="nonzero"/></g><g clip-path="url(#11cf146499)"><g clip-path="url(#736cd4e2e5)"><g transform="matrix(1, 0, 0, 1, 611, 430)"><g clip-path="url(#c0bb89b84e)"><g clip-path="url(#63e36bddd6)"><g clip-path="url(#39cc13f28d)"><path fill="#000000" d="M 0.886719 0.410156 L 24.386719 0.410156 L 24.386719 23.910156 L 0.886719 23.910156 Z M 0.886719 0.410156 " fill-opacity="1" fill-rule="nonzero"/></g></g></g></g></g></g></svg>