<svg xmlns="http://www.w3.org/2000/svg" xmlns:xlink="http://www.w3.org/1999/xlink" width="1080" zoomAndPan="magnify" viewBox="0 0 810 809.999993" height="1080" preserveAspectRatio="xMidYMid meet" version="1.0"><defs><clipPath id="3086232772"><path d="M 0 177.464844 L 810 177.464844 L 810 632.714844 L 0 632.714844 Z M 0 177.464844 " clip-rule="nonzero"/></clipPath><clipPath id="44ebb2b4fa"><path d="M 381.5 266.214844 L 405 266.214844 L 405 289.714844 L 381.5 289.714844 Z M 381.5 266.214844 " clip-rule="nonzero"/></clipPath><clipPath id="aca000018f"><path d="M 393.25 266.214844 C 386.761719 266.214844 381.5 271.476562 381.5 277.964844 C 381.5 284.457031 386.761719 289.714844 393.25 289.714844 C 399.738281 289.714844 405 284.457031 405 277.964844 C 405 271.476562 399.738281 266.214844 393.25 266.214844 Z M 393.25 266.214844 " clip-rule="nonzero"/></clipPath><clipPath id="61942e463b"><path d="M 0.5 0.214844 L 24 0.214844 L 24 23.714844 L 0.5 23.714844 Z M 0.5 0.214844 " clip-rule="nonzero"/></clipPath><clipPath id="e21f387d81"><path d="M 12.25 0.214844 C 5.761719 0.214844 0.5 5.476562 0.5 11.964844 C 0.5 18.457031 5.761719 23.714844 12.25 23.714844 C 18.738281 23.714844 24 18.457031 24 11.964844 C 24 5.476562 18.738281 0.214844 12.25 0.214844 Z M 12.25 0.214844 " clip-rule="nonzero"/></clipPath><clipPath id="23d8af34a9"><rect x="0" width="24" y="0" height="24"/></clipPath></defs><path fill="#000000" d="M 342.820312 383.882812 C 342.820312 309.042969 281.957031 248.15625 207.148438 248.15625 C 132.339844 248.15625 71.476562 309.042969 71.476562 383.882812 C 71.476562 458.722656 132.339844 519.609375 207.148438 519.609375 C 281.957031 519.609375 342.820312 458.722656 342.820312 383.882812 Z M 207.148438 502.640625 C 141.6875 502.640625 88.4375 449.367188 88.4375 383.882812 C 88.4375 318.398438 141.6875 265.125 207.148438 265.125 C 272.605469 265.125 325.859375 318.398438 325.859375 383.882812 C 325.859375 449.367188 272.605469 502.640625 207.148438 502.640625 Z M 207.148438 502.640625 " fill-opacity="1" fill-rule="nonzero"/><path fill="#000000" d="M 207.148438 296.988281 C 159.257812 296.988281 120.289062 335.972656 120.289062 383.882812 C 120.289062 388.570312 124.085938 392.367188 128.769531 392.367188 C 133.457031 392.367188 137.253906 388.570312 137.253906 383.882812 C 137.253906 345.328125 168.609375 313.957031 207.148438 313.957031 C 211.832031 313.957031 215.628906 310.160156 215.628906 305.472656 C 215.628906 300.785156 211.832031 296.988281 207.148438 296.988281 Z M 207.148438 296.988281 " fill-opacity="1" fill-rule="nonzero"/><g clip-path="url(#3086232772)"><path fill="#000000" d="M 800.707031 474.367188 L 413.480469 474.367188 L 413.480469 383.882812 C 413.480469 366.273438 411.027344 349.265625 406.859375 332.9375 C 407.042969 332.636719 407.324219 332.410156 407.472656 332.085938 L 422.722656 298.066406 C 423.695312 295.898438 423.714844 293.425781 422.777344 291.246094 C 407.125 254.816406 382.207031 222.667969 350.707031 198.261719 C 348.753906 196.75 346.257812 196.152344 343.835938 196.660156 L 307.910156 203.933594 C 278.078125 187.144531 243.742188 177.464844 207.148438 177.464844 C 93.378906 177.464844 0.8125 270.066406 0.8125 383.882812 L 0.8125 567.679688 C 0.8125 587.949219 17.300781 604.441406 37.558594 604.441406 L 792.226562 604.441406 L 792.226562 624.230469 C 792.226562 628.917969 796.023438 632.714844 800.707031 632.714844 C 805.394531 632.714844 809.1875 628.917969 809.1875 624.230469 L 809.1875 482.851562 C 809.1875 478.164062 805.394531 474.367188 800.707031 474.367188 Z M 17.777344 567.679688 L 17.777344 383.882812 C 17.777344 279.421875 102.730469 194.433594 207.148438 194.433594 C 242.621094 194.433594 275.730469 204.421875 304.140625 221.46875 C 308.347656 223.988281 312.460938 226.628906 316.429688 229.433594 C 317.742188 230.367188 319.003906 231.359375 320.292969 232.324219 C 323.703125 234.867188 327.050781 237.480469 330.265625 240.230469 C 332.023438 241.738281 333.703125 243.332031 335.402344 244.902344 C 338.019531 247.3125 340.613281 249.738281 343.082031 252.28125 C 345.023438 254.289062 346.863281 256.390625 348.714844 258.484375 C 350.816406 260.851562 352.925781 263.21875 354.902344 265.691406 C 356.691406 267.921875 358.355469 270.25 360.042969 272.5625 C 361.949219 275.183594 363.867188 277.789062 365.636719 280.503906 C 367.003906 282.59375 368.246094 284.761719 369.527344 286.90625 C 371.433594 290.105469 373.339844 293.300781 375.058594 296.617188 C 375.894531 298.222656 376.632812 299.886719 377.421875 301.519531 C 379.363281 305.542969 381.261719 309.59375 382.917969 313.769531 C 383.292969 314.707031 383.605469 315.675781 383.964844 316.621094 C 385.820312 321.519531 387.550781 326.472656 389.007812 331.554688 C 393.800781 348.199219 396.519531 365.714844 396.519531 383.882812 L 396.519531 587.472656 L 37.558594 587.472656 C 26.648438 587.472656 17.777344 578.59375 17.777344 567.679688 Z M 752.660156 587.472656 L 752.660156 553.542969 C 752.660156 548.855469 748.863281 545.058594 744.179688 545.058594 C 739.492188 545.058594 735.699219 548.855469 735.699219 553.542969 L 735.699219 587.472656 L 681.996094 587.472656 L 681.996094 553.542969 C 681.996094 548.855469 678.203125 545.058594 673.515625 545.058594 C 668.832031 545.058594 665.035156 548.855469 665.035156 553.542969 L 665.035156 587.472656 L 611.335938 587.472656 L 611.335938 553.542969 C 611.335938 548.855469 607.539062 545.058594 602.855469 545.058594 C 598.167969 545.058594 594.375 548.855469 594.375 553.542969 L 594.375 587.472656 L 540.671875 587.472656 L 540.671875 553.542969 C 540.671875 548.855469 536.878906 545.058594 532.191406 545.058594 C 527.507812 545.058594 523.710938 548.855469 523.710938 553.542969 L 523.710938 587.472656 L 470.011719 587.472656 L 470.011719 553.542969 C 470.011719 548.855469 466.214844 545.058594 461.53125 545.058594 C 456.84375 545.058594 453.050781 548.855469 453.050781 553.542969 L 453.050781 587.472656 L 413.480469 587.472656 L 413.480469 491.335938 L 792.226562 491.335938 L 792.226562 587.472656 Z M 752.660156 587.472656 " fill-opacity="1" fill-rule="nonzero"/></g><path fill="#000000" d="M 334.339844 502.640625 C 314.078125 502.640625 297.59375 519.132812 297.59375 539.402344 C 297.59375 559.671875 314.078125 576.164062 334.339844 576.164062 C 354.597656 576.164062 371.085938 559.671875 371.085938 539.402344 C 371.085938 519.132812 354.597656 502.640625 334.339844 502.640625 Z M 334.339844 559.195312 C 323.429688 559.195312 314.554688 550.316406 314.554688 539.402344 C 314.554688 528.488281 323.429688 519.609375 334.339844 519.609375 C 345.25 519.609375 354.125 528.488281 354.125 539.402344 C 354.125 550.316406 345.25 559.195312 334.339844 559.195312 Z M 334.339844 559.195312 " fill-opacity="1" fill-rule="nonzero"/><g clip-path="url(#44ebb2b4fa)"><g clip-path="url(#aca000018f)"><g transform="matrix(1, 0, 0, 1, 381, 266)"><g clip-path="url(#23d8af34a9)"><g clip-path="url(#61942e463b)"><g clip-path="url(#e21f387d81)"><path fill="#000000" d="M 0.5 0.214844 L 24 0.214844 L 24 23.714844 L 0.5 23.714844 Z M 0.5 0.214844 " fill-opacity="1" fill-rule="nonzero"/></g></g></g></g></g></g></svg>