<svg xmlns="http://www.w3.org/2000/svg" xmlns:xlink="http://www.w3.org/1999/xlink" width="1080" zoomAndPan="magnify" viewBox="0 0 810 809.999993" height="1080" preserveAspectRatio="xMidYMid meet" version="1.0"><defs><clipPath id="3e2a268abc"><path d="M 0 0 L 810 0 L 810 674.25 L 0 674.25 Z M 0 0 " clip-rule="nonzero"/></clipPath><clipPath id="3aa418a2bc"><path d="M 135.566406 405 L 181.367188 405 L 181.367188 450.800781 L 135.566406 450.800781 Z M 135.566406 405 " clip-rule="nonzero"/></clipPath><clipPath id="03503c0bc3"><path d="M 158.464844 405 C 145.816406 405 135.566406 415.253906 135.566406 427.902344 C 135.566406 440.546875 145.816406 450.800781 158.464844 450.800781 C 171.113281 450.800781 181.367188 440.546875 181.367188 427.902344 C 181.367188 415.253906 171.113281 405 158.464844 405 Z M 158.464844 405 " clip-rule="nonzero"/></clipPath><clipPath id="0c13124f61"><path d="M 0.566406 0 L 46.367188 0 L 46.367188 45.800781 L 0.566406 45.800781 Z M 0.566406 0 " clip-rule="nonzero"/></clipPath><clipPath id="b6b797025c"><path d="M 23.464844 0 C 10.816406 0 0.566406 10.253906 0.566406 22.902344 C 0.566406 35.546875 10.816406 45.800781 23.464844 45.800781 C 36.113281 45.800781 46.367188 35.546875 46.367188 22.902344 C 46.367188 10.253906 36.113281 0 23.464844 0 Z M 23.464844 0 " clip-rule="nonzero"/></clipPath><clipPath id="49b2e31c86"><rect x="0" width="47" y="0" height="46"/></clipPath></defs><g clip-path="url(#3e2a268abc)"><path fill="#000000" d="M 284.566406 330.140625 L 213.171875 227.609375 L 123.339844 98.582031 C 121.523438 95.976562 120.910156 93.074219 121.53125 89.960938 C 124.347656 75.707031 122.136719 60.394531 114.160156 46.898438 C 96.929688 17.734375 59.3125 8.0625 30.140625 25.292969 C 0.976562 42.523438 -8.703125 80.136719 8.535156 109.304688 C 16.511719 122.804688 28.859375 132.125 42.703125 136.535156 C 45.726562 137.496094 47.980469 139.433594 49.382812 142.277344 L 119.074219 283.203125 L 142.285156 330.140625 Z M 575.347656 330.140625 L 534.796875 330.140625 C 539.792969 244.394531 497.628906 153.273438 383.394531 151.03125 C 441.5625 192.019531 493.09375 253.179688 485.28125 316.339844 C 305.195312 308.144531 218.085938 202.738281 223.953125 0.121094 C 368.707031 101.222656 474.390625 16.894531 545.75 191.058594 C 623.949219 68.324219 720.964844 191.414062 810.003906 103.945312 C 796.597656 242.355469 757.898438 303.804688 667.40625 295.511719 C 604.320312 289.734375 604.191406 254.585938 628.78125 198.773438 C 574.136719 226.875 575.527344 270.027344 575.347656 330.140625 Z M 198.042969 662.859375 L 198.042969 634.320312 C 198.042969 630.371094 196.191406 626.980469 192.875 624.847656 C 94.226562 561.394531 40.691406 473.980469 32.296875 362.617188 C 32.050781 359.378906 33.058594 356.496094 35.269531 354.109375 C 37.484375 351.722656 40.28125 350.503906 43.535156 350.503906 L 692.644531 350.503906 C 695.898438 350.503906 698.699219 351.722656 700.910156 354.109375 C 703.121094 356.496094 704.128906 359.378906 703.882812 362.617188 C 695.488281 473.980469 641.964844 561.398438 543.308594 624.847656 C 539.988281 626.984375 538.136719 630.375 538.136719 634.324219 L 538.136719 662.859375 C 538.136719 669.070312 533.078125 674.128906 526.871094 674.128906 L 209.3125 674.128906 C 203.101562 674.128906 198.042969 669.070312 198.042969 662.859375 Z M 346.078125 597.578125 L 390.105469 597.578125 C 393.632812 597.578125 396.515625 594.695312 396.515625 591.167969 L 396.515625 546.230469 C 396.515625 543.203125 398.980469 540.734375 402.007812 540.734375 L 446.953125 540.734375 C 450.484375 540.734375 453.359375 537.851562 453.359375 534.324219 L 453.359375 490.304688 C 453.359375 486.773438 450.484375 483.890625 446.953125 483.890625 L 402.007812 483.890625 C 398.980469 483.890625 396.515625 481.425781 396.515625 478.398438 L 396.515625 433.460938 C 396.515625 429.929688 393.632812 427.050781 390.105469 427.050781 L 346.078125 427.050781 C 342.550781 427.050781 339.667969 429.929688 339.667969 433.460938 L 339.667969 478.398438 C 339.667969 481.425781 337.199219 483.890625 334.175781 483.890625 L 289.230469 483.890625 C 285.699219 483.890625 282.816406 486.773438 282.816406 490.304688 L 282.816406 534.324219 C 282.816406 537.851562 285.699219 540.734375 289.230469 540.734375 L 334.175781 540.734375 C 337.199219 540.734375 339.667969 543.203125 339.667969 546.230469 L 339.667969 591.167969 C 339.667969 594.695312 342.550781 597.578125 346.078125 597.578125 Z M 346.078125 597.578125 " fill-opacity="1" fill-rule="evenodd"/></g><g clip-path="url(#3aa418a2bc)"><g clip-path="url(#03503c0bc3)"><g transform="matrix(1, 0, 0, 1, 135, 405)"><g clip-path="url(#49b2e31c86)"><g clip-path="url(#0c13124f61)"><g clip-path="url(#b6b797025c)"><path fill="#000000" d="M 0.566406 0 L 46.367188 0 L 46.367188 45.800781 L 0.566406 45.800781 Z M 0.566406 0 " fill-opacity="1" fill-rule="nonzero"/></g></g></g></g></g></g></svg>