<svg xmlns="http://www.w3.org/2000/svg" xmlns:xlink="http://www.w3.org/1999/xlink" width="1080" zoomAndPan="magnify" viewBox="0 0 810 809.999993" height="1080" preserveAspectRatio="xMidYMid meet" version="1.0"><defs><clipPath id="5f86552446"><path d="M 10 9 L 806 9 L 806 729.75 L 10 729.75 Z M 10 9 " clip-rule="nonzero"/></clipPath><clipPath id="7b3ab0f86b"><path d="M 489.453125 365.007812 L 506.832031 365.007812 L 506.832031 382.382812 L 489.453125 382.382812 Z M 489.453125 365.007812 " clip-rule="nonzero"/></clipPath><clipPath id="396f79f84e"><path d="M 498.140625 365.007812 C 493.34375 365.007812 489.453125 368.894531 489.453125 373.695312 C 489.453125 378.492188 493.34375 382.382812 498.140625 382.382812 C 502.941406 382.382812 506.832031 378.492188 506.832031 373.695312 C 506.832031 368.894531 502.941406 365.007812 498.140625 365.007812 Z M 498.140625 365.007812 " clip-rule="nonzero"/></clipPath><clipPath id="79a17e920a"><path d="M 0.453125 0.0078125 L 17.832031 0.0078125 L 17.832031 17.382812 L 0.453125 17.382812 Z M 0.453125 0.0078125 " clip-rule="nonzero"/></clipPath><clipPath id="0aa3c3d15b"><path d="M 9.140625 0.0078125 C 4.34375 0.0078125 0.453125 3.894531 0.453125 8.695312 C 0.453125 13.492188 4.34375 17.382812 9.140625 17.382812 C 13.941406 17.382812 17.832031 13.492188 17.832031 8.695312 C 17.832031 3.894531 13.941406 0.0078125 9.140625 0.0078125 Z M 9.140625 0.0078125 " clip-rule="nonzero"/></clipPath><clipPath id="bdd9dbee84"><rect x="0" width="18" y="0" height="18"/></clipPath></defs><path fill="#000000" d="M 244.214844 323.609375 C 237.902344 315.65625 231.941406 308.136719 229.992188 299.75 C 228.855469 294.636719 229.074219 288.769531 229.304688 282.5625 C 229.40625 279.839844 229.507812 277.125 229.507812 274.429688 C 229.507812 259.886719 225.882812 248.738281 218.671875 241.242188 C 204.816406 227.027344 183.71875 230.757812 169.878906 240.308594 C 151.550781 253.203125 140.261719 276.246094 140.40625 300.378906 C 140.40625 322.890625 150.449219 345.574219 167.363281 361.136719 C 169.015625 362.617188 170.738281 364.058594 172.480469 365.503906 C 177.867188 369.988281 182.515625 373.859375 184.167969 378.617188 C 185.804688 383.441406 184.652344 389.617188 183.320312 396.761719 C 182.496094 401.160156 181.648438 405.691406 181.355469 410.492188 C 181.355469 410.527344 181.355469 410.566406 181.351562 410.589844 C 180.425781 428.835938 190.625 453.75 208.710938 462.191406 C 212.546875 463.996094 216.515625 464.871094 220.492188 464.871094 C 233.800781 464.871094 247.304688 455.089844 257.070312 437.535156 C 274.214844 406.789062 272.703125 364.980469 253.378906 335.859375 C 250.570312 331.648438 247.394531 327.625 244.214844 323.609375 Z M 244.214844 323.609375 " fill-opacity="1" fill-rule="nonzero"/><path fill="#000000" d="M 254.019531 519.519531 C 250.789062 511.652344 246.535156 502.589844 239.621094 495.21875 C 231.535156 486.398438 220.890625 481.234375 210.527344 481.0625 C 202.300781 481.160156 193.800781 484.277344 188.070312 490.25 C 183.210938 495.316406 180.777344 501.734375 181.222656 508.082031 C 181.648438 517.230469 186.945312 523.480469 191.203125 528.511719 C 192.617188 530.183594 194.078125 531.839844 195.121094 533.53125 C 197.066406 536.761719 198.050781 541.234375 199.09375 545.957031 C 200.351562 551.636719 201.769531 558.070312 205.210938 564.097656 C 210.203125 572.992188 226.632812 588.195312 242.496094 588.195312 C 242.917969 588.195312 243.34375 588.179688 243.769531 588.167969 C 252.515625 587.707031 259.640625 582.492188 263.308594 573.878906 C 266.832031 565.667969 265.515625 557.214844 263.796875 550.1875 C 261.433594 539.804688 258.136719 529.484375 254.019531 519.519531 Z M 254.019531 519.519531 " fill-opacity="1" fill-rule="nonzero"/><path fill="#000000" d="M 535.820312 582.648438 C 529.371094 579.199219 522.757812 577.300781 516.355469 575.460938 C 510.683594 573.839844 505.328125 572.292969 500.90625 569.882812 C 493.074219 565.546875 486.8125 557.699219 480.1875 549.390625 L 478.816406 547.683594 C 470.910156 537.757812 461.335938 526.695312 447.796875 521.152344 C 432.675781 515.050781 411.585938 518.191406 402.421875 534.050781 C 397.296875 542.921875 396.710938 554.203125 400.734375 566.6875 C 400.738281 566.699219 400.753906 566.722656 400.757812 566.75 C 409.433594 593.121094 499.125 650.441406 499.960938 650.9375 C 505.609375 654.445312 512.636719 658.808594 521.167969 659.867188 C 522.511719 660.039062 523.863281 660.125 525.210938 660.125 C 532.816406 660.125 540.355469 657.371094 546.777344 652.195312 C 554.917969 645.628906 560.066406 636.175781 560.894531 626.34375 C 562.488281 609.121094 552.425781 591.566406 535.820312 582.648438 Z M 535.820312 582.648438 " fill-opacity="1" fill-rule="nonzero"/><path fill="#000000" d="M 355.480469 90.800781 C 344.933594 84.476562 332.980469 77.316406 319.0625 73.726562 C 302.328125 69.542969 286.011719 72.070312 274.464844 80.585938 C 266.070312 86.640625 260.433594 96.773438 259.757812 107.039062 C 259.195312 115.527344 262.078125 123.214844 267.910156 128.722656 C 275.238281 135.5625 284.453125 136.71875 291.851562 137.65625 C 295.246094 138.082031 298.445312 138.484375 300.988281 139.332031 C 301.019531 139.34375 301.050781 139.347656 301.082031 139.363281 C 312.800781 143.152344 316.808594 154.445312 322.003906 172.59375 C 323.941406 179.355469 325.945312 186.339844 328.8125 192.613281 C 336.609375 209.828125 346.863281 213.726562 354.546875 213.726562 C 355.003906 213.726562 355.460938 213.714844 355.902344 213.683594 C 371.773438 212.75 384.386719 194.992188 389.863281 177.753906 C 393.96875 164.589844 399.59375 146.566406 393.636719 129.1875 C 386.976562 109.695312 368.019531 98.328125 355.480469 90.800781 Z M 355.480469 90.800781 " fill-opacity="1" fill-rule="nonzero"/><path fill="#000000" d="M 727.457031 247.574219 L 702.136719 260.230469 C 690.214844 236.992188 674.300781 216.15625 655.199219 199.046875 L 667.238281 174.886719 C 669.925781 169.488281 667.730469 162.933594 662.332031 160.25 C 656.953125 157.566406 650.382812 159.761719 647.691406 165.152344 L 637.820312 184.964844 C 625.660156 176.261719 612.550781 168.949219 598.695312 162.996094 L 605.660156 135.25 C 607.128906 129.40625 603.578125 123.476562 597.726562 122.011719 C 591.902344 120.542969 585.949219 124.09375 584.480469 129.941406 L 578.148438 155.164062 C 553.648438 147.382812 527.90625 144.074219 502.691406 145.367188 L 493.121094 116.667969 C 491.21875 110.957031 485.035156 107.875 479.308594 109.769531 C 473.585938 111.675781 470.496094 117.859375 472.402344 123.574219 L 480.398438 147.542969 C 475.679688 148.257812 471.148438 149.109375 466.78125 150.132812 C 445.972656 154.785156 433 163.421875 427.121094 176.539062 C 423.539062 184.539062 423.449219 192.847656 424.183594 200.257812 L 410.539062 196.851562 C 404.691406 195.40625 398.761719 198.953125 397.292969 204.792969 C 395.835938 210.648438 399.390625 216.574219 405.238281 218.035156 L 427.691406 223.644531 C 431.519531 247.890625 435.375 272.117188 439.269531 296.320312 L 420.367188 296.320312 C 414.335938 296.320312 409.449219 301.207031 409.449219 307.238281 C 409.449219 313.265625 414.335938 318.152344 420.367188 318.152344 L 442.734375 318.152344 C 444.886719 331.933594 447.027344 345.71875 449.265625 359.441406 C 450.722656 368.765625 452.859375 380.058594 456.515625 391.152344 L 430.699219 396.335938 C 424.789062 397.515625 420.957031 403.265625 422.144531 409.175781 C 423.1875 414.363281 427.742188 417.945312 432.835938 417.945312 C 433.550781 417.945312 434.273438 417.871094 435 417.726562 L 465.515625 411.605469 C 475.449219 428.597656 489.824219 439.621094 508.378906 444.429688 C 513.640625 445.777344 517.675781 447.449219 521.382812 449.429688 L 510.054688 477.832031 C 507.824219 483.4375 510.554688 489.78125 516.152344 492.011719 C 517.480469 492.546875 518.851562 492.792969 520.191406 492.792969 C 524.53125 492.792969 528.636719 490.195312 530.34375 485.921875 L 539.867188 462.039062 C 552.417969 471.296875 568.554688 475.835938 589.234375 475.835938 C 590.007812 475.835938 590.785156 475.835938 591.574219 475.820312 C 593.328125 475.78125 594.953125 475.660156 596.628906 475.574219 L 596.628906 494.351562 C 596.628906 500.382812 601.515625 505.265625 607.550781 505.265625 C 613.582031 505.265625 618.46875 500.382812 618.46875 494.351562 L 618.46875 472.988281 C 634.554688 470.234375 650.296875 465.40625 665.355469 458.328125 C 668.769531 456.71875 671.835938 455.117188 674.789062 453.511719 L 685.128906 474.261719 C 687.035156 478.101562 690.898438 480.316406 694.90625 480.316406 C 696.546875 480.316406 698.203125 479.953125 699.769531 479.171875 C 705.167969 476.480469 707.363281 469.925781 704.675781 464.542969 L 693.164062 441.433594 C 700.5 435.476562 706.59375 428.757812 711.347656 421.367188 C 719.988281 407.828125 724.753906 390.617188 725.972656 368.816406 L 753.238281 379.734375 C 754.566406 380.269531 755.945312 380.519531 757.292969 380.519531 C 761.621094 380.519531 765.722656 377.933594 767.429688 373.664062 C 769.679688 368.070312 766.953125 361.71875 761.355469 359.476562 L 725.617188 345.164062 C 724.320312 322.949219 719.472656 301.15625 711.195312 280.109375 L 737.21875 267.101562 C 742.617188 264.402344 744.796875 257.847656 742.105469 252.457031 C 739.410156 247.0625 732.835938 244.921875 727.457031 247.574219 Z M 536.78125 330.035156 C 538.597656 325.195312 542.441406 321.59375 546.433594 320.875 C 551.796875 320 558.359375 323.390625 565.285156 327.007812 C 568.398438 328.636719 571.507812 330.242188 574.765625 331.65625 C 588.238281 337.277344 603.464844 338.484375 617.710938 335.03125 C 619.882812 334.480469 622.109375 333.824219 624.367188 333.160156 C 631.171875 331.132812 638.195312 329.0625 641.492188 331.253906 C 642.417969 331.875 644.191406 333.726562 645.628906 338.859375 C 652.734375 366.820312 636.019531 377.808594 620.746094 382.101562 C 590.207031 390.65625 546.105469 377.277344 536.996094 347.816406 C 534.984375 341.265625 534.898438 334.96875 536.78125 330.035156 Z M 576.144531 250.894531 C 549.195312 258.851562 506.839844 248.246094 499.535156 235.316406 C 495.59375 228.15625 495.984375 218.972656 500.390625 213.558594 C 505.816406 207.035156 516.3125 205.164062 524.1875 204.746094 C 541.792969 203.789062 560.164062 207.816406 575.773438 216.171875 C 581.582031 219.316406 591.402344 225.8125 591.914062 234.078125 C 592.113281 237.34375 592.664062 246.015625 576.144531 250.894531 Z M 576.144531 250.894531 " fill-opacity="1" fill-rule="nonzero"/><path fill="#000000" d="M 343.933594 506.828125 C 343.933594 500.796875 339.046875 495.910156 333.015625 495.910156 L 310.664062 495.910156 C 309.734375 490.40625 308.824219 484.894531 307.84375 479.394531 C 305.597656 466.773438 303.4375 453.820312 301.824219 441.011719 L 325.40625 429.277344 C 330.804688 426.597656 332.996094 420.042969 330.3125 414.644531 C 327.617188 409.238281 321.054688 407.03125 315.667969 409.738281 L 299.828125 417.621094 C 299.480469 408.882812 299.476562 400.519531 300.21875 392.804688 C 301.421875 379.597656 304.277344 366.660156 307.5 353.277344 L 326.964844 366.222656 C 328.828125 367.460938 330.925781 368.050781 333.003906 368.050781 C 336.539062 368.050781 340.003906 366.339844 342.105469 363.183594 C 345.445312 358.164062 344.089844 351.386719 339.066406 348.046875 L 312.839844 330.605469 C 314.617188 322.644531 316.386719 314.277344 317.515625 305.671875 C 318.394531 299.003906 318.730469 292.480469 318.816406 286.050781 L 336.472656 280.167969 C 342.191406 278.261719 345.28125 272.078125 343.375 266.363281 C 341.472656 260.648438 335.300781 257.546875 329.5625 259.460938 L 317.324219 263.539062 C 314.015625 242.753906 305.667969 225.390625 292.625 212.882812 C 291.585938 211.890625 290.527344 211.242188 289.484375 210.347656 L 293.460938 198.421875 C 295.367188 192.703125 292.273438 186.519531 286.554688 184.617188 C 280.835938 182.691406 274.644531 185.804688 272.742188 191.515625 L 270.566406 198.042969 C 257.90625 192.183594 242.785156 189.011719 225.558594 188.308594 L 218.933594 155.398438 C 217.746094 149.484375 211.984375 145.644531 206.078125 146.847656 C 200.164062 148.035156 196.335938 153.789062 197.523438 159.699219 L 203.460938 189.1875 C 184.296875 191.027344 166.566406 196.242188 151.042969 204.574219 L 129.625 175.957031 C 126.003906 171.136719 119.167969 170.15625 114.335938 173.757812 C 109.507812 177.367188 108.523438 184.207031 112.136719 189.039062 L 132.554688 216.316406 C 112.734375 232.035156 99.023438 254.160156 94.550781 277.644531 L 68.324219 284.171875 C 62.46875 285.628906 58.914062 291.554688 60.367188 297.402344 C 61.605469 302.367188 66.058594 305.679688 70.957031 305.679688 C 71.828125 305.679688 72.71875 305.578125 73.601562 305.359375 L 93.011719 300.523438 C 94.40625 322.21875 102.867188 342.347656 111.28125 359.488281 C 112.359375 361.734375 113.53125 363.878906 114.65625 366.113281 L 93.253906 371.5 C 87.410156 372.976562 83.863281 378.910156 85.332031 384.757812 C 86.582031 389.707031 91.027344 393.003906 95.914062 393.003906 C 96.796875 393.003906 97.695312 392.898438 98.589844 392.675781 L 124.664062 386.109375 C 129.164062 395.261719 133.269531 404.089844 136.199219 413.140625 C 138.152344 419.183594 139.246094 425.652344 139.691406 432.722656 L 112.453125 421.851562 C 106.832031 419.570312 100.5 422.335938 98.261719 427.941406 C 96.027344 433.53125 98.75 439.890625 104.347656 442.121094 L 138.851562 455.890625 C 137.933594 464.640625 136.617188 473.46875 135.066406 482.722656 C 132.386719 498.660156 129.828125 515.050781 130.113281 531.320312 L 91.871094 546.59375 C 86.273438 548.835938 83.546875 555.183594 85.785156 560.773438 C 87.492188 565.050781 91.59375 567.644531 95.929688 567.644531 C 97.277344 567.644531 98.648438 567.402344 99.976562 566.863281 L 132.457031 553.894531 C 135.402344 567.183594 141.054688 579.125 149.628906 590.070312 C 152.90625 594.207031 156.828125 597.976562 161.09375 601.617188 L 148.550781 626.691406 C 145.859375 632.089844 148.039062 638.640625 153.4375 641.335938 C 155.003906 642.125 156.667969 642.492188 158.3125 642.492188 C 162.316406 642.492188 166.171875 640.285156 168.085938 636.460938 L 179.242188 614.160156 C 186.34375 618.132812 193.355469 621.410156 199.144531 623.9375 C 210.316406 628.949219 222.3125 633.683594 234.753906 636.140625 L 234.753906 656.523438 C 234.753906 662.554688 239.640625 667.4375 245.671875 667.4375 C 251.703125 667.4375 256.589844 662.554688 256.589844 656.523438 L 256.589844 637.859375 C 273.382812 637.074219 288.410156 631.085938 298.601562 620.414062 C 302.433594 616.40625 305.570312 611.660156 308.125 606.417969 L 328.15625 616.390625 C 329.722656 617.171875 331.378906 617.535156 333.019531 617.535156 C 337.027344 617.535156 340.890625 615.320312 342.796875 611.480469 C 345.484375 606.097656 343.289062 599.542969 337.890625 596.851562 L 314.804688 585.355469 C 315.535156 581.519531 316.109375 577.53125 316.445312 573.242188 C 318.140625 553.460938 316.445312 534.136719 314.152344 517.742188 L 333.023438 517.742188 C 339.046875 517.742188 343.933594 512.855469 343.933594 506.828125 Z M 248.144531 616.171875 C 248.136719 616.171875 246.6875 615.964844 246.679688 615.964844 C 233.375 614.722656 220.257812 609.484375 207.980469 603.976562 C 200.074219 600.515625 189.855469 595.765625 181.050781 589.699219 C 175.207031 585.605469 170.535156 581.292969 166.785156 576.554688 C 157.871094 565.191406 153.210938 552.886719 152.09375 537.707031 C 150.699219 521.421875 153.5625 504.378906 156.589844 486.335938 C 158.609375 474.3125 160.691406 461.898438 161.464844 449.535156 C 162.550781 433.222656 161.074219 419.113281 156.96875 406.410156 C 152.714844 393.285156 146.925781 381.441406 140.25 368.230469 C 137.074219 362.257812 133.894531 356.148438 130.925781 349.957031 C 122.371094 332.539062 113.753906 311.945312 114.644531 291.78125 C 114.730469 290.90625 114.773438 289.988281 114.8125 289.074219 L 114.894531 287.609375 L 115.015625 287.621094 C 117.238281 265.589844 130.316406 244.175781 150.144531 230.234375 C 151.019531 229.59375 151.871094 228.910156 152.832031 228.429688 C 153.207031 228.242188 153.574219 228.027344 153.925781 227.804688 C 171.171875 216.523438 192.890625 210.363281 217.382812 209.96875 C 218.875 209.859375 220.476562 209.871094 221.859375 209.871094 C 241.839844 210.261719 258.667969 214.8125 270.671875 223.125 C 273.023438 224.699219 275.285156 226.523438 277.53125 228.664062 C 292.386719 242.910156 296.332031 263.722656 297.023438 278.632812 C 297.347656 286.351562 296.957031 294.480469 295.855469 302.820312 C 294.507812 313.078125 292.070312 323.726562 289.949219 332.992188 L 288.203125 340.152344 C 284.199219 356.492188 280.0625 373.386719 278.464844 390.777344 C 277.167969 404.3125 277.382812 418.917969 279.066406 435.324219 C 279.070312 435.371094 279.070312 435.417969 279.074219 435.46875 C 279.089844 435.601562 279.085938 435.710938 279.097656 435.84375 C 280.75 451.800781 283.59375 467.773438 286.34375 483.222656 C 287.84375 491.636719 289.34375 500.070312 290.667969 508.621094 C 293.550781 525.941406 296.617188 548.722656 294.671875 571.46875 C 294.179688 577.742188 293.214844 583.199219 291.632812 588.472656 C 289.773438 595.476562 286.804688 601.15625 282.808594 605.320312 C 275.335938 613.140625 262.578125 617.109375 248.144531 616.171875 Z M 248.144531 616.171875 " fill-opacity="1" fill-rule="nonzero"/><g clip-path="url(#5f86552446)"><path fill="#000000" d="M 647.625 37.351562 C 616.257812 26.285156 583.414062 29.355469 551.660156 32.332031 C 540.4375 33.386719 528.84375 34.46875 517.703125 34.867188 C 478.921875 36.21875 438.515625 29.113281 399.476562 22.269531 C 336.851562 11.292969 272.113281 -0.0546875 210.621094 22.289062 C 162.871094 39.605469 119.296875 78.027344 87.90625 130.507812 C 57.78125 181.117188 41.746094 238.992188 31.140625 283.753906 C 15.679688 348.820312 0.234375 434.246094 18.230469 517.972656 C 36.804688 604.355469 91.417969 673.9375 160.75 699.558594 C 238.761719 728.5 395.398438 729.757812 411.570312 729.757812 C 412.042969 729.757812 412.398438 729.742188 412.621094 729.742188 C 529.441406 717.757812 622.964844 696.085938 699.683594 629.339844 C 761.089844 576.140625 799.476562 492.570312 805.007812 400.050781 C 809.566406 321.585938 791.554688 238.066406 751.472656 151.824219 C 732.945312 111.949219 702.015625 56.691406 647.625 37.351562 Z M 783.207031 398.773438 C 778.027344 485.449219 742.371094 563.472656 685.363281 612.859375 C 612.957031 675.851562 523.078125 696.464844 411.515625 707.976562 C 409.855469 707.976562 244.957031 707.511719 168.355469 679.09375 L 168.335938 679.09375 C 105.933594 656.03125 56.597656 592.539062 39.582031 513.394531 C 22.503906 433.941406 37.457031 351.628906 52.390625 288.792969 C 62.632812 245.542969 78.066406 189.730469 106.660156 141.691406 C 135.464844 93.527344 175.03125 58.414062 218.074219 42.808594 C 241.398438 34.335938 265.246094 31.1875 289.664062 31.1875 C 323.882812 31.1875 359.203125 37.375 395.707031 43.769531 C 435.84375 50.8125 477.375 58.035156 518.460938 56.683594 C 530.246094 56.261719 542.167969 55.148438 553.695312 54.070312 C 584.460938 51.1875 613.507812 48.472656 640.328125 57.925781 C 675.828125 70.546875 704.847656 103.304688 731.671875 161.023438 C 770.21875 243.964844 787.550781 323.957031 783.207031 398.773438 Z M 783.207031 398.773438 " fill-opacity="1" fill-rule="nonzero"/></g><g clip-path="url(#7b3ab0f86b)"><g clip-path="url(#396f79f84e)"><g transform="matrix(1, 0, 0, 1, 489, 365)"><g clip-path="url(#bdd9dbee84)"><g clip-path="url(#79a17e920a)"><g clip-path="url(#0aa3c3d15b)"><path fill="#000000" d="M 0.453125 0.0078125 L 17.832031 0.0078125 L 17.832031 17.382812 L 0.453125 17.382812 Z M 0.453125 0.0078125 " fill-opacity="1" fill-rule="nonzero"/></g></g></g></g></g></g></svg>