<svg xmlns="http://www.w3.org/2000/svg" xmlns:xlink="http://www.w3.org/1999/xlink" width="1080" zoomAndPan="magnify" viewBox="0 0 810 809.999993" height="1080" preserveAspectRatio="xMidYMid meet" version="1.0"><defs><clipPath id="d9e58e3064"><path d="M 295.992188 459.742188 L 313.371094 459.742188 L 313.371094 477.121094 L 295.992188 477.121094 Z M 295.992188 459.742188 " clip-rule="nonzero"/></clipPath><clipPath id="d60a42601f"><path d="M 304.679688 459.742188 C 299.882812 459.742188 295.992188 463.632812 295.992188 468.433594 C 295.992188 473.230469 299.882812 477.121094 304.679688 477.121094 C 309.480469 477.121094 313.371094 473.230469 313.371094 468.433594 C 313.371094 463.632812 309.480469 459.742188 304.679688 459.742188 Z M 304.679688 459.742188 " clip-rule="nonzero"/></clipPath><clipPath id="2a866341bd"><path d="M 0.992188 0.742188 L 18.371094 0.742188 L 18.371094 18.121094 L 0.992188 18.121094 Z M 0.992188 0.742188 " clip-rule="nonzero"/></clipPath><clipPath id="89e1d44024"><path d="M 9.679688 0.742188 C 4.882812 0.742188 0.992188 4.632812 0.992188 9.433594 C 0.992188 14.230469 4.882812 18.121094 9.679688 18.121094 C 14.480469 18.121094 18.371094 14.230469 18.371094 9.433594 C 18.371094 4.632812 14.480469 0.742188 9.679688 0.742188 Z M 9.679688 0.742188 " clip-rule="nonzero"/></clipPath><clipPath id="84e41c7495"><rect x="0" width="19" y="0" height="19"/></clipPath></defs><path fill="#000000" d="M 405 810 C 296.746094 810 195.039062 767.789062 118.625 691.375 C 42.210938 614.960938 0 513.253906 0 405 C 0 296.746094 42.210938 195.039062 118.625 118.625 C 195.039062 42.210938 296.746094 0 405 0 C 513.253906 0 614.960938 42.210938 691.375 118.625 C 767.789062 195.039062 810 296.746094 810 405 C 810 513.253906 767.789062 614.960938 691.375 691.375 C 614.960938 767.789062 513.253906 810 405 810 Z M 405 21.832031 C 302.566406 21.832031 206.503906 61.679688 134.089844 134.089844 C 61.679688 206.503906 21.832031 302.566406 21.832031 405 C 21.832031 507.433594 61.679688 603.496094 134.089844 675.910156 C 206.503906 748.320312 302.75 788.167969 405 788.167969 C 507.433594 788.167969 603.496094 748.320312 675.910156 675.910156 C 748.320312 603.496094 788.167969 507.25 788.167969 405 C 788.167969 302.566406 748.320312 206.503906 675.910156 134.089844 C 603.496094 61.679688 507.433594 21.832031 405 21.832031 Z M 405 755.417969 C 211.777344 755.417969 54.582031 598.222656 54.582031 405 C 54.582031 320.945312 84.964844 239.617188 140.09375 175.9375 C 142.09375 173.570312 145.007812 172.296875 147.917969 172.117188 C 151.011719 171.933594 153.921875 173.207031 156.105469 175.390625 L 634.789062 654.078125 C 636.972656 656.261719 638.066406 659.171875 638.066406 662.265625 C 638.066406 665.355469 636.609375 668.085938 634.246094 670.085938 C 570.382812 725.035156 489.054688 755.417969 405 755.417969 Z M 149.007812 199.226562 C 102.070312 257.445312 76.414062 330.039062 76.414062 405 C 76.414062 586.214844 223.785156 733.585938 405 733.585938 C 479.960938 733.585938 552.554688 707.929688 610.773438 660.992188 Z M 665.175781 633.699219 C 662.265625 633.699219 659.535156 632.609375 657.535156 630.425781 L 179.394531 152.464844 C 177.210938 150.28125 176.117188 147.371094 176.117188 144.277344 C 176.300781 141.1875 177.574219 138.273438 179.9375 136.457031 C 242.890625 83.691406 322.761719 54.582031 404.816406 54.582031 C 598.039062 54.582031 755.234375 211.777344 755.234375 405 C 755.234375 487.054688 726.125 566.925781 673.363281 629.878906 C 671.359375 632.242188 668.449219 633.699219 665.539062 633.699219 C 665.539062 633.699219 665.355469 633.699219 665.175781 633.699219 Z M 203.410156 145.734375 L 664.265625 606.589844 C 709.023438 549.097656 733.585938 477.957031 733.585938 405 C 733.585938 223.785156 586.210938 76.414062 405 76.414062 C 332.042969 76.414062 260.902344 100.976562 203.410156 145.734375 Z M 203.410156 145.734375 " fill-opacity="1" fill-rule="nonzero"/><path fill="#000000" d="M 452.121094 516.894531 L 133.179688 516.894531 C 116.625 516.894531 103.160156 503.429688 103.160156 486.875 C 103.160156 478.867188 106.253906 471.226562 111.894531 465.585938 C 117.535156 459.945312 125.175781 456.851562 133.179688 456.851562 L 432.835938 456.851562 C 438.839844 456.851562 443.753906 461.765625 443.753906 467.769531 C 443.753906 473.773438 438.839844 478.6875 432.835938 478.6875 L 133.179688 478.6875 C 130.996094 478.6875 128.996094 479.59375 127.359375 481.050781 C 125.902344 482.507812 124.992188 484.691406 124.992188 486.875 C 124.992188 491.421875 128.632812 495.0625 133.179688 495.0625 L 452.121094 495.0625 C 454.304688 495.0625 456.308594 494.152344 457.945312 492.695312 C 462.3125 488.511719 469.226562 488.511719 473.410156 492.695312 C 477.59375 497.0625 477.59375 503.976562 473.410156 508.160156 C 467.585938 513.800781 460.128906 516.894531 452.121094 516.894531 Z M 452.121094 516.894531 " fill-opacity="1" fill-rule="nonzero"/><path fill="#000000" d="M 292.742188 633.335938 L 227.609375 633.335938 C 214.871094 633.335938 204.683594 622.964844 204.683594 610.410156 L 204.683594 596.765625 C 178.847656 586.578125 140.457031 558.195312 140.457031 505.976562 C 140.457031 499.972656 145.371094 495.0625 151.375 495.0625 C 157.378906 495.0625 162.292969 499.972656 162.292969 505.976562 C 162.292969 561.652344 216.328125 577.84375 218.691406 578.570312 C 223.421875 579.84375 226.699219 584.210938 226.699219 589.125 L 226.699219 610.59375 C 226.699219 611.320312 227.242188 611.683594 227.789062 611.683594 L 292.925781 611.683594 C 298.929688 611.683594 303.839844 616.597656 303.839844 622.601562 C 303.839844 628.605469 298.746094 633.335938 292.742188 633.335938 Z M 292.742188 633.335938 " fill-opacity="1" fill-rule="nonzero"/><path fill="#000000" d="M 357.878906 633.335938 L 292.742188 633.335938 C 286.738281 633.335938 281.824219 628.421875 281.824219 622.417969 C 281.824219 616.414062 286.738281 611.503906 292.742188 611.503906 L 357.878906 611.503906 C 358.605469 611.503906 358.96875 610.957031 358.96875 610.410156 L 358.96875 588.941406 C 358.96875 584.03125 362.242188 579.664062 366.972656 578.390625 C 369.15625 577.660156 423.195312 561.652344 423.195312 505.796875 C 423.195312 499.792969 428.105469 494.878906 434.109375 494.878906 C 440.113281 494.878906 445.027344 499.792969 445.027344 505.796875 C 445.027344 558.011719 406.636719 586.394531 380.800781 596.582031 L 380.800781 610.230469 C 380.984375 623.148438 370.613281 633.335938 357.878906 633.335938 Z M 357.878906 633.335938 " fill-opacity="1" fill-rule="nonzero"/><path fill="#000000" d="M 270.546875 475.957031 C 265.269531 475.957031 260.722656 472.136719 259.8125 466.679688 C 257.082031 450.121094 248.347656 435.746094 234.886719 426.285156 C 223.242188 418.101562 209.59375 415.007812 197.222656 417.371094 C 175.753906 421.554688 158.835938 441.570312 155.921875 466.3125 C 155.195312 472.316406 149.738281 476.683594 143.734375 475.957031 C 137.730469 475.230469 133.542969 469.769531 134.089844 463.765625 C 138.09375 429.742188 162.292969 401.90625 192.855469 395.902344 C 211.050781 392.445312 230.882812 396.996094 247.257812 408.457031 C 265.269531 421.191406 277.824219 441.023438 281.28125 463.222656 C 282.191406 469.226562 278.1875 474.683594 272.183594 475.773438 C 271.636719 475.773438 271.089844 475.957031 270.546875 475.957031 Z M 270.546875 475.957031 " fill-opacity="1" fill-rule="nonzero"/><path fill="#000000" d="M 170.84375 428.652344 C 165.019531 428.652344 160.109375 424.105469 159.925781 418.101562 C 158.652344 382.804688 179.210938 350.417969 208.867188 341.140625 C 226.699219 335.679688 247.257812 338.773438 265.085938 349.691406 C 276.003906 356.421875 285.101562 365.519531 291.832031 376.433594 C 295.472656 369.523438 300.566406 362.789062 307.117188 356.605469 C 309.84375 354.054688 312.757812 351.691406 316.03125 349.691406 C 321.125 346.414062 327.855469 347.6875 331.132812 352.78125 C 334.40625 357.878906 333.132812 364.609375 328.039062 367.882812 C 325.855469 369.339844 323.855469 370.976562 321.851562 372.796875 C 309.480469 384.078125 305.113281 399.722656 303.476562 410.640625 C 302.75 415.917969 298.199219 419.917969 292.925781 420.101562 C 292.925781 420.101562 292.742188 420.101562 292.742188 420.101562 C 287.464844 420.101562 282.917969 416.28125 282.007812 411.003906 C 278.914062 393.175781 268.542969 377.527344 253.625 368.429688 C 241.253906 360.789062 227.242188 358.421875 215.417969 362.242188 C 195.039062 368.613281 180.847656 391.71875 181.757812 417.554688 C 181.941406 423.558594 177.210938 428.652344 171.207031 428.835938 C 171.207031 428.652344 171.023438 428.652344 170.84375 428.652344 Z M 170.84375 428.652344 " fill-opacity="1" fill-rule="nonzero"/><path fill="#000000" d="M 322.035156 471.953125 C 316.214844 471.953125 311.480469 467.40625 311.117188 461.582031 C 310.753906 453.941406 311.300781 434.292969 326.039062 417.554688 C 335.863281 406.273438 347.6875 401.179688 355.875 398.996094 C 361.699219 397.359375 367.703125 400.816406 369.339844 406.636719 C 370.976562 412.460938 367.519531 418.464844 361.699219 420.101562 C 356.421875 421.554688 348.78125 424.832031 342.414062 431.925781 C 332.953125 442.660156 332.585938 455.398438 332.769531 460.492188 C 333.132812 466.496094 328.402344 471.589844 322.398438 471.953125 C 322.398438 471.953125 322.21875 471.953125 322.035156 471.953125 Z M 322.035156 471.953125 " fill-opacity="1" fill-rule="nonzero"/><path fill="#000000" d="M 456.308594 420.464844 C 451.941406 420.464844 447.757812 417.734375 446.117188 413.371094 L 444.84375 409.914062 C 437.386719 390.082031 433.746094 369.339844 433.746094 348.234375 L 433.746094 186.671875 C 433.746094 180.667969 438.660156 175.753906 444.664062 175.753906 C 450.667969 175.753906 455.578125 180.667969 455.578125 186.671875 L 455.578125 348.234375 C 455.578125 366.792969 458.855469 384.804688 465.402344 402.089844 L 466.679688 405.546875 C 468.859375 411.1875 465.949219 417.554688 460.308594 419.554688 C 458.855469 420.28125 457.582031 420.464844 456.308594 420.464844 Z M 456.308594 420.464844 " fill-opacity="1" fill-rule="nonzero"/><path fill="#000000" d="M 557.832031 521.078125 C 552.554688 521.078125 548.003906 517.4375 547.09375 512.164062 L 534.359375 441.023438 C 533.449219 436.292969 535.816406 431.5625 540.183594 429.378906 C 557.832031 420.464844 570.019531 411.730469 577.117188 396.265625 C 583.847656 380.984375 584.757812 363.515625 584.757812 348.597656 L 584.757812 187.035156 C 584.757812 181.03125 589.667969 176.117188 595.671875 176.117188 C 601.679688 176.117188 606.589844 181.03125 606.589844 187.035156 L 606.589844 348.597656 C 606.589844 366.066406 605.5 386.261719 596.949219 405.183594 C 588.214844 424.832031 573.113281 436.292969 557.285156 445.027344 L 568.566406 508.34375 C 569.65625 514.347656 565.652344 519.988281 559.832031 521.078125 C 559.285156 520.894531 558.558594 521.078125 557.832031 521.078125 Z M 557.832031 521.078125 " fill-opacity="1" fill-rule="nonzero"/><path fill="#000000" d="M 482.324219 318.578125 C 476.320312 318.578125 471.410156 313.664062 471.410156 307.660156 L 471.410156 186.308594 C 471.410156 180.304688 476.320312 175.390625 482.324219 175.390625 C 488.328125 175.390625 493.242188 180.304688 493.242188 186.308594 L 493.242188 307.660156 C 493.242188 313.664062 488.328125 318.578125 482.324219 318.578125 Z M 482.324219 318.578125 " fill-opacity="1" fill-rule="nonzero"/><path fill="#000000" d="M 520.167969 318.578125 C 514.164062 318.578125 509.25 313.664062 509.25 307.660156 L 509.25 186.308594 C 509.25 180.304688 514.164062 175.390625 520.167969 175.390625 C 526.171875 175.390625 531.085938 180.304688 531.085938 186.308594 L 531.085938 307.660156 C 531.085938 313.664062 526.171875 318.578125 520.167969 318.578125 Z M 520.167969 318.578125 " fill-opacity="1" fill-rule="nonzero"/><path fill="#000000" d="M 558.011719 318.578125 C 552.007812 318.578125 547.09375 313.664062 547.09375 307.660156 L 547.09375 186.308594 C 547.09375 180.304688 552.007812 175.390625 558.011719 175.390625 C 564.015625 175.390625 568.929688 180.304688 568.929688 186.308594 L 568.929688 307.660156 C 568.929688 313.664062 564.015625 318.578125 558.011719 318.578125 Z M 558.011719 318.578125 " fill-opacity="1" fill-rule="nonzero"/><g clip-path="url(#d9e58e3064)"><g clip-path="url(#d60a42601f)"><g transform="matrix(1, 0, 0, 1, 295, 459)"><g clip-path="url(#84e41c7495)"><g clip-path="url(#2a866341bd)"><g clip-path="url(#89e1d44024)"><path fill="#000000" d="M 0.992188 0.742188 L 18.371094 0.742188 L 18.371094 18.121094 L 0.992188 18.121094 Z M 0.992188 0.742188 " fill-opacity="1" fill-rule="nonzero"/></g></g></g></g></g></g></svg>