<svg xmlns="http://www.w3.org/2000/svg" xmlns:xlink="http://www.w3.org/1999/xlink" width="1080" zoomAndPan="magnify" viewBox="0 0 810 809.999993" height="1080" preserveAspectRatio="xMidYMid meet" version="1.0"><defs><clipPath id="b147b41425"><path d="M 273.453125 461.621094 L 290.832031 461.621094 L 290.832031 479 L 273.453125 479 Z M 273.453125 461.621094 " clip-rule="nonzero"/></clipPath><clipPath id="ad78afef4d"><path d="M 282.140625 461.621094 C 277.34375 461.621094 273.453125 465.511719 273.453125 470.3125 C 273.453125 475.109375 277.34375 479 282.140625 479 C 286.941406 479 290.832031 475.109375 290.832031 470.3125 C 290.832031 465.511719 286.941406 461.621094 282.140625 461.621094 Z M 282.140625 461.621094 " clip-rule="nonzero"/></clipPath><clipPath id="2ae1c1734a"><path d="M 0.453125 0.621094 L 17.832031 0.621094 L 17.832031 18 L 0.453125 18 Z M 0.453125 0.621094 " clip-rule="nonzero"/></clipPath><clipPath id="3c1da74712"><path d="M 9.140625 0.621094 C 4.34375 0.621094 0.453125 4.511719 0.453125 9.3125 C 0.453125 14.109375 4.34375 18 9.140625 18 C 13.941406 18 17.832031 14.109375 17.832031 9.3125 C 17.832031 4.511719 13.941406 0.621094 9.140625 0.621094 Z M 9.140625 0.621094 " clip-rule="nonzero"/></clipPath><clipPath id="ad766f78ee"><rect x="0" width="18" y="0" height="18"/></clipPath></defs><path fill="#000000" d="M 315.339844 343.96875 L 285.402344 342.160156 C 287.632812 305.417969 301.535156 271.535156 324.578125 246.777344 L 346.558594 267.195312 C 328.242188 286.886719 317.152344 314.15625 315.355469 343.96875 Z M 315.339844 343.96875 " fill-opacity="1" fill-rule="nonzero"/><path fill="#000000" d="M 405.09375 659.949219 C 363.734375 659.949219 330.085938 626.300781 330.085938 584.941406 L 330.085938 569.933594 L 360.085938 569.933594 L 360.085938 584.941406 C 360.085938 609.761719 380.273438 629.949219 405.09375 629.949219 C 429.914062 629.949219 450.101562 609.761719 450.101562 584.941406 L 450.101562 569.933594 L 480.101562 569.933594 L 480.101562 584.941406 C 480.101562 626.300781 446.453125 659.949219 405.09375 659.949219 Z M 405.09375 659.949219 " fill-opacity="1" fill-rule="nonzero"/><path fill="#000000" d="M 176.023438 456.734375 L 132.375 386.949219 L 157.804688 371.035156 L 184.136719 413.144531 L 234.261719 375.5625 L 252.25 399.570312 Z M 176.023438 456.734375 " fill-opacity="1" fill-rule="nonzero"/><path fill="#000000" d="M 165.089844 334.15625 L 165.089844 239.925781 L 195.089844 239.925781 L 195.089844 295.714844 L 243.46875 283.625 L 250.738281 312.71875 Z M 165.089844 334.15625 " fill-opacity="1" fill-rule="nonzero"/><path fill="#000000" d="M 634.160156 456.734375 L 558.199219 399.757812 L 576.1875 375.765625 L 626.050781 413.144531 L 652.382812 371.050781 L 677.828125 386.964844 Z M 634.160156 456.734375 " fill-opacity="1" fill-rule="nonzero"/><path fill="#000000" d="M 585.113281 606.160156 L 525.191406 546.25 L 546.40625 525.035156 L 585.113281 563.738281 L 628.640625 520.195312 L 649.855469 541.414062 Z M 585.113281 606.160156 " fill-opacity="1" fill-rule="nonzero"/><path fill="#000000" d="M 405.09375 809.96875 C 181.765625 809.96875 0.0625 628.28125 0.0625 404.9375 C 0.0625 181.59375 181.765625 -0.078125 405.09375 -0.078125 C 628.421875 -0.078125 810.125 181.609375 810.125 404.953125 C 810.125 628.296875 628.4375 809.984375 405.09375 809.984375 Z M 405.09375 29.921875 C 198.304688 29.921875 30.078125 198.164062 30.078125 404.9375 C 30.078125 611.710938 198.320312 779.953125 405.09375 779.953125 C 611.867188 779.953125 780.109375 611.710938 780.109375 404.9375 C 780.109375 198.164062 611.882812 29.921875 405.09375 29.921875 Z M 405.09375 29.921875 " fill-opacity="1" fill-rule="nonzero"/><path fill="#000000" d="M 405.09375 749.96875 C 325.234375 749.96875 247.335938 722.027344 185.777344 671.308594 L 173.03125 660.808594 L 660.949219 172.875 L 671.449219 185.621094 C 722.183594 247.179688 750.109375 325.0625 750.109375 404.9375 C 750.109375 595.191406 595.332031 749.953125 405.09375 749.953125 Z M 217.914062 658.34375 C 271.863281 698.1875 337.699219 719.96875 405.09375 719.96875 C 578.792969 719.96875 720.105469 578.636719 720.105469 404.953125 C 720.105469 337.574219 698.328125 271.738281 658.484375 217.773438 Z M 217.914062 658.34375 " fill-opacity="1" fill-rule="nonzero"/><path fill="#000000" d="M 149.238281 637 L 138.738281 624.253906 C 88.003906 562.695312 60.078125 484.8125 60.078125 404.9375 C 60.078125 214.683594 214.855469 59.921875 405.09375 59.921875 C 484.953125 59.921875 562.851562 87.863281 624.410156 138.582031 L 637.15625 149.082031 Z M 405.09375 89.921875 C 231.394531 89.921875 90.078125 231.253906 90.078125 404.9375 C 90.078125 472.316406 111.859375 538.152344 151.703125 592.117188 L 592.273438 151.546875 C 538.324219 111.703125 472.488281 89.921875 405.09375 89.921875 Z M 405.09375 89.921875 " fill-opacity="1" fill-rule="nonzero"/><path fill="#000000" d="M 465.09375 584.957031 L 345.09375 584.957031 C 325.746094 584.957031 306.824219 579.636719 290.363281 569.589844 L 306.011719 543.988281 C 317.757812 551.164062 331.269531 554.957031 345.09375 554.957031 L 465.09375 554.957031 C 506.453125 554.957031 540.105469 521.304688 540.105469 479.945312 C 540.105469 438.589844 506.453125 404.9375 465.09375 404.9375 L 465.09375 374.9375 C 522.988281 374.9375 570.105469 422.050781 570.105469 479.945312 C 570.105469 537.839844 522.988281 584.957031 465.09375 584.957031 Z M 465.09375 584.957031 " fill-opacity="1" fill-rule="nonzero"/><path fill="#000000" d="M 272.953125 490.023438 C 242.09375 452.503906 225.074219 403.644531 225.074219 352.441406 C 225.074219 240.769531 305.824219 149.925781 405.078125 149.925781 C 459.214844 149.925781 509.949219 176.929688 544.285156 224 L 520.058594 241.675781 C 491.414062 202.421875 449.523438 179.925781 405.078125 179.925781 C 322.363281 179.925781 255.074219 257.320312 255.074219 352.441406 C 255.074219 396.714844 269.644531 438.792969 296.121094 470.960938 L 272.9375 490.039062 Z M 272.953125 490.023438 " fill-opacity="1" fill-rule="nonzero"/><path fill="#000000" d="M 561.710938 452.378906 L 534.941406 438.839844 C 548.136719 412.722656 555.113281 382.832031 555.113281 352.441406 C 555.113281 333.59375 552.492188 315.09375 547.3125 297.460938 L 576.109375 289.023438 C 582.070312 309.414062 585.113281 330.738281 585.113281 352.441406 C 585.113281 387.511719 577.03125 422.066406 561.710938 452.378906 Z M 561.710938 452.378906 " fill-opacity="1" fill-rule="nonzero"/><g clip-path="url(#b147b41425)"><g clip-path="url(#ad78afef4d)"><g transform="matrix(1, 0, 0, 1, 273, 461)"><g clip-path="url(#ad766f78ee)"><g clip-path="url(#2ae1c1734a)"><g clip-path="url(#3c1da74712)"><path fill="#000000" d="M 0.453125 0.621094 L 17.832031 0.621094 L 17.832031 18 L 0.453125 18 Z M 0.453125 0.621094 " fill-opacity="1" fill-rule="nonzero"/></g></g></g></g></g></g></svg>