<svg xmlns="http://www.w3.org/2000/svg" xmlns:xlink="http://www.w3.org/1999/xlink" width="1080" zoomAndPan="magnify" viewBox="0 0 810 809.999993" height="1080" preserveAspectRatio="xMidYMid meet" version="1.0"><defs><clipPath id="dbc11dc4be"><path d="M 405 523.605469 L 422.378906 523.605469 L 422.378906 540.984375 L 405 540.984375 Z M 405 523.605469 " clip-rule="nonzero"/></clipPath><clipPath id="ec6d76f21f"><path d="M 413.6875 523.605469 C 408.890625 523.605469 405 527.496094 405 532.292969 C 405 537.09375 408.890625 540.984375 413.6875 540.984375 C 418.488281 540.984375 422.378906 537.09375 422.378906 532.292969 C 422.378906 527.496094 418.488281 523.605469 413.6875 523.605469 Z M 413.6875 523.605469 " clip-rule="nonzero"/></clipPath><clipPath id="b573e049f6"><path d="M 0 0.605469 L 17.378906 0.605469 L 17.378906 17.984375 L 0 17.984375 Z M 0 0.605469 " clip-rule="nonzero"/></clipPath><clipPath id="8fbfccca2d"><path d="M 8.6875 0.605469 C 3.890625 0.605469 0 4.496094 0 9.292969 C 0 14.09375 3.890625 17.984375 8.6875 17.984375 C 13.488281 17.984375 17.378906 14.09375 17.378906 9.292969 C 17.378906 4.496094 13.488281 0.605469 8.6875 0.605469 Z M 8.6875 0.605469 " clip-rule="nonzero"/></clipPath><clipPath id="d7f642ec5e"><rect x="0" width="18" y="0" height="18"/></clipPath></defs><path fill="#000000" d="M 669.734375 153.472656 C 669.734375 153.472656 669.101562 153.472656 669.734375 153.472656 C 669.734375 153.472656 669.101562 153.472656 669.101562 153.472656 C 669.101562 153.472656 668.472656 153.472656 668.472656 153.472656 C 667.839844 153.472656 667.207031 153.472656 667.207031 153.472656 C 666.574219 153.472656 666.574219 153.472656 665.945312 153.472656 C 665.3125 153.472656 664.679688 153.472656 664.679688 153.472656 C 664.046875 153.472656 664.046875 153.472656 663.417969 153.472656 C 662.785156 153.472656 662.785156 153.472656 662.152344 154.105469 C 661.519531 154.105469 661.519531 154.738281 660.890625 154.738281 C 660.890625 154.738281 660.257812 154.738281 660.257812 155.367188 C 659.625 155.367188 659.625 156 658.992188 156 C 658.363281 156 658.363281 156.632812 657.730469 156.632812 C 657.730469 156.632812 657.097656 157.265625 657.097656 157.265625 C 657.097656 157.898438 656.464844 157.898438 656.464844 158.53125 C 656.464844 158.53125 655.835938 159.160156 655.835938 159.160156 C 655.835938 159.792969 655.203125 159.792969 655.203125 160.425781 C 655.203125 161.058594 655.203125 161.058594 654.570312 161.691406 C 654.570312 162.324219 653.9375 162.324219 653.9375 162.953125 C 653.9375 162.953125 653.9375 163.585938 653.9375 163.585938 C 653.9375 164.21875 653.9375 164.21875 653.9375 164.851562 C 653.9375 165.484375 653.9375 165.484375 653.9375 166.113281 C 653.9375 166.746094 653.9375 166.746094 653.9375 167.378906 C 653.9375 168.011719 653.9375 168.011719 653.9375 168.644531 C 653.9375 169.277344 653.9375 169.277344 654.570312 169.90625 C 654.570312 170.539062 655.203125 170.539062 655.203125 171.171875 C 655.203125 171.171875 655.203125 171.804688 655.835938 171.804688 C 657.730469 175.597656 658.992188 180.023438 658.992188 184.445312 C 658.992188 198.351562 648.253906 209.730469 634.984375 209.730469 C 632.457031 209.730469 630.5625 209.097656 628.035156 208.46875 C 623.613281 207.203125 618.558594 208.46875 615.398438 211.628906 C 612.238281 214.789062 610.976562 219.84375 612.238281 224.269531 C 612.871094 226.167969 612.871094 228.695312 612.871094 230.589844 C 612.871094 244.5 602.128906 255.875 588.863281 255.875 C 576.855469 255.875 566.117188 246.394531 564.851562 233.753906 C 564.21875 229.960938 562.324219 226.167969 558.535156 224.269531 C 554.742188 222.375 550.953125 221.742188 547.160156 223.636719 C 544 224.902344 540.84375 225.535156 537.050781 225.535156 C 526.3125 225.535156 516.832031 217.949219 513.675781 207.835938 C 506.722656 212.261719 498.511719 215.421875 489.664062 216.683594 C 496.613281 236.28125 514.9375 250.820312 536.417969 250.820312 C 538.316406 250.820312 540.210938 250.820312 542.738281 250.1875 C 550.320312 268.519531 568.011719 280.53125 588.230469 280.53125 C 614.132812 280.53125 635.617188 260.300781 637.511719 234.382812 C 663.417969 232.488281 683.636719 210.996094 683.636719 183.816406 C 683.636719 183.183594 683.636719 183.183594 683.636719 182.550781 C 726.597656 196.457031 759.453125 223.636719 777.777344 260.933594 C 716.488281 266.621094 684.265625 314.03125 652.675781 359.542969 C 608.449219 423.390625 566.746094 483.441406 446.699219 445.511719 C 465.65625 429.710938 477.027344 408.851562 488.402344 388.621094 C 506.722656 354.488281 523.152344 324.777344 569.90625 319.722656 C 576.855469 319.089844 581.910156 312.769531 581.28125 305.8125 C 580.648438 298.859375 574.328125 293.804688 567.378906 294.4375 C 507.988281 301.390625 485.875 341.214844 466.917969 376.613281 C 455.546875 396.839844 444.804688 416.4375 427.746094 429.078125 C 402.472656 359.542969 411.949219 303.917969 437.222656 262.828125 C 430.273438 261.566406 423.324219 257.773438 417.636719 252.714844 C 417.003906 252.082031 416.375 250.820312 415.742188 250.1875 C 384.78125 302.023438 375.9375 371.554688 410.054688 453.097656 L 410.054688 518.839844 C 405 512.519531 399.945312 506.195312 394.257812 499.875 C 386.046875 382.300781 320.335938 310.871094 217.347656 307.710938 C 121.941406 305.8125 12.636719 370.921875 0.632812 471.429688 C 0 475.222656 1.894531 479.648438 4.421875 482.175781 C 7.582031 484.703125 11.371094 485.96875 15.164062 485.335938 C 41.699219 480.28125 63.183594 484.703125 82.769531 494.1875 C 83.402344 485.335938 86.558594 477.121094 92.246094 470.796875 C 75.1875 463.210938 56.863281 458.15625 36.015625 458.15625 C 33.488281 458.15625 30.960938 458.15625 28.433594 458.15625 C 48.652344 380.40625 137.738281 331.730469 215.453125 333.628906 C 295.695312 335.523438 349.398438 387.359375 364.5625 473.957031 C 317.175781 435.398438 255.257812 406.320312 209.132812 406.320312 C 202.183594 406.320312 196.496094 412.011719 196.496094 418.964844 C 196.496094 425.917969 202.183594 431.605469 209.132812 431.605469 C 255.890625 431.605469 317.808594 463.84375 360.140625 502.40625 C 333.605469 523.898438 310.226562 537.171875 290.007812 544.757812 C 290.007812 551.078125 288.746094 557.398438 285.585938 563.089844 L 279.898438 573.835938 C 307.699219 566.882812 339.921875 550.445312 377.832031 520.105469 C 396.785156 540.964844 408.789062 563.089844 408.789062 581.417969 L 408.789062 696.464844 L 329.179688 696.464844 C 322.230469 696.464844 316.542969 702.15625 316.542969 709.109375 C 316.542969 716.0625 322.230469 721.75 329.179688 721.75 L 518.730469 721.75 C 525.679688 721.75 531.363281 716.0625 531.363281 709.109375 C 531.363281 702.15625 525.679688 696.464844 518.730469 696.464844 L 434.695312 696.464844 L 434.695312 468.902344 C 465.65625 479.015625 492.191406 483.441406 514.9375 483.441406 C 598.339844 483.441406 637.511719 426.550781 673.527344 374.714844 C 707.011719 326.042969 736.707031 283.691406 796.101562 286.851562 C 800.523438 286.851562 804.3125 284.953125 806.839844 281.792969 C 809.367188 278.632812 810 274.207031 808.734375 269.785156 C 787.253906 209.097656 737.339844 168.011719 669.734375 153.472656 Z M 669.734375 153.472656 " fill-opacity="1" fill-rule="nonzero"/><path fill="#000000" d="M 495.984375 112.382812 C 502.300781 114.28125 509.882812 110.488281 511.777344 104.167969 C 513.675781 97.214844 509.882812 90.261719 503.566406 88.363281 L 475.765625 79.515625 C 471.339844 78.25 466.285156 79.515625 463.128906 82.675781 L 458.707031 87.101562 C 457.441406 84.570312 455.546875 82.042969 454.28125 80.144531 L 465.023438 69.398438 C 470.078125 64.34375 470.078125 56.757812 465.023438 51.699219 C 459.96875 46.644531 452.386719 46.644531 447.332031 51.699219 L 436.589844 61.183594 C 433.433594 58.652344 430.273438 56.757812 427.113281 54.863281 L 430.90625 51.070312 C 434.0625 47.910156 435.328125 42.851562 434.0625 38.425781 L 425.21875 10.613281 C 423.324219 3.660156 415.742188 0.5 409.421875 2.394531 C 402.472656 4.292969 399.3125 11.878906 401.210938 18.199219 L 407.527344 39.058594 L 401.839844 44.746094 C 377.199219 38.425781 350.664062 44.117188 332.972656 62.445312 C 314.648438 80.777344 308.960938 106.695312 315.28125 131.347656 L 309.59375 137.039062 L 288.742188 130.714844 C 281.792969 128.820312 274.84375 132.613281 272.949219 138.933594 C 271.054688 145.886719 274.84375 152.839844 281.164062 154.738281 L 308.960938 163.585938 C 310.226562 164.21875 311.488281 164.21875 312.753906 164.21875 C 315.914062 164.21875 319.070312 162.953125 321.597656 160.425781 L 325.390625 156.632812 C 327.285156 159.792969 329.8125 162.953125 331.707031 166.113281 L 321.597656 176.230469 C 316.542969 181.285156 316.542969 188.871094 321.597656 193.929688 C 324.125 196.457031 327.285156 197.722656 330.445312 197.722656 C 333.605469 197.722656 336.761719 196.457031 339.289062 193.929688 L 350.03125 183.183594 C 352.558594 185.078125 355.085938 186.34375 356.980469 187.605469 L 352.558594 192.03125 C 349.398438 195.191406 348.136719 200.25 349.398438 204.675781 L 358.246094 232.488281 C 360.140625 238.175781 365.195312 241.335938 370.25 241.335938 C 371.511719 241.335938 372.777344 241.335938 374.039062 240.707031 C 380.992188 238.808594 384.148438 231.222656 382.253906 224.902344 L 375.9375 204.042969 L 382.886719 197.089844 C 388.574219 198.351562 393.628906 198.984375 399.3125 198.984375 C 401.839844 198.984375 403.734375 198.984375 406.261719 198.351562 C 406.894531 199.617188 408.160156 200.25 408.789062 201.515625 C 414.476562 207.203125 421.425781 209.730469 429.007812 209.730469 C 431.535156 209.730469 434.0625 209.730469 436.589844 209.097656 C 436.589844 209.730469 437.222656 210.363281 437.222656 210.996094 C 437.222656 213.523438 435.960938 215.421875 434.695312 217.316406 C 429.640625 222.375 429.640625 229.960938 434.695312 235.015625 C 437.222656 237.546875 440.382812 238.808594 443.542969 238.808594 C 446.699219 238.808594 449.859375 237.546875 452.386719 235.015625 C 458.703125 228.695312 462.496094 220.476562 462.496094 210.996094 C 462.496094 206.570312 461.863281 201.515625 459.96875 197.722656 C 461.230469 196.457031 463.128906 195.191406 464.390625 193.929688 C 465.65625 192.664062 466.917969 190.769531 468.183594 189.503906 C 471.972656 191.398438 476.394531 192.03125 481.449219 192.03125 C 481.449219 192.03125 482.082031 192.03125 482.082031 192.03125 C 490.929688 192.03125 499.140625 188.238281 506.09375 181.917969 C 511.148438 176.859375 511.148438 169.277344 506.09375 164.21875 C 501.039062 159.160156 493.457031 159.160156 488.402344 164.21875 C 486.503906 166.113281 484.609375 166.746094 482.082031 166.746094 C 481.449219 166.746094 480.820312 166.746094 480.1875 166.117188 C 482.082031 155.371094 480.1875 145.253906 473.238281 138.300781 C 471.972656 137.039062 471.339844 136.40625 470.078125 135.773438 C 470.710938 128.1875 470.078125 120.601562 468.8125 113.015625 L 475.765625 106.0625 Z M 356.980469 154.738281 C 350.03125 147.785156 345.609375 140.199219 342.449219 132.613281 C 342.449219 130.714844 341.816406 129.453125 340.554688 128.1875 C 336.761719 114.914062 337.394531 101.636719 343.082031 90.261719 L 374.671875 121.867188 C 377.199219 124.394531 380.359375 125.660156 383.519531 125.660156 C 386.675781 125.660156 389.835938 124.394531 392.363281 121.867188 C 397.417969 116.808594 397.417969 109.222656 392.363281 104.167969 L 360.773438 72.5625 C 372.144531 66.871094 385.414062 66.238281 398.683594 70.03125 C 399.945312 70.664062 401.839844 71.296875 403.105469 71.929688 C 411.316406 75.089844 418.898438 80.144531 425.21875 86.46875 C 438.488281 99.742188 444.804688 116.175781 444.171875 131.980469 C 434.695312 133.875 425.21875 138.933594 417.003906 147.152344 C 408.789062 155.367188 403.738281 164.851562 401.839844 174.332031 C 386.675781 174.332031 369.617188 168.011719 356.980469 154.738281 Z M 427.113281 183.816406 C 425.851562 182.550781 425.851562 173.070312 435.328125 164.21875 C 442.277344 157.265625 448.597656 155.367188 452.386719 155.367188 C 453.652344 155.367188 454.28125 155.367188 454.914062 156 C 456.179688 157.265625 456.179688 166.746094 446.699219 175.597656 C 437.855469 184.445312 429.007812 185.078125 427.113281 183.816406 Z M 427.113281 183.816406 " fill-opacity="1" fill-rule="nonzero"/><path fill="#000000" d="M 238.199219 585.210938 C 242.621094 585.210938 247.042969 582.683594 249.570312 578.257812 L 263.472656 551.710938 C 266.628906 545.390625 264.101562 537.804688 258.417969 534.644531 C 252.097656 531.480469 244.515625 534.011719 241.355469 539.699219 L 231.25 559.296875 L 220.507812 559.296875 C 216.085938 552.34375 211.03125 546.652344 204.710938 541.597656 C 204.710938 540.332031 205.34375 539.066406 205.34375 537.171875 C 205.34375 527.058594 199.65625 517.574219 190.179688 511.886719 C 192.074219 509.359375 194.601562 507.460938 198.394531 507.460938 C 205.34375 507.460938 211.03125 501.773438 211.03125 494.820312 C 211.03125 487.867188 205.34375 482.175781 198.394531 482.175781 C 183.859375 482.175781 171.226562 491.027344 166.171875 503.667969 C 164.273438 503.667969 162.378906 503.035156 159.851562 503.035156 C 157.324219 503.035156 155.429688 503.035156 153.535156 503.667969 C 148.480469 491.027344 135.84375 482.175781 121.308594 482.175781 C 114.359375 482.175781 108.675781 487.867188 108.675781 494.820312 C 108.675781 501.773438 114.359375 507.460938 121.308594 507.460938 C 124.46875 507.460938 127.628906 509.359375 129.523438 511.886719 C 120.046875 518.207031 114.359375 527.058594 114.359375 537.171875 C 114.359375 538.433594 114.359375 539.699219 114.992188 541.597656 C 109.304688 546.652344 103.621094 552.34375 99.195312 559.296875 L 88.457031 559.296875 L 78.347656 539.699219 C 75.1875 533.378906 67.605469 530.851562 61.285156 534.644531 C 54.96875 537.804688 52.441406 545.390625 56.230469 551.710938 L 70.132812 578.257812 C 72.027344 582.683594 76.449219 585.210938 81.503906 585.210938 L 88.457031 585.210938 C 87.824219 588.375 87.191406 591.535156 86.558594 594.0625 L 70.765625 594.0625 C 63.8125 594.0625 58.128906 599.75 58.128906 606.703125 C 58.128906 613.65625 63.8125 619.347656 70.765625 619.347656 L 85.929688 619.347656 C 86.558594 623.773438 87.191406 627.566406 87.824219 631.359375 L 81.503906 631.359375 C 77.082031 631.359375 72.660156 633.886719 70.132812 638.3125 L 56.230469 664.859375 C 53.074219 671.179688 55.601562 678.765625 61.285156 681.925781 C 63.183594 683.191406 65.078125 683.191406 66.972656 683.191406 C 71.394531 683.191406 75.820312 680.664062 78.347656 676.238281 L 88.457031 656.640625 L 97.300781 656.640625 C 111.203125 678.765625 133.945312 693.9375 159.851562 693.9375 C 185.757812 693.9375 209.132812 679.398438 222.402344 656.640625 L 231.246094 656.640625 L 241.355469 676.238281 C 243.882812 680.664062 248.308594 683.191406 252.730469 683.191406 C 254.625 683.191406 256.519531 682.558594 258.417969 681.925781 C 264.734375 678.765625 267.261719 671.179688 263.472656 664.859375 L 249.570312 638.3125 C 247.675781 633.886719 243.253906 631.359375 238.199219 631.359375 L 231.878906 631.359375 C 232.511719 627.566406 233.773438 623.140625 233.773438 619.347656 L 248.9375 619.347656 C 255.890625 619.347656 261.574219 613.65625 261.574219 606.703125 C 261.574219 599.75 255.890625 594.0625 248.9375 594.0625 L 233.144531 594.0625 C 232.511719 590.902344 231.878906 587.742188 231.246094 585.210938 Z M 179.4375 538.433594 C 179.4375 540.964844 171.855469 547.285156 159.21875 547.285156 C 146.582031 547.285156 139 541.597656 139 538.433594 C 139 535.273438 146.582031 529.585938 159.21875 529.585938 C 171.855469 529.585938 179.4375 535.90625 179.4375 538.433594 Z M 171.855469 667.386719 L 171.855469 620.613281 C 171.855469 613.65625 166.171875 607.96875 159.21875 607.96875 C 152.269531 607.96875 146.582031 613.65625 146.582031 620.613281 L 146.582031 667.386719 C 133.945312 663.597656 123.207031 654.113281 116.886719 641.472656 C 116.253906 639.574219 115.625 638.3125 114.359375 637.046875 C 110.570312 628.828125 108.675781 619.980469 108.675781 609.867188 C 108.675781 590.902344 116.257812 573.835938 128.261719 563.089844 C 136.472656 568.777344 147.214844 571.9375 159.21875 571.9375 C 171.226562 571.9375 181.964844 568.777344 190.179688 563.089844 C 202.183594 573.835938 209.765625 590.902344 209.765625 609.867188 C 209.765625 619.347656 207.871094 628.828125 204.078125 637.046875 C 202.816406 638.3125 202.183594 640.207031 201.550781 641.472656 C 195.234375 654.113281 184.492188 663.597656 171.855469 667.386719 Z M 171.855469 667.386719 " fill-opacity="1" fill-rule="nonzero"/><g clip-path="url(#dbc11dc4be)"><g clip-path="url(#ec6d76f21f)"><g transform="matrix(1, 0, 0, 1, 405, 523)"><g clip-path="url(#d7f642ec5e)"><g clip-path="url(#b573e049f6)"><g clip-path="url(#8fbfccca2d)"><path fill="#000000" d="M 0 0.605469 L 17.378906 0.605469 L 17.378906 17.984375 L 0 17.984375 Z M 0 0.605469 " fill-opacity="1" fill-rule="nonzero"/></g></g></g></g></g></g></svg>