<svg xmlns="http://www.w3.org/2000/svg" xmlns:xlink="http://www.w3.org/1999/xlink" width="1080" zoomAndPan="magnify" viewBox="0 0 810 809.999993" height="1080" preserveAspectRatio="xMidYMid meet" version="1.0"><defs><clipPath id="b9e665f455"><path d="M 258.425781 480.40625 L 275.804688 480.40625 L 275.804688 497.785156 L 258.425781 497.785156 Z M 258.425781 480.40625 " clip-rule="nonzero"/></clipPath><clipPath id="ceccc04862"><path d="M 267.113281 480.40625 C 262.316406 480.40625 258.425781 484.296875 258.425781 489.09375 C 258.425781 493.894531 262.316406 497.785156 267.113281 497.785156 C 271.914062 497.785156 275.804688 493.894531 275.804688 489.09375 C 275.804688 484.296875 271.914062 480.40625 267.113281 480.40625 Z M 267.113281 480.40625 " clip-rule="nonzero"/></clipPath><clipPath id="6a50c7f688"><path d="M 0.425781 0.40625 L 17.804688 0.40625 L 17.804688 17.785156 L 0.425781 17.785156 Z M 0.425781 0.40625 " clip-rule="nonzero"/></clipPath><clipPath id="43c9bd6d53"><path d="M 9.113281 0.40625 C 4.316406 0.40625 0.425781 4.296875 0.425781 9.09375 C 0.425781 13.894531 4.316406 17.785156 9.113281 17.785156 C 13.914062 17.785156 17.804688 13.894531 17.804688 9.09375 C 17.804688 4.296875 13.914062 0.40625 9.113281 0.40625 Z M 9.113281 0.40625 " clip-rule="nonzero"/></clipPath><clipPath id="790a5c4b77"><rect x="0" width="18" y="0" height="18"/></clipPath></defs><path fill="#000000" d="M 616.925781 444.707031 C 608.039062 445.632812 601.570312 453.582031 602.5 462.472656 C 603.613281 473.109375 604.140625 482.722656 604.140625 491.855469 C 604.140625 649.433594 475.917969 777.628906 318.335938 777.628906 C 160.75 777.628906 32.527344 649.433594 32.527344 491.855469 C 32.527344 289.242188 266.726562 81.570312 318.355469 38.265625 C 331.480469 49.207031 356.335938 70.679688 385.929688 99.839844 C 392.25 106.097656 402.53125 106.054688 408.808594 99.671875 C 415.085938 93.3125 415 83.074219 408.640625 76.796875 C 363.433594 32.230469 329.730469 5.734375 328.320312 4.628906 C 322.398438 0.00390625 314.183594 0.0351562 308.347656 4.636719 C 295.753906 14.527344 0.171875 249.53125 0.171875 491.855469 C 0.171875 667.273438 142.90625 809.980469 318.335938 809.980469 C 493.761719 809.980469 636.496094 667.273438 636.496094 491.855469 C 636.496094 481.597656 635.90625 470.886719 634.683594 459.121094 C 633.757812 450.234375 625.734375 443.945312 616.925781 444.707031 Z M 616.925781 444.707031 " fill-opacity="1" fill-rule="nonzero"/><path fill="#000000" d="M 565.003906 4.195312 C 559.398438 0.171875 551.816406 0.171875 546.214844 4.195312 C 539.765625 8.796875 388.4375 118.4375 388.4375 254.605469 C 388.4375 346.777344 463.429688 421.757812 555.609375 421.757812 C 647.789062 421.757812 722.777344 346.777344 722.777344 254.605469 C 722.777344 118.4375 571.449219 8.796875 565.003906 4.195312 Z M 555.609375 389.40625 C 481.269531 389.40625 420.792969 328.9375 420.792969 254.605469 C 420.792969 153.277344 523.570312 63.328125 555.609375 37.757812 C 587.648438 63.328125 690.421875 153.277344 690.421875 254.605469 C 690.421875 328.9375 629.945312 389.40625 555.609375 389.40625 Z M 555.609375 389.40625 " fill-opacity="1" fill-rule="nonzero"/><path fill="#000000" d="M 641.890625 238.429688 C 632.957031 238.429688 625.710938 245.675781 625.710938 254.605469 C 625.710938 293.257812 594.261719 324.703125 555.609375 324.703125 C 546.675781 324.703125 539.429688 331.949219 539.429688 340.878906 C 539.429688 349.808594 546.675781 357.054688 555.609375 357.054688 C 612.105469 357.054688 658.066406 311.097656 658.066406 254.605469 C 658.066406 245.675781 650.820312 238.429688 641.890625 238.429688 Z M 641.890625 238.429688 " fill-opacity="1" fill-rule="nonzero"/><path fill="#000000" d="M 188.910156 454.109375 C 179.980469 454.109375 172.734375 461.355469 172.734375 470.285156 L 172.734375 642.828125 C 172.734375 651.757812 179.980469 659.003906 188.910156 659.003906 C 197.84375 659.003906 205.089844 651.757812 205.089844 642.828125 L 205.089844 572.734375 L 232.054688 572.734375 C 264.765625 572.734375 291.371094 546.132812 291.371094 513.421875 C 291.371094 480.710938 264.765625 454.109375 232.054688 454.109375 Z M 259.015625 513.421875 C 259.015625 528.292969 246.925781 540.382812 232.054688 540.382812 L 205.089844 540.382812 L 205.089844 486.460938 L 232.054688 486.460938 C 246.925781 486.460938 259.015625 498.550781 259.015625 513.421875 Z M 259.015625 513.421875 " fill-opacity="1" fill-rule="nonzero"/><path fill="#000000" d="M 447.757812 659.003906 C 456.6875 659.003906 463.933594 651.757812 463.933594 642.828125 L 463.933594 470.285156 C 463.933594 461.355469 456.6875 454.109375 447.757812 454.109375 C 438.824219 454.109375 431.578125 461.355469 431.578125 470.285156 L 431.578125 540.382812 L 377.652344 540.382812 L 377.652344 470.285156 C 377.652344 461.355469 370.40625 454.109375 361.476562 454.109375 C 352.542969 454.109375 345.296875 461.355469 345.296875 470.285156 L 345.296875 642.828125 C 345.296875 651.757812 352.542969 659.003906 361.476562 659.003906 C 370.40625 659.003906 377.652344 651.757812 377.652344 642.828125 L 377.652344 572.734375 L 431.578125 572.734375 L 431.578125 642.828125 C 431.578125 651.757812 438.824219 659.003906 447.757812 659.003906 Z M 447.757812 659.003906 " fill-opacity="1" fill-rule="nonzero"/><g clip-path="url(#b9e665f455)"><g clip-path="url(#ceccc04862)"><g transform="matrix(1, 0, 0, 1, 258, 480)"><g clip-path="url(#790a5c4b77)"><g clip-path="url(#6a50c7f688)"><g clip-path="url(#43c9bd6d53)"><path fill="#000000" d="M 0.425781 0.40625 L 17.804688 0.40625 L 17.804688 17.785156 L 0.425781 17.785156 Z M 0.425781 0.40625 " fill-opacity="1" fill-rule="nonzero"/></g></g></g></g></g></g></svg>