<svg xmlns="http://www.w3.org/2000/svg" xmlns:xlink="http://www.w3.org/1999/xlink" width="1080" zoomAndPan="magnify" viewBox="0 0 810 809.999993" height="1080" preserveAspectRatio="xMidYMid meet" version="1.0"><defs><clipPath id="e0661fa687"><path d="M 179.386719 264.203125 L 193.382812 264.203125 L 193.382812 278.199219 L 179.386719 278.199219 Z M 179.386719 264.203125 " clip-rule="nonzero"/></clipPath><clipPath id="41bfc7ced6"><path d="M 186.386719 264.203125 C 182.519531 264.203125 179.386719 267.335938 179.386719 271.203125 C 179.386719 275.066406 182.519531 278.199219 186.386719 278.199219 C 190.25 278.199219 193.382812 275.066406 193.382812 271.203125 C 193.382812 267.335938 190.25 264.203125 186.386719 264.203125 Z M 186.386719 264.203125 " clip-rule="nonzero"/></clipPath><clipPath id="5454c0675b"><path d="M 0.386719 0.203125 L 14.382812 0.203125 L 14.382812 14.199219 L 0.386719 14.199219 Z M 0.386719 0.203125 " clip-rule="nonzero"/></clipPath><clipPath id="43ce923e6c"><path d="M 7.386719 0.203125 C 3.519531 0.203125 0.386719 3.335938 0.386719 7.203125 C 0.386719 11.066406 3.519531 14.199219 7.386719 14.199219 C 11.25 14.199219 14.382812 11.066406 14.382812 7.203125 C 14.382812 3.335938 11.25 0.203125 7.386719 0.203125 Z M 7.386719 0.203125 " clip-rule="nonzero"/></clipPath><clipPath id="01b0ba04ff"><rect x="0" width="15" y="0" height="15"/></clipPath></defs><path fill="#000000" d="M 418.535156 181.890625 C 465.734375 192.886719 512.933594 163.535156 523.929688 116.339844 C 534.925781 69.140625 505.574219 21.945312 458.289062 10.949219 C 411.089844 0.0390625 363.890625 29.386719 352.894531 76.585938 C 341.984375 123.695312 371.335938 170.894531 418.535156 181.890625 Z M 418.535156 181.890625 " fill-opacity="1" fill-rule="nonzero"/><path fill="#000000" d="M 484.679688 607.59375 C 494.914062 607.085938 509.125 604.460938 518.597656 594.90625 C 530.527344 582.976562 531.542969 563.523438 531.371094 555.742188 C 531.371094 554.644531 530.527344 553.796875 529.425781 553.796875 C 521.644531 553.628906 502.191406 554.644531 490.261719 566.570312 C 488.65625 568.175781 487.21875 570.039062 485.695312 572.40625 L 483.496094 575.789062 L 483.496094 547.875 L 483.835938 547.539062 C 490.433594 540.265625 498.296875 528.847656 498.296875 515.988281 C 498.296875 499.328125 485.019531 485.117188 479.265625 479.789062 C 478.503906 479.027344 477.238281 479.027344 476.390625 479.789062 C 470.640625 485.117188 457.359375 499.328125 457.359375 515.988281 C 457.359375 528.847656 465.226562 540.265625 471.824219 547.539062 L 472.160156 547.875 L 472.160156 575.789062 L 469.960938 572.492188 C 468.441406 570.039062 467 568.175781 465.394531 566.652344 C 454.058594 555.320312 435.957031 553.882812 427.5 553.882812 C 427.078125 553.882812 426.652344 553.882812 426.316406 553.882812 C 425.214844 553.882812 424.371094 554.726562 424.371094 555.828125 C 424.199219 563.609375 425.214844 583.0625 437.144531 594.988281 C 446.699219 604.460938 460.828125 607.085938 471.0625 607.675781 L 472.160156 607.761719 L 472.160156 640.75 L 469.960938 637.449219 C 468.441406 634.996094 467 633.21875 465.394531 631.613281 C 453.46875 619.6875 434.097656 618.585938 426.230469 618.839844 C 425.132812 618.839844 424.285156 619.6875 424.285156 620.785156 C 424.117188 628.566406 425.132812 647.9375 437.058594 659.949219 C 446.617188 669.507812 460.742188 672.128906 470.976562 672.636719 L 472.078125 672.71875 L 472.078125 705.367188 L 483.410156 705.367188 L 483.410156 672.71875 L 484.511719 672.636719 C 494.746094 672.128906 508.957031 669.507812 518.429688 659.949219 C 530.355469 648.023438 531.371094 628.652344 531.203125 620.785156 C 531.203125 619.6875 530.355469 618.839844 529.257812 618.839844 C 521.476562 618.585938 502.019531 619.6875 490.09375 631.613281 C 488.488281 633.21875 487.046875 634.996094 485.527344 637.449219 L 483.328125 640.832031 L 483.328125 607.84375 Z M 484.679688 607.59375 " fill-opacity="1" fill-rule="nonzero"/><path fill="#000000" d="M 513.015625 310.707031 C 520.628906 317.558594 532.472656 325.765625 545.921875 325.765625 C 562.839844 325.765625 577.21875 312.738281 582.632812 307.15625 C 583.394531 306.394531 583.394531 305.210938 582.632812 304.363281 C 577.300781 298.699219 562.753906 285.671875 545.921875 285.671875 C 543.636719 285.671875 541.351562 285.925781 538.5625 286.515625 L 534.671875 287.363281 L 554.464844 267.570312 L 554.886719 267.570312 C 564.699219 267.0625 578.316406 264.527344 587.453125 255.476562 C 599.296875 243.632812 599.886719 224.265625 599.632812 216.484375 C 599.632812 215.382812 598.703125 214.453125 597.601562 214.453125 C 589.820312 214.113281 570.367188 214.792969 558.523438 226.632812 C 549.472656 235.769531 546.9375 249.300781 546.429688 259.199219 L 546.429688 259.621094 L 526.636719 279.414062 L 527.480469 275.523438 C 528.074219 272.730469 528.328125 270.363281 528.328125 268.164062 C 528.328125 252.09375 516.570312 238.304688 510.5625 232.300781 C 510.226562 231.960938 509.972656 231.707031 509.71875 231.453125 C 508.957031 230.691406 507.6875 230.691406 506.925781 231.453125 C 501.34375 236.867188 488.234375 251.246094 488.234375 268.164062 C 488.234375 281.613281 496.4375 293.453125 503.289062 301.066406 L 504.050781 301.910156 L 480.875 325.257812 L 481.71875 321.367188 C 482.3125 318.574219 482.566406 316.207031 482.566406 314.007812 C 482.566406 297.089844 469.625 282.710938 463.957031 277.296875 C 463.195312 276.535156 461.925781 276.535156 461.164062 277.296875 C 455.582031 282.710938 442.554688 297.089844 442.554688 314.007812 C 442.554688 327.457031 450.761719 339.382812 457.613281 346.992188 L 458.375 347.839844 L 441.964844 364.25 L 384.953125 323.140625 C 386.730469 249.214844 382.839844 235.9375 381.570312 231.285156 C 379.117188 222.996094 369.980469 194.324219 352.21875 170.046875 L 332.679688 143.320312 C 322.273438 129.023438 306.203125 119.804688 288.609375 118.03125 C 271.015625 116.167969 253.335938 121.921875 240.226562 133.675781 L 92.199219 259.789062 C 81.289062 268.925781 74.945312 282.371094 74.859375 296.582031 L 72.746094 483.761719 L 10.148438 637.871094 C 0 662.910156 12.011719 691.414062 37.050781 701.5625 C 62.085938 711.710938 90.507812 699.703125 100.742188 674.664062 L 166.804688 512.015625 C 169.089844 506.347656 170.273438 500.257812 170.355469 494.167969 L 170.695312 466.679688 L 201.824219 508.546875 L 244.539062 666.460938 C 250.882812 689.976562 272.875 707.398438 297.066406 704.863281 C 327.855469 701.648438 347.3125 672.042969 339.53125 643.371094 L 293.515625 473.953125 C 291.90625 468.117188 289.199219 462.535156 285.5625 457.710938 L 210.957031 357.3125 L 303.917969 286.515625 C 303.917969 303.601562 303.582031 323.988281 302.988281 342.171875 C 302.566406 355.707031 308.824219 368.648438 319.90625 376.597656 L 398.570312 433.269531 C 401.277344 435.214844 404.152344 436.820312 407.113281 438.003906 C 424.117188 444.941406 444.25 439.613281 455.414062 424.046875 C 467.339844 407.554688 464.972656 385.308594 450.929688 371.4375 L 466.496094 355.875 L 467.339844 356.636719 C 474.953125 363.488281 486.878906 371.691406 500.328125 371.691406 C 517.246094 371.691406 531.625 358.667969 537.039062 353.082031 C 537.800781 352.324219 537.800781 351.136719 537.039062 350.292969 C 531.710938 344.625 517.160156 331.683594 500.328125 331.601562 C 498.046875 331.601562 495.761719 331.9375 492.96875 332.445312 L 489.078125 333.292969 L 512.425781 309.945312 Z M 513.015625 310.707031 " fill-opacity="1" fill-rule="nonzero"/><path fill="#000000" d="M 623.910156 607.59375 C 634.144531 607.085938 648.355469 604.460938 657.828125 594.90625 C 669.753906 582.976562 670.769531 563.523438 670.601562 555.742188 C 670.601562 554.644531 669.753906 553.796875 668.65625 553.796875 C 660.875 553.628906 641.417969 554.644531 629.492188 566.570312 C 627.886719 568.175781 626.449219 570.039062 624.925781 572.40625 L 622.726562 575.789062 L 622.726562 547.875 L 623.0625 547.539062 C 629.660156 540.265625 637.527344 528.847656 637.527344 515.988281 C 637.527344 499.328125 624.246094 485.117188 618.496094 479.789062 C 617.734375 479.027344 616.464844 479.027344 615.621094 479.789062 C 609.867188 485.117188 596.589844 499.328125 596.589844 515.988281 C 596.589844 528.847656 604.453125 540.265625 611.050781 547.539062 L 611.390625 547.875 L 611.390625 575.789062 L 609.191406 572.492188 C 607.667969 570.039062 606.230469 568.175781 604.625 566.652344 C 593.289062 555.320312 575.1875 553.882812 566.730469 553.882812 C 566.304688 553.882812 565.882812 553.882812 565.546875 553.882812 C 564.445312 553.882812 563.597656 554.726562 563.597656 555.828125 C 563.429688 563.609375 564.445312 583.0625 576.371094 594.988281 C 585.929688 604.460938 600.054688 607.085938 610.292969 607.675781 L 611.390625 607.761719 L 611.390625 640.75 L 609.191406 637.449219 C 607.667969 634.996094 606.230469 633.21875 604.625 631.613281 C 592.695312 619.6875 573.328125 618.585938 565.460938 618.839844 C 564.359375 618.839844 563.515625 619.6875 563.515625 620.785156 C 563.347656 628.566406 564.359375 647.9375 576.289062 659.949219 C 585.84375 669.507812 599.972656 672.128906 610.207031 672.636719 L 611.304688 672.71875 L 611.304688 705.367188 L 622.640625 705.367188 L 622.640625 672.71875 L 623.742188 672.636719 C 633.976562 672.128906 648.1875 669.507812 657.660156 659.949219 C 669.585938 648.023438 670.601562 628.652344 670.433594 620.785156 C 670.433594 619.6875 669.585938 618.839844 668.488281 618.839844 C 660.703125 618.585938 641.25 619.6875 629.324219 631.613281 C 627.714844 633.21875 626.277344 634.996094 624.753906 637.449219 L 622.554688 640.832031 L 622.554688 607.84375 Z M 623.910156 607.59375 " fill-opacity="1" fill-rule="nonzero"/><path fill="#000000" d="M 768.804688 631.445312 C 767.199219 633.050781 765.761719 634.828125 764.238281 637.28125 L 762.039062 640.664062 L 762.039062 607.675781 L 763.140625 607.59375 C 773.375 607.085938 787.585938 604.460938 797.058594 594.90625 C 808.984375 582.976562 810 563.523438 809.832031 555.742188 C 809.832031 554.644531 808.984375 553.796875 807.886719 553.796875 C 800.101562 553.628906 780.648438 554.644531 768.722656 566.570312 C 767.113281 568.175781 765.675781 570.039062 764.152344 572.40625 L 761.953125 575.789062 L 761.953125 547.875 L 762.292969 547.539062 C 768.890625 540.265625 776.757812 528.847656 776.757812 515.988281 C 776.757812 499.328125 763.476562 485.117188 757.726562 479.789062 C 756.964844 479.027344 755.695312 479.027344 754.847656 479.789062 C 749.097656 485.117188 735.816406 499.328125 735.816406 515.988281 C 735.816406 528.847656 743.683594 540.265625 750.28125 547.539062 L 750.621094 547.875 L 750.621094 575.789062 L 748.421875 572.492188 C 746.898438 570.039062 745.460938 568.175781 743.851562 566.652344 C 732.519531 555.320312 714.417969 553.882812 705.957031 553.882812 C 705.535156 553.882812 705.113281 553.882812 704.773438 553.882812 C 703.675781 553.882812 702.828125 554.726562 702.828125 555.828125 C 702.660156 563.609375 703.675781 583.0625 715.601562 594.988281 C 725.160156 604.460938 739.285156 607.085938 749.519531 607.675781 L 750.621094 607.761719 L 750.621094 640.75 L 748.421875 637.449219 C 746.898438 634.996094 745.460938 633.21875 743.851562 631.613281 C 731.925781 619.6875 712.554688 618.585938 704.691406 618.839844 C 703.589844 618.839844 702.746094 619.6875 702.746094 620.785156 C 702.574219 628.566406 703.589844 647.9375 715.515625 659.949219 C 725.074219 669.507812 739.199219 672.128906 749.4375 672.636719 L 750.535156 672.71875 L 750.535156 705.367188 L 761.871094 705.367188 L 761.871094 672.71875 L 762.96875 672.636719 C 773.203125 672.128906 787.414062 669.507812 796.890625 659.949219 C 808.816406 648.023438 809.832031 628.652344 809.660156 620.785156 C 809.660156 619.6875 808.816406 618.839844 807.714844 618.839844 C 800.101562 618.417969 780.734375 619.519531 768.804688 631.445312 Z M 768.804688 631.445312 " fill-opacity="1" fill-rule="nonzero"/><g clip-path="url(#e0661fa687)"><g clip-path="url(#41bfc7ced6)"><g transform="matrix(1, 0, 0, 1, 179, 264)"><g clip-path="url(#01b0ba04ff)"><g clip-path="url(#5454c0675b)"><g clip-path="url(#43ce923e6c)"><path fill="#2f2f2f" d="M 0.386719 0.203125 L 14.382812 0.203125 L 14.382812 14.199219 L 0.386719 14.199219 Z M 0.386719 0.203125 " fill-opacity="1" fill-rule="nonzero"/></g></g></g></g></g></g></svg>