<svg xmlns="http://www.w3.org/2000/svg" xmlns:xlink="http://www.w3.org/1999/xlink" width="1080" zoomAndPan="magnify" viewBox="0 0 810 809.999993" height="1080" preserveAspectRatio="xMidYMid meet" version="1.0"><defs><clipPath id="0fc9e6c677"><path d="M 693.117188 617.070312 L 716.617188 617.070312 L 716.617188 640.570312 L 693.117188 640.570312 Z M 693.117188 617.070312 " clip-rule="nonzero"/></clipPath><clipPath id="10b7572734"><path d="M 704.867188 617.070312 C 698.378906 617.070312 693.117188 622.332031 693.117188 628.820312 C 693.117188 635.308594 698.378906 640.570312 704.867188 640.570312 C 711.355469 640.570312 716.617188 635.308594 716.617188 628.820312 C 716.617188 622.332031 711.355469 617.070312 704.867188 617.070312 Z M 704.867188 617.070312 " clip-rule="nonzero"/></clipPath><clipPath id="2fca7ae717"><path d="M 0.117188 0.0703125 L 23.617188 0.0703125 L 23.617188 23.570312 L 0.117188 23.570312 Z M 0.117188 0.0703125 " clip-rule="nonzero"/></clipPath><clipPath id="bc2b3171f0"><path d="M 11.867188 0.0703125 C 5.378906 0.0703125 0.117188 5.332031 0.117188 11.820312 C 0.117188 18.308594 5.378906 23.570312 11.867188 23.570312 C 18.355469 23.570312 23.617188 18.308594 23.617188 11.820312 C 23.617188 5.332031 18.355469 0.0703125 11.867188 0.0703125 Z M 11.867188 0.0703125 " clip-rule="nonzero"/></clipPath><clipPath id="8bf75efb02"><rect x="0" width="24" y="0" height="24"/></clipPath></defs><path fill="#000000" d="M 621.175781 279.699219 C 605.863281 294.035156 587.28125 303.292969 568.84375 305.746094 C 565.644531 306.179688 562.488281 306.398438 559.394531 306.398438 C 543.246094 306.386719 528.816406 300.640625 518.859375 290.011719 C 517.410156 288.457031 516.082031 286.832031 514.855469 285.140625 C 513.828125 283.699219 512.210938 282.808594 510.46875 282.683594 C 508.378906 282.546875 506.285156 282.269531 504.175781 281.851562 C 469.882812 275.039062 450.027344 234.472656 458.96875 189.511719 C 467.921875 144.5625 501.796875 114.699219 536.085938 121.539062 C 548.5 124.007812 559.46875 131.128906 567.824219 142.160156 C 569.628906 144.550781 571.734375 146.644531 573.902344 148.65625 C 576.449219 144.957031 578.574219 138.054688 575.429688 125.089844 C 573.578125 117.472656 578.261719 109.785156 585.886719 107.9375 C 593.46875 106.09375 601.195312 110.769531 603.046875 118.402344 C 607.699219 137.570312 604.925781 151.496094 599.414062 161.347656 C 600.945312 161.632812 602.421875 162.113281 603.980469 162.253906 C 617.734375 163.53125 629.578125 169.082031 638.230469 178.324219 C 650.078125 190.980469 654.585938 209.519531 650.617188 229.230469 C 646.941406 247.449219 636.484375 265.378906 621.175781 279.699219 Z M 617.484375 197.753906 C 613.605469 193.605469 608.179688 191.191406 601.378906 190.566406 C 588.296875 189.367188 575.875 184.863281 565.078125 177.796875 C 557.320312 172.679688 550.632812 166.554688 545.15625 159.300781 C 541.027344 153.847656 536.109375 150.515625 530.535156 149.40625 C 529.175781 149.140625 527.808594 149.003906 526.433594 149.003906 C 509.566406 149.003906 492.0625 168.859375 486.851562 195.0625 C 481.207031 223.414062 491.6875 250.390625 509.699219 253.972656 C 510.574219 254.152344 511.445312 254.261719 512.382812 254.320312 C 522.652344 255.039062 531.976562 260.230469 537.945312 268.570312 C 538.46875 269.292969 539.042969 269.972656 539.632812 270.609375 C 547.132812 278.632812 558.785156 278.394531 565.082031 277.589844 C 577.515625 275.925781 590.882812 269.140625 601.753906 258.953125 C 612.621094 248.796875 620.273438 235.902344 622.757812 223.609375 C 624.007812 217.390625 624.992188 205.777344 617.484375 197.753906 Z M 617.484375 197.753906 " fill-opacity="1" fill-rule="nonzero"/><path fill="#000000" d="M 791.738281 524.988281 C 777.941406 569.484375 756.625 611.484375 727.753906 649.394531 C 714.273438 667.421875 699.085938 684.410156 682.640625 699.828125 C 662.300781 718.992188 639.929688 736.003906 616.269531 750.328125 C 588.3125 767.585938 558.695312 781.207031 528.191406 790.835938 C 488.835938 803.5625 447.394531 810 405.023438 810 C 181.703125 810 0.0234375 628.316406 0.0234375 405 C 0.0234375 256.9375 79.933594 127.242188 198.847656 56.601562 C 199.371094 56.320312 199.816406 55.941406 200.367188 55.726562 C 260.46875 20.375 330.394531 0 405.023438 0 C 628.335938 0 810.019531 181.683594 810.019531 405 C 810.019531 445.636719 803.824219 485.214844 792.300781 523.046875 C 792.105469 523.699219 792.027344 524.371094 791.738281 524.988281 Z M 755.027344 543.574219 L 678.308594 573.5 C 676.320312 574.269531 674.292969 574.789062 672.292969 575.523438 C 672.863281 583.703125 676.515625 591.296875 682.703125 596.328125 C 692.515625 604.296875 702.941406 612.519531 713.289062 620.539062 C 730.324219 596.335938 744.289062 570.582031 755.027344 543.574219 Z M 612.011719 719.4375 C 630.15625 707.585938 647.316406 694.066406 663.171875 679.121094 C 675.015625 668.019531 686.136719 656.058594 696.363281 643.457031 C 685.707031 635.199219 674.898438 626.597656 664.773438 618.378906 C 648.867188 605.433594 641.105469 584.4375 644.519531 563.507812 C 646.753906 550.242188 646.066406 536.210938 642.539062 522.929688 C 640.363281 514.8125 638.144531 506.929688 636.15625 499.90625 C 633.105469 489.109375 630.613281 480.1875 629.539062 474.984375 C 623.167969 442.886719 615.007812 369.902344 613.851562 359.382812 C 612.113281 354.042969 606.515625 350.515625 600.820312 351.53125 C 598.964844 351.820312 596.898438 353.792969 595.671875 356.304688 C 584.734375 379.714844 584.992188 411.828125 587.128906 434.558594 C 588.238281 445.648438 582.796875 455.597656 573.277344 459.914062 C 563.351562 464.382812 551.8125 461.757812 544.183594 453.558594 L 419.785156 329.160156 C 417.53125 326.8125 414.359375 325.675781 410.738281 325.855469 C 408.574219 326.023438 404.496094 326.925781 401.574219 331.046875 C 398.519531 335.375 399.261719 342.300781 402.988281 346.214844 L 487.257812 430.480469 C 487.460938 430.738281 495.058594 438.332031 495.058594 438.332031 C 500.609375 443.882812 500.609375 452.875 495.058594 458.429688 C 489.507812 463.980469 480.515625 463.980469 474.964844 458.429688 L 359.335938 342.789062 C 355.414062 338.625 348.90625 336.820312 344.050781 341.34375 C 341.609375 343.648438 339.957031 347.214844 339.644531 350.90625 C 339.359375 354.25 340.207031 357.246094 341.671875 358.816406 L 457.449219 474.582031 C 463 480.132812 463 489.125 457.449219 494.675781 C 454.675781 497.453125 451.039062 498.839844 447.402344 498.839844 C 443.761719 498.839844 440.125 497.453125 437.347656 494.675781 L 341.675781 399.003906 C 339.207031 396.367188 336.132812 394.785156 333.027344 394.535156 C 330.234375 394.257812 327.777344 395.1875 325.710938 397.132812 C 323.179688 399.503906 321.375 403.445312 321 407.414062 C 320.652344 411.09375 321.511719 414.328125 323.0625 415.976562 L 356.65625 449.574219 L 419.210938 512.121094 C 424.761719 517.671875 424.761719 526.664062 419.210938 532.214844 C 413.660156 537.765625 404.667969 537.765625 399.117188 532.214844 L 336.25 469.347656 C 333.886719 466.839844 331.007812 465.3125 328.140625 465.0625 C 325.609375 464.769531 323.332031 465.671875 321.367188 467.519531 C 319.015625 469.738281 317.542969 472.972656 317.328125 476.414062 C 317.210938 478.300781 317.398438 481.867188 319.675781 484.296875 L 387.238281 551.867188 C 388.035156 552.664062 388.460938 553.648438 389.03125 554.566406 L 467.15625 634.074219 C 467.769531 634.753906 468.546875 635.421875 469.386719 636.171875 L 470.808594 637.460938 C 486.664062 651.394531 506.203125 659.359375 527.300781 660.539062 C 552.886719 661.953125 575.082031 672.933594 589.800781 691.457031 Z M 330.320312 193.535156 C 324.195312 196.234375 317.875 198.269531 311.484375 199.984375 C 298.097656 203.914062 286.539062 204.886719 278.6875 204.886719 C 272.207031 204.886719 268.222656 204.261719 267.765625 204.179688 C 252.953125 203.039062 238.386719 199.597656 224.65625 193.535156 C 211.140625 187.554688 197.585938 186.457031 185.445312 190.355469 C 147.863281 202.429688 131.855469 257.578125 149.765625 313.296875 C 167.660156 368.988281 212.804688 404.445312 250.351562 392.425781 C 252.355469 391.773438 254.289062 391.011719 256.121094 390.152344 C 262.917969 386.945312 270.210938 385.335938 277.492188 385.335938 C 284.113281 385.335938 290.675781 386.84375 296.902344 389.484375 C 299.226562 384.527344 302.378906 380.042969 306.25 376.414062 C 309.058594 373.765625 312.25 371.777344 315.578125 370.117188 C 307.746094 354.488281 310.910156 333.488281 324.585938 320.640625 C 339 307.089844 360.550781 307.066406 375.632812 319.402344 C 376.453125 317.777344 377.296875 316.15625 378.363281 314.644531 C 385.425781 304.679688 396.453125 298.433594 408.617188 297.519531 C 419.792969 247.539062 403.546875 201.289062 369.53125 190.355469 C 357.402344 186.472656 343.835938 187.554688 330.320312 193.535156 Z M 342.171875 117.515625 C 325.46875 114.824219 298.523438 113.585938 289.492188 126.410156 C 286.960938 131.710938 285.097656 154.21875 284.507812 176.3125 C 294.355469 175.589844 309.203125 172.71875 325.453125 163.242188 C 339.511719 155.050781 342.359375 132.488281 342.171875 117.515625 Z M 405.023438 781.578125 C 444.425781 781.578125 482.921875 775.597656 519.539062 763.773438 C 542.90625 756.386719 565.617188 746.382812 587.417969 734.171875 L 567.539062 709.136719 C 557.945312 697.050781 543.09375 689.878906 525.734375 688.90625 C 498.609375 687.40625 472.445312 676.722656 451.78125 658.582031 L 450.359375 657.277344 C 448.722656 655.808594 447.25 654.449219 446.464844 653.558594 L 340.972656 546.207031 C 318.558594 538.621094 296.621094 533.578125 275.484375 530.765625 C 275.347656 533.191406 275.441406 535.546875 275.132812 538.015625 C 269.703125 582.007812 239.179688 613.273438 205.449219 609.070312 C 203.445312 608.820312 201.464844 608.429688 199.425781 607.929688 C 197.941406 607.554688 196.386719 607.847656 195.171875 608.71875 C 193.507812 609.941406 191.765625 611.039062 189.949219 612.023438 C 182.78125 615.9375 174.722656 617.878906 166.335938 617.878906 C 157.441406 617.878906 148.164062 615.6875 139.148438 611.316406 C 122.984375 603.460938 108.742188 589.347656 99.050781 571.570312 C 95.785156 565.585938 93.40625 559.503906 91.445312 553.429688 C 80.644531 557.546875 71.539062 561.539062 64.230469 565.019531 C 124.5 692.859375 254.570312 781.578125 405.023438 781.578125 Z M 221.355469 480.398438 C 216.074219 479.730469 210.722656 481.257812 205.441406 484.90625 C 187.671875 497.1875 165.390625 501.460938 144.3125 496.5625 C 138.066406 495.105469 132.539062 495.660156 127.875 498.214844 C 112.636719 506.527344 110.867188 533.894531 124.003906 557.96875 C 130.789062 570.417969 140.835938 580.535156 151.5625 585.753906 C 156.933594 588.363281 167.3125 592.027344 176.355469 587.058594 C 177.070312 586.671875 177.757812 586.238281 178.429688 585.753906 C 184.238281 581.523438 191.136719 579.328125 198.121094 579.328125 C 200.898438 579.328125 203.6875 579.675781 206.429688 580.382812 C 207.269531 580.589844 208.121094 580.757812 208.953125 580.871094 C 226.140625 582.976562 243.566406 561.773438 246.921875 534.546875 C 250.28125 507.320312 238.566406 482.519531 221.355469 480.398438 Z M 206.363281 85.285156 C 99.644531 151.839844 28.441406 270.234375 28.441406 405 C 28.441406 452.132812 37.226562 497.234375 53.109375 538.855469 C 62.070312 534.625 73.351562 529.761719 86.871094 524.832031 C 87.085938 502.464844 96.433594 482.984375 114.261719 473.261719 C 125.097656 467.351562 137.707031 465.851562 150.738281 468.878906 C 153.300781 469.480469 155.902344 469.679688 158.5 469.851562 C 159.507812 460.257812 156.613281 445.171875 132.835938 434.78125 C 125.640625 431.644531 122.359375 423.261719 125.5 416.074219 C 128.660156 408.886719 137.035156 405.582031 144.214844 408.746094 C 163.808594 417.308594 176.890625 429.730469 183.101562 445.675781 C 185.445312 451.707031 186.464844 457.519531 186.785156 462.894531 C 187.605469 462.398438 188.503906 462.070312 189.296875 461.523438 C 200.320312 453.933594 212.574219 450.617188 224.828125 452.199219 C 248.597656 455.121094 266.367188 474.972656 272.96875 501.804688 C 282.296875 502.882812 291.746094 504.289062 301.351562 506.160156 L 299.277344 504.085938 C 291.925781 496.273438 288.265625 485.808594 288.964844 474.636719 C 289.625 464.0625 294.339844 453.917969 301.90625 446.8125 C 304.003906 444.839844 306.285156 443.1875 308.675781 441.769531 L 302.660156 435.753906 C 298.253906 431.070312 295.375 425.125 293.835938 418.664062 C 291.425781 417.808594 289.03125 416.933594 286.714844 415.851562 C 280.847656 413.089844 274.121094 413.105469 268.210938 415.867188 C 265.28125 417.238281 262.25 418.449219 259.078125 419.476562 C 251.46875 421.917969 243.675781 423.09375 235.839844 423.09375 C 189.644531 423.09375 142.105469 382.367188 122.707031 321.984375 C 100 251.363281 124.246094 180.171875 176.742188 163.296875 C 195.617188 157.257812 216.15625 158.703125 236.140625 167.53125 C 242.527344 170.351562 249.152344 172.460938 255.886719 173.910156 C 254.542969 150.488281 246.347656 106.242188 206.363281 85.285156 Z M 405.023438 28.421875 C 343.671875 28.421875 285.757812 43.261719 234.527344 69.394531 C 249.597656 80.550781 260.175781 94.324219 267.558594 108.640625 C 293.414062 75.902344 352.460938 90.242188 359.253906 92.035156 C 364.820312 93.507812 368.945312 98.183594 369.710938 103.886719 C 369.941406 105.636719 373.609375 135.039062 363.019531 160.148438 C 368.175781 160.707031 373.261719 161.707031 378.222656 163.296875 C 426.828125 178.917969 451.128906 241.101562 436.472656 306.28125 C 437.6875 307.261719 438.988281 308.125 440.078125 309.257812 L 558.0625 427.246094 C 556.550781 401.988281 557.949219 369.902344 570.023438 344.050781 C 575.546875 332.769531 585.128906 325.261719 596.136719 323.496094 C 616.554688 320.027344 636.574219 333.003906 641.632812 353.238281 C 641.785156 353.863281 641.902344 354.5 641.972656 355.136719 C 642.0625 355.945312 650.929688 436.765625 657.394531 469.347656 C 658.359375 474.039062 660.699219 482.242188 663.507812 492.179688 C 665.523438 499.324219 667.785156 507.320312 670 515.601562 C 672.523438 525.097656 673.804688 534.886719 674.066406 544.648438 L 766.972656 508.410156 C 776.457031 475.148438 781.601562 440.519531 781.601562 405 C 781.601562 197.351562 612.671875 28.421875 405.023438 28.421875 Z M 405.023438 28.421875 " fill-opacity="1" fill-rule="nonzero"/><g clip-path="url(#0fc9e6c677)"><g clip-path="url(#10b7572734)"><g transform="matrix(1, 0, 0, 1, 693, 617)"><g clip-path="url(#8bf75efb02)"><g clip-path="url(#2fca7ae717)"><g clip-path="url(#bc2b3171f0)"><path fill="#000000" d="M 0.117188 0.0703125 L 23.617188 0.0703125 L 23.617188 23.570312 L 0.117188 23.570312 Z M 0.117188 0.0703125 " fill-opacity="1" fill-rule="nonzero"/></g></g></g></g></g></g></svg>