<svg xmlns="http://www.w3.org/2000/svg" xmlns:xlink="http://www.w3.org/1999/xlink" width="1080" zoomAndPan="magnify" viewBox="0 0 810 809.999993" height="1080" preserveAspectRatio="xMidYMid meet" version="1.0"><defs><clipPath id="a134d5e307"><path d="M 9 756 L 401 756 L 401 809.894531 L 9 809.894531 Z M 9 756 " clip-rule="nonzero"/></clipPath><clipPath id="65607dd12d"><path d="M 414 756 L 806 756 L 806 809.894531 L 414 809.894531 Z M 414 756 " clip-rule="nonzero"/></clipPath><clipPath id="2b3c46f5ab"><path d="M 254.667969 463.5 L 272.046875 463.5 L 272.046875 480.878906 L 254.667969 480.878906 Z M 254.667969 463.5 " clip-rule="nonzero"/></clipPath><clipPath id="28fc413184"><path d="M 263.359375 463.5 C 258.558594 463.5 254.667969 467.390625 254.667969 472.191406 C 254.667969 476.988281 258.558594 480.878906 263.359375 480.878906 C 268.15625 480.878906 272.046875 476.988281 272.046875 472.191406 C 272.046875 467.390625 268.15625 463.5 263.359375 463.5 Z M 263.359375 463.5 " clip-rule="nonzero"/></clipPath><clipPath id="9a12f42649"><path d="M 0.667969 0.5 L 18.046875 0.5 L 18.046875 17.878906 L 0.667969 17.878906 Z M 0.667969 0.5 " clip-rule="nonzero"/></clipPath><clipPath id="684f070212"><path d="M 9.359375 0.5 C 4.558594 0.5 0.667969 4.390625 0.667969 9.191406 C 0.667969 13.988281 4.558594 17.878906 9.359375 17.878906 C 14.15625 17.878906 18.046875 13.988281 18.046875 9.191406 C 18.046875 4.390625 14.15625 0.5 9.359375 0.5 Z M 9.359375 0.5 " clip-rule="nonzero"/></clipPath><clipPath id="90694ffc3f"><rect x="0" width="19" y="0" height="18"/></clipPath></defs><path fill="#000000" d="M 48.933594 518.019531 L 48.933594 553.800781 C 48.933594 555.441406 48.976562 557.078125 49.058594 558.710938 C 49.140625 560.347656 49.261719 561.980469 49.425781 563.609375 C 49.585938 565.238281 49.789062 566.863281 50.03125 568.484375 C 50.273438 570.101562 50.554688 571.714844 50.875 573.320312 C 51.195312 574.925781 51.554688 576.523438 51.957031 578.113281 C 52.355469 579.699219 52.792969 581.277344 53.269531 582.84375 C 53.746094 584.410156 54.261719 585.964844 54.8125 587.507812 C 55.367188 589.050781 55.957031 590.574219 56.582031 592.089844 C 57.210938 593.601562 57.875 595.097656 58.578125 596.578125 C 59.277344 598.058594 60.015625 599.519531 60.789062 600.964844 C 61.558594 602.40625 62.367188 603.832031 63.210938 605.234375 C 64.054688 606.640625 64.929688 608.023438 65.839844 609.382812 C 66.75 610.746094 67.695312 612.082031 68.671875 613.398438 C 69.644531 614.714844 70.652344 616.003906 71.691406 617.269531 C 72.734375 618.535156 73.800781 619.773438 74.902344 620.988281 C 76.003906 622.203125 77.132812 623.386719 78.289062 624.546875 C 79.449219 625.703125 80.632812 626.832031 81.847656 627.929688 C 83.0625 629.03125 84.300781 630.101562 85.566406 631.140625 C 86.832031 632.179688 88.125 633.1875 89.441406 634.160156 C 90.753906 635.136719 92.09375 636.082031 93.457031 636.992188 C 94.816406 637.902344 96.203125 638.777344 97.605469 639.621094 C 99.011719 640.460938 100.433594 641.269531 101.878906 642.042969 C 103.324219 642.816406 104.785156 643.550781 106.265625 644.253906 C 107.746094 644.953125 109.246094 645.617188 110.757812 646.246094 C 112.269531 646.871094 113.796875 647.460938 115.339844 648.015625 C 116.882812 648.566406 118.4375 649.082031 120.003906 649.558594 C 121.570312 650.035156 123.148438 650.472656 124.738281 650.871094 C 126.328125 651.269531 127.925781 651.628906 129.53125 651.949219 C 131.136719 652.273438 132.75 652.554688 134.371094 652.792969 C 135.988281 653.035156 137.617188 653.238281 139.246094 653.398438 C 140.875 653.5625 142.507812 653.683594 144.144531 653.765625 C 145.78125 653.847656 147.417969 653.890625 149.054688 653.890625 L 180.828125 653.890625 L 209.492188 682.546875 L 209.492188 748.019531 C 209.492188 748.664062 209.554688 749.300781 209.679688 749.933594 C 209.804688 750.566406 209.992188 751.179688 210.238281 751.773438 C 210.484375 752.367188 210.785156 752.933594 211.144531 753.46875 C 211.503906 754.003906 211.910156 754.496094 212.363281 754.953125 C 212.820312 755.410156 213.316406 755.816406 213.851562 756.171875 C 214.386719 756.53125 214.949219 756.832031 215.546875 757.078125 C 216.140625 757.324219 216.753906 757.511719 217.386719 757.636719 C 218.015625 757.761719 218.652344 757.824219 219.296875 757.824219 C 219.941406 757.824219 220.578125 757.761719 221.210938 757.636719 C 221.84375 757.511719 222.457031 757.324219 223.050781 757.078125 C 223.644531 756.832031 224.210938 756.53125 224.746094 756.171875 C 225.28125 755.816406 225.777344 755.410156 226.230469 754.953125 C 226.6875 754.496094 227.09375 754.003906 227.453125 753.46875 C 227.808594 752.933594 228.113281 752.367188 228.359375 751.773438 C 228.605469 751.179688 228.789062 750.566406 228.917969 749.933594 C 229.042969 749.300781 229.105469 748.664062 229.105469 748.019531 L 229.105469 729.738281 L 257.542969 701.308594 L 289.21875 701.308594 C 290.855469 701.308594 292.492188 701.265625 294.125 701.183594 C 295.761719 701.101562 297.394531 700.976562 299.023438 700.816406 C 300.652344 700.652344 302.277344 700.449219 303.898438 700.207031 C 305.515625 699.96875 307.128906 699.683594 308.734375 699.363281 C 310.339844 699.042969 311.9375 698.683594 313.523438 698.285156 C 315.113281 697.882812 316.691406 697.445312 318.257812 696.96875 C 319.824219 696.492188 321.378906 695.980469 322.917969 695.425781 C 324.460938 694.875 325.988281 694.285156 327.5 693.65625 C 329.011719 693.027344 330.507812 692.363281 331.988281 691.664062 C 333.46875 690.964844 334.929688 690.226562 336.375 689.453125 C 337.816406 688.683594 339.242188 687.875 340.644531 687.03125 C 342.050781 686.191406 343.433594 685.3125 344.792969 684.40625 C 346.15625 683.496094 347.492188 682.550781 348.808594 681.578125 C 350.121094 680.601562 351.414062 679.59375 352.679688 678.554688 C 353.945312 677.515625 355.183594 676.449219 356.398438 675.347656 C 357.609375 674.25 358.796875 673.121094 359.953125 671.960938 C 361.109375 670.804688 362.238281 669.621094 363.339844 668.40625 C 364.441406 667.195312 365.507812 665.957031 366.546875 664.691406 C 367.585938 663.425781 368.59375 662.136719 369.570312 660.820312 C 370.546875 659.507812 371.488281 658.167969 372.398438 656.808594 C 373.308594 655.445312 374.1875 654.066406 375.027344 652.660156 C 375.871094 651.257812 376.679688 649.832031 377.449219 648.390625 C 378.222656 646.945312 378.960938 645.484375 379.660156 644.007812 C 380.363281 642.527344 381.027344 641.03125 381.652344 639.519531 C 382.28125 638.007812 382.871094 636.480469 383.425781 634.941406 C 383.976562 633.398438 384.492188 631.847656 384.96875 630.28125 C 385.445312 628.714844 385.882812 627.136719 386.285156 625.550781 C 386.683594 623.960938 387.042969 622.367188 387.363281 620.761719 C 387.683594 619.15625 387.964844 617.542969 388.207031 615.925781 C 388.449219 614.304688 388.652344 612.683594 388.816406 611.054688 C 388.976562 609.425781 389.101562 607.792969 389.183594 606.15625 C 389.265625 604.523438 389.308594 602.886719 389.308594 601.25 L 389.308594 565.46875 C 389.320312 564.214844 389.089844 563.003906 388.625 561.839844 C 388.324219 561.15625 387.960938 560.5 387.542969 559.878906 C 387.140625 559.28125 386.683594 558.726562 386.171875 558.214844 C 385.738281 557.855469 385.28125 557.527344 384.800781 557.234375 C 384.492188 557.03125 384.164062 556.867188 383.820312 556.742188 C 383.40625 556.445312 382.945312 556.25 382.445312 556.15625 C 382.21875 556.078125 381.992188 556.011719 381.757812 555.960938 C 381.019531 555.757812 380.269531 555.660156 379.503906 555.664062 L 343.710938 555.664062 C 342.074219 555.667969 340.433594 555.707031 338.800781 555.789062 C 337.164062 555.871094 335.53125 555.996094 333.898438 556.15625 C 332.269531 556.320312 330.644531 556.519531 329.023438 556.761719 C 327.40625 557.003906 325.792969 557.285156 324.183594 557.605469 C 322.578125 557.925781 320.980469 558.285156 319.394531 558.6875 C 317.804688 559.085938 316.226562 559.523438 314.660156 560 C 313.089844 560.476562 311.535156 560.988281 309.996094 561.542969 C 308.453125 562.09375 306.925781 562.683594 305.414062 563.3125 C 303.898438 563.941406 302.402344 564.605469 300.921875 565.304688 C 299.441406 566.007812 297.980469 566.742188 296.535156 567.515625 C 295.089844 568.289062 293.664062 569.09375 292.261719 569.9375 C 290.855469 570.78125 289.472656 571.65625 288.109375 572.566406 C 286.75 573.476562 285.410156 574.417969 284.09375 575.394531 C 282.78125 576.371094 281.488281 577.378906 280.222656 578.417969 C 278.957031 579.457031 277.714844 580.527344 276.503906 581.625 C 275.289062 582.726562 274.101562 583.855469 272.945312 585.011719 C 271.785156 586.171875 270.65625 587.355469 269.558594 588.570312 C 268.457031 589.78125 267.386719 591.023438 266.347656 592.289062 C 265.308594 593.554688 264.300781 594.84375 263.324219 596.160156 C 262.347656 597.472656 261.40625 598.8125 260.496094 600.171875 C 259.585938 601.535156 258.707031 602.917969 257.867188 604.320312 C 257.023438 605.726562 256.214844 607.148438 255.441406 608.59375 C 254.667969 610.039062 253.933594 611.5 253.230469 612.980469 C 252.53125 614.460938 251.867188 615.957031 251.238281 617.46875 C 250.609375 618.980469 250.019531 620.507812 249.46875 622.050781 C 248.914062 623.589844 248.398438 625.144531 247.921875 626.710938 C 247.445312 628.277344 247.007812 629.855469 246.609375 631.445312 C 246.210938 633.03125 245.851562 634.628906 245.53125 636.234375 C 245.210938 637.839844 244.929688 639.453125 244.6875 641.074219 C 244.445312 642.695312 244.242188 644.316406 244.082031 645.949219 C 243.917969 647.578125 243.796875 649.210938 243.714844 650.84375 C 243.632812 652.480469 243.589844 654.117188 243.589844 655.753906 L 243.589844 687.515625 L 229.105469 701.996094 L 229.105469 570.371094 L 251.433594 547.921875 C 252.589844 546.761719 253.71875 545.578125 254.816406 544.363281 C 255.914062 543.148438 256.984375 541.910156 258.019531 540.644531 C 259.058594 539.378906 260.0625 538.085938 261.039062 536.773438 C 262.011719 535.457031 262.953125 534.117188 263.863281 532.757812 C 264.773438 531.394531 265.648438 530.011719 266.488281 528.609375 C 267.328125 527.203125 268.132812 525.78125 268.90625 524.335938 C 269.675781 522.894531 270.410156 521.429688 271.109375 519.953125 C 271.808594 518.472656 272.472656 516.976562 273.097656 515.464844 C 273.726562 513.949219 274.3125 512.425781 274.863281 510.882812 C 275.414062 509.34375 275.929688 507.789062 276.402344 506.222656 C 276.878906 504.65625 277.3125 503.078125 277.710938 501.492188 C 278.109375 499.902344 278.464844 498.308594 278.785156 496.703125 C 279.105469 495.097656 279.382812 493.484375 279.625 491.863281 C 279.863281 490.246094 280.0625 488.621094 280.222656 486.992188 C 280.386719 485.363281 280.503906 483.734375 280.585938 482.097656 C 280.664062 480.464844 280.707031 478.828125 280.707031 477.191406 C 280.707031 475.554688 280.664062 473.917969 280.585938 472.285156 C 280.503906 470.648438 280.386719 469.019531 280.222656 467.390625 C 280.0625 465.761719 279.863281 464.136719 279.625 462.519531 C 279.382812 460.898438 279.105469 459.285156 278.785156 457.679688 C 278.464844 456.078125 278.109375 454.480469 277.710938 452.890625 C 277.3125 451.304688 276.878906 449.726562 276.402344 448.160156 C 275.929688 446.59375 275.414062 445.042969 274.863281 443.5 C 274.3125 441.957031 273.726562 440.433594 273.097656 438.917969 C 272.472656 437.40625 271.808594 435.910156 271.109375 434.429688 C 270.410156 432.953125 269.675781 431.488281 268.90625 430.046875 C 268.132812 428.601562 267.328125 427.179688 266.488281 425.773438 C 265.648438 424.371094 264.773438 422.988281 263.863281 421.625 C 262.953125 420.265625 262.011719 418.925781 261.039062 417.609375 C 260.0625 416.296875 259.058594 415.003906 258.019531 413.738281 C 256.984375 412.472656 255.914062 411.234375 254.816406 410.019531 C 253.71875 408.804688 252.589844 407.621094 251.433594 406.460938 L 226.132812 381.074219 C 225.511719 380.492188 224.824219 380.003906 224.074219 379.601562 C 223.316406 379.128906 222.496094 378.804688 221.621094 378.621094 C 221.304688 378.507812 220.976562 378.445312 220.640625 378.425781 C 219.660156 378.160156 218.679688 378.160156 217.699219 378.425781 C 217.363281 378.445312 217.035156 378.507812 216.71875 378.621094 C 215.84375 378.804688 215.027344 379.128906 214.269531 379.601562 C 213.519531 380.003906 212.832031 380.492188 212.207031 381.074219 L 186.90625 406.460938 C 185.75 407.621094 184.625 408.804688 183.523438 410.019531 C 182.425781 411.234375 181.359375 412.472656 180.320312 413.738281 C 179.28125 415.003906 178.277344 416.296875 177.304688 417.609375 C 176.328125 418.925781 175.386719 420.265625 174.476562 421.625 C 173.570312 422.988281 172.695312 424.371094 171.855469 425.773438 C 171.011719 427.179688 170.207031 428.601562 169.4375 430.046875 C 168.664062 431.488281 167.929688 432.953125 167.230469 434.429688 C 166.53125 435.910156 165.867188 437.40625 165.242188 438.917969 C 164.617188 440.433594 164.027344 441.957031 163.476562 443.5 C 162.925781 445.042969 162.414062 446.59375 161.9375 448.160156 C 161.464844 449.726562 161.027344 451.304688 160.628906 452.890625 C 160.234375 454.480469 159.875 456.078125 159.554688 457.679688 C 159.238281 459.285156 158.957031 460.898438 158.71875 462.519531 C 158.476562 464.136719 158.277344 465.761719 158.117188 467.390625 C 157.957031 469.019531 157.835938 470.648438 157.757812 472.285156 C 157.675781 473.917969 157.636719 475.554688 157.636719 477.191406 C 157.636719 478.828125 157.675781 480.464844 157.757812 482.097656 C 157.835938 483.734375 157.957031 485.363281 158.117188 486.992188 C 158.277344 488.621094 158.476562 490.246094 158.71875 491.863281 C 158.957031 493.484375 159.238281 495.097656 159.554688 496.703125 C 159.875 498.308594 160.234375 499.902344 160.628906 501.492188 C 161.027344 503.078125 161.464844 504.65625 161.9375 506.222656 C 162.414062 507.789062 162.925781 509.34375 163.476562 510.882812 C 164.027344 512.425781 164.617188 513.949219 165.242188 515.464844 C 165.867188 516.976562 166.53125 518.472656 167.230469 519.953125 C 167.929688 521.429688 168.664062 522.894531 169.4375 524.335938 C 170.207031 525.78125 171.011719 527.203125 171.855469 528.609375 C 172.695312 530.011719 173.570312 531.394531 174.476562 532.757812 C 175.386719 534.117188 176.328125 535.457031 177.304688 536.773438 C 178.277344 538.085938 179.28125 539.378906 180.320312 540.644531 C 181.359375 541.910156 182.425781 543.148438 183.523438 544.363281 C 184.625 545.578125 185.75 546.761719 186.90625 547.921875 L 209.460938 570.566406 L 209.460938 654.773438 L 194.753906 640.070312 L 194.753906 608.308594 C 194.75 606.671875 194.710938 605.035156 194.628906 603.398438 C 194.546875 601.761719 194.421875 600.128906 194.261719 598.5 C 194.097656 596.871094 193.898438 595.246094 193.65625 593.625 C 193.414062 592.007812 193.132812 590.394531 192.8125 588.789062 C 192.492188 587.183594 192.128906 585.585938 191.730469 583.996094 C 191.332031 582.410156 190.894531 580.832031 190.417969 579.265625 C 189.941406 577.699219 189.425781 576.144531 188.875 574.601562 C 188.320312 573.0625 187.730469 571.535156 187.101562 570.023438 C 186.476562 568.507812 185.8125 567.011719 185.109375 565.53125 C 184.410156 564.054688 183.671875 562.589844 182.898438 561.148438 C 182.125 559.703125 181.320312 558.277344 180.476562 556.875 C 179.632812 555.46875 178.757812 554.085938 177.847656 552.726562 C 176.9375 551.363281 175.992188 550.027344 175.015625 548.710938 C 174.039062 547.398438 173.03125 546.105469 171.992188 544.839844 C 170.953125 543.574219 169.882812 542.335938 168.785156 541.121094 C 167.683594 539.910156 166.554688 538.722656 165.394531 537.566406 C 164.238281 536.40625 163.050781 535.277344 161.839844 534.179688 C 160.625 533.078125 159.386719 532.007812 158.117188 530.96875 C 156.851562 529.929688 155.5625 528.925781 154.246094 527.949219 C 152.929688 526.972656 151.59375 526.03125 150.230469 525.121094 C 148.867188 524.210938 147.484375 523.332031 146.082031 522.492188 C 144.675781 521.648438 143.25 520.839844 141.808594 520.070312 C 140.363281 519.296875 138.898438 518.558594 137.417969 517.859375 C 135.9375 517.15625 134.441406 516.492188 132.929688 515.867188 C 131.417969 515.238281 129.886719 514.648438 128.347656 514.097656 C 126.804688 513.542969 125.25 513.027344 123.683594 512.550781 C 122.117188 512.074219 120.539062 511.636719 118.949219 511.238281 C 117.359375 510.839844 115.761719 510.480469 114.15625 510.160156 C 112.550781 509.839844 110.9375 509.558594 109.316406 509.316406 C 107.695312 509.074219 106.070312 508.871094 104.441406 508.710938 C 102.8125 508.546875 101.179688 508.425781 99.542969 508.34375 C 97.90625 508.261719 96.269531 508.21875 94.628906 508.21875 L 58.738281 508.21875 C 57.335938 508.21875 55.996094 508.511719 54.71875 509.101562 L 53.542969 509.6875 C 52.246094 510.523438 51.199219 511.601562 50.40625 512.921875 C 49.976562 513.597656 49.648438 514.316406 49.421875 515.082031 C 49.117188 516.035156 48.953125 517.015625 48.933594 518.019531 Z M 342.335938 575.269531 L 369.699219 575.269531 L 369.699219 581.449219 C 359.429688 587.496094 349.59375 594.179688 340.1875 601.496094 C 330.78125 608.8125 321.882812 616.699219 313.492188 625.164062 C 305.101562 633.625 297.289062 642.589844 290.054688 652.054688 C 282.820312 661.523438 276.222656 671.414062 270.261719 681.734375 L 263.199219 681.734375 L 263.199219 656.148438 C 273.65625 640.242188 285.539062 625.484375 298.851562 611.878906 C 312.167969 598.273438 326.660156 586.070312 342.335938 575.269531 Z M 219.171875 401.855469 L 228.976562 411.65625 L 228.976562 496.160156 C 228.976562 496.804688 228.914062 497.441406 228.789062 498.074219 C 228.664062 498.703125 228.476562 499.316406 228.230469 499.910156 C 227.984375 500.507812 227.683594 501.070312 227.324219 501.605469 C 226.964844 502.140625 226.558594 502.636719 226.105469 503.09375 C 225.648438 503.546875 225.152344 503.953125 224.617188 504.3125 C 224.082031 504.667969 223.519531 504.972656 222.921875 505.21875 C 222.328125 505.464844 221.714844 505.648438 221.082031 505.773438 C 220.453125 505.902344 219.816406 505.964844 219.171875 505.964844 C 218.527344 505.964844 217.890625 505.902344 217.257812 505.773438 C 216.625 505.648438 216.011719 505.464844 215.417969 505.21875 C 214.824219 504.972656 214.257812 504.667969 213.722656 504.3125 C 213.1875 503.953125 212.691406 503.546875 212.238281 503.09375 C 211.78125 502.636719 211.375 502.140625 211.015625 501.605469 C 210.660156 501.070312 210.355469 500.507812 210.109375 499.910156 C 209.863281 499.316406 209.679688 498.703125 209.554688 498.074219 C 209.425781 497.441406 209.363281 496.804688 209.363281 496.160156 L 209.363281 411.65625 Z M 175.140625 606.542969 L 175.140625 634.285156 L 169.453125 634.285156 C 146.605469 592.328125 94.335938 553.507812 68.546875 536.058594 L 68.546875 527.824219 L 91.296875 527.824219 C 107.175781 538.757812 122.140625 550.820312 136.195312 564.015625 C 150.25 577.210938 163.230469 591.386719 175.140625 606.542969 Z M 175.140625 606.542969 " fill-opacity="1" fill-rule="nonzero"/><g clip-path="url(#a134d5e307)"><path fill="#000000" d="M 19.074219 818.191406 C 16.601562 820.726562 14.558594 823.570312 12.953125 826.726562 C 11.34375 829.878906 10.238281 833.199219 9.640625 836.691406 L 400.261719 836.691406 C 401.882812 820.28125 396.339844 811.085938 393.28125 810.066406 C 390.769531 810.210938 388.378906 810.820312 386.105469 811.894531 C 383.832031 812.964844 381.839844 814.425781 380.132812 816.269531 C 379.828125 816.527344 379.511719 816.765625 379.179688 816.984375 C 378.847656 817.203125 378.507812 817.398438 378.152344 817.578125 C 377.796875 817.753906 377.429688 817.90625 377.058594 818.039062 C 376.683594 818.171875 376.300781 818.28125 375.914062 818.367188 C 375.527344 818.457031 375.136719 818.519531 374.742188 818.558594 C 374.347656 818.59375 373.949219 818.609375 373.554688 818.601562 C 373.15625 818.59375 372.761719 818.558594 372.371094 818.503906 C 371.976562 818.445312 371.589844 818.363281 371.207031 818.261719 C 370.824219 818.15625 370.449219 818.03125 370.082031 817.878906 C 369.714844 817.730469 369.355469 817.558594 369.007812 817.367188 C 368.664062 817.171875 368.328125 816.960938 368.007812 816.726562 C 367.6875 816.492188 367.382812 816.242188 367.089844 815.96875 C 366.800781 815.699219 366.527344 815.410156 366.273438 815.109375 C 366.019531 814.804688 365.78125 814.488281 365.566406 814.15625 C 365.347656 813.820312 365.152344 813.476562 364.976562 813.121094 C 364.804688 812.765625 364.648438 812.398438 364.519531 812.027344 C 363.730469 809.746094 362.726562 807.570312 361.503906 805.492188 C 360.277344 803.414062 358.859375 801.480469 357.25 799.6875 C 355.636719 797.894531 353.863281 796.277344 351.929688 794.839844 C 349.992188 793.402344 347.933594 792.171875 345.75 791.144531 C 344.238281 790.53125 342.6875 790.023438 341.105469 789.621094 C 339.523438 789.222656 337.917969 788.929688 336.296875 788.75 C 334.671875 788.570312 333.046875 788.503906 331.414062 788.550781 C 329.78125 788.59375 328.160156 788.75 326.546875 789.019531 C 324.9375 789.289062 323.351562 789.667969 321.792969 790.152344 C 320.234375 790.640625 318.714844 791.234375 317.238281 791.929688 C 315.761719 792.625 314.339844 793.421875 312.972656 794.3125 C 311.605469 795.207031 310.304688 796.191406 309.074219 797.261719 C 308.785156 797.503906 308.480469 797.726562 308.160156 797.929688 C 307.84375 798.136719 307.515625 798.320312 307.179688 798.488281 C 306.839844 798.65625 306.492188 798.804688 306.136719 798.929688 C 305.78125 799.058594 305.417969 799.164062 305.050781 799.25 C 304.683594 799.332031 304.3125 799.398438 303.933594 799.441406 C 303.558594 799.480469 303.183594 799.503906 302.804688 799.5 C 302.429688 799.5 302.050781 799.476562 301.675781 799.433594 C 301.300781 799.386719 300.929688 799.320312 300.5625 799.234375 C 300.195312 799.148438 299.832031 799.039062 299.480469 798.910156 C 299.125 798.78125 298.777344 798.628906 298.441406 798.460938 C 298.101562 798.292969 297.773438 798.105469 297.460938 797.898438 C 297.144531 797.6875 296.839844 797.464844 296.550781 797.222656 C 296.261719 796.980469 295.984375 796.722656 295.726562 796.449219 C 295.464844 796.175781 295.222656 795.886719 294.996094 795.585938 C 294.769531 795.28125 294.558594 794.96875 294.367188 794.644531 C 294.179688 794.316406 294.007812 793.980469 293.855469 793.636719 C 292.28125 790.128906 290.167969 786.984375 287.519531 784.199219 C 284.875 781.414062 281.839844 779.144531 278.421875 777.390625 C 275.730469 776.289062 272.945312 775.507812 270.070312 775.058594 C 267.199219 774.605469 264.308594 774.492188 261.410156 774.714844 C 258.507812 774.9375 255.671875 775.492188 252.902344 776.382812 C 250.132812 777.269531 247.5 778.464844 245.011719 779.96875 C 244.675781 780.164062 244.332031 780.339844 243.976562 780.496094 C 243.621094 780.652344 243.257812 780.785156 242.886719 780.898438 C 242.515625 781.011719 242.136719 781.101562 241.753906 781.167969 C 241.375 781.234375 240.988281 781.28125 240.601562 781.304688 C 240.214844 781.324219 239.828125 781.324219 239.441406 781.300781 C 239.054688 781.28125 238.667969 781.234375 238.289062 781.164062 C 237.90625 781.097656 237.527344 781.003906 237.15625 780.894531 C 236.785156 780.78125 236.425781 780.644531 236.070312 780.488281 C 235.714844 780.332031 235.367188 780.15625 235.035156 779.960938 C 234.699219 779.765625 234.378906 779.550781 234.070312 779.3125 C 233.761719 779.078125 233.46875 778.828125 233.1875 778.558594 C 232.910156 778.289062 232.644531 778.003906 232.402344 777.703125 C 232.15625 777.40625 231.929688 777.089844 231.71875 776.765625 C 231.511719 776.4375 231.324219 776.097656 231.152344 775.75 C 230.984375 775.402344 230.839844 775.042969 230.710938 774.675781 C 230.585938 774.308594 230.480469 773.9375 230.398438 773.558594 C 230.15625 772.347656 229.808594 771.164062 229.363281 770.011719 C 228.914062 768.859375 228.371094 767.75 227.734375 766.691406 C 227.09375 765.632812 226.371094 764.636719 225.5625 763.699219 C 224.753906 762.765625 223.871094 761.90625 222.910156 761.121094 C 221.953125 760.339844 220.9375 759.644531 219.859375 759.035156 C 218.785156 758.425781 217.664062 757.914062 216.496094 757.5 C 215.332031 757.085938 214.140625 756.769531 212.921875 756.5625 C 211.703125 756.351562 210.472656 756.246094 209.238281 756.246094 C 208.167969 756.320312 207.109375 756.476562 206.0625 756.714844 C 205.015625 756.949219 203.992188 757.265625 202.992188 757.660156 C 201.996094 758.054688 201.03125 758.523438 200.105469 759.0625 C 199.179688 759.605469 198.300781 760.214844 197.46875 760.890625 C 196.636719 761.570312 195.859375 762.304688 195.140625 763.101562 C 194.421875 763.898438 193.765625 764.742188 193.175781 765.640625 C 192.585938 766.535156 192.070312 767.472656 191.621094 768.449219 C 191.175781 769.421875 190.808594 770.429688 190.515625 771.460938 C 190.410156 771.808594 190.285156 772.152344 190.136719 772.488281 C 189.992188 772.820312 189.828125 773.148438 189.648438 773.464844 C 189.464844 773.78125 189.265625 774.085938 189.050781 774.382812 C 188.835938 774.675781 188.601562 774.957031 188.355469 775.226562 C 188.109375 775.496094 187.847656 775.75 187.570312 775.988281 C 187.292969 776.226562 187.007812 776.453125 186.707031 776.660156 C 186.40625 776.867188 186.09375 777.054688 185.769531 777.226562 C 185.449219 777.402344 185.117188 777.554688 184.777344 777.691406 C 184.441406 777.824219 184.09375 777.941406 183.742188 778.039062 C 183.390625 778.136719 183.03125 778.210938 182.671875 778.269531 C 182.3125 778.328125 181.949219 778.363281 181.582031 778.378906 C 181.21875 778.394531 180.851562 778.390625 180.488281 778.367188 C 180.125 778.34375 179.761719 778.300781 179.402344 778.234375 C 179.042969 778.167969 178.6875 778.085938 178.339844 777.980469 C 177.988281 777.875 177.644531 777.753906 177.308594 777.609375 C 176.972656 777.46875 176.644531 777.304688 176.328125 777.125 C 173.40625 775.402344 170.277344 774.242188 166.9375 773.644531 C 163.597656 773.050781 160.257812 773.054688 156.921875 773.667969 C 154.488281 774.363281 152.167969 775.332031 149.964844 776.570312 C 147.757812 777.808594 145.726562 779.285156 143.867188 781 C 142.007812 782.714844 140.371094 784.625 138.957031 786.722656 C 137.546875 788.820312 136.394531 791.050781 135.503906 793.417969 C 135.375 793.789062 135.222656 794.148438 135.046875 794.5 C 134.875 794.847656 134.683594 795.1875 134.46875 795.515625 C 134.253906 795.84375 134.023438 796.15625 133.769531 796.457031 C 133.519531 796.753906 133.253906 797.039062 132.96875 797.308594 C 132.683594 797.574219 132.382812 797.824219 132.066406 798.054688 C 131.75 798.289062 131.425781 798.5 131.082031 798.691406 C 130.742188 798.882812 130.394531 799.054688 130.03125 799.207031 C 129.671875 799.355469 129.300781 799.484375 128.925781 799.59375 C 128.550781 799.699219 128.167969 799.78125 127.78125 799.84375 C 127.394531 799.90625 127.007812 799.941406 126.617188 799.957031 C 126.226562 799.972656 125.835938 799.960938 125.445312 799.929688 C 125.054688 799.898438 124.667969 799.84375 124.285156 799.761719 C 123.902344 799.683594 123.527344 799.585938 123.15625 799.460938 C 122.785156 799.335938 122.421875 799.191406 122.066406 799.023438 C 121.714844 798.859375 121.371094 798.671875 121.039062 798.460938 C 120.710938 798.253906 120.390625 798.027344 120.085938 797.78125 C 117 795.433594 113.664062 793.511719 110.082031 792.015625 C 106.5 790.519531 102.789062 789.5 98.945312 788.957031 C 94.507812 788.394531 90.109375 788.625 85.757812 789.644531 C 83.460938 790.21875 81.230469 790.980469 79.066406 791.941406 C 76.902344 792.898438 74.835938 794.035156 72.867188 795.347656 C 70.902344 796.664062 69.0625 798.136719 67.347656 799.769531 C 65.636719 801.402344 64.078125 803.171875 62.671875 805.074219 C 62.101562 805.835938 61.429688 806.5 60.664062 807.070312 C 59.898438 807.636719 59.066406 808.082031 58.171875 808.40625 C 57.277344 808.730469 56.351562 808.921875 55.398438 808.976562 C 54.449219 809.03125 53.507812 808.949219 52.582031 808.730469 C 51.101562 808.433594 49.613281 808.222656 48.109375 808.105469 C 46.605469 807.984375 45.097656 807.949219 43.59375 808.007812 C 42.085938 808.066406 40.585938 808.210938 39.097656 808.449219 C 37.605469 808.683594 36.136719 809.007812 34.683594 809.414062 C 33.234375 809.824219 31.808594 810.320312 30.417969 810.898438 C 29.023438 811.476562 27.671875 812.136719 26.355469 812.875 C 25.042969 813.613281 23.773438 814.429688 22.558594 815.316406 C 21.339844 816.207031 20.175781 817.164062 19.074219 818.191406 Z M 19.074219 818.191406 " fill-opacity="1" fill-rule="nonzero"/></g><path fill="#000000" d="M 453.933594 518.019531 L 453.933594 553.800781 C 453.933594 555.441406 453.976562 557.078125 454.058594 558.710938 C 454.140625 560.347656 454.261719 561.980469 454.425781 563.609375 C 454.585938 565.238281 454.789062 566.863281 455.03125 568.484375 C 455.273438 570.101562 455.554688 571.714844 455.875 573.320312 C 456.195312 574.925781 456.554688 576.523438 456.957031 578.113281 C 457.355469 579.699219 457.792969 581.277344 458.269531 582.84375 C 458.746094 584.410156 459.261719 585.964844 459.8125 587.507812 C 460.367188 589.050781 460.957031 590.574219 461.582031 592.089844 C 462.210938 593.601562 462.875 595.097656 463.578125 596.578125 C 464.277344 598.058594 465.015625 599.519531 465.789062 600.964844 C 466.558594 602.40625 467.367188 603.832031 468.210938 605.234375 C 469.054688 606.640625 469.929688 608.023438 470.839844 609.382812 C 471.75 610.746094 472.695312 612.082031 473.667969 613.398438 C 474.644531 614.714844 475.652344 616.003906 476.691406 617.269531 C 477.730469 618.535156 478.800781 619.773438 479.902344 620.988281 C 481.003906 622.203125 482.132812 623.386719 483.289062 624.546875 C 484.449219 625.703125 485.632812 626.832031 486.847656 627.929688 C 488.0625 629.03125 489.300781 630.101562 490.566406 631.140625 C 491.832031 632.179688 493.125 633.1875 494.441406 634.160156 C 495.753906 635.136719 497.09375 636.082031 498.457031 636.992188 C 499.816406 637.902344 501.203125 638.777344 502.605469 639.621094 C 504.011719 640.460938 505.433594 641.269531 506.878906 642.042969 C 508.324219 642.816406 509.785156 643.550781 511.265625 644.253906 C 512.746094 644.953125 514.246094 645.617188 515.757812 646.246094 C 517.269531 646.871094 518.796875 647.460938 520.339844 648.015625 C 521.882812 648.566406 523.4375 649.082031 525.003906 649.558594 C 526.570312 650.035156 528.148438 650.472656 529.738281 650.871094 C 531.328125 651.269531 532.925781 651.628906 534.53125 651.949219 C 536.136719 652.273438 537.75 652.554688 539.371094 652.792969 C 540.988281 653.035156 542.617188 653.238281 544.246094 653.398438 C 545.875 653.5625 547.507812 653.683594 549.144531 653.765625 C 550.78125 653.847656 552.417969 653.890625 554.054688 653.890625 L 585.828125 653.890625 L 614.492188 682.546875 L 614.492188 748.019531 C 614.492188 748.664062 614.554688 749.300781 614.679688 749.933594 C 614.804688 750.566406 614.992188 751.179688 615.238281 751.773438 C 615.484375 752.367188 615.785156 752.933594 616.144531 753.46875 C 616.503906 754.003906 616.910156 754.496094 617.363281 754.953125 C 617.820312 755.410156 618.316406 755.816406 618.851562 756.171875 C 619.386719 756.53125 619.949219 756.832031 620.546875 757.078125 C 621.140625 757.324219 621.753906 757.511719 622.386719 757.636719 C 623.015625 757.761719 623.652344 757.824219 624.296875 757.824219 C 624.941406 757.824219 625.578125 757.761719 626.210938 757.636719 C 626.84375 757.511719 627.457031 757.324219 628.050781 757.078125 C 628.644531 756.832031 629.210938 756.53125 629.746094 756.171875 C 630.28125 755.816406 630.777344 755.410156 631.230469 754.953125 C 631.6875 754.496094 632.09375 754.003906 632.453125 753.46875 C 632.808594 752.933594 633.113281 752.367188 633.359375 751.773438 C 633.605469 751.179688 633.789062 750.566406 633.914062 749.933594 C 634.042969 749.300781 634.105469 748.664062 634.105469 748.019531 L 634.105469 729.738281 L 662.542969 701.308594 L 694.21875 701.308594 C 695.855469 701.308594 697.492188 701.265625 699.125 701.183594 C 700.761719 701.101562 702.394531 700.976562 704.023438 700.816406 C 705.652344 700.652344 707.277344 700.449219 708.898438 700.207031 C 710.515625 699.96875 712.128906 699.683594 713.734375 699.363281 C 715.339844 699.042969 716.9375 698.683594 718.523438 698.285156 C 720.113281 697.882812 721.691406 697.445312 723.257812 696.96875 C 724.824219 696.492188 726.378906 695.980469 727.917969 695.425781 C 729.460938 694.875 730.988281 694.285156 732.5 693.65625 C 734.011719 693.027344 735.507812 692.363281 736.988281 691.664062 C 738.46875 690.964844 739.929688 690.226562 741.375 689.453125 C 742.816406 688.683594 744.242188 687.875 745.644531 687.03125 C 747.050781 686.191406 748.433594 685.3125 749.792969 684.40625 C 751.15625 683.496094 752.492188 682.550781 753.808594 681.578125 C 755.121094 680.601562 756.414062 679.59375 757.679688 678.554688 C 758.945312 677.515625 760.183594 676.449219 761.398438 675.347656 C 762.609375 674.25 763.796875 673.121094 764.953125 671.960938 C 766.109375 670.804688 767.238281 669.621094 768.339844 668.40625 C 769.441406 667.195312 770.507812 665.957031 771.546875 664.691406 C 772.585938 663.425781 773.59375 662.136719 774.570312 660.820312 C 775.546875 659.507812 776.488281 658.167969 777.398438 656.808594 C 778.308594 655.445312 779.1875 654.066406 780.027344 652.660156 C 780.871094 651.257812 781.679688 649.832031 782.449219 648.390625 C 783.222656 646.945312 783.960938 645.484375 784.660156 644.007812 C 785.363281 642.527344 786.027344 641.03125 786.652344 639.519531 C 787.28125 638.007812 787.871094 636.480469 788.425781 634.941406 C 788.976562 633.398438 789.492188 631.847656 789.96875 630.28125 C 790.445312 628.714844 790.882812 627.136719 791.285156 625.550781 C 791.683594 623.960938 792.042969 622.367188 792.363281 620.761719 C 792.683594 619.15625 792.964844 617.542969 793.207031 615.925781 C 793.449219 614.304688 793.652344 612.683594 793.816406 611.054688 C 793.976562 609.425781 794.101562 607.792969 794.183594 606.15625 C 794.265625 604.523438 794.308594 602.886719 794.308594 601.25 L 794.308594 565.46875 C 794.320312 564.214844 794.089844 563.003906 793.625 561.839844 C 793.324219 561.15625 792.960938 560.5 792.542969 559.878906 C 792.140625 559.28125 791.683594 558.726562 791.171875 558.214844 C 790.738281 557.855469 790.28125 557.527344 789.800781 557.234375 C 789.492188 557.03125 789.164062 556.867188 788.820312 556.742188 C 788.40625 556.445312 787.945312 556.25 787.445312 556.15625 C 787.21875 556.078125 786.992188 556.011719 786.757812 555.960938 C 786.019531 555.757812 785.269531 555.660156 784.503906 555.664062 L 748.710938 555.664062 C 747.074219 555.667969 745.433594 555.707031 743.800781 555.789062 C 742.164062 555.871094 740.53125 555.996094 738.898438 556.15625 C 737.269531 556.320312 735.644531 556.519531 734.023438 556.761719 C 732.40625 557.003906 730.792969 557.285156 729.183594 557.605469 C 727.578125 557.925781 725.980469 558.285156 724.394531 558.6875 C 722.804688 559.085938 721.226562 559.523438 719.660156 560 C 718.089844 560.476562 716.535156 560.988281 714.996094 561.542969 C 713.453125 562.09375 711.925781 562.683594 710.414062 563.3125 C 708.898438 563.941406 707.402344 564.605469 705.921875 565.304688 C 704.441406 566.007812 702.980469 566.742188 701.535156 567.515625 C 700.089844 568.289062 698.664062 569.09375 697.261719 569.9375 C 695.855469 570.78125 694.472656 571.65625 693.109375 572.566406 C 691.75 573.476562 690.410156 574.417969 689.09375 575.394531 C 687.78125 576.371094 686.488281 577.378906 685.222656 578.417969 C 683.957031 579.457031 682.714844 580.527344 681.503906 581.625 C 680.289062 582.726562 679.101562 583.855469 677.945312 585.011719 C 676.785156 586.171875 675.65625 587.355469 674.558594 588.570312 C 673.457031 589.78125 672.386719 591.023438 671.347656 592.289062 C 670.308594 593.554688 669.300781 594.84375 668.324219 596.160156 C 667.347656 597.472656 666.40625 598.8125 665.496094 600.171875 C 664.585938 601.535156 663.707031 602.917969 662.867188 604.320312 C 662.023438 605.726562 661.214844 607.148438 660.441406 608.59375 C 659.667969 610.039062 658.933594 611.5 658.230469 612.980469 C 657.53125 614.460938 656.867188 615.957031 656.238281 617.46875 C 655.609375 618.980469 655.019531 620.507812 654.46875 622.050781 C 653.914062 623.589844 653.398438 625.144531 652.921875 626.710938 C 652.445312 628.277344 652.007812 629.855469 651.609375 631.445312 C 651.210938 633.03125 650.851562 634.628906 650.53125 636.234375 C 650.210938 637.839844 649.929688 639.453125 649.6875 641.074219 C 649.445312 642.695312 649.242188 644.316406 649.082031 645.949219 C 648.917969 647.578125 648.796875 649.210938 648.714844 650.84375 C 648.632812 652.480469 648.589844 654.117188 648.589844 655.753906 L 648.589844 687.515625 L 634.105469 701.996094 L 634.105469 570.371094 L 656.433594 547.921875 C 657.589844 546.761719 658.71875 545.578125 659.816406 544.363281 C 660.914062 543.148438 661.984375 541.910156 663.019531 540.644531 C 664.058594 539.378906 665.0625 538.085938 666.039062 536.773438 C 667.011719 535.457031 667.953125 534.117188 668.863281 532.757812 C 669.773438 531.394531 670.648438 530.011719 671.488281 528.609375 C 672.328125 527.203125 673.132812 525.78125 673.90625 524.335938 C 674.675781 522.894531 675.410156 521.429688 676.109375 519.953125 C 676.808594 518.472656 677.472656 516.976562 678.097656 515.464844 C 678.726562 513.949219 679.3125 512.425781 679.863281 510.882812 C 680.414062 509.34375 680.929688 507.789062 681.402344 506.222656 C 681.878906 504.65625 682.3125 503.078125 682.710938 501.492188 C 683.109375 499.902344 683.464844 498.308594 683.785156 496.703125 C 684.105469 495.097656 684.382812 493.484375 684.625 491.863281 C 684.863281 490.246094 685.0625 488.621094 685.222656 486.992188 C 685.386719 485.363281 685.503906 483.734375 685.585938 482.097656 C 685.664062 480.464844 685.707031 478.828125 685.707031 477.191406 C 685.707031 475.554688 685.664062 473.917969 685.585938 472.285156 C 685.503906 470.648438 685.386719 469.019531 685.222656 467.390625 C 685.0625 465.761719 684.863281 464.136719 684.625 462.519531 C 684.382812 460.898438 684.105469 459.285156 683.785156 457.679688 C 683.464844 456.078125 683.109375 454.480469 682.710938 452.890625 C 682.3125 451.304688 681.878906 449.726562 681.402344 448.160156 C 680.929688 446.59375 680.414062 445.042969 679.863281 443.5 C 679.3125 441.957031 678.726562 440.433594 678.097656 438.917969 C 677.472656 437.40625 676.808594 435.910156 676.109375 434.429688 C 675.410156 432.953125 674.675781 431.488281 673.90625 430.046875 C 673.132812 428.601562 672.328125 427.179688 671.488281 425.773438 C 670.648438 424.371094 669.773438 422.988281 668.863281 421.625 C 667.953125 420.265625 667.011719 418.925781 666.039062 417.609375 C 665.0625 416.296875 664.058594 415.003906 663.019531 413.738281 C 661.984375 412.472656 660.914062 411.234375 659.816406 410.019531 C 658.71875 408.804688 657.589844 407.621094 656.433594 406.460938 L 631.132812 381.074219 C 630.511719 380.492188 629.824219 380.003906 629.074219 379.601562 C 628.316406 379.128906 627.496094 378.804688 626.621094 378.621094 C 626.304688 378.507812 625.976562 378.445312 625.640625 378.425781 C 624.660156 378.160156 623.679688 378.160156 622.699219 378.425781 C 622.363281 378.445312 622.035156 378.507812 621.71875 378.621094 C 620.84375 378.804688 620.027344 379.128906 619.265625 379.601562 C 618.519531 380.003906 617.832031 380.492188 617.207031 381.074219 L 591.90625 406.460938 C 590.75 407.621094 589.625 408.804688 588.523438 410.019531 C 587.425781 411.234375 586.359375 412.472656 585.320312 413.738281 C 584.28125 415.003906 583.277344 416.296875 582.300781 417.609375 C 581.328125 418.925781 580.386719 420.265625 579.476562 421.625 C 578.570312 422.988281 577.695312 424.371094 576.855469 425.773438 C 576.011719 427.179688 575.207031 428.601562 574.4375 430.046875 C 573.664062 431.488281 572.929688 432.953125 572.230469 434.429688 C 571.53125 435.910156 570.867188 437.40625 570.242188 438.917969 C 569.617188 440.433594 569.027344 441.957031 568.476562 443.5 C 567.925781 445.042969 567.414062 446.59375 566.9375 448.160156 C 566.464844 449.726562 566.027344 451.304688 565.628906 452.890625 C 565.234375 454.480469 564.875 456.078125 564.554688 457.679688 C 564.238281 459.285156 563.957031 460.898438 563.71875 462.519531 C 563.476562 464.136719 563.277344 465.761719 563.117188 467.390625 C 562.957031 469.019531 562.835938 470.648438 562.757812 472.285156 C 562.675781 473.917969 562.636719 475.554688 562.636719 477.191406 C 562.636719 478.828125 562.675781 480.464844 562.757812 482.097656 C 562.835938 483.734375 562.957031 485.363281 563.117188 486.992188 C 563.277344 488.621094 563.476562 490.246094 563.71875 491.863281 C 563.957031 493.484375 564.238281 495.097656 564.554688 496.703125 C 564.875 498.308594 565.234375 499.902344 565.628906 501.492188 C 566.027344 503.078125 566.464844 504.65625 566.9375 506.222656 C 567.414062 507.789062 567.925781 509.34375 568.476562 510.882812 C 569.027344 512.425781 569.617188 513.949219 570.242188 515.464844 C 570.867188 516.976562 571.53125 518.472656 572.230469 519.953125 C 572.929688 521.429688 573.664062 522.894531 574.4375 524.335938 C 575.207031 525.78125 576.011719 527.203125 576.855469 528.609375 C 577.695312 530.011719 578.570312 531.394531 579.476562 532.757812 C 580.386719 534.117188 581.328125 535.457031 582.300781 536.773438 C 583.277344 538.085938 584.28125 539.378906 585.320312 540.644531 C 586.359375 541.910156 587.425781 543.148438 588.523438 544.363281 C 589.625 545.578125 590.75 546.761719 591.90625 547.921875 L 614.460938 570.566406 L 614.460938 654.773438 L 599.753906 640.070312 L 599.753906 608.308594 C 599.75 606.671875 599.710938 605.035156 599.628906 603.398438 C 599.546875 601.761719 599.421875 600.128906 599.261719 598.5 C 599.097656 596.871094 598.898438 595.246094 598.65625 593.625 C 598.414062 592.007812 598.132812 590.394531 597.8125 588.789062 C 597.492188 587.183594 597.128906 585.585938 596.730469 583.996094 C 596.332031 582.410156 595.894531 580.832031 595.417969 579.265625 C 594.941406 577.699219 594.425781 576.144531 593.875 574.601562 C 593.320312 573.0625 592.730469 571.535156 592.101562 570.023438 C 591.476562 568.507812 590.8125 567.011719 590.109375 565.53125 C 589.410156 564.054688 588.671875 562.589844 587.898438 561.148438 C 587.125 559.703125 586.320312 558.277344 585.476562 556.875 C 584.632812 555.46875 583.757812 554.085938 582.847656 552.726562 C 581.9375 551.363281 580.992188 550.027344 580.015625 548.710938 C 579.039062 547.398438 578.03125 546.105469 576.992188 544.839844 C 575.953125 543.574219 574.882812 542.335938 573.785156 541.121094 C 572.683594 539.910156 571.554688 538.722656 570.394531 537.566406 C 569.238281 536.40625 568.050781 535.277344 566.839844 534.179688 C 565.625 533.078125 564.386719 532.007812 563.117188 530.96875 C 561.851562 529.929688 560.5625 528.925781 559.246094 527.949219 C 557.929688 526.972656 556.59375 526.03125 555.230469 525.121094 C 553.867188 524.210938 552.484375 523.332031 551.082031 522.492188 C 549.675781 521.648438 548.25 520.839844 546.808594 520.070312 C 545.363281 519.296875 543.898438 518.558594 542.417969 517.859375 C 540.9375 517.15625 539.441406 516.492188 537.929688 515.867188 C 536.417969 515.238281 534.886719 514.648438 533.347656 514.097656 C 531.804688 513.542969 530.25 513.027344 528.683594 512.550781 C 527.117188 512.074219 525.539062 511.636719 523.949219 511.238281 C 522.359375 510.839844 520.761719 510.480469 519.15625 510.160156 C 517.550781 509.839844 515.9375 509.558594 514.316406 509.316406 C 512.695312 509.074219 511.070312 508.871094 509.441406 508.710938 C 507.8125 508.546875 506.179688 508.425781 504.542969 508.34375 C 502.90625 508.261719 501.269531 508.21875 499.628906 508.21875 L 463.738281 508.21875 C 462.335938 508.21875 460.996094 508.511719 459.71875 509.101562 L 458.542969 509.6875 C 457.246094 510.523438 456.199219 511.601562 455.40625 512.921875 C 454.976562 513.597656 454.648438 514.316406 454.421875 515.082031 C 454.117188 516.035156 453.953125 517.015625 453.933594 518.019531 Z M 747.335938 575.269531 L 774.699219 575.269531 L 774.699219 581.449219 C 764.429688 587.496094 754.59375 594.179688 745.1875 601.496094 C 735.78125 608.8125 726.882812 616.699219 718.492188 625.164062 C 710.101562 633.625 702.289062 642.589844 695.054688 652.054688 C 687.820312 661.523438 681.222656 671.414062 675.261719 681.734375 L 668.199219 681.734375 L 668.199219 656.148438 C 678.65625 640.242188 690.539062 625.484375 703.851562 611.878906 C 717.167969 598.273438 731.660156 586.070312 747.335938 575.269531 Z M 624.171875 401.855469 L 633.976562 411.65625 L 633.976562 496.160156 C 633.976562 496.804688 633.914062 497.441406 633.789062 498.074219 C 633.664062 498.703125 633.476562 499.316406 633.230469 499.910156 C 632.984375 500.507812 632.683594 501.070312 632.324219 501.605469 C 631.964844 502.140625 631.558594 502.636719 631.105469 503.09375 C 630.648438 503.546875 630.152344 503.953125 629.617188 504.3125 C 629.082031 504.667969 628.519531 504.972656 627.921875 505.21875 C 627.328125 505.464844 626.714844 505.648438 626.082031 505.773438 C 625.453125 505.902344 624.816406 505.964844 624.171875 505.964844 C 623.527344 505.964844 622.890625 505.902344 622.257812 505.773438 C 621.625 505.648438 621.011719 505.464844 620.417969 505.21875 C 619.824219 504.972656 619.257812 504.667969 618.722656 504.3125 C 618.1875 503.953125 617.691406 503.546875 617.238281 503.09375 C 616.78125 502.636719 616.375 502.140625 616.015625 501.605469 C 615.660156 501.070312 615.355469 500.507812 615.109375 499.910156 C 614.863281 499.316406 614.679688 498.703125 614.554688 498.074219 C 614.425781 497.441406 614.363281 496.804688 614.363281 496.160156 L 614.363281 411.65625 Z M 580.140625 606.542969 L 580.140625 634.285156 L 574.453125 634.285156 C 551.605469 592.328125 499.335938 553.507812 473.546875 536.058594 L 473.546875 527.824219 L 496.296875 527.824219 C 512.175781 538.757812 527.140625 550.820312 541.195312 564.015625 C 555.25 577.210938 568.230469 591.386719 580.140625 606.542969 Z M 580.140625 606.542969 " fill-opacity="1" fill-rule="nonzero"/><g clip-path="url(#65607dd12d)"><path fill="#000000" d="M 424.074219 818.191406 C 421.601562 820.726562 419.558594 823.570312 417.953125 826.726562 C 416.34375 829.878906 415.238281 833.199219 414.640625 836.691406 L 805.261719 836.691406 C 806.882812 820.28125 801.339844 811.085938 798.28125 810.066406 C 795.769531 810.210938 793.378906 810.820312 791.105469 811.894531 C 788.832031 812.964844 786.839844 814.425781 785.132812 816.269531 C 784.828125 816.527344 784.511719 816.765625 784.179688 816.984375 C 783.847656 817.203125 783.507812 817.398438 783.152344 817.578125 C 782.796875 817.753906 782.429688 817.90625 782.058594 818.039062 C 781.683594 818.171875 781.300781 818.28125 780.914062 818.367188 C 780.527344 818.457031 780.136719 818.519531 779.742188 818.558594 C 779.347656 818.59375 778.949219 818.609375 778.554688 818.601562 C 778.15625 818.59375 777.761719 818.558594 777.371094 818.503906 C 776.976562 818.445312 776.589844 818.363281 776.207031 818.261719 C 775.824219 818.15625 775.449219 818.03125 775.082031 817.878906 C 774.714844 817.730469 774.355469 817.558594 774.007812 817.367188 C 773.664062 817.171875 773.328125 816.960938 773.007812 816.726562 C 772.6875 816.492188 772.382812 816.242188 772.089844 815.96875 C 771.800781 815.699219 771.527344 815.410156 771.273438 815.109375 C 771.019531 814.804688 770.78125 814.488281 770.566406 814.15625 C 770.347656 813.820312 770.152344 813.476562 769.976562 813.121094 C 769.804688 812.765625 769.648438 812.398438 769.519531 812.027344 C 768.730469 809.746094 767.726562 807.570312 766.503906 805.492188 C 765.277344 803.414062 763.859375 801.480469 762.25 799.6875 C 760.636719 797.894531 758.863281 796.277344 756.929688 794.839844 C 754.992188 793.402344 752.933594 792.171875 750.75 791.144531 C 749.238281 790.53125 747.6875 790.023438 746.105469 789.621094 C 744.523438 789.222656 742.917969 788.929688 741.296875 788.75 C 739.671875 788.570312 738.046875 788.503906 736.414062 788.550781 C 734.78125 788.59375 733.160156 788.75 731.546875 789.019531 C 729.9375 789.289062 728.351562 789.667969 726.792969 790.152344 C 725.234375 790.640625 723.714844 791.234375 722.238281 791.929688 C 720.761719 792.625 719.339844 793.421875 717.972656 794.3125 C 716.605469 795.207031 715.304688 796.191406 714.074219 797.261719 C 713.785156 797.503906 713.480469 797.726562 713.160156 797.929688 C 712.84375 798.136719 712.515625 798.320312 712.179688 798.488281 C 711.839844 798.65625 711.492188 798.804688 711.136719 798.929688 C 710.78125 799.058594 710.417969 799.164062 710.050781 799.25 C 709.683594 799.332031 709.3125 799.398438 708.933594 799.441406 C 708.558594 799.480469 708.183594 799.503906 707.804688 799.5 C 707.429688 799.5 707.050781 799.476562 706.675781 799.433594 C 706.300781 799.386719 705.929688 799.320312 705.5625 799.234375 C 705.195312 799.148438 704.832031 799.039062 704.480469 798.910156 C 704.125 798.78125 703.777344 798.628906 703.441406 798.460938 C 703.101562 798.292969 702.773438 798.105469 702.460938 797.898438 C 702.144531 797.6875 701.839844 797.464844 701.550781 797.222656 C 701.261719 796.980469 700.984375 796.722656 700.726562 796.449219 C 700.464844 796.175781 700.222656 795.886719 699.996094 795.585938 C 699.769531 795.28125 699.558594 794.96875 699.367188 794.644531 C 699.179688 794.316406 699.007812 793.980469 698.855469 793.636719 C 697.28125 790.128906 695.167969 786.984375 692.519531 784.199219 C 689.875 781.414062 686.839844 779.144531 683.421875 777.390625 C 680.726562 776.289062 677.945312 775.507812 675.070312 775.058594 C 672.199219 774.605469 669.308594 774.492188 666.410156 774.714844 C 663.507812 774.9375 660.671875 775.492188 657.902344 776.382812 C 655.132812 777.269531 652.5 778.464844 650.011719 779.96875 C 649.675781 780.164062 649.332031 780.339844 648.976562 780.496094 C 648.621094 780.652344 648.257812 780.785156 647.886719 780.898438 C 647.515625 781.011719 647.136719 781.101562 646.753906 781.167969 C 646.375 781.234375 645.988281 781.28125 645.601562 781.304688 C 645.214844 781.324219 644.828125 781.324219 644.441406 781.300781 C 644.054688 781.28125 643.667969 781.234375 643.289062 781.164062 C 642.90625 781.097656 642.527344 781.003906 642.15625 780.894531 C 641.785156 780.78125 641.425781 780.644531 641.070312 780.488281 C 640.714844 780.332031 640.367188 780.15625 640.035156 779.960938 C 639.699219 779.765625 639.378906 779.550781 639.070312 779.3125 C 638.761719 779.078125 638.46875 778.828125 638.1875 778.558594 C 637.910156 778.289062 637.644531 778.003906 637.402344 777.703125 C 637.15625 777.40625 636.929688 777.089844 636.71875 776.765625 C 636.511719 776.4375 636.324219 776.097656 636.152344 775.75 C 635.984375 775.402344 635.839844 775.042969 635.710938 774.675781 C 635.585938 774.308594 635.480469 773.9375 635.398438 773.558594 C 635.15625 772.347656 634.808594 771.164062 634.363281 770.011719 C 633.914062 768.859375 633.371094 767.75 632.734375 766.691406 C 632.09375 765.632812 631.371094 764.636719 630.5625 763.699219 C 629.753906 762.765625 628.871094 761.90625 627.910156 761.121094 C 626.953125 760.339844 625.9375 759.644531 624.859375 759.035156 C 623.785156 758.425781 622.664062 757.914062 621.496094 757.5 C 620.332031 757.085938 619.140625 756.769531 617.921875 756.5625 C 616.703125 756.351562 615.472656 756.246094 614.238281 756.246094 C 613.167969 756.320312 612.109375 756.476562 611.0625 756.714844 C 610.015625 756.949219 608.992188 757.265625 607.992188 757.660156 C 606.996094 758.054688 606.03125 758.523438 605.105469 759.0625 C 604.179688 759.605469 603.300781 760.214844 602.46875 760.890625 C 601.636719 761.570312 600.859375 762.304688 600.140625 763.101562 C 599.421875 763.898438 598.765625 764.742188 598.175781 765.640625 C 597.585938 766.535156 597.070312 767.472656 596.621094 768.449219 C 596.175781 769.421875 595.808594 770.429688 595.515625 771.460938 C 595.410156 771.808594 595.285156 772.152344 595.136719 772.488281 C 594.992188 772.820312 594.828125 773.148438 594.648438 773.464844 C 594.464844 773.78125 594.265625 774.085938 594.050781 774.382812 C 593.835938 774.675781 593.601562 774.957031 593.355469 775.226562 C 593.109375 775.496094 592.847656 775.75 592.570312 775.988281 C 592.292969 776.226562 592.007812 776.453125 591.707031 776.660156 C 591.40625 776.867188 591.09375 777.054688 590.769531 777.226562 C 590.449219 777.402344 590.117188 777.554688 589.777344 777.691406 C 589.441406 777.824219 589.09375 777.941406 588.742188 778.039062 C 588.390625 778.136719 588.03125 778.210938 587.671875 778.269531 C 587.3125 778.328125 586.949219 778.363281 586.582031 778.378906 C 586.21875 778.394531 585.851562 778.390625 585.488281 778.367188 C 585.125 778.34375 584.761719 778.300781 584.402344 778.234375 C 584.042969 778.167969 583.6875 778.085938 583.339844 777.980469 C 582.988281 777.875 582.644531 777.753906 582.308594 777.609375 C 581.972656 777.46875 581.644531 777.304688 581.328125 777.125 C 578.40625 775.402344 575.277344 774.242188 571.9375 773.644531 C 568.597656 773.050781 565.257812 773.054688 561.921875 773.667969 C 559.488281 774.363281 557.167969 775.332031 554.964844 776.570312 C 552.757812 777.808594 550.726562 779.285156 548.867188 781 C 547.007812 782.714844 545.371094 784.625 543.957031 786.722656 C 542.546875 788.820312 541.394531 791.050781 540.503906 793.417969 C 540.375 793.789062 540.222656 794.148438 540.046875 794.5 C 539.875 794.847656 539.683594 795.1875 539.46875 795.515625 C 539.253906 795.84375 539.023438 796.15625 538.769531 796.457031 C 538.519531 796.753906 538.253906 797.039062 537.96875 797.308594 C 537.683594 797.574219 537.382812 797.824219 537.066406 798.054688 C 536.75 798.289062 536.425781 798.5 536.082031 798.691406 C 535.742188 798.882812 535.394531 799.054688 535.03125 799.207031 C 534.671875 799.355469 534.300781 799.484375 533.925781 799.59375 C 533.550781 799.699219 533.167969 799.78125 532.78125 799.84375 C 532.394531 799.90625 532.007812 799.941406 531.617188 799.957031 C 531.226562 799.972656 530.835938 799.960938 530.445312 799.929688 C 530.054688 799.898438 529.667969 799.84375 529.285156 799.761719 C 528.902344 799.683594 528.527344 799.585938 528.15625 799.460938 C 527.785156 799.335938 527.421875 799.191406 527.066406 799.023438 C 526.714844 798.859375 526.371094 798.671875 526.039062 798.460938 C 525.710938 798.253906 525.390625 798.027344 525.085938 797.78125 C 522 795.433594 518.664062 793.511719 515.082031 792.015625 C 511.5 790.519531 507.789062 789.5 503.945312 788.957031 C 499.507812 788.394531 495.109375 788.625 490.757812 789.644531 C 488.460938 790.21875 486.230469 790.980469 484.066406 791.941406 C 481.902344 792.898438 479.835938 794.035156 477.867188 795.347656 C 475.902344 796.664062 474.0625 798.136719 472.347656 799.769531 C 470.636719 801.402344 469.078125 803.171875 467.671875 805.074219 C 467.101562 805.835938 466.429688 806.5 465.664062 807.070312 C 464.898438 807.636719 464.066406 808.082031 463.171875 808.40625 C 462.273438 808.730469 461.351562 808.921875 460.398438 808.976562 C 459.449219 809.03125 458.507812 808.949219 457.582031 808.730469 C 456.101562 808.433594 454.613281 808.222656 453.109375 808.105469 C 451.605469 807.984375 450.097656 807.949219 448.59375 808.007812 C 447.085938 808.066406 445.585938 808.210938 444.097656 808.449219 C 442.605469 808.683594 441.136719 809.007812 439.683594 809.414062 C 438.234375 809.824219 436.808594 810.320312 435.417969 810.898438 C 434.023438 811.476562 432.671875 812.136719 431.355469 812.875 C 430.042969 813.613281 428.773438 814.429688 427.558594 815.316406 C 426.339844 816.207031 425.175781 817.164062 424.074219 818.191406 Z M 424.074219 818.191406 " fill-opacity="1" fill-rule="nonzero"/></g><path fill="#000000" d="M 619.976562 289.628906 C 619.976562 288.859375 619.835938 288.136719 619.628906 287.4375 C 619.628906 287.4375 619.628906 287.433594 619.628906 287.433594 C 619.554688 287.164062 619.492188 286.898438 619.382812 286.636719 C 619.277344 286.378906 619.128906 286.144531 618.992188 285.898438 C 618.902344 285.738281 618.820312 285.570312 618.726562 285.410156 C 618.425781 284.941406 618.085938 284.5 617.691406 284.109375 L 554.582031 220.992188 C 551.535156 217.945312 546.589844 217.945312 543.539062 220.992188 C 540.484375 224.042969 540.492188 228.992188 543.539062 232.039062 L 593.316406 281.820312 L 245.03125 281.820312 L 294.808594 232.039062 C 297.855469 228.992188 297.855469 224.042969 294.808594 220.992188 C 291.761719 217.945312 286.816406 217.945312 283.765625 220.992188 L 220.660156 284.109375 C 220.265625 284.5 219.925781 284.941406 219.625 285.410156 C 219.53125 285.570312 219.449219 285.738281 219.359375 285.898438 C 219.226562 286.144531 219.078125 286.378906 218.96875 286.636719 C 218.859375 286.898438 218.796875 287.164062 218.722656 287.433594 C 218.722656 287.433594 218.722656 287.4375 218.722656 287.4375 C 218.511719 288.136719 218.371094 288.859375 218.371094 289.628906 C 218.371094 290.394531 218.511719 291.117188 218.71875 291.820312 C 218.71875 291.820312 218.71875 291.824219 218.71875 291.824219 C 218.792969 292.09375 218.855469 292.359375 218.964844 292.617188 C 219.070312 292.878906 219.21875 293.113281 219.355469 293.359375 C 219.445312 293.519531 219.523438 293.683594 219.617188 293.84375 C 219.921875 294.3125 220.261719 294.757812 220.652344 295.148438 L 283.765625 358.261719 C 286.8125 361.3125 291.757812 361.3125 294.808594 358.261719 C 297.859375 355.214844 297.855469 350.269531 294.808594 347.21875 L 245.03125 297.4375 L 593.316406 297.4375 L 543.539062 347.21875 C 540.492188 350.265625 540.492188 355.210938 543.539062 358.261719 C 546.585938 361.316406 551.53125 361.3125 554.582031 358.261719 L 617.6875 295.152344 C 618.082031 294.761719 618.421875 294.320312 618.722656 293.851562 C 618.816406 293.6875 618.898438 293.523438 618.988281 293.363281 C 619.121094 293.117188 619.269531 292.882812 619.378906 292.621094 C 619.488281 292.363281 619.550781 292.097656 619.625 291.828125 C 619.625 291.828125 619.625 291.824219 619.625 291.824219 C 619.835938 291.117188 619.976562 290.394531 619.976562 289.628906 Z M 619.976562 289.628906 " fill-opacity="1" fill-rule="nonzero"/><g clip-path="url(#2b3c46f5ab)"><g clip-path="url(#28fc413184)"><g transform="matrix(1, 0, 0, 1, 254, 463)"><g clip-path="url(#90694ffc3f)"><g clip-path="url(#9a12f42649)"><g clip-path="url(#684f070212)"><path fill="#000000" d="M 0.667969 0.5 L 18.046875 0.5 L 18.046875 17.878906 L 0.667969 17.878906 Z M 0.667969 0.5 " fill-opacity="1" fill-rule="nonzero"/></g></g></g></g></g></g></svg>