<svg xmlns="http://www.w3.org/2000/svg" xmlns:xlink="http://www.w3.org/1999/xlink" width="1080" zoomAndPan="magnify" viewBox="0 0 810 809.999993" height="1080" preserveAspectRatio="xMidYMid meet" version="1.0"><defs><clipPath id="86187af9a4"><path d="M 25 56 L 801 56 L 801 809.851562 L 25 809.851562 Z M 25 56 " clip-rule="nonzero"/></clipPath><clipPath id="852b210726"><path d="M 585.09375 320.75 L 599.089844 320.75 L 599.089844 334.742188 L 585.09375 334.742188 Z M 585.09375 320.75 " clip-rule="nonzero"/></clipPath><clipPath id="aa77053564"><path d="M 592.089844 320.75 C 588.226562 320.75 585.09375 323.882812 585.09375 327.746094 C 585.09375 331.609375 588.226562 334.742188 592.089844 334.742188 C 595.957031 334.742188 599.089844 331.609375 599.089844 327.746094 C 599.089844 323.882812 595.957031 320.75 592.089844 320.75 Z M 592.089844 320.75 " clip-rule="nonzero"/></clipPath><clipPath id="3f05dfab38"><path d="M 0.09375 0.75 L 14.089844 0.75 L 14.089844 14.742188 L 0.09375 14.742188 Z M 0.09375 0.75 " clip-rule="nonzero"/></clipPath><clipPath id="14f3972b1b"><path d="M 7.089844 0.75 C 3.226562 0.75 0.09375 3.882812 0.09375 7.746094 C 0.09375 11.609375 3.226562 14.742188 7.089844 14.742188 C 10.957031 14.742188 14.089844 11.609375 14.089844 7.746094 C 14.089844 3.882812 10.957031 0.75 7.089844 0.75 Z M 7.089844 0.75 " clip-rule="nonzero"/></clipPath><clipPath id="9491bb4c4c"><rect x="0" width="15" y="0" height="15"/></clipPath></defs><g clip-path="url(#86187af9a4)"><path fill="#000000" d="M 800.835938 809.378906 L 35.21875 809.378906 C 8.191406 752.347656 39.875 690.601562 123.195312 690.601562 L 164.605469 690.601562 C 172.699219 621.597656 232.125 562.265625 304.882812 562.265625 C 339.226562 562.265625 370.269531 575.789062 394.578125 596.988281 C 394.6875 579.917969 395.605469 559.382812 401.367188 525.820312 C 390.449219 503.761719 374.207031 467.679688 360.015625 448.03125 C 311.480469 448.753906 238.886719 435.867188 186.308594 383.265625 C 115.433594 312.40625 147.28125 189.582031 147.28125 189.582031 C 147.28125 189.582031 273.035156 177.554688 339.144531 243.84375 C 379.859375 284.636719 392.386719 342.808594 395.851562 388.726562 C 338.949219 315.203125 264.996094 273 192.929688 241.792969 C 307.710938 314.402344 379.664062 405.355469 413.425781 467.347656 C 419.996094 441.878906 428.394531 416.050781 439.589844 392.386719 C 504.285156 268.8125 608.421875 179.21875 720.871094 118.609375 C 608.726562 150.921875 505.808594 217.738281 437.734375 315.648438 C 444.527344 233.230469 460.90625 186.589844 515.871094 131.304688 C 618.953125 27.628906 772.09375 61.910156 772.09375 61.910156 C 772.09375 61.910156 797.566406 219.320312 705.265625 311.601562 C 630.234375 386.621094 545.804688 400.835938 483.273438 403.527344 C 455.335938 465.519531 445.632812 527.539062 454.226562 589.535156 C 500.40625 598.011719 535.46875 638.28125 535.46875 686.917969 C 535.46875 688.164062 535.136719 689.300781 535.105469 690.546875 L 645.949219 690.546875 C 729.628906 690.601562 800.835938 759.746094 800.835938 809.378906 Z M 800.835938 809.378906 " fill-opacity="1" fill-rule="nonzero"/></g><g clip-path="url(#852b210726)"><g clip-path="url(#aa77053564)"><g transform="matrix(1, 0, 0, 1, 585, 320)"><g clip-path="url(#9491bb4c4c)"><g clip-path="url(#3f05dfab38)"><g clip-path="url(#14f3972b1b)"><path fill="#2f2f2f" d="M 0.09375 0.75 L 14.089844 0.75 L 14.089844 14.742188 L 0.09375 14.742188 Z M 0.09375 0.75 " fill-opacity="1" fill-rule="nonzero"/></g></g></g></g></g></g></svg>