<svg xmlns="http://www.w3.org/2000/svg" xmlns:xlink="http://www.w3.org/1999/xlink" width="1080" zoomAndPan="magnify" viewBox="0 0 810 809.999993" height="1080" preserveAspectRatio="xMidYMid meet" version="1.0"><defs><clipPath id="1b039fea1d"><path d="M 0 82.011719 L 810 82.011719 L 810 810 L 0 810 Z M 0 82.011719 " clip-rule="nonzero"/></clipPath><clipPath id="bf12b24c96"><path d="M 627.441406 381.5 L 650.941406 381.5 L 650.941406 405 L 627.441406 405 Z M 627.441406 381.5 " clip-rule="nonzero"/></clipPath><clipPath id="e64931032c"><path d="M 639.191406 381.5 C 632.703125 381.5 627.441406 386.761719 627.441406 393.25 C 627.441406 399.738281 632.703125 405 639.191406 405 C 645.679688 405 650.941406 399.738281 650.941406 393.25 C 650.941406 386.761719 645.679688 381.5 639.191406 381.5 Z M 639.191406 381.5 " clip-rule="nonzero"/></clipPath><clipPath id="70ee7c5cef"><path d="M 0.441406 0.5 L 23.941406 0.5 L 23.941406 24 L 0.441406 24 Z M 0.441406 0.5 " clip-rule="nonzero"/></clipPath><clipPath id="a64160fcdb"><path d="M 12.191406 0.5 C 5.703125 0.5 0.441406 5.761719 0.441406 12.25 C 0.441406 18.738281 5.703125 24 12.191406 24 C 18.679688 24 23.941406 18.738281 23.941406 12.25 C 23.941406 5.761719 18.679688 0.5 12.191406 0.5 Z M 12.191406 0.5 " clip-rule="nonzero"/></clipPath><clipPath id="68067d0563"><rect x="0" width="24" y="0" height="24"/></clipPath></defs><g clip-path="url(#1b039fea1d)"><path fill="#000000" d="M 0.695312 82.011719 L 0.695312 162.929688 L 41.140625 162.929688 C 82.234375 162.929688 121.59375 179.25 150.621094 208.285156 L 166.578125 224.25 C 112.195312 285.179688 81.582031 364.007812 81.582031 446.136719 C 81.582031 534.570312 116.71875 619.414062 179.214844 681.933594 L 229.214844 731.953125 C 296.160156 798.921875 415.414062 762.753906 433.960938 669.921875 L 438.226562 648.429688 L 526.460938 648.429688 C 592.988281 648.429688 647.789062 593.605469 647.789062 527.054688 L 647.789062 438.867188 L 669.273438 434.523438 C 762.089844 415.964844 798.257812 296.640625 731.28125 229.703125 L 681.359375 179.679688 C 618.828125 117.128906 533.972656 82.011719 445.574219 82.011719 C 363.476562 82.011719 284.671875 112.636719 223.765625 167.039062 L 207.808594 151.074219 C 163.636719 106.886719 103.660156 82.011719 41.140625 82.011719 Z M 445.574219 162.929688 C 512.554688 162.929688 576.699219 189.558594 624.09375 236.972656 L 674.09375 286.910156 C 698.519531 311.328125 687.332031 348.417969 653.476562 355.183594 L 599.445312 366.011719 C 598.3125 366.238281 597.1875 366.511719 596.074219 366.835938 C 594.960938 367.160156 593.867188 367.527344 592.785156 367.945312 C 591.703125 368.363281 590.644531 368.824219 589.601562 369.335938 C 588.5625 369.84375 587.542969 370.394531 586.550781 370.992188 C 585.558594 371.585938 584.589844 372.222656 583.652344 372.902344 C 582.714844 373.582031 581.804688 374.300781 580.929688 375.054688 C 580.050781 375.8125 579.210938 376.605469 578.398438 377.4375 C 577.589844 378.265625 576.820312 379.128906 576.085938 380.023438 C 575.351562 380.917969 574.65625 381.84375 574 382.800781 C 573.34375 383.757812 572.730469 384.738281 572.160156 385.746094 C 571.589844 386.753906 571.0625 387.785156 570.578125 388.839844 C 570.097656 389.890625 569.660156 390.964844 569.269531 392.054688 C 568.878906 393.144531 568.535156 394.25 568.242188 395.371094 C 567.945312 396.492188 567.699219 397.625 567.5 398.765625 C 567.300781 399.90625 567.152344 401.054688 567.054688 402.210938 C 566.953125 403.363281 566.902344 404.519531 566.902344 405.679688 L 566.902344 527.054688 C 566.902344 549.914062 549.3125 567.511719 526.460938 567.511719 L 405.128906 567.511719 C 403.972656 567.511719 402.816406 567.5625 401.664062 567.660156 C 400.511719 567.761719 399.367188 567.910156 398.226562 568.105469 C 397.085938 568.304688 395.957031 568.550781 394.835938 568.84375 C 393.71875 569.136719 392.613281 569.480469 391.523438 569.871094 C 390.433594 570.257812 389.363281 570.695312 388.3125 571.175781 C 387.257812 571.65625 386.230469 572.183594 385.222656 572.75 C 384.214844 573.320312 383.234375 573.933594 382.28125 574.585938 C 381.324219 575.242188 380.398438 575.933594 379.503906 576.667969 C 378.609375 577.398438 377.746094 578.171875 376.917969 578.976562 C 376.089844 579.785156 375.296875 580.625 374.539062 581.5 C 373.78125 582.375 373.0625 583.28125 372.382812 584.21875 C 371.707031 585.15625 371.066406 586.121094 370.472656 587.113281 C 369.875 588.105469 369.320312 589.121094 368.8125 590.160156 C 368.304688 591.199219 367.839844 592.257812 367.421875 593.335938 C 367 594.414062 366.628906 595.511719 366.304688 596.621094 C 365.980469 597.730469 365.703125 598.855469 365.476562 599.988281 L 354.652344 654.039062 C 347.882812 687.921875 310.867188 699.210938 286.40625 674.742188 L 236.40625 624.722656 C 189.058594 577.359375 162.46875 513.144531 162.46875 446.136719 C 162.46875 379.128906 189.058594 314.917969 236.40625 267.550781 L 267.054688 236.890625 C 314.402344 189.527344 378.589844 162.929688 445.574219 162.929688 Z M 769.121094 527.054688 C 767.796875 527.054688 766.472656 527.121094 765.15625 527.25 C 763.835938 527.378906 762.527344 527.574219 761.230469 527.832031 C 759.929688 528.089844 758.648438 528.410156 757.378906 528.796875 C 756.113281 529.179688 754.867188 529.625 753.640625 530.132812 C 752.417969 530.640625 751.222656 531.207031 750.054688 531.832031 C 748.886719 532.457031 747.75 533.136719 746.652344 533.871094 C 745.550781 534.609375 744.488281 535.398438 743.460938 536.238281 C 742.4375 537.078125 741.457031 537.96875 740.523438 538.902344 C 739.585938 539.839844 738.695312 540.820312 737.855469 541.847656 C 737.015625 542.871094 736.226562 543.933594 735.492188 545.035156 C 734.757812 546.136719 734.078125 547.273438 733.453125 548.441406 C 732.828125 549.609375 732.261719 550.804688 731.753906 552.03125 C 731.246094 553.253906 730.800781 554.5 730.417969 555.769531 C 730.035156 557.035156 729.710938 558.320312 729.453125 559.621094 C 729.195312 560.917969 729 562.226562 728.871094 563.546875 C 728.742188 564.867188 728.675781 566.1875 728.675781 567.511719 C 728.675781 568.835938 728.742188 570.160156 728.871094 571.476562 C 729 572.796875 729.195312 574.105469 729.453125 575.40625 C 729.710938 576.707031 730.035156 577.988281 730.417969 579.257812 C 730.800781 580.523438 731.246094 581.769531 731.753906 582.996094 C 732.261719 584.21875 732.828125 585.414062 733.453125 586.585938 C 734.078125 587.753906 734.757812 588.886719 735.492188 589.988281 C 736.226562 591.089844 737.015625 592.15625 737.855469 593.179688 C 738.695312 594.203125 739.585938 595.183594 740.523438 596.121094 C 741.457031 597.058594 742.4375 597.945312 743.460938 598.789062 C 744.488281 599.628906 745.550781 600.417969 746.652344 601.152344 C 747.75 601.886719 748.886719 602.570312 750.054688 603.195312 C 751.222656 603.816406 752.417969 604.382812 753.640625 604.890625 C 754.867188 605.398438 756.113281 605.84375 757.378906 606.230469 C 758.648438 606.613281 759.929688 606.933594 761.230469 607.195312 C 762.527344 607.453125 763.835938 607.644531 765.15625 607.777344 C 766.472656 607.90625 767.796875 607.972656 769.121094 607.972656 C 770.445312 607.972656 771.765625 607.90625 773.082031 607.777344 C 774.402344 607.644531 775.710938 607.453125 777.007812 607.195312 C 778.308594 606.933594 779.59375 606.613281 780.859375 606.230469 C 782.128906 605.84375 783.371094 605.398438 784.597656 604.890625 C 785.820312 604.382812 787.015625 603.816406 788.183594 603.195312 C 789.351562 602.570312 790.488281 601.886719 791.589844 601.152344 C 792.691406 600.417969 793.753906 599.628906 794.777344 598.789062 C 795.800781 597.945312 796.78125 597.058594 797.71875 596.121094 C 798.652344 595.183594 799.542969 594.203125 800.382812 593.179688 C 801.222656 592.15625 802.011719 591.089844 802.746094 589.988281 C 803.484375 588.886719 804.164062 587.753906 804.789062 586.585938 C 805.410156 585.414062 805.976562 584.21875 806.484375 582.996094 C 806.992188 581.769531 807.4375 580.523438 807.820312 579.257812 C 808.207031 577.988281 808.527344 576.707031 808.785156 575.40625 C 809.042969 574.105469 809.238281 572.796875 809.367188 571.476562 C 809.5 570.160156 809.5625 568.835938 809.5625 567.511719 C 809.5625 566.1875 809.5 564.867188 809.367188 563.546875 C 809.238281 562.226562 809.042969 560.917969 808.785156 559.621094 C 808.527344 558.320312 808.207031 557.035156 807.820312 555.769531 C 807.4375 554.5 806.992188 553.253906 806.484375 552.03125 C 805.976562 550.804688 805.410156 549.609375 804.789062 548.441406 C 804.164062 547.273438 803.484375 546.136719 802.746094 545.035156 C 802.011719 543.933594 801.222656 542.871094 800.382812 541.847656 C 799.542969 540.820312 798.652344 539.839844 797.71875 538.902344 C 796.78125 537.96875 795.800781 537.078125 794.777344 536.238281 C 793.753906 535.398438 792.691406 534.609375 791.589844 533.871094 C 790.488281 533.136719 789.351562 532.457031 788.183594 531.832031 C 787.015625 531.207031 785.820312 530.640625 784.597656 530.132812 C 783.371094 529.625 782.128906 529.179688 780.859375 528.796875 C 779.59375 528.410156 778.308594 528.089844 777.007812 527.832031 C 775.710938 527.574219 774.402344 527.378906 773.082031 527.25 C 771.765625 527.121094 770.445312 527.054688 769.121094 527.054688 Z M 566.902344 729.347656 C 565.578125 729.347656 564.257812 729.410156 562.9375 729.539062 C 561.621094 729.671875 560.3125 729.863281 559.011719 730.125 C 557.714844 730.382812 556.429688 730.703125 555.164062 731.089844 C 553.894531 731.472656 552.648438 731.917969 551.425781 732.425781 C 550.203125 732.933594 549.007812 733.5 547.839844 734.125 C 546.667969 734.746094 545.535156 735.429688 544.433594 736.164062 C 543.332031 736.902344 542.269531 737.6875 541.246094 738.53125 C 540.222656 739.371094 539.242188 740.257812 538.304688 741.195312 C 537.367188 742.132812 536.480469 743.113281 535.640625 744.136719 C 534.800781 745.160156 534.011719 746.226562 533.273438 747.328125 C 532.539062 748.429688 531.859375 749.5625 531.234375 750.730469 C 530.609375 751.902344 530.042969 753.097656 529.539062 754.320312 C 529.03125 755.546875 528.585938 756.792969 528.199219 758.058594 C 527.816406 759.328125 527.496094 760.613281 527.238281 761.910156 C 526.976562 763.210938 526.785156 764.519531 526.652344 765.839844 C 526.523438 767.15625 526.460938 768.480469 526.460938 769.804688 C 526.460938 771.128906 526.523438 772.449219 526.652344 773.769531 C 526.785156 775.089844 526.976562 776.398438 527.238281 777.695312 C 527.496094 778.996094 527.816406 780.28125 528.199219 781.546875 C 528.585938 782.816406 529.03125 784.0625 529.539062 785.285156 C 530.042969 786.511719 530.609375 787.707031 531.234375 788.875 C 531.859375 790.042969 532.539062 791.179688 533.273438 792.28125 C 534.011719 793.382812 534.800781 794.445312 535.640625 795.472656 C 536.480469 796.496094 537.367188 797.476562 538.304688 798.414062 C 539.242188 799.347656 540.222656 800.238281 541.246094 801.078125 C 542.269531 801.917969 543.332031 802.707031 544.433594 803.445312 C 545.535156 804.179688 546.667969 804.859375 547.839844 805.484375 C 549.007812 806.109375 550.203125 806.675781 551.425781 807.183594 C 552.648438 807.691406 553.894531 808.136719 555.164062 808.519531 C 556.429688 808.90625 557.714844 809.226562 559.011719 809.484375 C 560.3125 809.742188 561.621094 809.9375 562.9375 810.066406 C 564.257812 810.199219 565.578125 810.261719 566.902344 810.261719 C 568.226562 810.261719 569.550781 810.199219 570.867188 810.066406 C 572.183594 809.9375 573.492188 809.742188 574.792969 809.484375 C 576.09375 809.226562 577.375 808.90625 578.644531 808.519531 C 579.910156 808.136719 581.15625 807.691406 582.378906 807.183594 C 583.605469 806.675781 584.800781 806.109375 585.96875 805.484375 C 587.136719 804.859375 588.269531 804.179688 589.371094 803.445312 C 590.472656 802.707031 591.535156 801.917969 592.558594 801.078125 C 593.582031 800.238281 594.5625 799.347656 595.5 798.414062 C 596.4375 797.476562 597.324219 796.496094 598.164062 795.472656 C 599.007812 794.445312 599.792969 793.382812 600.53125 792.28125 C 601.265625 791.179688 601.945312 790.042969 602.570312 788.875 C 603.195312 787.707031 603.761719 786.511719 604.269531 785.285156 C 604.773438 784.0625 605.21875 782.816406 605.605469 781.546875 C 605.988281 780.28125 606.3125 778.996094 606.570312 777.695312 C 606.828125 776.398438 607.023438 775.089844 607.152344 773.769531 C 607.28125 772.449219 607.347656 771.128906 607.347656 769.804688 C 607.347656 768.480469 607.28125 767.15625 607.152344 765.839844 C 607.023438 764.519531 606.828125 763.210938 606.570312 761.910156 C 606.3125 760.613281 605.988281 759.328125 605.605469 758.058594 C 605.21875 756.792969 604.773438 755.546875 604.269531 754.320312 C 603.761719 753.097656 603.195312 751.902344 602.570312 750.730469 C 601.945312 749.5625 601.265625 748.429688 600.53125 747.328125 C 599.792969 746.226562 599.007812 745.160156 598.164062 744.136719 C 597.324219 743.113281 596.4375 742.132812 595.5 741.195312 C 594.5625 740.257812 593.582031 739.371094 592.558594 738.53125 C 591.535156 737.6875 590.472656 736.902344 589.371094 736.164062 C 588.269531 735.429688 587.136719 734.746094 585.96875 734.125 C 584.800781 733.5 583.605469 732.933594 582.378906 732.425781 C 581.15625 731.917969 579.910156 731.472656 578.644531 731.089844 C 577.375 730.703125 576.09375 730.382812 574.792969 730.125 C 573.492188 729.863281 572.183594 729.671875 570.867188 729.539062 C 569.550781 729.410156 568.226562 729.347656 566.902344 729.347656 Z M 769.121094 729.347656 C 767.796875 729.347656 766.472656 729.410156 765.15625 729.539062 C 763.835938 729.671875 762.527344 729.863281 761.230469 730.125 C 759.929688 730.382812 758.648438 730.703125 757.378906 731.089844 C 756.113281 731.472656 754.867188 731.917969 753.640625 732.425781 C 752.417969 732.933594 751.222656 733.5 750.054688 734.125 C 748.886719 734.746094 747.75 735.429688 746.652344 736.164062 C 745.550781 736.902344 744.488281 737.6875 743.460938 738.53125 C 742.4375 739.371094 741.457031 740.257812 740.523438 741.195312 C 739.585938 742.132812 738.695312 743.113281 737.855469 744.136719 C 737.015625 745.160156 736.226562 746.226562 735.492188 747.328125 C 734.757812 748.429688 734.078125 749.5625 733.453125 750.730469 C 732.828125 751.902344 732.261719 753.097656 731.753906 754.320312 C 731.246094 755.546875 730.800781 756.792969 730.417969 758.058594 C 730.035156 759.328125 729.710938 760.613281 729.453125 761.910156 C 729.195312 763.210938 729 764.519531 728.871094 765.839844 C 728.742188 767.15625 728.675781 768.480469 728.675781 769.804688 C 728.675781 771.128906 728.742188 772.449219 728.871094 773.769531 C 729 775.089844 729.195312 776.398438 729.453125 777.695312 C 729.710938 778.996094 730.035156 780.28125 730.417969 781.546875 C 730.800781 782.816406 731.246094 784.0625 731.753906 785.285156 C 732.261719 786.511719 732.828125 787.707031 733.453125 788.875 C 734.078125 790.042969 734.757812 791.179688 735.492188 792.28125 C 736.226562 793.382812 737.015625 794.445312 737.855469 795.472656 C 738.695312 796.496094 739.585938 797.476562 740.523438 798.414062 C 741.457031 799.347656 742.4375 800.238281 743.460938 801.078125 C 744.488281 801.917969 745.550781 802.707031 746.652344 803.445312 C 747.75 804.179688 748.886719 804.859375 750.054688 805.484375 C 751.222656 806.109375 752.417969 806.675781 753.640625 807.183594 C 754.867188 807.691406 756.113281 808.136719 757.378906 808.519531 C 758.648438 808.90625 759.929688 809.226562 761.230469 809.484375 C 762.527344 809.742188 763.835938 809.9375 765.15625 810.066406 C 766.472656 810.199219 767.796875 810.261719 769.121094 810.261719 C 770.445312 810.261719 771.765625 810.199219 773.082031 810.066406 C 774.402344 809.9375 775.710938 809.742188 777.007812 809.484375 C 778.308594 809.226562 779.59375 808.90625 780.859375 808.519531 C 782.128906 808.136719 783.371094 807.691406 784.597656 807.183594 C 785.820312 806.675781 787.015625 806.109375 788.183594 805.484375 C 789.351562 804.859375 790.488281 804.179688 791.589844 803.445312 C 792.691406 802.707031 793.753906 801.917969 794.777344 801.078125 C 795.800781 800.238281 796.78125 799.347656 797.71875 798.414062 C 798.652344 797.476562 799.542969 796.496094 800.382812 795.472656 C 801.222656 794.445312 802.011719 793.382812 802.746094 792.28125 C 803.484375 791.179688 804.164062 790.042969 804.789062 788.875 C 805.410156 787.707031 805.976562 786.511719 806.484375 785.285156 C 806.992188 784.0625 807.4375 782.816406 807.820312 781.546875 C 808.207031 780.28125 808.527344 778.996094 808.785156 777.695312 C 809.042969 776.398438 809.238281 775.089844 809.367188 773.769531 C 809.5 772.449219 809.5625 771.128906 809.5625 769.804688 C 809.5625 768.480469 809.5 767.15625 809.367188 765.839844 C 809.238281 764.519531 809.042969 763.210938 808.785156 761.910156 C 808.527344 760.613281 808.207031 759.328125 807.820312 758.058594 C 807.4375 756.792969 806.992188 755.546875 806.484375 754.320312 C 805.976562 753.097656 805.410156 751.902344 804.789062 750.730469 C 804.164062 749.5625 803.484375 748.429688 802.746094 747.328125 C 802.011719 746.226562 801.222656 745.160156 800.382812 744.136719 C 799.542969 743.113281 798.652344 742.132812 797.71875 741.195312 C 796.78125 740.257812 795.800781 739.371094 794.777344 738.53125 C 793.753906 737.6875 792.691406 736.902344 791.589844 736.164062 C 790.488281 735.429688 789.351562 734.746094 788.183594 734.125 C 787.015625 733.5 785.820312 732.933594 784.597656 732.425781 C 783.371094 731.917969 782.128906 731.472656 780.859375 731.089844 C 779.59375 730.703125 778.308594 730.382812 777.007812 730.125 C 775.710938 729.863281 774.402344 729.671875 773.082031 729.539062 C 771.765625 729.410156 770.445312 729.347656 769.121094 729.347656 Z M 769.121094 729.347656 " fill-opacity="1" fill-rule="nonzero"/></g><g clip-path="url(#bf12b24c96)"><g clip-path="url(#e64931032c)"><g transform="matrix(1, 0, 0, 1, 627, 381)"><g clip-path="url(#68067d0563)"><g clip-path="url(#70ee7c5cef)"><g clip-path="url(#a64160fcdb)"><path fill="#000000" d="M 0.441406 0.5 L 23.941406 0.5 L 23.941406 24 L 0.441406 24 Z M 0.441406 0.5 " fill-opacity="1" fill-rule="nonzero"/></g></g></g></g></g></g></svg>