<svg xmlns="http://www.w3.org/2000/svg" xmlns:xlink="http://www.w3.org/1999/xlink" width="1080" zoomAndPan="magnify" viewBox="0 0 810 809.999993" height="1080" preserveAspectRatio="xMidYMid meet" version="1.0"><defs><clipPath id="6b2aa1ce34"><path d="M 398.003906 261.378906 L 411.996094 261.378906 L 411.996094 275.371094 L 398.003906 275.371094 Z M 398.003906 261.378906 " clip-rule="nonzero"/></clipPath><clipPath id="57fa6561be"><path d="M 405 261.378906 C 401.136719 261.378906 398.003906 264.511719 398.003906 268.375 C 398.003906 272.238281 401.136719 275.371094 405 275.371094 C 408.863281 275.371094 411.996094 272.238281 411.996094 268.375 C 411.996094 264.511719 408.863281 261.378906 405 261.378906 Z M 405 261.378906 " clip-rule="nonzero"/></clipPath><clipPath id="7cdab4b20b"><path d="M 0.00390625 0.378906 L 13.996094 0.378906 L 13.996094 14.371094 L 0.00390625 14.371094 Z M 0.00390625 0.378906 " clip-rule="nonzero"/></clipPath><clipPath id="143f1f4336"><path d="M 7 0.378906 C 3.136719 0.378906 0.00390625 3.511719 0.00390625 7.375 C 0.00390625 11.238281 3.136719 14.371094 7 14.371094 C 10.863281 14.371094 13.996094 11.238281 13.996094 7.375 C 13.996094 3.511719 10.863281 0.378906 7 0.378906 Z M 7 0.378906 " clip-rule="nonzero"/></clipPath><clipPath id="480f45e2db"><rect x="0" width="14" y="0" height="15"/></clipPath></defs><path fill="#000000" d="M 547.207031 255.890625 C 547.425781 291.003906 547.644531 325.015625 547.644531 358.148438 C 547.644531 366.707031 544.355469 372.851562 537.550781 376.363281 C 534.917969 377.679688 531.40625 378.339844 526.796875 378.339844 C 447.796875 378.558594 369.894531 378.558594 294.40625 378.339844 C 286.066406 378.339844 280.363281 377.460938 277.289062 375.925781 C 271.144531 372.851562 268.074219 366.925781 268.074219 358.148438 C 268.292969 324.136719 268.292969 289.464844 267.855469 254.136719 C 267.855469 253.699219 267.632812 253.699219 267.414062 253.476562 C 247.664062 250.1875 230.988281 241.410156 217.820312 226.269531 C 200.484375 206.300781 192.804688 182.601562 195 155.171875 C 196.972656 130.152344 207.066406 109.308594 225.28125 92.628906 C 244.152344 75.515625 266.757812 68.054688 293.308594 70.46875 C 297.257812 70.90625 302.964844 72.003906 310.644531 73.757812 C 311.523438 73.976562 312.183594 73.757812 312.621094 72.878906 C 314.816406 69.371094 317.007812 65.859375 318.984375 62.347656 C 329.738281 44.792969 344.21875 32.066406 362.433594 24.164062 C 416.199219 0.464844 474.132812 21.75 500.683594 73.757812 C 500.902344 74.417969 501.5625 74.636719 502.21875 74.417969 C 529.433594 66.738281 555.765625 69.808594 577.710938 86.265625 C 604.921875 106.675781 619.625 137.835938 617.210938 171.847656 C 615.015625 204.542969 594.605469 235.265625 564.105469 248.210938 C 559.277344 250.1875 554.007812 252.160156 548.742188 253.699219 C 547.644531 254.355469 547.207031 255.015625 547.207031 255.890625 Z M 547.207031 255.890625 " fill-opacity="1" fill-rule="nonzero"/><path fill="#000000" d="M 277.070312 662.070312 C 267.632812 670.847656 257.980469 680.285156 248.105469 691.035156 C 247.882812 691.257812 247.664062 691.257812 247.445312 691.257812 C 229.890625 681.382812 213.433594 670.410156 197.632812 658.121094 C 161.644531 629.8125 129.164062 597.117188 100.417969 560.472656 C 65.746094 516.144531 39.632812 467.648438 26.246094 412.570312 C 23.832031 402.914062 22.296875 391.503906 21.199219 377.898438 C 19.882812 362.320312 26.464844 348.273438 42.265625 345.421875 C 49.507812 344.105469 56.308594 346.738281 62.894531 353.324219 C 132.238281 423.324219 202.019531 493.542969 272.023438 563.984375 C 302.085938 594.265625 331.710938 625.207031 361.777344 655.925781 C 378.234375 672.605469 394.691406 688.402344 411.152344 705.519531 C 411.589844 705.957031 411.589844 706.617188 411.152344 706.835938 C 410.933594 707.054688 410.710938 707.054688 410.492188 707.054688 C 384.160156 707.714844 356.730469 708.152344 328.859375 708.371094 C 325.347656 708.371094 320.960938 703.546875 318.546875 701.132812 C 304.28125 687.746094 290.894531 674.796875 278.828125 662.289062 C 277.949219 661.632812 277.507812 661.632812 277.070312 662.070312 Z M 277.070312 662.070312 " fill-opacity="1" fill-rule="nonzero"/><path fill="#000000" d="M 557.082031 586.585938 C 540.402344 564.640625 533.382812 539.84375 536.015625 512.195312 C 537.550781 496.175781 541.941406 482.132812 550.71875 468.089844 C 561.03125 451.628906 572.882812 439.121094 587.144531 426.613281 C 606.894531 409.277344 624.890625 393.480469 641.347656 378.996094 C 644.859375 375.925781 647.933594 374.167969 651.003906 373.292969 C 661.316406 370.878906 675.363281 383.824219 671.632812 394.578125 C 670.753906 396.992188 669 399.84375 666.144531 403.132812 C 657.585938 413.007812 648.589844 423.542969 639.59375 434.734375 C 631.691406 444.390625 623.574219 452.945312 615.453125 462.164062 C 614.578125 463.261719 614.136719 464.359375 613.917969 465.675781 C 612.382812 475.109375 618.308594 483.667969 628.183594 484.328125 C 634.105469 484.765625 639.375 482.351562 643.980469 477.523438 C 657.367188 463.261719 670.753906 449.4375 683.703125 435.832031 C 688.75 430.5625 694.015625 425.515625 699.0625 420.691406 C 703.011719 417.179688 706.742188 413.667969 712.007812 412.789062 C 725.175781 410.59375 733.734375 422.226562 732.855469 434.953125 C 732.417969 441.097656 726.933594 446.582031 723.203125 450.972656 C 707.402344 469.40625 691.382812 487.835938 675.363281 506.710938 C 671.632812 510.878906 671.191406 515.707031 673.828125 520.972656 C 679.53125 532.601562 693.355469 532.601562 701.257812 523.605469 C 717.058594 505.613281 733.953125 487.835938 751.289062 470.0625 C 754.363281 466.992188 758.3125 463.042969 762.480469 461.503906 C 778.0625 456.019531 790.132812 471.160156 782.890625 485.425781 C 772.796875 504.953125 760.289062 526.019531 745.363281 548.839844 C 729.34375 573.199219 712.007812 595.144531 687.871094 610.066406 C 663.949219 624.984375 631.472656 627.621094 604.042969 620.597656 C 603.605469 620.378906 603.164062 620.597656 602.726562 621.035156 C 573.757812 648.464844 544.792969 678.089844 518.460938 704.421875 C 515.824219 707.054688 512.753906 709.46875 508.804688 709.25 C 486.199219 707.933594 463.816406 706.835938 441.433594 706.398438 C 440.558594 706.398438 440.558594 706.179688 440.996094 705.519531 L 556.644531 589 C 557.519531 588.339844 557.519531 587.242188 557.082031 586.585938 Z M 557.082031 586.585938 " fill-opacity="1" fill-rule="nonzero"/><path fill="#000000" d="M 204.433594 759.5 L 618.964844 759.5 C 631.914062 759.5 642.664062 770.035156 642.664062 783.199219 L 642.664062 785.835938 C 642.664062 798.78125 632.132812 809.535156 618.964844 809.535156 L 204.433594 809.535156 C 191.488281 809.535156 180.734375 799 180.734375 785.835938 L 180.734375 782.980469 C 180.953125 770.035156 191.488281 759.5 204.433594 759.5 Z M 204.433594 759.5 " fill-opacity="1" fill-rule="nonzero"/><g clip-path="url(#6b2aa1ce34)"><g clip-path="url(#57fa6561be)"><g transform="matrix(1, 0, 0, 1, 398, 261)"><g clip-path="url(#480f45e2db)"><g clip-path="url(#7cdab4b20b)"><g clip-path="url(#143f1f4336)"><path fill="#2f2f2f" d="M 0.00390625 0.378906 L 13.996094 0.378906 L 13.996094 14.371094 L 0.00390625 14.371094 Z M 0.00390625 0.378906 " fill-opacity="1" fill-rule="nonzero"/></g></g></g></g></g></g></svg>