<svg xmlns="http://www.w3.org/2000/svg" xmlns:xlink="http://www.w3.org/1999/xlink" width="1080" zoomAndPan="magnify" viewBox="0 0 810 809.999993" height="1080" preserveAspectRatio="xMidYMid meet" version="1.0"><defs><clipPath id="6ff9f36c3c"><path d="M 105.878906 125.671875 L 119.875 125.671875 L 119.875 139.664062 L 105.878906 139.664062 Z M 105.878906 125.671875 " clip-rule="nonzero"/></clipPath><clipPath id="98e5c5aed4"><path d="M 112.878906 125.671875 C 109.011719 125.671875 105.878906 128.804688 105.878906 132.667969 C 105.878906 136.53125 109.011719 139.664062 112.878906 139.664062 C 116.742188 139.664062 119.875 136.53125 119.875 132.667969 C 119.875 128.804688 116.742188 125.671875 112.878906 125.671875 Z M 112.878906 125.671875 " clip-rule="nonzero"/></clipPath><clipPath id="c70a915947"><path d="M 0.878906 0.671875 L 14.875 0.671875 L 14.875 14.664062 L 0.878906 14.664062 Z M 0.878906 0.671875 " clip-rule="nonzero"/></clipPath><clipPath id="0190cb5b7c"><path d="M 7.878906 0.671875 C 4.011719 0.671875 0.878906 3.804688 0.878906 7.667969 C 0.878906 11.53125 4.011719 14.664062 7.878906 14.664062 C 11.742188 14.664062 14.875 11.53125 14.875 7.667969 C 14.875 3.804688 11.742188 0.671875 7.878906 0.671875 Z M 7.878906 0.671875 " clip-rule="nonzero"/></clipPath><clipPath id="3522a5f2ab"><rect x="0" width="15" y="0" height="15"/></clipPath></defs><path fill="#000000" d="M 466.898438 656.082031 C 462.324219 656.082031 458.59375 652.371094 458.59375 647.78125 C 458.59375 643.191406 462.308594 639.476562 466.898438 639.476562 C 487.671875 639.476562 504.5625 622.570312 504.5625 601.8125 L 504.5625 448.082031 C 504.5625 443.507812 508.273438 439.777344 512.863281 439.777344 C 517.453125 439.777344 521.167969 443.492188 521.167969 448.082031 L 521.167969 601.8125 C 521.152344 631.75 496.816406 656.082031 466.898438 656.082031 Z M 306.179688 656.082031 C 276.261719 656.082031 251.925781 631.734375 251.925781 601.828125 L 251.925781 457.175781 C 251.925781 452.605469 255.640625 448.875 260.230469 448.875 C 264.800781 448.875 268.53125 452.585938 268.53125 457.175781 L 268.53125 601.828125 C 268.53125 622.601562 285.421875 639.496094 306.195312 639.496094 C 310.769531 639.496094 314.5 643.207031 314.5 647.796875 C 314.5 652.386719 310.753906 656.082031 306.179688 656.082031 Z M 306.179688 656.082031 " fill-opacity="1" fill-rule="nonzero"/><path fill="#000000" d="M 519.34375 456.367188 L 292.375 456.367188 C 287.804688 456.367188 284.074219 452.65625 284.074219 448.066406 C 284.074219 443.476562 287.785156 439.761719 292.375 439.761719 L 519.34375 439.761719 C 523.140625 439.761719 526.214844 436.691406 526.214844 432.894531 L 526.214844 425.621094 C 526.214844 421.824219 523.140625 418.753906 519.34375 418.753906 L 330.96875 418.753906 C 326.394531 418.753906 322.667969 415.039062 322.667969 410.449219 C 322.667969 405.878906 326.378906 402.148438 330.96875 402.148438 L 519.34375 402.148438 C 532.289062 402.148438 542.800781 412.660156 542.800781 425.605469 L 542.800781 432.878906 C 542.800781 445.855469 532.289062 456.367188 519.34375 456.367188 Z M 519.34375 456.367188 " fill-opacity="1" fill-rule="nonzero"/><path fill="#000000" d="M 535.242188 537.433594 L 512.863281 537.433594 C 508.292969 537.433594 504.5625 533.722656 504.5625 529.132812 C 504.5625 524.542969 508.273438 520.828125 512.863281 520.828125 L 535.242188 520.828125 C 542.210938 520.828125 547.878906 515.160156 547.878906 508.191406 L 547.878906 506.757812 C 547.878906 499.785156 542.210938 494.117188 535.242188 494.117188 L 512.863281 494.117188 C 508.292969 494.117188 504.5625 490.40625 504.5625 485.8125 C 504.5625 481.222656 508.273438 477.511719 512.863281 477.511719 L 535.242188 477.511719 C 551.355469 477.511719 564.46875 490.625 564.46875 506.738281 L 564.46875 508.171875 C 564.46875 524.324219 551.355469 537.433594 535.242188 537.433594 Z M 535.242188 537.433594 " fill-opacity="1" fill-rule="nonzero"/><path fill="#000000" d="M 260.230469 537.433594 L 237.851562 537.433594 C 221.738281 537.433594 208.625 524.324219 208.625 508.207031 L 208.625 506.773438 C 208.625 490.65625 221.738281 477.546875 237.851562 477.546875 L 260.230469 477.546875 C 264.800781 477.546875 268.53125 481.257812 268.53125 485.847656 C 268.53125 490.4375 264.820312 494.152344 260.230469 494.152344 L 237.851562 494.152344 C 230.882812 494.152344 225.214844 499.820312 225.214844 506.789062 L 225.214844 508.222656 C 225.214844 515.195312 230.882812 520.863281 237.851562 520.863281 L 260.230469 520.863281 C 264.800781 520.863281 268.53125 524.578125 268.53125 529.167969 C 268.53125 533.757812 264.800781 537.433594 260.230469 537.433594 Z M 260.230469 537.433594 " fill-opacity="1" fill-rule="nonzero"/><path fill="#000000" d="M 482.085938 374.035156 C 479.992188 374.035156 477.933594 373.933594 475.890625 373.714844 C 461.261719 372.160156 449.71875 365.242188 443.375 354.257812 C 437.027344 343.253906 436.828125 329.804688 442.78125 316.355469 C 448.351562 303.816406 458.78125 292.644531 472.144531 284.933594 C 485.511719 277.207031 500.394531 273.761719 514.046875 275.214844 C 528.675781 276.765625 540.21875 283.6875 546.5625 294.671875 C 552.910156 305.671875 553.113281 319.125 547.15625 332.574219 C 541.585938 345.109375 531.15625 356.28125 517.792969 363.992188 C 506.417969 370.558594 493.949219 374.035156 482.085938 374.035156 Z M 457.734375 345.953125 C 465.613281 359.589844 489.308594 361.277344 509.488281 349.632812 C 519.851562 343.640625 527.832031 335.203125 531.984375 325.839844 C 535.746094 317.367188 535.816406 309.25 532.1875 302.957031 C 528.558594 296.664062 521.488281 292.679688 512.273438 291.683594 C 502.082031 290.605469 490.777344 293.304688 480.429688 299.277344 C 460.265625 310.957031 449.871094 332.320312 457.734375 345.953125 Z M 457.734375 345.953125 " fill-opacity="1" fill-rule="nonzero"/><path fill="#000000" d="M 543.15625 320.742188 C 540.136719 320.742188 537.214844 319.074219 535.765625 316.203125 C 533.6875 312.121094 535.324219 307.125 539.410156 305.050781 L 637.910156 255.03125 C 640.542969 253.699219 642.128906 251.894531 642.921875 249.34375 C 643.730469 246.710938 643.476562 244.382812 642.09375 241.988281 L 639.5625 237.617188 C 638.179688 235.238281 636.289062 233.835938 633.605469 233.230469 C 631.007812 232.640625 628.644531 233.109375 626.179688 234.730469 L 533.25 295.261719 C 529.417969 297.757812 524.273438 296.679688 521.773438 292.847656 C 519.277344 289.019531 520.359375 283.871094 524.1875 281.375 L 617.117188 220.84375 C 623.328125 216.792969 630.296875 215.492188 637.285156 217.0625 C 644.488281 218.699219 650.246094 222.9375 653.941406 229.347656 L 656.472656 233.71875 C 660.167969 240.113281 660.960938 247.21875 658.765625 254.289062 C 656.65625 261.105469 652.03125 266.488281 645.417969 269.863281 L 546.917969 319.882812 C 545.703125 320.4375 544.421875 320.742188 543.15625 320.742188 Z M 543.15625 320.742188 " fill-opacity="1" fill-rule="nonzero"/><path fill="#000000" d="M 613.914062 656.082031 L 159.164062 656.082031 C 154.59375 656.082031 150.863281 652.371094 150.863281 647.78125 C 150.863281 643.191406 154.574219 639.476562 159.164062 639.476562 L 613.914062 639.476562 C 618.484375 639.476562 622.214844 643.191406 622.214844 647.78125 C 622.214844 652.371094 618.503906 656.082031 613.914062 656.082031 Z M 613.914062 656.082031 " fill-opacity="1" fill-rule="nonzero"/><path fill="#000000" d="M 252.433594 465.816406 C 198.753906 465.816406 155.0625 422.144531 155.0625 368.449219 C 155.0625 314.769531 198.738281 271.078125 252.433594 271.078125 C 306.128906 271.078125 349.800781 314.753906 349.800781 368.449219 C 349.800781 422.144531 306.113281 465.816406 252.433594 465.816406 Z M 252.433594 287.667969 C 207.898438 287.667969 171.652344 323.898438 171.652344 368.449219 C 171.652344 413 207.882812 449.230469 252.433594 449.230469 C 296.984375 449.230469 333.214844 413 333.214844 368.449219 C 333.214844 323.898438 296.984375 287.667969 252.433594 287.667969 Z M 252.433594 287.667969 " fill-opacity="1" fill-rule="nonzero"/><path fill="#000000" d="M 252.433594 300.898438 C 247.859375 300.898438 244.128906 297.1875 244.128906 292.59375 L 244.128906 279.367188 C 244.128906 274.792969 247.84375 271.0625 252.433594 271.0625 C 257.007812 271.0625 260.734375 274.777344 260.734375 279.367188 L 260.734375 292.59375 C 260.71875 297.203125 257.007812 300.898438 252.433594 300.898438 Z M 252.433594 300.898438 " fill-opacity="1" fill-rule="nonzero"/><path fill="#000000" d="M 306.0625 323.121094 C 303.9375 323.121094 301.808594 322.3125 300.1875 320.691406 C 296.949219 317.453125 296.949219 312.203125 300.1875 308.964844 L 309.539062 299.617188 C 312.777344 296.375 318.027344 296.375 321.265625 299.617188 C 324.507812 302.855469 324.507812 308.105469 321.265625 311.34375 L 311.917969 320.691406 C 310.296875 322.3125 308.171875 323.121094 306.0625 323.121094 Z M 306.0625 323.121094 " fill-opacity="1" fill-rule="nonzero"/><path fill="#000000" d="M 341.5 376.75 L 328.269531 376.75 C 323.695312 376.75 319.96875 373.039062 319.96875 368.449219 C 319.96875 363.859375 323.679688 360.144531 328.269531 360.144531 L 341.5 360.144531 C 346.074219 360.144531 349.800781 363.859375 349.800781 368.449219 C 349.800781 373.039062 346.089844 376.75 341.5 376.75 Z M 341.5 376.75 " fill-opacity="1" fill-rule="nonzero"/><path fill="#000000" d="M 315.410156 439.730469 C 313.285156 439.730469 311.15625 438.917969 309.539062 437.296875 L 300.1875 427.949219 C 296.949219 424.710938 296.949219 419.460938 300.1875 416.222656 C 303.429688 412.980469 308.675781 412.980469 311.917969 416.222656 L 321.265625 425.570312 C 324.507812 428.8125 324.507812 434.058594 321.265625 437.296875 C 319.664062 438.917969 317.535156 439.730469 315.410156 439.730469 Z M 315.410156 439.730469 " fill-opacity="1" fill-rule="nonzero"/><path fill="#000000" d="M 252.433594 465.816406 C 247.859375 465.816406 244.128906 462.105469 244.128906 457.515625 L 244.128906 444.285156 C 244.128906 439.710938 247.84375 435.984375 252.433594 435.984375 C 257.007812 435.984375 260.734375 439.695312 260.734375 444.285156 L 260.734375 457.515625 C 260.71875 462.105469 257.007812 465.816406 252.433594 465.816406 Z M 252.433594 465.816406 " fill-opacity="1" fill-rule="nonzero"/><path fill="#000000" d="M 189.4375 439.730469 C 187.3125 439.730469 185.1875 438.917969 183.566406 437.296875 C 180.328125 434.058594 180.328125 428.8125 183.566406 425.570312 L 192.914062 416.222656 C 196.15625 412.980469 201.402344 412.980469 204.644531 416.222656 C 207.882812 419.460938 207.882812 424.710938 204.644531 427.949219 L 195.292969 437.296875 C 193.691406 438.917969 191.566406 439.730469 189.4375 439.730469 Z M 189.4375 439.730469 " fill-opacity="1" fill-rule="nonzero"/><path fill="#000000" d="M 176.597656 376.75 L 163.351562 376.75 C 158.777344 376.75 155.046875 373.039062 155.046875 368.449219 C 155.046875 363.859375 158.761719 360.144531 163.351562 360.144531 L 176.578125 360.144531 C 181.152344 360.144531 184.882812 363.859375 184.882812 368.449219 C 184.882812 373.039062 181.171875 376.75 176.597656 376.75 Z M 176.597656 376.75 " fill-opacity="1" fill-rule="nonzero"/><path fill="#000000" d="M 198.789062 323.121094 C 196.660156 323.121094 194.535156 322.3125 192.914062 320.691406 L 183.566406 311.34375 C 180.328125 308.105469 180.328125 302.855469 183.566406 299.617188 C 186.804688 296.375 192.054688 296.375 195.292969 299.617188 L 204.644531 308.964844 C 207.882812 312.203125 207.882812 317.453125 204.644531 320.691406 C 203.058594 322.3125 200.929688 323.121094 198.789062 323.121094 Z M 198.789062 323.121094 " fill-opacity="1" fill-rule="nonzero"/><path fill="#000000" d="M 272.75 397.070312 C 270.625 397.070312 268.5 396.257812 266.878906 394.640625 L 246.5625 374.320312 C 245.007812 372.769531 244.128906 370.660156 244.128906 368.449219 L 244.128906 325.6875 C 244.128906 321.113281 247.84375 317.386719 252.433594 317.386719 C 257.007812 317.386719 260.734375 321.097656 260.734375 325.6875 L 260.734375 365.007812 L 278.625 382.894531 C 281.863281 386.132812 281.863281 391.382812 278.625 394.621094 C 277.003906 396.257812 274.875 397.070312 272.75 397.070312 Z M 272.75 397.070312 " fill-opacity="1" fill-rule="nonzero"/><path fill="#000000" d="M 400.816406 239.742188 C 398.722656 239.742188 396.664062 238.96875 395.042969 237.398438 C 391.753906 234.207031 391.667969 228.960938 394.875 225.667969 C 400.867188 219.492188 400.867188 209.453125 394.875 203.277344 C 382.707031 190.722656 382.707031 170.320312 394.875 157.78125 C 398.0625 154.492188 403.3125 154.40625 406.601562 157.613281 C 409.894531 160.800781 409.976562 166.050781 406.773438 169.339844 C 400.78125 175.515625 400.78125 185.558594 406.773438 191.734375 C 418.9375 204.289062 418.9375 224.691406 406.773438 237.230469 C 405.152344 238.898438 402.976562 239.742188 400.816406 239.742188 Z M 400.816406 239.742188 " fill-opacity="1" fill-rule="nonzero"/><path fill="#000000" d="M 441.011719 285.695312 C 438.917969 285.695312 436.84375 284.917969 435.238281 283.347656 C 431.949219 280.160156 431.863281 274.910156 435.070312 271.621094 C 441.0625 265.445312 441.0625 255.402344 435.070312 249.226562 C 422.90625 236.671875 422.90625 216.269531 435.070312 203.730469 C 438.261719 200.441406 443.507812 200.355469 446.800781 203.5625 C 450.089844 206.753906 450.175781 212 446.96875 215.292969 C 440.976562 221.46875 440.976562 231.507812 446.96875 237.683594 C 459.136719 250.238281 459.136719 270.640625 446.96875 283.179688 C 445.347656 284.851562 443.1875 285.695312 441.011719 285.695312 Z M 441.011719 285.695312 " fill-opacity="1" fill-rule="nonzero"/><path fill="#000000" d="M 360.617188 285.695312 C 358.527344 285.695312 356.449219 284.917969 354.847656 283.347656 C 351.558594 280.160156 351.472656 274.910156 354.679688 271.621094 C 360.667969 265.445312 360.667969 255.402344 354.679688 249.226562 C 342.511719 236.671875 342.511719 216.269531 354.679688 203.730469 C 357.867188 200.441406 363.117188 200.355469 366.40625 203.5625 C 369.699219 206.753906 369.78125 212 366.574219 215.292969 C 360.585938 221.46875 360.585938 231.507812 366.574219 237.683594 C 378.742188 250.238281 378.742188 270.640625 366.574219 283.179688 C 364.9375 284.851562 362.777344 285.695312 360.617188 285.695312 Z M 360.617188 285.695312 " fill-opacity="1" fill-rule="nonzero"/><path fill="#000000" d="M 512.863281 597.476562 L 260.230469 597.476562 C 255.65625 597.476562 251.925781 593.765625 251.925781 589.171875 C 251.925781 584.582031 255.640625 580.871094 260.230469 580.871094 L 512.863281 580.871094 C 517.4375 580.871094 521.167969 584.582031 521.167969 589.171875 C 521.167969 593.765625 517.4375 597.476562 512.863281 597.476562 Z M 512.863281 597.476562 " fill-opacity="1" fill-rule="nonzero"/><path fill="#000000" d="M 405 810 C 350.207031 810 297.203125 799.402344 247.421875 778.191406 C 199.109375 757.875 155.824219 728.5625 118.699219 691.300781 C 81.4375 654.042969 52.277344 610.738281 31.808594 562.578125 C 10.597656 512.664062 0 459.640625 0 405 C 0 350.359375 10.597656 297.203125 31.808594 247.421875 C 52.125 199.109375 81.4375 155.824219 118.699219 118.699219 C 155.957031 81.574219 199.261719 52.277344 247.421875 31.808594 C 297.335938 10.597656 350.359375 0 405 0 C 459.640625 0 512.796875 10.597656 562.578125 31.808594 C 610.890625 52.125 654.175781 81.4375 691.300781 118.699219 C 728.5625 155.957031 757.722656 199.261719 778.191406 247.421875 C 799.402344 297.335938 810 350.359375 810 405 C 810 459.640625 799.402344 512.796875 778.191406 562.578125 C 757.875 610.890625 728.5625 654.175781 691.300781 691.300781 C 654.042969 728.5625 610.738281 757.722656 562.578125 778.191406 C 512.796875 799.402344 459.792969 810 405 810 Z M 405 14.730469 C 189.980469 14.730469 14.867188 189.84375 14.867188 404.863281 C 14.867188 619.886719 189.980469 794.980469 405 794.980469 C 620.019531 794.980469 795.132812 620.019531 795.132812 404.847656 C 795.132812 189.675781 620.019531 14.730469 405 14.730469 Z M 405 14.730469 " fill-opacity="1" fill-rule="nonzero"/><g clip-path="url(#6ff9f36c3c)"><g clip-path="url(#98e5c5aed4)"><g transform="matrix(1, 0, 0, 1, 105, 125)"><g clip-path="url(#3522a5f2ab)"><g clip-path="url(#c70a915947)"><g clip-path="url(#0190cb5b7c)"><path fill="#2f2f2f" d="M 0.878906 0.671875 L 14.875 0.671875 L 14.875 14.664062 L 0.878906 14.664062 Z M 0.878906 0.671875 " fill-opacity="1" fill-rule="nonzero"/></g></g></g></g></g></g></svg>