<svg xmlns="http://www.w3.org/2000/svg" xmlns:xlink="http://www.w3.org/1999/xlink" width="1080" zoomAndPan="magnify" viewBox="0 0 810 809.999993" height="1080" preserveAspectRatio="xMidYMid meet" version="1.0"><defs><clipPath id="a6c90095fc"><path d="M 255 560 L 715.667969 560 L 715.667969 810 L 255 810 Z M 255 560 " clip-rule="nonzero"/></clipPath><clipPath id="77660b49c6"><path d="M 553.121094 522.011719 L 576.621094 522.011719 L 576.621094 545.511719 L 553.121094 545.511719 Z M 553.121094 522.011719 " clip-rule="nonzero"/></clipPath><clipPath id="7339f83fe8"><path d="M 564.871094 522.011719 C 558.382812 522.011719 553.121094 527.273438 553.121094 533.761719 C 553.121094 540.25 558.382812 545.511719 564.871094 545.511719 C 571.363281 545.511719 576.621094 540.25 576.621094 533.761719 C 576.621094 527.273438 571.363281 522.011719 564.871094 522.011719 Z M 564.871094 522.011719 " clip-rule="nonzero"/></clipPath><clipPath id="e363d871d5"><path d="M 0.121094 0.0117188 L 23.621094 0.0117188 L 23.621094 23.511719 L 0.121094 23.511719 Z M 0.121094 0.0117188 " clip-rule="nonzero"/></clipPath><clipPath id="294844ef33"><path d="M 11.871094 0.0117188 C 5.382812 0.0117188 0.121094 5.273438 0.121094 11.761719 C 0.121094 18.25 5.382812 23.511719 11.871094 23.511719 C 18.363281 23.511719 23.621094 18.25 23.621094 11.761719 C 23.621094 5.273438 18.363281 0.0117188 11.871094 0.0117188 Z M 11.871094 0.0117188 " clip-rule="nonzero"/></clipPath><clipPath id="cb0c81f87c"><rect x="0" width="24" y="0" height="24"/></clipPath></defs><path fill="#000000" d="M 306.074219 271.890625 C 311.753906 271.890625 316.800781 268.738281 318.695312 263.691406 C 319.328125 261.167969 337.632812 206.914062 301.023438 123.015625 C 298.5 116.707031 290.925781 113.550781 284.613281 116.707031 C 278.300781 119.230469 275.144531 126.800781 278.300781 133.109375 C 301.023438 185.46875 300.390625 224.578125 297.867188 242.875 C 281.457031 232.148438 259.363281 203.132812 246.742188 181.683594 C 242.953125 175.375 235.378906 173.480469 229.699219 177.265625 C 223.386719 181.050781 221.492188 188.621094 225.28125 194.300781 C 231.59375 206.914062 270.726562 270 306.074219 271.890625 Z M 306.074219 271.890625 " fill-opacity="1" fill-rule="nonzero"/><path fill="#000000" d="M 400.121094 167.804688 C 403.90625 171.589844 410.21875 171.589844 415.269531 169.066406 C 417.792969 167.804688 471.441406 131.847656 481.542969 14.507812 C 482.171875 7.570312 477.125 1.261719 470.179688 0.632812 C 463.238281 0 456.925781 5.046875 456.292969 11.984375 C 449.984375 90.210938 422.210938 127.429688 408.957031 141.308594 C 367.296875 97.148438 355.304688 12.617188 355.304688 11.355469 C 354.042969 4.414062 347.730469 0 340.789062 0.632812 C 333.84375 1.890625 328.796875 8.199219 330.058594 15.140625 C 330.6875 19.554688 345.207031 120.492188 400.121094 167.804688 Z M 400.121094 167.804688 " fill-opacity="1" fill-rule="nonzero"/><path fill="#000000" d="M 455.03125 208.175781 C 458.1875 201.871094 455.03125 194.300781 448.71875 191.144531 C 442.410156 187.992188 434.835938 191.144531 431.679688 197.453125 C 425.996094 208.808594 416.53125 221.425781 411.480469 226.472656 C 404.539062 222.054688 398.855469 210.070312 393.175781 200.609375 C 389.390625 193.667969 383.078125 186.730469 374.242188 191.144531 C 371.085938 193.039062 368.558594 196.191406 367.929688 199.976562 C 366.667969 206.285156 371.714844 213.222656 374.242188 218.269531 C 378.027344 225.210938 381.816406 231.519531 386.234375 237.195312 C 391.914062 244.765625 401.382812 252.335938 411.480469 252.335938 C 433.570312 252.96875 455.03125 208.808594 455.03125 208.175781 Z M 455.03125 208.175781 " fill-opacity="1" fill-rule="nonzero"/><path fill="#000000" d="M 293.449219 538.738281 C 301.652344 481.960938 300.390625 369.042969 247.371094 309.742188 C 224.019531 283.878906 193.722656 270.632812 157.742188 271.894531 C 150.800781 271.894531 145.121094 277.570312 145.75 285.140625 C 145.75 292.078125 151.433594 297.125 158.375 297.125 C 158.375 297.125 158.375 297.125 159.007812 297.125 C 188.039062 296.496094 210.761719 305.957031 229.066406 326.777344 C 270.09375 372.828125 278.300781 467.453125 268.832031 535.585938 C 261.257812 589.207031 249.265625 648.503906 198.140625 668.691406 C 122.398438 698.972656 98.410156 757.007812 97.78125 758.902344 C 95.257812 765.210938 98.410156 772.148438 104.722656 775.304688 C 108.511719 777.195312 112.929688 777.195312 116.714844 774.671875 C 155.21875 752.59375 187.410156 741.871094 218.335938 739.347656 C 225.28125 738.714844 230.328125 733.039062 230.328125 726.097656 C 229.699219 719.160156 224.019531 714.113281 217.074219 714.113281 C 194.984375 715.375 172.890625 721.050781 148.90625 731.144531 C 162.160156 717.265625 181.730469 702.125 208.871094 691.402344 C 267.570312 668.0625 284.613281 604.347656 293.449219 538.738281 Z M 293.449219 538.738281 " fill-opacity="1" fill-rule="nonzero"/><g clip-path="url(#a6c90095fc)"><path fill="#000000" d="M 706.875 737.453125 C 602.097656 696.449219 577.484375 679.414062 559.808594 667.429688 C 554.761719 664.277344 549.710938 655.445312 547.816406 645.980469 C 541.503906 620.746094 536.457031 595.515625 531.40625 570.910156 C 530.144531 563.972656 523.832031 559.554688 516.890625 560.816406 C 509.945312 562.078125 505.527344 568.386719 506.789062 575.328125 C 511.207031 600.5625 516.890625 626.425781 523.199219 652.289062 C 524.464844 657.96875 530.773438 678.152344 545.921875 688.878906 C 562.335938 700.234375 584.425781 715.375 660.800781 746.914062 C 624.820312 751.960938 561.703125 753.855469 470.179688 733.039062 C 460.714844 730.515625 451.875 740.609375 455.664062 750.070312 L 468.289062 782.875 C 451.246094 780.351562 421.578125 773.410156 380.550781 753.855469 C 378.660156 753.222656 376.765625 752.59375 374.871094 752.59375 C 372.976562 752.59375 331.949219 752.59375 291.554688 770.257812 C 288.398438 762.6875 283.980469 752.59375 278.929688 743.761719 C 275.777344 737.453125 268.203125 735.5625 261.890625 738.714844 C 255.578125 741.871094 253.683594 749.4375 256.839844 755.746094 C 265.046875 771.519531 273.25 791.707031 273.25 792.335938 C 275.777344 799.277344 284.613281 802.429688 290.925781 798.644531 C 323.746094 780.980469 362.246094 778.457031 372.347656 778.457031 C 432.941406 806.847656 470.179688 810 483.4375 810 C 492.902344 810 503.003906 803.691406 499.214844 792.96875 L 487.855469 763.949219 C 633.027344 792.96875 704.351562 764.578125 707.507812 763.316406 C 712.554688 761.425781 715.082031 756.378906 715.082031 751.332031 C 715.082031 743.761719 711.925781 739.347656 706.875 737.453125 Z M 706.875 737.453125 " fill-opacity="1" fill-rule="nonzero"/></g><path fill="#000000" d="M 304.808594 645.351562 C 303.546875 649.136719 301.652344 655.445312 295.972656 660.492188 C 290.925781 665.539062 290.925781 673.109375 295.972656 678.152344 C 301.023438 683.199219 308.597656 683.199219 313.648438 678.152344 C 323.113281 669.324219 327.53125 658.597656 329.425781 651.660156 C 330.058594 650.398438 330.6875 649.136719 331.320312 647.875 L 342.679688 637.148438 C 349.625 630.210938 354.042969 620.746094 354.671875 611.285156 C 354.671875 611.285156 354.671875 461.777344 354.671875 461.777344 C 354.671875 460.515625 354.671875 459.882812 355.304688 458.621094 C 355.304688 458.621094 366.035156 439.066406 366.035156 439.066406 C 367.929688 434.648438 368.558594 428.972656 367.929688 423.925781 C 367.929688 423.925781 356.566406 363.996094 356.566406 363.996094 C 355.304688 357.054688 348.363281 352.640625 342.050781 353.902344 C 335.105469 355.164062 330.6875 362.101562 331.949219 368.410156 L 343.3125 426.449219 C 343.3125 427.078125 343.3125 427.710938 343.3125 427.710938 L 333.84375 445.375 C 331.320312 449.789062 330.058594 455.46875 330.058594 460.515625 L 330.058594 609.394531 C 330.058594 612.546875 328.164062 615.699219 325.640625 618.222656 L 314.277344 628.949219 C 309.226562 633.996094 306.074219 639.671875 304.808594 645.351562 Z M 304.808594 645.351562 " fill-opacity="1" fill-rule="nonzero"/><path fill="#000000" d="M 405.800781 486.378906 L 405.800781 498.996094 C 405.800781 505.933594 411.480469 511.613281 418.421875 511.613281 C 425.367188 511.613281 431.046875 505.933594 431.046875 498.996094 L 431.046875 486.378906 C 431.046875 479.4375 425.367188 473.761719 418.421875 473.761719 C 411.480469 473.761719 405.800781 479.4375 405.800781 486.378906 Z M 405.800781 486.378906 " fill-opacity="1" fill-rule="nonzero"/><path fill="#000000" d="M 456.292969 599.929688 C 449.351562 599.929688 443.671875 605.609375 443.671875 612.546875 L 443.671875 625.164062 C 443.671875 632.101562 449.351562 637.78125 456.292969 637.78125 C 463.238281 637.78125 468.917969 632.101562 468.917969 625.164062 L 468.917969 612.546875 C 468.917969 605.609375 463.238281 599.929688 456.292969 599.929688 Z M 456.292969 599.929688 " fill-opacity="1" fill-rule="nonzero"/><path fill="#000000" d="M 468.917969 536.847656 C 468.917969 529.90625 463.238281 524.230469 456.292969 524.230469 C 449.351562 524.230469 443.671875 529.90625 443.671875 536.847656 L 443.671875 562.078125 C 443.671875 569.019531 449.351562 574.695312 456.292969 574.695312 C 463.238281 574.695312 468.917969 569.019531 468.917969 562.078125 Z M 468.917969 536.847656 " fill-opacity="1" fill-rule="nonzero"/><path fill="#000000" d="M 563.597656 517.921875 C 556.652344 517.921875 550.972656 523.597656 550.972656 530.539062 L 550.972656 543.152344 C 550.972656 550.09375 556.652344 555.769531 563.597656 555.769531 C 570.539062 555.769531 576.21875 550.09375 576.21875 543.152344 L 576.21875 530.539062 C 576.21875 523.597656 570.539062 517.921875 563.597656 517.921875 Z M 563.597656 517.921875 " fill-opacity="1" fill-rule="nonzero"/><path fill="#000000" d="M 494.167969 498.996094 L 494.167969 524.230469 C 494.167969 531.167969 499.847656 536.847656 506.789062 536.847656 C 513.734375 536.847656 519.414062 531.167969 519.414062 524.230469 L 519.414062 498.996094 C 519.414062 492.054688 513.734375 486.378906 506.789062 486.378906 C 499.847656 486.378906 494.167969 492.054688 494.167969 498.996094 Z M 494.167969 498.996094 " fill-opacity="1" fill-rule="nonzero"/><path fill="#000000" d="M 521.308594 249.8125 C 537.71875 126.800781 573.695312 58.039062 574.328125 56.777344 C 577.484375 50.46875 574.957031 42.898438 569.277344 39.742188 C 562.964844 36.589844 555.390625 38.480469 552.234375 44.789062 C 550.339844 48.574219 513.101562 119.859375 496.058594 247.921875 C 499.214844 246.660156 503.003906 246.660156 506.789062 246.660156 C 511.839844 246.660156 516.890625 247.921875 521.308594 249.8125 Z M 521.308594 249.8125 " fill-opacity="1" fill-rule="nonzero"/><path fill="#000000" d="M 451.875 428.339844 C 463.238281 449.160156 483.4375 461.144531 506.789062 461.144531 C 529.511719 461.144531 550.339844 448.527344 561.703125 428.339844 C 573.0625 408.152344 573.0625 383.550781 561.703125 363.363281 L 518.152344 278.832031 C 516.257812 274.414062 511.839844 271.894531 506.789062 271.894531 C 502.371094 271.894531 497.953125 274.414062 495.429688 278.832031 L 451.875 363.363281 C 441.144531 383.550781 441.144531 407.523438 451.875 428.339844 Z M 473.96875 375.351562 C 473.96875 375.351562 473.96875 374.71875 473.96875 375.351562 L 506.789062 312.265625 L 539.613281 375.351562 C 546.554688 387.96875 546.554688 403.109375 539.613281 416.355469 C 532.667969 428.972656 520.675781 436.542969 506.789062 436.542969 C 492.902344 436.542969 480.910156 428.972656 473.96875 416.355469 C 467.023438 403.109375 467.023438 387.96875 473.96875 375.351562 Z M 473.96875 375.351562 " fill-opacity="1" fill-rule="nonzero"/><g clip-path="url(#77660b49c6)"><g clip-path="url(#7339f83fe8)"><g transform="matrix(1, 0, 0, 1, 553, 522)"><g clip-path="url(#cb0c81f87c)"><g clip-path="url(#e363d871d5)"><g clip-path="url(#294844ef33)"><path fill="#000000" d="M 0.121094 0.0117188 L 23.621094 0.0117188 L 23.621094 23.511719 L 0.121094 23.511719 Z M 0.121094 0.0117188 " fill-opacity="1" fill-rule="nonzero"/></g></g></g></g></g></g></svg>