<svg xmlns="http://www.w3.org/2000/svg" xmlns:xlink="http://www.w3.org/1999/xlink" width="1080" zoomAndPan="magnify" viewBox="0 0 810 809.999993" height="1080" preserveAspectRatio="xMidYMid meet" version="1.0"><defs><clipPath id="768ababc9a"><path d="M 731 392 L 759.75 392 L 759.75 418 L 731 418 Z M 731 392 " clip-rule="nonzero"/></clipPath><clipPath id="e206271051"><path d="M 218.984375 459.742188 L 236.359375 459.742188 L 236.359375 477.121094 L 218.984375 477.121094 Z M 218.984375 459.742188 " clip-rule="nonzero"/></clipPath><clipPath id="e6aa086ebd"><path d="M 227.671875 459.742188 C 222.871094 459.742188 218.984375 463.632812 218.984375 468.433594 C 218.984375 473.230469 222.871094 477.121094 227.671875 477.121094 C 232.46875 477.121094 236.359375 473.230469 236.359375 468.433594 C 236.359375 463.632812 232.46875 459.742188 227.671875 459.742188 Z M 227.671875 459.742188 " clip-rule="nonzero"/></clipPath><clipPath id="3cbbbd1425"><path d="M 0.984375 0.742188 L 18.359375 0.742188 L 18.359375 18.121094 L 0.984375 18.121094 Z M 0.984375 0.742188 " clip-rule="nonzero"/></clipPath><clipPath id="79ec129735"><path d="M 9.671875 0.742188 C 4.871094 0.742188 0.984375 4.632812 0.984375 9.433594 C 0.984375 14.230469 4.871094 18.121094 9.671875 18.121094 C 14.46875 18.121094 18.359375 14.230469 18.359375 9.433594 C 18.359375 4.632812 14.46875 0.742188 9.671875 0.742188 Z M 9.671875 0.742188 " clip-rule="nonzero"/></clipPath><clipPath id="55a5bc1e14"><rect x="0" width="19" y="0" height="19"/></clipPath></defs><path fill="#000000" d="M 12.664062 417.65625 L 152.582031 417.65625 C 152.582031 413.226562 151.949219 409.429688 151.949219 405 C 151.949219 400.570312 151.949219 396.773438 152.582031 392.34375 L 12.664062 392.34375 C 5.699219 392.34375 0 398.039062 0 405 C 0 411.960938 5.699219 417.65625 12.664062 417.65625 Z M 12.664062 417.65625 " fill-opacity="1" fill-rule="nonzero"/><path fill="#000000" d="M 100.667969 346.78125 L 155.75 361.335938 C 157.648438 353.109375 159.546875 344.882812 162.078125 336.65625 L 107.632812 322.101562 C 100.667969 320.203125 93.703125 324 92.4375 330.960938 C 89.902344 337.921875 94.335938 344.882812 100.667969 346.78125 Z M 100.667969 346.78125 " fill-opacity="1" fill-rule="nonzero"/><path fill="#000000" d="M 53.816406 238.570312 L 174.742188 308.179688 C 178.542969 300.585938 182.972656 292.992188 187.40625 286.03125 L 66.476562 216.421875 C 60.148438 212.625 52.550781 215.15625 49.382812 220.851562 C 45.585938 227.8125 47.484375 235.40625 53.816406 238.570312 Z M 53.816406 238.570312 " fill-opacity="1" fill-rule="nonzero"/><path fill="#000000" d="M 183.605469 203.765625 C 178.542969 198.703125 170.945312 198.703125 165.878906 203.765625 C 160.8125 208.828125 160.8125 216.421875 165.878906 221.484375 L 206.398438 261.984375 C 212.097656 255.65625 217.796875 249.960938 224.125 244.265625 Z M 183.605469 203.765625 " fill-opacity="1" fill-rule="nonzero"/><path fill="#000000" d="M 183.605469 87.328125 C 177.273438 91.125 175.375 98.71875 179.175781 104.414062 L 248.816406 225.28125 C 255.78125 220.851562 263.378906 216.421875 270.976562 212.625 L 201.332031 91.757812 C 197.535156 85.429688 189.9375 83.53125 183.605469 87.328125 Z M 183.605469 87.328125 " fill-opacity="1" fill-rule="nonzero"/><path fill="#000000" d="M 323.527344 194.273438 L 308.964844 139.21875 C 307.066406 132.257812 300.101562 128.460938 293.769531 130.359375 C 286.804688 132.257812 283.007812 139.21875 284.90625 145.546875 L 299.46875 201.234375 C 307.066406 198.070312 315.296875 196.171875 323.527344 194.273438 Z M 323.527344 194.273438 " fill-opacity="1" fill-rule="nonzero"/><path fill="#000000" d="M 559.050781 718.242188 C 561.582031 722.039062 565.378906 724.570312 569.8125 724.570312 C 571.710938 724.570312 574.246094 723.9375 576.144531 722.671875 C 582.476562 718.875 584.375 711.28125 580.574219 705.585938 L 578.675781 703.054688 C 574.878906 696.726562 567.28125 694.828125 561.582031 698.625 C 555.25 702.421875 553.351562 710.015625 557.148438 715.710938 Z M 559.050781 718.242188 " fill-opacity="1" fill-rule="nonzero"/><path fill="#000000" d="M 552.71875 657.492188 L 549.550781 651.796875 C 545.753906 645.46875 538.15625 643.570312 532.457031 647.367188 C 526.125 651.164062 524.226562 658.757812 528.027344 664.453125 L 531.191406 670.148438 C 534.359375 675.84375 542.589844 678.375 548.285156 674.578125 C 554.617188 671.414062 556.515625 663.1875 552.71875 657.492188 Z M 552.71875 657.492188 " fill-opacity="1" fill-rule="nonzero"/><path fill="#000000" d="M 501.433594 618.890625 C 504.601562 624.585938 512.832031 627.117188 518.53125 623.320312 C 524.859375 619.523438 526.761719 611.929688 522.960938 606.234375 L 519.796875 600.539062 C 515.996094 594.210938 508.398438 592.3125 502.703125 596.109375 C 496.371094 599.90625 494.46875 607.5 498.269531 613.195312 Z M 501.433594 618.890625 " fill-opacity="1" fill-rule="nonzero"/><path fill="#000000" d="M 690.738281 591.679688 L 693.273438 593.578125 C 698.96875 596.742188 707.199219 594.84375 710.367188 589.148438 C 714.164062 582.820312 711.632812 575.226562 705.933594 572.0625 L 703.402344 570.164062 C 697.070312 566.367188 689.472656 568.898438 686.308594 574.59375 C 682.507812 580.289062 684.40625 587.882812 690.738281 591.679688 Z M 690.738281 591.679688 " fill-opacity="1" fill-rule="nonzero"/><path fill="#000000" d="M 610.964844 530.929688 C 614.765625 524.601562 612.230469 517.007812 606.535156 513.84375 L 600.835938 510.679688 C 594.503906 506.882812 586.90625 509.414062 583.742188 515.109375 C 579.941406 521.4375 582.476562 529.03125 588.171875 532.195312 L 593.871094 535.359375 C 599.570312 539.15625 607.800781 537.257812 610.964844 530.929688 Z M 610.964844 530.929688 " fill-opacity="1" fill-rule="nonzero"/><path fill="#000000" d="M 662.25 560.671875 C 666.046875 554.34375 663.515625 546.75 657.816406 543.585938 L 652.117188 540.421875 C 645.789062 536.625 638.191406 539.15625 635.023438 544.851562 C 631.226562 551.179688 633.757812 558.773438 639.457031 561.9375 L 645.15625 565.101562 C 650.851562 568.898438 659.082031 566.367188 662.25 560.671875 Z M 662.25 560.671875 " fill-opacity="1" fill-rule="nonzero"/><g clip-path="url(#768ababc9a)"><path fill="#000000" d="M 743.921875 417.65625 L 747.085938 417.65625 C 754.050781 417.65625 759.75 411.960938 759.75 405 C 759.75 398.039062 754.050781 392.34375 747.085938 392.34375 L 743.921875 392.34375 C 736.957031 392.34375 731.257812 398.039062 731.257812 405 C 731.257812 411.960938 736.957031 417.65625 743.921875 417.65625 Z M 743.921875 417.65625 " fill-opacity="1" fill-rule="nonzero"/></g><path fill="#000000" d="M 704.035156 405 C 704.035156 398.039062 698.335938 392.34375 691.371094 392.34375 L 685.042969 392.34375 C 678.078125 392.34375 672.378906 398.039062 672.378906 405 C 672.378906 411.960938 678.078125 417.65625 685.042969 417.65625 L 691.371094 417.65625 C 698.335938 417.65625 704.035156 411.960938 704.035156 405 Z M 704.035156 405 " fill-opacity="1" fill-rule="nonzero"/><path fill="#000000" d="M 625.527344 392.34375 C 618.5625 392.34375 612.863281 398.039062 612.863281 405 C 612.863281 411.960938 618.5625 417.65625 625.527344 417.65625 L 631.859375 417.65625 C 638.824219 417.65625 644.519531 411.960938 644.519531 405 C 644.519531 398.039062 638.824219 392.34375 631.859375 392.34375 Z M 625.527344 392.34375 " fill-opacity="1" fill-rule="nonzero"/><path fill="#000000" d="M 710.367188 221.484375 C 706.566406 215.15625 698.96875 213.257812 693.273438 217.054688 L 690.738281 218.953125 C 684.40625 222.75 682.507812 230.34375 686.308594 236.039062 C 688.839844 239.835938 692.640625 242.367188 697.070312 242.367188 C 700.234375 242.367188 703.402344 240.46875 705.933594 239.203125 C 712.265625 235.40625 714.164062 227.8125 710.367188 221.484375 Z M 710.367188 221.484375 " fill-opacity="1" fill-rule="nonzero"/><path fill="#000000" d="M 645.15625 244.898438 L 639.457031 248.0625 C 633.125 251.859375 631.226562 259.453125 635.023438 265.148438 C 637.558594 268.945312 641.355469 271.476562 645.789062 271.476562 C 650.21875 271.476562 654.019531 268.945312 657.816406 266.414062 C 664.148438 262.617188 666.046875 255.023438 662.25 249.328125 C 658.449219 243 650.851562 241.101562 645.15625 244.898438 Z M 645.15625 244.898438 " fill-opacity="1" fill-rule="nonzero"/><path fill="#000000" d="M 593.871094 274.007812 L 588.171875 277.171875 C 581.84375 280.96875 579.941406 288.5625 583.742188 294.257812 C 586.90625 299.953125 595.136719 302.484375 600.835938 298.6875 L 606.535156 295.523438 C 612.863281 291.726562 614.765625 284.132812 610.964844 278.4375 C 607.800781 272.742188 599.570312 270.84375 593.871094 274.007812 Z M 593.871094 274.007812 " fill-opacity="1" fill-rule="nonzero"/><path fill="#000000" d="M 562.214844 112.007812 C 567.914062 115.171875 576.144531 113.273438 579.308594 107.578125 L 581.207031 105.046875 C 585.007812 98.71875 582.476562 91.125 576.777344 87.960938 C 570.445312 84.164062 562.847656 86.695312 559.683594 92.390625 L 557.148438 94.289062 C 553.984375 100.617188 555.882812 108.210938 562.214844 112.007812 Z M 562.214844 112.007812 " fill-opacity="1" fill-rule="nonzero"/><path fill="#000000" d="M 518.53125 186.679688 C 512.199219 182.882812 504.601562 185.414062 501.433594 191.109375 L 498.269531 196.804688 C 494.46875 203.132812 497.003906 210.726562 502.703125 213.890625 C 508.398438 217.054688 516.628906 215.15625 519.796875 209.460938 L 522.960938 203.765625 C 526.761719 198.070312 524.859375 189.84375 518.53125 186.679688 Z M 518.53125 186.679688 " fill-opacity="1" fill-rule="nonzero"/><path fill="#000000" d="M 548.285156 135.421875 C 541.953125 131.625 534.359375 134.15625 531.191406 139.851562 L 527.394531 145.546875 C 523.59375 151.875 526.125 159.46875 531.824219 162.632812 C 537.523438 165.796875 545.753906 163.898438 548.917969 158.203125 L 552.085938 152.507812 C 556.515625 146.8125 554.617188 139.21875 548.285156 135.421875 Z M 548.285156 135.421875 " fill-opacity="1" fill-rule="nonzero"/><path fill="#000000" d="M 392.539062 12.65625 C 392.539062 5.695312 386.839844 0 379.875 0 C 372.910156 0 367.210938 5.695312 367.210938 12.65625 L 367.210938 797.34375 C 367.210938 804.304688 372.910156 810 379.875 810 C 386.839844 810 392.539062 804.304688 392.539062 797.34375 Z M 392.539062 12.65625 " fill-opacity="1" fill-rule="nonzero"/><path fill="#000000" d="M 450.785156 671.414062 C 452.683594 677.742188 459.648438 682.171875 465.980469 680.273438 C 472.945312 678.375 476.742188 671.414062 474.84375 665.085938 L 474.210938 661.921875 C 472.3125 654.960938 465.347656 651.164062 459.015625 653.0625 C 452.050781 654.960938 448.253906 661.921875 450.152344 668.25 C 450.152344 668.25 450.785156 671.414062 450.785156 671.414062 Z M 450.785156 671.414062 " fill-opacity="1" fill-rule="nonzero"/><path fill="#000000" d="M 454.582031 636.609375 C 461.546875 634.710938 465.347656 627.75 463.449219 621.421875 L 462.179688 616.359375 C 460.28125 609.398438 453.316406 605.601562 446.984375 607.5 C 440.023438 609.398438 436.222656 616.359375 438.121094 622.6875 L 439.390625 627.75 C 440.65625 634.710938 448.253906 638.507812 454.582031 636.609375 Z M 454.582031 636.609375 " fill-opacity="1" fill-rule="nonzero"/><path fill="#000000" d="M 593.871094 588.515625 L 591.339844 585.984375 C 586.273438 580.921875 578.675781 580.921875 573.609375 585.984375 C 568.546875 591.046875 568.546875 598.640625 573.609375 603.703125 L 576.144531 606.234375 C 581.207031 611.296875 589.4375 611.296875 593.871094 606.234375 C 598.9375 601.171875 598.9375 593.578125 593.871094 588.515625 Z M 593.871094 588.515625 " fill-opacity="1" fill-rule="nonzero"/><path fill="#000000" d="M 562.214844 556.875 L 558.417969 553.078125 C 553.351562 548.015625 545.753906 548.015625 540.6875 553.078125 C 535.625 558.140625 535.625 565.734375 540.6875 570.796875 L 544.488281 574.59375 C 549.550781 579.65625 557.78125 579.65625 562.214844 574.59375 C 567.28125 569.53125 567.28125 561.9375 562.214844 556.875 Z M 562.214844 556.875 " fill-opacity="1" fill-rule="nonzero"/><path fill="#000000" d="M 659.082031 463.21875 L 655.917969 462.585938 C 648.953125 460.6875 641.988281 464.484375 640.722656 471.445312 C 638.824219 478.40625 642.621094 485.367188 649.585938 486.632812 C 649.585938 486.632812 654.652344 487.898438 655.917969 487.898438 C 661.617188 487.898438 666.679688 484.101562 667.945312 478.40625 C 669.847656 472.078125 665.414062 465.117188 659.082031 463.21875 Z M 659.082031 463.21875 " fill-opacity="1" fill-rule="nonzero"/><path fill="#000000" d="M 624.261719 467.015625 C 626.160156 460.054688 622.363281 453.09375 615.398438 451.828125 L 610.332031 450.5625 C 603.367188 448.664062 596.402344 452.460938 595.136719 459.421875 C 593.238281 466.382812 597.035156 473.34375 604 474.609375 C 606.535156 475.242188 609.699219 476.507812 612.230469 476.507812 C 617.929688 476.507812 622.996094 472.710938 624.261719 467.015625 Z M 624.261719 467.015625 " fill-opacity="1" fill-rule="nonzero"/><path fill="#000000" d="M 652.117188 322.101562 L 648.953125 322.734375 C 641.988281 324.632812 638.191406 331.59375 640.089844 337.921875 C 641.355469 343.617188 646.421875 347.414062 652.117188 347.414062 C 653.386719 347.414062 658.449219 346.148438 658.449219 346.148438 C 665.414062 344.25 669.214844 337.289062 667.3125 330.960938 C 666.046875 324.632812 659.082031 320.835938 652.117188 322.101562 Z M 652.117188 322.101562 " fill-opacity="1" fill-rule="nonzero"/><path fill="#000000" d="M 609.066406 334.125 L 604 335.390625 C 597.035156 337.289062 593.238281 344.25 595.136719 350.578125 C 596.402344 356.273438 601.46875 360.070312 607.167969 360.070312 C 608.433594 360.070312 615.398438 358.171875 615.398438 358.171875 C 622.363281 356.273438 626.160156 349.3125 624.261719 342.984375 C 622.363281 336.023438 615.398438 332.226562 609.066406 334.125 Z M 609.066406 334.125 " fill-opacity="1" fill-rule="nonzero"/><path fill="#000000" d="M 576.144531 203.765625 L 573.609375 206.296875 C 568.546875 211.359375 568.546875 218.953125 573.609375 224.015625 C 578.675781 229.078125 586.90625 229.078125 591.339844 224.015625 L 593.871094 221.484375 C 598.9375 216.421875 598.9375 208.828125 593.871094 203.765625 C 588.804688 198.703125 581.207031 198.703125 576.144531 203.765625 Z M 576.144531 203.765625 " fill-opacity="1" fill-rule="nonzero"/><path fill="#000000" d="M 544.488281 235.40625 L 540.6875 239.203125 C 535.625 244.265625 535.625 251.859375 540.6875 256.921875 C 545.753906 261.984375 553.984375 261.984375 558.417969 256.921875 L 562.214844 253.125 C 567.28125 248.0625 567.28125 240.46875 562.214844 235.40625 C 557.148438 230.34375 549.550781 230.34375 544.488281 235.40625 Z M 544.488281 235.40625 " fill-opacity="1" fill-rule="nonzero"/><path fill="#000000" d="M 475.476562 145.546875 C 477.375 138.585938 473.578125 131.625 466.613281 130.359375 C 459.648438 128.460938 452.683594 132.257812 451.417969 139.21875 L 450.785156 142.382812 C 448.886719 149.34375 452.683594 156.304688 459.648438 157.570312 C 466.613281 159.46875 473.578125 155.039062 474.84375 148.710938 Z M 475.476562 145.546875 " fill-opacity="1" fill-rule="nonzero"/><path fill="#000000" d="M 439.390625 182.25 L 438.121094 187.3125 C 436.222656 194.273438 440.023438 201.234375 446.984375 202.5 C 453.949219 204.398438 460.914062 199.96875 462.179688 193.640625 L 463.449219 188.578125 C 465.347656 181.617188 461.546875 174.65625 454.582031 173.390625 C 447.621094 171.492188 440.65625 175.289062 439.390625 182.25 Z M 439.390625 182.25 " fill-opacity="1" fill-rule="nonzero"/><path fill="#000000" d="M 341.886719 217.054688 C 248.816406 229.710938 177.273438 308.8125 177.273438 405 C 177.273438 501.1875 248.816406 580.921875 341.886719 592.945312 Z M 315.929688 493.59375 C 314.03125 500.554688 307.066406 504.351562 300.101562 502.453125 C 272.242188 494.859375 253.25 472.078125 253.25 446.132812 C 253.25 439.171875 258.949219 433.476562 265.914062 433.476562 C 272.875 433.476562 278.574219 439.171875 278.574219 446.132812 C 278.574219 460.6875 289.972656 473.34375 307.066406 478.40625 C 314.03125 480.304688 317.828125 487.265625 315.929688 493.59375 Z M 315.929688 493.59375 " fill-opacity="1" fill-rule="nonzero"/><path fill="#000000" d="M 471.046875 324.632812 C 472.945312 317.671875 469.777344 310.710938 462.8125 308.8125 C 461.546875 308.179688 460.28125 308.179688 459.015625 307.546875 C 452.050781 305.648438 445.085938 309.445312 443.820312 316.40625 C 441.921875 323.367188 445.71875 330.328125 452.683594 331.59375 C 453.316406 331.59375 454.582031 332.226562 455.21875 332.226562 C 461.546875 334.757812 468.511719 330.960938 471.046875 324.632812 Z M 471.046875 324.632812 " fill-opacity="1" fill-rule="nonzero"/><path fill="#000000" d="M 481.175781 363.867188 C 481.175781 370.828125 486.875 376.523438 493.835938 376.523438 C 500.800781 376.523438 506.5 370.828125 506.5 363.867188 C 506.5 362.601562 506.5 361.335938 506.5 359.4375 C 505.867188 352.476562 500.167969 347.414062 493.203125 348.046875 C 486.238281 348.679688 481.175781 354.375 481.808594 361.335938 C 481.175781 362.601562 481.175781 363.234375 481.175781 363.867188 Z M 481.175781 363.867188 " fill-opacity="1" fill-rule="nonzero"/><path fill="#000000" d="M 91.804688 478.40625 C 93.070312 484.101562 98.132812 487.898438 103.832031 487.898438 C 105.097656 487.898438 162.714844 472.710938 162.714844 472.710938 C 160.179688 464.484375 157.648438 456.890625 156.382812 448.03125 L 101.300781 462.585938 C 94.335938 465.117188 89.902344 472.078125 91.804688 478.40625 Z M 91.804688 478.40625 " fill-opacity="1" fill-rule="nonzero"/><path fill="#000000" d="M 49.382812 588.515625 C 52.550781 594.210938 60.78125 596.742188 66.476562 592.945312 L 187.40625 523.335938 C 182.972656 516.375 178.542969 508.78125 174.742188 501.1875 L 53.816406 570.796875 C 47.484375 574.59375 45.585938 582.1875 49.382812 588.515625 Z M 49.382812 588.515625 " fill-opacity="1" fill-rule="nonzero"/><path fill="#000000" d="M 183.605469 606.234375 L 224.125 565.734375 C 217.796875 560.039062 212.097656 554.34375 206.398438 548.015625 L 165.878906 588.515625 C 160.8125 593.578125 160.8125 601.171875 165.878906 606.234375 C 170.945312 611.296875 178.542969 611.296875 183.605469 606.234375 Z M 183.605469 606.234375 " fill-opacity="1" fill-rule="nonzero"/><path fill="#000000" d="M 248.816406 584.71875 L 179.175781 705.585938 C 175.375 711.914062 177.90625 719.507812 183.605469 722.671875 C 189.304688 725.835938 197.535156 723.9375 200.699219 718.242188 L 270.34375 597.375 C 263.378906 593.578125 255.78125 589.148438 248.816406 584.71875 Z M 248.816406 584.71875 " fill-opacity="1" fill-rule="nonzero"/><path fill="#000000" d="M 308.964844 671.414062 L 323.527344 616.359375 C 315.296875 614.460938 307.066406 612.5625 298.835938 610.03125 L 284.273438 665.71875 C 282.375 672.679688 286.171875 679.640625 293.136719 680.90625 C 300.101562 682.171875 307.066406 677.742188 308.964844 671.414062 Z M 308.964844 671.414062 " fill-opacity="1" fill-rule="nonzero"/><path fill="#000000" d="M 555.882812 474.609375 C 562.214844 477.140625 569.8125 473.34375 571.710938 467.015625 C 572.34375 465.117188 572.976562 462.585938 573.609375 460.6875 C 575.511719 453.726562 571.710938 446.765625 565.378906 444.867188 C 558.417969 442.96875 551.453125 446.765625 549.550781 453.09375 C 548.917969 454.992188 548.285156 456.890625 547.652344 458.789062 C 545.753906 465.117188 549.550781 472.078125 555.882812 474.609375 Z M 555.882812 474.609375 " fill-opacity="1" fill-rule="nonzero"/><path fill="#000000" d="M 446.351562 560.671875 C 444.453125 561.304688 442.554688 561.9375 440.65625 562.570312 C 433.691406 564.46875 430.523438 571.429688 432.425781 578.390625 C 434.324219 585.351562 441.289062 588.515625 448.253906 586.617188 C 450.152344 585.984375 452.683594 585.351562 454.582031 584.71875 C 460.914062 582.1875 464.714844 575.226562 462.179688 568.898438 C 460.28125 561.9375 453.316406 558.140625 446.351562 560.671875 Z M 446.351562 560.671875 " fill-opacity="1" fill-rule="nonzero"/><path fill="#000000" d="M 432.425781 231.609375 C 430.523438 238.570312 434.324219 245.53125 440.65625 247.429688 C 442.554688 248.0625 448.886719 249.960938 450.152344 249.960938 C 455.21875 249.960938 460.28125 246.796875 462.179688 241.734375 C 464.714844 235.40625 460.914062 227.8125 454.582031 225.914062 C 452.683594 225.28125 450.152344 224.648438 448.253906 224.015625 C 441.289062 221.484375 434.324219 225.28125 432.425781 231.609375 Z M 432.425781 231.609375 " fill-opacity="1" fill-rule="nonzero"/><path fill="#000000" d="M 483.707031 252.492188 C 479.910156 258.1875 481.175781 266.414062 486.875 270.210938 C 488.140625 271.476562 490.039062 272.742188 491.304688 273.375 C 497.003906 277.804688 504.601562 276.539062 509.03125 270.84375 C 513.464844 265.148438 512.199219 257.554688 506.5 253.125 C 504.601562 251.859375 502.703125 250.59375 501.433594 249.328125 C 495.738281 245.53125 488.140625 246.796875 483.707031 252.492188 Z M 483.707031 252.492188 " fill-opacity="1" fill-rule="nonzero"/><path fill="#000000" d="M 544.488281 290.460938 C 540.054688 284.765625 532.457031 283.5 526.761719 287.929688 C 521.0625 292.359375 519.796875 299.953125 524.226562 305.648438 C 525.492188 306.914062 526.761719 308.8125 527.394531 310.078125 C 531.191406 315.773438 539.421875 317.039062 545.121094 313.242188 C 550.820312 309.445312 552.085938 301.21875 548.285156 295.523438 C 547.019531 294.257812 545.753906 292.359375 544.488281 290.460938 Z M 544.488281 290.460938 " fill-opacity="1" fill-rule="nonzero"/><path fill="#000000" d="M 545.121094 496.125 C 539.421875 492.328125 531.191406 493.59375 527.394531 499.289062 C 526.125 500.554688 524.859375 502.453125 524.226562 503.71875 C 519.796875 509.414062 521.0625 517.007812 526.761719 521.4375 C 532.457031 525.867188 540.054688 524.601562 544.488281 518.90625 C 545.753906 517.007812 547.019531 515.109375 548.285156 513.84375 C 552.085938 508.148438 550.820312 499.921875 545.121094 496.125 Z M 545.121094 496.125 " fill-opacity="1" fill-rule="nonzero"/><path fill="#000000" d="M 555.882812 335.390625 C 549.550781 337.921875 545.753906 344.882812 548.285156 351.210938 C 548.917969 353.109375 549.550781 355.007812 550.1875 356.90625 C 552.085938 363.234375 559.683594 367.03125 566.015625 365.132812 C 572.976562 363.234375 576.777344 356.273438 574.246094 349.3125 C 573.609375 347.414062 572.976562 344.882812 572.34375 342.984375 C 569.8125 336.65625 562.847656 332.859375 555.882812 335.390625 Z M 555.882812 335.390625 " fill-opacity="1" fill-rule="nonzero"/><path fill="#000000" d="M 501.433594 560.671875 C 503.335938 559.40625 505.234375 558.140625 506.5 556.875 C 512.199219 552.445312 513.464844 544.851562 509.03125 539.15625 C 504.601562 533.460938 497.003906 532.195312 491.304688 536.625 C 490.039062 537.890625 488.140625 539.15625 486.875 539.789062 C 481.175781 543.585938 479.910156 551.8125 483.707031 557.507812 C 488.140625 563.203125 496.371094 564.46875 501.433594 560.671875 Z M 501.433594 560.671875 " fill-opacity="1" fill-rule="nonzero"/><path fill="#000000" d="M 582.476562 408.164062 L 582.476562 401.835938 C 582.476562 394.875 576.777344 389.179688 569.8125 389.179688 C 562.847656 389.179688 557.148438 394.875 557.148438 401.835938 L 557.148438 407.53125 C 557.148438 414.492188 562.847656 420.1875 569.8125 420.1875 C 576.777344 420.820312 582.476562 415.125 582.476562 408.164062 Z M 582.476562 408.164062 " fill-opacity="1" fill-rule="nonzero"/><g clip-path="url(#e206271051)"><g clip-path="url(#e6aa086ebd)"><g transform="matrix(1, 0, 0, 1, 218, 459)"><g clip-path="url(#55a5bc1e14)"><g clip-path="url(#3cbbbd1425)"><g clip-path="url(#79ec129735)"><path fill="#000000" d="M 0.984375 0.742188 L 18.359375 0.742188 L 18.359375 18.121094 L 0.984375 18.121094 Z M 0.984375 0.742188 " fill-opacity="1" fill-rule="nonzero"/></g></g></g></g></g></g></svg>