<svg xmlns="http://www.w3.org/2000/svg" xmlns:xlink="http://www.w3.org/1999/xlink" width="1080" zoomAndPan="magnify" viewBox="0 0 810 809.999993" height="1080" preserveAspectRatio="xMidYMid meet" version="1.0"><defs><clipPath id="6ba4e06417"><path d="M 0 0 L 391.5 0 L 391.5 810 L 0 810 Z M 0 0 " clip-rule="nonzero"/></clipPath><clipPath id="3fbcb3ae37"><path d="M 287.671875 509.679688 L 305.199219 509.679688 L 305.199219 527.207031 L 287.671875 527.207031 Z M 287.671875 509.679688 " clip-rule="nonzero"/></clipPath><clipPath id="c156dd0749"><path d="M 296.433594 509.679688 C 291.59375 509.679688 287.671875 513.601562 287.671875 518.441406 C 287.671875 523.28125 291.59375 527.207031 296.433594 527.207031 C 301.273438 527.207031 305.199219 523.28125 305.199219 518.441406 C 305.199219 513.601562 301.273438 509.679688 296.433594 509.679688 Z M 296.433594 509.679688 " clip-rule="nonzero"/></clipPath><clipPath id="811b9b27f7"><path d="M 0.671875 0.679688 L 18.199219 0.679688 L 18.199219 18.207031 L 0.671875 18.207031 Z M 0.671875 0.679688 " clip-rule="nonzero"/></clipPath><clipPath id="3df5e826d8"><path d="M 9.433594 0.679688 C 4.59375 0.679688 0.671875 4.601562 0.671875 9.441406 C 0.671875 14.28125 4.59375 18.207031 9.433594 18.207031 C 14.273438 18.207031 18.199219 14.28125 18.199219 9.441406 C 18.199219 4.601562 14.273438 0.679688 9.433594 0.679688 Z M 9.433594 0.679688 " clip-rule="nonzero"/></clipPath><clipPath id="d8c82b280f"><rect x="0" width="19" y="0" height="19"/></clipPath></defs><g clip-path="url(#6ba4e06417)"><path fill="#000000" d="M 315.070312 535.910156 C 313.472656 535.691406 311.890625 535.773438 310.328125 536.15625 L 286.941406 325.515625 C 286.8125 324.359375 286.535156 323.242188 286.109375 322.160156 C 285.683594 321.082031 285.125 320.074219 284.429688 319.144531 C 283.738281 318.214844 282.933594 317.390625 282.019531 316.675781 C 281.105469 315.957031 280.113281 315.375 279.046875 314.921875 C 278.125 314.542969 277.171875 314.269531 276.183594 314.109375 C 275.199219 313.949219 274.210938 313.902344 273.214844 313.972656 C 272.21875 314.039062 271.246094 314.222656 270.292969 314.519531 C 269.339844 314.8125 268.429688 315.214844 267.570312 315.722656 L 221.324219 153.722656 C 220.992188 152.5625 220.511719 151.46875 219.878906 150.445312 C 219.242188 149.417969 218.484375 148.5 217.59375 147.683594 C 216.707031 146.871094 215.722656 146.191406 214.648438 145.648438 C 213.570312 145.109375 212.441406 144.722656 211.257812 144.496094 C 210.234375 144.292969 209.199219 144.222656 208.160156 144.277344 C 207.117188 144.332031 206.097656 144.511719 205.097656 144.816406 C 204.101562 145.125 203.152344 145.546875 202.261719 146.085938 C 201.367188 146.625 200.550781 147.265625 199.8125 148.003906 C 183.609375 101.726562 156.410156 11.09375 156.085938 10 C 155.871094 9.285156 155.597656 8.59375 155.265625 7.925781 C 154.933594 7.257812 154.546875 6.621094 154.105469 6.019531 C 153.664062 5.417969 153.171875 4.859375 152.636719 4.34375 C 152.097656 3.824219 151.523438 3.355469 150.90625 2.9375 C 150.285156 2.519531 149.636719 2.15625 148.957031 1.851562 C 148.277344 1.542969 147.578125 1.296875 146.855469 1.109375 C 146.132812 0.921875 145.402344 0.800781 144.660156 0.738281 C 143.914062 0.675781 143.171875 0.679688 142.429688 0.746094 C 141.6875 0.8125 140.957031 0.941406 140.234375 1.136719 C 139.515625 1.328125 138.816406 1.578125 138.136719 1.890625 C 137.460938 2.203125 136.816406 2.570312 136.203125 2.996094 C 135.585938 3.417969 135.011719 3.890625 134.480469 4.414062 C 133.945312 4.933594 133.460938 5.496094 133.027344 6.101562 C 132.589844 6.707031 132.207031 7.34375 131.878906 8.015625 C 131.550781 8.6875 131.285156 9.378906 131.074219 10.097656 C 130.867188 10.8125 130.722656 11.542969 130.636719 12.28125 L 113.789062 161.425781 C 112.910156 160.484375 111.914062 159.691406 110.796875 159.050781 C 109.683594 158.40625 108.496094 157.9375 107.242188 157.648438 C 105.988281 157.363281 104.71875 157.261719 103.433594 157.355469 C 102.148438 157.445312 100.90625 157.722656 99.707031 158.1875 C 98.503906 158.648438 97.398438 159.277344 96.382812 160.074219 C 95.371094 160.867188 94.496094 161.792969 93.757812 162.851562 C 93.023438 163.90625 92.457031 165.046875 92.058594 166.273438 C 91.664062 167.5 91.457031 168.757812 91.4375 170.046875 L 87.3125 343.726562 C 86.457031 342.886719 85.503906 342.175781 84.453125 341.605469 C 83.398438 341.03125 82.289062 340.609375 81.117188 340.347656 C 79.949219 340.082031 78.765625 339.984375 77.570312 340.046875 C 76.375 340.113281 75.207031 340.34375 74.074219 340.734375 C 72.941406 341.125 71.882812 341.660156 70.898438 342.347656 C 69.917969 343.035156 69.046875 343.839844 68.285156 344.769531 C 67.527344 345.699219 66.910156 346.714844 66.433594 347.816406 C 65.960938 348.914062 65.644531 350.0625 65.484375 351.25 L 33.984375 576.707031 C 32.027344 576.082031 30.53125 575.617188 29.984375 575.453125 C 29.515625 575.3125 29.042969 575.199219 28.558594 575.113281 C 28.078125 575.023438 27.59375 574.964844 27.105469 574.933594 C 26.617188 574.898438 26.128906 574.894531 25.640625 574.917969 C 25.148438 574.941406 24.664062 574.988281 24.179688 575.066406 C 23.699219 575.144531 23.21875 575.25 22.75 575.378906 C 22.277344 575.511719 21.8125 575.667969 21.359375 575.851562 C 20.90625 576.035156 20.464844 576.242188 20.035156 576.476562 C 19.605469 576.710938 19.1875 576.964844 18.785156 577.246094 C 18.382812 577.527344 18 577.828125 17.632812 578.152344 C 17.265625 578.472656 16.917969 578.816406 16.585938 579.179688 C 16.257812 579.542969 15.949219 579.921875 15.664062 580.320312 C 15.378906 580.71875 15.117188 581.128906 14.875 581.554688 C 14.636719 581.984375 14.421875 582.421875 14.230469 582.875 C 14.039062 583.324219 13.875 583.785156 13.734375 584.253906 C 13.597656 584.722656 13.484375 585.199219 13.398438 585.683594 C 13.316406 586.164062 13.257812 586.652344 13.226562 587.140625 L 0.1875 795.941406 C 0.132812 796.832031 0.167969 797.714844 0.292969 798.597656 C 0.417969 799.480469 0.632812 800.339844 0.933594 801.179688 C 1.234375 802.019531 1.621094 802.816406 2.085938 803.578125 C 2.550781 804.335938 3.089844 805.042969 3.699219 805.691406 C 4.308594 806.339844 4.976562 806.921875 5.707031 807.433594 C 6.433594 807.945312 7.207031 808.378906 8.023438 808.734375 C 8.839844 809.085938 9.6875 809.355469 10.558594 809.535156 C 11.429688 809.714844 12.3125 809.804688 13.203125 809.804688 L 378.296875 809.804688 C 379.183594 809.804688 380.0625 809.714844 380.929688 809.539062 C 381.796875 809.359375 382.636719 809.09375 383.453125 808.742188 C 384.265625 808.394531 385.035156 807.964844 385.761719 807.457031 C 386.488281 806.949219 387.15625 806.371094 387.765625 805.726562 C 388.375 805.082031 388.914062 804.386719 389.382812 803.632812 C 389.847656 802.875 390.234375 802.082031 390.539062 801.25 C 390.84375 800.417969 391.0625 799.5625 391.195312 798.6875 C 391.324219 797.808594 391.367188 796.925781 391.316406 796.042969 C 384.8125 677.519531 327.425781 548.867188 324.988281 543.441406 C 324.542969 542.449219 323.980469 541.527344 323.300781 540.675781 C 322.625 539.824219 321.851562 539.070312 320.988281 538.410156 C 320.121094 537.753906 319.1875 537.210938 318.183594 536.789062 C 317.183594 536.367188 316.144531 536.070312 315.070312 535.910156 Z M 286.625 558.972656 L 244.796875 606.074219 C 224.078125 553.847656 186.050781 489.929688 152.683594 438.378906 L 212.96875 391.238281 C 214.363281 390.773438 215.644531 390.089844 216.800781 389.183594 C 217.960938 388.277344 218.933594 387.203125 219.71875 385.957031 L 261.980469 352.90625 C 262.566406 352.863281 263.148438 352.785156 263.722656 352.664062 Z M 116.574219 210.074219 C 142.605469 248.890625 183.285156 316.304688 194.378906 372.652344 L 138.316406 416.5 C 128.789062 402.179688 120.015625 389.347656 112.5625 378.625 Z M 245.335938 332.800781 L 217.015625 354.949219 C 206.597656 314.398438 184.808594 271.195312 163.898438 235.945312 C 164.351562 235.605469 164.777344 235.238281 165.179688 234.839844 L 203.320312 185.644531 Z M 149.5 77.589844 C 160.148438 111.734375 172.941406 151.554688 180.84375 172.054688 L 149.449219 212.542969 C 144.84375 205.335938 140.496094 198.742188 136.484375 192.828125 Z M 86.777344 387.335938 C 121.148438 436.554688 193.042969 543.808594 222.101562 619.574219 C 222.601562 620.867188 223.289062 622.046875 224.171875 623.117188 C 225.050781 624.1875 226.074219 625.09375 227.246094 625.835938 L 199.046875 657.589844 C 198.765625 657.914062 198.507812 658.226562 198.257812 658.566406 C 146.78125 621.757812 91.785156 597.90625 59.082031 585.546875 Z M 27.082031 783.707031 L 38.191406 605.785156 C 85.523438 622.808594 226.570312 680.898438 277.96875 783.707031 Z M 306.710938 783.707031 C 288.011719 739.988281 255.4375 703.710938 219.046875 674.347656 L 309.085938 572.96875 C 324.28125 610.8125 356.828125 699.714844 364.285156 783.707031 Z M 306.710938 783.707031 " fill-opacity="1" fill-rule="nonzero"/></g><g clip-path="url(#3fbcb3ae37)"><g clip-path="url(#c156dd0749)"><g transform="matrix(1, 0, 0, 1, 287, 509)"><g clip-path="url(#d8c82b280f)"><g clip-path="url(#811b9b27f7)"><g clip-path="url(#3df5e826d8)"><path fill="#000000" d="M 0.671875 0.679688 L 18.199219 0.679688 L 18.199219 18.207031 L 0.671875 18.207031 Z M 0.671875 0.679688 " fill-opacity="1" fill-rule="nonzero"/></g></g></g></g></g></g></svg>