<svg xmlns="http://www.w3.org/2000/svg" xmlns:xlink="http://www.w3.org/1999/xlink" width="1080" zoomAndPan="magnify" viewBox="0 0 810 809.999993" height="1080" preserveAspectRatio="xMidYMid meet" version="1.0"><defs><clipPath id="6e12296fa4"><path d="M 405 444.652344 L 422.527344 444.652344 L 422.527344 462.179688 L 405 462.179688 Z M 405 444.652344 " clip-rule="nonzero"/></clipPath><clipPath id="aecaf35352"><path d="M 413.765625 444.652344 C 408.925781 444.652344 405 448.574219 405 453.417969 C 405 458.257812 408.925781 462.179688 413.765625 462.179688 C 418.605469 462.179688 422.527344 458.257812 422.527344 453.417969 C 422.527344 448.574219 418.605469 444.652344 413.765625 444.652344 Z M 413.765625 444.652344 " clip-rule="nonzero"/></clipPath><clipPath id="f630b625e3"><path d="M 0 0.652344 L 17.527344 0.652344 L 17.527344 18.179688 L 0 18.179688 Z M 0 0.652344 " clip-rule="nonzero"/></clipPath><clipPath id="3522554a5e"><path d="M 8.765625 0.652344 C 3.925781 0.652344 0 4.574219 0 9.417969 C 0 14.257812 3.925781 18.179688 8.765625 18.179688 C 13.605469 18.179688 17.527344 14.257812 17.527344 9.417969 C 17.527344 4.574219 13.605469 0.652344 8.765625 0.652344 Z M 8.765625 0.652344 " clip-rule="nonzero"/></clipPath><clipPath id="4a8d024ed1"><rect x="0" width="18" y="0" height="19"/></clipPath></defs><path fill="#000000" d="M 584.316406 28.648438 C 594.453125 25.402344 605.03125 23.078125 615.957031 21.761719 L 781.933594 1.847656 C 797.101562 0.0234375 809.976562 12.898438 808.152344 28.066406 L 800.003906 96 L 714 96 C 700.984375 96 690.421875 106.554688 690.421875 119.578125 C 690.421875 132.601562 700.984375 143.15625 714 143.15625 L 794.34375 143.15625 L 788.238281 194.050781 C 777.992188 279.367188 705.621094 343.582031 619.683594 343.582031 C 608.253906 343.582031 596.980469 342.320312 586.007812 339.859375 L 134.289062 791.585938 C 115.871094 810 86.011719 810 67.601562 791.585938 L 18.414062 742.410156 C 0 723.988281 0 694.128906 18.414062 675.710938 L 470.140625 223.992188 C 467.679688 213.019531 466.417969 201.746094 466.417969 190.316406 C 466.417969 133.945312 494.0625 83.402344 537.15625 52.40625 L 537.15625 82.535156 C 537.15625 120.054688 552.0625 156.035156 578.601562 182.566406 L 603.011719 206.988281 C 612.21875 216.191406 627.148438 216.191406 636.355469 206.988281 C 645.570312 197.78125 645.570312 182.851562 636.355469 173.644531 L 611.941406 149.222656 C 594.25 131.539062 584.316406 107.550781 584.316406 82.535156 Z M 584.316406 28.648438 " fill-opacity="1" fill-rule="nonzero"/><g clip-path="url(#6e12296fa4)"><g clip-path="url(#aecaf35352)"><g transform="matrix(1, 0, 0, 1, 405, 444)"><g clip-path="url(#4a8d024ed1)"><g clip-path="url(#f630b625e3)"><g clip-path="url(#3522554a5e)"><path fill="#000000" d="M 0 0.652344 L 17.527344 0.652344 L 17.527344 18.179688 L 0 18.179688 Z M 0 0.652344 " fill-opacity="1" fill-rule="nonzero"/></g></g></g></g></g></g></svg>