<svg xmlns="http://www.w3.org/2000/svg" xmlns:xlink="http://www.w3.org/1999/xlink" width="1080" zoomAndPan="magnify" viewBox="0 0 810 809.999993" height="1080" preserveAspectRatio="xMidYMid meet" version="1.0"><defs><clipPath id="70b489c169"><path d="M 294.113281 527.363281 L 311.492188 527.363281 L 311.492188 544.738281 L 294.113281 544.738281 Z M 294.113281 527.363281 " clip-rule="nonzero"/></clipPath><clipPath id="7607ffaefa"><path d="M 302.800781 527.363281 C 298.003906 527.363281 294.113281 531.25 294.113281 536.050781 C 294.113281 540.847656 298.003906 544.738281 302.800781 544.738281 C 307.601562 544.738281 311.492188 540.847656 311.492188 536.050781 C 311.492188 531.25 307.601562 527.363281 302.800781 527.363281 Z M 302.800781 527.363281 " clip-rule="nonzero"/></clipPath><clipPath id="1012e92bd7"><path d="M 0.113281 0.363281 L 17.492188 0.363281 L 17.492188 17.738281 L 0.113281 17.738281 Z M 0.113281 0.363281 " clip-rule="nonzero"/></clipPath><clipPath id="a915653752"><path d="M 8.800781 0.363281 C 4.003906 0.363281 0.113281 4.25 0.113281 9.050781 C 0.113281 13.847656 4.003906 17.738281 8.800781 17.738281 C 13.601562 17.738281 17.492188 13.847656 17.492188 9.050781 C 17.492188 4.25 13.601562 0.363281 8.800781 0.363281 Z M 8.800781 0.363281 " clip-rule="nonzero"/></clipPath><clipPath id="f58d64f5f3"><rect x="0" width="18" y="0" height="18"/></clipPath></defs><path fill="#1a1a1a" d="M 810 13.066406 L 810 79.660156 C 810 86.875 804.148438 92.726562 796.933594 92.726562 L 13.066406 92.726562 C 5.851562 92.726562 0 86.875 0 79.660156 L 0 13.066406 C 0 5.851562 5.851562 0 13.066406 0 L 796.933594 0 C 804.148438 0 810 5.851562 810 13.066406 Z M 783.871094 26.128906 C 783.871094 26.128906 26.128906 26.128906 26.128906 26.128906 L 26.128906 66.597656 C 26.128906 66.597656 783.871094 66.597656 783.871094 66.597656 Z M 14.683594 290.566406 C 7.53125 291.460938 0.996094 286.378906 0.101562 279.222656 C -0.792969 272.070312 4.289062 265.535156 11.445312 264.640625 C 148.085938 247.558594 264.148438 267.269531 397.914062 279.140625 C 405.097656 279.777344 410.410156 286.125 409.773438 293.308594 C 409.136719 300.492188 402.789062 305.804688 395.605469 305.167969 C 263.757812 293.464844 149.367188 273.730469 14.683594 290.566406 Z M 741.160156 299.671875 C 734.019531 300.660156 727.417969 295.660156 726.429688 288.519531 C 725.445312 281.375 730.441406 274.773438 737.582031 273.789062 C 756.097656 271.226562 775.105469 268.230469 794.640625 264.742188 C 801.738281 263.476562 808.53125 268.210938 809.796875 275.308594 C 811.0625 282.40625 806.328125 289.199219 799.230469 290.464844 C 779.347656 294.011719 760.007812 297.066406 741.160156 299.671875 Z M 10.464844 535.109375 C 3.398438 533.671875 -1.175781 526.769531 0.261719 519.703125 C 1.699219 512.636719 8.601562 508.066406 15.664062 509.5 C 139.328125 534.632812 229.398438 532.796875 315.011719 524.132812 C 322.1875 523.40625 328.601562 528.644531 329.328125 535.816406 C 330.054688 542.992188 324.816406 549.402344 317.644531 550.128906 C 229.789062 559.019531 137.363281 560.894531 10.464844 535.109375 Z M 737.070312 152.25 C 729.863281 152.25 724.007812 146.394531 724.007812 139.183594 C 724.007812 131.972656 729.863281 126.121094 737.070312 126.121094 L 796.933594 126.121094 C 804.144531 126.121094 810 131.972656 810 139.183594 C 810 146.394531 804.144531 152.25 796.933594 152.25 Z M 602.023438 152.25 C 594.8125 152.25 588.957031 146.394531 588.957031 139.183594 C 588.957031 131.972656 594.8125 126.121094 602.023438 126.121094 L 672.644531 126.121094 C 679.855469 126.121094 685.710938 131.972656 685.710938 139.183594 C 685.710938 146.394531 679.855469 152.25 672.644531 152.25 Z M 421.128906 152.25 C 413.917969 152.25 408.066406 146.394531 408.066406 139.183594 C 408.066406 131.972656 413.917969 126.121094 421.128906 126.121094 L 532.640625 126.121094 C 539.847656 126.121094 545.703125 131.972656 545.703125 139.183594 C 545.703125 146.394531 539.847656 152.25 532.640625 152.25 Z M 241.476562 152.25 C 234.265625 152.25 228.410156 146.394531 228.410156 139.183594 C 228.410156 131.972656 234.265625 126.121094 241.476562 126.121094 L 344.3125 126.121094 C 351.523438 126.121094 357.375 131.972656 357.375 139.183594 C 357.375 146.394531 351.523438 152.25 344.3125 152.25 Z M 13.066406 152.25 C 5.855469 152.25 0 146.394531 0 139.183594 C 0 131.972656 5.855469 126.121094 13.066406 126.121094 L 168.375 126.121094 C 175.585938 126.121094 181.441406 131.972656 181.441406 139.183594 C 181.441406 146.394531 175.585938 152.25 168.375 152.25 Z M 758.296875 224.546875 C 751.085938 224.546875 745.230469 218.691406 745.230469 211.480469 C 745.230469 204.269531 751.085938 198.417969 758.296875 198.417969 L 796.933594 198.417969 C 804.144531 198.417969 810 204.269531 810 211.480469 C 810 218.691406 804.144531 224.546875 796.933594 224.546875 Z M 639.667969 224.546875 C 632.460938 224.546875 626.605469 218.691406 626.605469 211.480469 C 626.605469 204.269531 632.460938 198.417969 639.667969 198.417969 L 694.859375 198.417969 C 702.070312 198.417969 707.921875 204.269531 707.921875 211.480469 C 707.921875 218.691406 702.070312 224.546875 694.859375 224.546875 Z M 532.460938 224.546875 C 525.253906 224.546875 519.398438 218.691406 519.398438 211.480469 C 519.398438 204.269531 525.253906 198.417969 532.460938 198.417969 L 591.457031 198.417969 C 598.667969 198.417969 604.523438 204.269531 604.523438 211.480469 C 604.523438 218.691406 598.667969 224.546875 591.457031 224.546875 Z M 342.785156 224.546875 C 335.578125 224.546875 329.722656 218.691406 329.722656 211.480469 C 329.722656 204.269531 335.578125 198.417969 342.785156 198.417969 L 471.5625 198.417969 C 478.773438 198.417969 484.628906 204.269531 484.628906 211.480469 C 484.628906 218.691406 478.773438 224.546875 471.5625 224.546875 Z M 194.535156 224.546875 C 187.324219 224.546875 181.46875 218.691406 181.46875 211.480469 C 181.46875 204.269531 187.324219 198.417969 194.535156 198.417969 L 297.746094 198.417969 C 304.957031 198.417969 310.8125 204.269531 310.8125 211.480469 C 310.8125 218.691406 304.957031 224.546875 297.746094 224.546875 Z M 13.066406 224.546875 C 5.855469 224.546875 0 218.691406 0 211.480469 C 0 204.269531 5.855469 198.417969 13.066406 198.417969 L 131.347656 198.417969 C 138.554688 198.417969 144.410156 204.269531 144.410156 211.480469 C 144.410156 218.691406 138.554688 224.546875 131.347656 224.546875 Z M 96.542969 321.359375 C 101.640625 316.261719 109.921875 316.261719 115.019531 321.359375 C 120.117188 326.457031 120.117188 334.738281 115.019531 339.835938 L 96.78125 358.074219 C 91.683594 363.171875 83.402344 363.171875 78.304688 358.074219 C 73.207031 352.976562 73.207031 344.695312 78.304688 339.597656 Z M 114.78125 399.121094 C 119.878906 394.023438 128.15625 394.023438 133.257812 399.121094 C 138.355469 404.222656 138.355469 412.5 133.257812 417.597656 L 115.019531 435.835938 C 109.921875 440.9375 101.640625 440.9375 96.542969 435.835938 C 91.445312 430.738281 91.445312 422.460938 96.542969 417.359375 Z M 207.554688 330.476562 C 212.65625 325.378906 220.933594 325.378906 226.03125 330.476562 C 231.132812 335.578125 231.132812 343.855469 226.03125 348.953125 L 207.792969 367.191406 C 202.695312 372.292969 194.417969 372.292969 189.316406 367.191406 C 184.21875 362.09375 184.21875 353.816406 189.316406 348.714844 Z M 189.316406 450.214844 C 194.417969 445.117188 202.695312 445.117188 207.792969 450.214844 C 212.894531 455.3125 212.894531 463.59375 207.792969 468.691406 L 189.554688 486.929688 C 184.457031 492.027344 176.179688 492.027344 171.078125 486.929688 C 165.980469 481.832031 165.980469 473.550781 171.078125 468.453125 Z M 299.539062 362.988281 C 304.636719 357.890625 312.917969 357.890625 318.015625 362.988281 C 323.113281 368.085938 323.113281 376.367188 318.015625 381.464844 L 299.777344 399.703125 C 294.679688 404.800781 286.398438 404.800781 281.300781 399.703125 C 276.203125 394.605469 276.203125 386.324219 281.300781 381.226562 Z M 90.617188 468.570312 C 100.875 468.570312 109.203125 476.902344 109.203125 487.160156 C 109.203125 497.417969 100.875 505.746094 90.617188 505.746094 C 80.355469 505.746094 72.027344 497.417969 72.027344 487.160156 C 72.027344 476.902344 80.355469 468.570312 90.617188 468.570312 Z M 216.375 389.425781 C 226.636719 389.425781 234.964844 397.753906 234.964844 408.011719 C 234.964844 418.269531 226.636719 426.597656 216.375 426.597656 C 206.117188 426.597656 197.789062 418.269531 197.789062 408.011719 C 197.789062 397.753906 206.117188 389.425781 216.375 389.425781 Z M 268.863281 459.453125 C 279.121094 459.453125 287.449219 467.78125 287.449219 478.039062 C 287.449219 488.300781 279.121094 496.628906 268.863281 496.628906 C 258.605469 496.628906 250.273438 488.300781 250.273438 478.039062 C 250.273438 467.78125 258.605469 459.453125 268.863281 459.453125 Z M 442.480469 679.722656 L 350.640625 786.054688 C 338.082031 800.59375 320.039062 809.253906 300.839844 809.953125 C 281.636719 810.65625 263.011719 803.335938 249.425781 789.75 L 247.34375 787.667969 C 233.757812 774.082031 226.4375 755.457031 227.136719 736.253906 C 227.839844 717.050781 236.5 699.007812 251.039062 686.449219 L 363.6875 589.15625 C 320.390625 501.253906 335.292969 391.847656 408.394531 318.742188 C 500.21875 226.921875 649.3125 226.921875 741.132812 318.742188 C 832.953125 410.5625 832.953125 559.660156 741.132812 651.480469 C 659.960938 732.652344 534.03125 742.066406 442.480469 679.722656 Z M 376.808594 612.347656 L 268.121094 706.226562 C 259.074219 714.039062 253.6875 725.261719 253.25 737.207031 C 252.816406 749.152344 257.367188 760.742188 265.820312 769.191406 L 267.898438 771.273438 C 276.351562 779.726562 287.941406 784.277344 299.882812 783.839844 C 311.832031 783.40625 323.054688 778.019531 330.867188 768.972656 L 421.699219 663.808594 C 417.148438 659.898438 412.707031 655.792969 408.394531 651.480469 C 396.265625 639.347656 385.734375 626.214844 376.808594 612.347656 Z M 722.65625 337.21875 C 641.03125 255.597656 508.496094 255.597656 426.871094 337.21875 C 345.246094 418.84375 345.246094 551.378906 426.871094 633.003906 C 508.496094 714.628906 641.03125 714.628906 722.65625 633.003906 C 804.28125 551.378906 804.28125 418.84375 722.65625 337.21875 Z M 709.894531 349.980469 C 784.472656 424.5625 784.472656 545.660156 709.894531 620.242188 C 635.3125 694.820312 514.214844 694.820312 439.632812 620.242188 C 365.054688 545.660156 365.054688 424.5625 439.632812 349.980469 C 514.214844 275.402344 635.3125 275.402344 709.894531 349.980469 Z M 691.417969 368.457031 C 627.035156 304.074219 522.492188 304.074219 458.109375 368.457031 C 393.730469 432.839844 393.730469 537.382812 458.109375 601.765625 C 522.492188 666.148438 627.035156 666.148438 691.417969 601.765625 C 755.800781 537.382812 755.800781 432.839844 691.417969 368.457031 Z M 494.382812 468.734375 C 492.734375 475.753906 485.695312 480.113281 478.675781 478.464844 C 471.660156 476.816406 467.296875 469.78125 468.945312 462.761719 C 476.414062 430.976562 492.003906 417.808594 510.695312 406.488281 C 525.539062 397.5 542.976562 390.195312 558.460938 370.601562 C 562.929688 364.945312 571.152344 363.980469 576.808594 368.453125 C 582.464844 372.921875 583.429688 381.144531 578.960938 386.804688 C 564.367188 405.269531 548.5625 414.808594 533.832031 423.253906 C 516.589844 433.136719 500.921875 440.90625 494.382812 468.734375 Z M 608.269531 453.144531 C 606.621094 460.164062 599.582031 464.523438 592.5625 462.875 C 585.542969 461.226562 581.183594 454.191406 582.832031 447.171875 C 588.011719 425.125 598.796875 415.972656 611.757812 408.121094 C 620.875 402.605469 631.65625 398.222656 641.164062 386.195312 C 645.636719 380.535156 653.859375 379.574219 659.515625 384.042969 C 665.171875 388.515625 666.136719 396.738281 661.664062 402.394531 C 651.851562 414.808594 641.261719 421.269531 631.359375 426.945312 C 621.359375 432.679688 612.0625 437 608.269531 453.144531 Z M 720 510.058594 C 721.648438 517.074219 717.289062 524.113281 710.265625 525.761719 C 703.25 527.410156 696.210938 523.050781 694.5625 516.03125 C 690.769531 499.886719 681.472656 495.566406 671.472656 489.832031 C 661.566406 484.15625 650.976562 477.695312 641.164062 465.28125 C 636.695312 459.621094 637.65625 451.398438 643.316406 446.929688 C 648.972656 442.460938 657.195312 443.421875 661.664062 449.078125 C 671.171875 461.109375 681.957031 465.492188 691.070312 471.007812 C 704.035156 478.859375 714.820312 488.011719 720 510.058594 Z M 646.4375 523.515625 C 649.847656 517.164062 657.773438 514.773438 664.125 518.179688 C 670.480469 521.589844 672.871094 529.519531 669.460938 535.871094 C 654.019531 564.640625 635.554688 573.324219 614.566406 579.417969 C 597.90625 584.257812 579.171875 586.800781 559.144531 601.71875 C 553.363281 606.027344 545.171875 604.828125 540.863281 599.046875 C 536.554688 593.265625 537.753906 585.074219 543.535156 580.765625 C 562.414062 566.707031 580.144531 561.582031 596.5625 557.238281 C 615.769531 552.152344 632.917969 548.707031 646.4375 523.515625 Z M 525.515625 568.671875 C 526.332031 575.835938 521.175781 582.3125 514.011719 583.128906 C 506.847656 583.941406 500.371094 578.789062 499.554688 571.625 C 498.195312 559.667969 491.71875 555.863281 485 550.882812 C 477.523438 545.335938 469.585938 539.074219 462.828125 528.085938 C 459.054688 521.941406 460.976562 513.886719 467.117188 510.113281 C 473.257812 506.335938 481.3125 508.253906 485.089844 514.398438 C 491.207031 524.347656 499.027344 528.566406 505.429688 533.554688 C 515.382812 541.3125 523.386719 549.941406 525.515625 568.671875 Z M 621.148438 486.65625 C 627.277344 490.453125 629.167969 498.515625 625.371094 504.644531 C 621.574219 510.773438 613.515625 512.667969 607.386719 508.867188 C 593.289062 500.132812 583.65625 503.652344 572.535156 506.667969 C 561.515625 509.660156 549.460938 512.578125 533.742188 510.738281 C 526.578125 509.898438 521.449219 503.402344 522.285156 496.242188 C 523.125 489.082031 529.621094 483.945312 536.78125 484.785156 C 552.011719 486.570312 562.734375 482.042969 573.082031 479.5 C 587.800781 475.886719 601.898438 474.730469 621.148438 486.65625 Z M 621.148438 486.65625 " fill-opacity="1" fill-rule="evenodd"/><g clip-path="url(#70b489c169)"><g clip-path="url(#7607ffaefa)"><g transform="matrix(1, 0, 0, 1, 294, 527)"><g clip-path="url(#f58d64f5f3)"><g clip-path="url(#1012e92bd7)"><g clip-path="url(#a915653752)"><path fill="#000000" d="M 0.113281 0.363281 L 17.492188 0.363281 L 17.492188 17.738281 L 0.113281 17.738281 Z M 0.113281 0.363281 " fill-opacity="1" fill-rule="nonzero"/></g></g></g></g></g></g></svg>