<svg xmlns="http://www.w3.org/2000/svg" xmlns:xlink="http://www.w3.org/1999/xlink" width="1080" zoomAndPan="magnify" viewBox="0 0 810 809.999993" height="1080" preserveAspectRatio="xMidYMid meet" version="1.0"><defs><clipPath id="185c5d52cd"><path d="M 0 63 L 809.25 63 L 809.25 723 L 0 723 Z M 0 63 " clip-rule="nonzero"/></clipPath><clipPath id="891eb69a7b"><path d="M 0 0 L 809.25 0 L 809.25 179 L 0 179 Z M 0 0 " clip-rule="nonzero"/></clipPath><clipPath id="4a21873de6"><path d="M 0 191 L 809.25 191 L 809.25 347 L 0 347 Z M 0 191 " clip-rule="nonzero"/></clipPath><clipPath id="a9b2c389b6"><path d="M 753 478 L 809.25 478 L 809.25 506 L 753 506 Z M 753 478 " clip-rule="nonzero"/></clipPath><clipPath id="4361741dcc"><path d="M 620 610 L 809.25 610 L 809.25 810 L 620 810 Z M 620 610 " clip-rule="nonzero"/></clipPath><clipPath id="67b3231e79"><path d="M 280.964844 467.257812 L 298.34375 467.257812 L 298.34375 484.636719 L 280.964844 484.636719 Z M 280.964844 467.257812 " clip-rule="nonzero"/></clipPath><clipPath id="b82dbdf768"><path d="M 289.652344 467.257812 C 284.855469 467.257812 280.964844 471.148438 280.964844 475.945312 C 280.964844 480.746094 284.855469 484.636719 289.652344 484.636719 C 294.453125 484.636719 298.34375 480.746094 298.34375 475.945312 C 298.34375 471.148438 294.453125 467.257812 289.652344 467.257812 Z M 289.652344 467.257812 " clip-rule="nonzero"/></clipPath><clipPath id="348fdf4164"><path d="M 0.964844 0.257812 L 18.34375 0.257812 L 18.34375 17.636719 L 0.964844 17.636719 Z M 0.964844 0.257812 " clip-rule="nonzero"/></clipPath><clipPath id="8e55836e4e"><path d="M 9.652344 0.257812 C 4.855469 0.257812 0.964844 4.148438 0.964844 8.945312 C 0.964844 13.746094 4.855469 17.636719 9.652344 17.636719 C 14.453125 17.636719 18.34375 13.746094 18.34375 8.945312 C 18.34375 4.148438 14.453125 0.257812 9.652344 0.257812 Z M 9.652344 0.257812 " clip-rule="nonzero"/></clipPath><clipPath id="693fcc4440"><rect x="0" width="19" y="0" height="18"/></clipPath></defs><g clip-path="url(#185c5d52cd)"><path fill="#000000" d="M 487.742188 722.03125 L 11.90625 722.03125 C 5.355469 722.03125 0.046875 716.714844 0.046875 710.160156 L 0.046875 84.078125 C 0.046875 78.183594 4.371094 73.183594 10.199219 72.332031 C 108.894531 57.964844 162.382812 69.691406 209.570312 80.042969 C 230.644531 84.664062 250.550781 89.03125 272.328125 90.289062 C 319.472656 93.007812 345.933594 85.484375 373.945312 77.519531 C 402.789062 69.316406 432.617188 60.839844 483.816406 65.027344 C 510.25 67.191406 528.910156 71.617188 545.375 75.523438 C 568.300781 80.960938 586.414062 85.253906 618.207031 82.371094 C 627.1875 81.554688 636.867188 79.738281 648.070312 77.632812 C 681.730469 71.3125 727.832031 62.652344 799.292969 74.539062 C 805.015625 75.492188 809.210938 80.441406 809.210938 86.246094 L 809.210938 657.5625 C 809.210938 664.117188 803.898438 669.429688 797.347656 669.429688 C 790.796875 669.429688 785.488281 664.117188 785.488281 657.5625 L 785.488281 96.414062 C 723.914062 87.542969 684.460938 94.949219 652.445312 100.960938 C 641.136719 103.085938 630.457031 105.09375 620.347656 106.011719 C 584.699219 109.246094 562.9375 104.085938 539.902344 98.621094 C 523.492188 94.726562 506.523438 90.703125 481.882812 88.683594 C 434.972656 84.847656 408.476562 92.378906 380.429688 100.351562 C 351.753906 108.503906 322.101562 116.933594 270.964844 113.984375 C 247.308594 112.617188 226.507812 108.058594 204.488281 103.226562 C 160.925781 93.671875 111.765625 82.886719 23.765625 94.417969 L 23.765625 698.292969 L 487.742188 698.292969 C 494.292969 698.292969 499.601562 703.605469 499.601562 710.160156 C 499.601562 716.714844 494.292969 722.03125 487.742188 722.03125 Z M 487.742188 722.03125 " fill-opacity="1" fill-rule="nonzero"/></g><g clip-path="url(#891eb69a7b)"><path fill="#000000" d="M 797.347656 178.351562 C 790.796875 178.351562 785.488281 173.039062 785.488281 166.484375 L 785.488281 51.542969 C 785.488281 40.113281 776.917969 30.679688 765.554688 29.59375 C 715.027344 24.785156 680.328125 31.296875 652.449219 36.535156 C 641.136719 38.660156 630.457031 40.667969 620.347656 41.582031 C 584.699219 44.820312 562.9375 39.65625 539.902344 34.191406 C 523.492188 30.300781 506.523438 26.277344 481.882812 24.257812 C 434.957031 20.421875 408.476562 27.949219 380.429688 35.925781 C 351.753906 44.078125 322.101562 52.507812 270.964844 49.558594 C 247.308594 48.191406 226.511719 43.628906 204.488281 38.800781 C 164.578125 30.046875 119.339844 20.128906 43.640625 27.691406 C 32.308594 28.820312 23.765625 38.253906 23.765625 49.628906 L 23.765625 166.484375 C 23.765625 173.039062 18.457031 178.351562 11.90625 178.351562 C 5.355469 178.351562 0.046875 173.039062 0.046875 166.484375 L 0.046875 49.628906 C 0.046875 26.007812 17.773438 6.421875 41.28125 4.070312 C 120.734375 -3.867188 167.929688 6.480469 209.570312 15.613281 C 230.644531 20.238281 250.550781 24.605469 272.328125 25.859375 C 319.464844 28.578125 345.933594 21.058594 373.945312 13.089844 C 402.789062 4.890625 432.617188 -3.59375 483.816406 0.601562 C 510.246094 2.765625 528.910156 7.191406 545.375 11.097656 C 568.296875 16.535156 586.414062 20.828125 618.207031 17.945312 C 627.1875 17.128906 636.863281 15.3125 648.070312 13.207031 C 677.414062 7.695312 713.933594 0.828125 767.804688 5.964844 C 791.40625 8.214844 809.210938 27.808594 809.210938 51.542969 L 809.210938 166.484375 C 809.210938 173.039062 803.898438 178.351562 797.347656 178.351562 Z M 797.347656 178.351562 " fill-opacity="1" fill-rule="nonzero"/></g><g clip-path="url(#4a21873de6)"><path fill="#000000" d="M 715.011719 346.367188 C 707.15625 346.367188 699.882812 345.617188 693.105469 344.132812 C 668.300781 338.699219 654.828125 324.449219 642.941406 311.875 C 631.917969 300.21875 623.214844 291.011719 606.746094 289.078125 C 594.085938 287.589844 585.726562 292.324219 575.128906 298.316406 C 568.835938 301.875 561.703125 305.90625 553.234375 308.691406 C 511.996094 322.246094 477.851562 294.390625 444.839844 267.445312 C 415.039062 243.125 384.226562 217.972656 345.058594 215.632812 C 317.757812 213.988281 292.835938 230.679688 263.988281 250 C 206.835938 288.269531 135.710938 335.902344 6.277344 266.09375 C 0.511719 262.984375 -1.640625 255.785156 1.464844 250.015625 C 4.574219 244.246094 11.769531 242.089844 17.535156 245.199219 C 134.386719 308.222656 196.230469 266.8125 250.796875 230.273438 C 281.855469 209.472656 311.191406 189.820312 346.472656 191.9375 C 393.285156 194.738281 428.640625 223.59375 459.832031 249.050781 C 490.464844 274.054688 516.917969 295.652344 545.832031 286.140625 C 552.074219 284.089844 557.605469 280.960938 563.460938 277.652344 C 575.511719 270.835938 589.183594 263.105469 609.511719 265.503906 C 634.53125 268.441406 648.152344 282.851562 660.171875 295.5625 C 681.3125 317.921875 701.289062 339.039062 793.160156 304.359375 C 799.289062 302.046875 806.136719 305.140625 808.445312 311.273438 C 810.757812 317.40625 807.664062 324.253906 801.535156 326.566406 C 766.265625 339.882812 738.125 346.367188 715.011719 346.367188 Z M 715.011719 346.367188 " fill-opacity="1" fill-rule="nonzero"/></g><path fill="#000000" d="M 126.253906 234.136719 C 101.027344 234.136719 80.503906 213.601562 80.503906 188.359375 C 80.503906 163.121094 101.027344 142.585938 126.253906 142.585938 C 151.480469 142.585938 172.003906 163.121094 172.003906 188.359375 C 172.003906 213.601562 151.480469 234.136719 126.253906 234.136719 Z M 126.253906 166.320312 C 114.105469 166.320312 104.226562 176.207031 104.226562 188.359375 C 104.226562 200.515625 114.105469 210.402344 126.253906 210.402344 C 138.398438 210.402344 148.28125 200.515625 148.28125 188.359375 C 148.28125 176.207031 138.398438 166.320312 126.253906 166.320312 Z M 126.253906 166.320312 " fill-opacity="1" fill-rule="nonzero"/><path fill="#000000" d="M 695.582031 259.515625 C 670.355469 259.515625 649.832031 238.980469 649.832031 213.738281 C 649.832031 188.496094 670.355469 167.960938 695.582031 167.960938 C 720.808594 167.960938 741.332031 188.496094 741.332031 213.738281 C 741.332031 238.980469 720.808594 259.515625 695.582031 259.515625 Z M 695.582031 191.699219 C 683.4375 191.699219 673.554688 201.585938 673.554688 213.738281 C 673.554688 225.890625 683.4375 235.777344 695.582031 235.777344 C 707.726562 235.777344 717.609375 225.890625 717.609375 213.738281 C 717.609375 201.585938 707.726562 191.699219 695.582031 191.699219 Z M 695.582031 191.699219 " fill-opacity="1" fill-rule="nonzero"/><path fill="#000000" d="M 551.28125 211.660156 C 530.726562 211.660156 514.003906 194.925781 514.003906 174.359375 C 514.003906 153.792969 530.726562 137.058594 551.28125 137.058594 C 571.835938 137.058594 588.558594 153.792969 588.558594 174.359375 C 588.558594 194.925781 571.835938 211.660156 551.28125 211.660156 Z M 551.28125 160.796875 C 543.808594 160.796875 537.726562 166.882812 537.726562 174.359375 C 537.726562 181.839844 543.808594 187.921875 551.28125 187.921875 C 558.757812 187.921875 564.835938 181.839844 564.835938 174.359375 C 564.835938 166.882812 558.757812 160.796875 551.28125 160.796875 Z M 551.28125 160.796875 " fill-opacity="1" fill-rule="nonzero"/><path fill="#000000" d="M 428.003906 178.351562 C 421.457031 178.351562 416.136719 173.039062 416.136719 166.484375 C 416.136719 159.929688 421.4375 154.617188 427.988281 154.617188 L 428.003906 154.617188 C 434.554688 154.617188 439.867188 159.929688 439.867188 166.484375 C 439.867188 173.039062 434.554688 178.351562 428.003906 178.351562 Z M 428.003906 178.351562 " fill-opacity="1" fill-rule="nonzero"/><path fill="#000000" d="M 217.566406 225.605469 C 211.015625 225.605469 205.699219 220.292969 205.699219 213.738281 C 205.699219 207.183594 211 201.871094 217.550781 201.871094 L 217.566406 201.871094 C 224.117188 201.871094 229.429688 207.183594 229.429688 213.738281 C 229.429688 220.292969 224.117188 225.605469 217.566406 225.605469 Z M 217.566406 225.605469 " fill-opacity="1" fill-rule="nonzero"/><path fill="#000000" d="M 661.726562 147.507812 C 655.175781 147.507812 649.855469 142.195312 649.855469 135.640625 C 649.855469 129.085938 655.160156 123.769531 661.710938 123.769531 L 661.726562 123.769531 C 668.277344 123.769531 673.585938 129.085938 673.585938 135.640625 C 673.585938 142.195312 668.277344 147.507812 661.726562 147.507812 Z M 661.726562 147.507812 " fill-opacity="1" fill-rule="nonzero"/><path fill="#000000" d="M 538.851562 268.921875 C 532.304688 268.921875 526.984375 263.609375 526.984375 257.054688 C 526.984375 250.5 532.285156 245.1875 538.835938 245.1875 L 538.851562 245.1875 C 545.402344 245.1875 550.714844 250.5 550.714844 257.054688 C 550.714844 263.609375 545.402344 268.921875 538.851562 268.921875 Z M 538.851562 268.921875 " fill-opacity="1" fill-rule="nonzero"/><path fill="#000000" d="M 303.539062 418.878906 C 286.355469 418.882812 269.964844 411.535156 260.148438 393.972656 C 243.621094 364.410156 261.492188 334.101562 287.6875 319.441406 C 313.875 304.78125 349.042969 305.40625 365.570312 334.964844 C 382.097656 364.523438 364.226562 394.832031 338.03125 409.496094 C 327.398438 415.445312 315.28125 418.878906 303.539062 418.878906 Z M 322.164062 333.726562 C 314.855469 333.726562 306.71875 335.984375 299.265625 340.15625 C 290.46875 345.078125 283.4375 352.21875 279.96875 359.738281 C 276.4375 367.402344 276.734375 375.023438 280.851562 382.382812 C 284.96875 389.746094 291.300781 393.988281 299.675781 394.984375 C 307.894531 395.96875 317.652344 393.703125 326.453125 388.78125 C 335.25 383.855469 342.28125 376.71875 345.746094 369.199219 C 349.28125 361.535156 348.984375 353.914062 344.867188 346.550781 C 340.75 339.1875 334.417969 334.949219 326.039062 333.949219 C 324.78125 333.800781 323.484375 333.726562 322.164062 333.726562 Z M 322.164062 333.726562 " fill-opacity="1" fill-rule="nonzero"/><path fill="#000000" d="M 137.128906 440.1875 C 126.167969 440.1875 114.871094 436.988281 104.953125 431.4375 C 80.472656 417.734375 63.800781 389.363281 79.285156 361.65625 C 87.601562 346.78125 101.804688 338.460938 119.285156 338.222656 C 119.535156 338.21875 119.789062 338.21875 120.042969 338.21875 C 142.230469 338.21875 165.496094 351.382812 176.835938 370.4375 C 185.78125 385.464844 186.128906 401.933594 177.8125 416.808594 C 168.597656 433.289062 153.226562 440.1875 137.128906 440.1875 Z M 120.042969 361.953125 C 119.898438 361.953125 119.753906 361.957031 119.605469 361.957031 C 110.707031 362.078125 104.109375 365.875 99.988281 373.246094 C 95.527344 381.226562 93.988281 398.101562 116.535156 410.722656 C 124.441406 415.148438 133.191406 417.179688 140.542969 416.308594 C 147.914062 415.429688 153.488281 411.695312 157.109375 405.21875 C 161.230469 397.851562 161.011719 390.234375 156.457031 382.582031 C 149.417969 370.761719 133.832031 361.953125 120.042969 361.953125 Z M 89.636719 367.449219 L 89.652344 367.449219 Z M 89.636719 367.449219 " fill-opacity="1" fill-rule="nonzero"/><path fill="#000000" d="M 423.054688 344.175781 C 419.867188 344.175781 416.683594 342.898438 414.347656 340.371094 L 395.535156 320.023438 C 391.085938 315.214844 391.375 307.703125 396.183594 303.253906 C 400.992188 298.800781 408.496094 299.089844 412.945312 303.90625 L 431.757812 324.25 C 436.207031 329.0625 435.917969 336.570312 431.109375 341.019531 C 428.824219 343.132812 425.9375 344.179688 423.054688 344.179688 Z M 423.054688 344.175781 " fill-opacity="1" fill-rule="nonzero"/><path fill="#000000" d="M 213.8125 367.148438 C 211.066406 367.148438 208.304688 366.199219 206.066406 364.261719 C 201.105469 359.976562 200.558594 352.484375 204.839844 347.523438 L 217.300781 333.085938 C 221.585938 328.121094 229.074219 327.574219 234.03125 331.859375 C 238.988281 336.144531 239.539062 343.636719 235.257812 348.597656 L 222.792969 363.035156 C 220.449219 365.753906 217.140625 367.148438 213.8125 367.148438 Z M 213.8125 367.148438 " fill-opacity="1" fill-rule="nonzero"/><path fill="#000000" d="M 729.480469 412.140625 C 728.527344 412.140625 727.554688 412.023438 726.589844 411.78125 L 712.050781 408.140625 C 705.695312 406.546875 701.835938 400.101562 703.425781 393.742188 C 705.015625 387.386719 711.464844 383.519531 717.8125 385.113281 L 732.351562 388.757812 C 738.707031 390.351562 742.566406 396.796875 740.976562 403.152344 C 739.628906 408.542969 734.792969 412.140625 729.480469 412.140625 Z M 729.480469 412.140625 " fill-opacity="1" fill-rule="nonzero"/><path fill="#000000" d="M 127.296875 526.015625 C 109.960938 526.015625 91.796875 524.203125 72.6875 519.871094 C 49.898438 514.707031 27.578125 506.363281 6.339844 495.074219 C 0.554688 491.996094 -1.640625 484.8125 1.433594 479.023438 C 4.503906 473.234375 11.6875 471.035156 17.472656 474.113281 C 36.851562 484.414062 57.191406 492.019531 77.925781 496.71875 C 144.574219 511.824219 198.082031 493.492188 249.832031 475.765625 C 282.101562 464.710938 312.578125 454.269531 344.113281 452.867188 C 350.660156 452.601562 356.195312 457.644531 356.488281 464.195312 C 356.78125 470.742188 351.710938 476.285156 345.167969 476.578125 C 317.039062 477.832031 288.125 487.734375 257.515625 498.222656 C 218.851562 511.464844 176.378906 526.015625 127.296875 526.015625 Z M 127.296875 526.015625 " fill-opacity="1" fill-rule="nonzero"/><g clip-path="url(#a9b2c389b6)"><path fill="#000000" d="M 797.363281 505.289062 C 796.832031 505.289062 796.296875 505.253906 795.753906 505.179688 C 785.226562 503.753906 774.726562 502.773438 764.539062 502.269531 C 757.996094 501.949219 752.953125 496.378906 753.273438 489.832031 C 753.597656 483.285156 759.167969 478.269531 765.707031 478.5625 C 776.566406 479.097656 787.75 480.140625 798.941406 481.660156 C 805.433594 482.539062 809.984375 488.519531 809.101562 495.015625 C 808.296875 500.96875 803.207031 505.289062 797.363281 505.289062 Z M 797.363281 505.289062 " fill-opacity="1" fill-rule="nonzero"/></g><path fill="#000000" d="M 158.59375 616.476562 C 153.101562 616.476562 148.175781 612.640625 147 607.046875 C 145.652344 600.632812 149.757812 594.339844 156.167969 592.992188 C 201.984375 583.355469 212.878906 564.371094 229.371094 535.628906 C 240.84375 515.632812 255.121094 490.75 284.855469 465.3125 C 289.835938 461.050781 297.324219 461.640625 301.578125 466.621094 C 305.835938 471.601562 305.25 479.09375 300.273438 483.351562 C 273.652344 506.125 261.054688 528.078125 249.941406 547.445312 C 232.40625 578.007812 217.265625 604.398438 161.046875 616.222656 C 160.222656 616.394531 159.402344 616.476562 158.59375 616.476562 Z M 158.59375 616.476562 " fill-opacity="1" fill-rule="nonzero"/><path fill="#000000" d="M 125.261719 654.648438 C 122.386719 654.648438 119.503906 653.609375 117.222656 651.503906 C 82.617188 619.570312 76.050781 592.164062 70.257812 567.984375 C 65.351562 547.511719 61.113281 529.832031 40.777344 509.191406 C 36.179688 504.523438 36.234375 497.007812 40.898438 492.40625 C 45.5625 487.804688 53.074219 487.859375 57.671875 492.527344 C 82.644531 517.871094 88.074219 540.535156 93.324219 562.453125 C 98.816406 585.367188 104.003906 607.015625 133.304688 634.058594 C 138.121094 638.503906 138.425781 646.007812 133.984375 650.828125 C 131.644531 653.363281 128.457031 654.648438 125.261719 654.648438 Z M 125.261719 654.648438 " fill-opacity="1" fill-rule="nonzero"/><path fill="#000000" d="M 281.816406 601.050781 C 278.410156 601.054688 275.035156 599.59375 272.6875 596.773438 C 268.5 591.730469 269.1875 584.25 274.226562 580.058594 C 299.183594 559.292969 324.105469 551.210938 352.636719 554.621094 C 359.140625 555.398438 363.785156 561.304688 363.007812 567.8125 C 362.230469 574.320312 356.332031 578.972656 349.824219 578.1875 C 335.066406 576.421875 314.863281 577.117188 289.390625 598.308594 C 287.175781 600.152344 284.488281 601.050781 281.816406 601.050781 Z M 281.816406 601.050781 " fill-opacity="1" fill-rule="nonzero"/><path fill="#000000" d="M 553.714844 698.480469 C 457.9375 698.480469 380.011719 620.511719 380.011719 524.671875 C 380.011719 428.835938 457.9375 350.867188 553.714844 350.867188 C 649.496094 350.867188 727.421875 428.835938 727.421875 524.671875 C 727.421875 620.507812 649.496094 698.480469 553.714844 698.480469 Z M 553.714844 374.601562 C 471.015625 374.601562 403.734375 441.921875 403.734375 524.671875 C 403.734375 607.421875 471.015625 674.742188 553.714844 674.742188 C 636.414062 674.742188 703.699219 607.421875 703.699219 524.671875 C 703.699219 441.921875 636.414062 374.601562 553.714844 374.601562 Z M 553.714844 374.601562 " fill-opacity="1" fill-rule="nonzero"/><path fill="#000000" d="M 553.714844 641.636719 C 489.257812 641.636719 436.816406 589.167969 436.816406 524.671875 C 436.816406 460.175781 489.257812 407.707031 553.714844 407.707031 C 618.175781 407.707031 670.613281 460.175781 670.613281 524.671875 C 670.613281 589.167969 618.171875 641.636719 553.714844 641.636719 Z M 553.714844 431.441406 C 502.339844 431.441406 460.539062 473.265625 460.539062 524.671875 C 460.539062 576.078125 502.339844 617.902344 553.714844 617.902344 C 605.09375 617.902344 646.890625 576.078125 646.890625 524.671875 C 646.890625 473.265625 605.089844 431.441406 553.714844 431.441406 Z M 553.714844 431.441406 " fill-opacity="1" fill-rule="nonzero"/><path fill="#000000" d="M 509.023438 536.539062 C 502.472656 536.539062 497.164062 531.226562 497.164062 524.671875 C 497.164062 493.46875 522.53125 468.085938 553.714844 468.085938 C 560.265625 468.085938 565.578125 473.398438 565.578125 479.953125 C 565.578125 486.507812 560.265625 491.820312 553.714844 491.820312 C 535.613281 491.820312 520.886719 506.558594 520.886719 524.671875 C 520.886719 531.226562 515.574219 536.539062 509.023438 536.539062 Z M 509.023438 536.539062 " fill-opacity="1" fill-rule="nonzero"/><g clip-path="url(#4361741dcc)"><path fill="#000000" d="M 756.296875 810.230469 C 755.105469 810.230469 753.914062 810.183594 752.710938 810.082031 C 741.125 809.128906 730.671875 803.660156 723.273438 794.6875 L 623.5 673.632812 C 619.332031 668.578125 620.050781 661.097656 625.105469 656.925781 C 630.160156 652.757812 637.636719 653.472656 641.800781 658.53125 L 741.578125 779.585938 C 744.863281 783.574219 749.507812 786.003906 754.65625 786.425781 C 759.796875 786.855469 764.78125 785.214844 768.675781 781.816406 L 778.984375 772.828125 C 782.875 769.433594 785.175781 764.71875 785.457031 759.558594 C 785.742188 754.398438 783.96875 749.460938 780.46875 745.660156 L 674.230469 630.246094 C 669.792969 625.425781 670.097656 617.917969 674.917969 613.476562 C 679.734375 609.035156 687.242188 609.34375 691.675781 614.164062 L 797.917969 729.578125 C 805.792969 738.132812 809.78125 749.242188 809.144531 760.855469 C 808.511719 772.46875 803.335938 783.078125 794.570312 790.71875 L 784.265625 799.710938 C 776.410156 806.558594 766.59375 810.230469 756.296875 810.230469 Z M 756.296875 810.230469 " fill-opacity="1" fill-rule="nonzero"/></g><g clip-path="url(#67b3231e79)"><g clip-path="url(#b82dbdf768)"><g transform="matrix(1, 0, 0, 1, 280, 467)"><g clip-path="url(#693fcc4440)"><g clip-path="url(#348fdf4164)"><g clip-path="url(#8e55836e4e)"><path fill="#000000" d="M 0.964844 0.257812 L 18.34375 0.257812 L 18.34375 17.636719 L 0.964844 17.636719 Z M 0.964844 0.257812 " fill-opacity="1" fill-rule="nonzero"/></g></g></g></g></g></g></svg>