<svg xmlns="http://www.w3.org/2000/svg" xmlns:xlink="http://www.w3.org/1999/xlink" width="1080" zoomAndPan="magnify" viewBox="0 0 810 809.999993" height="1080" preserveAspectRatio="xMidYMid meet" version="1.0"><defs><clipPath id="406923ba46"><path d="M 0 559 L 810 559 L 810 614.25 L 0 614.25 Z M 0 559 " clip-rule="nonzero"/></clipPath><clipPath id="17e970e3c2"><path d="M 254.667969 418.421875 L 272.046875 418.421875 L 272.046875 435.800781 L 254.667969 435.800781 Z M 254.667969 418.421875 " clip-rule="nonzero"/></clipPath><clipPath id="1a48fa23a4"><path d="M 263.359375 418.421875 C 258.558594 418.421875 254.667969 422.3125 254.667969 427.113281 C 254.667969 431.910156 258.558594 435.800781 263.359375 435.800781 C 268.15625 435.800781 272.046875 431.910156 272.046875 427.113281 C 272.046875 422.3125 268.15625 418.421875 263.359375 418.421875 Z M 263.359375 418.421875 " clip-rule="nonzero"/></clipPath><clipPath id="f8a03a3692"><path d="M 0.667969 0.421875 L 18.046875 0.421875 L 18.046875 17.800781 L 0.667969 17.800781 Z M 0.667969 0.421875 " clip-rule="nonzero"/></clipPath><clipPath id="5cf19b8eae"><path d="M 9.359375 0.421875 C 4.558594 0.421875 0.667969 4.3125 0.667969 9.113281 C 0.667969 13.910156 4.558594 17.800781 9.359375 17.800781 C 14.15625 17.800781 18.046875 13.910156 18.046875 9.113281 C 18.046875 4.3125 14.15625 0.421875 9.359375 0.421875 Z M 9.359375 0.421875 " clip-rule="nonzero"/></clipPath><clipPath id="a2a2240c3d"><rect x="0" width="19" y="0" height="18"/></clipPath></defs><path fill="#000000" d="M 12.898438 25.949219 L 797.109375 25.949219 C 804.214844 25.949219 809.976562 20.191406 809.976562 13.082031 C 809.976562 5.972656 804.214844 0.214844 797.109375 0.214844 L 12.898438 0.214844 C 5.789062 0.214844 0.0273438 5.972656 0.0273438 13.082031 C 0.0273438 20.191406 5.789062 25.949219 12.898438 25.949219 Z M 12.898438 25.949219 " fill-opacity="1" fill-rule="nonzero"/><path fill="#000000" d="M 797.109375 93.523438 L 12.898438 93.523438 C 5.789062 93.523438 0.0273438 99.28125 0.0273438 106.390625 C 0.0273438 113.5 5.789062 119.257812 12.898438 119.257812 L 797.109375 119.257812 C 804.214844 119.257812 809.976562 113.5 809.976562 106.390625 C 809.976562 99.28125 804.214844 93.523438 797.109375 93.523438 Z M 797.109375 93.523438 " fill-opacity="1" fill-rule="nonzero"/><g clip-path="url(#406923ba46)"><path fill="#000000" d="M 797.109375 559.066406 C 761.65625 559.066406 742.953125 567.527344 726.449219 574.992188 C 710.945312 582.003906 696.300781 588.628906 666.398438 588.628906 C 636.496094 588.628906 621.855469 582.003906 606.347656 574.992188 C 589.847656 567.523438 571.140625 559.066406 535.691406 559.066406 C 500.238281 559.066406 481.535156 567.527344 465.035156 574.992188 C 449.53125 582.003906 434.886719 588.628906 404.984375 588.628906 C 375.085938 588.628906 360.445312 582.003906 344.941406 574.992188 C 328.441406 567.523438 309.738281 559.066406 274.285156 559.066406 C 238.835938 559.066406 220.132812 567.527344 203.636719 574.992188 C 188.132812 582.003906 173.492188 588.628906 143.59375 588.628906 C 113.695312 588.628906 99.050781 582.003906 83.546875 574.992188 C 67.046875 567.523438 48.34375 559.066406 12.894531 559.066406 C 5.789062 559.066406 0.0273438 564.824219 0.0273438 571.933594 C 0.0273438 579.042969 5.789062 584.800781 12.894531 584.800781 C 42.792969 584.800781 57.4375 591.425781 72.941406 598.441406 C 89.441406 605.90625 108.144531 614.363281 143.59375 614.363281 C 179.039062 614.363281 197.742188 605.902344 214.242188 598.441406 C 229.746094 591.425781 244.386719 584.800781 274.285156 584.800781 C 304.1875 584.800781 318.828125 591.425781 334.332031 598.441406 C 350.832031 605.90625 369.535156 614.363281 404.984375 614.363281 C 440.4375 614.363281 459.140625 605.902344 475.640625 598.441406 C 491.144531 591.425781 505.789062 584.800781 535.691406 584.800781 C 565.589844 584.800781 580.234375 591.425781 595.742188 598.441406 C 612.242188 605.90625 630.945312 614.363281 666.398438 614.363281 C 701.851562 614.363281 720.554688 605.902344 737.058594 598.441406 C 752.5625 591.425781 767.207031 584.800781 797.109375 584.800781 C 804.214844 584.800781 809.976562 579.042969 809.976562 571.933594 C 809.976562 564.824219 804.214844 559.066406 797.109375 559.066406 Z M 797.109375 559.066406 " fill-opacity="1" fill-rule="nonzero"/></g><path fill="#000000" d="M 809.976562 284.503906 C 809.976562 277.398438 804.214844 271.636719 797.109375 271.636719 L 12.898438 271.636719 C 5.789062 271.636719 0.0273438 277.398438 0.0273438 284.503906 C 0.0273438 291.613281 5.789062 297.375 12.898438 297.375 L 42.214844 297.375 C 30.039062 310.996094 22.613281 328.953125 22.613281 348.617188 C 22.613281 360.421875 25.292969 371.609375 30.0625 381.617188 C 10.652344 406.234375 0.0273438 436.625 0.0273438 468.195312 C 0.0273438 475.015625 0.523438 481.839844 1.503906 488.558594 C 0.566406 490.34375 0.0273438 492.371094 0.0273438 494.527344 C 0.0273438 501.636719 5.789062 507.394531 12.898438 507.394531 L 797.109375 507.394531 C 804.214844 507.394531 809.976562 501.636719 809.976562 494.527344 C 809.976562 487.417969 804.214844 481.660156 797.109375 481.660156 L 788.707031 481.660156 C 799.511719 466.210938 805.445312 447.746094 805.445312 428.21875 C 805.445312 396.109375 789.191406 366.699219 762.523438 349.5625 C 762.527344 349.246094 762.546875 348.933594 762.546875 348.617188 C 762.546875 328.949219 755.125 310.992188 742.949219 297.371094 L 797.109375 297.371094 C 804.214844 297.375 809.976562 291.613281 809.976562 284.503906 Z M 382.824219 481.664062 C 376.390625 471.089844 372.996094 459.027344 372.996094 446.511719 C 372.996094 435.839844 375.445312 425.558594 380.125 416.230469 C 391.058594 422.203125 403.589844 425.601562 416.90625 425.601562 C 443.398438 425.601562 466.804688 412.148438 480.660156 391.71875 C 492.175781 400.109375 500.847656 411.96875 505.269531 425.636719 C 505.230469 426.613281 505.195312 427.589844 505.195312 428.574219 C 505.195312 436.203125 506.328125 443.574219 508.402344 450.539062 C 507.753906 461.601562 504.457031 472.246094 498.730469 481.667969 L 382.824219 481.667969 Z M 515.464844 390.226562 C 508.867188 381.480469 500.734375 373.917969 491.433594 367.917969 C 493.035156 361.75 493.886719 355.28125 493.886719 348.621094 C 493.886719 328.953125 486.464844 310.996094 474.289062 297.375 L 521.296875 297.375 C 521.449219 320.765625 530.285156 343.042969 546.527344 360.375 C 533.558594 367.179688 522.765625 377.570312 515.464844 390.226562 Z M 468.152344 348.621094 C 468.152344 376.878906 445.164062 399.863281 416.90625 399.863281 C 388.648438 399.863281 365.660156 376.878906 365.660156 348.621094 C 365.660156 320.363281 388.648438 297.375 416.90625 297.375 C 445.160156 297.375 468.152344 320.363281 468.152344 348.621094 Z M 232.597656 357.972656 C 236.519531 324.300781 265.199219 298.078125 299.90625 298.078125 C 317.550781 298.078125 334.222656 304.867188 346.785156 316.917969 C 342.394531 326.589844 339.925781 337.320312 339.925781 348.621094 C 339.925781 367.953125 347.105469 385.632812 358.917969 399.164062 C 347 420.332031 324.660156 433.640625 299.90625 433.640625 C 292.660156 433.640625 285.625 432.507812 278.882812 430.300781 C 278.894531 429.722656 278.925781 429.152344 278.925781 428.570312 C 278.925781 397.011719 259.832031 369.84375 232.597656 357.972656 Z M 207.445312 351.808594 C 205.628906 351.679688 203.796875 351.589844 201.945312 351.589844 C 192.921875 351.589844 184.261719 353.164062 176.214844 356.027344 C 176.445312 353.589844 176.578125 351.121094 176.578125 348.621094 C 176.578125 328.953125 169.15625 310.996094 156.976562 297.375 L 236.3125 297.375 C 221.171875 311.445312 210.679688 330.445312 207.445312 351.808594 Z M 201.945312 377.324219 C 230.199219 377.324219 253.191406 400.3125 253.191406 428.570312 C 253.191406 456.824219 230.203125 479.8125 201.945312 479.8125 C 173.6875 479.8125 150.699219 456.824219 150.699219 428.570312 C 150.699219 400.3125 173.6875 377.324219 201.945312 377.324219 Z M 273.960938 455.730469 C 282.332031 458.152344 291.011719 459.378906 299.90625 459.378906 C 316.976562 459.378906 333.222656 454.785156 347.261719 446.550781 C 347.269531 458.730469 349.605469 470.601562 354.097656 481.660156 L 257.605469 481.660156 C 264.667969 474.261719 270.277344 465.46875 273.960938 455.730469 Z M 582.175781 479.8125 C 553.917969 479.8125 530.929688 456.824219 530.929688 428.570312 C 530.929688 400.3125 553.917969 377.324219 582.175781 377.324219 C 610.429688 377.324219 633.417969 400.3125 633.417969 428.570312 C 633.417969 456.824219 610.429688 479.8125 582.175781 479.8125 Z M 582.175781 351.589844 C 579.988281 351.589844 577.832031 351.703125 575.691406 351.882812 C 572.5625 349.664062 569.601562 347.175781 566.867188 344.445312 C 554.152344 331.726562 547.207031 314.988281 547.03125 297.375 L 628.183594 297.375 C 616.007812 310.996094 608.585938 328.953125 608.585938 348.617188 C 608.585938 351.246094 608.71875 353.847656 608.980469 356.410156 C 600.625 353.300781 591.597656 351.589844 582.175781 351.589844 Z M 150.839844 348.621094 C 150.839844 376.878906 127.851562 399.863281 99.59375 399.863281 C 71.339844 399.863281 48.351562 376.878906 48.351562 348.621094 C 48.351562 320.363281 71.339844 297.375 99.59375 297.375 C 127.851562 297.375 150.839844 320.363281 150.839844 348.621094 Z M 45.792969 403.601562 C 59.679688 417.199219 78.671875 425.597656 99.59375 425.597656 C 108.617188 425.597656 117.277344 424.027344 125.328125 421.160156 C 125.09375 423.601562 124.964844 426.070312 124.964844 428.566406 C 124.964844 449.140625 133.089844 467.835938 146.28125 481.660156 L 26.582031 481.660156 C 26.058594 477.203125 25.765625 472.703125 25.765625 468.195312 C 25.765625 444.964844 32.804688 422.519531 45.792969 403.601562 Z M 779.710938 428.21875 C 779.710938 449.308594 770.195312 468.710938 753.589844 481.660156 L 637.835938 481.660156 C 651.03125 467.835938 659.15625 449.140625 659.15625 428.570312 C 659.15625 425.9375 659.023438 423.339844 658.761719 420.777344 C 667.113281 423.890625 676.144531 425.597656 685.570312 425.597656 C 717.796875 425.597656 745.445312 405.683594 756.898438 377.519531 C 771.234375 390.214844 779.710938 408.503906 779.710938 428.21875 Z M 736.8125 348.621094 C 736.8125 376.878906 713.824219 399.863281 685.566406 399.863281 C 657.3125 399.863281 634.320312 376.878906 634.320312 348.621094 C 634.320312 320.363281 657.308594 297.375 685.566406 297.375 C 713.824219 297.375 736.8125 320.363281 736.8125 348.621094 Z M 736.8125 348.621094 " fill-opacity="1" fill-rule="nonzero"/><path fill="#000000" d="M 26.179688 173.691406 C 35.199219 187.722656 57.058594 173.144531 47.574219 159.417969 C 38.550781 145.394531 16.683594 159.972656 26.179688 173.691406 Z M 26.179688 173.691406 " fill-opacity="1" fill-rule="nonzero"/><path fill="#000000" d="M 173.425781 173.691406 C 182.449219 187.722656 204.320312 173.140625 194.820312 159.417969 C 185.804688 145.386719 163.941406 159.96875 173.425781 173.691406 Z M 173.425781 173.691406 " fill-opacity="1" fill-rule="nonzero"/><path fill="#000000" d="M 99.804688 233.164062 C 108.851562 247.179688 130.6875 232.59375 121.199219 218.867188 C 112.152344 204.863281 90.316406 219.429688 99.804688 233.164062 Z M 99.804688 233.164062 " fill-opacity="1" fill-rule="nonzero"/><path fill="#000000" d="M 320.671875 173.691406 C 329.71875 187.710938 351.546875 173.160156 342.082031 159.417969 C 333.039062 145.402344 311.214844 159.949219 320.671875 173.691406 Z M 320.671875 173.691406 " fill-opacity="1" fill-rule="nonzero"/><path fill="#000000" d="M 247.046875 233.164062 C 256.113281 247.179688 277.933594 232.597656 268.441406 218.867188 C 259.40625 204.878906 237.582031 219.417969 247.046875 233.164062 Z M 247.046875 233.164062 " fill-opacity="1" fill-rule="nonzero"/><path fill="#000000" d="M 467.929688 173.691406 C 476.953125 187.722656 498.808594 173.144531 489.328125 159.417969 C 480.308594 145.390625 458.433594 159.972656 467.929688 173.691406 Z M 467.929688 173.691406 " fill-opacity="1" fill-rule="nonzero"/><path fill="#000000" d="M 394.3125 233.164062 C 403.355469 247.183594 425.179688 232.597656 415.703125 218.867188 C 406.648438 204.863281 384.820312 219.433594 394.3125 233.164062 Z M 394.3125 233.164062 " fill-opacity="1" fill-rule="nonzero"/><path fill="#000000" d="M 615.179688 173.691406 C 624.203125 187.722656 646.074219 173.140625 636.570312 159.417969 C 627.558594 145.386719 605.691406 159.96875 615.179688 173.691406 Z M 615.179688 173.691406 " fill-opacity="1" fill-rule="nonzero"/><path fill="#000000" d="M 541.554688 233.164062 C 550.605469 247.179688 572.433594 232.597656 562.949219 218.867188 C 553.902344 204.863281 532.078125 219.425781 541.554688 233.164062 Z M 541.554688 233.164062 " fill-opacity="1" fill-rule="nonzero"/><path fill="#000000" d="M 762.441406 173.691406 C 771.460938 187.722656 793.304688 173.144531 783.832031 159.417969 C 774.800781 145.402344 752.933594 159.972656 762.441406 173.691406 Z M 762.441406 173.691406 " fill-opacity="1" fill-rule="nonzero"/><path fill="#000000" d="M 688.796875 233.164062 C 697.871094 247.167969 719.664062 232.613281 710.210938 218.867188 C 701.136719 204.878906 679.351562 219.40625 688.796875 233.164062 Z M 688.796875 233.164062 " fill-opacity="1" fill-rule="nonzero"/><g clip-path="url(#17e970e3c2)"><g clip-path="url(#1a48fa23a4)"><g transform="matrix(1, 0, 0, 1, 254, 418)"><g clip-path="url(#a2a2240c3d)"><g clip-path="url(#f8a03a3692)"><g clip-path="url(#5cf19b8eae)"><path fill="#000000" d="M 0.667969 0.421875 L 18.046875 0.421875 L 18.046875 17.800781 L 0.667969 17.800781 Z M 0.667969 0.421875 " fill-opacity="1" fill-rule="nonzero"/></g></g></g></g></g></g></svg>