<svg xmlns="http://www.w3.org/2000/svg" xmlns:xlink="http://www.w3.org/1999/xlink" width="1080" zoomAndPan="magnify" viewBox="0 0 810 809.999993" height="1080" preserveAspectRatio="xMidYMid meet" version="1.0"><defs><clipPath id="85e101a09f"><path d="M 273.453125 501.066406 L 290.832031 501.066406 L 290.832031 518.445312 L 273.453125 518.445312 Z M 273.453125 501.066406 " clip-rule="nonzero"/></clipPath><clipPath id="00202c3c68"><path d="M 282.140625 501.066406 C 277.34375 501.066406 273.453125 504.957031 273.453125 509.753906 C 273.453125 514.554688 277.34375 518.445312 282.140625 518.445312 C 286.941406 518.445312 290.832031 514.554688 290.832031 509.753906 C 290.832031 504.957031 286.941406 501.066406 282.140625 501.066406 Z M 282.140625 501.066406 " clip-rule="nonzero"/></clipPath><clipPath id="5cf9755b67"><path d="M 0.453125 0.0664062 L 17.832031 0.0664062 L 17.832031 17.445312 L 0.453125 17.445312 Z M 0.453125 0.0664062 " clip-rule="nonzero"/></clipPath><clipPath id="bd9523a0fe"><path d="M 9.140625 0.0664062 C 4.34375 0.0664062 0.453125 3.957031 0.453125 8.753906 C 0.453125 13.554688 4.34375 17.445312 9.140625 17.445312 C 13.941406 17.445312 17.832031 13.554688 17.832031 8.753906 C 17.832031 3.957031 13.941406 0.0664062 9.140625 0.0664062 Z M 9.140625 0.0664062 " clip-rule="nonzero"/></clipPath><clipPath id="8f5c18c758"><rect x="0" width="18" y="0" height="18"/></clipPath></defs><path fill="#000000" d="M 714.175781 689.796875 C 707.460938 689.796875 700.910156 690.527344 694.582031 691.859375 C 689.296875 644.554688 649.109375 607.636719 600.414062 607.636719 C 555.914062 607.636719 518.238281 637.921875 508.246094 680.550781 C 492.179688 688.410156 478.84375 700.632812 469.527344 715.703125 C 452.109375 699.253906 428.949219 689.796875 404.488281 689.796875 C 380.105469 689.796875 357.085938 699.304688 339.695312 715.679688 C 330.347656 700.582031 316.835938 688.433594 300.71875 680.570312 C 290.808594 638.820312 253.296875 607.636719 208.566406 607.636719 C 159.867188 607.636719 119.679688 644.554688 114.394531 691.859375 C 108.066406 690.527344 101.515625 689.796875 94.800781 689.796875 C 42.527344 689.796875 0 732.328125 0 784.601562 L 0 797.242188 C 0 804.21875 5.664062 809.882812 12.640625 809.882812 C 19.617188 809.882812 25.28125 804.21875 25.28125 797.242188 L 25.28125 784.601562 C 25.28125 746.269531 56.46875 715.078125 94.800781 715.078125 C 133.132812 715.078125 164.324219 746.269531 164.324219 784.601562 L 164.324219 797.242188 C 164.324219 804.21875 169.984375 809.882812 176.964844 809.882812 C 183.941406 809.882812 189.605469 804.21875 189.605469 797.242188 L 189.605469 784.601562 C 189.605469 748.335938 169.113281 716.792969 139.125 700.859375 C 139.972656 663.261719 170.765625 632.917969 208.566406 632.917969 C 246.894531 632.917969 278.085938 664.105469 278.085938 702.4375 L 278.085938 708.757812 C 278.085938 715.738281 283.75 721.398438 290.726562 721.398438 C 296.648438 721.398438 301.578125 717.316406 302.949219 711.816406 C 312.777344 719.792969 320.398438 730.335938 324.695312 742.570312 C 327.320312 749.941406 328.648438 757.695312 328.648438 765.640625 L 328.648438 771.960938 C 328.648438 778.9375 334.308594 784.601562 341.289062 784.601562 C 348.265625 784.601562 353.925781 778.9375 353.925781 771.960938 L 353.925781 765.640625 C 353.925781 757.195312 352.785156 748.890625 350.609375 740.878906 C 363.761719 724.679688 383.441406 715.078125 404.488281 715.078125 C 427.476562 715.078125 448.945312 726.4375 461.933594 745.480469 C 469.832031 757.027344 474.011719 770.550781 474.011719 784.601562 L 474.011719 790.921875 C 474.011719 797.898438 479.671875 803.5625 486.648438 803.5625 C 493.628906 803.5625 499.289062 797.898438 499.289062 790.921875 L 499.289062 784.601562 C 499.289062 767.777344 494.890625 751.496094 486.523438 737.109375 C 493.875 720.761719 507.234375 707.785156 524.046875 701.082031 C 532.226562 697.789062 540.902344 696.121094 549.851562 696.121094 C 556.828125 696.121094 562.492188 690.457031 562.492188 683.480469 C 562.492188 676.5 556.828125 670.839844 549.851562 670.839844 C 545.894531 670.839844 541.988281 671.167969 538.117188 671.648438 C 549.492188 648.390625 573.191406 632.917969 600.414062 632.917969 C 638.214844 632.917969 669.003906 663.261719 669.851562 700.859375 C 639.863281 716.796875 619.375 748.335938 619.375 784.601562 L 619.375 797.242188 C 619.375 804.21875 625.035156 809.882812 632.015625 809.882812 C 638.992188 809.882812 644.652344 804.21875 644.652344 797.242188 L 644.652344 784.601562 C 644.652344 746.269531 675.84375 715.078125 714.175781 715.078125 C 752.507812 715.078125 783.695312 746.269531 783.695312 784.601562 L 783.695312 797.242188 C 783.695312 804.21875 789.359375 809.882812 796.335938 809.882812 C 803.316406 809.882812 808.976562 804.21875 808.976562 797.242188 L 808.976562 784.601562 C 808.976562 732.328125 766.449219 689.796875 714.175781 689.796875 Z M 714.175781 689.796875 " fill-opacity="1" fill-rule="nonzero"/><path fill="#000000" d="M 602.472656 361.550781 C 587.726562 359.109375 574.839844 362.53125 566.195312 371.175781 C 548.699219 388.667969 555.230469 422.324219 572.515625 439.609375 C 579.460938 446.5625 597.644531 461.382812 616.308594 472.601562 C 623.640625 477.007812 641.492188 487.738281 657.445312 487.738281 C 664.1875 487.738281 670.589844 485.816406 675.714844 480.699219 C 704.460938 451.953125 635.355469 378.222656 634.636719 377.503906 C 626.652344 369.519531 614.632812 363.554688 602.472656 361.550781 Z M 590.386719 421.738281 C 581.640625 412.988281 578.152344 394.964844 584.066406 389.050781 C 586.015625 387.109375 589.402344 386.074219 593.5625 386.074219 C 595.066406 386.074219 596.671875 386.203125 598.34375 386.484375 C 605.277344 387.625 612.496094 391.117188 616.75 395.363281 C 632.867188 411.484375 659.140625 451.101562 657.578125 462.558594 C 646.132812 464.125 606.503906 437.851562 590.386719 421.738281 Z M 590.386719 421.738281 " fill-opacity="1" fill-rule="nonzero"/><path fill="#000000" d="M 503.378906 581.792969 C 506.488281 582.304688 509.511719 582.558594 512.421875 582.558594 C 523.363281 582.558594 532.832031 578.992188 539.664062 572.164062 C 557.15625 554.667969 550.628906 521.007812 533.34375 503.722656 C 526.398438 496.777344 508.214844 481.949219 489.550781 470.730469 C 479.121094 464.46875 447.390625 445.398438 430.140625 462.640625 C 401.398438 491.386719 470.5 565.117188 471.222656 565.84375 C 479.199219 573.816406 491.21875 579.785156 503.378906 581.792969 Z M 515.464844 521.609375 C 519.710938 525.855469 523.199219 533.078125 524.347656 540.011719 C 525.390625 546.308594 524.433594 551.648438 521.785156 554.289062 C 519.140625 556.929688 513.800781 557.890625 507.507812 556.855469 C 500.574219 555.703125 493.347656 552.222656 489.101562 547.96875 C 472.984375 531.851562 446.707031 492.230469 448.273438 480.78125 C 459.726562 479.207031 499.347656 505.484375 515.464844 521.609375 Z M 515.464844 521.609375 " fill-opacity="1" fill-rule="nonzero"/><path fill="#000000" d="M 281.789062 572.332031 C 288.734375 579.285156 306.917969 594.105469 325.582031 605.324219 C 332.914062 609.730469 350.765625 620.460938 366.71875 620.460938 C 373.460938 620.460938 379.863281 618.539062 384.992188 613.421875 C 413.734375 584.675781 344.628906 510.945312 343.910156 510.226562 C 335.933594 502.25 323.914062 496.28125 311.753906 494.277344 C 297.007812 491.839844 284.121094 495.257812 275.476562 503.90625 C 257.976562 521.390625 264.503906 555.046875 281.789062 572.332031 Z M 293.34375 521.773438 C 295.289062 519.832031 298.675781 518.792969 302.835938 518.792969 C 304.339844 518.792969 305.945312 518.925781 307.621094 519.207031 C 314.554688 520.347656 321.769531 523.839844 326.023438 528.085938 C 342.140625 544.207031 368.414062 583.824219 366.851562 595.28125 C 355.398438 596.847656 315.773438 570.570312 299.65625 554.453125 C 290.914062 545.710938 287.433594 527.6875 293.34375 521.773438 Z M 293.34375 521.773438 " fill-opacity="1" fill-rule="nonzero"/><path fill="#000000" d="M 182.796875 488.179688 C 188.433594 492.578125 195.222656 494.890625 202.175781 494.890625 C 204.746094 494.890625 207.34375 494.574219 209.910156 493.929688 L 216.171875 492.363281 C 249.207031 484.105469 273.371094 456.945312 277.730469 423.171875 L 292.550781 308.335938 C 295.339844 286.71875 305.8125 267.089844 322.035156 253.058594 C 353.566406 225.789062 403.648438 192.917969 467.367188 185.648438 L 452.804688 206.03125 L 412.425781 227.5625 C 376.210938 246.878906 350.5 280.976562 341.898438 321.113281 L 340.792969 326.277344 C 338.605469 336.464844 341.582031 347.070312 348.738281 354.640625 C 355.859375 362.183594 366.21875 365.726562 376.445312 364.136719 C 411.210938 358.71875 461.976562 346.628906 506.375 319.800781 C 523.191406 309.636719 543.019531 304.265625 563.71875 304.265625 L 570.734375 304.265625 C 598.976562 304.265625 626.039062 295.441406 648.988281 278.75 C 690.6875 248.425781 741.3125 202.117188 745.710938 153.726562 C 746.34375 146.773438 741.222656 140.625 734.265625 139.992188 C 727.308594 139.359375 721.164062 144.480469 720.53125 151.4375 C 717.769531 181.832031 687.078125 219.785156 634.117188 258.304688 C 615.53125 271.84375 593.613281 278.992188 570.746094 278.992188 L 563.730469 278.992188 C 538.429688 278.992188 514.078125 285.621094 493.3125 298.171875 C 450.277344 324.171875 399.1875 335.019531 372.566406 339.164062 C 369.785156 339.601562 367.957031 338.171875 367.125 337.289062 C 366.433594 336.554688 364.886719 334.53125 365.523438 331.582031 L 366.628906 326.417969 C 373.671875 293.578125 394.699219 265.679688 424.332031 249.875 L 467.328125 226.945312 C 469.046875 226.027344 470.535156 224.726562 471.664062 223.140625 L 495.851562 189.277344 C 500.125 183.292969 500.578125 175.566406 497.035156 169.117188 C 493.480469 162.648438 486.699219 158.875 479.34375 159.289062 C 402.128906 163.515625 342.195312 202.214844 305.515625 233.941406 C 284.582031 252.042969 271.078125 277.316406 267.492188 305.097656 L 252.679688 419.9375 C 249.65625 443.320312 232.929688 462.125 210.0625 467.84375 L 203.800781 469.410156 C 201.195312 470.0625 199.285156 468.96875 198.375 468.261719 C 197.464844 467.550781 195.945312 465.960938 195.945312 463.28125 L 195.945312 281.871094 C 195.945312 254.859375 206.460938 229.464844 225.566406 210.367188 L 348.238281 87.691406 C 365.910156 70.023438 389.296875 58.519531 414.082031 55.308594 L 639.984375 26.078125 C 646.902344 25.179688 651.789062 18.839844 650.898438 11.921875 C 650 5 643.667969 0.113281 636.742188 1.007812 L 410.808594 30.242188 C 380.515625 34.160156 351.9375 48.21875 330.335938 69.820312 L 207.660156 192.492188 C 183.796875 216.363281 170.644531 248.109375 170.644531 281.871094 L 170.644531 463.273438 C 170.644531 473.070312 175.074219 482.152344 182.796875 488.179688 Z M 182.796875 488.179688 " fill-opacity="1" fill-rule="nonzero"/><path fill="#000000" d="M 297.046875 449.640625 C 298.367188 449.640625 299.71875 449.429688 301.039062 448.988281 L 327.351562 440.214844 C 350.5 432.5 367.855469 412.839844 372.640625 388.910156 C 374.011719 382.066406 369.574219 375.402344 362.726562 374.039062 C 355.878906 372.667969 349.21875 377.105469 347.851562 383.953125 C 344.839844 399.007812 333.925781 411.378906 319.355469 416.230469 L 293.046875 425.003906 C 286.421875 427.214844 282.84375 434.371094 285.050781 440.996094 C 286.820312 446.289062 291.75 449.640625 297.046875 449.640625 Z M 297.046875 449.640625 " fill-opacity="1" fill-rule="nonzero"/><path fill="#000000" d="M 461.121094 369.949219 C 462.496094 363.105469 458.058594 356.441406 451.207031 355.078125 C 444.363281 353.699219 437.699219 358.144531 436.335938 364.996094 C 433.320312 380.050781 422.40625 392.417969 407.839844 397.273438 L 381.527344 406.042969 C 374.902344 408.253906 371.328125 415.410156 373.53125 422.035156 C 375.296875 427.328125 380.230469 430.679688 385.523438 430.679688 C 386.84375 430.679688 388.195312 430.472656 389.515625 430.027344 L 415.828125 421.257812 C 438.984375 413.539062 456.339844 393.878906 461.121094 369.949219 Z M 461.121094 369.949219 " fill-opacity="1" fill-rule="nonzero"/><g clip-path="url(#85e101a09f)"><g clip-path="url(#00202c3c68)"><g transform="matrix(1, 0, 0, 1, 273, 501)"><g clip-path="url(#8f5c18c758)"><g clip-path="url(#5cf9755b67)"><g clip-path="url(#bd9523a0fe)"><path fill="#000000" d="M 0.453125 0.0664062 L 17.832031 0.0664062 L 17.832031 17.445312 L 0.453125 17.445312 Z M 0.453125 0.0664062 " fill-opacity="1" fill-rule="nonzero"/></g></g></g></g></g></g></svg>