<svg xmlns="http://www.w3.org/2000/svg" xmlns:xlink="http://www.w3.org/1999/xlink" width="1080" zoomAndPan="magnify" viewBox="0 0 810 809.999993" height="1080" preserveAspectRatio="xMidYMid meet" version="1.0"><defs><clipPath id="126a23c15f"><path d="M 0 0 L 144 0 L 144 206.25 L 0 206.25 Z M 0 0 " clip-rule="nonzero"/></clipPath></defs><path fill="#000000" d="M 571.964844 737.921875 C 571.964844 738.457031 571.9375 738.988281 571.886719 739.515625 C 571.835938 740.046875 571.757812 740.570312 571.652344 741.09375 C 571.550781 741.617188 571.417969 742.132812 571.265625 742.640625 C 571.109375 743.152344 570.933594 743.652344 570.726562 744.144531 C 570.523438 744.636719 570.296875 745.117188 570.046875 745.585938 C 569.796875 746.054688 569.523438 746.511719 569.226562 746.953125 C 568.929688 747.398438 568.613281 747.824219 568.277344 748.234375 C 567.9375 748.648438 567.582031 749.039062 567.207031 749.417969 C 566.828125 749.792969 566.433594 750.152344 566.023438 750.488281 C 565.613281 750.824219 565.183594 751.144531 564.742188 751.4375 C 564.300781 751.734375 563.84375 752.007812 563.375 752.257812 C 562.90625 752.511719 562.425781 752.738281 561.933594 752.941406 C 561.441406 753.144531 560.941406 753.324219 560.429688 753.476562 C 559.921875 753.632812 559.40625 753.761719 558.882812 753.867188 C 558.363281 753.96875 557.835938 754.046875 557.304688 754.101562 C 556.777344 754.152344 556.246094 754.179688 555.714844 754.179688 C 555.179688 754.179688 554.652344 754.152344 554.121094 754.101562 C 553.589844 754.046875 553.066406 753.96875 552.542969 753.867188 C 552.019531 753.761719 551.503906 753.632812 550.996094 753.476562 C 550.488281 753.324219 549.984375 753.144531 549.496094 752.941406 C 549.003906 752.738281 548.523438 752.511719 548.054688 752.257812 C 547.582031 752.007812 547.128906 751.734375 546.683594 751.4375 C 546.242188 751.144531 545.816406 750.824219 545.402344 750.488281 C 544.992188 750.152344 544.597656 749.792969 544.222656 749.417969 C 543.847656 749.039062 543.488281 748.648438 543.152344 748.234375 C 542.8125 747.824219 542.496094 747.398438 542.199219 746.953125 C 541.90625 746.511719 541.632812 746.054688 541.382812 745.585938 C 541.128906 745.117188 540.902344 744.636719 540.699219 744.144531 C 540.496094 743.652344 540.316406 743.152344 540.160156 742.640625 C 540.007812 742.132812 539.878906 741.617188 539.773438 741.09375 C 539.671875 740.570312 539.59375 740.046875 539.539062 739.515625 C 539.488281 738.988281 539.460938 738.457031 539.460938 737.921875 C 539.460938 737.390625 539.488281 736.859375 539.539062 736.328125 C 539.59375 735.800781 539.671875 735.273438 539.773438 734.75 C 539.878906 734.230469 540.007812 733.714844 540.160156 733.203125 C 540.316406 732.695312 540.496094 732.195312 540.699219 731.703125 C 540.902344 731.210938 541.128906 730.730469 541.382812 730.261719 C 541.632812 729.789062 541.90625 729.335938 542.199219 728.890625 C 542.496094 728.449219 542.8125 728.023438 543.152344 727.609375 C 543.488281 727.199219 543.847656 726.804688 544.222656 726.429688 C 544.597656 726.050781 544.992188 725.695312 545.402344 725.355469 C 545.816406 725.019531 546.242188 724.703125 546.683594 724.40625 C 547.128906 724.113281 547.582031 723.839844 548.054688 723.585938 C 548.523438 723.335938 549.003906 723.109375 549.496094 722.90625 C 549.984375 722.703125 550.488281 722.523438 550.996094 722.367188 C 551.503906 722.214844 552.019531 722.082031 552.542969 721.980469 C 553.066406 721.875 553.589844 721.796875 554.121094 721.746094 C 554.652344 721.695312 555.179688 721.667969 555.714844 721.667969 C 556.246094 721.667969 556.777344 721.695312 557.304688 721.746094 C 557.835938 721.796875 558.363281 721.875 558.882812 721.980469 C 559.40625 722.082031 559.921875 722.214844 560.429688 722.367188 C 560.941406 722.523438 561.441406 722.703125 561.933594 722.90625 C 562.425781 723.109375 562.90625 723.335938 563.375 723.585938 C 563.84375 723.839844 564.300781 724.113281 564.742188 724.40625 C 565.183594 724.703125 565.613281 725.019531 566.023438 725.355469 C 566.433594 725.695312 566.828125 726.050781 567.207031 726.429688 C 567.582031 726.804688 567.9375 727.199219 568.277344 727.609375 C 568.613281 728.023438 568.929688 728.449219 569.226562 728.890625 C 569.523438 729.335938 569.796875 729.789062 570.046875 730.261719 C 570.296875 730.730469 570.523438 731.210938 570.726562 731.703125 C 570.933594 732.195312 571.109375 732.695312 571.265625 733.203125 C 571.417969 733.714844 571.550781 734.230469 571.652344 734.75 C 571.757812 735.273438 571.835938 735.800781 571.886719 736.328125 C 571.9375 736.859375 571.964844 737.390625 571.964844 737.921875 Z M 571.964844 737.921875 " fill-opacity="1" fill-rule="nonzero"/><path fill="#000000" d="M 637.328125 752.464844 C 628.589844 752.464844 621.480469 759.574219 621.480469 768.316406 C 621.480469 777.058594 628.589844 784.167969 637.328125 784.167969 C 646.066406 784.167969 653.183594 777.058594 653.183594 768.316406 C 653.183594 759.574219 646.0625 752.464844 637.328125 752.464844 Z M 637.328125 752.464844 " fill-opacity="1" fill-rule="nonzero"/><path fill="#000000" d="M 503.359375 776 C 494.449219 776 487.199219 783.25 487.199219 792.164062 C 487.199219 801.074219 494.449219 808.316406 503.359375 808.316406 C 512.265625 808.316406 519.507812 801.0625 519.507812 792.164062 C 519.507812 783.261719 512.253906 776 503.359375 776 Z M 503.359375 776 " fill-opacity="1" fill-rule="nonzero"/><path fill="#000000" d="M 219.574219 723.980469 C 210.238281 723.980469 202.65625 731.570312 202.65625 740.902344 C 202.65625 750.230469 210.246094 757.832031 219.574219 757.832031 C 228.902344 757.832031 236.492188 750.242188 236.492188 740.902344 C 236.492188 731.558594 228.902344 723.980469 219.574219 723.980469 Z M 219.574219 723.980469 " fill-opacity="1" fill-rule="nonzero"/><path fill="#000000" d="M 131.730469 751.117188 C 122.894531 751.117188 115.691406 758.3125 115.691406 767.160156 C 115.691406 776.003906 122.890625 783.210938 131.730469 783.210938 C 140.574219 783.210938 147.769531 776.003906 147.769531 767.160156 C 147.769531 758.3125 140.574219 751.117188 131.730469 751.117188 Z M 131.730469 751.117188 " fill-opacity="1" fill-rule="nonzero"/><path fill="#000000" d="M 277.246094 776.234375 C 268.046875 776.234375 260.554688 783.726562 260.554688 792.917969 C 260.554688 802.105469 268.046875 809.609375 277.246094 809.609375 C 286.445312 809.609375 293.921875 802.117188 293.921875 792.917969 C 293.921875 783.714844 286.433594 776.234375 277.246094 776.234375 Z M 277.246094 776.234375 " fill-opacity="1" fill-rule="nonzero"/><path fill="#000000" d="M 381.089844 390.148438 C 368.53125 385.921875 353.171875 389.46875 343.507812 394.867188 C 327.480469 403.800781 316.289062 422.238281 325.882812 440.183594 C 329.308594 446.558594 335.152344 451.132812 342.820312 453.375 C 346.300781 454.386719 350.050781 454.886719 353.835938 454.886719 C 360.882812 454.886719 368.078125 453.171875 373.894531 449.917969 C 402.519531 433.886719 402.464844 416.65625 397.375 405.007812 C 394.230469 397.820312 388.601562 392.6875 381.101562 390.160156 Z M 371.425781 416.066406 C 371.628906 417.386719 370.496094 419.996094 366.582031 422.957031 C 362.65625 425.964844 359.523438 426.96875 355.144531 428.367188 C 354.332031 428.628906 352.742188 428.230469 351.5625 427.171875 C 350.730469 426.429688 349.828125 425.074219 350.28125 423.015625 C 350.597656 421.539062 352.757812 419.027344 356.890625 416.726562 C 360.40625 414.769531 364.269531 413.628906 366.972656 413.628906 C 367.738281 413.628906 368.425781 413.722656 368.964844 413.910156 C 370 414.285156 371.261719 414.960938 371.429688 416.050781 L 371.429688 416.0625 Z M 371.425781 416.066406 " fill-opacity="1" fill-rule="nonzero"/><path fill="#000000" d="M 379.726562 627.847656 C 370.371094 640.8125 366.640625 661.609375 378.171875 674.617188 C 382.730469 679.765625 389.117188 682.707031 396.648438 683.097656 C 397.234375 683.121094 397.824219 683.144531 398.394531 683.144531 C 407.84375 683.144531 417.898438 679.214844 425.050781 672.675781 C 437.347656 661.425781 443.09375 647.773438 442.101562 632.089844 C 441.121094 616.445312 432.078125 606.710938 417.933594 606.046875 C 399.117188 605.292969 385.871094 619.316406 379.722656 627.839844 Z M 379.726562 627.847656 " fill-opacity="1" fill-rule="nonzero"/><path fill="#000000" d="M 397.511719 480.75 C 389.863281 478.496094 382.027344 479.417969 374.886719 483.386719 C 358.296875 492.621094 357.980469 514.292969 365.023438 531.675781 C 366.769531 535.96875 373.488281 550.410156 387.105469 556.132812 C 390.574219 557.597656 394.144531 558.316406 397.769531 558.316406 C 401.621094 558.316406 405.550781 557.503906 409.515625 555.859375 C 417.570312 552.550781 423.050781 546.941406 425.835938 539.191406 C 430.5 526.171875 426.238281 510.5 420.710938 500.179688 C 416.804688 492.929688 408.671875 484.015625 397.5 480.738281 Z M 397.757812 531.222656 C 392.371094 528.105469 388.488281 523.363281 387.203125 518.25 C 386.519531 515.519531 386.28125 511.445312 389.074219 507.601562 C 389.378906 507.175781 389.730469 506.902344 390.40625 506.902344 L 390.679688 506.902344 C 393.210938 507.140625 396.78125 510.195312 397.617188 511.917969 L 398.390625 513.515625 C 401.039062 518.8125 404.023438 524.769531 397.761719 531.214844 L 397.761719 531.222656 Z M 397.757812 531.222656 " fill-opacity="1" fill-rule="nonzero"/><path fill="#000000" d="M 290.300781 533.960938 C 271.0625 545.773438 273.519531 569.859375 283.960938 587.230469 C 289.375 596.25 300.265625 606.4375 312.371094 608.84375 C 314.242188 609.214844 316.078125 609.40625 317.878906 609.40625 C 323.609375 609.40625 329.039062 607.535156 334.070312 603.820312 C 340.523438 599.054688 344.542969 592.125 345.710938 583.78125 C 347.34375 572.199219 343.289062 558.085938 335.40625 547.8125 C 327.355469 537.316406 308.796875 522.582031 290.292969 533.96875 L 290.292969 533.960938 Z M 304.441406 556.726562 C 314.949219 561.433594 318.9375 569.09375 317.753906 582.285156 C 312.292969 581.191406 307.796875 577.945312 305.171875 573.128906 C 302.445312 568.113281 302.210938 562.132812 304.441406 556.734375 Z M 304.441406 556.726562 " fill-opacity="1" fill-rule="nonzero"/><path fill="#000000" d="M 768.738281 684.691406 C 759.078125 680.648438 748.5 685.027344 738.253906 689.285156 C 725.71875 694.5 713.851562 699.425781 702.597656 691.46875 C 686.789062 680.304688 669.871094 683.394531 654.917969 686.105469 C 644.960938 687.894531 635.554688 689.609375 627.222656 687.277344 C 617.359375 684.496094 607.863281 679.574219 598.6875 674.832031 C 578.652344 664.46875 557.953125 653.722656 531.09375 663.09375 C 474.121094 682.964844 470.066406 694.929688 465.382812 708.785156 C 461.890625 719.078125 458.285156 729.726562 428.367188 746.664062 C 400.449219 762.480469 377.710938 758.074219 350.097656 745.820312 C 324.746094 734.566406 318.96875 724.167969 305.019531 699.050781 L 304.523438 698.148438 C 290.003906 672.027344 235.003906 660.132812 210 667.769531 C 203.277344 669.832031 197.421875 671.9375 191.757812 673.984375 C 177.871094 679 165.878906 683.335938 148.828125 683.480469 C 143.839844 683.523438 138.796875 686.519531 133.464844 689.6875 C 126.429688 693.867188 119.128906 698.191406 112.722656 694.957031 C 60.820312 668.914062 20.75 680.765625 6.480469 695.117188 C 0.363281 701.253906 -1.574219 708.34375 1.308594 714.050781 C 6.164062 723.636719 16.355469 720.042969 28.175781 715.898438 C 43.4375 710.515625 64.335938 703.195312 86.605469 717.53125 C 106.941406 730.644531 124.265625 725.304688 142.589844 719.671875 C 146.621094 718.433594 150.742188 717.148438 154.988281 716.066406 C 161.285156 714.445312 167.148438 713.273438 172.828125 712.136719 C 186.949219 709.308594 200.285156 706.640625 219.257812 697.75 C 227.121094 694.066406 244.925781 695.9375 259.8125 701.996094 C 270.355469 706.289062 277.5625 711.851562 279.601562 717.28125 C 288.609375 741.277344 306.6875 758.925781 336.515625 772.828125 C 357.296875 782.511719 375.550781 787.378906 392.839844 787.378906 C 412.183594 787.378906 430.308594 781.273438 449.382812 768.996094 C 469.667969 755.953125 483 744.441406 495.421875 721.03125 C 503.398438 705.980469 517.664062 695.890625 535.558594 692.601562 C 558.160156 688.464844 583.996094 695.609375 601.316406 710.804688 C 614.550781 722.417969 628.835938 724.921875 645.066406 718.445312 C 664.199219 710.78125 676.972656 715.164062 690.507812 719.796875 C 708.480469 725.933594 727.050781 732.265625 760.632812 713.589844 C 762.324219 712.65625 764.046875 711.902344 765.667969 711.179688 C 769.960938 709.296875 774.003906 707.519531 775.859375 703.441406 C 777.660156 699.488281 777.917969 695.625 776.578125 692.234375 C 775.273438 688.898438 772.570312 686.296875 768.738281 684.699219 L 768.738281 684.6875 Z M 768.738281 684.691406 " fill-opacity="1" fill-rule="nonzero"/><path fill="#000000" d="M 808.832031 203.972656 C 807.085938 199.78125 803.144531 197.167969 797.152344 196.199219 C 772.488281 192.144531 711.210938 218.773438 695.425781 236.910156 C 667.765625 268.640625 643.878906 294.3125 609.375 311.703125 C 549.304688 342.003906 513.976562 386.128906 490.597656 415.339844 C 477.542969 431.648438 467.21875 444.546875 460.035156 444.863281 C 458.660156 444.988281 456.777344 444.671875 454.234375 442.015625 C 438.257812 425.34375 448.503906 392.351562 460.878906 374.246094 L 506.90625 306.933594 C 518.824219 289.519531 519.070312 263.519531 507.539062 242.253906 C 478.214844 188.0625 377.355469 211.074219 357.445312 216.21875 C 299.996094 231.113281 277.070312 247.230469 248.035156 267.628906 C 230.667969 279.828125 210.996094 293.664062 180.171875 310.21875 C 168.214844 316.652344 150.542969 321.699219 133.097656 310.398438 C 174.015625 252.757812 333.773438 146.828125 394.539062 114.859375 C 423.214844 99.777344 467.507812 97.660156 518.777344 95.214844 C 586.53125 91.972656 670.832031 87.9375 753.417969 51.992188 C 764 47.386719 768.664062 40.042969 765.863281 32.359375 C 764.632812 28.980469 761.535156 25.984375 757.394531 24.125 C 752.652344 21.996094 747.371094 21.785156 742.921875 23.5625 C 688.59375 45.179688 635.40625 57.324219 580.324219 60.714844 L 455.558594 68.40625 C 411.222656 71.136719 372.15625 86.261719 324.910156 118.976562 C 314.425781 126.226562 303.941406 133.402344 293.480469 140.566406 C 233.839844 181.402344 172.15625 223.628906 119.21875 276.078125 C 108.753906 286.4375 102.414062 300.472656 102.640625 312.71875 C 102.808594 321.378906 106.1875 328.964844 112.425781 334.695312 C 131.90625 352.539062 157.371094 348.199219 179.953125 344.257812 C 172.398438 361.269531 164.277344 387.628906 176.8125 403.871094 C 195.289062 427.839844 217.398438 417.53125 235.179688 409.277344 C 243.152344 405.558594 250.699219 402.058594 257.015625 401.816406 L 263.199219 401.59375 C 293.695312 400.578125 322.492188 399.613281 345.417969 365.324219 C 353.097656 353.832031 421.605469 252.925781 461.3125 247.511719 C 466.84375 246.777344 471.335938 247.960938 475.078125 251.171875 C 495.765625 268.96875 483.34375 288.332031 459.617188 321.011719 C 439.027344 349.375 413.398438 384.675781 415.851562 428.691406 C 417.171875 451.996094 430.265625 471.109375 447.722656 475.164062 C 451.789062 476.109375 455.605469 476.5625 459.222656 476.5625 C 482.566406 476.5625 497.242188 457.753906 516.554688 432.992188 C 538.945312 404.289062 569.609375 364.976562 629.871094 335.160156 C 666.019531 317.296875 690.132812 289.585938 715.652344 260.265625 L 717.542969 258.09375 C 729.785156 244.035156 752.558594 237.75 772.660156 232.207031 C 790.636719 227.261719 804.824219 223.339844 808.976562 214.792969 C 810.566406 211.550781 810.53125 207.910156 808.875 203.96875 L 808.84375 203.980469 Z M 284.96875 369.578125 C 301.707031 341.96875 377.980469 235.636719 408.003906 234.519531 C 410.152344 234.476562 412.269531 235.027344 413.867188 236.378906 C 393.710938 249.46875 372.707031 277.8125 352.355469 305.25 C 328 338.09375 302.917969 372.136719 284.957031 369.578125 Z M 234.304688 317.292969 L 242.988281 310.453125 C 268.597656 290.226562 292.890625 271.027344 325.078125 260.585938 L 255.253906 354.476562 C 237.675781 378.128906 220.296875 388.394531 202.199219 385.710938 C 205.710938 362.660156 214.148438 333.074219 234.316406 317.289062 L 234.304688 317.289062 Z M 234.304688 317.292969 " fill-opacity="1" fill-rule="nonzero"/><g clip-path="url(#126a23c15f)"><path fill="#231f20" d="M 139.390625 0.0117188 C 141.929688 0.0117188 143.988281 2.074219 143.988281 4.617188 C 143.988281 7.160156 141.929688 9.21875 139.390625 9.21875 L 96.214844 9.21875 L 96.214844 24.644531 L 126.140625 24.644531 C 128.679688 24.644531 130.742188 26.703125 130.742188 29.246094 C 130.742188 31.789062 128.679688 33.851562 126.140625 33.851562 L 96.214844 33.851562 L 96.214844 46.746094 L 126.140625 46.746094 C 128.679688 46.746094 130.742188 48.808594 130.742188 51.347656 C 130.742188 53.890625 128.679688 55.953125 126.140625 55.953125 L 96.214844 55.953125 L 96.214844 67.585938 L 138.757812 67.585938 C 141.296875 67.585938 143.359375 69.648438 143.359375 72.1875 C 143.359375 74.730469 141.296875 76.792969 138.757812 76.792969 L 96.214844 76.792969 L 96.214844 89.058594 L 126.140625 89.058594 C 128.679688 89.058594 130.742188 91.117188 130.742188 93.660156 C 130.742188 96.203125 128.679688 98.265625 126.140625 98.265625 L 96.214844 98.265625 L 96.214844 109.890625 L 126.140625 109.890625 C 128.679688 109.890625 130.742188 111.953125 130.742188 114.496094 C 130.742188 117.035156 128.679688 119.097656 126.140625 119.097656 L 96.214844 119.097656 L 96.214844 131.363281 L 138.757812 131.363281 C 141.296875 131.363281 143.359375 133.425781 143.359375 135.964844 C 143.359375 138.507812 141.296875 140.570312 138.757812 140.570312 L 96.214844 140.570312 L 96.214844 153.464844 L 126.140625 153.464844 C 128.679688 153.464844 130.742188 155.527344 130.742188 158.070312 C 130.742188 160.609375 128.679688 162.671875 126.140625 162.671875 L 96.214844 162.671875 L 96.214844 174.304688 L 126.140625 174.304688 C 128.679688 174.304688 130.742188 176.367188 130.742188 178.910156 C 130.742188 181.449219 128.679688 183.511719 126.140625 183.511719 L 96.214844 183.511719 L 96.214844 197.035156 L 139.390625 197.035156 C 141.929688 197.035156 143.988281 199.097656 143.988281 201.636719 C 143.988281 204.179688 141.929688 206.242188 139.390625 206.242188 L 95.71875 206.242188 C 90.914062 206.242188 87.011719 202.339844 87.011719 197.523438 L 87.011719 9.039062 C 87.011719 4.054688 91.046875 0.0117188 96.023438 0.0117188 Z M 62.957031 170.246094 C 60.65625 168.054688 57.015625 168.144531 54.824219 170.449219 L 38.503906 187.613281 L 38.503906 19.675781 L 54.023438 35.546875 C 56.246094 37.816406 59.886719 37.855469 62.160156 35.632812 C 64.429688 33.410156 64.472656 29.765625 62.246094 27.492188 L 41.234375 6.011719 C 36.816406 1.488281 29.582031 1.378906 25.019531 5.753906 L 2.375 27.492188 C 0.0820312 29.695312 0.00390625 33.335938 2.203125 35.628906 C 4.402344 37.921875 8.042969 38 10.335938 35.800781 L 26.996094 19.808594 L 26.996094 185.613281 L 11.132812 170.808594 C 8.8125 168.640625 5.171875 168.765625 3.003906 171.089844 C 0.839844 173.414062 0.964844 177.058594 3.285156 179.226562 L 26.238281 200.648438 C 30.859375 204.957031 38.085938 204.746094 42.4375 200.164062 L 63.148438 178.378906 C 65.34375 176.082031 65.253906 172.441406 62.957031 170.246094 Z M 62.957031 170.246094 " fill-opacity="1" fill-rule="nonzero"/></g></svg>