<svg xmlns="http://www.w3.org/2000/svg" xmlns:xlink="http://www.w3.org/1999/xlink" width="1080" zoomAndPan="magnify" viewBox="0 0 810 809.999993" height="1080" preserveAspectRatio="xMidYMid meet" version="1.0"><defs><clipPath id="4f5c8ca4ff"><path d="M 260.304688 480.40625 L 277.683594 480.40625 L 277.683594 497.785156 L 260.304688 497.785156 Z M 260.304688 480.40625 " clip-rule="nonzero"/></clipPath><clipPath id="98d771038a"><path d="M 268.992188 480.40625 C 264.195312 480.40625 260.304688 484.296875 260.304688 489.09375 C 260.304688 493.894531 264.195312 497.785156 268.992188 497.785156 C 273.792969 497.785156 277.683594 493.894531 277.683594 489.09375 C 277.683594 484.296875 273.792969 480.40625 268.992188 480.40625 Z M 268.992188 480.40625 " clip-rule="nonzero"/></clipPath><clipPath id="addef17b50"><path d="M 0.304688 0.40625 L 17.683594 0.40625 L 17.683594 17.785156 L 0.304688 17.785156 Z M 0.304688 0.40625 " clip-rule="nonzero"/></clipPath><clipPath id="1bcae02915"><path d="M 8.992188 0.40625 C 4.195312 0.40625 0.304688 4.296875 0.304688 9.09375 C 0.304688 13.894531 4.195312 17.785156 8.992188 17.785156 C 13.792969 17.785156 17.683594 13.894531 17.683594 9.09375 C 17.683594 4.296875 13.792969 0.40625 8.992188 0.40625 Z M 8.992188 0.40625 " clip-rule="nonzero"/></clipPath><clipPath id="4acaab3f04"><rect x="0" width="18" y="0" height="18"/></clipPath></defs><path fill="#000000" d="M 405 202.5 C 401.6875 202.5 398.375 202.582031 395.0625 202.742188 C 391.753906 202.90625 388.449219 203.148438 385.152344 203.476562 C 381.851562 203.800781 378.566406 204.207031 375.285156 204.691406 C 372.007812 205.179688 368.746094 205.746094 365.496094 206.390625 C 362.242188 207.039062 359.011719 207.761719 355.796875 208.570312 C 352.582031 209.375 349.390625 210.257812 346.21875 211.21875 C 343.046875 212.179688 339.898438 213.222656 336.78125 214.335938 C 333.660156 215.453125 330.566406 216.644531 327.507812 217.914062 C 324.445312 219.183594 321.414062 220.523438 318.421875 221.941406 C 315.425781 223.359375 312.464844 224.847656 309.542969 226.410156 C 306.621094 227.972656 303.738281 229.605469 300.894531 231.308594 C 298.050781 233.015625 295.253906 234.785156 292.496094 236.628906 C 289.742188 238.46875 287.03125 240.375 284.371094 242.351562 C 281.707031 244.324219 279.097656 246.363281 276.535156 248.464844 C 273.972656 250.566406 271.464844 252.730469 269.007812 254.957031 C 266.554688 257.183594 264.152344 259.46875 261.8125 261.8125 C 259.46875 264.152344 257.183594 266.554688 254.957031 269.007812 C 252.730469 271.464844 250.566406 273.972656 248.464844 276.535156 C 246.363281 279.097656 244.324219 281.710938 242.351562 284.371094 C 240.375 287.03125 238.46875 289.742188 236.628906 292.496094 C 234.785156 295.253906 233.015625 298.050781 231.308594 300.894531 C 229.605469 303.738281 227.972656 306.621094 226.410156 309.542969 C 224.847656 312.464844 223.359375 315.425781 221.941406 318.421875 C 220.523438 321.414062 219.183594 324.445312 217.914062 327.507812 C 216.644531 330.570312 215.453125 333.660156 214.335938 336.78125 C 213.222656 339.898438 212.179688 343.046875 211.21875 346.21875 C 210.257812 349.390625 209.375 352.582031 208.570312 355.796875 C 207.761719 359.011719 207.039062 362.242188 206.390625 365.496094 C 205.746094 368.746094 205.179688 372.007812 204.691406 375.285156 C 204.207031 378.566406 203.800781 381.851562 203.476562 385.152344 C 203.148438 388.449219 202.90625 391.753906 202.742188 395.0625 C 202.582031 398.375 202.5 401.6875 202.5 405 C 202.5 408.3125 202.582031 411.625 202.742188 414.9375 C 202.90625 418.246094 203.148438 421.550781 203.476562 424.847656 C 203.800781 428.148438 204.207031 431.433594 204.691406 434.714844 C 205.179688 437.992188 205.746094 441.253906 206.390625 444.503906 C 207.039062 447.757812 207.761719 450.988281 208.570312 454.203125 C 209.375 457.417969 210.257812 460.609375 211.21875 463.78125 C 212.179688 466.953125 213.222656 470.101562 214.335938 473.21875 C 215.453125 476.339844 216.644531 479.429688 217.914062 482.492188 C 219.183594 485.554688 220.523438 488.582031 221.941406 491.578125 C 223.359375 494.574219 224.847656 497.535156 226.410156 500.457031 C 227.972656 503.378906 229.605469 506.261719 231.308594 509.105469 C 233.015625 511.949219 234.785156 514.746094 236.628906 517.503906 C 238.46875 520.257812 240.375 522.96875 242.351562 525.628906 C 244.324219 528.292969 246.363281 530.902344 248.464844 533.464844 C 250.566406 536.027344 252.730469 538.535156 254.957031 540.992188 C 257.183594 543.445312 259.46875 545.847656 261.8125 548.1875 C 264.152344 550.53125 266.554688 552.816406 269.007812 555.042969 C 271.464844 557.269531 273.972656 559.433594 276.535156 561.535156 C 279.097656 563.636719 281.707031 565.675781 284.371094 567.648438 C 287.03125 569.625 289.742188 571.53125 292.496094 573.371094 C 295.253906 575.214844 298.050781 576.984375 300.894531 578.691406 C 303.738281 580.394531 306.621094 582.027344 309.542969 583.589844 C 312.464844 585.152344 315.425781 586.640625 318.421875 588.058594 C 321.414062 589.476562 324.445312 590.816406 327.507812 592.085938 C 330.570312 593.355469 333.660156 594.546875 336.78125 595.664062 C 339.898438 596.777344 343.046875 597.816406 346.21875 598.78125 C 349.390625 599.742188 352.582031 600.625 355.796875 601.429688 C 359.011719 602.238281 362.242188 602.960938 365.496094 603.609375 C 368.746094 604.253906 372.007812 604.820312 375.285156 605.308594 C 378.566406 605.792969 381.851562 606.199219 385.152344 606.523438 C 388.449219 606.851562 391.753906 607.09375 395.0625 607.257812 C 398.375 607.417969 401.6875 607.5 405 607.5 C 408.3125 607.5 411.625 607.417969 414.9375 607.257812 C 418.246094 607.09375 421.550781 606.851562 424.847656 606.523438 C 428.148438 606.199219 431.433594 605.792969 434.714844 605.308594 C 437.992188 604.820312 441.253906 604.253906 444.503906 603.609375 C 447.757812 602.960938 450.988281 602.238281 454.203125 601.429688 C 457.417969 600.625 460.609375 599.742188 463.78125 598.78125 C 466.953125 597.816406 470.101562 596.777344 473.21875 595.664062 C 476.339844 594.546875 479.429688 593.355469 482.492188 592.085938 C 485.554688 590.816406 488.582031 589.476562 491.578125 588.058594 C 494.574219 586.640625 497.535156 585.152344 500.457031 583.589844 C 503.378906 582.027344 506.261719 580.394531 509.105469 578.691406 C 511.949219 576.984375 514.746094 575.214844 517.503906 573.371094 C 520.257812 571.53125 522.96875 569.625 525.628906 567.648438 C 528.289062 565.675781 530.902344 563.636719 533.464844 561.535156 C 536.027344 559.433594 538.535156 557.269531 540.992188 555.042969 C 543.445312 552.816406 545.84375 550.53125 548.1875 548.1875 C 550.53125 545.847656 552.816406 543.445312 555.042969 540.992188 C 557.269531 538.535156 559.433594 536.027344 561.535156 533.464844 C 563.636719 530.902344 565.675781 528.292969 567.648438 525.628906 C 569.625 522.96875 571.53125 520.257812 573.371094 517.503906 C 575.214844 514.746094 576.984375 511.949219 578.691406 509.105469 C 580.394531 506.261719 582.027344 503.378906 583.589844 500.457031 C 585.152344 497.535156 586.640625 494.574219 588.058594 491.578125 C 589.476562 488.582031 590.816406 485.554688 592.085938 482.492188 C 593.355469 479.429688 594.546875 476.339844 595.664062 473.21875 C 596.777344 470.101562 597.816406 466.953125 598.78125 463.78125 C 599.742188 460.609375 600.625 457.417969 601.429688 454.203125 C 602.238281 450.988281 602.960938 447.757812 603.609375 444.503906 C 604.253906 441.253906 604.820312 437.992188 605.308594 434.714844 C 605.792969 431.433594 606.199219 428.148438 606.523438 424.847656 C 606.851562 421.550781 607.09375 418.246094 607.257812 414.9375 C 607.417969 411.625 607.5 408.3125 607.5 405 C 607.496094 401.6875 607.410156 398.375 607.246094 395.066406 C 607.078125 391.757812 606.832031 388.457031 606.503906 385.160156 C 606.175781 381.863281 605.765625 378.574219 605.277344 375.296875 C 604.789062 372.023438 604.21875 368.757812 603.570312 365.511719 C 602.921875 362.261719 602.191406 359.03125 601.386719 355.816406 C 600.578125 352.605469 599.691406 349.414062 598.726562 346.242188 C 597.765625 343.074219 596.722656 339.929688 595.605469 336.8125 C 594.488281 333.691406 593.292969 330.601562 592.023438 327.542969 C 590.753906 324.480469 589.410156 321.457031 587.992188 318.460938 C 586.574219 315.464844 585.082031 312.507812 583.519531 309.585938 C 581.957031 306.667969 580.324219 303.785156 578.621094 300.945312 C 576.914062 298.101562 575.144531 295.304688 573.300781 292.550781 C 571.460938 289.796875 569.550781 287.089844 567.578125 284.429688 C 565.605469 281.769531 563.566406 279.15625 561.464844 276.597656 C 559.363281 274.035156 557.199219 271.527344 554.972656 269.074219 C 552.746094 266.621094 550.464844 264.222656 548.121094 261.878906 C 545.777344 259.535156 543.378906 257.253906 540.925781 255.027344 C 538.472656 252.800781 535.964844 250.636719 533.402344 248.535156 C 530.839844 246.433594 528.230469 244.394531 525.570312 242.421875 C 522.910156 240.449219 520.203125 238.539062 517.449219 236.699219 C 514.695312 234.855469 511.898438 233.085938 509.054688 231.378906 C 506.214844 229.675781 503.332031 228.042969 500.410156 226.480469 C 497.492188 224.914062 494.535156 223.425781 491.539062 222.007812 C 488.542969 220.589844 485.515625 219.246094 482.457031 217.976562 C 479.398438 216.707031 476.308594 215.511719 473.1875 214.394531 C 470.070312 213.277344 466.925781 212.234375 463.757812 211.269531 C 460.585938 210.308594 457.394531 209.421875 454.183594 208.613281 C 450.96875 207.808594 447.738281 207.078125 444.488281 206.429688 C 441.242188 205.78125 437.976562 205.210938 434.703125 204.722656 C 431.425781 204.234375 428.136719 203.824219 424.839844 203.496094 C 421.542969 203.167969 418.242188 202.921875 414.933594 202.753906 C 411.625 202.589844 408.3125 202.503906 405 202.5 Z M 405 549.644531 C 402.632812 549.644531 400.265625 549.585938 397.902344 549.46875 C 395.539062 549.351562 393.179688 549.179688 390.824219 548.945312 C 388.464844 548.714844 386.117188 548.425781 383.777344 548.078125 C 381.433594 547.730469 379.101562 547.324219 376.78125 546.863281 C 374.460938 546.402344 372.152344 545.882812 369.855469 545.308594 C 367.558594 544.734375 365.277344 544.101562 363.011719 543.414062 C 360.746094 542.726562 358.5 541.984375 356.269531 541.1875 C 354.042969 540.390625 351.835938 539.539062 349.648438 538.632812 C 347.460938 537.726562 345.296875 536.769531 343.15625 535.753906 C 341.015625 534.742188 338.902344 533.679688 336.816406 532.5625 C 334.726562 531.449219 332.667969 530.28125 330.640625 529.0625 C 328.609375 527.847656 326.609375 526.582031 324.640625 525.265625 C 322.671875 523.949219 320.738281 522.589844 318.835938 521.179688 C 316.933594 519.769531 315.070312 518.3125 313.238281 516.808594 C 311.410156 515.308594 309.617188 513.761719 307.863281 512.171875 C 306.109375 510.582031 304.394531 508.953125 302.722656 507.277344 C 301.046875 505.605469 299.417969 503.890625 297.828125 502.136719 C 296.238281 500.382812 294.691406 498.589844 293.191406 496.761719 C 291.6875 494.929688 290.230469 493.066406 288.820312 491.164062 C 287.410156 489.261719 286.050781 487.328125 284.734375 485.359375 C 283.417969 483.390625 282.152344 481.390625 280.9375 479.359375 C 279.71875 477.332031 278.550781 475.273438 277.4375 473.183594 C 276.320312 471.097656 275.257812 468.984375 274.246094 466.84375 C 273.230469 464.703125 272.273438 462.539062 271.367188 460.351562 C 270.460938 458.164062 269.609375 455.957031 268.8125 453.730469 C 268.015625 451.5 267.273438 449.253906 266.585938 446.988281 C 265.898438 444.722656 265.265625 442.441406 264.691406 440.144531 C 264.117188 437.847656 263.597656 435.539062 263.136719 433.21875 C 262.675781 430.898438 262.269531 428.566406 261.921875 426.222656 C 261.574219 423.882812 261.285156 421.535156 261.054688 419.175781 C 260.820312 416.820312 260.648438 414.460938 260.53125 412.097656 C 260.414062 409.734375 260.355469 407.367188 260.355469 405 C 260.355469 402.632812 260.414062 400.265625 260.53125 397.902344 C 260.648438 395.539062 260.820312 393.179688 261.054688 390.824219 C 261.285156 388.464844 261.574219 386.117188 261.921875 383.777344 C 262.269531 381.433594 262.675781 379.101562 263.136719 376.78125 C 263.597656 374.460938 264.117188 372.152344 264.691406 369.855469 C 265.265625 367.558594 265.898438 365.277344 266.585938 363.011719 C 267.273438 360.746094 268.015625 358.5 268.8125 356.269531 C 269.609375 354.042969 270.460938 351.835938 271.367188 349.648438 C 272.273438 347.460938 273.230469 345.296875 274.246094 343.15625 C 275.257812 341.015625 276.320312 338.902344 277.4375 336.816406 C 278.550781 334.726562 279.71875 332.667969 280.9375 330.640625 C 282.152344 328.609375 283.417969 326.609375 284.734375 324.640625 C 286.050781 322.671875 287.410156 320.738281 288.820312 318.835938 C 290.230469 316.933594 291.6875 315.070312 293.191406 313.238281 C 294.691406 311.410156 296.238281 309.617188 297.828125 307.863281 C 299.417969 306.109375 301.046875 304.394531 302.722656 302.722656 C 304.394531 301.046875 306.109375 299.417969 307.863281 297.828125 C 309.617188 296.238281 311.410156 294.691406 313.238281 293.191406 C 315.070312 291.6875 316.933594 290.230469 318.835938 288.820312 C 320.738281 287.410156 322.671875 286.050781 324.640625 284.734375 C 326.609375 283.417969 328.609375 282.152344 330.640625 280.9375 C 332.667969 279.71875 334.726562 278.550781 336.816406 277.4375 C 338.902344 276.320312 341.015625 275.257812 343.15625 274.246094 C 345.296875 273.230469 347.460938 272.273438 349.648438 271.367188 C 351.835938 270.460938 354.042969 269.609375 356.269531 268.8125 C 358.5 268.015625 360.746094 267.273438 363.011719 266.585938 C 365.277344 265.898438 367.558594 265.265625 369.855469 264.691406 C 372.152344 264.117188 374.460938 263.597656 376.78125 263.136719 C 379.101562 262.675781 381.433594 262.269531 383.777344 261.921875 C 386.117188 261.574219 388.464844 261.285156 390.824219 261.054688 C 393.179688 260.820312 395.539062 260.648438 397.902344 260.53125 C 400.265625 260.414062 402.632812 260.355469 405 260.355469 C 407.367188 260.355469 409.734375 260.414062 412.097656 260.53125 C 414.460938 260.648438 416.820312 260.820312 419.175781 261.054688 C 421.535156 261.285156 423.882812 261.574219 426.222656 261.921875 C 428.566406 262.269531 430.898438 262.675781 433.21875 263.136719 C 435.539062 263.597656 437.847656 264.117188 440.144531 264.691406 C 442.441406 265.265625 444.722656 265.898438 446.988281 266.585938 C 449.253906 267.273438 451.5 268.015625 453.730469 268.8125 C 455.957031 269.609375 458.164062 270.460938 460.351562 271.367188 C 462.539062 272.273438 464.703125 273.230469 466.84375 274.246094 C 468.984375 275.257812 471.097656 276.320312 473.183594 277.4375 C 475.273438 278.550781 477.332031 279.71875 479.363281 280.9375 C 481.390625 282.152344 483.390625 283.417969 485.359375 284.734375 C 487.328125 286.050781 489.261719 287.410156 491.164062 288.820312 C 493.066406 290.230469 494.929688 291.6875 496.761719 293.191406 C 498.589844 294.691406 500.382812 296.238281 502.136719 297.828125 C 503.890625 299.417969 505.605469 301.046875 507.277344 302.722656 C 508.953125 304.394531 510.582031 306.109375 512.171875 307.863281 C 513.761719 309.617188 515.308594 311.410156 516.808594 313.238281 C 518.3125 315.070312 519.769531 316.933594 521.179688 318.835938 C 522.589844 320.738281 523.949219 322.671875 525.265625 324.640625 C 526.582031 326.609375 527.847656 328.609375 529.0625 330.640625 C 530.28125 332.667969 531.449219 334.726562 532.5625 336.816406 C 533.679688 338.902344 534.742188 341.015625 535.753906 343.15625 C 536.769531 345.296875 537.726562 347.460938 538.632812 349.648438 C 539.539062 351.835938 540.390625 354.042969 541.1875 356.269531 C 541.984375 358.5 542.726562 360.746094 543.414062 363.011719 C 544.101562 365.277344 544.734375 367.558594 545.308594 369.855469 C 545.882812 372.152344 546.402344 374.460938 546.863281 376.78125 C 547.324219 379.101562 547.730469 381.433594 548.078125 383.777344 C 548.425781 386.117188 548.714844 388.464844 548.945312 390.824219 C 549.179688 393.179688 549.351562 395.539062 549.46875 397.902344 C 549.585938 400.265625 549.644531 402.632812 549.644531 405 C 549.640625 407.367188 549.578125 409.730469 549.460938 412.09375 C 549.339844 414.457031 549.164062 416.816406 548.929688 419.171875 C 548.695312 421.527344 548.402344 423.875 548.054688 426.214844 C 547.707031 428.554688 547.296875 430.886719 546.835938 433.207031 C 546.371094 435.527344 545.851562 437.835938 545.273438 440.128906 C 544.695312 442.425781 544.0625 444.703125 543.375 446.96875 C 542.6875 449.230469 541.945312 451.476562 541.144531 453.707031 C 540.347656 455.933594 539.492188 458.140625 538.585938 460.324219 C 537.679688 462.511719 536.71875 464.671875 535.707031 466.8125 C 534.695312 468.949219 533.628906 471.0625 532.511719 473.148438 C 531.394531 475.238281 530.230469 477.292969 529.011719 479.324219 C 527.792969 481.351562 526.527344 483.351562 525.210938 485.316406 C 523.898438 487.285156 522.535156 489.21875 521.125 491.121094 C 519.714844 493.019531 518.257812 494.882812 516.757812 496.714844 C 515.253906 498.542969 513.710938 500.335938 512.121094 502.085938 C 510.53125 503.839844 508.902344 505.554688 507.226562 507.226562 C 505.554688 508.902344 503.839844 510.53125 502.085938 512.121094 C 500.335938 513.710938 498.542969 515.253906 496.714844 516.757812 C 494.882812 518.257812 493.019531 519.714844 491.121094 521.125 C 489.21875 522.535156 487.285156 523.898438 485.316406 525.210938 C 483.351562 526.527344 481.351562 527.792969 479.324219 529.011719 C 477.292969 530.230469 475.238281 531.394531 473.148438 532.511719 C 471.0625 533.628906 468.949219 534.695312 466.8125 535.707031 C 464.671875 536.71875 462.511719 537.679688 460.324219 538.585938 C 458.140625 539.492188 455.933594 540.347656 453.707031 541.144531 C 451.476562 541.945312 449.230469 542.6875 446.96875 543.375 C 444.703125 544.0625 442.425781 544.695312 440.128906 545.273438 C 437.835938 545.851562 435.527344 546.371094 433.207031 546.835938 C 430.886719 547.296875 428.554688 547.707031 426.214844 548.054688 C 423.875 548.402344 421.527344 548.695312 419.171875 548.929688 C 416.816406 549.164062 414.457031 549.339844 412.09375 549.460938 C 409.730469 549.578125 407.367188 549.640625 405 549.644531 Z M 405 549.644531 " fill-opacity="1" fill-rule="nonzero"/><path fill="#000000" d="M 405 144.644531 C 405.949219 144.644531 406.894531 144.597656 407.835938 144.503906 C 408.777344 144.410156 409.714844 144.273438 410.644531 144.085938 C 411.574219 143.902344 412.492188 143.671875 413.398438 143.398438 C 414.304688 143.121094 415.195312 142.804688 416.070312 142.441406 C 416.945312 142.078125 417.800781 141.671875 418.636719 141.226562 C 419.472656 140.78125 420.285156 140.292969 421.070312 139.765625 C 421.859375 139.242188 422.621094 138.675781 423.351562 138.078125 C 424.085938 137.476562 424.785156 136.839844 425.457031 136.167969 C 426.125 135.5 426.761719 134.796875 427.363281 134.066406 C 427.964844 133.335938 428.527344 132.574219 429.054688 131.785156 C 429.578125 131 430.066406 130.1875 430.511719 129.351562 C 430.960938 128.515625 431.363281 127.660156 431.726562 126.785156 C 432.089844 125.910156 432.40625 125.019531 432.683594 124.113281 C 432.957031 123.207031 433.1875 122.289062 433.371094 121.359375 C 433.558594 120.429688 433.695312 119.492188 433.789062 118.550781 C 433.882812 117.605469 433.929688 116.660156 433.929688 115.714844 L 433.929688 28.929688 C 433.929688 27.980469 433.882812 27.035156 433.789062 26.09375 C 433.695312 25.148438 433.558594 24.214844 433.371094 23.285156 C 433.1875 22.355469 432.957031 21.4375 432.683594 20.53125 C 432.40625 19.625 432.089844 18.734375 431.726562 17.859375 C 431.363281 16.984375 430.960938 16.128906 430.511719 15.292969 C 430.066406 14.457031 429.578125 13.644531 429.054688 12.855469 C 428.527344 12.070312 427.964844 11.308594 427.363281 10.578125 C 426.761719 9.84375 426.125 9.144531 425.457031 8.472656 C 424.785156 7.804688 424.085938 7.167969 423.351562 6.566406 C 422.621094 5.964844 421.859375 5.402344 421.070312 4.875 C 420.285156 4.347656 419.472656 3.863281 418.636719 3.414062 C 417.800781 2.96875 416.945312 2.566406 416.070312 2.203125 C 415.195312 1.839844 414.304688 1.519531 413.398438 1.246094 C 412.492188 0.96875 411.574219 0.742188 410.644531 0.554688 C 409.714844 0.371094 408.777344 0.230469 407.835938 0.140625 C 406.894531 0.046875 405.949219 0 405 0 C 404.050781 0 403.105469 0.046875 402.164062 0.140625 C 401.222656 0.230469 400.285156 0.371094 399.355469 0.554688 C 398.425781 0.742188 397.507812 0.96875 396.601562 1.246094 C 395.695312 1.519531 394.804688 1.839844 393.929688 2.203125 C 393.054688 2.566406 392.199219 2.96875 391.363281 3.414062 C 390.527344 3.863281 389.714844 4.347656 388.929688 4.875 C 388.140625 5.402344 387.378906 5.964844 386.648438 6.566406 C 385.914062 7.167969 385.214844 7.804688 384.542969 8.472656 C 383.875 9.144531 383.238281 9.84375 382.636719 10.578125 C 382.035156 11.308594 381.472656 12.070312 380.945312 12.855469 C 380.421875 13.644531 379.933594 14.457031 379.488281 15.292969 C 379.039062 16.128906 378.636719 16.984375 378.273438 17.859375 C 377.910156 18.734375 377.59375 19.625 377.316406 20.53125 C 377.042969 21.4375 376.8125 22.355469 376.628906 23.285156 C 376.441406 24.214844 376.304688 25.148438 376.210938 26.09375 C 376.117188 27.035156 376.070312 27.980469 376.070312 28.929688 L 376.070312 115.714844 C 376.070312 116.660156 376.117188 117.605469 376.210938 118.550781 C 376.304688 119.492188 376.441406 120.429688 376.628906 121.359375 C 376.8125 122.289062 377.042969 123.207031 377.316406 124.113281 C 377.59375 125.019531 377.910156 125.910156 378.273438 126.785156 C 378.636719 127.660156 379.039062 128.515625 379.488281 129.351562 C 379.933594 130.1875 380.421875 131 380.945312 131.785156 C 381.472656 132.574219 382.035156 133.335938 382.636719 134.066406 C 383.238281 134.796875 383.875 135.5 384.542969 136.167969 C 385.214844 136.839844 385.914062 137.476562 386.648438 138.078125 C 387.378906 138.675781 388.140625 139.242188 388.929688 139.765625 C 389.714844 140.292969 390.527344 140.78125 391.363281 141.226562 C 392.199219 141.671875 393.054688 142.078125 393.929688 142.441406 C 394.804688 142.804688 395.695312 143.121094 396.601562 143.398438 C 397.507812 143.671875 398.425781 143.902344 399.355469 144.085938 C 400.285156 144.273438 401.222656 144.410156 402.164062 144.503906 C 403.105469 144.597656 404.050781 144.644531 405 144.644531 Z M 405 144.644531 " fill-opacity="1" fill-rule="nonzero"/><path fill="#000000" d="M 405 665.355469 C 404.050781 665.355469 403.105469 665.402344 402.164062 665.496094 C 401.222656 665.589844 400.285156 665.726562 399.355469 665.914062 C 398.425781 666.097656 397.507812 666.328125 396.601562 666.601562 C 395.695312 666.878906 394.804688 667.195312 393.929688 667.558594 C 393.054688 667.921875 392.199219 668.328125 391.363281 668.773438 C 390.527344 669.21875 389.714844 669.707031 388.929688 670.234375 C 388.140625 670.757812 387.378906 671.324219 386.648438 671.921875 C 385.914062 672.523438 385.214844 673.160156 384.542969 673.832031 C 383.875 674.5 383.238281 675.203125 382.636719 675.933594 C 382.035156 676.667969 381.472656 677.425781 380.945312 678.214844 C 380.421875 679 379.933594 679.8125 379.488281 680.648438 C 379.039062 681.484375 378.636719 682.339844 378.273438 683.214844 C 377.910156 684.089844 377.59375 684.980469 377.316406 685.886719 C 377.042969 686.792969 376.8125 687.710938 376.628906 688.640625 C 376.441406 689.570312 376.304688 690.507812 376.210938 691.449219 C 376.117188 692.394531 376.070312 693.339844 376.070312 694.285156 L 376.070312 781.070312 C 376.070312 782.019531 376.117188 782.964844 376.210938 783.90625 C 376.304688 784.851562 376.441406 785.785156 376.628906 786.714844 C 376.8125 787.644531 377.042969 788.5625 377.316406 789.46875 C 377.59375 790.375 377.910156 791.265625 378.273438 792.140625 C 378.636719 793.015625 379.039062 793.871094 379.488281 794.707031 C 379.933594 795.542969 380.421875 796.355469 380.945312 797.144531 C 381.472656 797.929688 382.035156 798.691406 382.636719 799.421875 C 383.238281 800.15625 383.875 800.855469 384.542969 801.527344 C 385.214844 802.195312 385.914062 802.832031 386.648438 803.433594 C 387.378906 804.035156 388.140625 804.597656 388.929688 805.125 C 389.714844 805.652344 390.527344 806.136719 391.363281 806.585938 C 392.199219 807.03125 393.054688 807.433594 393.929688 807.796875 C 394.804688 808.160156 395.695312 808.480469 396.601562 808.753906 C 397.507812 809.03125 398.425781 809.257812 399.355469 809.445312 C 400.285156 809.628906 401.222656 809.769531 402.164062 809.859375 C 403.105469 809.953125 404.050781 810 405 810 C 405.949219 810 406.894531 809.953125 407.835938 809.859375 C 408.777344 809.769531 409.714844 809.628906 410.644531 809.445312 C 411.574219 809.257812 412.492188 809.03125 413.398438 808.753906 C 414.304688 808.480469 415.195312 808.160156 416.070312 807.796875 C 416.945312 807.433594 417.800781 807.03125 418.636719 806.585938 C 419.472656 806.136719 420.285156 805.652344 421.070312 805.125 C 421.859375 804.597656 422.621094 804.035156 423.351562 803.433594 C 424.085938 802.832031 424.785156 802.195312 425.457031 801.527344 C 426.125 800.855469 426.761719 800.15625 427.363281 799.421875 C 427.964844 798.691406 428.527344 797.929688 429.054688 797.144531 C 429.578125 796.355469 430.066406 795.542969 430.511719 794.707031 C 430.960938 793.871094 431.363281 793.015625 431.726562 792.140625 C 432.089844 791.265625 432.40625 790.375 432.683594 789.46875 C 432.957031 788.5625 433.1875 787.644531 433.371094 786.714844 C 433.558594 785.785156 433.695312 784.851562 433.789062 783.90625 C 433.882812 782.964844 433.929688 782.019531 433.929688 781.070312 L 433.929688 694.285156 C 433.929688 693.339844 433.882812 692.394531 433.789062 691.449219 C 433.695312 690.507812 433.558594 689.570312 433.371094 688.640625 C 433.1875 687.710938 432.957031 686.792969 432.683594 685.886719 C 432.40625 684.980469 432.089844 684.089844 431.726562 683.214844 C 431.363281 682.339844 430.960938 681.484375 430.511719 680.648438 C 430.066406 679.8125 429.578125 679 429.054688 678.214844 C 428.527344 677.425781 427.964844 676.667969 427.363281 675.933594 C 426.761719 675.203125 426.125 674.5 425.457031 673.832031 C 424.785156 673.160156 424.085938 672.523438 423.351562 671.921875 C 422.621094 671.324219 421.859375 670.757812 421.070312 670.234375 C 420.285156 669.707031 419.472656 669.21875 418.636719 668.773438 C 417.800781 668.328125 416.945312 667.921875 416.070312 667.558594 C 415.195312 667.195312 414.304688 666.878906 413.398438 666.601562 C 412.492188 666.328125 411.574219 666.097656 410.644531 665.914062 C 409.714844 665.726562 408.777344 665.589844 407.835938 665.496094 C 406.894531 665.402344 405.949219 665.355469 405 665.355469 Z M 405 665.355469 " fill-opacity="1" fill-rule="nonzero"/><path fill="#000000" d="M 609.554688 229.375 C 611.453125 229.375 613.335938 229.1875 615.195312 228.816406 C 617.058594 228.445312 618.867188 227.898438 620.625 227.171875 C 622.378906 226.445312 624.042969 225.550781 625.625 224.496094 C 627.203125 223.441406 628.664062 222.242188 630.007812 220.898438 L 691.394531 159.542969 C 692.0625 158.871094 692.703125 158.167969 693.304688 157.4375 C 693.90625 156.703125 694.472656 155.945312 695 155.15625 C 695.527344 154.367188 696.015625 153.554688 696.464844 152.71875 C 696.910156 151.882812 697.316406 151.027344 697.679688 150.148438 C 698.042969 149.273438 698.363281 148.382812 698.640625 147.476562 C 698.917969 146.566406 699.148438 145.648438 699.332031 144.71875 C 699.519531 143.789062 699.65625 142.851562 699.75 141.90625 C 699.84375 140.960938 699.890625 140.015625 699.894531 139.066406 C 699.894531 138.117188 699.847656 137.171875 699.753906 136.226562 C 699.664062 135.285156 699.523438 134.347656 699.339844 133.417969 C 699.15625 132.484375 698.925781 131.566406 698.648438 130.660156 C 698.375 129.75 698.054688 128.859375 697.691406 127.984375 C 697.328125 127.105469 696.925781 126.25 696.476562 125.414062 C 696.03125 124.574219 695.542969 123.761719 695.015625 122.972656 C 694.488281 122.183594 693.925781 121.425781 693.324219 120.691406 C 692.722656 119.957031 692.085938 119.253906 691.414062 118.585938 C 690.746094 117.914062 690.042969 117.277344 689.308594 116.675781 C 688.574219 116.074219 687.816406 115.511719 687.027344 114.984375 C 686.238281 114.457031 685.425781 113.96875 684.585938 113.523438 C 683.75 113.074219 682.894531 112.671875 682.019531 112.308594 C 681.140625 111.945312 680.25 111.625 679.339844 111.351562 C 678.433594 111.074219 677.515625 110.84375 676.582031 110.660156 C 675.652344 110.476562 674.714844 110.335938 673.773438 110.246094 C 672.828125 110.152344 671.882812 110.105469 670.933594 110.105469 C 669.984375 110.109375 669.039062 110.15625 668.09375 110.25 C 667.148438 110.34375 666.210938 110.480469 665.28125 110.667969 C 664.351562 110.851562 663.433594 111.082031 662.523438 111.359375 C 661.617188 111.636719 660.726562 111.957031 659.851562 112.320312 C 658.972656 112.683594 658.117188 113.089844 657.28125 113.535156 C 656.445312 113.984375 655.632812 114.472656 654.84375 115 C 654.054688 115.527344 653.296875 116.09375 652.5625 116.695312 C 651.832031 117.296875 651.128906 117.9375 650.457031 118.605469 L 589.101562 179.992188 C 588.097656 181 587.167969 182.074219 586.324219 183.214844 C 585.476562 184.359375 584.714844 185.558594 584.046875 186.8125 C 583.375 188.066406 582.800781 189.363281 582.320312 190.703125 C 581.84375 192.042969 581.464844 193.410156 581.1875 194.804688 C 580.910156 196.199219 580.734375 197.605469 580.667969 199.027344 C 580.597656 200.449219 580.632812 201.867188 580.769531 203.28125 C 580.910156 204.699219 581.152344 206.09375 581.5 207.476562 C 581.84375 208.855469 582.289062 210.203125 582.832031 211.515625 C 583.378906 212.828125 584.015625 214.097656 584.746094 215.316406 C 585.476562 216.535156 586.292969 217.695312 587.195312 218.796875 C 588.097656 219.894531 589.078125 220.921875 590.128906 221.878906 C 591.183594 222.835938 592.300781 223.707031 593.484375 224.496094 C 594.667969 225.289062 595.902344 225.988281 597.1875 226.59375 C 598.472656 227.203125 599.796875 227.714844 601.15625 228.128906 C 602.519531 228.539062 603.902344 228.851562 605.308594 229.0625 C 606.71875 229.269531 608.132812 229.375 609.554688 229.375 Z M 609.554688 229.375 " fill-opacity="1" fill-rule="nonzero"/><path fill="#000000" d="M 179.992188 589.101562 L 118.605469 650.457031 C 117.9375 651.128906 117.296875 651.832031 116.695312 652.5625 C 116.09375 653.296875 115.527344 654.054688 115 654.84375 C 114.472656 655.632812 113.984375 656.445312 113.535156 657.28125 C 113.089844 658.117188 112.683594 658.972656 112.320312 659.851562 C 111.957031 660.726562 111.636719 661.617188 111.359375 662.523438 C 111.082031 663.433594 110.851562 664.351562 110.667969 665.28125 C 110.480469 666.210938 110.339844 667.148438 110.25 668.09375 C 110.15625 669.039062 110.109375 669.984375 110.105469 670.933594 C 110.105469 671.882812 110.152344 672.828125 110.246094 673.773438 C 110.335938 674.714844 110.476562 675.652344 110.660156 676.582031 C 110.84375 677.515625 111.074219 678.433594 111.351562 679.339844 C 111.625 680.25 111.945312 681.140625 112.308594 682.019531 C 112.671875 682.894531 113.074219 683.75 113.523438 684.585938 C 113.96875 685.425781 114.457031 686.238281 114.984375 687.027344 C 115.511719 687.816406 116.074219 688.574219 116.675781 689.308594 C 117.277344 690.042969 117.914062 690.746094 118.585938 691.414062 C 119.253906 692.085938 119.957031 692.722656 120.691406 693.324219 C 121.425781 693.925781 122.183594 694.488281 122.972656 695.015625 C 123.761719 695.542969 124.574219 696.03125 125.414062 696.476562 C 126.25 696.925781 127.105469 697.328125 127.984375 697.691406 C 128.859375 698.054688 129.75 698.375 130.660156 698.648438 C 131.566406 698.925781 132.484375 699.15625 133.417969 699.339844 C 134.347656 699.523438 135.285156 699.664062 136.226562 699.753906 C 137.171875 699.847656 138.117188 699.894531 139.066406 699.894531 C 140.015625 699.890625 140.960938 699.84375 141.90625 699.75 C 142.851562 699.660156 143.789062 699.519531 144.71875 699.332031 C 145.648438 699.148438 146.566406 698.917969 147.476562 698.640625 C 148.382812 698.363281 149.273438 698.042969 150.148438 697.679688 C 151.027344 697.316406 151.882812 696.910156 152.71875 696.464844 C 153.554688 696.015625 154.367188 695.527344 155.15625 695 C 155.945312 694.472656 156.703125 693.90625 157.4375 693.304688 C 158.167969 692.703125 158.871094 692.0625 159.542969 691.394531 L 220.898438 630.035156 C 221.585938 629.371094 222.242188 628.671875 222.863281 627.941406 C 223.480469 627.210938 224.0625 626.453125 224.609375 625.664062 C 225.152344 624.875 225.65625 624.0625 226.121094 623.222656 C 226.582031 622.382812 227.003906 621.527344 227.382812 620.644531 C 227.761719 619.765625 228.09375 618.867188 228.382812 617.953125 C 228.671875 617.042969 228.914062 616.117188 229.113281 615.179688 C 229.308594 614.242188 229.457031 613.296875 229.5625 612.34375 C 229.664062 611.390625 229.722656 610.4375 229.730469 609.480469 C 229.738281 608.519531 229.699219 607.566406 229.613281 606.609375 C 229.523438 605.65625 229.390625 604.710938 229.210938 603.769531 C 229.03125 602.828125 228.804688 601.898438 228.53125 600.980469 C 228.257812 600.0625 227.9375 599.160156 227.578125 598.273438 C 227.214844 597.386719 226.808594 596.519531 226.359375 595.671875 C 225.910156 594.828125 225.421875 594.003906 224.890625 593.207031 C 224.359375 592.410156 223.789062 591.640625 223.183594 590.898438 C 222.578125 590.15625 221.933594 589.449219 221.257812 588.769531 C 220.582031 588.09375 219.871094 587.453125 219.128906 586.84375 C 218.386719 586.238281 217.617188 585.667969 216.820312 585.140625 C 216.023438 584.609375 215.203125 584.117188 214.355469 583.671875 C 213.507812 583.222656 212.644531 582.816406 211.757812 582.453125 C 210.871094 582.089844 209.96875 581.773438 209.046875 581.5 C 208.128906 581.226562 207.199219 581 206.261719 580.816406 C 205.320312 580.636719 204.371094 580.503906 203.417969 580.417969 C 202.464844 580.332031 201.507812 580.292969 200.550781 580.300781 C 199.59375 580.308594 198.636719 580.363281 197.683594 580.46875 C 196.734375 580.570312 195.789062 580.71875 194.851562 580.917969 C 193.914062 581.113281 192.988281 581.359375 192.074219 581.648438 C 191.160156 581.9375 190.265625 582.269531 189.382812 582.648438 C 188.503906 583.023438 187.644531 583.445312 186.804688 583.910156 C 185.96875 584.371094 185.152344 584.875 184.367188 585.421875 C 183.578125 585.964844 182.816406 586.546875 182.085938 587.167969 C 181.355469 587.785156 180.660156 588.441406 179.992188 589.128906 Z M 179.992188 589.101562 " fill-opacity="1" fill-rule="nonzero"/><path fill="#000000" d="M 630.007812 589.101562 C 629.339844 588.414062 628.644531 587.757812 627.914062 587.136719 C 627.183594 586.519531 626.421875 585.9375 625.632812 585.390625 C 624.847656 584.847656 624.03125 584.34375 623.195312 583.878906 C 622.355469 583.417969 621.496094 582.996094 620.617188 582.617188 C 619.734375 582.238281 618.839844 581.90625 617.925781 581.617188 C 617.011719 581.328125 616.085938 581.085938 615.148438 580.886719 C 614.210938 580.691406 613.265625 580.542969 612.316406 580.4375 C 611.363281 580.335938 610.40625 580.277344 609.449219 580.269531 C 608.492188 580.261719 607.535156 580.300781 606.582031 580.386719 C 605.628906 580.472656 604.679688 580.609375 603.738281 580.789062 C 602.800781 580.96875 601.871094 581.195312 600.949219 581.46875 C 600.03125 581.742188 599.128906 582.0625 598.242188 582.421875 C 597.355469 582.785156 596.492188 583.191406 595.644531 583.640625 C 594.796875 584.089844 593.976562 584.578125 593.179688 585.109375 C 592.382812 585.640625 591.613281 586.210938 590.871094 586.816406 C 590.128906 587.421875 589.417969 588.066406 588.742188 588.742188 C 588.066406 589.417969 587.421875 590.128906 586.816406 590.871094 C 586.210938 591.613281 585.640625 592.382812 585.109375 593.179688 C 584.578125 593.976562 584.089844 594.796875 583.640625 595.644531 C 583.191406 596.492188 582.785156 597.355469 582.421875 598.242188 C 582.0625 599.128906 581.742188 600.03125 581.46875 600.949219 C 581.195312 601.871094 580.96875 602.800781 580.789062 603.738281 C 580.609375 604.679688 580.472656 605.628906 580.386719 606.582031 C 580.300781 607.535156 580.261719 608.492188 580.269531 609.449219 C 580.277344 610.40625 580.335938 611.363281 580.4375 612.316406 C 580.542969 613.269531 580.691406 614.210938 580.886719 615.148438 C 581.085938 616.085938 581.328125 617.011719 581.617188 617.925781 C 581.90625 618.839844 582.238281 619.734375 582.617188 620.617188 C 582.996094 621.496094 583.417969 622.355469 583.878906 623.195312 C 584.34375 624.03125 584.847656 624.847656 585.390625 625.632812 C 585.9375 626.421875 586.519531 627.183594 587.136719 627.914062 C 587.757812 628.644531 588.414062 629.339844 589.101562 630.007812 L 650.457031 691.394531 C 651.128906 692.0625 651.832031 692.699219 652.5625 693.296875 C 653.296875 693.898438 654.058594 694.460938 654.84375 694.988281 C 655.632812 695.511719 656.445312 696 657.28125 696.445312 C 658.117188 696.890625 658.972656 697.296875 659.847656 697.65625 C 660.722656 698.019531 661.617188 698.339844 662.523438 698.613281 C 663.429688 698.886719 664.347656 699.117188 665.277344 699.300781 C 666.207031 699.484375 667.140625 699.625 668.085938 699.714844 C 669.027344 699.808594 669.972656 699.855469 670.921875 699.855469 C 671.867188 699.855469 672.8125 699.808594 673.757812 699.714844 C 674.699219 699.621094 675.636719 699.480469 676.566406 699.296875 C 677.496094 699.113281 678.414062 698.882812 679.320312 698.605469 C 680.226562 698.332031 681.117188 698.011719 681.992188 697.648438 C 682.867188 697.285156 683.722656 696.882812 684.558594 696.433594 C 685.394531 695.988281 686.207031 695.5 686.992188 694.976562 C 687.78125 694.449219 688.542969 693.886719 689.273438 693.285156 C 690.007812 692.683594 690.707031 692.046875 691.378906 691.378906 C 692.046875 690.707031 692.683594 690.007812 693.285156 689.273438 C 693.886719 688.542969 694.449219 687.78125 694.976562 686.992188 C 695.5 686.207031 695.988281 685.394531 696.433594 684.558594 C 696.882812 683.722656 697.285156 682.867188 697.648438 681.992188 C 698.011719 681.117188 698.332031 680.226562 698.605469 679.320312 C 698.882812 678.414062 699.113281 677.496094 699.296875 676.566406 C 699.480469 675.636719 699.621094 674.699219 699.714844 673.757812 C 699.808594 672.8125 699.855469 671.867188 699.855469 670.921875 C 699.855469 669.972656 699.808594 669.027344 699.714844 668.085938 C 699.625 667.144531 699.484375 666.207031 699.300781 665.277344 C 699.117188 664.347656 698.886719 663.429688 698.613281 662.523438 C 698.339844 661.617188 698.019531 660.722656 697.65625 659.847656 C 697.296875 658.972656 696.890625 658.117188 696.445312 657.28125 C 696 656.445312 695.511719 655.632812 694.988281 654.84375 C 694.460938 654.058594 693.898438 653.296875 693.296875 652.5625 C 692.699219 651.832031 692.0625 651.128906 691.394531 650.457031 Z M 630.007812 589.101562 " fill-opacity="1" fill-rule="nonzero"/><path fill="#000000" d="M 179.992188 220.898438 C 180.667969 221.550781 181.371094 222.167969 182.105469 222.75 C 182.839844 223.332031 183.597656 223.875 184.386719 224.386719 C 185.171875 224.894531 185.984375 225.363281 186.816406 225.792969 C 187.648438 226.222656 188.5 226.613281 189.371094 226.957031 C 190.238281 227.304688 191.125 227.609375 192.023438 227.871094 C 192.925781 228.132812 193.835938 228.351562 194.753906 228.523438 C 195.675781 228.695312 196.601562 228.824219 197.535156 228.90625 C 198.46875 228.988281 199.40625 229.027344 200.34375 229.019531 C 201.277344 229.007812 202.214844 228.957031 203.144531 228.855469 C 204.078125 228.757812 205 228.613281 205.917969 228.425781 C 206.835938 228.238281 207.742188 228.003906 208.636719 227.726562 C 209.535156 227.449219 210.414062 227.128906 211.277344 226.769531 C 212.140625 226.40625 212.984375 226.003906 213.808594 225.558594 C 214.636719 225.113281 215.4375 224.628906 216.214844 224.109375 C 216.992188 223.585938 217.742188 223.027344 218.464844 222.433594 C 219.191406 221.835938 219.882812 221.207031 220.546875 220.546875 C 221.207031 219.882812 221.835938 219.191406 222.433594 218.464844 C 223.027344 217.742188 223.585938 216.992188 224.109375 216.214844 C 224.628906 215.4375 225.113281 214.636719 225.558594 213.808594 C 226.003906 212.984375 226.40625 212.140625 226.769531 211.277344 C 227.128906 210.414062 227.449219 209.535156 227.726562 208.636719 C 228.003906 207.742188 228.238281 206.835938 228.425781 205.917969 C 228.613281 205 228.757812 204.078125 228.855469 203.144531 C 228.957031 202.214844 229.007812 201.277344 229.019531 200.34375 C 229.027344 199.40625 228.988281 198.46875 228.90625 197.535156 C 228.824219 196.601562 228.695312 195.675781 228.523438 194.753906 C 228.351562 193.835938 228.132812 192.925781 227.871094 192.023438 C 227.609375 191.125 227.304688 190.238281 226.957031 189.371094 C 226.613281 188.5 226.222656 187.648438 225.792969 186.816406 C 225.363281 185.984375 224.894531 185.171875 224.386719 184.386719 C 223.875 183.597656 223.332031 182.839844 222.75 182.105469 C 222.167969 181.371094 221.550781 180.667969 220.898438 179.992188 L 159.542969 118.605469 C 158.871094 117.9375 158.167969 117.300781 157.4375 116.703125 C 156.703125 116.101562 155.941406 115.539062 155.15625 115.011719 C 154.367188 114.488281 153.554688 114 152.71875 113.554688 C 151.882812 113.109375 151.027344 112.703125 150.152344 112.34375 C 149.277344 111.980469 148.382812 111.660156 147.476562 111.386719 C 146.570312 111.113281 145.652344 110.882812 144.722656 110.699219 C 143.792969 110.515625 142.859375 110.375 141.914062 110.285156 C 140.972656 110.191406 140.027344 110.144531 139.078125 110.144531 C 138.132812 110.144531 137.1875 110.191406 136.242188 110.285156 C 135.300781 110.378906 134.363281 110.519531 133.433594 110.703125 C 132.503906 110.886719 131.585938 111.117188 130.679688 111.394531 C 129.773438 111.667969 128.882812 111.988281 128.007812 112.351562 C 127.132812 112.714844 126.277344 113.117188 125.441406 113.566406 C 124.605469 114.011719 123.792969 114.5 123.007812 115.023438 C 122.21875 115.550781 121.457031 116.113281 120.726562 116.714844 C 119.992188 117.316406 119.292969 117.953125 118.621094 118.621094 C 117.953125 119.292969 117.316406 119.996094 116.714844 120.726562 C 116.113281 121.457031 115.550781 122.21875 115.023438 123.007812 C 114.5 123.792969 114.011719 124.605469 113.566406 125.441406 C 113.117188 126.277344 112.714844 127.132812 112.351562 128.007812 C 111.988281 128.882812 111.667969 129.773438 111.394531 130.679688 C 111.117188 131.585938 110.886719 132.503906 110.703125 133.433594 C 110.519531 134.363281 110.378906 135.300781 110.285156 136.242188 C 110.191406 137.1875 110.144531 138.132812 110.144531 139.078125 C 110.144531 140.027344 110.191406 140.972656 110.285156 141.914062 C 110.375 142.859375 110.515625 143.792969 110.699219 144.722656 C 110.882812 145.652344 111.113281 146.570312 111.386719 147.476562 C 111.660156 148.382812 111.980469 149.277344 112.34375 150.152344 C 112.703125 151.027344 113.109375 151.882812 113.554688 152.71875 C 114 153.554688 114.488281 154.367188 115.011719 155.15625 C 115.539062 155.941406 116.101562 156.703125 116.703125 157.4375 C 117.300781 158.167969 117.9375 158.871094 118.605469 159.542969 Z M 179.992188 220.898438 " fill-opacity="1" fill-rule="nonzero"/><path fill="#000000" d="M 144.644531 405 C 144.644531 404.050781 144.597656 403.109375 144.503906 402.164062 C 144.410156 401.222656 144.273438 400.285156 144.085938 399.355469 C 143.902344 398.425781 143.671875 397.507812 143.398438 396.601562 C 143.121094 395.695312 142.804688 394.804688 142.441406 393.929688 C 142.078125 393.054688 141.671875 392.199219 141.226562 391.363281 C 140.78125 390.527344 140.292969 389.714844 139.765625 388.929688 C 139.242188 388.140625 138.675781 387.378906 138.078125 386.648438 C 137.476562 385.914062 136.839844 385.214844 136.167969 384.542969 C 135.5 383.875 134.796875 383.238281 134.066406 382.636719 C 133.332031 382.035156 132.574219 381.472656 131.785156 380.945312 C 131 380.421875 130.1875 379.933594 129.351562 379.488281 C 128.515625 379.039062 127.660156 378.636719 126.785156 378.273438 C 125.910156 377.910156 125.019531 377.59375 124.113281 377.316406 C 123.207031 377.042969 122.289062 376.8125 121.359375 376.628906 C 120.429688 376.441406 119.492188 376.304688 118.550781 376.210938 C 117.605469 376.117188 116.660156 376.070312 115.714844 376.070312 L 28.929688 376.070312 C 27.980469 376.070312 27.035156 376.117188 26.09375 376.210938 C 25.148438 376.304688 24.214844 376.441406 23.285156 376.628906 C 22.355469 376.8125 21.4375 377.042969 20.53125 377.316406 C 19.625 377.59375 18.734375 377.910156 17.859375 378.273438 C 16.984375 378.636719 16.128906 379.039062 15.292969 379.488281 C 14.457031 379.933594 13.644531 380.421875 12.855469 380.945312 C 12.070312 381.472656 11.308594 382.035156 10.578125 382.636719 C 9.84375 383.238281 9.144531 383.875 8.472656 384.542969 C 7.804688 385.214844 7.167969 385.914062 6.566406 386.648438 C 5.964844 387.378906 5.402344 388.140625 4.875 388.929688 C 4.347656 389.714844 3.863281 390.527344 3.414062 391.363281 C 2.96875 392.199219 2.566406 393.054688 2.203125 393.929688 C 1.839844 394.804688 1.519531 395.695312 1.246094 396.601562 C 0.96875 397.507812 0.742188 398.425781 0.554688 399.355469 C 0.371094 400.285156 0.230469 401.222656 0.140625 402.164062 C 0.046875 403.109375 0 404.050781 0 405 C 0 405.949219 0.046875 406.894531 0.140625 407.835938 C 0.230469 408.777344 0.371094 409.714844 0.554688 410.644531 C 0.742188 411.574219 0.96875 412.492188 1.246094 413.398438 C 1.519531 414.304688 1.839844 415.195312 2.203125 416.070312 C 2.566406 416.945312 2.96875 417.800781 3.414062 418.636719 C 3.863281 419.472656 4.347656 420.285156 4.875 421.070312 C 5.402344 421.859375 5.964844 422.621094 6.566406 423.351562 C 7.167969 424.085938 7.804688 424.785156 8.472656 425.457031 C 9.144531 426.125 9.84375 426.761719 10.578125 427.363281 C 11.308594 427.964844 12.070312 428.527344 12.855469 429.054688 C 13.644531 429.578125 14.457031 430.066406 15.292969 430.511719 C 16.128906 430.960938 16.984375 431.363281 17.859375 431.726562 C 18.734375 432.089844 19.625 432.40625 20.53125 432.683594 C 21.4375 432.957031 22.355469 433.1875 23.285156 433.371094 C 24.214844 433.558594 25.148438 433.695312 26.09375 433.789062 C 27.035156 433.882812 27.980469 433.929688 28.929688 433.929688 L 115.714844 433.929688 C 116.660156 433.929688 117.605469 433.882812 118.550781 433.789062 C 119.492188 433.695312 120.429688 433.558594 121.359375 433.371094 C 122.289062 433.1875 123.207031 432.957031 124.113281 432.683594 C 125.019531 432.40625 125.910156 432.089844 126.785156 431.726562 C 127.660156 431.363281 128.515625 430.960938 129.351562 430.511719 C 130.1875 430.066406 131 429.578125 131.785156 429.054688 C 132.574219 428.527344 133.332031 427.964844 134.066406 427.363281 C 134.796875 426.761719 135.5 426.125 136.167969 425.457031 C 136.839844 424.785156 137.476562 424.085938 138.078125 423.351562 C 138.675781 422.621094 139.242188 421.859375 139.765625 421.070312 C 140.292969 420.285156 140.78125 419.472656 141.226562 418.636719 C 141.671875 417.800781 142.078125 416.945312 142.441406 416.070312 C 142.804688 415.195312 143.121094 414.304688 143.398438 413.398438 C 143.671875 412.492188 143.902344 411.574219 144.085938 410.644531 C 144.273438 409.714844 144.410156 408.777344 144.503906 407.835938 C 144.597656 406.894531 144.644531 405.949219 144.644531 405 Z M 144.644531 405 " fill-opacity="1" fill-rule="nonzero"/><path fill="#000000" d="M 781.070312 376.070312 L 694.285156 376.070312 C 693.339844 376.070312 692.394531 376.117188 691.449219 376.210938 C 690.507812 376.304688 689.570312 376.441406 688.640625 376.628906 C 687.710938 376.8125 686.792969 377.042969 685.886719 377.316406 C 684.980469 377.59375 684.089844 377.910156 683.214844 378.273438 C 682.339844 378.636719 681.484375 379.039062 680.648438 379.488281 C 679.8125 379.933594 679 380.421875 678.214844 380.945312 C 677.425781 381.472656 676.667969 382.035156 675.933594 382.636719 C 675.203125 383.238281 674.5 383.875 673.832031 384.542969 C 673.160156 385.214844 672.523438 385.914062 671.921875 386.648438 C 671.324219 387.378906 670.757812 388.140625 670.234375 388.929688 C 669.707031 389.714844 669.21875 390.527344 668.773438 391.363281 C 668.328125 392.199219 667.921875 393.054688 667.558594 393.929688 C 667.195312 394.804688 666.878906 395.695312 666.601562 396.601562 C 666.328125 397.507812 666.097656 398.425781 665.914062 399.355469 C 665.726562 400.285156 665.589844 401.222656 665.496094 402.164062 C 665.402344 403.109375 665.355469 404.050781 665.355469 405 C 665.355469 405.949219 665.402344 406.894531 665.496094 407.835938 C 665.589844 408.777344 665.726562 409.714844 665.914062 410.644531 C 666.097656 411.574219 666.328125 412.492188 666.601562 413.398438 C 666.878906 414.304688 667.195312 415.195312 667.558594 416.070312 C 667.921875 416.945312 668.328125 417.800781 668.773438 418.636719 C 669.21875 419.472656 669.707031 420.285156 670.234375 421.070312 C 670.757812 421.859375 671.324219 422.621094 671.921875 423.351562 C 672.523438 424.085938 673.160156 424.785156 673.832031 425.457031 C 674.5 426.125 675.203125 426.761719 675.933594 427.363281 C 676.667969 427.964844 677.425781 428.527344 678.214844 429.054688 C 679 429.578125 679.8125 430.066406 680.648438 430.511719 C 681.484375 430.960938 682.339844 431.363281 683.214844 431.726562 C 684.089844 432.089844 684.980469 432.40625 685.886719 432.683594 C 686.792969 432.957031 687.710938 433.1875 688.640625 433.371094 C 689.570312 433.558594 690.507812 433.695312 691.449219 433.789062 C 692.394531 433.882812 693.339844 433.929688 694.285156 433.929688 L 781.070312 433.929688 C 782.019531 433.929688 782.964844 433.882812 783.90625 433.789062 C 784.851562 433.695312 785.785156 433.558594 786.714844 433.371094 C 787.644531 433.1875 788.5625 432.957031 789.46875 432.683594 C 790.375 432.40625 791.265625 432.089844 792.140625 431.726562 C 793.015625 431.363281 793.871094 430.960938 794.707031 430.511719 C 795.542969 430.066406 796.355469 429.578125 797.144531 429.054688 C 797.929688 428.527344 798.691406 427.964844 799.421875 427.363281 C 800.15625 426.761719 800.855469 426.125 801.527344 425.457031 C 802.195312 424.785156 802.832031 424.085938 803.433594 423.351562 C 804.035156 422.621094 804.597656 421.859375 805.125 421.070312 C 805.652344 420.285156 806.136719 419.472656 806.585938 418.636719 C 807.03125 417.800781 807.433594 416.945312 807.796875 416.070312 C 808.160156 415.195312 808.480469 414.304688 808.753906 413.398438 C 809.03125 412.492188 809.257812 411.574219 809.445312 410.644531 C 809.628906 409.714844 809.769531 408.777344 809.859375 407.835938 C 809.953125 406.894531 810 405.949219 810 405 C 810 404.050781 809.953125 403.109375 809.859375 402.164062 C 809.769531 401.222656 809.628906 400.285156 809.445312 399.355469 C 809.257812 398.425781 809.027344 397.507812 808.753906 396.601562 C 808.480469 395.695312 808.160156 394.804688 807.796875 393.929688 C 807.433594 393.054688 807.03125 392.199219 806.585938 391.363281 C 806.136719 390.527344 805.652344 389.714844 805.125 388.929688 C 804.597656 388.140625 804.035156 387.378906 803.433594 386.648438 C 802.832031 385.914062 802.195312 385.214844 801.527344 384.542969 C 800.855469 383.875 800.15625 383.238281 799.421875 382.636719 C 798.691406 382.035156 797.929688 381.472656 797.144531 380.945312 C 796.355469 380.421875 795.542969 379.933594 794.707031 379.488281 C 793.871094 379.039062 793.015625 378.636719 792.140625 378.273438 C 791.265625 377.910156 790.375 377.59375 789.46875 377.316406 C 788.5625 377.042969 787.644531 376.8125 786.714844 376.628906 C 785.785156 376.441406 784.851562 376.304688 783.90625 376.210938 C 782.964844 376.117188 782.019531 376.070312 781.070312 376.070312 Z M 781.070312 376.070312 " fill-opacity="1" fill-rule="nonzero"/><g clip-path="url(#4f5c8ca4ff)"><g clip-path="url(#98d771038a)"><g transform="matrix(1, 0, 0, 1, 260, 480)"><g clip-path="url(#4acaab3f04)"><g clip-path="url(#addef17b50)"><g clip-path="url(#1bcae02915)"><path fill="#000000" d="M 0.304688 0.40625 L 17.683594 0.40625 L 17.683594 17.785156 L 0.304688 17.785156 Z M 0.304688 0.40625 " fill-opacity="1" fill-rule="nonzero"/></g></g></g></g></g></g></svg>