<svg xmlns="http://www.w3.org/2000/svg" xmlns:xlink="http://www.w3.org/1999/xlink" width="1080" zoomAndPan="magnify" viewBox="0 0 810 809.999993" height="1080" preserveAspectRatio="xMidYMid meet" version="1.0"><defs><clipPath id="6296ea578a"><path d="M 273.453125 461.621094 L 290.832031 461.621094 L 290.832031 479 L 273.453125 479 Z M 273.453125 461.621094 " clip-rule="nonzero"/></clipPath><clipPath id="bad8664915"><path d="M 282.140625 461.621094 C 277.34375 461.621094 273.453125 465.511719 273.453125 470.3125 C 273.453125 475.109375 277.34375 479 282.140625 479 C 286.941406 479 290.832031 475.109375 290.832031 470.3125 C 290.832031 465.511719 286.941406 461.621094 282.140625 461.621094 Z M 282.140625 461.621094 " clip-rule="nonzero"/></clipPath><clipPath id="6d57254daf"><path d="M 0.453125 0.621094 L 17.832031 0.621094 L 17.832031 18 L 0.453125 18 Z M 0.453125 0.621094 " clip-rule="nonzero"/></clipPath><clipPath id="fa749e70c9"><path d="M 9.140625 0.621094 C 4.34375 0.621094 0.453125 4.511719 0.453125 9.3125 C 0.453125 14.109375 4.34375 18 9.140625 18 C 13.941406 18 17.832031 14.109375 17.832031 9.3125 C 17.832031 4.511719 13.941406 0.621094 9.140625 0.621094 Z M 9.140625 0.621094 " clip-rule="nonzero"/></clipPath><clipPath id="c911e72107"><rect x="0" width="18" y="0" height="18"/></clipPath></defs><path fill="#000000" d="M 315.824219 123.851562 C 315.824219 121.828125 315.773438 119.800781 315.671875 117.777344 C 315.574219 115.753906 315.421875 113.734375 315.222656 111.714844 C 315.023438 109.699219 314.777344 107.6875 314.476562 105.683594 C 314.179688 103.679688 313.832031 101.683594 313.4375 99.695312 C 313.042969 97.710938 312.597656 95.734375 312.105469 93.765625 C 311.613281 91.800781 311.070312 89.847656 310.480469 87.910156 C 309.894531 85.972656 309.257812 84.046875 308.574219 82.140625 C 307.890625 80.230469 307.160156 78.34375 306.386719 76.46875 C 305.609375 74.597656 304.789062 72.746094 303.921875 70.914062 C 303.054688 69.082031 302.144531 67.273438 301.1875 65.484375 C 300.234375 63.699219 299.234375 61.9375 298.191406 60.199219 C 297.152344 58.460938 296.066406 56.75 294.941406 55.066406 C 293.816406 53.378906 292.648438 51.722656 291.441406 50.097656 C 290.234375 48.46875 288.988281 46.871094 287.703125 45.304688 C 286.414062 43.738281 285.09375 42.207031 283.730469 40.703125 C 282.371094 39.203125 280.972656 37.734375 279.539062 36.304688 C 278.109375 34.871094 276.640625 33.472656 275.140625 32.113281 C 273.636719 30.753906 272.105469 29.429688 270.539062 28.144531 C 268.972656 26.859375 267.375 25.613281 265.746094 24.40625 C 264.117188 23.199219 262.460938 22.03125 260.777344 20.90625 C 259.09375 19.78125 257.382812 18.699219 255.644531 17.65625 C 253.90625 16.613281 252.144531 15.617188 250.355469 14.660156 C 248.570312 13.707031 246.761719 12.796875 244.929688 11.929688 C 243.097656 11.0625 241.246094 10.242188 239.375 9.464844 C 237.5 8.691406 235.613281 7.960938 233.703125 7.28125 C 231.796875 6.597656 229.871094 5.960938 227.933594 5.375 C 225.996094 4.785156 224.042969 4.246094 222.078125 3.753906 C 220.113281 3.261719 218.136719 2.816406 216.148438 2.421875 C 214.160156 2.027344 212.164062 1.679688 210.160156 1.382812 C 208.15625 1.085938 206.148438 0.835938 204.128906 0.640625 C 202.113281 0.441406 200.09375 0.292969 198.070312 0.191406 C 196.046875 0.09375 194.023438 0.0429688 191.996094 0.0429688 C 189.96875 0.0429688 187.945312 0.09375 185.921875 0.191406 C 183.898438 0.292969 181.878906 0.441406 179.863281 0.640625 C 177.84375 0.835938 175.835938 1.085938 173.832031 1.382812 C 171.828125 1.679688 169.832031 2.027344 167.84375 2.421875 C 165.855469 2.816406 163.878906 3.261719 161.914062 3.753906 C 159.949219 4.246094 157.996094 4.785156 156.058594 5.375 C 154.121094 5.960938 152.195312 6.597656 150.289062 7.28125 C 148.382812 7.960938 146.492188 8.691406 144.621094 9.464844 C 142.746094 10.242188 140.894531 11.0625 139.0625 11.929688 C 137.230469 12.796875 135.421875 13.707031 133.636719 14.660156 C 131.847656 15.617188 130.085938 16.613281 128.347656 17.65625 C 126.609375 18.699219 124.898438 19.78125 123.214844 20.90625 C 121.53125 22.03125 119.875 23.199219 118.246094 24.40625 C 116.617188 25.613281 115.023438 26.859375 113.457031 28.144531 C 111.890625 29.429688 110.355469 30.753906 108.851562 32.113281 C 107.351562 33.472656 105.882812 34.871094 104.453125 36.304688 C 103.019531 37.734375 101.621094 39.203125 100.261719 40.703125 C 98.898438 42.207031 97.578125 43.738281 96.292969 45.304688 C 95.003906 46.871094 93.757812 48.46875 92.550781 50.097656 C 91.34375 51.722656 90.179688 53.378906 89.050781 55.066406 C 87.925781 56.75 86.84375 58.460938 85.800781 60.199219 C 84.757812 61.9375 83.757812 63.699219 82.804688 65.484375 C 81.847656 67.273438 80.9375 69.082031 80.070312 70.914062 C 79.203125 72.746094 78.382812 74.597656 77.605469 76.46875 C 76.832031 78.34375 76.101562 80.230469 75.417969 82.140625 C 74.734375 84.046875 74.097656 85.972656 73.511719 87.910156 C 72.921875 89.847656 72.382812 91.800781 71.886719 93.765625 C 71.394531 95.734375 70.949219 97.710938 70.554688 99.695312 C 70.160156 101.683594 69.8125 103.679688 69.515625 105.683594 C 69.214844 107.6875 68.96875 109.699219 68.769531 111.714844 C 68.570312 113.734375 68.417969 115.753906 68.320312 117.777344 C 68.21875 119.800781 68.167969 121.828125 68.167969 123.851562 L 68.167969 498.136719 C 66.191406 500.15625 64.265625 502.222656 62.390625 504.332031 C 60.511719 506.445312 58.6875 508.601562 56.917969 510.804688 C 55.148438 513.003906 53.433594 515.25 51.769531 517.535156 C 50.109375 519.820312 48.507812 522.144531 46.957031 524.507812 C 45.410156 526.871094 43.921875 529.273438 42.492188 531.710938 C 41.0625 534.144531 39.691406 536.617188 38.382812 539.121094 C 37.074219 541.625 35.828125 544.15625 34.640625 546.722656 C 33.457031 549.285156 32.332031 551.878906 31.273438 554.496094 C 30.214844 557.117188 29.222656 559.761719 28.292969 562.429688 C 27.363281 565.097656 26.5 567.785156 25.699219 570.496094 C 24.902344 573.207031 24.171875 575.933594 23.507812 578.679688 C 22.839844 581.425781 22.246094 584.1875 21.714844 586.964844 C 21.183594 589.738281 20.722656 592.523438 20.328125 595.324219 C 19.933594 598.121094 19.609375 600.925781 19.355469 603.742188 C 19.097656 606.554688 18.910156 609.371094 18.789062 612.195312 C 18.671875 615.019531 18.621094 617.84375 18.640625 620.667969 C 18.660156 623.492188 18.75 626.316406 18.90625 629.136719 C 19.0625 631.957031 19.289062 634.773438 19.582031 637.585938 C 19.878906 640.394531 20.242188 643.195312 20.671875 645.988281 C 21.105469 648.78125 21.605469 651.558594 22.171875 654.328125 C 22.738281 657.09375 23.375 659.847656 24.078125 662.585938 C 24.777344 665.320312 25.546875 668.039062 26.382812 670.738281 C 27.21875 673.4375 28.117188 676.113281 29.082031 678.769531 C 30.050781 681.425781 31.078125 684.054688 32.175781 686.660156 C 33.269531 689.265625 34.425781 691.839844 35.644531 694.390625 C 36.867188 696.9375 38.148438 699.453125 39.492188 701.941406 C 40.835938 704.425781 42.238281 706.878906 43.699219 709.292969 C 45.164062 711.710938 46.683594 714.089844 48.265625 716.433594 C 49.84375 718.777344 51.480469 721.078125 53.171875 723.339844 C 54.863281 725.605469 56.609375 727.824219 58.410156 730 C 60.210938 732.179688 62.0625 734.308594 63.96875 736.398438 C 65.871094 738.484375 67.828125 740.523438 69.832031 742.511719 C 71.835938 744.503906 73.886719 746.445312 75.984375 748.335938 C 78.085938 750.226562 80.230469 752.066406 82.417969 753.851562 C 84.605469 755.636719 86.839844 757.367188 89.113281 759.046875 C 91.386719 760.722656 93.699219 762.34375 96.050781 763.90625 C 98.402344 765.46875 100.792969 766.976562 103.21875 768.421875 C 105.644531 769.867188 108.105469 771.253906 110.601562 772.582031 C 113.09375 773.910156 115.621094 775.171875 118.175781 776.375 C 120.730469 777.578125 123.316406 778.71875 125.925781 779.796875 C 128.539062 780.875 131.175781 781.886719 133.835938 782.832031 C 136.496094 783.78125 139.179688 784.664062 141.882812 785.480469 C 144.589844 786.296875 147.3125 787.046875 150.050781 787.730469 C 152.792969 788.414062 155.550781 789.03125 158.320312 789.578125 C 161.089844 790.128906 163.875 790.609375 166.667969 791.023438 C 169.464844 791.433594 172.265625 791.78125 175.078125 792.054688 C 177.890625 792.332031 180.707031 792.539062 183.527344 792.675781 C 186.347656 792.8125 189.171875 792.882812 191.996094 792.882812 C 194.820312 792.882812 197.644531 792.8125 200.464844 792.675781 C 203.289062 792.539062 206.105469 792.332031 208.914062 792.054688 C 211.726562 791.78125 214.527344 791.433594 217.324219 791.023438 C 220.117188 790.609375 222.902344 790.128906 225.671875 789.578125 C 228.441406 789.03125 231.199219 788.414062 233.941406 787.730469 C 236.679688 787.046875 239.402344 786.296875 242.109375 785.480469 C 244.8125 784.664062 247.496094 783.78125 250.15625 782.832031 C 252.816406 781.886719 255.453125 780.875 258.066406 779.796875 C 260.675781 778.71875 263.261719 777.578125 265.816406 776.375 C 268.371094 775.171875 270.898438 773.910156 273.390625 772.582031 C 275.886719 771.253906 278.347656 769.867188 280.773438 768.421875 C 283.199219 766.976562 285.589844 765.46875 287.941406 763.90625 C 290.292969 762.34375 292.605469 760.722656 294.878906 759.046875 C 297.152344 757.367188 299.386719 755.636719 301.574219 753.851562 C 303.761719 752.066406 305.90625 750.226562 308.007812 748.335938 C 310.105469 746.445312 312.15625 744.503906 314.160156 742.511719 C 316.167969 740.523438 318.121094 738.484375 320.023438 736.398438 C 321.929688 734.308594 323.78125 732.179688 325.582031 730 C 327.382812 727.824219 329.128906 725.605469 330.820312 723.339844 C 332.511719 721.078125 334.148438 718.777344 335.726562 716.433594 C 337.308594 714.089844 338.828125 711.710938 340.292969 709.292969 C 341.753906 706.878906 343.15625 704.425781 344.5 701.941406 C 345.84375 699.453125 347.125 696.9375 348.347656 694.390625 C 349.566406 691.839844 350.722656 689.265625 351.820312 686.660156 C 352.914062 684.054688 353.941406 681.425781 354.910156 678.769531 C 355.875 676.113281 356.773438 673.4375 357.609375 670.738281 C 358.445312 668.039062 359.214844 665.320312 359.914062 662.585938 C 360.617188 659.847656 361.253906 657.09375 361.820312 654.328125 C 362.386719 651.558594 362.886719 648.78125 363.320312 645.988281 C 363.75 643.195312 364.113281 640.394531 364.410156 637.585938 C 364.703125 634.773438 364.929688 631.957031 365.085938 629.136719 C 365.242188 626.316406 365.332031 623.492188 365.351562 620.667969 C 365.371094 617.84375 365.320312 615.019531 365.203125 612.195312 C 365.082031 609.371094 364.894531 606.554688 364.640625 603.742188 C 364.382812 600.925781 364.058594 598.121094 363.664062 595.324219 C 363.269531 592.523438 362.808594 589.738281 362.277344 586.964844 C 361.75 584.1875 361.152344 581.425781 360.484375 578.679688 C 359.820312 575.933594 359.089844 573.207031 358.292969 570.496094 C 357.492188 567.785156 356.628906 565.097656 355.699219 562.429688 C 354.769531 559.761719 353.777344 557.117188 352.71875 554.496094 C 351.660156 551.878906 350.535156 549.285156 349.351562 546.722656 C 348.164062 544.15625 346.917969 541.625 345.609375 539.121094 C 344.300781 536.617188 342.929688 534.144531 341.5 531.710938 C 340.070312 529.273438 338.582031 526.871094 337.035156 524.507812 C 335.484375 522.144531 333.882812 519.820312 332.222656 517.535156 C 330.558594 515.25 328.84375 513.003906 327.074219 510.804688 C 325.304688 508.601562 323.480469 506.445312 321.605469 504.332031 C 319.726562 502.222656 317.800781 500.15625 315.824219 498.136719 Z M 191.996094 743.121094 C 188.886719 743.121094 185.777344 743.007812 182.675781 742.777344 C 179.574219 742.546875 176.484375 742.199219 173.40625 741.734375 C 170.332031 741.269531 167.277344 740.691406 164.242188 739.996094 C 161.210938 739.300781 158.207031 738.492188 155.234375 737.574219 C 152.265625 736.652344 149.332031 735.621094 146.4375 734.476562 C 143.542969 733.332031 140.695312 732.082031 137.898438 730.726562 C 135.097656 729.367188 132.355469 727.90625 129.664062 726.34375 C 126.976562 724.777344 124.347656 723.113281 121.785156 721.351562 C 119.222656 719.585938 116.726562 717.730469 114.304688 715.777344 C 111.878906 713.828125 109.535156 711.789062 107.261719 709.660156 C 104.992188 707.53125 102.808594 705.320312 100.703125 703.027344 C 98.601562 700.734375 96.589844 698.363281 94.664062 695.917969 C 92.738281 693.472656 90.910156 690.957031 89.175781 688.375 C 87.441406 685.792969 85.808594 683.144531 84.273438 680.4375 C 82.738281 677.734375 81.308594 674.972656 79.980469 672.15625 C 78.652344 669.34375 77.4375 666.480469 76.324219 663.574219 C 75.214844 660.667969 74.214844 657.722656 73.328125 654.742188 C 72.4375 651.757812 71.664062 648.746094 71 645.707031 C 70.339844 642.664062 69.792969 639.605469 69.363281 636.523438 C 68.933594 633.441406 68.621094 630.347656 68.425781 627.238281 C 68.226562 624.132812 68.148438 621.027344 68.183594 617.914062 C 68.222656 614.800781 68.378906 611.695312 68.648438 608.597656 C 68.921875 605.496094 69.3125 602.410156 69.816406 599.339844 C 70.320312 596.269531 70.941406 593.222656 71.675781 590.199219 C 72.410156 587.175781 73.257812 584.183594 74.21875 581.222656 C 75.179688 578.261719 76.25 575.34375 77.429688 572.464844 C 78.609375 569.585938 79.898438 566.753906 81.292969 563.972656 C 82.6875 561.191406 84.183594 558.464844 85.785156 555.796875 C 87.382812 553.128906 89.082031 550.523438 90.878906 547.984375 C 92.675781 545.441406 94.566406 542.972656 96.546875 540.574219 C 98.53125 538.175781 100.601562 535.855469 102.757812 533.617188 C 104.917969 531.375 107.15625 529.214844 109.476562 527.144531 C 110.769531 525.984375 111.929688 524.699219 112.953125 523.292969 C 113.976562 521.890625 114.839844 520.390625 115.550781 518.804688 C 116.257812 517.21875 116.792969 515.574219 117.15625 513.871094 C 117.519531 512.171875 117.699219 510.453125 117.699219 508.714844 L 117.699219 123.851562 C 117.699219 122.636719 117.730469 121.421875 117.789062 120.207031 C 117.847656 118.992188 117.9375 117.78125 118.058594 116.570312 C 118.175781 115.359375 118.324219 114.152344 118.503906 112.949219 C 118.683594 111.746094 118.890625 110.546875 119.128906 109.355469 C 119.363281 108.164062 119.628906 106.976562 119.925781 105.796875 C 120.222656 104.617188 120.546875 103.445312 120.898438 102.28125 C 121.25 101.117188 121.632812 99.964844 122.042969 98.816406 C 122.453125 97.671875 122.890625 96.539062 123.355469 95.414062 C 123.820312 94.292969 124.3125 93.179688 124.832031 92.082031 C 125.351562 90.980469 125.898438 89.894531 126.472656 88.824219 C 127.046875 87.75 127.644531 86.691406 128.269531 85.648438 C 128.894531 84.605469 129.546875 83.578125 130.222656 82.566406 C 130.894531 81.554688 131.597656 80.5625 132.320312 79.585938 C 133.042969 78.609375 133.792969 77.648438 134.5625 76.710938 C 135.335938 75.769531 136.128906 74.847656 136.945312 73.949219 C 137.761719 73.046875 138.601562 72.167969 139.460938 71.308594 C 140.320312 70.445312 141.199219 69.609375 142.101562 68.792969 C 143.003906 67.976562 143.921875 67.179688 144.863281 66.410156 C 145.804688 65.636719 146.761719 64.890625 147.738281 64.164062 C 148.714844 63.441406 149.707031 62.742188 150.71875 62.066406 C 151.730469 61.390625 152.757812 60.738281 153.800781 60.113281 C 154.84375 59.488281 155.902344 58.890625 156.972656 58.316406 C 158.046875 57.742188 159.132812 57.195312 160.230469 56.675781 C 161.328125 56.15625 162.441406 55.664062 163.5625 55.199219 C 164.6875 54.734375 165.820312 54.296875 166.964844 53.886719 C 168.109375 53.476562 169.265625 53.09375 170.429688 52.742188 C 171.59375 52.386719 172.765625 52.0625 173.945312 51.769531 C 175.121094 51.472656 176.308594 51.207031 177.5 50.96875 C 178.695312 50.730469 179.890625 50.523438 181.09375 50.34375 C 182.296875 50.167969 183.503906 50.019531 184.714844 49.898438 C 185.925781 49.78125 187.136719 49.691406 188.351562 49.628906 C 189.566406 49.570312 190.78125 49.542969 191.996094 49.542969 C 193.210938 49.542969 194.425781 49.570312 195.640625 49.628906 C 196.855469 49.691406 198.070312 49.78125 199.277344 49.898438 C 200.488281 50.019531 201.695312 50.167969 202.898438 50.34375 C 204.101562 50.523438 205.296875 50.730469 206.492188 50.96875 C 207.683594 51.207031 208.871094 51.472656 210.046875 51.769531 C 211.226562 52.0625 212.398438 52.386719 213.5625 52.742188 C 214.726562 53.09375 215.882812 53.476562 217.027344 53.886719 C 218.171875 54.296875 219.304688 54.734375 220.429688 55.199219 C 221.550781 55.664062 222.664062 56.15625 223.761719 56.675781 C 224.859375 57.195312 225.945312 57.742188 227.019531 58.316406 C 228.089844 58.890625 229.148438 59.488281 230.191406 60.113281 C 231.234375 60.738281 232.261719 61.390625 233.273438 62.066406 C 234.285156 62.742188 235.277344 63.441406 236.253906 64.164062 C 237.230469 64.890625 238.191406 65.636719 239.128906 66.410156 C 240.070312 67.179688 240.988281 67.976562 241.890625 68.792969 C 242.792969 69.609375 243.671875 70.445312 244.53125 71.308594 C 245.390625 72.167969 246.230469 73.046875 247.046875 73.949219 C 247.863281 74.847656 248.65625 75.769531 249.429688 76.710938 C 250.199219 77.648438 250.949219 78.609375 251.671875 79.585938 C 252.394531 80.5625 253.097656 81.554688 253.773438 82.566406 C 254.445312 83.578125 255.097656 84.605469 255.722656 85.648438 C 256.347656 86.691406 256.945312 87.75 257.519531 88.824219 C 258.09375 89.894531 258.640625 90.980469 259.160156 92.082031 C 259.679688 93.179688 260.171875 94.292969 260.636719 95.414062 C 261.101562 96.539062 261.539062 97.671875 261.949219 98.816406 C 262.359375 99.964844 262.742188 101.117188 263.09375 102.28125 C 263.445312 103.445312 263.769531 104.617188 264.066406 105.796875 C 264.363281 106.976562 264.628906 108.164062 264.867188 109.355469 C 265.101562 110.546875 265.308594 111.746094 265.488281 112.949219 C 265.667969 114.152344 265.816406 115.359375 265.933594 116.570312 C 266.054688 117.78125 266.144531 118.992188 266.203125 120.207031 C 266.261719 121.421875 266.292969 122.636719 266.292969 123.851562 L 266.292969 508.714844 C 266.292969 510.453125 266.472656 512.171875 266.835938 513.871094 C 267.199219 515.574219 267.734375 517.21875 268.441406 518.804688 C 269.152344 520.390625 270.015625 521.890625 271.039062 523.292969 C 272.0625 524.699219 273.222656 525.984375 274.515625 527.144531 C 276.835938 529.214844 279.074219 531.375 281.234375 533.617188 C 283.390625 535.859375 285.460938 538.175781 287.445312 540.574219 C 289.425781 542.972656 291.316406 545.441406 293.113281 547.984375 C 294.910156 550.523438 296.609375 553.128906 298.207031 555.796875 C 299.808594 558.464844 301.304688 561.191406 302.699219 563.972656 C 304.09375 566.753906 305.382812 569.585938 306.5625 572.464844 C 307.742188 575.34375 308.8125 578.261719 309.773438 581.222656 C 310.734375 584.183594 311.582031 587.175781 312.316406 590.199219 C 313.050781 593.222656 313.671875 596.269531 314.175781 599.339844 C 314.683594 602.410156 315.070312 605.496094 315.34375 608.597656 C 315.613281 611.695312 315.769531 614.800781 315.808594 617.914062 C 315.84375 621.027344 315.765625 624.132812 315.570312 627.238281 C 315.371094 630.347656 315.058594 633.441406 314.628906 636.523438 C 314.199219 639.605469 313.652344 642.664062 312.992188 645.707031 C 312.328125 648.746094 311.554688 651.757812 310.667969 654.742188 C 309.777344 657.722656 308.777344 660.667969 307.667969 663.574219 C 306.558594 666.480469 305.339844 669.34375 304.011719 672.15625 C 302.683594 674.972656 301.253906 677.734375 299.71875 680.4375 C 298.183594 683.144531 296.550781 685.792969 294.816406 688.375 C 293.082031 690.957031 291.253906 693.472656 289.328125 695.917969 C 287.402344 698.363281 285.390625 700.734375 283.289062 703.027344 C 281.183594 705.320312 279 707.53125 276.730469 709.660156 C 274.460938 711.789062 272.113281 713.828125 269.6875 715.777344 C 267.265625 717.730469 264.769531 719.585938 262.207031 721.351562 C 259.644531 723.113281 257.015625 724.777344 254.328125 726.34375 C 251.640625 727.90625 248.894531 729.367188 246.09375 730.726562 C 243.296875 732.082031 240.449219 733.332031 237.554688 734.476562 C 234.660156 735.621094 231.726562 736.652344 228.757812 737.574219 C 225.785156 738.492188 222.78125 739.300781 219.75 739.996094 C 216.714844 740.691406 213.664062 741.269531 210.585938 741.734375 C 207.507812 742.199219 204.417969 742.546875 201.316406 742.777344 C 198.214844 743.007812 195.109375 743.121094 191.996094 743.121094 Z M 191.996094 743.121094 " fill-opacity="1" fill-rule="nonzero"/><path fill="#000000" d="M 215.894531 549.238281 C 216.324219 547.839844 216.609375 546.410156 216.761719 544.953125 L 216.761719 148.625 C 216.761719 147.8125 216.722656 147.003906 216.640625 146.195312 C 216.5625 145.386719 216.445312 144.585938 216.285156 143.792969 C 216.128906 142.996094 215.929688 142.210938 215.695312 141.433594 C 215.460938 140.65625 215.1875 139.894531 214.875 139.144531 C 214.566406 138.394531 214.21875 137.664062 213.835938 136.945312 C 213.457031 136.230469 213.039062 135.535156 212.589844 134.863281 C 212.136719 134.1875 211.65625 133.535156 211.140625 132.910156 C 210.625 132.28125 210.082031 131.683594 209.507812 131.109375 C 208.933594 130.535156 208.335938 129.992188 207.707031 129.476562 C 207.082031 128.960938 206.429688 128.480469 205.753906 128.027344 C 205.082031 127.578125 204.386719 127.160156 203.671875 126.777344 C 202.957031 126.394531 202.222656 126.050781 201.472656 125.738281 C 200.722656 125.429688 199.960938 125.15625 199.183594 124.917969 C 198.410156 124.683594 197.625 124.488281 196.828125 124.328125 C 196.03125 124.171875 195.230469 124.050781 194.421875 123.972656 C 193.617188 123.894531 192.808594 123.851562 191.996094 123.851562 C 191.183594 123.851562 190.375 123.894531 189.570312 123.972656 C 188.761719 124.050781 187.960938 124.171875 187.164062 124.328125 C 186.371094 124.488281 185.582031 124.683594 184.808594 124.917969 C 184.03125 125.15625 183.269531 125.429688 182.519531 125.738281 C 181.769531 126.050781 181.035156 126.394531 180.320312 126.777344 C 179.605469 127.160156 178.910156 127.578125 178.238281 128.027344 C 177.5625 128.480469 176.910156 128.960938 176.285156 129.476562 C 175.65625 129.992188 175.058594 130.535156 174.484375 131.109375 C 173.910156 131.683594 173.367188 132.28125 172.851562 132.910156 C 172.335938 133.535156 171.855469 134.1875 171.40625 134.863281 C 170.953125 135.535156 170.539062 136.230469 170.15625 136.945312 C 169.773438 137.664062 169.425781 138.394531 169.117188 139.144531 C 168.804688 139.894531 168.53125 140.65625 168.296875 141.433594 C 168.0625 142.210938 167.863281 142.996094 167.707031 143.792969 C 167.546875 144.585938 167.429688 145.386719 167.351562 146.195312 C 167.269531 147.003906 167.230469 147.8125 167.230469 148.625 L 167.230469 544.953125 C 167.378906 546.410156 167.667969 547.839844 168.097656 549.238281 C 166.722656 549.707031 165.363281 550.214844 164.015625 550.761719 C 162.671875 551.308594 161.34375 551.894531 160.03125 552.519531 C 158.722656 553.144531 157.429688 553.808594 156.15625 554.507812 C 154.882812 555.207031 153.632812 555.945312 152.40625 556.71875 C 151.175781 557.492188 149.972656 558.304688 148.789062 559.148438 C 147.609375 559.992188 146.453125 560.871094 145.320312 561.785156 C 144.191406 562.695312 143.089844 563.640625 142.015625 564.617188 C 140.941406 565.597656 139.894531 566.605469 138.878906 567.640625 C 137.863281 568.679688 136.878906 569.75 135.925781 570.84375 C 134.976562 571.941406 134.054688 573.0625 133.167969 574.214844 C 132.28125 575.363281 131.429688 576.539062 130.609375 577.738281 C 129.792969 578.941406 129.007812 580.164062 128.261719 581.410156 C 127.515625 582.65625 126.808594 583.921875 126.136719 585.210938 C 125.464844 586.496094 124.828125 587.804688 124.234375 589.128906 C 123.636719 590.453125 123.082031 591.796875 122.566406 593.152344 C 122.046875 594.511719 121.570312 595.882812 121.132812 597.265625 C 120.699219 598.652344 120.300781 600.050781 119.949219 601.457031 C 119.59375 602.867188 119.28125 604.285156 119.007812 605.710938 C 118.738281 607.140625 118.507812 608.574219 118.320312 610.011719 C 118.132812 611.453125 117.988281 612.898438 117.886719 614.347656 C 117.78125 615.796875 117.722656 617.246094 117.703125 618.699219 C 117.6875 620.152344 117.710938 621.605469 117.78125 623.054688 C 117.847656 624.507812 117.957031 625.953125 118.109375 627.398438 C 118.261719 628.84375 118.457031 630.28125 118.695312 631.714844 C 118.929688 633.148438 119.207031 634.574219 119.527344 635.992188 C 119.847656 637.40625 120.210938 638.8125 120.613281 640.210938 C 121.015625 641.605469 121.460938 642.988281 121.945312 644.359375 C 122.425781 645.726562 122.949219 647.082031 123.515625 648.421875 C 124.078125 649.757812 124.679688 651.082031 125.320312 652.382812 C 125.960938 653.6875 126.640625 654.972656 127.355469 656.234375 C 128.070312 657.5 128.824219 658.742188 129.613281 659.960938 C 130.402344 661.179688 131.226562 662.375 132.082031 663.546875 C 132.941406 664.71875 133.835938 665.863281 134.761719 666.984375 C 135.6875 668.101562 136.644531 669.195312 137.636719 670.257812 C 138.625 671.320312 139.644531 672.351562 140.695312 673.355469 C 141.746094 674.359375 142.824219 675.328125 143.933594 676.269531 C 145.039062 677.210938 146.175781 678.117188 147.335938 678.988281 C 148.496094 679.863281 149.679688 680.699219 150.890625 681.503906 C 152.101562 682.308594 153.332031 683.074219 154.585938 683.808594 C 155.84375 684.539062 157.117188 685.234375 158.414062 685.890625 C 159.707031 686.546875 161.023438 687.164062 162.355469 687.742188 C 163.6875 688.324219 165.035156 688.863281 166.398438 689.363281 C 167.761719 689.863281 169.136719 690.324219 170.527344 690.742188 C 171.917969 691.164062 173.320312 691.542969 174.730469 691.878906 C 176.144531 692.21875 177.566406 692.511719 178.996094 692.765625 C 180.425781 693.019531 181.863281 693.234375 183.304688 693.402344 C 184.746094 693.574219 186.191406 693.699219 187.644531 693.785156 C 189.09375 693.871094 190.542969 693.914062 191.996094 693.914062 C 193.449219 693.914062 194.898438 693.871094 196.347656 693.785156 C 197.800781 693.699219 199.246094 693.574219 200.6875 693.402344 C 202.128906 693.234375 203.566406 693.023438 204.996094 692.765625 C 206.425781 692.511719 207.847656 692.21875 209.261719 691.878906 C 210.671875 691.542969 212.074219 691.164062 213.464844 690.742188 C 214.855469 690.324219 216.230469 689.863281 217.59375 689.363281 C 218.957031 688.863281 220.304688 688.324219 221.636719 687.742188 C 222.96875 687.164062 224.285156 686.546875 225.578125 685.890625 C 226.875 685.234375 228.148438 684.539062 229.40625 683.808594 C 230.660156 683.074219 231.890625 682.308594 233.101562 681.503906 C 234.3125 680.699219 235.496094 679.863281 236.65625 678.988281 C 237.816406 678.117188 238.953125 677.210938 240.058594 676.269531 C 241.167969 675.328125 242.246094 674.359375 243.296875 673.355469 C 244.347656 672.351562 245.367188 671.320312 246.359375 670.257812 C 247.347656 669.195312 248.304688 668.101562 249.230469 666.984375 C 250.15625 665.863281 251.050781 664.71875 251.910156 663.546875 C 252.769531 662.375 253.589844 661.179688 254.378906 659.960938 C 255.167969 658.742188 255.921875 657.5 256.636719 656.234375 C 257.355469 654.972656 258.03125 653.6875 258.671875 652.382812 C 259.3125 651.082031 259.914062 649.757812 260.480469 648.421875 C 261.042969 647.082031 261.566406 645.726562 262.050781 644.359375 C 262.53125 642.988281 262.976562 641.605469 263.378906 640.210938 C 263.78125 638.8125 264.144531 637.40625 264.464844 635.992188 C 264.785156 634.574219 265.0625 633.148438 265.300781 631.714844 C 265.535156 630.28125 265.730469 628.84375 265.882812 627.398438 C 266.035156 625.953125 266.144531 624.507812 266.210938 623.054688 C 266.28125 621.605469 266.304688 620.152344 266.289062 618.699219 C 266.269531 617.246094 266.210938 615.796875 266.105469 614.347656 C 266.003906 612.898438 265.859375 611.453125 265.671875 610.011719 C 265.484375 608.574219 265.253906 607.140625 264.984375 605.710938 C 264.710938 604.285156 264.398438 602.867188 264.042969 601.457031 C 263.691406 600.050781 263.292969 598.652344 262.859375 597.265625 C 262.421875 595.882812 261.945312 594.511719 261.429688 593.152344 C 260.910156 591.796875 260.355469 590.453125 259.757812 589.128906 C 259.164062 587.804688 258.53125 586.496094 257.859375 585.210938 C 257.183594 583.921875 256.476562 582.65625 255.730469 581.410156 C 254.984375 580.164062 254.199219 578.941406 253.382812 577.738281 C 252.566406 576.539062 251.710938 575.363281 250.824219 574.214844 C 249.9375 573.0625 249.019531 571.941406 248.066406 570.84375 C 247.113281 569.75 246.128906 568.679688 245.113281 567.640625 C 244.097656 566.605469 243.050781 565.597656 241.976562 564.617188 C 240.902344 563.640625 239.800781 562.695312 238.671875 561.785156 C 237.539062 560.871094 236.382812 559.992188 235.203125 559.148438 C 234.023438 558.304688 232.816406 557.492188 231.585938 556.71875 C 230.359375 555.945312 229.109375 555.207031 227.835938 554.507812 C 226.5625 553.808594 225.273438 553.144531 223.960938 552.519531 C 222.648438 551.894531 221.320312 551.308594 219.976562 550.761719 C 218.628906 550.214844 217.269531 549.707031 215.894531 549.238281 Z M 191.996094 644.035156 C 191.183594 644.035156 190.375 643.996094 189.570312 643.917969 C 188.761719 643.839844 187.960938 643.71875 187.164062 643.5625 C 186.371094 643.402344 185.582031 643.207031 184.808594 642.96875 C 184.03125 642.734375 183.269531 642.460938 182.519531 642.152344 C 181.769531 641.839844 181.035156 641.492188 180.320312 641.113281 C 179.605469 640.730469 178.910156 640.3125 178.238281 639.863281 C 177.5625 639.410156 176.910156 638.929688 176.285156 638.414062 C 175.65625 637.898438 175.058594 637.355469 174.484375 636.78125 C 173.910156 636.207031 173.367188 635.605469 172.851562 634.980469 C 172.335938 634.351562 171.855469 633.703125 171.40625 633.027344 C 170.953125 632.351562 170.539062 631.660156 170.15625 630.941406 C 169.773438 630.226562 169.425781 629.496094 169.117188 628.746094 C 168.804688 627.996094 168.53125 627.234375 168.296875 626.457031 C 168.0625 625.679688 167.863281 624.894531 167.707031 624.097656 C 167.546875 623.304688 167.429688 622.5 167.351562 621.695312 C 167.269531 620.886719 167.230469 620.078125 167.230469 619.265625 C 167.230469 618.453125 167.269531 617.644531 167.351562 616.839844 C 167.429688 616.03125 167.546875 615.230469 167.707031 614.433594 C 167.863281 613.636719 168.0625 612.851562 168.296875 612.074219 C 168.53125 611.300781 168.804688 610.535156 169.117188 609.785156 C 169.425781 609.039062 169.773438 608.304688 170.15625 607.589844 C 170.539062 606.875 170.953125 606.179688 171.40625 605.503906 C 171.855469 604.828125 172.335938 604.179688 172.851562 603.550781 C 173.367188 602.925781 173.910156 602.324219 174.484375 601.75 C 175.058594 601.175781 175.65625 600.632812 176.285156 600.117188 C 176.910156 599.601562 177.5625 599.121094 178.238281 598.671875 C 178.910156 598.21875 179.605469 597.800781 180.320312 597.421875 C 181.035156 597.039062 181.769531 596.691406 182.519531 596.382812 C 183.269531 596.070312 184.03125 595.796875 184.808594 595.5625 C 185.582031 595.328125 186.371094 595.128906 187.164062 594.972656 C 187.960938 594.8125 188.761719 594.695312 189.570312 594.613281 C 190.375 594.535156 191.183594 594.496094 191.996094 594.496094 C 192.808594 594.496094 193.617188 594.535156 194.421875 594.613281 C 195.230469 594.695312 196.03125 594.8125 196.828125 594.972656 C 197.625 595.128906 198.410156 595.328125 199.183594 595.5625 C 199.960938 595.796875 200.722656 596.070312 201.472656 596.382812 C 202.222656 596.691406 202.957031 597.039062 203.671875 597.421875 C 204.386719 597.800781 205.082031 598.21875 205.753906 598.671875 C 206.429688 599.121094 207.082031 599.601562 207.707031 600.117188 C 208.335938 600.632812 208.933594 601.175781 209.507812 601.75 C 210.082031 602.324219 210.625 602.925781 211.140625 603.550781 C 211.65625 604.179688 212.136719 604.828125 212.589844 605.503906 C 213.039062 606.179688 213.457031 606.875 213.835938 607.589844 C 214.21875 608.304688 214.566406 609.039062 214.875 609.785156 C 215.1875 610.535156 215.460938 611.300781 215.695312 612.074219 C 215.929688 612.851562 216.128906 613.636719 216.285156 614.433594 C 216.445312 615.230469 216.5625 616.03125 216.640625 616.839844 C 216.722656 617.644531 216.761719 618.453125 216.761719 619.265625 C 216.761719 620.078125 216.722656 620.886719 216.640625 621.695312 C 216.5625 622.5 216.445312 623.304688 216.285156 624.097656 C 216.128906 624.894531 215.929688 625.679688 215.695312 626.457031 C 215.460938 627.234375 215.1875 627.996094 214.875 628.746094 C 214.566406 629.496094 214.21875 630.226562 213.835938 630.941406 C 213.457031 631.660156 213.039062 632.351562 212.589844 633.027344 C 212.136719 633.703125 211.65625 634.351562 211.140625 634.980469 C 210.625 635.605469 210.082031 636.207031 209.507812 636.78125 C 208.933594 637.355469 208.335938 637.898438 207.707031 638.414062 C 207.082031 638.929688 206.429688 639.410156 205.753906 639.863281 C 205.082031 640.3125 204.386719 640.730469 203.671875 641.113281 C 202.957031 641.492188 202.222656 641.839844 201.472656 642.152344 C 200.722656 642.460938 199.960938 642.734375 199.183594 642.96875 C 198.410156 643.207031 197.625 643.402344 196.828125 643.5625 C 196.03125 643.71875 195.230469 643.839844 194.421875 643.917969 C 193.617188 643.996094 192.808594 644.035156 191.996094 644.035156 Z M 191.996094 644.035156 " fill-opacity="1" fill-rule="nonzero"/><path fill="#000000" d="M 390.121094 148.625 L 489.183594 148.625 C 489.996094 148.625 490.804688 148.585938 491.609375 148.503906 C 492.417969 148.425781 493.21875 148.304688 494.015625 148.148438 C 494.808594 147.988281 495.597656 147.792969 496.371094 147.558594 C 497.148438 147.320312 497.910156 147.046875 498.660156 146.738281 C 499.410156 146.429688 500.140625 146.082031 500.859375 145.699219 C 501.574219 145.316406 502.269531 144.898438 502.941406 144.449219 C 503.617188 144 504.265625 143.515625 504.894531 143 C 505.519531 142.488281 506.121094 141.941406 506.695312 141.367188 C 507.269531 140.796875 507.8125 140.195312 508.328125 139.566406 C 508.839844 138.941406 509.324219 138.289062 509.773438 137.613281 C 510.226562 136.941406 510.640625 136.246094 511.023438 135.53125 C 511.40625 134.816406 511.753906 134.082031 512.0625 133.332031 C 512.375 132.582031 512.648438 131.820312 512.882812 131.042969 C 513.117188 130.265625 513.316406 129.480469 513.472656 128.6875 C 513.632812 127.890625 513.75 127.089844 513.828125 126.28125 C 513.910156 125.472656 513.949219 124.664062 513.949219 123.851562 C 513.949219 123.042969 513.910156 122.234375 513.828125 121.425781 C 513.75 120.617188 513.632812 119.816406 513.472656 119.019531 C 513.316406 118.226562 513.117188 117.4375 512.882812 116.664062 C 512.648438 115.886719 512.375 115.125 512.0625 114.375 C 511.753906 113.625 511.40625 112.890625 511.023438 112.175781 C 510.640625 111.460938 510.226562 110.765625 509.773438 110.089844 C 509.324219 109.417969 508.839844 108.765625 508.328125 108.140625 C 507.8125 107.511719 507.269531 106.910156 506.695312 106.335938 C 506.121094 105.765625 505.519531 105.21875 504.894531 104.707031 C 504.265625 104.191406 503.617188 103.707031 502.941406 103.257812 C 502.269531 102.804688 501.574219 102.390625 500.859375 102.007812 C 500.140625 101.625 499.410156 101.277344 498.660156 100.96875 C 497.910156 100.65625 497.148438 100.382812 496.371094 100.148438 C 495.597656 99.914062 494.808594 99.71875 494.015625 99.558594 C 493.21875 99.398438 492.417969 99.28125 491.609375 99.203125 C 490.804688 99.121094 489.996094 99.082031 489.183594 99.082031 L 390.121094 99.082031 C 389.308594 99.082031 388.5 99.121094 387.691406 99.203125 C 386.886719 99.28125 386.085938 99.398438 385.289062 99.558594 C 384.492188 99.71875 383.707031 99.914062 382.933594 100.148438 C 382.15625 100.382812 381.394531 100.65625 380.644531 100.96875 C 379.894531 101.277344 379.160156 101.625 378.445312 102.007812 C 377.730469 102.390625 377.035156 102.804688 376.363281 103.257812 C 375.6875 103.707031 375.035156 104.191406 374.410156 104.707031 C 373.78125 105.21875 373.183594 105.765625 372.609375 106.335938 C 372.035156 106.910156 371.492188 107.511719 370.976562 108.140625 C 370.460938 108.765625 369.980469 109.417969 369.527344 110.089844 C 369.078125 110.765625 368.660156 111.460938 368.28125 112.175781 C 367.898438 112.890625 367.550781 113.625 367.242188 114.375 C 366.929688 115.125 366.65625 115.886719 366.421875 116.664062 C 366.1875 117.4375 365.988281 118.226562 365.832031 119.019531 C 365.671875 119.816406 365.554688 120.617188 365.472656 121.425781 C 365.394531 122.234375 365.355469 123.042969 365.355469 123.851562 C 365.355469 124.664062 365.394531 125.472656 365.472656 126.28125 C 365.554688 127.089844 365.671875 127.890625 365.832031 128.6875 C 365.988281 129.480469 366.1875 130.265625 366.421875 131.042969 C 366.65625 131.820312 366.929688 132.582031 367.242188 133.332031 C 367.550781 134.082031 367.898438 134.816406 368.28125 135.53125 C 368.660156 136.246094 369.078125 136.941406 369.527344 137.613281 C 369.980469 138.289062 370.460938 138.941406 370.976562 139.566406 C 371.492188 140.195312 372.035156 140.796875 372.609375 141.367188 C 373.183594 141.941406 373.78125 142.488281 374.410156 143 C 375.035156 143.515625 375.6875 144 376.363281 144.449219 C 377.035156 144.898438 377.730469 145.316406 378.445312 145.699219 C 379.160156 146.082031 379.894531 146.429688 380.644531 146.738281 C 381.394531 147.046875 382.15625 147.320312 382.933594 147.558594 C 383.707031 147.792969 384.492188 147.988281 385.289062 148.148438 C 386.085938 148.304688 386.886719 148.425781 387.691406 148.503906 C 388.5 148.585938 389.308594 148.625 390.121094 148.625 Z M 390.121094 148.625 " fill-opacity="1" fill-rule="nonzero"/><path fill="#000000" d="M 390.121094 247.707031 L 439.652344 247.707031 C 440.464844 247.707031 441.273438 247.667969 442.078125 247.585938 C 442.886719 247.507812 443.6875 247.390625 444.484375 247.230469 C 445.277344 247.070312 446.066406 246.875 446.839844 246.640625 C 447.617188 246.40625 448.378906 246.132812 449.128906 245.820312 C 449.878906 245.511719 450.609375 245.164062 451.328125 244.78125 C 452.042969 244.398438 452.738281 243.984375 453.410156 243.53125 C 454.085938 243.082031 454.734375 242.597656 455.363281 242.082031 C 455.988281 241.570312 456.589844 241.023438 457.164062 240.453125 C 457.738281 239.878906 458.28125 239.277344 458.796875 238.648438 C 459.308594 238.023438 459.792969 237.371094 460.242188 236.699219 C 460.695312 236.023438 461.109375 235.328125 461.492188 234.613281 C 461.875 233.898438 462.222656 233.164062 462.53125 232.414062 C 462.84375 231.664062 463.117188 230.902344 463.351562 230.125 C 463.585938 229.351562 463.785156 228.5625 463.941406 227.769531 C 464.101562 226.972656 464.21875 226.171875 464.296875 225.363281 C 464.378906 224.554688 464.417969 223.746094 464.417969 222.9375 C 464.417969 222.125 464.378906 221.316406 464.296875 220.507812 C 464.21875 219.699219 464.101562 218.898438 463.941406 218.101562 C 463.785156 217.308594 463.585938 216.523438 463.351562 215.746094 C 463.117188 214.96875 462.84375 214.207031 462.53125 213.457031 C 462.222656 212.707031 461.875 211.972656 461.492188 211.257812 C 461.109375 210.542969 460.695312 209.847656 460.242188 209.175781 C 459.792969 208.5 459.308594 207.847656 458.796875 207.222656 C 458.28125 206.59375 457.738281 205.992188 457.164062 205.421875 C 456.589844 204.847656 455.988281 204.300781 455.363281 203.789062 C 454.734375 203.273438 454.085938 202.789062 453.410156 202.339844 C 452.738281 201.890625 452.042969 201.472656 451.328125 201.089844 C 450.609375 200.707031 449.878906 200.359375 449.128906 200.050781 C 448.378906 199.738281 447.617188 199.46875 446.839844 199.230469 C 446.066406 198.996094 445.277344 198.800781 444.484375 198.640625 C 443.6875 198.484375 442.886719 198.363281 442.078125 198.285156 C 441.273438 198.203125 440.464844 198.164062 439.652344 198.164062 L 390.121094 198.164062 C 389.308594 198.164062 388.5 198.203125 387.691406 198.285156 C 386.886719 198.363281 386.085938 198.484375 385.289062 198.640625 C 384.492188 198.800781 383.707031 198.996094 382.933594 199.230469 C 382.15625 199.46875 381.394531 199.738281 380.644531 200.050781 C 379.894531 200.359375 379.160156 200.707031 378.445312 201.089844 C 377.730469 201.472656 377.035156 201.890625 376.363281 202.339844 C 375.6875 202.789062 375.035156 203.273438 374.410156 203.789062 C 373.78125 204.300781 373.183594 204.847656 372.609375 205.421875 C 372.035156 205.992188 371.492188 206.59375 370.976562 207.222656 C 370.460938 207.847656 369.980469 208.5 369.527344 209.175781 C 369.078125 209.847656 368.660156 210.542969 368.28125 211.257812 C 367.898438 211.972656 367.550781 212.707031 367.242188 213.457031 C 366.929688 214.207031 366.65625 214.96875 366.421875 215.746094 C 366.1875 216.523438 365.988281 217.308594 365.832031 218.101562 C 365.671875 218.898438 365.554688 219.699219 365.472656 220.507812 C 365.394531 221.316406 365.355469 222.125 365.355469 222.9375 C 365.355469 223.746094 365.394531 224.554688 365.472656 225.363281 C 365.554688 226.171875 365.671875 226.972656 365.832031 227.769531 C 365.988281 228.5625 366.1875 229.351562 366.421875 230.125 C 366.65625 230.902344 366.929688 231.664062 367.242188 232.414062 C 367.550781 233.164062 367.898438 233.898438 368.28125 234.613281 C 368.660156 235.328125 369.078125 236.023438 369.527344 236.699219 C 369.980469 237.371094 370.460938 238.023438 370.976562 238.648438 C 371.492188 239.277344 372.035156 239.878906 372.609375 240.453125 C 373.183594 241.023438 373.78125 241.570312 374.410156 242.082031 C 375.035156 242.597656 375.6875 243.082031 376.363281 243.53125 C 377.035156 243.984375 377.730469 244.398438 378.445312 244.78125 C 379.160156 245.164062 379.894531 245.511719 380.644531 245.820312 C 381.394531 246.132812 382.15625 246.40625 382.933594 246.640625 C 383.707031 246.875 384.492188 247.070312 385.289062 247.230469 C 386.085938 247.390625 386.886719 247.507812 387.691406 247.585938 C 388.5 247.667969 389.308594 247.707031 390.121094 247.707031 Z M 390.121094 247.707031 " fill-opacity="1" fill-rule="nonzero"/><path fill="#000000" d="M 489.183594 297.246094 L 390.121094 297.246094 C 389.308594 297.246094 388.5 297.289062 387.691406 297.367188 C 386.886719 297.445312 386.085938 297.566406 385.289062 297.722656 C 384.492188 297.882812 383.707031 298.078125 382.933594 298.3125 C 382.15625 298.550781 381.394531 298.824219 380.644531 299.132812 C 379.894531 299.445312 379.160156 299.789062 378.445312 300.171875 C 377.730469 300.554688 377.035156 300.972656 376.363281 301.421875 C 375.6875 301.871094 375.035156 302.355469 374.410156 302.871094 C 373.78125 303.386719 373.183594 303.929688 372.609375 304.503906 C 372.035156 305.078125 371.492188 305.675781 370.976562 306.304688 C 370.460938 306.929688 369.980469 307.582031 369.527344 308.257812 C 369.078125 308.929688 368.660156 309.625 368.28125 310.339844 C 367.898438 311.058594 367.550781 311.789062 367.242188 312.539062 C 366.929688 313.289062 366.65625 314.050781 366.421875 314.828125 C 366.1875 315.605469 365.988281 316.390625 365.832031 317.1875 C 365.671875 317.980469 365.554688 318.78125 365.472656 319.589844 C 365.394531 320.398438 365.355469 321.207031 365.355469 322.019531 C 365.355469 322.828125 365.394531 323.640625 365.472656 324.445312 C 365.554688 325.253906 365.671875 326.054688 365.832031 326.851562 C 365.988281 327.648438 366.1875 328.433594 366.421875 329.207031 C 366.65625 329.984375 366.929688 330.75 367.242188 331.496094 C 367.550781 332.246094 367.898438 332.980469 368.28125 333.695312 C 368.660156 334.410156 369.078125 335.105469 369.527344 335.78125 C 369.980469 336.453125 370.460938 337.105469 370.976562 337.734375 C 371.492188 338.359375 372.035156 338.960938 372.609375 339.535156 C 373.183594 340.109375 373.78125 340.652344 374.410156 341.167969 C 375.035156 341.679688 375.6875 342.164062 376.363281 342.613281 C 377.035156 343.066406 377.730469 343.480469 378.445312 343.863281 C 379.160156 344.246094 379.894531 344.59375 380.644531 344.902344 C 381.394531 345.214844 382.15625 345.488281 382.933594 345.722656 C 383.707031 345.957031 384.492188 346.15625 385.289062 346.3125 C 386.085938 346.472656 386.886719 346.589844 387.691406 346.667969 C 388.5 346.75 389.308594 346.789062 390.121094 346.789062 L 489.183594 346.789062 C 489.996094 346.789062 490.804688 346.75 491.609375 346.667969 C 492.417969 346.589844 493.21875 346.472656 494.015625 346.3125 C 494.808594 346.15625 495.597656 345.957031 496.371094 345.722656 C 497.148438 345.488281 497.910156 345.214844 498.660156 344.902344 C 499.410156 344.59375 500.140625 344.246094 500.859375 343.863281 C 501.574219 343.480469 502.269531 343.066406 502.941406 342.613281 C 503.617188 342.164062 504.265625 341.679688 504.894531 341.167969 C 505.519531 340.652344 506.121094 340.109375 506.695312 339.535156 C 507.269531 338.960938 507.8125 338.359375 508.328125 337.734375 C 508.839844 337.105469 509.324219 336.453125 509.773438 335.78125 C 510.226562 335.105469 510.640625 334.410156 511.023438 333.695312 C 511.40625 332.980469 511.753906 332.246094 512.0625 331.496094 C 512.375 330.75 512.648438 329.984375 512.882812 329.207031 C 513.117188 328.433594 513.316406 327.648438 513.472656 326.851562 C 513.632812 326.054688 513.75 325.253906 513.828125 324.445312 C 513.910156 323.640625 513.949219 322.828125 513.949219 322.019531 C 513.949219 321.207031 513.910156 320.398438 513.828125 319.589844 C 513.75 318.78125 513.632812 317.980469 513.472656 317.1875 C 513.316406 316.390625 513.117188 315.605469 512.882812 314.828125 C 512.648438 314.050781 512.375 313.289062 512.0625 312.539062 C 511.753906 311.789062 511.40625 311.058594 511.023438 310.339844 C 510.640625 309.625 510.226562 308.929688 509.773438 308.257812 C 509.324219 307.582031 508.839844 306.929688 508.328125 306.304688 C 507.8125 305.675781 507.269531 305.078125 506.695312 304.503906 C 506.121094 303.929688 505.519531 303.386719 504.894531 302.871094 C 504.265625 302.355469 503.617188 301.871094 502.941406 301.421875 C 502.269531 300.972656 501.574219 300.554688 500.859375 300.171875 C 500.140625 299.789062 499.410156 299.445312 498.660156 299.132812 C 497.910156 298.824219 497.148438 298.550781 496.371094 298.3125 C 495.597656 298.078125 494.808594 297.882812 494.015625 297.722656 C 493.21875 297.566406 492.417969 297.445312 491.609375 297.367188 C 490.804688 297.289062 489.996094 297.246094 489.183594 297.246094 Z M 489.183594 297.246094 " fill-opacity="1" fill-rule="nonzero"/><path fill="#000000" d="M 439.652344 396.332031 L 390.121094 396.332031 C 389.308594 396.332031 388.5 396.371094 387.691406 396.449219 C 386.886719 396.527344 386.085938 396.648438 385.289062 396.804688 C 384.492188 396.964844 383.707031 397.160156 382.933594 397.398438 C 382.15625 397.632812 381.394531 397.90625 380.644531 398.214844 C 379.894531 398.527344 379.160156 398.871094 378.445312 399.253906 C 377.730469 399.636719 377.035156 400.054688 376.363281 400.503906 C 375.6875 400.957031 375.035156 401.4375 374.410156 401.953125 C 373.78125 402.46875 373.183594 403.011719 372.609375 403.585938 C 372.035156 404.160156 371.492188 404.757812 370.976562 405.386719 C 370.460938 406.015625 369.980469 406.664062 369.527344 407.339844 C 369.078125 408.011719 368.660156 408.707031 368.28125 409.425781 C 367.898438 410.140625 367.550781 410.871094 367.242188 411.621094 C 366.929688 412.371094 366.65625 413.132812 366.421875 413.910156 C 366.1875 414.6875 365.988281 415.472656 365.832031 416.269531 C 365.671875 417.0625 365.554688 417.867188 365.472656 418.671875 C 365.394531 419.480469 365.355469 420.289062 365.355469 421.101562 C 365.355469 421.914062 365.394531 422.722656 365.472656 423.527344 C 365.554688 424.335938 365.671875 425.136719 365.832031 425.933594 C 365.988281 426.730469 366.1875 427.515625 366.421875 428.292969 C 366.65625 429.066406 366.929688 429.832031 367.242188 430.582031 C 367.550781 431.328125 367.898438 432.0625 368.28125 432.777344 C 368.660156 433.492188 369.078125 434.1875 369.527344 434.863281 C 369.980469 435.539062 370.460938 436.1875 370.976562 436.816406 C 371.492188 437.441406 372.035156 438.042969 372.609375 438.617188 C 373.183594 439.191406 373.78125 439.734375 374.410156 440.25 C 375.035156 440.761719 375.6875 441.246094 376.363281 441.695312 C 377.035156 442.148438 377.730469 442.5625 378.445312 442.945312 C 379.160156 443.328125 379.894531 443.675781 380.644531 443.984375 C 381.394531 444.296875 382.15625 444.570312 382.933594 444.804688 C 383.707031 445.039062 384.492188 445.238281 385.289062 445.394531 C 386.085938 445.554688 386.886719 445.671875 387.691406 445.753906 C 388.5 445.832031 389.308594 445.871094 390.121094 445.871094 L 439.652344 445.871094 C 440.464844 445.871094 441.273438 445.832031 442.078125 445.753906 C 442.886719 445.671875 443.6875 445.554688 444.484375 445.394531 C 445.277344 445.238281 446.066406 445.039062 446.839844 444.804688 C 447.617188 444.570312 448.378906 444.296875 449.128906 443.984375 C 449.878906 443.675781 450.609375 443.328125 451.328125 442.945312 C 452.042969 442.5625 452.738281 442.148438 453.410156 441.695312 C 454.085938 441.246094 454.734375 440.761719 455.363281 440.25 C 455.988281 439.734375 456.589844 439.191406 457.164062 438.617188 C 457.738281 438.042969 458.28125 437.441406 458.796875 436.816406 C 459.308594 436.1875 459.792969 435.539062 460.242188 434.863281 C 460.695312 434.1875 461.109375 433.492188 461.492188 432.777344 C 461.875 432.0625 462.222656 431.328125 462.53125 430.582031 C 462.84375 429.832031 463.117188 429.066406 463.351562 428.292969 C 463.585938 427.515625 463.785156 426.730469 463.941406 425.933594 C 464.101562 425.136719 464.21875 424.335938 464.296875 423.527344 C 464.378906 422.722656 464.417969 421.914062 464.417969 421.101562 C 464.417969 420.289062 464.378906 419.480469 464.296875 418.671875 C 464.21875 417.867188 464.101562 417.0625 463.941406 416.269531 C 463.785156 415.472656 463.585938 414.6875 463.351562 413.910156 C 463.117188 413.132812 462.84375 412.371094 462.53125 411.621094 C 462.222656 410.871094 461.875 410.140625 461.492188 409.425781 C 461.109375 408.707031 460.695312 408.011719 460.242188 407.339844 C 459.792969 406.664062 459.308594 406.015625 458.796875 405.386719 C 458.28125 404.757812 457.738281 404.160156 457.164062 403.585938 C 456.589844 403.011719 455.988281 402.46875 455.363281 401.953125 C 454.734375 401.4375 454.085938 400.957031 453.410156 400.503906 C 452.738281 400.054688 452.042969 399.636719 451.328125 399.253906 C 450.609375 398.871094 449.878906 398.527344 449.128906 398.214844 C 448.378906 397.90625 447.617188 397.632812 446.839844 397.398438 C 446.066406 397.160156 445.277344 396.964844 444.484375 396.804688 C 443.6875 396.648438 442.886719 396.527344 442.078125 396.449219 C 441.273438 396.371094 440.464844 396.332031 439.652344 396.332031 Z M 439.652344 396.332031 " fill-opacity="1" fill-rule="nonzero"/><g clip-path="url(#6296ea578a)"><g clip-path="url(#bad8664915)"><g transform="matrix(1, 0, 0, 1, 273, 461)"><g clip-path="url(#c911e72107)"><g clip-path="url(#6d57254daf)"><g clip-path="url(#fa749e70c9)"><path fill="#000000" d="M 0.453125 0.621094 L 17.832031 0.621094 L 17.832031 18 L 0.453125 18 Z M 0.453125 0.621094 " fill-opacity="1" fill-rule="nonzero"/></g></g></g></g></g></g></svg>