<svg xmlns="http://www.w3.org/2000/svg" xmlns:xlink="http://www.w3.org/1999/xlink" width="1080" zoomAndPan="magnify" viewBox="0 0 810 809.999993" height="1080" preserveAspectRatio="xMidYMid meet" version="1.0"><defs><clipPath id="cad5425ca2"><path d="M 512.773438 556.621094 L 530.152344 556.621094 L 530.152344 574 L 512.773438 574 Z M 512.773438 556.621094 " clip-rule="nonzero"/></clipPath><clipPath id="02cb42428f"><path d="M 521.464844 556.621094 C 516.664062 556.621094 512.773438 560.511719 512.773438 565.308594 C 512.773438 570.109375 516.664062 574 521.464844 574 C 526.261719 574 530.152344 570.109375 530.152344 565.308594 C 530.152344 560.511719 526.261719 556.621094 521.464844 556.621094 Z M 521.464844 556.621094 " clip-rule="nonzero"/></clipPath><clipPath id="26147ee645"><path d="M 0.773438 0.621094 L 18.152344 0.621094 L 18.152344 18 L 0.773438 18 Z M 0.773438 0.621094 " clip-rule="nonzero"/></clipPath><clipPath id="c991977597"><path d="M 9.464844 0.621094 C 4.664062 0.621094 0.773438 4.511719 0.773438 9.308594 C 0.773438 14.109375 4.664062 18 9.464844 18 C 14.261719 18 18.152344 14.109375 18.152344 9.308594 C 18.152344 4.511719 14.261719 0.621094 9.464844 0.621094 Z M 9.464844 0.621094 " clip-rule="nonzero"/></clipPath><clipPath id="a2b26ead75"><rect x="0" width="19" y="0" height="18"/></clipPath></defs><path fill="#000000" d="M 725.570312 252.894531 L 37.039062 252.929688 L 35.367188 630.09375 C 35.25 656.886719 58.972656 672.996094 84.132812 675.011719 L 461.585938 674.109375 C 467.441406 674.097656 480.832031 682.539062 481.378906 687.386719 C 481.921875 692.238281 479.917969 699.195312 476.554688 709.070312 L 76.714844 708.941406 C 37.441406 708.929688 0.824219 675.046875 0.847656 635.460938 L 1.132812 140.613281 C 1.15625 100.945312 40.902344 74.640625 75.957031 73.277344 L 120.503906 71.535156 C 134.496094 70.988281 118.203125 33.929688 143.835938 10.597656 C 154.597656 0.804688 176.734375 -2.785156 191.097656 1.363281 C 246.191406 17.273438 210.304688 72.804688 246.117188 72.753906 L 537.5 72.375 C 559.152344 72.351562 535.378906 11.878906 585.128906 1.171875 C 606.234375 -3.367188 638.136719 3.261719 643.398438 29.746094 L 651.742188 71.710938 L 686.902344 71.675781 C 727.382812 71.640625 774.941406 97.839844 775.175781 147.5625 L 776.730469 473.605469 C 776.753906 478.902344 762.816406 487.070312 758.054688 485.125 C 753.289062 483.183594 740.195312 474.089844 740.183594 467.226562 L 739.863281 278.441406 C 739.863281 274.222656 736.070312 252.847656 725.570312 252.847656 Z M 194.175781 126.105469 L 193.097656 47.078125 C 193.027344 41.765625 177.988281 29.839844 174.316406 33.050781 C 171.578125 35.445312 162.015625 44.316406 161.96875 47.953125 L 160.925781 127.253906 C 160.84375 133.464844 173.058594 144.859375 179.222656 144.359375 C 183.832031 143.980469 194.273438 131.9375 194.191406 126.105469 Z M 615.394531 124.398438 L 615.039062 51.960938 C 615.003906 45.074219 602.476562 29.933594 596.933594 33.074219 C 592.488281 35.589844 582.320312 47.503906 582.34375 52.839844 L 582.605469 127.667969 C 582.628906 134.308594 595.628906 146.292969 601.507812 144.347656 C 605.914062 142.890625 615.417969 130.371094 615.382812 124.398438 Z M 589.941406 178.527344 C 537.335938 174.308594 557.730469 109.96875 534.835938 109.96875 L 242.148438 109.875 C 219.0625 109.875 238.984375 181.777344 176.519531 179.570312 C 113.84375 177.367188 134.355469 109.71875 118.582031 109.589844 L 71.773438 109.222656 C 29.976562 108.890625 31.90625 181.101562 37.84375 218.027344 L 736.816406 217.980469 C 743.914062 176.914062 744.957031 107.753906 698.21875 108.664062 L 654.441406 109.519531 C 652.738281 115.03125 649.132812 128.238281 648.28125 133.394531 C 643.339844 163.292969 624.023438 181.277344 589.941406 178.539062 Z M 589.941406 178.527344 " fill-opacity="1" fill-rule="nonzero"/><path fill="#000000" d="M 810.339844 626.582031 C 810.339844 714.144531 739.375 785.132812 651.847656 785.132812 C 564.320312 785.132812 493.359375 714.144531 493.359375 626.582031 C 493.359375 539.019531 564.320312 468.03125 651.847656 468.03125 C 739.375 468.03125 810.339844 539.019531 810.339844 626.582031 Z M 774.703125 626.359375 C 774.703125 558.464844 719.691406 503.429688 651.824219 503.429688 C 583.957031 503.429688 528.945312 558.464844 528.945312 626.359375 C 528.945312 694.253906 583.957031 749.285156 651.824219 749.285156 C 719.691406 749.285156 774.703125 694.253906 774.703125 626.359375 Z M 774.703125 626.359375 " fill-opacity="1" fill-rule="nonzero"/><path fill="#000000" d="M 162.964844 619.054688 L 120.289062 619.910156 C 112.859375 620.0625 97.191406 606.640625 97.5 599.304688 L 99.5625 550.757812 C 99.929688 542.089844 122.980469 531.929688 131.714844 533.246094 L 178.925781 540.371094 L 181.058594 603.085938 C 181.203125 607.09375 167.429688 618.960938 162.953125 619.054688 Z M 162.964844 619.054688 " fill-opacity="1" fill-rule="nonzero"/><path fill="#000000" d="M 411.480469 619.222656 L 364.078125 619.007812 C 340.449219 618.902344 341.160156 564.449219 352.183594 544.296875 C 359.789062 530.390625 424.765625 531.316406 426.746094 546.265625 C 427.953125 555.394531 439.367188 619.351562 411.480469 619.222656 Z M 411.480469 619.222656 " fill-opacity="1" fill-rule="nonzero"/><path fill="#000000" d="M 304.875 614.40625 L 262.652344 620.632812 C 254.355469 621.851562 231.105469 617.5625 226.066406 611.113281 C 219.359375 596.304688 218.921875 563.359375 225.132812 547.273438 C 232.050781 529.3125 285.378906 532.429688 304.625 543.929688 Z M 304.875 614.40625 " fill-opacity="1" fill-rule="nonzero"/><path fill="#000000" d="M 302.277344 300.730469 C 304.707031 314.671875 314.046875 378.855469 286.410156 378.523438 L 245.609375 378.039062 C 208.933594 377.601562 222.074219 325.320312 223.992188 300.660156 C 250.777344 291.28125 275.460938 291.378906 302.265625 300.71875 Z M 302.277344 300.730469 " fill-opacity="1" fill-rule="nonzero"/><path fill="#000000" d="M 533.234375 379.710938 L 471.589844 373.179688 C 471.078125 351.886719 470.652344 324.832031 471.234375 309.953125 C 472.0625 288.839844 533.78125 292.371094 551.1875 299.332031 L 554.613281 361.761719 C 554.863281 366.398438 538.59375 380.28125 533.222656 379.710938 Z M 533.234375 379.710938 " fill-opacity="1" fill-rule="nonzero"/><path fill="#000000" d="M 427.671875 366.101562 C 425.144531 383.597656 363.453125 381.785156 348.507812 371.089844 C 345.878906 353.523438 344.859375 324.179688 347.109375 309.609375 C 350.59375 287.0625 408.519531 292.054688 426.542969 299.734375 C 429.292969 319.238281 429.910156 350.546875 427.671875 366.101562 Z M 427.671875 366.101562 " fill-opacity="1" fill-rule="nonzero"/><path fill="#000000" d="M 428.464844 494.351562 L 374.996094 499.4375 C 368.039062 500.101562 348.566406 491.574219 347.785156 485.089844 C 345.570312 466.726562 336.917969 413.960938 368.132812 414.125 L 411.707031 414.351562 C 416.992188 414.375 430.492188 426.761719 430.324219 432.027344 L 428.441406 494.351562 Z M 428.464844 494.351562 " fill-opacity="1" fill-rule="nonzero"/><path fill="#000000" d="M 291.816406 498.628906 L 244.292969 498.285156 C 236.898438 498.226562 223.910156 487.496094 221.03125 482.78125 L 221.078125 436.601562 C 221.078125 427.84375 235.167969 414.433594 243.417969 414.304688 L 289.46875 413.558594 L 306.582031 429.964844 L 306.308594 481.746094 L 291.828125 498.640625 Z M 291.816406 498.628906 " fill-opacity="1" fill-rule="nonzero"/><path fill="#000000" d="M 165.0625 498.820312 L 119.875 498.273438 C 112.65625 498.191406 99.800781 487.367188 97.097656 482.554688 L 97.0625 435.644531 C 97.0625 428.28125 111.082031 414.554688 118.726562 414.492188 L 165.488281 414.101562 C 170.132812 417.066406 180.832031 430.058594 180.941406 436.460938 L 181.734375 482.28125 L 165.035156 498.84375 Z M 165.0625 498.820312 " fill-opacity="1" fill-rule="nonzero"/><path fill="#000000" d="M 630.90625 379.09375 C 622.648438 380.421875 598.746094 372.265625 597.585938 364.75 C 595.34375 350.226562 595.960938 320.515625 598.554688 306.148438 C 601.542969 289.632812 660.238281 291.128906 676.984375 301.941406 L 676.472656 371.742188 L 630.917969 379.082031 Z M 630.90625 379.09375 " fill-opacity="1" fill-rule="nonzero"/><path fill="#000000" d="M 542.65625 484.179688 C 528.804688 497.066406 499.640625 501.652344 483.117188 495.027344 C 463.199219 487.035156 466.882812 428.695312 478.390625 418.511719 C 496.390625 412.726562 528.660156 410.925781 543.640625 418.914062 C 564.425781 430 559.601562 468.398438 542.65625 484.179688 Z M 542.65625 484.179688 " fill-opacity="1" fill-rule="nonzero"/><path fill="#000000" d="M 710.851562 650.648438 L 648.921875 650.625 C 642.558594 650.625 630.8125 637.941406 630.8125 630.671875 L 630.730469 554.066406 C 630.730469 545.148438 637.886719 532.179688 645 531.46875 C 657.050781 530.257812 666.046875 541.710938 665.960938 553.804688 L 665.570312 613.753906 L 712.464844 617.40625 C 718.105469 617.847656 727.808594 628.363281 728.179688 633.566406 C 728.628906 639.800781 717.097656 650.648438 710.839844 650.648438 Z M 710.851562 650.648438 " fill-opacity="1" fill-rule="nonzero"/><g clip-path="url(#cad5425ca2)"><g clip-path="url(#02cb42428f)"><g transform="matrix(1, 0, 0, 1, 512, 556)"><g clip-path="url(#a2b26ead75)"><g clip-path="url(#26147ee645)"><g clip-path="url(#c991977597)"><path fill="#000000" d="M 0.773438 0.621094 L 18.152344 0.621094 L 18.152344 18 L 0.773438 18 Z M 0.773438 0.621094 " fill-opacity="1" fill-rule="nonzero"/></g></g></g></g></g></g></svg>