<svg xmlns="http://www.w3.org/2000/svg" xmlns:xlink="http://www.w3.org/1999/xlink" width="1080" zoomAndPan="magnify" viewBox="0 0 810 809.999993" height="1080" preserveAspectRatio="xMidYMid meet" version="1.0"><defs><clipPath id="ca512388b3"><path d="M 14.679688 464 L 786 464 L 786 785 L 14.679688 785 Z M 14.679688 464 " clip-rule="nonzero"/></clipPath><clipPath id="8327e3b34e"><path d="M 490.382812 255.722656 L 504.378906 255.722656 L 504.378906 269.71875 L 490.382812 269.71875 Z M 490.382812 255.722656 " clip-rule="nonzero"/></clipPath><clipPath id="2f7b69ce15"><path d="M 497.378906 255.722656 C 493.515625 255.722656 490.382812 258.855469 490.382812 262.71875 C 490.382812 266.585938 493.515625 269.71875 497.378906 269.71875 C 501.242188 269.71875 504.378906 266.585938 504.378906 262.71875 C 504.378906 258.855469 501.242188 255.722656 497.378906 255.722656 Z M 497.378906 255.722656 " clip-rule="nonzero"/></clipPath><clipPath id="cc45cd6a3d"><path d="M 0.382812 0.722656 L 14.378906 0.722656 L 14.378906 14.71875 L 0.382812 14.71875 Z M 0.382812 0.722656 " clip-rule="nonzero"/></clipPath><clipPath id="dceb882a86"><path d="M 7.378906 0.722656 C 3.515625 0.722656 0.382812 3.855469 0.382812 7.71875 C 0.382812 11.585938 3.515625 14.71875 7.378906 14.71875 C 11.242188 14.71875 14.378906 11.585938 14.378906 7.71875 C 14.378906 3.855469 11.242188 0.722656 7.378906 0.722656 Z M 7.378906 0.722656 " clip-rule="nonzero"/></clipPath><clipPath id="a0ba33d080"><rect x="0" width="15" y="0" height="15"/></clipPath></defs><g clip-path="url(#ca512388b3)"><path fill="#000000" d="M 778.289062 518.65625 C 766.59375 503.460938 740.300781 490.78125 686.992188 522.273438 C 609.277344 568.515625 586.066406 582.300781 577.328125 586.429688 C 579.722656 592.980469 580.050781 596.269531 580.050781 605.390625 C 580.050781 651.363281 526.65625 664.582031 498.386719 665.152344 L 370.65625 665.152344 C 318.007812 665.152344 266.496094 610.296875 266.496094 610.296875 C 266.496094 610.296875 327.339844 635.242188 370.65625 635.242188 L 498.117188 635.242188 C 498.328125 635.242188 550.136719 633.207031 550.136719 605.390625 C 550.136719 579.941406 536.136719 575.484375 456.65625 575.484375 C 404.785156 575.484375 352.316406 544.886719 352.316406 544.886719 C 352.316406 544.886719 299.789062 506.542969 283.667969 496.460938 C 245.527344 472.625 215.015625 450.011719 148.367188 476.242188 C 106.15625 492.902344 13.933594 535.792969 13.933594 535.792969 L 98.976562 724.460938 L 142.324219 696.316406 C 166.3125 681.0625 179.597656 678.429688 210.585938 694.371094 C 240.589844 709.804688 332.84375 757.75 355.878906 768.9375 C 426.742188 803.273438 457.167969 772.527344 491.386719 752.785156 C 520.613281 735.976562 727.46875 598.992188 749.183594 583.617188 C 783.167969 559.660156 793.757812 538.722656 778.289062 518.65625 Z M 778.289062 518.65625 " fill-opacity="1" fill-rule="nonzero"/></g><path fill="#000000" d="M 516.992188 8.28125 C 505 74.144531 439.488281 107.730469 420.910156 198.238281 C 379.539062 399.707031 554.414062 333.578125 550.347656 358.339844 C 542.332031 426.386719 507.421875 446.605469 498.117188 446.484375 C 490.222656 446.394531 513.644531 449.445312 517.261719 456.382812 C 519.804688 461.320312 524.859375 464.160156 530.125 464.128906 C 532.339844 464.128906 544.246094 463.503906 546.339844 462.425781 C 548.164062 461.5 581.367188 414.542969 586.722656 316.46875 C 591.75 224.316406 594.378906 190.222656 553.011719 90.144531 C 598.390625 154.179688 620.285156 194.257812 606.375 354.332031 C 657.078125 365.011719 698.839844 296.371094 698.839844 224.316406 C 698.839844 107.730469 568.714844 51.472656 516.992188 8.28125 Z M 516.992188 8.28125 " fill-opacity="1" fill-rule="nonzero"/><path fill="#000000" d="M 397.277344 470.769531 C 410.738281 432.039062 465.75 438.230469 477.539062 457.851562 C 485.40625 439.335938 509.246094 424.859375 524.679688 424.738281 C 551.15625 424.5625 583.042969 428.660156 596.386719 463.472656 C 648.136719 433.175781 683.492188 471.878906 689.117188 495.445312 L 562.820312 567.828125 C 562.820312 567.828125 549.359375 553.796875 516.246094 553.796875 C 410.171875 553.796875 369.191406 526.851562 341.699219 498.796875 C 340.59375 487.578125 363.058594 462.367188 397.277344 470.769531 Z M 397.277344 470.769531 " fill-opacity="1" fill-rule="nonzero"/><g clip-path="url(#8327e3b34e)"><g clip-path="url(#2f7b69ce15)"><g transform="matrix(1, 0, 0, 1, 490, 255)"><g clip-path="url(#a0ba33d080)"><g clip-path="url(#cc45cd6a3d)"><g clip-path="url(#dceb882a86)"><path fill="#2f2f2f" d="M 0.382812 0.722656 L 14.378906 0.722656 L 14.378906 14.71875 L 0.382812 14.71875 Z M 0.382812 0.722656 " fill-opacity="1" fill-rule="nonzero"/></g></g></g></g></g></g></svg>