<svg xmlns="http://www.w3.org/2000/svg" xmlns:xlink="http://www.w3.org/1999/xlink" width="1080" zoomAndPan="magnify" viewBox="0 0 810 809.999993" height="1080" preserveAspectRatio="xMidYMid meet" version="1.0"><defs><clipPath id="583e71b517"><path d="M 320 639 L 568 639 L 568 727.761719 L 320 727.761719 Z M 320 639 " clip-rule="nonzero"/></clipPath><clipPath id="4f16ba2cb2"><path d="M 393 82.011719 L 471 82.011719 L 471 153 L 393 153 Z M 393 82.011719 " clip-rule="nonzero"/></clipPath><clipPath id="58e1bd06ab"><path d="M 585.960938 589.417969 L 609.460938 589.417969 L 609.460938 612.917969 L 585.960938 612.917969 Z M 585.960938 589.417969 " clip-rule="nonzero"/></clipPath><clipPath id="4602da977d"><path d="M 597.710938 589.417969 C 591.222656 589.417969 585.960938 594.679688 585.960938 601.167969 C 585.960938 607.65625 591.222656 612.917969 597.710938 612.917969 C 604.199219 612.917969 609.460938 607.65625 609.460938 601.167969 C 609.460938 594.679688 604.199219 589.417969 597.710938 589.417969 Z M 597.710938 589.417969 " clip-rule="nonzero"/></clipPath><clipPath id="d7371bb96f"><path d="M 0.960938 0.417969 L 24.460938 0.417969 L 24.460938 23.917969 L 0.960938 23.917969 Z M 0.960938 0.417969 " clip-rule="nonzero"/></clipPath><clipPath id="dd7bcaf120"><path d="M 12.710938 0.417969 C 6.222656 0.417969 0.960938 5.679688 0.960938 12.167969 C 0.960938 18.65625 6.222656 23.917969 12.710938 23.917969 C 19.199219 23.917969 24.460938 18.65625 24.460938 12.167969 C 24.460938 5.679688 19.199219 0.417969 12.710938 0.417969 Z M 12.710938 0.417969 " clip-rule="nonzero"/></clipPath><clipPath id="581daa2a70"><rect x="0" width="25" y="0" height="24"/></clipPath></defs><path fill="#000000" d="M 465.632812 675.878906 C 417.539062 675.878906 380.234375 670.539062 341.320312 664.964844 C 302.992188 659.472656 263.359375 653.796875 208.871094 652.207031 C 144.941406 650.339844 79.324219 654.921875 13.816406 665.820312 C 7.355469 666.894531 1.242188 662.527344 0.167969 656.070312 C -0.910156 649.609375 3.457031 643.5 9.921875 642.425781 C 76.945312 631.273438 144.105469 626.589844 209.5625 628.5 C 265.394531 630.128906 305.703125 635.902344 344.6875 641.488281 C 397.757812 649.089844 443.585938 655.652344 517.289062 650.167969 C 549.289062 647.785156 564.988281 644.707031 583.160156 641.144531 C 599.726562 637.894531 618.5 634.214844 652.679688 630.53125 C 700.917969 625.332031 749.960938 623.367188 798.453125 624.683594 C 805 624.863281 810.164062 630.3125 809.988281 636.859375 C 809.808594 643.40625 804.3125 648.519531 797.808594 648.390625 C 750.378906 647.097656 702.410156 649.023438 655.21875 654.109375 C 622.0625 657.683594 603.820312 661.257812 587.726562 664.414062 C 569.59375 667.972656 552.464844 671.328125 519.046875 673.816406 C 499.664062 675.261719 482.019531 675.882812 465.632812 675.882812 Z M 465.632812 675.878906 " fill-opacity="1" fill-rule="nonzero"/><g clip-path="url(#583e71b517)"><path fill="#000000" d="M 556 727.683594 C 555.402344 727.683594 554.796875 727.636719 554.1875 727.542969 C 518.371094 722.050781 491.585938 711.683594 463.226562 700.710938 C 429.792969 687.777344 391.902344 673.117188 330.464844 663.410156 C 323.992188 662.390625 319.578125 656.316406 320.601562 649.847656 C 321.621094 643.378906 327.699219 638.960938 334.167969 639.988281 C 398.105469 650.085938 437.25 665.234375 471.789062 678.597656 C 500.085938 689.542969 524.523438 699 557.785156 704.101562 C 564.257812 705.097656 568.703125 711.148438 567.710938 717.621094 C 566.808594 723.484375 561.753906 727.683594 556 727.683594 Z M 556 727.683594 " fill-opacity="1" fill-rule="nonzero"/></g><path fill="#000000" d="M 588.371094 664.066406 C 587.269531 664.066406 586.148438 663.914062 585.035156 663.585938 C 578.746094 661.75 575.140625 655.164062 576.980469 648.878906 C 601.171875 566.210938 590.582031 514.097656 579.371094 458.929688 C 567.34375 399.726562 554.90625 338.511719 590.445312 241.503906 C 592.699219 235.355469 599.507812 232.195312 605.660156 234.445312 C 611.8125 236.699219 614.972656 243.511719 612.722656 249.660156 C 579.492188 340.363281 590.726562 395.664062 602.621094 454.207031 C 613.910156 509.777344 625.589844 567.238281 599.75 655.535156 C 598.234375 660.710938 593.503906 664.066406 588.371094 664.066406 Z M 588.371094 664.066406 " fill-opacity="1" fill-rule="nonzero"/><path fill="#000000" d="M 688.789062 489.15625 C 684.011719 489.15625 679.289062 488.789062 674.660156 488.039062 C 668.195312 486.988281 663.800781 480.898438 664.847656 474.4375 C 665.898438 467.96875 672.015625 463.589844 678.457031 464.628906 C 701.089844 468.292969 728.371094 459.085938 749.648438 440.589844 C 763.710938 428.363281 787.167969 401.460938 786.242188 358.660156 C 775.46875 362.074219 761.144531 363.703125 745.976562 365.429688 C 714.496094 369.011719 675.316406 373.464844 657.550781 396.042969 C 648.257812 407.847656 645.039062 423.980469 647.714844 445.355469 C 648.527344 451.855469 643.914062 457.78125 637.414062 458.59375 C 630.898438 459.410156 624.988281 454.796875 624.171875 448.296875 C 620.722656 420.699219 625.679688 398.1875 638.902344 381.378906 C 662.792969 351.023438 707.429688 345.945312 743.292969 341.867188 C 757.265625 340.277344 770.460938 338.777344 779.054688 336.027344 C 786.210938 333.738281 793.839844 334.933594 799.984375 339.316406 C 806.160156 343.722656 809.796875 350.585938 809.960938 358.148438 C 810.789062 396.472656 794.476562 433.046875 765.214844 458.484375 C 742.527344 478.210938 714.839844 489.15625 688.789062 489.15625 Z M 688.789062 489.15625 " fill-opacity="1" fill-rule="nonzero"/><path fill="#000000" d="M 601.839844 326.089844 C 594.417969 326.089844 586.957031 324.945312 579.605469 322.589844 C 577.746094 321.996094 576.058594 320.949219 574.699219 319.542969 C 553.492188 297.636719 543.226562 275.105469 544.1875 252.574219 C 545.859375 213.339844 580.203125 183.433594 607.800781 159.402344 C 618.402344 150.171875 628.417969 141.453125 633.933594 134.3125 C 638.527344 128.367188 645.507812 124.992188 653.039062 125.152344 C 660.621094 125.277344 667.511719 128.867188 671.9375 135.003906 C 688.917969 158.535156 697.285156 186.25 696.136719 215.144531 C 695.113281 240.960938 686.4375 266.347656 671.707031 286.628906 C 653.214844 312.09375 627.769531 326.089844 601.839844 326.089844 Z M 589.621094 300.808594 C 612.066406 306.625 635.386719 296.277344 652.507812 272.699219 C 674.136719 242.914062 683.421875 191.460938 652.699219 148.875 L 652.710938 148.808594 C 645.761719 157.800781 634.890625 167.265625 623.382812 177.285156 C 599.210938 198.335938 569.128906 224.53125 567.886719 253.582031 C 567.238281 268.890625 574.351562 284.363281 589.621094 300.8125 Z M 643.320312 141.5625 L 643.339844 141.5625 Z M 643.320312 141.5625 " fill-opacity="1" fill-rule="nonzero"/><path fill="#000000" d="M 599.671875 515.914062 C 598.347656 515.914062 597.003906 515.691406 595.691406 515.222656 C 589.519531 513.027344 586.296875 506.242188 588.496094 500.074219 C 603.578125 457.757812 634.917969 423.832031 679.117188 401.960938 C 684.988281 399.054688 692.105469 401.457031 695.011719 407.324219 C 697.914062 413.195312 695.511719 420.308594 689.640625 423.214844 C 651.066406 442.300781 623.820312 471.628906 610.84375 508.035156 C 609.113281 512.886719 604.546875 515.914062 599.671875 515.914062 Z M 599.671875 515.914062 " fill-opacity="1" fill-rule="nonzero"/><path fill="#000000" d="M 409.402344 613.003906 C 409.242188 613.003906 409.089844 613.003906 408.933594 613.003906 C 402.382812 612.964844 397.105469 607.625 397.144531 601.074219 C 397.183594 594.527344 402.511719 589.242188 409.078125 589.289062 C 409.179688 589.289062 409.289062 589.289062 409.390625 589.289062 C 429.773438 589.289062 452.382812 577.257812 468.480469 557.824219 C 479.136719 544.960938 495.835938 517.941406 489.042969 480.566406 C 479.957031 485.054688 467.929688 488.582031 455.238281 492.304688 C 427.761719 500.363281 393.566406 510.394531 381.507812 533.078125 C 375.140625 545.058594 374.980469 560.082031 381.015625 579.003906 C 383.003906 585.242188 379.558594 591.914062 373.316406 593.902344 C 367.082031 595.886719 360.402344 592.449219 358.414062 586.207031 C 350.449219 561.238281 351.167969 539.617188 360.558594 521.949219 C 377.300781 490.449219 416.8125 478.859375 448.558594 469.550781 C 460.742188 465.976562 472.253906 462.601562 479.410156 458.859375 C 485.757812 455.539062 493.121094 455.417969 499.609375 458.53125 C 506.132812 461.660156 510.667969 467.515625 512.058594 474.59375 C 518.894531 509.4375 509.671875 545.285156 486.753906 572.949219 C 465.957031 598.058594 437.070312 613.003906 409.398438 613.003906 Z M 409.402344 613.003906 " fill-opacity="1" fill-rule="nonzero"/><path fill="#000000" d="M 85.964844 605.730469 C 68.546875 605.730469 50.585938 598.457031 35.03125 584.394531 C 19.738281 570.570312 8.453125 551.625 3.25 531.042969 C -2.574219 507.984375 -0.542969 484.269531 9.125 462.457031 C 11.851562 456.308594 17.402344 451.746094 23.972656 450.246094 C 30.621094 448.734375 37.382812 450.390625 42.546875 454.785156 C 47.898438 459.339844 57.128906 464.484375 66.898438 469.9375 C 92.992188 484.484375 125.460938 502.59375 133.535156 534.15625 C 138.191406 552.371094 133.757812 572.410156 120.347656 593.726562 C 119.308594 595.378906 117.875 596.753906 116.175781 597.71875 C 106.734375 603.09375 96.445312 605.730469 85.964844 605.730469 Z M 110.308594 587.414062 L 110.324219 587.414062 Z M 29.640625 474.839844 C 14.933594 511.46875 30.105469 547.972656 50.941406 566.804688 C 67.367188 581.652344 86.195312 585.886719 101.894531 578.4375 C 110.570312 563.773438 113.402344 551.1875 110.550781 540.03125 C 105 518.339844 77.464844 502.984375 55.339844 490.644531 C 45.714844 485.277344 36.566406 480.175781 29.640625 474.839844 Z M 27.167969 472.839844 L 27.171875 472.847656 Z M 27.167969 472.839844 " fill-opacity="1" fill-rule="nonzero"/><path fill="#000000" d="M 348.089844 642.960938 C 347.417969 642.960938 346.734375 642.90625 346.046875 642.785156 C 339.59375 641.664062 335.269531 635.523438 336.390625 629.074219 C 343.355469 588.988281 371.921875 552.886719 412.796875 532.503906 C 418.671875 529.585938 425.785156 531.964844 428.707031 537.824219 C 431.632812 543.683594 429.25 550.804688 423.390625 553.726562 C 389.230469 570.757812 365.445312 600.445312 359.761719 633.132812 C 358.761719 638.898438 353.75 642.960938 348.089844 642.960938 Z M 348.089844 642.960938 " fill-opacity="1" fill-rule="nonzero"/><path fill="#000000" d="M 490.230469 422.308594 C 480.238281 422.308594 469.789062 420.730469 459.160156 417.488281 C 435.179688 410.175781 412.953125 395.144531 396.574219 375.164062 C 378.238281 352.792969 368.210938 325.636719 367.570312 296.628906 C 367.40625 289.066406 370.738281 282.050781 376.714844 277.382812 C 382.664062 272.734375 390.234375 271.210938 397.484375 273.183594 C 406.191406 275.554688 419.4375 276.480469 433.464844 277.460938 C 469.972656 280.015625 515.410156 283.191406 540.398438 313.492188 C 554.746094 330.894531 560.136719 355.0625 556.417969 385.320312 C 556.179688 387.257812 555.464844 389.109375 554.339844 390.707031 C 539.839844 411.265625 516.652344 422.308594 490.230469 422.308594 Z M 391.230469 296.058594 C 392.441406 348.601562 430.867188 384.066406 466.082031 394.808594 C 493.960938 403.308594 518.808594 397.523438 533.21875 379.359375 C 535.488281 357.03125 531.839844 340.398438 522.089844 328.578125 C 503.585938 306.136719 463.789062 303.355469 431.808594 301.121094 C 416.585938 300.054688 402.203125 299.050781 391.242188 296.0625 Z M 391.230469 296.058594 " fill-opacity="1" fill-rule="nonzero"/><path fill="#000000" d="M 591.273438 469.816406 C 586.046875 469.816406 581.261719 466.339844 579.828125 461.054688 C 568.382812 418.816406 539.175781 386.707031 493.015625 365.621094 C 487.058594 362.898438 484.433594 355.863281 487.160156 349.90625 C 489.882812 343.949219 496.921875 341.328125 502.875 344.050781 C 555.011719 367.867188 589.539062 406.183594 602.730469 454.855469 C 604.441406 461.175781 600.703125 467.6875 594.378906 469.398438 C 593.34375 469.679688 592.296875 469.816406 591.273438 469.816406 Z M 591.273438 469.816406 " fill-opacity="1" fill-rule="nonzero"/><path fill="#000000" d="M 346.789062 665.996094 C 346.347656 665.996094 345.90625 665.972656 345.460938 665.921875 C 338.949219 665.199219 334.257812 659.332031 334.984375 652.824219 C 338.972656 617.089844 333.234375 581.640625 318.394531 550.316406 C 305.289062 522.648438 286.128906 500.335938 264.441406 487.480469 C 258.804688 484.140625 256.945312 476.867188 260.289062 471.234375 C 263.628906 465.601562 270.90625 463.746094 276.539062 467.082031 C 323.085938 494.667969 368.609375 565.382812 358.5625 655.453125 C 357.886719 661.515625 352.75 665.996094 346.789062 665.996094 Z M 346.789062 665.996094 " fill-opacity="1" fill-rule="nonzero"/><path fill="#000000" d="M 246.496094 537.964844 C 239.050781 537.964844 231.3125 537.054688 223.417969 535.183594 C 201.074219 529.894531 179.890625 517.453125 163.765625 500.152344 C 145.707031 480.773438 134.960938 456.542969 132.691406 430.070312 C 132.074219 422.882812 134.824219 416.003906 140.230469 411.199219 C 145.609375 406.421875 152.714844 404.503906 159.738281 405.949219 C 167.652344 407.574219 179.644531 407.648438 192.34375 407.726562 C 225.75 407.9375 267.328125 408.195312 292.019531 434.53125 C 306.226562 449.6875 312.601562 471.53125 310.960938 499.449219 C 310.84375 501.402344 310.25 503.292969 309.226562 504.957031 C 296.160156 526.242188 273.203125 537.964844 246.496094 537.964844 Z M 156.460938 429.46875 C 161.085938 475.550781 197.085938 504.578125 228.882812 512.105469 C 254.019531 518.054688 275.648438 511.648438 287.425781 494.960938 C 288.125 475.09375 283.953125 460.609375 274.707031 450.75 C 256.988281 431.847656 221.0625 431.621094 192.195312 431.445312 C 178.964844 431.359375 166.433594 431.28125 156.460938 429.46875 Z M 299.117188 498.753906 L 299.136719 498.753906 Z M 299.117188 498.753906 " fill-opacity="1" fill-rule="nonzero"/><path fill="#000000" d="M 122.542969 653.503906 C 117.011719 653.503906 112.0625 649.617188 110.929688 643.988281 C 104.703125 613.109375 92.609375 585.199219 74.980469 561.027344 C 71.121094 555.738281 72.28125 548.320312 77.574219 544.460938 C 82.871094 540.601562 90.289062 541.765625 94.148438 547.058594 C 113.808594 574.011719 127.277344 605.046875 134.183594 639.300781 C 135.480469 645.71875 131.320312 651.972656 124.902344 653.269531 C 124.109375 653.425781 123.320312 653.503906 122.542969 653.503906 Z M 122.542969 653.503906 " fill-opacity="1" fill-rule="nonzero"/><path fill="#000000" d="M 11.851562 385.816406 C 5.878906 385.816406 0.742188 381.316406 0.0742188 375.246094 C -0.636719 368.734375 4.066406 362.878906 10.578125 362.167969 C 96.164062 352.820312 176.246094 325.382812 248.601562 280.628906 C 319.492188 236.777344 379.289062 178.65625 426.328125 107.871094 C 429.953125 102.417969 437.3125 100.933594 442.773438 104.558594 C 448.230469 108.179688 449.714844 115.539062 446.089844 120.996094 C 397.144531 194.640625 334.898438 255.136719 261.085938 300.796875 C 185.699219 347.425781 102.285156 376.007812 13.15625 385.742188 C 12.71875 385.792969 12.285156 385.816406 11.851562 385.816406 Z M 11.851562 385.816406 " fill-opacity="1" fill-rule="nonzero"/><g clip-path="url(#4f16ba2cb2)"><path fill="#000000" d="M 458.960938 152.46875 C 453.144531 152.46875 448.0625 148.1875 447.230469 142.261719 L 442.320312 107.351562 L 407.402344 112.261719 C 400.910156 113.171875 394.914062 108.652344 394.003906 102.167969 C 393.09375 95.683594 397.613281 89.6875 404.097656 88.777344 L 450.765625 82.21875 C 453.882812 81.777344 457.042969 82.597656 459.554688 84.488281 C 462.066406 86.382812 463.722656 89.195312 464.160156 92.308594 L 470.722656 138.960938 C 471.636719 145.445312 467.117188 151.441406 460.628906 152.351562 C 460.070312 152.429688 459.511719 152.46875 458.960938 152.46875 Z M 458.960938 152.46875 " fill-opacity="1" fill-rule="nonzero"/></g><g clip-path="url(#58e1bd06ab)"><g clip-path="url(#4602da977d)"><g transform="matrix(1, 0, 0, 1, 585, 589)"><g clip-path="url(#581daa2a70)"><g clip-path="url(#d7371bb96f)"><g clip-path="url(#dd7bcaf120)"><path fill="#000000" d="M 0.960938 0.417969 L 24.460938 0.417969 L 24.460938 23.917969 L 0.960938 23.917969 Z M 0.960938 0.417969 " fill-opacity="1" fill-rule="nonzero"/></g></g></g></g></g></g></svg>
