<svg xmlns="http://www.w3.org/2000/svg" xmlns:xlink="http://www.w3.org/1999/xlink" width="900" zoomAndPan="magnify" viewBox="0 0 675 645.000003" height="860" preserveAspectRatio="xMidYMid meet" version="1.0"><path fill="#000000" d="M 600.261719 318.671875 C 606.058594 303.042969 609.394531 286.203125 609.394531 268.539062 C 609.394531 200.738281 562.597656 143.980469 499.542969 128.472656 C 482.152344 54.851562 416.183594 0 337.242188 0 C 258.304688 0 192.335938 54.851562 174.945312 128.472656 C 111.914062 143.980469 65.09375 200.738281 65.09375 268.539062 C 65.09375 286.203125 68.40625 303.015625 74.199219 318.671875 C 32.875 349.035156 5.949219 397.867188 5.949219 453.117188 C 5.949219 545.308594 80.648438 620.035156 172.863281 620.035156 C 196.226562 620.035156 218.457031 615.214844 238.632812 606.535156 C 259.082031 623.898438 284.148438 635.890625 311.699219 640.558594 L 311.699219 560.3125 L 196.023438 444.585938 C 186.039062 434.625 186.039062 418.464844 196.023438 408.503906 C 205.988281 398.515625 222.148438 398.515625 232.109375 408.503906 L 311.703125 488.074219 L 311.703125 400.425781 L 232.359375 321.082031 C 224.957031 313.65625 224.957031 301.660156 232.359375 294.261719 C 239.761719 286.859375 251.78125 286.859375 259.160156 294.261719 L 311.703125 346.777344 L 311.703125 250.550781 C 311.703125 236.449219 323.144531 225.03125 337.246094 225.03125 C 351.347656 225.03125 362.789062 236.445312 362.789062 250.550781 L 362.789062 346.777344 L 415.335938 294.261719 C 422.710938 286.859375 434.730469 286.859375 442.132812 294.261719 C 449.535156 301.660156 449.535156 313.65625 442.132812 321.082031 L 362.792969 400.425781 L 362.792969 488.074219 L 442.386719 408.503906 C 452.347656 398.515625 468.507812 398.515625 478.46875 408.503906 C 488.457031 418.464844 488.457031 434.625 478.46875 444.585938 L 362.792969 560.3125 L 362.792969 640.558594 C 390.34375 635.894531 415.414062 623.898438 435.863281 606.558594 C 456.039062 615.21875 478.246094 620.035156 501.605469 620.035156 C 593.820312 620.035156 668.542969 545.308594 668.542969 453.121094 C 668.539062 397.863281 641.613281 349.035156 600.261719 318.671875 Z M 600.261719 318.671875 " fill-opacity="1" fill-rule="nonzero"/></svg>
