<svg xmlns="http://www.w3.org/2000/svg" xmlns:xlink="http://www.w3.org/1999/xlink" width="900" zoomAndPan="magnify" viewBox="0 0 675 809.999993" height="1080" preserveAspectRatio="xMidYMid meet" version="1.0"><path fill="#000000" d="M 335.4375 683.539062 C 313.929688 683.539062 292.722656 679.929688 272.550781 673.253906 L 272.550781 810 L 398.320312 810 L 398.320312 673.253906 C 378.152344 679.925781 356.941406 683.539062 335.4375 683.539062 Z M 335.4375 683.539062 " fill-opacity="1" fill-rule="nonzero"/><path fill="#000000" d="M 594.542969 313.933594 C 600.253906 298.535156 603.542969 281.949219 603.542969 264.546875 C 603.542969 197.753906 557.4375 141.839844 495.320312 126.5625 C 478.1875 54.035156 413.203125 0 335.4375 0 C 257.667969 0 192.683594 54.035156 175.550781 126.5625 C 113.457031 141.839844 67.332031 197.753906 67.332031 264.546875 C 67.332031 281.949219 70.59375 298.511719 76.304688 313.933594 C 35.59375 343.84375 9.066406 391.949219 9.066406 446.382812 C 9.066406 537.199219 82.65625 610.8125 173.5 610.8125 C 196.515625 610.8125 218.417969 606.066406 238.289062 597.515625 C 258.433594 614.621094 283.132812 626.4375 310.273438 631.035156 L 310.273438 551.984375 L 196.316406 437.976562 C 186.476562 428.164062 186.476562 412.242188 196.316406 402.429688 C 206.128906 392.59375 222.050781 392.59375 231.863281 402.429688 L 310.273438 480.816406 L 310.273438 394.472656 L 232.113281 316.308594 C 224.820312 308.992188 224.820312 297.175781 232.113281 289.886719 C 239.402344 282.59375 251.246094 282.59375 258.511719 289.886719 L 310.277344 341.621094 L 310.277344 246.824219 C 310.277344 232.933594 321.546875 221.683594 335.4375 221.683594 C 349.332031 221.683594 360.601562 232.929688 360.601562 246.824219 L 360.601562 341.621094 L 412.367188 289.886719 C 419.632812 282.59375 431.472656 282.59375 438.765625 289.886719 C 446.058594 297.175781 446.058594 308.992188 438.765625 316.308594 L 360.605469 394.472656 L 360.605469 480.816406 L 439.015625 402.429688 C 448.828125 392.59375 464.75 392.59375 474.5625 402.429688 C 484.398438 412.242188 484.398438 428.164062 474.5625 437.976562 L 360.605469 551.984375 L 360.605469 631.035156 C 387.746094 626.4375 412.441406 614.621094 432.589844 597.542969 C 452.464844 606.070312 474.339844 610.816406 497.355469 610.816406 C 588.195312 610.816406 661.8125 537.203125 661.8125 446.382812 C 661.804688 391.949219 635.28125 343.84375 594.542969 313.933594 Z M 594.542969 313.933594 " fill-opacity="1" fill-rule="nonzero"/></svg>
