<svg xmlns="http://www.w3.org/2000/svg" xmlns:xlink="http://www.w3.org/1999/xlink" width="1080" zoomAndPan="magnify" viewBox="0 0 810 809.999993" height="1080" preserveAspectRatio="xMidYMid meet" version="1.0"><defs><clipPath id="89770236f1"><path d="M 238.949219 0 L 507 0 L 507 636 L 238.949219 636 Z M 238.949219 0 " clip-rule="nonzero"/></clipPath><clipPath id="7043822f0b"><path d="M 381 7 L 571.199219 7 L 571.199219 723 L 381 723 Z M 381 7 " clip-rule="nonzero"/></clipPath><clipPath id="4b41d21f20"><path d="M 477.074219 534.109375 L 500.574219 534.109375 L 500.574219 557.609375 L 477.074219 557.609375 Z M 477.074219 534.109375 " clip-rule="nonzero"/></clipPath><clipPath id="c7645d9a51"><path d="M 488.824219 534.109375 C 482.335938 534.109375 477.074219 539.371094 477.074219 545.859375 C 477.074219 552.347656 482.335938 557.609375 488.824219 557.609375 C 495.3125 557.609375 500.574219 552.347656 500.574219 545.859375 C 500.574219 539.371094 495.3125 534.109375 488.824219 534.109375 Z M 488.824219 534.109375 " clip-rule="nonzero"/></clipPath><clipPath id="33b31b2f0c"><path d="M 0.0742188 0.109375 L 23.574219 0.109375 L 23.574219 23.609375 L 0.0742188 23.609375 Z M 0.0742188 0.109375 " clip-rule="nonzero"/></clipPath><clipPath id="49f9be04ff"><path d="M 11.824219 0.109375 C 5.335938 0.109375 0.0742188 5.371094 0.0742188 11.859375 C 0.0742188 18.347656 5.335938 23.609375 11.824219 23.609375 C 18.3125 23.609375 23.574219 18.347656 23.574219 11.859375 C 23.574219 5.371094 18.3125 0.109375 11.824219 0.109375 Z M 11.824219 0.109375 " clip-rule="nonzero"/></clipPath><clipPath id="49945b5def"><rect x="0" width="24" y="0" height="24"/></clipPath></defs><g clip-path="url(#89770236f1)"><path fill="#000000" d="M 468.28125 1.65625 C 456.984375 5.527344 448.753906 15.527344 442.542969 32.789062 C 441.089844 36.980469 437.78125 49.5625 435.359375 60.769531 C 412.929688 163.03125 407.363281 178.996094 335.878906 350.933594 C 310.0625 412.949219 299.492188 438.917969 287.550781 469.078125 C 257.777344 544.160156 244.464844 587.304688 240.109375 622.0625 C 238.335938 636.660156 238.496094 638.109375 241.320312 630.609375 C 254.875 594.078125 288.035156 572.144531 320.871094 577.871094 C 348.386719 582.628906 368.234375 599 378.964844 625.851562 C 379.527344 627.222656 381.546875 615.207031 386.871094 577.871094 C 404.296875 455.128906 406.476562 446.09375 441.410156 350.125 C 469.570312 272.625 484.414062 214.078125 493.453125 144.480469 C 495.953125 124.964844 506.765625 26.09375 506.765625 22.382812 C 506.765625 18.59375 501.199219 10.527344 495.953125 6.65625 C 487.5625 0.367188 477.234375 -1.488281 468.28125 1.65625 Z M 468.28125 1.65625 " fill-opacity="1" fill-rule="nonzero"/></g><g clip-path="url(#7043822f0b)"><path fill="#000000" d="M 527.660156 10.367188 C 523.949219 12.382812 520.722656 14.722656 518.785156 17.0625 L 515.800781 20.691406 L 514.914062 39.640625 C 511.039062 120.933594 502.488281 186.660156 488.53125 242.0625 C 481.269531 271.011719 475.539062 288.996094 459.082031 334.644531 C 425.921875 426.257812 416.402344 464.320312 399.132812 573.917969 C 393.808594 607.546875 389.695312 632.628906 384.613281 662.144531 C 383 671.257812 381.867188 678.757812 381.949219 678.835938 C 382.03125 679 384.289062 676.09375 386.953125 672.546875 C 400.988281 653.59375 423.339844 643.191406 446.980469 644.722656 C 473.765625 646.5 496.519531 661.015625 509.75 684.804688 C 514.511719 693.273438 519.675781 710.773438 519.675781 718.433594 C 519.675781 720.128906 519.996094 721.984375 520.320312 722.546875 C 521.609375 724.484375 525.886719 689.402344 529.355469 648.515625 C 532.90625 606.09375 536.617188 535.609375 537.828125 487.628906 C 541.378906 340.933594 548.398438 244.160156 564.855469 113.433594 C 567.519531 92.546875 570.101562 70.449219 570.585938 64.238281 C 571.792969 49.640625 571.148438 36.09375 568.972656 28.996094 C 564.535156 15.046875 554.207031 7.382812 539.84375 7.382812 C 534.117188 7.382812 532.988281 7.625 527.660156 10.367188 Z M 527.660156 10.367188 " fill-opacity="1" fill-rule="nonzero"/></g><path fill="#000000" d="M 295.539062 591.980469 C 279.320312 596.015625 263.832031 608.675781 255.195312 625.128906 C 241.5625 650.933594 242.207031 685.128906 256.972656 715.691406 C 276.09375 755.289062 313.53125 788.835938 352.984375 801.660156 C 404.21875 818.355469 461.582031 808.757812 489.578125 778.917969 C 503.054688 764.484375 508.941406 748.757812 508.21875 729.242188 C 507.167969 704.722656 495.308594 682.304688 476.589844 669.886719 C 456.742188 656.742188 433.667969 655.128906 412.527344 665.449219 C 385.742188 678.675781 379.125 711.578125 399.214844 732.144531 C 408.898438 742.144531 422.046875 743.191406 425.757812 734.402344 C 427.9375 729.078125 426.890625 724.484375 421.96875 718.835938 C 411.074219 706.417969 415.109375 693.191406 431.085938 689.078125 C 448.996094 684.402344 468.84375 697.464844 474.816406 717.789062 C 476.507812 723.515625 476.507812 734.804688 474.816406 740.53125 C 467.796875 764.484375 434.875 783.191406 399.617188 783.191406 C 388.566406 783.191406 377.429688 781.335938 366.054688 777.546875 C 357.261719 774.5625 340.238281 766.902344 339.347656 765.449219 C 339.1875 765.128906 342.011719 766.09375 345.640625 767.546875 C 368.476562 776.660156 394.453125 778.433594 414.382812 772.144531 C 421.242188 769.964844 431.648438 765.046875 434.875 762.464844 L 436.8125 760.855469 L 431.328125 761.660156 C 421.484375 763.03125 409.058594 760.371094 399.539062 754.804688 C 393.164062 751.015625 383.402344 741.09375 379.449219 734.320312 C 377.59375 731.09375 375.011719 725.207031 373.640625 721.257812 C 371.460938 714.804688 370.652344 710.449219 369.121094 697.304688 L 368.796875 694.078125 L 362.503906 700.128906 C 355.566406 706.902344 347.578125 711.578125 337.332031 714.722656 C 332.328125 716.335938 329.503906 716.660156 321.195312 716.578125 C 315.46875 716.578125 309.578125 716.09375 307.480469 715.53125 C 296.183594 712.304688 283.515625 705.289062 281.417969 701.175781 C 279.804688 698.03125 276.335938 686.902344 275.125 681.175781 C 273.753906 674.804688 273.753906 659.722656 275.125 654.160156 C 278.273438 641.175781 287.46875 629.160156 298.441406 623.675781 C 304.332031 620.851562 304.898438 620.691406 312.722656 620.691406 C 320.308594 620.691406 321.195312 620.851562 326.277344 623.433594 C 347.253906 633.675781 353.226562 662.0625 336.121094 670.289062 C 330.152344 673.191406 323.777344 673.273438 313.046875 670.691406 C 305.058594 668.757812 303.445312 668.59375 300.460938 669.402344 C 289.730469 672.304688 287.46875 682.949219 295.941406 690.449219 C 305.625 698.917969 322.324219 703.113281 336.523438 700.613281 C 355.726562 697.144531 370.410156 682.707031 374.042969 663.59375 C 375.574219 655.691406 375.574219 651.09375 374.121094 643.433594 C 369.28125 618.433594 350.242188 598.515625 324.90625 592.0625 C 316.675781 589.964844 303.929688 589.964844 295.539062 591.980469 Z M 295.539062 591.980469 " fill-opacity="1" fill-rule="nonzero"/><g clip-path="url(#4b41d21f20)"><g clip-path="url(#c7645d9a51)"><g transform="matrix(1, 0, 0, 1, 477, 534)"><g clip-path="url(#49945b5def)"><g clip-path="url(#33b31b2f0c)"><g clip-path="url(#49f9be04ff)"><path fill="#000000" d="M 0.0742188 0.109375 L 23.574219 0.109375 L 23.574219 23.609375 L 0.0742188 23.609375 Z M 0.0742188 0.109375 " fill-opacity="1" fill-rule="nonzero"/></g></g></g></g></g></g></svg>
