<svg xmlns="http://www.w3.org/2000/svg" xmlns:xlink="http://www.w3.org/1999/xlink" width="1080" zoomAndPan="magnify" viewBox="0 0 810 809.999993" height="1080" preserveAspectRatio="xMidYMid meet" version="1.0"><defs><clipPath id="ce57b4aeec"><path d="M 405 444.652344 L 422.527344 444.652344 L 422.527344 462.179688 L 405 462.179688 Z M 405 444.652344 " clip-rule="nonzero"/></clipPath><clipPath id="2cae857e51"><path d="M 413.765625 444.652344 C 408.925781 444.652344 405 448.574219 405 453.417969 C 405 458.257812 408.925781 462.179688 413.765625 462.179688 C 418.605469 462.179688 422.527344 458.257812 422.527344 453.417969 C 422.527344 448.574219 418.605469 444.652344 413.765625 444.652344 Z M 413.765625 444.652344 " clip-rule="nonzero"/></clipPath><clipPath id="1f48d5f882"><path d="M 0 0.652344 L 17.527344 0.652344 L 17.527344 18.179688 L 0 18.179688 Z M 0 0.652344 " clip-rule="nonzero"/></clipPath><clipPath id="41ca8d7976"><path d="M 8.765625 0.652344 C 3.925781 0.652344 0 4.574219 0 9.417969 C 0 14.257812 3.925781 18.179688 8.765625 18.179688 C 13.605469 18.179688 17.527344 14.257812 17.527344 9.417969 C 17.527344 4.574219 13.605469 0.652344 8.765625 0.652344 Z M 8.765625 0.652344 " clip-rule="nonzero"/></clipPath><clipPath id="4a01dfea77"><rect x="0" width="18" y="0" height="19"/></clipPath></defs><path fill="currentColor" d="M 146.675781 0 L 141.078125 2.25 C 138.054688 3.464844 99.597656 19.519531 63.609375 52.511719 C 72.800781 135.628906 133.882812 157.132812 134.566406 157.351562 C 150.894531 162.773438 159.675781 180.425781 154.222656 196.78125 C 149.890625 209.832031 137.761719 218.078125 124.707031 218.078125 C 121.46875 218.078125 118.121094 217.523438 114.847656 216.433594 C 111.265625 215.25 46.21875 192.378906 15.714844 116.707031 C 6.273438 137.203125 0.0742188 160.410156 0.0742188 186.921875 C 0.0742188 240.101562 32.574219 280.328125 62.390625 306.125 L 62.390625 716.539062 C 62.390625 768.160156 104.238281 810 155.867188 810 C 207.496094 810 249.339844 768.160156 249.339844 716.539062 L 249.339844 391.980469 C 243.640625 395.4375 228.183594 405 218.242188 405 C 206.902344 405 195.949219 398.804688 190.433594 388.023438 C 182.613281 372.695312 188.613281 353.792969 204.003906 346.101562 C 244.882812 325.726562 311.660156 280.382812 311.660156 186.921875 C 311.660156 138.757812 286.53125 98.316406 257.679688 67.785156 C 246.679688 79.527344 237.863281 86.566406 236.867188 87.316406 C 231.226562 91.492188 224.695312 93.460938 218.242188 93.460938 C 208.742188 93.460938 199.339844 89.121094 193.230469 80.925781 C 182.917969 67.15625 185.789062 47.640625 199.5625 37.359375 C 199.65625 37.265625 204.34375 33.402344 210.574219 26.957031 C 190.664062 12.625 175.171875 4.402344 173.332031 3.46875 L 166.578125 0 Z M 395.945312 31.152344 L 390.34375 33.40625 C 387.945312 34.371094 363.222656 44.847656 335.148438 65.53125 C 359.949219 103.011719 373.136719 143.164062 373.792969 183.757812 C 379.710938 187.09375 383.679688 188.441406 383.832031 188.503906 C 400.160156 193.925781 408.941406 211.578125 403.492188 227.933594 C 399.160156 240.988281 387.03125 249.230469 373.976562 249.230469 C 371.328125 249.230469 368.621094 248.609375 365.941406 247.890625 C 356.3125 283.875 338.082031 316.425781 311.660156 344.152344 L 311.660156 685.382812 C 311.660156 737.007812 353.503906 778.847656 405.132812 778.847656 C 456.761719 778.847656 498.609375 737.007812 498.609375 685.382812 L 498.609375 355.894531 C 498.609375 355.894531 560.925781 311.539062 560.925781 218.078125 C 560.925781 169.914062 535.796875 129.46875 506.945312 98.9375 C 495.945312 110.683594 487.128906 117.722656 486.132812 118.46875 C 480.492188 122.644531 473.960938 124.617188 467.511719 124.617188 C 458.007812 124.617188 448.605469 120.273438 442.5 112.082031 C 432.1875 98.3125 435.054688 78.792969 448.828125 68.515625 C 448.921875 68.421875 453.613281 64.558594 459.84375 58.109375 C 439.933594 43.777344 424.4375 35.558594 422.597656 34.621094 L 415.84375 31.152344 Z M 395.945312 31.152344 " fill-opacity="1" fill-rule="nonzero"/><g clip-path="url(#ce57b4aeec)"><g clip-path="url(#2cae857e51)"><g transform="matrix(1, 0, 0, 1, 405, 444)"><g clip-path="url(#4a01dfea77)"><g clip-path="url(#1f48d5f882)"><g clip-path="url(#41ca8d7976)"><path fill="currentColor" d="M 0 0.652344 L 17.527344 0.652344 L 17.527344 18.179688 L 0 18.179688 Z M 0 0.652344 " fill-opacity="1" fill-rule="nonzero"/></g></g></g></g></g></g></svg>
