<svg xmlns="http://www.w3.org/2000/svg" xmlns:xlink="http://www.w3.org/1999/xlink" width="1080" zoomAndPan="magnify" viewBox="0 0 810 809.999993" height="1080" preserveAspectRatio="xMidYMid meet" version="1.0"><defs><clipPath id="243ee10318"><path d="M 93.148438 261 L 416 261 L 416 630 L 93.148438 630 Z M 93.148438 261 " clip-rule="nonzero"/></clipPath><clipPath id="439782c768"><path d="M 693.351562 490.902344 L 716.851562 490.902344 L 716.851562 514.402344 L 693.351562 514.402344 Z M 693.351562 490.902344 " clip-rule="nonzero"/></clipPath><clipPath id="9fc0d10d7b"><path d="M 705.101562 490.902344 C 698.609375 490.902344 693.351562 496.164062 693.351562 502.652344 C 693.351562 509.140625 698.609375 514.402344 705.101562 514.402344 C 711.589844 514.402344 716.851562 509.140625 716.851562 502.652344 C 716.851562 496.164062 711.589844 490.902344 705.101562 490.902344 Z M 705.101562 490.902344 " clip-rule="nonzero"/></clipPath><clipPath id="f00a0ccd4f"><path d="M 0.351562 0.902344 L 23.851562 0.902344 L 23.851562 24.402344 L 0.351562 24.402344 Z M 0.351562 0.902344 " clip-rule="nonzero"/></clipPath><clipPath id="37061101ba"><path d="M 12.101562 0.902344 C 5.609375 0.902344 0.351562 6.164062 0.351562 12.652344 C 0.351562 19.140625 5.609375 24.402344 12.101562 24.402344 C 18.589844 24.402344 23.851562 19.140625 23.851562 12.652344 C 23.851562 6.164062 18.589844 0.902344 12.101562 0.902344 Z M 12.101562 0.902344 " clip-rule="nonzero"/></clipPath><clipPath id="4a6f640fd3"><rect x="0" width="24" y="0" height="25"/></clipPath></defs><path fill="#232323" d="M 405.15625 368.515625 C 403.390625 368.515625 401.640625 368.066406 400.066406 367.152344 L 249.226562 280.113281 C 246.074219 278.296875 244.136719 274.933594 244.136719 271.300781 L 244.136719 97.222656 C 244.136719 93.589844 246.074219 90.226562 249.226562 88.410156 L 400.066406 1.371094 C 403.21875 -0.457031 407.089844 -0.457031 410.246094 1.371094 L 561.082031 88.410156 C 564.238281 90.226562 566.171875 93.589844 566.171875 97.222656 L 566.171875 271.300781 C 566.171875 274.933594 564.238281 278.296875 561.082031 280.113281 L 410.246094 367.152344 C 408.667969 368.066406 406.917969 368.515625 405.15625 368.515625 Z M 264.496094 265.433594 L 405.15625 346.589844 L 545.8125 265.433594 L 545.8125 103.089844 L 405.15625 21.933594 L 264.496094 103.089844 Z M 264.496094 265.433594 " fill-opacity="1" fill-rule="nonzero"/><path fill="#232323" d="M 555.992188 629.636719 C 554.230469 629.636719 552.480469 629.1875 550.902344 628.273438 L 400.066406 541.234375 C 396.910156 539.417969 394.976562 536.054688 394.976562 532.421875 L 394.976562 358.34375 C 394.976562 354.710938 396.910156 351.347656 400.066406 349.53125 L 550.902344 262.492188 C 554.058594 260.664062 557.925781 260.664062 561.082031 262.492188 L 711.90625 349.53125 C 715.0625 351.347656 716.996094 354.710938 716.996094 358.34375 L 716.996094 532.421875 C 716.996094 536.054688 715.0625 539.417969 711.90625 541.234375 L 561.082031 628.273438 C 559.503906 629.1875 557.753906 629.636719 555.992188 629.636719 Z M 415.335938 526.554688 L 555.992188 607.710938 L 696.636719 526.554688 L 696.636719 364.210938 L 555.992188 283.054688 L 415.335938 364.210938 Z M 415.335938 526.554688 " fill-opacity="1" fill-rule="nonzero"/><g clip-path="url(#243ee10318)"><path fill="#232323" d="M 254.332031 629.636719 C 252.566406 629.636719 250.816406 629.1875 249.242188 628.273438 L 98.402344 541.234375 C 95.25 539.417969 93.3125 536.054688 93.3125 532.421875 L 93.3125 358.34375 C 93.3125 354.710938 95.25 351.347656 98.402344 349.53125 L 249.242188 262.492188 C 252.394531 260.664062 256.265625 260.664062 259.421875 262.492188 L 410.246094 349.53125 C 413.398438 351.347656 415.335938 354.710938 415.335938 358.34375 L 415.335938 532.421875 C 415.335938 536.054688 413.398438 539.417969 410.246094 541.234375 L 259.421875 628.273438 C 257.84375 629.1875 256.09375 629.636719 254.332031 629.636719 Z M 113.671875 526.554688 L 254.332031 607.710938 L 394.976562 526.554688 L 394.976562 364.210938 L 254.332031 283.054688 L 113.671875 364.210938 Z M 113.671875 526.554688 " fill-opacity="1" fill-rule="nonzero"/></g><path fill="#232323" d="M 375.210938 809.996094 C 349.671875 809.996094 328.902344 788.375 328.902344 761.800781 L 328.902344 575.214844 C 328.902344 569.597656 333.460938 565.039062 339.082031 565.039062 C 344.699219 565.039062 349.257812 569.597656 349.257812 575.214844 L 349.257812 761.800781 C 349.257812 777.15625 360.898438 789.648438 375.210938 789.648438 C 389.527344 789.648438 401.152344 777.15625 401.152344 761.800781 L 401.152344 676.457031 C 401.152344 649.867188 421.921875 628.246094 447.449219 628.246094 C 472.976562 628.246094 493.761719 649.867188 493.761719 676.457031 L 493.761719 703.945312 C 493.761719 719.3125 505.398438 731.808594 519.699219 731.808594 C 534.003906 731.808594 545.640625 719.3125 545.640625 703.945312 L 545.640625 618.613281 C 545.640625 612.996094 550.199219 608.441406 555.820312 608.441406 C 561.4375 608.441406 566 612.996094 566 618.613281 L 566 703.945312 C 566 730.535156 545.230469 752.15625 519.699219 752.15625 C 494.171875 752.15625 473.402344 730.535156 473.402344 703.945312 L 473.402344 676.457031 C 473.402344 661.089844 461.765625 648.59375 447.449219 648.59375 C 433.132812 648.59375 421.511719 661.089844 421.511719 676.457031 L 421.511719 761.800781 C 421.511719 788.375 400.742188 809.996094 375.210938 809.996094 Z M 375.210938 809.996094 " fill-opacity="1" fill-rule="nonzero"/><g clip-path="url(#439782c768)"><g clip-path="url(#9fc0d10d7b)"><g transform="matrix(1, 0, 0, 1, 693, 490)"><g clip-path="url(#4a6f640fd3)"><g clip-path="url(#f00a0ccd4f)"><g clip-path="url(#37061101ba)"><path fill="#000000" d="M 0.351562 0.902344 L 23.851562 0.902344 L 23.851562 24.402344 L 0.351562 24.402344 Z M 0.351562 0.902344 " fill-opacity="1" fill-rule="nonzero"/></g></g></g></g></g></g></svg>
