<svg xmlns="http://www.w3.org/2000/svg" xmlns:xlink="http://www.w3.org/1999/xlink" width="850" zoomAndPan="magnify" viewBox="0 0 637.5 809.999993" height="1080" preserveAspectRatio="xMidYMid meet" version="1.0"><defs><clipPath id="1be0ecb5b0"><path d="M 11 0.316406 L 626 0.316406 L 626 809.679688 L 11 809.679688 Z M 11 0.316406 " clip-rule="nonzero"/></clipPath></defs><g clip-path="url(#1be0ecb5b0)"><path fill="#000000" d="M 569.21875 781.773438 L 345.945312 781.773438 L 345.945312 715.671875 C 368.886719 673.386719 396.78125 641.210938 421.859375 614.261719 C 501.96875 613.566406 550.074219 599.386719 581.777344 567.167969 C 612.421875 536.019531 626.167969 488.855469 625.035156 418.730469 C 624.910156 411.113281 618.683594 405 611.082031 405 C 483.421875 405 403.867188 437.125 401.941406 594.699219 C 383.871094 614.082031 364.375 636.171875 345.941406 662.6875 L 345.941406 474.773438 C 345.941406 456.660156 365.199219 423.460938 394.140625 391.015625 C 522.550781 390.375 583.167969 368.925781 583.167969 195.679688 C 583.167969 187.976562 576.917969 181.726562 569.214844 181.726562 C 437.816406 181.726562 375.21875 200.6875 373.90625 371.648438 C 366.914062 379.476562 356.183594 392.21875 345.941406 407.09375 L 345.941406 251.609375 C 346.082031 233.132812 347.363281 217.324219 350.101562 202.839844 C 340.542969 204.738281 330.394531 201.179688 323.503906 194.59375 C 329.058594 167.28125 339.175781 143.65625 355.917969 118.230469 C 360.164062 111.800781 368.800781 110 375.246094 114.253906 C 381.679688 118.496094 383.453125 127.160156 379.222656 133.597656 C 362.9375 158.296875 353.785156 180.484375 349.347656 207.636719 C 393.640625 199.183594 435.683594 172.109375 458.511719 136.332031 C 481.636719 100.105469 485.890625 56.410156 470.847656 9.972656 C 468.769531 3.550781 462.40625 -0.496094 455.695312 0.453125 C 382.296875 10.445312 330.664062 40.992188 310.277344 86.472656 C 294.871094 120.839844 299.53125 161.308594 322.597656 198.402344 C 322.628906 198.203125 322.699219 198.035156 322.722656 197.84375 C 319.710938 213.945312 318.1875 231.363281 318.035156 251.398438 L 318.035156 349.75 C 306.996094 334.007812 295.664062 321.464844 289.875 315.378906 C 289.917969 315.421875 289.945312 315.449219 289.988281 315.492188 C 289.304688 252.347656 277.859375 213.988281 251.863281 188.394531 C 227.34375 164.265625 189.542969 153.089844 136.390625 153.8125 C 128.785156 153.9375 122.671875 160.148438 122.671875 167.769531 C 122.671875 266.597656 148.128906 332.8125 270.035156 335.015625 C 269.382812 334.320312 268.746094 333.648438 268.136719 333.015625 C 283.632812 349.03125 318.039062 390.535156 318.039062 418.953125 L 318.039062 596.234375 C 305.367188 580.367188 293.394531 569.0625 283.609375 559.878906 C 280.863281 557.285156 278.390625 554.941406 276.074219 552.664062 C 274.246094 359.421875 182.464844 321.269531 24.988281 321.269531 C 17.273438 321.269531 11.035156 327.523438 11.035156 335.226562 C 11.035156 490.695312 93.617188 570.332031 256.21875 572.273438 C 258.769531 574.785156 261.492188 577.394531 264.519531 580.226562 C 279.128906 593.929688 298.972656 612.6875 318.035156 646.039062 L 318.035156 781.773438 L 94.761719 781.773438 C 87.046875 781.773438 80.808594 788.027344 80.808594 795.730469 C 80.808594 803.445312 87.046875 809.683594 94.761719 809.683594 L 569.21875 809.683594 C 576.921875 809.683594 583.175781 803.445312 583.175781 795.730469 C 583.171875 788.023438 576.921875 781.773438 569.21875 781.773438 Z M 493.875 503.839844 C 500.925781 500.753906 509.15625 504.007812 512.242188 511.070312 C 515.3125 518.144531 512.074219 526.363281 505 529.433594 C 468.675781 545.257812 445.523438 577.800781 427.675781 607.550781 C 427.273438 608.234375 426.726562 608.78125 426.226562 609.367188 C 431.039062 603.730469 430.71875 595.300781 425.261719 590.191406 C 419.625 584.902344 410.792969 585.183594 405.53125 590.820312 C 405.210938 591.15625 404.890625 591.515625 404.566406 591.867188 C 424.59375 558.679688 450.882812 522.566406 493.875 503.839844 Z M 383.746094 360.746094 C 399.585938 343.054688 432.5625 306.214844 462.914062 282.394531 C 468.96875 277.632812 477.746094 278.695312 482.503906 284.75 C 487.261719 290.808594 486.203125 299.585938 480.144531 304.34375 C 451.71875 326.65625 419.847656 362.257812 404.539062 379.363281 C 401.832031 382.390625 399.640625 384.847656 398.066406 386.550781 C 398.945312 385.585938 400.058594 384.34375 401.316406 382.949219 C 392.132812 379.824219 384.488281 372.0625 381.792969 362.921875 L 377.539062 367.640625 Z M 270.085938 321.648438 C 267.351562 323.421875 264.070312 324.496094 260.625 325 L 266.292969 331.136719 C 266.835938 331.683594 267.425781 332.285156 268.035156 332.914062 C 267.421875 332.28125 266.835938 331.683594 266.292969 331.136719 L 210.097656 270.269531 C 204.863281 264.601562 205.226562 255.785156 210.875 250.550781 C 216.570312 245.332031 225.375 245.695312 230.59375 251.347656 L 281.851562 306.855469 C 279.996094 312.550781 276.253906 317.6875 270.085938 321.648438 Z M 272.390625 548.953125 C 267.128906 543.34375 258.308594 543.050781 252.660156 548.328125 C 247.203125 553.433594 246.882812 561.863281 251.695312 567.5 C 251.277344 567.011719 250.804688 566.578125 250.453125 566.019531 C 215.175781 510.800781 180.597656 475.984375 144.761719 459.558594 C 137.757812 456.335938 134.671875 448.0625 137.882812 441.058594 C 141.105469 434.039062 149.394531 430.980469 156.386719 434.175781 C 196.9375 452.765625 235.117188 490.582031 273.058594 549.636719 C 272.851562 549.414062 272.597656 549.175781 272.390625 548.953125 Z M 272.390625 548.953125 " fill-opacity="1" fill-rule="nonzero"/></g></svg>
