<svg xmlns="http://www.w3.org/2000/svg" xmlns:xlink="http://www.w3.org/1999/xlink" width="1080" zoomAndPan="magnify" viewBox="0 0 810 809.999993" height="1080" preserveAspectRatio="xMidYMid meet" version="1.0"><defs><clipPath id="8bb8c3d34a"><path d="M 675.632812 611.886719 L 699.132812 611.886719 L 699.132812 635.386719 L 675.632812 635.386719 Z M 675.632812 611.886719 " clip-rule="nonzero"/></clipPath><clipPath id="56f22a9933"><path d="M 687.382812 611.886719 C 680.890625 611.886719 675.632812 617.144531 675.632812 623.636719 C 675.632812 630.125 680.890625 635.386719 687.382812 635.386719 C 693.871094 635.386719 699.132812 630.125 699.132812 623.636719 C 699.132812 617.144531 693.871094 611.886719 687.382812 611.886719 Z M 687.382812 611.886719 " clip-rule="nonzero"/></clipPath><clipPath id="2be00e17a0"><path d="M 0.632812 0.886719 L 24.132812 0.886719 L 24.132812 24.386719 L 0.632812 24.386719 Z M 0.632812 0.886719 " clip-rule="nonzero"/></clipPath><clipPath id="d19a3d8022"><path d="M 12.382812 0.886719 C 5.890625 0.886719 0.632812 6.144531 0.632812 12.636719 C 0.632812 19.125 5.890625 24.386719 12.382812 24.386719 C 18.871094 24.386719 24.132812 19.125 24.132812 12.636719 C 24.132812 6.144531 18.871094 0.886719 12.382812 0.886719 Z M 12.382812 0.886719 " clip-rule="nonzero"/></clipPath><clipPath id="a65e1da548"><rect x="0" width="25" y="0" height="25"/></clipPath></defs><path fill="#000000" d="M 681.023438 565.128906 C 608.011719 504.199219 515.578125 509.953125 465.957031 520.972656 L 465.957031 9 C 465.957031 8.433594 465.898438 7.875 465.789062 7.320312 C 465.679688 6.765625 465.515625 6.226562 465.300781 5.703125 C 465.082031 5.179688 464.816406 4.683594 464.503906 4.210938 C 464.1875 3.742188 463.832031 3.308594 463.433594 2.90625 C 463.03125 2.507812 462.597656 2.148438 462.125 1.835938 C 461.65625 1.519531 461.160156 1.253906 460.636719 1.039062 C 460.113281 0.820312 459.574219 0.660156 459.019531 0.546875 C 458.464844 0.4375 457.90625 0.382812 457.339844 0.382812 C 456.773438 0.382812 456.214844 0.4375 455.660156 0.546875 C 455.105469 0.660156 454.566406 0.820312 454.042969 1.039062 C 453.523438 1.253906 453.023438 1.519531 452.554688 1.835938 C 452.085938 2.148438 451.648438 2.507812 451.25 2.90625 C 450.847656 3.308594 450.492188 3.742188 450.179688 4.210938 C 449.863281 4.683594 449.597656 5.179688 449.382812 5.703125 C 449.164062 6.226562 449.003906 6.765625 448.890625 7.320312 C 448.78125 7.875 448.726562 8.433594 448.726562 9 L 448.726562 525.882812 C 443.925781 527.457031 439.035156 529.242188 434.097656 531.253906 C 420.144531 521.917969 406.476562 513.640625 392.414062 505.96875 C 392.324219 439.625 385.316406 357.367188 379.421875 299.824219 C 374.5 248.695312 344.019531 204.648438 299.675781 179.316406 L 299.675781 43.996094 C 299.675781 43.429688 299.621094 42.871094 299.511719 42.316406 C 299.398438 41.757812 299.238281 41.21875 299.019531 40.699219 C 298.804688 40.175781 298.539062 39.679688 298.222656 39.207031 C 297.910156 38.738281 297.554688 38.300781 297.152344 37.902344 C 296.753906 37.5 296.316406 37.144531 295.847656 36.828125 C 295.378906 36.515625 294.878906 36.25 294.359375 36.035156 C 293.835938 35.816406 293.296875 35.652344 292.742188 35.542969 C 292.1875 35.433594 291.628906 35.378906 291.0625 35.378906 C 290.496094 35.378906 289.9375 35.433594 289.382812 35.542969 C 288.824219 35.652344 288.289062 35.816406 287.765625 36.035156 C 287.242188 36.25 286.746094 36.515625 286.277344 36.828125 C 285.804688 37.144531 285.371094 37.5 284.96875 37.902344 C 284.570312 38.300781 284.214844 38.738281 283.898438 39.207031 C 283.585938 39.679688 283.320312 40.175781 283.101562 40.699219 C 282.886719 41.21875 282.722656 41.757812 282.613281 42.316406 C 282.503906 42.871094 282.445312 43.429688 282.445312 43.996094 L 282.445312 168.285156 L 178.570312 101.761719 C 177.339844 100.894531 151.214844 82.085938 151.214844 58.421875 L 151.214844 9 C 151.214844 8.433594 151.160156 7.875 151.050781 7.320312 C 150.941406 6.765625 150.777344 6.226562 150.5625 5.703125 C 150.34375 5.179688 150.078125 4.683594 149.765625 4.210938 C 149.449219 3.742188 149.09375 3.308594 148.695312 2.90625 C 148.292969 2.507812 147.859375 2.148438 147.386719 1.835938 C 146.917969 1.519531 146.421875 1.253906 145.898438 1.039062 C 145.375 0.820312 144.835938 0.660156 144.28125 0.546875 C 143.726562 0.4375 143.167969 0.382812 142.601562 0.382812 C 142.035156 0.382812 141.476562 0.4375 140.921875 0.546875 C 140.367188 0.660156 139.828125 0.820312 139.304688 1.039062 C 138.78125 1.253906 138.285156 1.519531 137.816406 1.835938 C 137.347656 2.148438 136.910156 2.507812 136.511719 2.90625 C 136.109375 3.308594 135.753906 3.742188 135.4375 4.210938 C 135.125 4.683594 134.859375 5.179688 134.644531 5.703125 C 134.425781 6.226562 134.261719 6.765625 134.152344 7.320312 C 134.042969 7.875 133.988281 8.433594 133.988281 9 C 134.824219 59.113281 126.226562 80.804688 165.128906 113.1875 L 165.128906 326.648438 C 160.535156 327.476562 156.179688 328.984375 152.058594 331.171875 C 147.933594 333.355469 144.242188 336.117188 140.980469 339.453125 C 126.988281 353.113281 123.238281 384.652344 134.058594 405.375 C 133.832031 405.429688 134.074219 796.664062 133.988281 796.945312 C 133.988281 797.507812 134.042969 798.070312 134.152344 798.625 C 134.261719 799.179688 134.425781 799.71875 134.644531 800.242188 C 134.859375 800.765625 135.125 801.261719 135.4375 801.730469 C 135.753906 802.203125 136.109375 802.636719 136.511719 803.039062 C 136.910156 803.4375 137.347656 803.796875 137.816406 804.109375 C 138.285156 804.425781 138.78125 804.6875 139.304688 804.90625 C 139.828125 805.121094 140.367188 805.285156 140.921875 805.394531 C 141.476562 805.507812 142.035156 805.5625 142.601562 805.5625 C 143.167969 805.5625 143.726562 805.507812 144.28125 805.394531 C 144.835938 805.285156 145.375 805.121094 145.898438 804.90625 C 146.421875 804.6875 146.917969 804.425781 147.386719 804.109375 C 147.859375 803.796875 148.292969 803.4375 148.695312 803.039062 C 149.09375 802.636719 149.449219 802.203125 149.765625 801.730469 C 150.078125 801.261719 150.34375 800.765625 150.5625 800.242188 C 150.777344 799.71875 150.941406 799.179688 151.050781 798.625 C 151.160156 798.070312 151.214844 797.507812 151.214844 796.945312 L 151.214844 429.171875 C 163.382812 441.644531 176.734375 452.6875 191.261719 462.300781 C 192.746094 463.445312 194.160156 464.667969 195.507812 465.972656 C 196.851562 467.277344 198.117188 468.652344 199.304688 470.105469 C 200.492188 471.554688 201.589844 473.066406 202.605469 474.644531 C 203.617188 476.21875 204.539062 477.847656 205.363281 479.53125 C 206.191406 481.210938 206.917969 482.9375 207.546875 484.699219 C 208.175781 486.464844 208.699219 488.261719 209.125 490.085938 C 209.546875 491.914062 209.863281 493.757812 210.074219 495.621094 C 210.285156 497.480469 210.390625 499.351562 210.386719 501.222656 L 210.386719 661.277344 C 210.386719 661.84375 210.441406 662.402344 210.550781 662.957031 C 210.660156 663.515625 210.824219 664.054688 211.042969 664.574219 C 211.257812 665.097656 211.523438 665.59375 211.835938 666.066406 C 212.152344 666.535156 212.507812 666.972656 212.910156 667.371094 C 213.308594 667.773438 213.742188 668.128906 214.214844 668.445312 C 214.683594 668.757812 215.179688 669.023438 215.703125 669.238281 C 216.226562 669.457031 216.765625 669.621094 217.320312 669.730469 C 217.875 669.839844 218.433594 669.894531 219 669.894531 C 219.566406 669.894531 220.125 669.839844 220.679688 669.730469 C 221.234375 669.621094 221.773438 669.457031 222.296875 669.238281 C 222.820312 669.023438 223.316406 668.757812 223.785156 668.445312 C 224.257812 668.128906 224.691406 667.773438 225.089844 667.371094 C 225.492188 666.972656 225.847656 666.535156 226.164062 666.066406 C 226.476562 665.59375 226.742188 665.097656 226.957031 664.574219 C 227.175781 664.054688 227.339844 663.515625 227.449219 662.957031 C 227.558594 662.402344 227.613281 661.84375 227.613281 661.277344 C 226.835938 653.328125 229.808594 484.457031 225.199219 483.496094 C 276.078125 512.214844 330.875 537.175781 377.003906 566.9375 C 365.390625 576.484375 356.523438 590.121094 358.066406 605.824219 C 354.078125 700.117188 392.710938 803.671875 528.21875 805.578125 C 590.332031 809.699219 650.941406 777.015625 676.757812 720.71875 C 692.355469 687.347656 698.976562 647.941406 696.429688 603.589844 C 696.351562 588.488281 690.425781 573.566406 681.023438 565.128906 Z M 299.574219 199.714844 C 303.636719 202.300781 307.554688 205.097656 311.324219 208.097656 C 315.09375 211.097656 318.695312 214.289062 322.128906 217.671875 C 325.5625 221.054688 328.808594 224.605469 331.863281 228.332031 C 334.921875 232.054688 337.773438 235.929688 340.421875 239.957031 C 343.070312 243.984375 345.5 248.140625 347.707031 252.421875 C 349.917969 256.707031 351.894531 261.09375 353.640625 265.585938 C 355.386719 270.078125 356.890625 274.648438 358.152344 279.300781 C 359.414062 283.953125 360.429688 288.65625 361.195312 293.414062 C 358.132812 289.140625 354.804688 285.082031 351.214844 281.234375 C 347.625 277.390625 343.804688 273.789062 339.753906 270.4375 C 335.699219 267.085938 331.449219 264.007812 327 261.203125 C 322.546875 258.402344 317.9375 255.894531 313.164062 253.6875 C 262.730469 230.566406 220.332031 189.054688 219.902344 188.640625 C 211.75 180.835938 199.855469 192.792969 207.800781 200.90625 C 209.609375 202.691406 252.699219 244.933594 305.980469 269.359375 C 351.445312 290.203125 364.902344 337.449219 366.222656 342.492188 C 368.683594 369.839844 371.046875 399.863281 372.722656 429.683594 C 357.941406 411.953125 332.1875 389.039062 288.496094 369.109375 C 218.28125 337.097656 183.777344 288.078125 183.214844 287.269531 C 182.953125 286.90625 182.664062 286.566406 182.347656 286.246094 L 182.347656 244.039062 C 202.683594 266.042969 243.269531 303.832031 306.71875 336.496094 C 307.21875 336.742188 307.738281 336.9375 308.277344 337.078125 C 308.816406 337.222656 309.367188 337.3125 309.921875 337.351562 C 310.480469 337.386719 311.035156 337.371094 311.589844 337.300781 C 312.140625 337.230469 312.683594 337.105469 313.210938 336.929688 C 313.742188 336.753906 314.25 336.527344 314.734375 336.253906 C 315.222656 335.976562 315.675781 335.660156 316.097656 335.296875 C 316.523438 334.933594 316.90625 334.53125 317.253906 334.09375 C 317.601562 333.65625 317.898438 333.1875 318.15625 332.691406 C 318.410156 332.195312 318.617188 331.679688 318.769531 331.144531 C 318.925781 330.605469 319.027344 330.058594 319.074219 329.503906 C 319.125 328.949219 319.117188 328.390625 319.058594 327.835938 C 319 327.28125 318.890625 326.738281 318.722656 326.203125 C 318.558594 325.671875 318.34375 325.160156 318.078125 324.667969 C 317.816406 324.175781 317.507812 323.714844 317.152344 323.28125 C 316.796875 322.851562 316.40625 322.457031 315.976562 322.101562 C 315.546875 321.746094 315.085938 321.4375 314.59375 321.171875 C 233.902344 279.617188 190.925781 228.449219 182.355469 217.566406 L 182.355469 124.660156 Z M 295.492188 501.40625 C 237.679688 469.957031 110.855469 414.300781 153.332031 351.476562 C 154.945312 349.800781 156.75 348.355469 158.746094 347.152344 C 160.738281 345.949219 162.855469 345.019531 165.09375 344.371094 C 167.640625 382.839844 180.898438 402.699219 221.519531 427.613281 C 221.992188 427.929688 222.492188 428.199219 223.019531 428.417969 C 223.546875 428.636719 224.089844 428.800781 224.648438 428.914062 C 225.210938 429.023438 225.773438 429.078125 226.34375 429.078125 C 226.917969 429.078125 227.480469 429.019531 228.039062 428.90625 C 228.601562 428.792969 229.144531 428.625 229.667969 428.402344 C 230.195312 428.179688 230.695312 427.910156 231.164062 427.589844 C 231.636719 427.269531 232.074219 426.902344 232.472656 426.496094 C 232.875 426.089844 233.230469 425.644531 233.539062 425.167969 C 233.851562 424.6875 234.113281 424.183594 234.324219 423.65625 C 234.539062 423.125 234.695312 422.578125 234.796875 422.015625 C 234.902344 421.453125 234.949219 420.886719 234.9375 420.316406 C 234.929688 419.746094 234.863281 419.183594 234.742188 418.625 C 234.621094 418.066406 234.445312 417.527344 234.214844 417.003906 C 233.988281 416.480469 233.707031 415.984375 233.382812 415.515625 C 233.054688 415.050781 232.683594 414.617188 232.269531 414.222656 C 231.859375 413.828125 231.410156 413.480469 230.925781 413.175781 C 221.636719 407.265625 212.695312 400.871094 204.097656 393.988281 C 175.171875 368.132812 183.710938 329.863281 182.359375 313.40625 C 189.304688 320.945312 196.613281 328.113281 204.28125 334.914062 C 211.953125 341.714844 219.941406 348.117188 228.253906 354.113281 C 236.570312 360.109375 245.164062 365.671875 254.035156 370.800781 C 262.910156 375.929688 272.019531 380.601562 281.363281 384.8125 C 351.710938 416.890625 371.445312 456.9375 374.320312 463.59375 C 374.734375 474.796875 375.011719 485.804688 375.128906 496.460938 C 357.878906 486.972656 340.488281 477.375 323.769531 468.011719 C 313.859375 462.65625 305.527344 477.320312 315.355469 483.050781 C 338.335938 495.921875 362.523438 509.203125 385.914062 522.054688 C 417.347656 539.328125 447.882812 560.546875 482.019531 588.832031 C 484.386719 590.804688 486.914062 592.546875 489.601562 594.0625 C 492.285156 595.574219 495.085938 596.832031 498 597.835938 C 500.917969 598.839844 503.898438 599.574219 506.945312 600.035156 C 509.992188 600.496094 513.058594 600.679688 516.136719 600.582031 C 551.308594 599.515625 577.796875 604.613281 595.203125 615.871094 C 574.734375 621.039062 535.183594 628.300781 494.074219 622.855469 C 480.339844 621.832031 442.632812 614.976562 433.320312 595.679688 C 430.480469 589.59375 426.863281 584.007812 422.476562 578.921875 C 418.089844 573.835938 413.09375 569.445312 407.492188 565.742188 C 371.265625 542.371094 333.933594 520.929688 295.492188 501.414062 Z M 615.230469 609.75 C 595.050781 590.789062 561.613281 581.953125 515.597656 583.363281 C 504.902344 583.925781 495.339844 578.292969 487.675781 571.191406 C 499.984375 569.09375 512.378906 568.082031 524.863281 568.164062 C 567.550781 568.164062 602.734375 575.492188 629.4375 589.949219 C 630.078125 590.285156 630.660156 590.703125 631.183594 591.203125 C 631.707031 591.703125 632.148438 592.265625 632.515625 592.890625 C 632.878906 593.511719 633.152344 594.175781 633.332031 594.875 C 633.511719 595.578125 633.589844 596.289062 633.570312 597.011719 C 633.5625 597.699219 633.464844 598.371094 633.269531 599.03125 C 633.074219 599.6875 632.792969 600.308594 632.421875 600.886719 C 632.050781 601.464844 631.609375 601.980469 631.089844 602.433594 C 630.574219 602.886719 630.007812 603.257812 629.382812 603.550781 C 624.574219 605.902344 619.832031 607.976562 615.230469 609.746094 Z M 381.855469 586.234375 C 385.152344 582.835938 388.675781 579.605469 392.285156 576.488281 C 395.058594 577.960938 397.695312 579.644531 400.199219 581.535156 C 402.699219 583.429688 405.035156 585.511719 407.207031 587.78125 C 409.375 590.046875 411.351562 592.476562 413.132812 595.058594 C 414.910156 597.644531 416.476562 600.355469 417.824219 603.191406 C 433.019531 634.621094 487.753906 639.648438 492.570312 640.03125 C 503.3125 641.398438 514.097656 642.070312 524.925781 642.054688 C 540.355469 642.027344 555.691406 640.824219 570.933594 638.449219 C 586.175781 636.070312 601.152344 632.546875 615.855469 627.875 C 630.335938 622.414062 650.777344 616.75 650.804688 597.371094 C 650.832031 596.222656 650.777344 595.078125 650.644531 593.9375 C 650.515625 592.796875 650.304688 591.671875 650.019531 590.5625 C 649.730469 589.449219 649.371094 588.363281 648.933594 587.300781 C 648.5 586.242188 647.992188 585.214844 647.414062 584.222656 C 646.835938 583.230469 646.195312 582.285156 645.484375 581.378906 C 644.777344 580.476562 644.011719 579.628906 643.183594 578.828125 C 642.359375 578.03125 641.484375 577.296875 640.558594 576.617188 C 639.632812 575.941406 638.664062 575.332031 637.652344 574.789062 C 598.550781 552.203125 520.726562 543.765625 470.347656 557.410156 C 463.921875 552.445312 457.578125 547.710938 451.3125 543.203125 C 463.035156 539.191406 475.011719 536.199219 487.242188 534.226562 C 499.46875 532.257812 511.78125 531.335938 524.167969 531.460938 C 524.453125 531.476562 524.738281 531.476562 525.027344 531.460938 C 525.898438 531.421875 613.761719 527.9375 669.539062 577.964844 C 674.609375 582.515625 679.566406 593.292969 679.214844 605.089844 C 678.914062 642.9375 606.359375 664.039062 524.625 664.125 C 447.863281 664.125 405.175781 640.445312 382.871094 620.578125 C 373.011719 612.226562 372.695312 595.265625 381.855469 586.234375 Z M 661.148438 713.410156 C 638.148438 763.71875 583.636719 792.304688 528.21875 788.332031 C 517.207031 788.402344 506.289062 787.449219 495.457031 785.476562 C 484.625 783.503906 474.070312 780.542969 463.792969 776.59375 C 401.445312 752.695312 380.636719 696.132812 375.804688 637.207031 C 431.921875 692.585938 615.042969 697.402344 678.945312 642.414062 C 678.148438 654.6875 676.253906 666.789062 673.261719 678.71875 C 670.273438 690.648438 666.234375 702.214844 661.148438 713.410156 Z M 661.148438 713.410156 " fill-opacity="1" fill-rule="nonzero"/><path fill="#000000" d="M 392.417969 151.175781 L 392.417969 9 C 392.417969 8.433594 392.363281 7.875 392.253906 7.320312 C 392.144531 6.765625 391.980469 6.226562 391.765625 5.703125 C 391.546875 5.179688 391.28125 4.683594 390.96875 4.210938 C 390.652344 3.742188 390.296875 3.308594 389.894531 2.90625 C 389.496094 2.507812 389.0625 2.148438 388.589844 1.835938 C 388.121094 1.519531 387.625 1.253906 387.101562 1.039062 C 386.578125 0.820312 386.039062 0.660156 385.484375 0.546875 C 384.929688 0.4375 384.371094 0.382812 383.804688 0.382812 C 383.238281 0.382812 382.679688 0.4375 382.125 0.546875 C 381.570312 0.660156 381.03125 0.820312 380.507812 1.039062 C 379.984375 1.253906 379.488281 1.519531 379.019531 1.835938 C 378.550781 2.148438 378.113281 2.507812 377.714844 2.90625 C 377.3125 3.308594 376.957031 3.742188 376.640625 4.210938 C 376.328125 4.683594 376.0625 5.179688 375.847656 5.703125 C 375.628906 6.226562 375.464844 6.765625 375.355469 7.320312 C 375.246094 7.875 375.191406 8.433594 375.191406 9 L 375.191406 151.175781 C 375.191406 151.742188 375.246094 152.300781 375.355469 152.855469 C 375.464844 153.410156 375.628906 153.949219 375.847656 154.472656 C 376.0625 154.996094 376.328125 155.492188 376.640625 155.964844 C 376.957031 156.433594 377.3125 156.867188 377.714844 157.269531 C 378.113281 157.667969 378.550781 158.027344 379.019531 158.339844 C 379.488281 158.65625 379.984375 158.921875 380.507812 159.136719 C 381.03125 159.355469 381.570312 159.515625 382.125 159.628906 C 382.679688 159.738281 383.238281 159.792969 383.804688 159.792969 C 384.371094 159.792969 384.929688 159.738281 385.484375 159.628906 C 386.039062 159.515625 386.578125 159.355469 387.101562 159.136719 C 387.625 158.921875 388.121094 158.65625 388.589844 158.339844 C 389.0625 158.027344 389.496094 157.667969 389.894531 157.269531 C 390.296875 156.867188 390.652344 156.433594 390.96875 155.964844 C 391.28125 155.492188 391.546875 154.996094 391.765625 154.472656 C 391.980469 153.949219 392.144531 153.410156 392.253906 152.855469 C 392.363281 152.300781 392.417969 151.742188 392.417969 151.175781 Z M 392.417969 151.175781 " fill-opacity="1" fill-rule="nonzero"/><path fill="#000000" d="M 313.941406 796.957031 L 313.941406 619.972656 C 313.941406 619.40625 313.886719 618.84375 313.777344 618.289062 C 313.664062 617.734375 313.503906 617.195312 313.285156 616.671875 C 313.070312 616.152344 312.804688 615.652344 312.488281 615.183594 C 312.175781 614.710938 311.820312 614.277344 311.417969 613.878906 C 311.019531 613.476562 310.582031 613.121094 310.113281 612.804688 C 309.644531 612.492188 309.144531 612.226562 308.625 612.007812 C 308.101562 611.792969 307.5625 611.628906 307.007812 611.519531 C 306.453125 611.410156 305.894531 611.351562 305.328125 611.351562 C 304.761719 611.351562 304.203125 611.410156 303.648438 611.519531 C 303.089844 611.628906 302.554688 611.792969 302.03125 612.007812 C 301.507812 612.226562 301.011719 612.492188 300.542969 612.804688 C 300.070312 613.121094 299.636719 613.476562 299.234375 613.878906 C 298.835938 614.277344 298.480469 614.710938 298.164062 615.183594 C 297.851562 615.652344 297.585938 616.152344 297.367188 616.671875 C 297.152344 617.195312 296.988281 617.734375 296.878906 618.289062 C 296.769531 618.84375 296.710938 619.40625 296.710938 619.972656 L 296.710938 796.957031 C 296.710938 797.523438 296.769531 798.082031 296.878906 798.636719 C 296.988281 799.191406 297.152344 799.730469 297.367188 800.253906 C 297.585938 800.777344 297.851562 801.273438 298.164062 801.742188 C 298.480469 802.214844 298.835938 802.648438 299.234375 803.050781 C 299.636719 803.449219 300.070312 803.808594 300.542969 804.121094 C 301.011719 804.4375 301.507812 804.703125 302.03125 804.917969 C 302.554688 805.136719 303.09375 805.296875 303.648438 805.410156 C 304.203125 805.519531 304.761719 805.574219 305.328125 805.574219 C 305.894531 805.574219 306.453125 805.519531 307.007812 805.410156 C 307.5625 805.296875 308.101562 805.136719 308.625 804.917969 C 309.144531 804.703125 309.644531 804.4375 310.113281 804.121094 C 310.582031 803.808594 311.019531 803.449219 311.417969 803.050781 C 311.820312 802.648438 312.175781 802.214844 312.488281 801.742188 C 312.804688 801.273438 313.070312 800.777344 313.285156 800.253906 C 313.503906 799.730469 313.664062 799.191406 313.777344 798.636719 C 313.886719 798.082031 313.941406 797.523438 313.941406 796.957031 Z M 313.941406 796.957031 " fill-opacity="1" fill-rule="nonzero"/><path fill="#000000" d="M 395.59375 204.96875 C 403.15625 196.269531 390.425781 184.796875 382.566406 193.230469 C 375 201.929688 387.742188 213.402344 395.59375 204.96875 Z M 395.59375 204.96875 " fill-opacity="1" fill-rule="nonzero"/><path fill="#000000" d="M 225.515625 711.558594 C 233.078125 702.859375 220.347656 691.390625 212.484375 699.824219 C 204.921875 708.523438 217.664062 719.996094 225.515625 711.558594 Z M 225.515625 711.558594 " fill-opacity="1" fill-rule="nonzero"/><path fill="#000000" d="M 264.207031 440.582031 C 256.644531 449.28125 269.375 460.75 277.238281 452.3125 C 284.808594 443.613281 272.066406 432.140625 264.207031 440.582031 Z M 264.207031 440.582031 " fill-opacity="1" fill-rule="nonzero"/><g clip-path="url(#8bb8c3d34a)"><g clip-path="url(#56f22a9933)"><g transform="matrix(1, 0, 0, 1, 675, 611)"><g clip-path="url(#a65e1da548)"><g clip-path="url(#2be00e17a0)"><g clip-path="url(#d19a3d8022)"><path fill="#000000" d="M 0.632812 0.886719 L 24.132812 0.886719 L 24.132812 24.386719 L 0.632812 24.386719 Z M 0.632812 0.886719 " fill-opacity="1" fill-rule="nonzero"/></g></g></g></g></g></g></svg>
