<svg xmlns="http://www.w3.org/2000/svg" xmlns:xlink="http://www.w3.org/1999/xlink" width="2000" zoomAndPan="magnify" viewBox="0 0 1500 1499.999933" height="2000" preserveAspectRatio="xMidYMid meet" version="1.0"><path fill="#000000" d="M 750 0 C 335.625 0 0 335.625 0 750 C 0 1164.375 335.625 1500 750 1500 C 1164.375 1500 1500 1164.375 1500 750 C 1500 335.625 1164.375 0 750 0 Z M 750 1350 C 418.5 1350 150 1081.5 150 750 C 150 611.25 197.625 484.125 276.375 382.5 L 1117.5 1223.625 C 1015.875 1302.375 888.75 1350 750 1350 Z M 1223.625 1117.5 L 382.5 276.375 C 484.125 197.625 611.25 150 750 150 C 1081.5 150 1350 418.5 1350 750 C 1350 888.75 1302.375 1015.875 1223.625 1117.5 Z M 1223.625 1117.5 " fill-opacity="1" fill-rule="nonzero"/></svg>
