<svg xmlns="http://www.w3.org/2000/svg" xmlns:xlink="http://www.w3.org/1999/xlink" width="1080" zoomAndPan="magnify" viewBox="0 0 810 809.999993" height="1080" preserveAspectRatio="xMidYMid meet" version="1.0"><defs><clipPath id="1649d10b97"><path d="M 405 560.035156 L 428.5 560.035156 L 428.5 583.535156 L 405 583.535156 Z M 405 560.035156 " clip-rule="nonzero"/></clipPath><clipPath id="ea183d79d6"><path d="M 416.75 560.035156 C 410.261719 560.035156 405 565.296875 405 571.785156 C 405 578.273438 410.261719 583.535156 416.75 583.535156 C 423.238281 583.535156 428.5 578.273438 428.5 571.785156 C 428.5 565.296875 423.238281 560.035156 416.75 560.035156 Z M 416.75 560.035156 " clip-rule="nonzero"/></clipPath><clipPath id="6511cbf39d"><path d="M 0 0.0351562 L 23.5 0.0351562 L 23.5 23.535156 L 0 23.535156 Z M 0 0.0351562 " clip-rule="nonzero"/></clipPath><clipPath id="c802030b18"><path d="M 11.75 0.0351562 C 5.261719 0.0351562 0 5.296875 0 11.785156 C 0 18.273438 5.261719 23.535156 11.75 23.535156 C 18.238281 23.535156 23.5 18.273438 23.5 11.785156 C 23.5 5.296875 18.238281 0.0351562 11.75 0.0351562 Z M 11.75 0.0351562 " clip-rule="nonzero"/></clipPath><clipPath id="fde6b9d7ad"><rect x="0" width="24" y="0" height="24"/></clipPath></defs><path fill="#000000" d="M 330.65625 303.445312 C 306.15625 293.730469 279.84375 283.023438 255.449219 267.507812 C 244.273438 278.464844 232.601562 286.386719 220.351562 291.355469 C 247.199219 308.261719 275.421875 316.96875 301.035156 323.890625 C 311.683594 320.667969 321.523438 313.894531 330.65625 303.445312 Z M 330.65625 303.445312 " fill-opacity="1" fill-rule="nonzero"/><path fill="#000000" d="M 315.421875 161.496094 C 338.359375 138.890625 354.972656 116.738281 365.472656 94.695312 C 359.621094 91.207031 353.101562 87.84375 345.757812 84.644531 C 331.425781 78.402344 317.179688 75.011719 303.632812 73.511719 C 296.585938 89.898438 285.859375 107.53125 271.40625 126.546875 C 285.175781 137.855469 299.898438 149.589844 315.421875 161.496094 Z M 315.421875 161.496094 " fill-opacity="1" fill-rule="nonzero"/><path fill="#000000" d="M 431.917969 144.996094 C 437.503906 131.714844 440.914062 118.585938 442.21875 105.507812 C 430.832031 81.804688 413.667969 63.660156 391.867188 49.996094 C 390.632812 63.289062 387.453125 76.488281 382.273438 89.65625 C 401.113281 103.480469 417.257812 122.734375 431.917969 144.996094 Z M 431.917969 144.996094 " fill-opacity="1" fill-rule="nonzero"/><path fill="#000000" d="M 294.925781 59.226562 C 300.105469 44.367188 301.625 30.894531 299.554688 18.660156 C 281.65625 17.949219 264.164062 19.855469 248.144531 23.027344 C 245.363281 35.375 241.425781 46.722656 236.398438 56.804688 C 234.554688 60.5 232.527344 64.054688 230.355469 67.492188 C 246.25 62.601562 268.992188 57.855469 294.925781 59.226562 Z M 294.925781 59.226562 " fill-opacity="1" fill-rule="nonzero"/><path fill="#000000" d="M 351.097656 72.375 C 358.332031 75.523438 364.835938 78.84375 370.746094 82.28125 C 375.742188 68.871094 378.488281 55.476562 379 42.023438 C 370.378906 37.183594 360.539062 32.574219 349.140625 28.296875 C 337.320312 23.859375 325.246094 21.140625 313.230469 19.726562 C 314.792969 32.355469 313.238281 45.914062 308.535156 60.507812 C 322.21875 62.359375 336.566406 66.046875 351.097656 72.375 Z M 351.097656 72.375 " fill-opacity="1" fill-rule="nonzero"/><path fill="#000000" d="M 469.316406 389.53125 C 482.507812 403.210938 496.789062 416.722656 512.902344 428.351562 C 523.402344 411.585938 533.625 390.246094 543.691406 364.152344 C 527.558594 355.578125 511.347656 346.808594 495.308594 337.953125 C 486.851562 358.488281 478.210938 375.652344 469.316406 389.53125 Z M 469.316406 389.53125 " fill-opacity="1" fill-rule="nonzero"/><path fill="#000000" d="M 224.429688 50.828125 C 228.125 43.421875 231.175781 35.210938 233.554688 26.335938 C 209.484375 32.492188 190.054688 40.820312 179.683594 45.742188 C 187.695312 53.339844 197.710938 62.652344 209.445312 73.234375 C 215.292969 66.546875 220.332031 59.042969 224.429688 50.828125 Z M 224.429688 50.828125 " fill-opacity="1" fill-rule="nonzero"/><path fill="#000000" d="M 681.082031 434.257812 C 662.152344 424.953125 641.425781 414.628906 619.660156 403.582031 C 613.210938 425.273438 605.792969 444.078125 597.328125 460.109375 C 635.488281 460.886719 666.695312 443.808594 681.082031 434.257812 Z M 681.082031 434.257812 " fill-opacity="1" fill-rule="nonzero"/><path fill="#000000" d="M 490.136719 192.1875 C 495.808594 179.972656 499.226562 167.375 500.449219 154.308594 C 481.242188 148.691406 465.144531 138.273438 453.320312 121.253906 C 450.839844 133.253906 446.761719 145.273438 441.03125 157.367188 C 455.765625 172.125 472.078125 183.839844 490.136719 192.1875 Z M 490.136719 192.1875 " fill-opacity="1" fill-rule="nonzero"/><path fill="#000000" d="M 524.042969 435.882812 C 534.210938 442.292969 545.089844 447.890625 556.855469 452.308594 C 565.679688 455.621094 574.339844 457.75 582.746094 458.941406 C 592.246094 442.148438 600.476562 421.710938 607.542969 397.414062 C 590.632812 388.773438 573.203125 379.746094 555.59375 370.457031 C 545.296875 396.972656 534.867188 418.644531 524.042969 435.882812 Z M 524.042969 435.882812 " fill-opacity="1" fill-rule="nonzero"/><path fill="#000000" d="M 134.046875 72.109375 C 131.171875 67.9375 129.609375 63.011719 129.578125 57.820312 C 129.546875 52.945312 130.894531 48.300781 133.390625 44.265625 C 124.507812 32.484375 118.246094 17.664062 114.71875 0 C 106.59375 8.675781 97.113281 21.539062 96.703125 33.265625 C 96.222656 46.925781 111.953125 78.945312 123.828125 100.644531 C 127.183594 87.214844 131.464844 77.355469 134.046875 72.109375 Z M 134.046875 72.109375 " fill-opacity="1" fill-rule="nonzero"/><path fill="#000000" d="M 222.167969 84.589844 C 233.867188 94.929688 246.898438 106.175781 261.085938 118.011719 C 273.476562 101.671875 282.921875 86.566406 289.445312 72.597656 C 259.792969 72.015625 234.929688 79.671875 222.167969 84.589844 Z M 222.167969 84.589844 " fill-opacity="1" fill-rule="nonzero"/><path fill="#000000" d="M 550.28125 229.472656 L 496.378906 209.230469 C 486.835938 225.695312 473.441406 241.453125 456.101562 256.6875 C 473.535156 267.015625 491.769531 277.445312 510.367188 287.800781 C 527.894531 267.425781 541.164062 248.050781 550.28125 229.472656 Z M 550.28125 229.472656 " fill-opacity="1" fill-rule="nonzero"/><path fill="#000000" d="M 376.753906 102.148438 C 365.765625 124.585938 348.953125 146.988281 326.171875 169.664062 C 345.179688 183.984375 365.265625 198.433594 386.160156 212.558594 C 403.035156 194.195312 416.0625 176.355469 425.34375 158.828125 C 411.210938 135.957031 395.582031 115.96875 376.753906 102.148438 Z M 376.753906 102.148438 " fill-opacity="1" fill-rule="nonzero"/><path fill="#000000" d="M 718.5 384.082031 C 735.324219 362.625 745.761719 339.261719 750.242188 313.097656 C 740.375 291.105469 726 268.324219 705.488281 246.269531 C 704.628906 245.351562 703.761719 244.46875 702.898438 243.574219 C 701.867188 262.730469 696.449219 281.835938 686.441406 301.390625 C 708.09375 332.207031 715.773438 365.011719 718.5 384.082031 Z M 718.5 384.082031 " fill-opacity="1" fill-rule="nonzero"/><path fill="#000000" d="M 613.367188 256.945312 C 597.507812 248.523438 580.1875 241.109375 562.800781 234.289062 C 553.464844 253.601562 539.992188 273.574219 522.304688 294.410156 C 538.078125 303.101562 554.042969 311.710938 569.945312 320.148438 C 588.742188 297.664062 603.125 276.78125 613.367188 256.945312 Z M 613.367188 256.945312 " fill-opacity="1" fill-rule="nonzero"/><path fill="#000000" d="M 444.011719 249.460938 C 461.25 234.8125 474.480469 219.742188 483.839844 204.066406 C 464.765625 194.351562 448.050781 183.203125 434.335938 170.230469 C 425.050781 186.609375 412.765625 203.179688 397.402344 220.078125 C 405.828125 225.648438 414.359375 231.160156 423.007812 236.570312 C 429.828125 240.832031 436.84375 245.132812 444.011719 249.460938 Z M 444.011719 249.460938 " fill-opacity="1" fill-rule="nonzero"/><path fill="#000000" d="M 565.378906 171.230469 L 513.5 158.179688 C 511.972656 171.683594 508.335938 184.6875 502.566406 197.277344 L 555.726562 217.226562 C 562.050781 201.371094 565.246094 186.085938 565.378906 171.230469 Z M 565.378906 171.230469 " fill-opacity="1" fill-rule="nonzero"/><path fill="#000000" d="M 632.511719 194.359375 C 614.546875 186.0625 596.320312 179.910156 578.671875 174.871094 C 578.09375 190.230469 574.632812 205.910156 568.210938 222.035156 C 585.636719 228.882812 603.039062 236.34375 619.152344 244.863281 C 626.835938 227.410156 631.21875 210.710938 632.511719 194.359375 Z M 632.511719 194.359375 " fill-opacity="1" fill-rule="nonzero"/><path fill="#000000" d="M 677.3125 289.566406 C 686.566406 269.601562 690.542969 250.242188 689.542969 230.847656 C 675.507812 218.582031 660.597656 208.738281 645.328125 200.679688 C 643.421875 217.203125 638.660156 233.992188 630.871094 251.398438 C 647.4375 260.3125 662.710938 273.769531 677.3125 289.566406 Z M 677.3125 289.566406 " fill-opacity="1" fill-rule="nonzero"/><path fill="#000000" d="M 679.046875 314.554688 C 670.222656 329.015625 658.902344 343.777344 645.007812 359.035156 C 666.460938 369.90625 686.910156 380.085938 705.613281 389.273438 C 703.574219 373.441406 697.425781 343.378906 679.046875 314.554688 Z M 679.046875 314.554688 " fill-opacity="1" fill-rule="nonzero"/><path fill="#000000" d="M 670.589844 302.570312 C 657.054688 286.753906 642.058594 273.40625 625.027344 263.492188 C 614.671875 283.449219 600.421875 304.296875 582.03125 326.53125 C 599.164062 335.546875 616.140625 344.324219 632.632812 352.742188 C 648.78125 335.335938 661.382812 318.714844 670.589844 302.570312 Z M 670.589844 302.570312 " fill-opacity="1" fill-rule="nonzero"/><path fill="#000000" d="M 758.796875 335.128906 C 751.988281 357.957031 740.386719 379.121094 724.121094 398.332031 C 741.128906 406.617188 756.203125 413.859375 768.664062 419.792969 C 770.988281 398.757812 769.785156 368.5625 758.796875 335.128906 Z M 758.796875 335.128906 " fill-opacity="1" fill-rule="nonzero"/><path fill="#000000" d="M 206.402344 200.007812 C 215.542969 189.882812 224.351562 176.910156 232.886719 161.027344 C 215.941406 146.984375 200.511719 133.6875 186.890625 121.621094 C 186.453125 138.363281 188.660156 169.226562 206.402344 200.007812 Z M 206.402344 200.007812 " fill-opacity="1" fill-rule="nonzero"/><path fill="#000000" d="M 159.199219 139.875 C 150.882812 145.484375 141.957031 149.171875 132.597656 150.953125 C 134.304688 176.972656 142.734375 202.476562 157.78125 227.15625 C 171.394531 226.09375 184.257812 220.335938 196.515625 209.746094 C 177.617188 178.886719 173.554688 147.84375 173.339844 127.957031 C 168.800781 132.59375 164.078125 136.582031 159.199219 139.875 Z M 159.199219 139.875 " fill-opacity="1" fill-rule="nonzero"/><path fill="#000000" d="M 552.15625 464.835938 C 539.304688 460.011719 527.511719 453.929688 516.558594 447 C 507.445312 459.589844 498.019531 469.207031 488.128906 476.074219 C 501.085938 483.972656 515.863281 490.996094 532.953125 496.671875 C 537.761719 498.269531 542.558594 499.640625 547.328125 500.839844 C 557.507812 493.355469 566.742188 483.527344 575.105469 471.265625 C 567.621094 469.84375 559.960938 467.765625 552.15625 464.835938 Z M 552.15625 464.835938 " fill-opacity="1" fill-rule="nonzero"/><path fill="#000000" d="M 133.304688 123.058594 C 132.746094 127.839844 132.414062 132.609375 132.300781 137.367188 C 139.082031 135.785156 145.589844 132.914062 151.71875 128.78125 C 158.957031 123.898438 165.878906 117.113281 172.355469 108.613281 C 161.246094 98.558594 151.738281 89.703125 144.042969 82.402344 C 140.503906 90.570312 135.4375 104.789062 133.304688 123.058594 Z M 133.304688 123.058594 " fill-opacity="1" fill-rule="nonzero"/><path fill="#000000" d="M 600.363281 473.671875 C 596.890625 473.671875 593.351562 473.519531 589.769531 473.242188 C 582.027344 485.566406 573.507812 495.90625 564.171875 504.332031 C 594.742188 509.335938 623.792969 507.085938 648.640625 502.035156 C 663.667969 488.132812 674.757812 470.820312 682.238281 449.480469 C 665.175781 459.875 635.855469 473.671875 600.363281 473.671875 Z M 600.363281 473.671875 " fill-opacity="1" fill-rule="nonzero"/><path fill="#000000" d="M 672.191406 496.15625 C 676.128906 494.988281 679.902344 493.785156 683.488281 492.5625 C 709.066406 483.835938 729.042969 473.164062 742.515625 464.011719 C 730.074219 458.082031 715.136719 450.902344 698.378906 442.730469 C 692.535156 463.535156 683.882812 481.214844 672.191406 496.15625 Z M 672.191406 496.15625 " fill-opacity="1" fill-rule="nonzero"/><path fill="#000000" d="M 163.574219 48.859375 C 158.792969 44.261719 151.335938 44.3125 146.597656 48.972656 C 144.230469 51.304688 142.933594 54.417969 142.953125 57.738281 C 142.976562 61.050781 144.300781 64.140625 146.6875 66.4375 C 184.199219 102.480469 284.257812 194.332031 403 268.589844 C 518.21875 340.644531 684.324219 421.554688 754.480469 454.890625 C 758.179688 451.644531 760.644531 448.898438 761.78125 446.933594 C 763.382812 444.164062 765.03125 439.585938 766.40625 433.53125 C 695.320312 399.734375 529.269531 318.800781 415.921875 247.914062 C 298.957031 174.769531 200.484375 84.34375 163.574219 48.859375 Z M 163.574219 48.859375 " fill-opacity="1" fill-rule="nonzero"/><path fill="#000000" d="M 216.238281 235.507812 C 211.726562 230.71875 207.6875 225.84375 204.054688 220.929688 C 192.058594 231.027344 179.394531 237.207031 165.96875 239.589844 C 178.464844 257.195312 192.238281 270.945312 206.644531 281.875 C 219.722656 278.390625 232.179688 271.082031 244.144531 259.847656 C 234.324219 252.753906 224.929688 244.734375 216.238281 235.507812 Z M 216.238281 235.507812 " fill-opacity="1" fill-rule="nonzero"/><path fill="#000000" d="M 475.929688 468.003906 C 486.050781 462.078125 495.855469 452.613281 505.410156 439.480469 C 489.148438 427.789062 474.785156 414.363281 461.542969 400.742188 C 452.324219 412.964844 442.824219 421.808594 432.96875 427.371094 C 444.65625 441.496094 458.46875 455.539062 475.929688 468.003906 Z M 475.929688 468.003906 " fill-opacity="1" fill-rule="nonzero"/><path fill="#000000" d="M 424.527344 416.726562 C 433.851562 411.984375 443.078125 403.347656 452.171875 390.898438 L 402.339844 339.585938 C 395.519531 347.960938 388.226562 354.0625 380.351562 358.015625 C 389.554688 367.484375 397.992188 379.523438 407.226562 392.730469 C 412.609375 400.425781 418.277344 408.527344 424.527344 416.726562 Z M 424.527344 416.726562 " fill-opacity="1" fill-rule="nonzero"/><path fill="#000000" d="M 391.570312 331.511719 C 378.523438 322.988281 361.757812 315.851562 343.707031 308.632812 C 336.664062 317.386719 329.160156 324.246094 321.164062 329.253906 C 340.890625 333.878906 357.355469 339.980469 369.125 348.210938 C 377.070312 345.535156 384.527344 340 391.570312 331.511719 Z M 391.570312 331.511719 " fill-opacity="1" fill-rule="nonzero"/><path fill="#000000" d="M 410.152344 328.6875 L 459.820312 379.488281 C 467.855469 366.472656 475.773438 350.433594 483.539062 331.414062 C 463.691406 320.332031 444.21875 309.152344 425.625 298.0625 C 420.714844 309.972656 415.578125 320.148438 410.152344 328.6875 Z M 410.152344 328.6875 " fill-opacity="1" fill-rule="nonzero"/><path fill="#000000" d="M 264.769531 257.535156 C 288.824219 272.476562 314.984375 282.851562 339.113281 292.40625 C 345.921875 282.394531 352.316406 270.105469 358.347656 255.480469 C 336.566406 240.773438 315.636719 225.722656 295.84375 210.8125 C 285.894531 229.433594 275.5625 244.988281 264.769531 257.535156 Z M 264.769531 257.535156 " fill-opacity="1" fill-rule="nonzero"/><path fill="#000000" d="M 213.863281 211.625 C 217.425781 216.597656 221.441406 221.523438 225.972656 226.332031 C 234.46875 235.351562 243.765625 243.175781 253.546875 250.09375 C 264.417969 237.722656 274.890625 221.933594 285.058594 202.621094 C 270.453125 191.429688 256.519531 180.378906 243.402344 169.675781 C 234.011719 186.785156 224.1875 200.75 213.863281 211.625 Z M 213.863281 211.625 " fill-opacity="1" fill-rule="nonzero"/><path fill="#000000" d="M 351.785156 297.453125 C 369.441406 304.570312 385.855469 311.730469 399.199219 320.507812 C 399.257812 320.546875 399.3125 320.589844 399.367188 320.625 C 404.464844 312.5 409.339844 302.664062 414.019531 291.082031 L 369.679688 263.046875 C 364.089844 276.261719 358.136719 287.722656 351.785156 297.453125 Z M 351.785156 297.453125 " fill-opacity="1" fill-rule="nonzero"/><path fill="#000000" d="M 191.101562 356.4375 C 171.058594 354.484375 153.097656 361.832031 135.878906 376.179688 C 100.144531 401.527344 55.261719 454.542969 46.371094 520.523438 C 38.785156 576.835938 56.550781 610.808594 72.792969 629.398438 C 74.859375 631.761719 77.039062 634.019531 79.300781 636.148438 C 67.515625 603.964844 62.894531 570.976562 65.5625 537.785156 C 65.859375 534.101562 69.105469 531.359375 72.765625 531.652344 C 76.445312 531.949219 79.191406 535.175781 78.894531 538.859375 C 75.84375 576.785156 82.945312 614.488281 99.953125 650.960938 C 110.863281 656.722656 122.425781 659.960938 133.363281 659.960938 C 153.628906 659.960938 221.195312 652.785156 239.789062 560.457031 C 247.171875 523.800781 245.417969 474.332031 235.210938 431.347656 C 225.074219 388.660156 208.171875 359.960938 191.101562 356.4375 Z M 117.011719 622.96875 C 112.65625 623.496094 110.128906 621.65625 108.847656 618.195312 C 100.519531 586.453125 97.152344 554.777344 98.839844 524.0625 C 99.039062 520.371094 102.183594 517.5625 105.882812 517.75 C 109.570312 517.953125 112.398438 521.109375 112.191406 524.796875 C 110.582031 554.121094 113.808594 584.402344 121.78125 614.800781 C 122.71875 618.371094 120.585938 622.027344 117.011719 622.96875 Z M 131.199219 448.8125 C 128.75 452.125 125.367188 453.121094 122.339844 452.125 C 118.980469 450.589844 117.5 446.621094 119.03125 443.261719 C 129.101562 421.160156 142.726562 398.980469 159.523438 377.34375 C 161.789062 374.425781 165.988281 373.898438 168.90625 376.164062 C 171.824219 378.429688 172.355469 382.632812 170.085938 385.550781 C 153.925781 406.371094 140.839844 427.652344 131.199219 448.8125 Z M 190.78125 578.03125 C 185.527344 595.765625 178.816406 613.164062 170.828125 629.734375 C 168.40625 633.347656 165.316406 633.867188 161.898438 632.855469 C 158.574219 631.25 157.175781 627.25 158.78125 623.921875 C 166.457031 608 172.90625 591.28125 177.957031 574.230469 C 179.003906 570.6875 182.726562 568.664062 186.265625 569.714844 C 189.808594 570.765625 191.828125 574.488281 190.78125 578.03125 Z M 204.289062 507.03125 C 203.476562 511.039062 201.1875 513.21875 197.007812 513.070312 C 193.332031 512.726562 190.628906 509.46875 190.972656 505.789062 C 193.132812 482.597656 193.292969 457.972656 191.445312 432.601562 C 191.175781 428.917969 193.941406 425.710938 197.625 425.441406 C 201.308594 425.136719 204.511719 427.945312 204.78125 431.628906 C 206.6875 457.738281 206.519531 483.109375 204.289062 507.03125 Z M 204.289062 507.03125 " fill-opacity="1" fill-rule="nonzero"/><path fill="#000000" d="M 348.128906 497.964844 C 346.097656 498.433594 344.113281 499.015625 342.15625 499.65625 C 325.242188 548.933594 328.359375 602.28125 351.457031 658.292969 C 352.460938 663.65625 350.394531 666.734375 345.28125 667.535156 C 342.652344 667.535156 340.160156 665.976562 339.097656 663.394531 C 316.585938 608.816406 312.113281 556.441406 325.726562 507.453125 C 287.265625 532.058594 268.613281 593.414062 283.453125 657.792969 C 295.148438 708.53125 325.371094 750.011719 361.398438 766.867188 C 359.972656 764.386719 358.53125 761.824219 357.070312 759.171875 C 339.21875 726.710938 325.46875 692.75 325.332031 692.410156 C 323.949219 688.984375 325.605469 685.085938 329.03125 683.703125 C 332.449219 682.320312 336.351562 683.976562 337.734375 687.40625 C 337.867188 687.738281 351.359375 721.046875 368.839844 752.816406 C 399.664062 808.828125 414.8125 810.070312 418.738281 809.101562 C 426.496094 807.195312 433.089844 787.085938 428.316406 736.375 C 424.886719 699.878906 417.140625 663.859375 417.0625 663.5 C 416.28125 659.890625 418.574219 656.328125 422.183594 655.546875 C 425.792969 654.765625 429.351562 657.054688 430.136719 660.667969 C 430.214844 661.035156 438.113281 697.738281 441.625 735.019531 C 442.363281 742.832031 442.859375 750.078125 443.128906 756.800781 C 449.953125 750.90625 455.945312 743.808594 461.039062 735.726562 C 459.925781 675.804688 451.960938 636.789062 436.011719 613.050781 C 433.949219 609.984375 434.761719 605.828125 437.828125 603.765625 C 440.894531 601.703125 445.046875 602.519531 447.109375 605.585938 C 462 627.734375 470.507812 661.050781 473.410156 709.242188 C 482.683594 681.445312 484.160156 647.648438 476.246094 613.316406 C 458.753906 537.453125 401.296875 485.695312 348.128906 497.964844 Z M 385.496094 646.699219 C 384.648438 647.058594 383.769531 647.226562 382.902344 647.226562 C 380.292969 647.226562 377.8125 645.6875 376.738281 643.128906 C 361.796875 607.632812 355.804688 570.839844 358.40625 530.65625 C 358.648438 526.972656 361.839844 524.183594 365.511719 524.414062 C 369.199219 524.65625 371.992188 527.839844 371.753906 531.523438 C 369.285156 569.589844 374.949219 604.398438 389.0625 637.941406 C 390.496094 641.34375 388.898438 645.265625 385.496094 646.699219 Z M 385.496094 646.699219 " fill-opacity="1" fill-rule="nonzero"/><g clip-path="url(#1649d10b97)"><g clip-path="url(#ea183d79d6)"><g transform="matrix(1, 0, 0, 1, 405, 560)"><g clip-path="url(#fde6b9d7ad)"><g clip-path="url(#6511cbf39d)"><g clip-path="url(#c802030b18)"><path fill="#000000" d="M 0 0.0351562 L 23.5 0.0351562 L 23.5 23.535156 L 0 23.535156 Z M 0 0.0351562 " fill-opacity="1" fill-rule="nonzero"/></g></g></g></g></g></g></svg>
