<svg xmlns="http://www.w3.org/2000/svg" xmlns:xlink="http://www.w3.org/1999/xlink" width="1080" zoomAndPan="magnify" viewBox="0 0 810 809.999993" height="1080" preserveAspectRatio="xMidYMid meet" version="1.0"><defs><clipPath id="86be816424"><path d="M 106.820312 649 L 557 649 L 557 810 L 106.820312 810 Z M 106.820312 649 " clip-rule="nonzero"/></clipPath><clipPath id="cdcabcac05"><path d="M 424.859375 536.535156 L 438.855469 536.535156 L 438.855469 550.53125 L 424.859375 550.53125 Z M 424.859375 536.535156 " clip-rule="nonzero"/></clipPath><clipPath id="290da1fa3e"><path d="M 431.859375 536.535156 C 427.992188 536.535156 424.859375 539.667969 424.859375 543.535156 C 424.859375 547.398438 427.992188 550.53125 431.859375 550.53125 C 435.722656 550.53125 438.855469 547.398438 438.855469 543.535156 C 438.855469 539.667969 435.722656 536.535156 431.859375 536.535156 Z M 431.859375 536.535156 " clip-rule="nonzero"/></clipPath><clipPath id="4106552143"><path d="M 0.859375 0.535156 L 14.855469 0.535156 L 14.855469 14.53125 L 0.859375 14.53125 Z M 0.859375 0.535156 " clip-rule="nonzero"/></clipPath><clipPath id="ecc6818617"><path d="M 7.859375 0.535156 C 3.992188 0.535156 0.859375 3.667969 0.859375 7.535156 C 0.859375 11.398438 3.992188 14.53125 7.859375 14.53125 C 11.722656 14.53125 14.855469 11.398438 14.855469 7.535156 C 14.855469 3.667969 11.722656 0.535156 7.859375 0.535156 Z M 7.859375 0.535156 " clip-rule="nonzero"/></clipPath><clipPath id="9fa6b6454b"><rect x="0" width="15" y="0" height="15"/></clipPath></defs><path fill="#000000" d="M 272.890625 596.59375 C 234.011719 596.59375 221.683594 568.136719 210.304688 540.15625 C 201.292969 517.867188 191.335938 494.632812 167.628906 480.878906 C 163.835938 478.507812 161.9375 474.714844 162.886719 470.445312 C 163.835938 466.175781 167.15625 463.332031 171.421875 462.855469 C 171.898438 462.855469 178.0625 462.382812 188.019531 462.382812 C 221.683594 462.382812 282.847656 468.074219 309.402344 505.539062 C 324.101562 525.929688 325.996094 552.488281 315.089844 584.261719 C 314.144531 587.109375 311.773438 589.480469 308.925781 590.425781 C 295.175781 594.695312 283.324219 596.59375 272.890625 596.59375 Z M 198.921875 481.828125 C 213.148438 497.476562 220.734375 515.972656 227.847656 533.042969 C 240.175781 562.449219 247.761719 577.621094 272.890625 577.621094 C 280.476562 577.621094 289.011719 576.199219 298.496094 573.828125 C 305.609375 550.117188 304.1875 530.671875 293.753906 516.445312 C 274.3125 488.941406 226.898438 482.773438 198.921875 481.828125 Z M 198.921875 481.828125 " fill-opacity="1" fill-rule="evenodd"/><path fill="#000000" d="M 341.644531 695.707031 C 336.429688 695.707031 332.160156 691.441406 332.160156 686.222656 C 332.160156 680.53125 332.160156 674.84375 332.160156 669.152344 C 331.210938 574.777344 330.265625 506.488281 424.148438 429.660156 C 428.414062 426.339844 434.578125 426.816406 437.898438 431.082031 C 441.214844 434.878906 440.269531 441.042969 436.476562 444.363281 C 349.230469 515.496094 350.179688 576.675781 351.128906 669.152344 C 351.128906 674.84375 351.128906 680.058594 351.128906 686.222656 C 351.128906 691.441406 346.859375 695.707031 341.644531 695.707031 Z M 341.644531 695.707031 " fill-opacity="1" fill-rule="evenodd"/><path fill="#000000" d="M 401.386719 559.601562 C 386.6875 559.601562 369.621094 556.757812 350.179688 550.589844 C 347.332031 549.644531 344.964844 547.746094 344.015625 544.902344 C 328.367188 499.375 331.210938 461.433594 351.601562 432.503906 C 389.535156 379.867188 477.253906 371.804688 526.089844 371.804688 C 540.316406 371.804688 549.796875 372.75 549.796875 372.75 C 554.066406 372.75 557.382812 376.070312 558.332031 379.867188 C 559.28125 384.132812 557.382812 388.402344 554.066406 390.296875 C 517.554688 411.640625 502.855469 446.257812 489.105469 479.457031 C 472.984375 518.816406 455.914062 559.601562 401.386719 559.601562 Z M 360.609375 533.992188 C 375.785156 538.261719 389.535156 540.632812 401.386719 540.632812 C 443.113281 540.632812 454.96875 512.179688 471.5625 472.34375 C 482.941406 444.835938 495.746094 414.484375 521.347656 390.773438 C 482.46875 391.246094 399.964844 397.886719 367.25 443.886719 C 350.652344 466.175781 348.757812 496.527344 360.609375 533.992188 Z M 360.609375 533.992188 " fill-opacity="1" fill-rule="evenodd"/><path fill="#000000" d="M 341.644531 631.210938 C 338.800781 631.210938 336.429688 630.261719 334.53125 627.890625 L 298.96875 587.582031 L 246.8125 529.726562 C 243.019531 525.929688 243.492188 519.765625 247.289062 516.445312 C 251.082031 513.125 257.246094 513.125 260.5625 516.921875 L 313.195312 574.777344 L 348.757812 615.5625 C 352.074219 619.355469 351.601562 625.519531 347.808594 628.839844 C 345.910156 630.261719 343.539062 631.210938 341.644531 631.210938 Z M 341.644531 631.210938 " fill-opacity="1" fill-rule="evenodd"/><g clip-path="url(#86be816424)"><path fill="#000000" d="M 513.761719 810 L 149.609375 810 C 125.902344 810 106.9375 790.554688 106.9375 766.84375 C 106.9375 743.605469 125.902344 724.164062 149.609375 724.164062 C 150.558594 724.164062 151.507812 724.164062 151.980469 724.164062 C 152.457031 695.234375 176.164062 671.996094 205.085938 671.996094 C 213.621094 671.996094 221.683594 673.894531 229.269531 677.6875 C 238.277344 660.613281 255.820312 649.707031 276.210938 649.707031 C 297.074219 649.707031 315.566406 661.5625 324.101562 679.585938 C 329.789062 677.6875 335.480469 676.738281 341.644531 676.738281 C 351.601562 676.738281 361.085938 679.109375 369.144531 684.328125 C 379.101562 672.472656 393.800781 665.355469 409.921875 665.355469 C 420.355469 665.355469 430.785156 668.675781 439.320312 674.367188 C 447.378906 670.097656 455.914062 668.203125 464.449219 668.203125 C 493.847656 668.203125 517.554688 691.914062 517.554688 720.84375 C 517.554688 722.265625 517.554688 723.214844 517.554688 724.164062 C 539.367188 726.058594 556.910156 744.554688 556.910156 766.84375 C 556.910156 790.554688 537.46875 810 513.761719 810 Z M 149.609375 743.132812 C 136.335938 743.132812 125.902344 754.039062 125.902344 766.84375 C 125.902344 780.121094 136.335938 791.03125 149.609375 791.03125 L 513.761719 791.03125 C 527.039062 791.03125 537.945312 780.121094 537.945312 766.84375 C 537.945312 754.039062 527.039062 743.132812 513.761719 743.132812 C 511.867188 743.132812 509.96875 743.605469 508.074219 744.082031 C 504.753906 744.554688 501.433594 743.605469 499.0625 741.234375 C 496.691406 738.863281 495.746094 735.070312 496.691406 731.75 C 498.113281 728.429688 498.589844 724.636719 498.589844 720.84375 C 498.589844 702.347656 483.417969 687.171875 464.449219 687.171875 C 457.335938 687.171875 450.226562 689.542969 444.535156 693.8125 C 440.742188 696.183594 436 696.183594 432.683594 692.863281 C 426.519531 687.171875 418.457031 684.328125 409.921875 684.328125 C 397.121094 684.328125 385.742188 690.964844 380.050781 702.347656 C 378.628906 705.191406 375.785156 706.617188 372.9375 707.089844 C 370.09375 707.5625 367.25 707.089844 364.878906 704.71875 C 358.714844 699.027344 350.179688 695.707031 341.644531 695.707031 C 335.007812 695.707031 328.84375 697.132812 323.625 700.925781 C 320.78125 702.347656 317.9375 702.820312 315.089844 701.398438 C 312.246094 700.449219 309.875 697.605469 309.402344 694.761719 C 305.609375 679.109375 292.332031 668.675781 276.210938 668.675781 C 260.089844 668.675781 246.8125 679.109375 243.019531 694.761719 C 242.546875 698.078125 239.699219 700.449219 236.855469 701.398438 C 233.535156 702.347656 230.21875 701.875 227.371094 699.503906 C 221.207031 694.285156 213.621094 690.964844 205.085938 690.964844 C 186.59375 690.964844 170.949219 706.140625 170.949219 725.109375 C 170.949219 727.957031 171.421875 731.277344 172.371094 734.121094 C 173.320312 737.914062 172.371094 741.710938 169.527344 744.082031 C 166.679688 746.453125 162.886719 746.925781 159.570312 745.503906 C 156.25 744.082031 152.929688 743.132812 149.609375 743.132812 Z M 149.609375 743.132812 " fill-opacity="1" fill-rule="evenodd"/></g><path fill="#000000" d="M 461.605469 744.082031 L 202.242188 744.082031 C 197.027344 744.082031 192.757812 739.8125 192.757812 734.597656 C 192.757812 729.378906 197.027344 725.109375 202.242188 725.109375 L 461.605469 725.109375 C 466.820312 725.109375 471.089844 729.378906 471.089844 734.597656 C 471.089844 739.8125 466.820312 744.082031 461.605469 744.082031 Z M 461.605469 744.082031 " fill-opacity="1" fill-rule="evenodd"/><path fill="#000000" d="M 475.828125 325.328125 C 475.355469 325.328125 474.882812 325.328125 474.40625 324.855469 C 471.5625 324.378906 468.71875 322.957031 467.296875 320.585938 L 357.765625 130.414062 C 356.34375 128.042969 355.867188 124.726562 357.292969 122.355469 C 358.238281 119.507812 360.136719 117.609375 362.980469 116.664062 L 406.601562 102.910156 C 410.398438 101.488281 415.136719 103.382812 417.507812 107.179688 L 517.554688 280.273438 C 519.453125 284.070312 518.976562 288.8125 515.660156 292.132812 L 481.992188 322.484375 C 480.097656 324.378906 478.199219 325.328125 475.828125 325.328125 Z M 380.050781 130.890625 L 477.726562 300.667969 L 497.167969 283.121094 L 404.707031 123.300781 Z M 380.050781 130.890625 " fill-opacity="1" fill-rule="evenodd"/><path fill="#000000" d="M 505.703125 288.335938 C 502.382812 288.335938 499.0625 286.914062 497.640625 283.59375 L 404.707031 122.828125 C 402.335938 119.035156 402.808594 115.238281 405.179688 111.921875 C 453.070312 51.691406 518.03125 14.226562 597.6875 0.472656 C 601.957031 0 605.75 1.898438 607.644531 5.214844 L 700.578125 166.457031 C 702.949219 169.777344 702.476562 174.046875 699.632812 177.367188 C 647.949219 239.964844 582.988281 277.429688 507.125 288.335938 C 506.648438 288.335938 506.175781 288.335938 505.703125 288.335938 Z M 424.148438 118.558594 L 510.917969 268.894531 C 578.246094 257.511719 633.722656 224.789062 681.140625 170.25 L 594.367188 20.390625 C 523.71875 34.144531 467.769531 66.394531 424.148438 118.558594 Z M 424.148438 118.558594 " fill-opacity="1" fill-rule="evenodd"/><path fill="#000000" d="M 661.222656 210.085938 C 657.90625 210.085938 655.058594 208.191406 653.164062 205.34375 L 550.273438 27.03125 C 547.425781 22.761719 549.324219 16.597656 553.589844 14.226562 C 558.332031 11.382812 564.023438 13.277344 566.867188 17.546875 L 669.757812 195.859375 C 672.128906 200.128906 670.707031 206.292969 665.964844 208.664062 C 664.542969 209.613281 663.121094 210.085938 661.222656 210.085938 Z M 661.222656 210.085938 " fill-opacity="1" fill-rule="evenodd"/><path fill="#000000" d="M 359.1875 291.183594 C 357.765625 291.183594 356.34375 291.183594 354.921875 290.234375 C 350.179688 288.335938 348.28125 282.644531 350.652344 277.902344 L 359.1875 259.410156 C 361.558594 254.667969 367.25 252.296875 371.988281 254.667969 C 376.730469 257.039062 378.628906 262.726562 376.257812 267.472656 L 367.722656 285.964844 C 365.824219 289.285156 362.507812 291.183594 359.1875 291.183594 Z M 359.1875 291.183594 " fill-opacity="1" fill-rule="evenodd"/><path fill="#000000" d="M 384.792969 324.378906 C 383.371094 324.378906 381.945312 324.378906 380.523438 323.90625 C 375.785156 321.535156 373.886719 315.84375 376.257812 311.101562 L 384.792969 292.605469 C 387.164062 287.863281 392.851562 285.964844 397.59375 287.863281 C 402.335938 290.234375 404.234375 295.925781 401.863281 300.667969 L 393.328125 319.164062 C 391.429688 322.484375 388.109375 324.378906 384.792969 324.378906 Z M 384.792969 324.378906 " fill-opacity="1" fill-rule="evenodd"/><path fill="#000000" d="M 331.210938 362.320312 C 329.789062 362.320312 328.367188 361.84375 326.945312 361.371094 C 322.203125 359 320.308594 353.308594 322.679688 348.566406 L 331.6875 330.070312 C 333.582031 325.328125 339.273438 323.429688 344.015625 325.800781 C 348.757812 328.171875 350.652344 333.390625 348.757812 338.132812 L 339.746094 357.101562 C 338.324219 360.421875 334.53125 362.320312 331.210938 362.320312 Z M 331.210938 362.320312 " fill-opacity="1" fill-rule="evenodd"/><path fill="#000000" d="M 321.730469 267.472656 C 320.78125 267.472656 319.359375 266.996094 317.9375 266.523438 C 313.195312 264.152344 311.296875 258.460938 313.195312 253.71875 L 322.203125 235.222656 C 324.574219 230.480469 330.265625 228.582031 335.007812 230.953125 C 339.746094 232.851562 341.644531 238.542969 339.273438 243.285156 L 330.738281 261.78125 C 328.84375 265.574219 325.523438 267.472656 321.730469 267.472656 Z M 321.730469 267.472656 " fill-opacity="1" fill-rule="evenodd"/><path fill="#000000" d="M 288.539062 330.542969 C 287.117188 330.542969 285.695312 330.542969 284.746094 330.070312 C 280.003906 327.699219 278.105469 322.007812 280.003906 317.265625 L 289.011719 298.769531 C 291.382812 294.027344 297.074219 292.132812 301.816406 294.027344 C 306.554688 296.398438 308.453125 302.089844 306.082031 306.832031 L 297.074219 325.328125 C 295.652344 328.648438 292.332031 330.542969 288.539062 330.542969 Z M 288.539062 330.542969 " fill-opacity="1" fill-rule="evenodd"/><path fill="#000000" d="M 282.847656 428.710938 C 281.425781 428.710938 280.003906 428.238281 278.582031 427.761719 C 273.839844 425.390625 271.941406 419.703125 274.3125 414.960938 L 283.324219 396.464844 C 285.21875 391.722656 290.910156 389.824219 295.652344 391.722656 C 300.390625 394.09375 302.761719 399.785156 300.390625 404.527344 L 291.382812 423.019531 C 289.960938 426.339844 286.640625 428.710938 282.847656 428.710938 Z M 282.847656 428.710938 " fill-opacity="1" fill-rule="evenodd"/><path fill="#000000" d="M 365.351562 381.761719 C 363.929688 381.761719 362.507812 381.761719 361.085938 380.8125 C 356.34375 378.917969 354.445312 373.226562 356.816406 368.484375 L 365.351562 349.515625 C 367.722656 345.246094 373.414062 342.875 378.152344 345.246094 C 382.894531 347.617188 384.792969 353.308594 382.421875 358.050781 L 373.886719 376.546875 C 371.988281 379.867188 368.671875 381.761719 365.351562 381.761719 Z M 365.351562 381.761719 " fill-opacity="1" fill-rule="evenodd"/><path fill="#000000" d="M 263.410156 380.339844 C 261.984375 380.339844 260.5625 379.867188 259.140625 379.390625 C 254.398438 377.019531 252.503906 371.328125 254.875 366.585938 L 263.410156 348.089844 C 265.777344 343.347656 271.46875 341.453125 276.210938 343.347656 C 280.953125 345.71875 282.847656 351.410156 280.953125 356.152344 L 271.941406 374.648438 C 270.046875 377.96875 266.726562 380.339844 263.410156 380.339844 Z M 263.410156 380.339844 " fill-opacity="1" fill-rule="evenodd"/><g clip-path="url(#cdcabcac05)"><g clip-path="url(#290da1fa3e)"><g transform="matrix(1, 0, 0, 1, 424, 536)"><g clip-path="url(#9fa6b6454b)"><g clip-path="url(#4106552143)"><g clip-path="url(#ecc6818617)"><path fill="#2f2f2f" d="M 0.859375 0.535156 L 14.855469 0.535156 L 14.855469 14.53125 L 0.859375 14.53125 Z M 0.859375 0.535156 " fill-opacity="1" fill-rule="nonzero"/></g></g></g></g></g></g></svg>