<svg xmlns="http://www.w3.org/2000/svg" xmlns:xlink="http://www.w3.org/1999/xlink" width="1080" zoomAndPan="magnify" viewBox="0 0 810 809.999993" height="1080" preserveAspectRatio="xMidYMid meet" version="1.0"><defs><clipPath id="db80563f39"><path d="M 0 0 L 685.5 0 L 685.5 810 L 0 810 Z M 0 0 " clip-rule="nonzero"/></clipPath><clipPath id="10428aed33"><path d="M 221.796875 305.199219 L 235.789062 305.199219 L 235.789062 319.195312 L 221.796875 319.195312 Z M 221.796875 305.199219 " clip-rule="nonzero"/></clipPath><clipPath id="b5cbe5b174"><path d="M 228.792969 305.199219 C 224.929688 305.199219 221.796875 308.332031 221.796875 312.195312 C 221.796875 316.0625 224.929688 319.195312 228.792969 319.195312 C 232.65625 319.195312 235.789062 316.0625 235.789062 312.195312 C 235.789062 308.332031 232.65625 305.199219 228.792969 305.199219 Z M 228.792969 305.199219 " clip-rule="nonzero"/></clipPath><clipPath id="124825d9fd"><path d="M 0.796875 0.199219 L 14.789062 0.199219 L 14.789062 14.195312 L 0.796875 14.195312 Z M 0.796875 0.199219 " clip-rule="nonzero"/></clipPath><clipPath id="f7c62c07e5"><path d="M 7.792969 0.199219 C 3.929688 0.199219 0.796875 3.332031 0.796875 7.195312 C 0.796875 11.0625 3.929688 14.195312 7.792969 14.195312 C 11.65625 14.195312 14.789062 11.0625 14.789062 7.195312 C 14.789062 3.332031 11.65625 0.199219 7.792969 0.199219 Z M 7.792969 0.199219 " clip-rule="nonzero"/></clipPath><clipPath id="aae1f50b66"><rect x="0" width="15" y="0" height="15"/></clipPath></defs><g clip-path="url(#db80563f39)"><path fill="#000000" d="M 259.722656 809.269531 C 392.890625 809.269531 502.625 709.03125 517.652344 579.890625 C 511.472656 580.421875 505.242188 580.695312 498.933594 580.695312 C 378.632812 580.695312 281.074219 483.179688 281.074219 362.867188 C 281.074219 292.933594 314.050781 230.695312 365.308594 190.828125 L 268.441406 5.410156 C 266.707031 2.082031 263.488281 0.125 259.722656 0.125 C 255.957031 0.125 252.738281 2.082031 250.984375 5.410156 L 26.761719 434.628906 C 9.652344 469.285156 0 508.292969 0 549.566406 C 0 693 116.277344 809.269531 259.722656 809.269531 Z M 474.21875 393.648438 L 574.871094 283.0625 C 579.128906 278.382812 586.421875 278.054688 591.082031 282.292969 L 611.339844 300.71875 C 616 304.960938 616.347656 312.253906 612.105469 316.933594 L 485.296875 456.253906 L 485.097656 456.472656 L 484.878906 456.675781 L 484.675781 456.894531 L 484.457031 457.074219 L 484.238281 457.277344 L 484.019531 457.460938 L 483.796875 457.625 L 483.796875 457.644531 L 483.578125 457.808594 L 483.5625 457.808594 L 483.339844 457.972656 L 483.324219 457.972656 L 483.105469 458.117188 L 482.867188 458.28125 L 482.628906 458.429688 L 482.371094 458.554688 L 482.117188 458.703125 L 481.878906 458.832031 L 481.625 458.941406 L 481.367188 459.050781 L 481.113281 459.160156 L 480.855469 459.269531 L 480.601562 459.359375 L 480.582031 459.359375 L 480.324219 459.453125 L 480.070312 459.527344 L 480.050781 459.527344 L 479.796875 459.597656 L 479.539062 459.671875 L 479.519531 459.671875 L 479.246094 459.726562 L 478.992188 459.78125 L 478.71875 459.835938 L 478.441406 459.871094 L 478.167969 459.910156 L 477.894531 459.945312 L 477.621094 459.964844 L 477.347656 459.980469 L 477.070312 460 L 476.523438 460 L 476.25 459.980469 L 475.683594 459.945312 L 475.410156 459.910156 L 475.132812 459.871094 L 474.878906 459.835938 L 474.328125 459.726562 L 474.054688 459.671875 L 473.507812 459.523438 L 473.25 459.433594 L 472.976562 459.359375 L 472.722656 459.25 L 472.464844 459.160156 L 472.464844 459.140625 L 472.210938 459.050781 L 472.210938 459.03125 L 471.933594 458.921875 L 471.953125 458.921875 L 471.699219 458.792969 L 471.441406 458.667969 L 471.1875 458.539062 L 470.949219 458.390625 L 470.691406 458.246094 L 470.453125 458.101562 L 470.21875 457.933594 L 469.980469 457.753906 L 469.761719 457.585938 L 469.523438 457.40625 L 469.304688 457.203125 L 469.082031 457.019531 L 394.390625 389.0625 C 389.710938 384.800781 389.382812 377.507812 393.625 372.828125 L 412.050781 352.59375 C 416.308594 347.933594 423.585938 347.585938 428.265625 351.828125 Z M 498.933594 176.625 C 601.796875 176.625 685.1875 260.011719 685.1875 362.867188 C 685.1875 465.722656 601.796875 549.089844 498.933594 549.089844 C 396.074219 549.089844 312.679688 465.722656 312.679688 362.867188 C 312.679688 260.011719 396.074219 176.625 498.933594 176.625 Z M 201.316406 244.109375 C 171.394531 284.285156 105.054688 387.671875 81.035156 472.191406 C 46.777344 592.632812 170.882812 644.066406 188.742188 503.027344 C 196.894531 438.523438 185.890625 346.582031 201.316406 244.109375 Z M 201.316406 244.109375 " fill-opacity="1" fill-rule="evenodd"/></g><g clip-path="url(#10428aed33)"><g clip-path="url(#b5cbe5b174)"><g transform="matrix(1, 0, 0, 1, 221, 305)"><g clip-path="url(#aae1f50b66)"><g clip-path="url(#124825d9fd)"><g clip-path="url(#f7c62c07e5)"><path fill="#2f2f2f" d="M 0.796875 0.199219 L 14.789062 0.199219 L 14.789062 14.195312 L 0.796875 14.195312 Z M 0.796875 0.199219 " fill-opacity="1" fill-rule="nonzero"/></g></g></g></g></g></g></svg>