<svg xmlns="http://www.w3.org/2000/svg" xmlns:xlink="http://www.w3.org/1999/xlink" width="1080" zoomAndPan="magnify" viewBox="0 0 810 809.999993" height="1080" preserveAspectRatio="xMidYMid meet" version="1.0"><defs><clipPath id="c61a4dff76"><path d="M 331.679688 491.675781 L 349.054688 491.675781 L 349.054688 509.054688 L 331.679688 509.054688 Z M 331.679688 491.675781 " clip-rule="nonzero"/></clipPath><clipPath id="4ae3ef7cf7"><path d="M 340.367188 491.675781 C 335.570312 491.675781 331.679688 495.566406 331.679688 500.363281 C 331.679688 505.164062 335.570312 509.054688 340.367188 509.054688 C 345.167969 509.054688 349.054688 505.164062 349.054688 500.363281 C 349.054688 495.566406 345.167969 491.675781 340.367188 491.675781 Z M 340.367188 491.675781 " clip-rule="nonzero"/></clipPath><clipPath id="7c0e3707ae"><path d="M 0.679688 0.675781 L 18.054688 0.675781 L 18.054688 18.054688 L 0.679688 18.054688 Z M 0.679688 0.675781 " clip-rule="nonzero"/></clipPath><clipPath id="4220e59ef0"><path d="M 9.367188 0.675781 C 4.570312 0.675781 0.679688 4.566406 0.679688 9.363281 C 0.679688 14.164062 4.570312 18.054688 9.367188 18.054688 C 14.167969 18.054688 18.054688 14.164062 18.054688 9.363281 C 18.054688 4.566406 14.167969 0.675781 9.367188 0.675781 Z M 9.367188 0.675781 " clip-rule="nonzero"/></clipPath><clipPath id="ff6e7f646f"><rect x="0" width="19" y="0" height="19"/></clipPath></defs><path fill="#000000" d="M 406.46875 334.292969 L 353.378906 334.292969 L 353.378906 579.046875 L 502.175781 579.046875 C 507.839844 555.960938 511.945312 531.316406 514.210938 505.679688 C 515.34375 507.234375 516.476562 508.792969 517.464844 510.210938 C 524.6875 520.550781 531.480469 530.039062 537.710938 538.398438 C 535.730469 552.277344 533.039062 565.875 530.066406 579.046875 L 627.613281 579.046875 C 643.613281 541.511719 652.390625 500.152344 652.390625 456.671875 C 652.390625 447.605469 651.964844 438.683594 651.257812 429.902344 C 655.363281 423.527344 659.328125 417.152344 663.289062 410.777344 C 666.972656 405.113281 670.371094 399.449219 673.765625 393.921875 C 677.589844 414.179688 679.570312 435.28125 679.570312 456.671875 C 679.570312 644.34375 527.375 796.609375 339.785156 796.609375 C 152.195312 796.609375 0 644.34375 0 456.671875 C 0 268.996094 152.195312 116.734375 339.785156 116.734375 C 348.140625 116.734375 356.492188 117.015625 364.703125 117.582031 C 361.589844 126.648438 359.039062 135.996094 357.199219 145.484375 C 355.925781 145.34375 354.652344 145.0625 353.378906 144.917969 L 353.378906 307.097656 L 392.3125 307.097656 C 396.699219 315.878906 401.371094 324.945312 406.46875 334.292969 Z M 326.195312 334.292969 L 177.398438 334.292969 C 168.195312 371.6875 163.097656 413.046875 163.097656 456.671875 C 163.097656 500.296875 168.195312 541.65625 177.398438 579.046875 L 326.195312 579.046875 Z M 326.195312 768.421875 L 326.195312 606.242188 L 185.042969 606.242188 C 213.640625 697.035156 266.875 760.066406 326.195312 768.421875 Z M 353.378906 768.421875 C 412.699219 760.066406 465.929688 697.035156 494.53125 606.242188 L 353.378906 606.242188 Z M 326.195312 144.917969 C 266.875 153.277344 213.640625 216.304688 185.042969 307.097656 L 326.195312 307.097656 Z M 51.957031 579.046875 L 149.503906 579.046875 C 140.726562 541.089844 135.914062 499.871094 135.914062 456.671875 C 135.914062 413.46875 140.726562 372.253906 149.503906 334.292969 L 51.957031 334.292969 C 35.960938 371.828125 27.183594 413.1875 27.183594 456.671875 C 27.183594 500.152344 35.960938 541.511719 51.957031 579.046875 Z M 65.125 606.242188 C 102.644531 674.796875 164.9375 727.769531 239.972656 753.125 C 204.011719 719.414062 174.847656 668.140625 156.726562 606.242188 Z M 614.445312 606.242188 L 522.847656 606.242188 C 504.722656 668.140625 475.558594 719.414062 439.597656 753.125 C 514.632812 727.769531 576.929688 674.796875 614.445312 606.242188 Z M 65.125 307.097656 L 156.726562 307.097656 C 174.847656 245.199219 204.011719 193.925781 239.972656 160.214844 C 164.9375 185.570312 102.644531 238.542969 65.125 307.097656 Z M 591.652344 466.867188 C 584.855469 476.5 578.484375 485.421875 572.824219 493.214844 C 569.28125 497.886719 566.875 501.144531 565.601562 502.988281 C 561.355469 508.371094 553.144531 508.371094 548.894531 502.988281 C 547.621094 501.144531 545.214844 497.886719 541.675781 493.214844 C 536.011719 485.421875 529.640625 476.5 522.847656 466.867188 C 503.167969 439.105469 483.628906 409.929688 465.222656 380.609375 C 453.472656 361.769531 442.570312 343.5 432.945312 325.9375 C 399.390625 265.878906 380.558594 217.722656 380.558594 184.71875 C 380.558594 87.128906 459.703125 7.953125 557.25 7.953125 C 654.796875 7.953125 733.9375 87.128906 733.9375 184.71875 C 733.9375 217.722656 715.109375 265.878906 681.554688 325.9375 C 671.925781 343.5 661.023438 361.769531 649.273438 380.609375 C 630.871094 409.929688 611.332031 439.105469 591.652344 466.867188 Z M 540.402344 443.78125 C 546.914062 452.988281 557.25 466.867188 557.25 466.867188 C 557.25 466.867188 567.585938 452.988281 574.097656 443.78125 C 592.644531 417.4375 611.191406 389.816406 628.605469 362.054688 C 639.648438 344.207031 649.980469 326.925781 659.042969 310.496094 C 689.625 255.683594 706.753906 211.914062 706.753906 184.71875 C 706.753906 102.144531 639.789062 35.148438 557.25 35.148438 C 474.710938 35.148438 407.742188 102.144531 407.742188 184.71875 C 407.742188 211.914062 424.875 255.683594 455.453125 310.496094 C 464.515625 326.925781 474.851562 344.207031 485.894531 362.054688 C 503.308594 389.816406 521.855469 417.4375 540.402344 443.78125 Z M 557.25 252.707031 C 519.730469 252.707031 489.292969 222.253906 489.292969 184.71875 C 489.292969 147.1875 519.730469 116.734375 557.25 116.734375 C 594.765625 116.734375 625.207031 147.1875 625.207031 184.71875 C 625.207031 222.253906 594.765625 252.707031 557.25 252.707031 Z M 557.25 225.511719 C 579.761719 225.511719 598.023438 207.242188 598.023438 184.71875 C 598.023438 162.199219 579.761719 143.929688 557.25 143.929688 C 534.738281 143.929688 516.476562 162.199219 516.476562 184.71875 C 516.476562 207.242188 534.738281 225.511719 557.25 225.511719 Z M 557.25 225.511719 " fill-opacity="1" fill-rule="evenodd"/><g clip-path="url(#c61a4dff76)"><g clip-path="url(#4ae3ef7cf7)"><g transform="matrix(1, 0, 0, 1, 331, 491)"><g clip-path="url(#ff6e7f646f)"><g clip-path="url(#7c0e3707ae)"><g clip-path="url(#4220e59ef0)"><path fill="#000000" d="M 0.679688 0.675781 L 18.054688 0.675781 L 18.054688 18.054688 L 0.679688 18.054688 Z M 0.679688 0.675781 " fill-opacity="1" fill-rule="nonzero"/></g></g></g></g></g></g></svg>