<svg xmlns="http://www.w3.org/2000/svg" xmlns:xlink="http://www.w3.org/1999/xlink" width="1080" zoomAndPan="magnify" viewBox="0 0 810 809.999993" height="1080" preserveAspectRatio="xMidYMid meet" version="1.0"><defs><clipPath id="0756f7a5c5"><path d="M 222.738281 457.867188 L 240.117188 457.867188 L 240.117188 475.246094 L 222.738281 475.246094 Z M 222.738281 457.867188 " clip-rule="nonzero"/></clipPath><clipPath id="a96cb2bae9"><path d="M 231.429688 457.867188 C 226.628906 457.867188 222.738281 461.757812 222.738281 466.554688 C 222.738281 471.355469 226.628906 475.246094 231.429688 475.246094 C 236.226562 475.246094 240.117188 471.355469 240.117188 466.554688 C 240.117188 461.757812 236.226562 457.867188 231.429688 457.867188 Z M 231.429688 457.867188 " clip-rule="nonzero"/></clipPath><clipPath id="a1869d5216"><path d="M 0.738281 0.867188 L 18.117188 0.867188 L 18.117188 18.246094 L 0.738281 18.246094 Z M 0.738281 0.867188 " clip-rule="nonzero"/></clipPath><clipPath id="341dc974cb"><path d="M 9.429688 0.867188 C 4.628906 0.867188 0.738281 4.757812 0.738281 9.554688 C 0.738281 14.355469 4.628906 18.246094 9.429688 18.246094 C 14.226562 18.246094 18.117188 14.355469 18.117188 9.554688 C 18.117188 4.757812 14.226562 0.867188 9.429688 0.867188 Z M 9.429688 0.867188 " clip-rule="nonzero"/></clipPath><clipPath id="57a1804f56"><rect x="0" width="19" y="0" height="19"/></clipPath></defs><path fill="#121209" d="M 636.554688 302.882812 C 587.859375 252.164062 524.007812 220.605469 454.882812 212.683594 C 483.292969 182.949219 513.328125 154.3125 548.519531 134.367188 C 552.265625 132.253906 554.246094 127.988281 553.457031 123.757812 C 552.667969 119.527344 549.277344 116.269531 545.027344 115.648438 C 520.515625 112.023438 493.148438 104.285156 464.167969 96.074219 C 393.882812 76.183594 314.195312 53.652344 252.878906 86.773438 C 241.328125 93.019531 230.648438 100.492188 220.824219 108.800781 C 181.066406 44.773438 133.179688 34.984375 86.789062 25.535156 C 61.820312 20.429688 38.230469 15.628906 16.300781 2.300781 C 12.441406 -0.0507812 7.472656 0.46875 4.164062 3.574219 C 0.871094 6.679688 0.03125 11.601562 2.148438 15.613281 C 21.339844 52.058594 23.925781 85.449219 26.425781 117.746094 C 30.992188 176.707031 35.308594 232.457031 141.996094 282.367188 C 142.164062 283.355469 142.3125 284.382812 142.5 285.320312 C 146.328125 303.601562 157.003906 314.800781 171.8125 316.042969 C 176.011719 316.394531 179.941406 314.113281 181.753906 310.335938 C 213.738281 243.082031 267.636719 209.695312 319.789062 193.660156 C 267.117188 229.4375 204.808594 284.617188 188.753906 320.121094 C 144.796875 373.558594 120.585938 441.058594 120.585938 510.375 C 120.585938 675.597656 255.027344 810.015625 420.277344 810.015625 C 585.527344 810.015625 719.96875 675.597656 719.96875 510.375 C 720 432.632812 690.367188 358.933594 636.554688 302.882812 Z M 519.726562 248.925781 C 521.421875 259.285156 521.539062 267.644531 520.078125 274.375 C 517.964844 284.0625 512.355469 286.882812 498.050781 291.917969 C 483.425781 297.074219 472.496094 307.75 467.289062 321.96875 C 462.203125 335.835938 462.875 352.488281 468.785156 367.394531 C 434.179688 384.097656 398.113281 380.574219 359.09375 356.703125 C 381.878906 332.140625 382.867188 308.722656 377.898438 291.164062 C 396.570312 274.980469 414.902344 255.355469 433.792969 235.09375 C 434.953125 233.851562 436.109375 232.609375 437.269531 231.382812 C 466.214844 233.113281 493.902344 239.15625 519.726562 248.925781 Z M 299.707031 372.230469 C 296.9375 373.320312 295.558594 373.875 294.367188 374.582031 L 292.03125 375.957031 C 281.4375 382.203125 276.117188 385.324219 272.691406 390.480469 C 268.558594 396.691406 269.164062 402.835938 270.003906 411.363281 C 270.1875 413.242188 270.40625 415.375 270.589844 417.792969 C 272.085938 436.257812 292.46875 439.261719 304.660156 441.058594 C 308.4375 441.613281 312.367188 442.199219 314.332031 442.921875 C 328.046875 448.007812 335.386719 448.714844 339.769531 449.132812 C 340.558594 449.203125 341.496094 449.300781 341.949219 449.386719 C 343.882812 450.796875 349.675781 458.535156 353.921875 464.226562 C 374.589844 491.859375 388.628906 492.394531 404.5625 484.304688 C 410.472656 481.300781 411.394531 480.828125 417.691406 488.132812 C 418.800781 489.40625 419.789062 493.035156 419.234375 499.378906 C 417.238281 522.613281 397.960938 557.800781 389.703125 564.550781 C 368.746094 581.707031 363.792969 590.183594 367.621094 602.355469 C 368.195312 604.183594 368.3125 604.519531 366.851562 607.257812 C 365.507812 609.773438 358.21875 615.816406 352.898438 620.234375 C 335.703125 634.484375 312.164062 654.011719 323.179688 675.785156 C 324.941406 679.273438 324.40625 681.222656 321.296875 688.039062 C 320.140625 690.605469 318.847656 693.425781 317.804688 696.632812 C 310.871094 702.527344 306.890625 703.246094 305.699219 702.746094 C 303.132812 701.636719 294.703125 693.746094 294.265625 639.070312 C 293.929688 595.875 275.59375 581.101562 263.457031 571.332031 C 258.46875 567.320312 255.632812 564.933594 255.296875 562.566406 C 254.992188 560.367188 253.96875 558.371094 252.457031 556.859375 C 252.675781 554.476562 253.71875 550.011719 255.898438 544.472656 C 256.066406 544.035156 256.386719 543.230469 256.554688 542.070312 C 265.136719 484.152344 238.035156 458.9375 220.101562 442.25 C 210.214844 433.050781 204.621094 427.527344 204.90625 421.199219 C 206.402344 386.347656 195.957031 377.855469 184.171875 371.59375 C 181.46875 370.148438 180.226562 369.496094 179.539062 368.335938 C 185.902344 357.542969 193.003906 347.132812 200.828125 337.246094 C 212.464844 339.007812 224.117188 339.898438 235.9375 339.898438 C 265.203125 339.898438 295.375 334.457031 328.433594 323.378906 C 328.652344 323.3125 328.871094 323.226562 329.089844 323.128906 C 339.667969 318.746094 349.925781 312.703125 360 305.417969 C 361.140625 320.945312 353.335938 335.851562 336.34375 350.675781 C 336.058594 350.910156 335.804688 351.179688 335.554688 351.449219 C 326 361.839844 307.582031 369.125 299.707031 372.230469 Z M 46.542969 116.1875 C 44.5625 90.535156 42.359375 62.199219 31.328125 31.828125 C 48.390625 38.257812 65.785156 41.800781 82.777344 45.277344 C 127.65625 54.425781 170.117188 63.085938 205.816406 122.835938 C 185.699219 143.566406 170.152344 167.890625 159.304688 192.082031 C 149.316406 162.738281 132.507812 135.125 113.519531 105.59375 C 110.511719 100.910156 104.285156 99.566406 99.597656 102.570312 C 94.914062 105.578125 93.570312 111.804688 96.578125 116.488281 C 120.789062 154.160156 141.289062 188.421875 147.066406 226.0625 C 143.839844 237.914062 141.894531 249.246094 141.207031 259.601562 C 54.28125 216.15625 50.839844 171.71875 46.542969 116.1875 Z M 382.769531 181.054688 C 387.503906 179.257812 390.171875 174.238281 389.011719 169.320312 C 387.855469 164.402344 383.222656 161.09375 378.183594 161.613281 C 329.980469 166.515625 287.363281 180.316406 251.535156 202.660156 C 215.601562 225.070312 187.464844 255.523438 167.75 293.277344 C 165.265625 290.863281 163.417969 286.816406 162.242188 281.191406 C 154.132812 242.363281 186.003906 145.785156 262.449219 104.503906 C 316.582031 75.277344 388.8125 95.707031 458.675781 115.464844 C 478.792969 121.15625 498.152344 126.628906 516.585938 130.757812 C 479.511719 156.578125 447.695312 190.691406 419.066406 221.359375 C 385.789062 257.035156 354.339844 290.726562 321.75 304.359375 C 282.042969 317.621094 246.984375 322.1875 212.683594 318.441406 C 241.410156 274.226562 337.25 198.277344 382.769531 181.054688 Z M 420.3125 789.855469 C 266.175781 789.855469 140.769531 664.46875 140.769531 510.359375 C 140.769531 467.148438 150.859375 424.707031 169.765625 386.433594 C 171.527344 387.625 173.257812 388.546875 174.769531 389.355469 C 180.496094 392.390625 185.882812 395.246094 184.808594 420.292969 C 184.121094 436.226562 195.453125 446.765625 206.417969 456.957031 C 223.761719 473.089844 243.390625 491.355469 236.828125 537.972656 C 232.058594 550.378906 231.085938 559.796875 233.921875 565.976562 C 234.578125 567.386719 235.414062 568.644531 236.40625 569.738281 C 238.992188 577.425781 245.003906 582.277344 250.847656 586.976562 C 261.640625 595.671875 273.882812 605.527344 274.152344 639.1875 C 274.4375 676.605469 277.492188 712.429688 297.726562 721.195312 C 300.5625 722.417969 303.5 723.023438 306.539062 723.023438 C 314.800781 723.023438 323.851562 718.523438 333.539062 709.59375 C 335 708.25 336.023438 706.503906 336.492188 704.574219 C 337.164062 701.835938 338.375 699.167969 339.667969 696.332031 C 342.972656 689.0625 347.492188 679.105469 341.179688 666.632812 C 337.417969 659.214844 355.164062 644.492188 365.777344 635.710938 C 374.539062 628.441406 381.457031 622.71875 384.664062 616.675781 C 389.667969 607.273438 388.425781 601.214844 386.863281 596.277344 C 386.796875 596.074219 386.730469 595.824219 386.664062 595.605469 C 387.351562 594.28125 390.289062 590.101562 402.496094 580.09375 C 416.601562 568.542969 437 528.152344 439.335938 501.074219 C 440.308594 489.761719 438.160156 480.964844 432.953125 474.9375 C 417.625 457.191406 405.550781 461.1875 395.445312 466.324219 C 391.398438 468.390625 389.667969 469.113281 387.636719 468.574219 C 385.183594 467.9375 379.660156 464.949219 370.058594 452.140625 C 356.472656 433.976562 353.652344 430.199219 341.664062 429.054688 C 338.039062 428.722656 332.582031 428.199219 321.332031 424.019531 C 317.371094 422.542969 312.617188 421.855469 307.582031 421.097656 C 303.316406 420.460938 291.964844 418.800781 290.707031 416.433594 C 290.691406 416.414062 290.671875 416.316406 290.65625 416.128906 C 290.453125 413.578125 290.234375 411.328125 290.035156 409.347656 C 289.734375 406.207031 289.378906 402.667969 289.566406 401.457031 C 290.839844 399.996094 296.382812 396.742188 302.242188 393.28125 L 304.304688 392.058594 C 304.828125 391.820312 306.070312 391.335938 307.09375 390.933594 C 314.851562 387.875 331.390625 381.3125 344 370.988281 C 371.738281 388.851562 398.871094 397.816406 425.195312 397.816406 C 446.386719 397.816406 467.054688 392.023438 487.085938 380.421875 C 489.402344 379.078125 491.097656 376.863281 491.769531 374.277344 C 492.457031 371.695312 492.074219 368.921875 490.730469 366.625 C 483.746094 354.722656 482.015625 340.25 486.179688 328.867188 C 489.371094 320.140625 495.617188 314.09375 504.714844 310.890625 C 518.230469 306.136719 535.039062 300.210938 539.738281 278.625 C 541.066406 272.511719 541.46875 265.664062 540.984375 257.992188 C 620.234375 295.761719 678.378906 369.628906 694.984375 458.199219 C 665.734375 457.898438 654.621094 449.707031 642.933594 441.078125 C 634.1875 434.613281 625.152344 427.949219 609.972656 425.3125 C 572.144531 418.75 540.664062 426.136719 523.621094 445.574219 C 510.054688 461.035156 506.746094 482.894531 514.320312 507.117188 C 528.945312 553.972656 555.941406 554.746094 573.808594 555.265625 C 588.785156 555.703125 594.394531 555.851562 597.429688 575.042969 C 600.722656 595.859375 595.902344 602.640625 590.800781 609.824219 C 582.859375 620.988281 577.484375 631.480469 586.25 655.972656 C 593.199219 675.398438 604.753906 691.277344 621.359375 704.273438 C 570.535156 757.019531 499.191406 789.855469 420.3125 789.855469 Z M 634.90625 689.28125 C 620.769531 678.484375 611.03125 665.308594 605.273438 649.226562 C 599.363281 632.691406 602.167969 628.726562 607.269531 621.542969 C 613.484375 612.8125 621.980469 600.859375 617.378906 571.933594 C 611.71875 536.246094 590.160156 535.625 574.429688 535.171875 C 558.074219 534.699219 543.9375 534.296875 533.59375 501.160156 C 529.785156 488.9375 527.582031 471.695312 538.816406 458.90625 C 551.125 444.871094 575.824219 439.882812 606.582031 445.207031 C 617.058594 447.019531 623.203125 451.570312 630.996094 457.328125 C 643.90625 466.863281 659.757812 478.578125 698.039062 478.378906 C 699.230469 488.886719 699.851562 499.546875 699.851562 510.375 C 699.851562 578.363281 675.421875 640.765625 634.90625 689.28125 Z M 634.90625 689.28125 " fill-opacity="1" fill-rule="nonzero"/><g clip-path="url(#0756f7a5c5)"><g clip-path="url(#a96cb2bae9)"><g transform="matrix(1, 0, 0, 1, 222, 457)"><g clip-path="url(#57a1804f56)"><g clip-path="url(#a1869d5216)"><g clip-path="url(#341dc974cb)"><path fill="#000000" d="M 0.738281 0.867188 L 18.117188 0.867188 L 18.117188 18.246094 L 0.738281 18.246094 Z M 0.738281 0.867188 " fill-opacity="1" fill-rule="nonzero"/></g></g></g></g></g></g></svg>