<svg xmlns="http://www.w3.org/2000/svg" xmlns:xlink="http://www.w3.org/1999/xlink" width="1080" zoomAndPan="magnify" viewBox="0 0 810 809.999993" height="1080" preserveAspectRatio="xMidYMid meet" version="1.0"><defs><clipPath id="46a66bc735"><path d="M 200.199219 551.777344 L 217.578125 551.777344 L 217.578125 569.15625 L 200.199219 569.15625 Z M 200.199219 551.777344 " clip-rule="nonzero"/></clipPath><clipPath id="2e15f87837"><path d="M 208.890625 551.777344 C 204.089844 551.777344 200.199219 555.667969 200.199219 560.46875 C 200.199219 565.265625 204.089844 569.15625 208.890625 569.15625 C 213.6875 569.15625 217.578125 565.265625 217.578125 560.46875 C 217.578125 555.667969 213.6875 551.777344 208.890625 551.777344 Z M 208.890625 551.777344 " clip-rule="nonzero"/></clipPath><clipPath id="f35cf68697"><path d="M 0.199219 0.777344 L 17.578125 0.777344 L 17.578125 18.15625 L 0.199219 18.15625 Z M 0.199219 0.777344 " clip-rule="nonzero"/></clipPath><clipPath id="5e83cac11d"><path d="M 8.890625 0.777344 C 4.089844 0.777344 0.199219 4.667969 0.199219 9.46875 C 0.199219 14.265625 4.089844 18.15625 8.890625 18.15625 C 13.6875 18.15625 17.578125 14.265625 17.578125 9.46875 C 17.578125 4.667969 13.6875 0.777344 8.890625 0.777344 Z M 8.890625 0.777344 " clip-rule="nonzero"/></clipPath><clipPath id="49ee452203"><rect x="0" width="18" y="0" height="19"/></clipPath></defs><path fill="#000000" d="M 405 0 C 359.859375 0 316.40625 7.59375 275.695312 21.304688 C 275.273438 21.304688 274.851562 21.515625 274.429688 21.726562 C 114.960938 76.148438 0 227.390625 0 405 C 0 568.6875 97.664062 710.015625 237.9375 773.71875 C 238.148438 773.929688 238.359375 774.140625 238.570312 774.351562 C 239.414062 774.773438 240.46875 775.195312 241.523438 775.40625 C 291.515625 797.554688 346.78125 810 405 810 C 628.382812 810 810 628.382812 810 405 C 810 181.617188 628.382812 0 405 0 Z M 750.9375 252.703125 C 744.820312 247.21875 738.492188 240.679688 732.796875 234.773438 C 713.8125 214.734375 694.195312 194.0625 671.203125 195.328125 C 659.179688 195.960938 648.421875 202.5 639.140625 214.734375 C 619.523438 240.257812 645.257812 262.195312 666.140625 279.703125 C 684.703125 295.523438 705.796875 313.453125 709.59375 336.023438 C 714.445312 366.609375 691.03125 405.210938 672.257812 436.21875 C 659.601562 457.101562 649.476562 473.765625 647.367188 487.476562 C 646.3125 495.914062 644.414062 505.828125 642.515625 516.796875 C 637.453125 545.273438 630.914062 580.710938 630.914062 611.296875 C 630.914062 637.453125 617.414062 650.320312 608.765625 652.21875 C 603.703125 653.273438 601.804688 650.953125 600.539062 648.421875 C 598.21875 643.78125 597.164062 640.40625 596.109375 637.453125 C 589.359375 619.101562 584.507812 615.304688 530.71875 585.351562 C 470.601562 552.023438 479.039062 536.203125 488.53125 518.0625 C 490.429688 514.265625 492.539062 510.890625 494.4375 507.304688 C 506.039062 487.476562 520.171875 462.585938 495.703125 433.898438 C 478.617188 413.859375 463.851562 419.34375 448.242188 425.25 C 434.53125 430.3125 413.648438 437.90625 374.835938 437.90625 C 348.890625 437.90625 328.851562 430.945312 315.773438 417.023438 C 295.945312 395.929688 294.46875 364.078125 295.523438 346.78125 C 296.367188 332.648438 313.03125 322.523438 330.960938 311.976562 C 349.101562 301.21875 367.875 290.039062 375.46875 271.265625 C 379.054688 262.40625 383.695312 259.664062 386.648438 258.398438 C 400.992188 252.492188 428.625 262.617188 448.242188 271.054688 C 473.554688 281.390625 496.757812 282.234375 515.742188 273.796875 C 532.40625 266.414062 544.851562 252.070312 551.8125 232.242188 C 561.726562 203.765625 536.203125 190.6875 519.117188 181.828125 C 507.304688 175.710938 495.070312 169.382812 491.90625 160.3125 C 486.632812 145.335938 474.609375 136.054688 459 135 C 435.585938 133.101562 407.320312 149.554688 394.875 172.546875 C 383.484375 193.640625 371.460938 194.0625 356.90625 187.945312 C 344.460938 182.671875 339.1875 170.648438 340.453125 161.367188 C 341.929688 151.453125 349.945312 145.335938 363.023438 144.070312 C 435.585938 136.6875 450.140625 98.085938 449.71875 67.078125 C 449.296875 45.5625 461.953125 36.703125 473.34375 33.328125 C 597.796875 56.109375 701.15625 140.0625 750.9375 252.703125 Z M 272.742188 50.835938 C 275.90625 60.117188 271.054688 65.8125 268.734375 68.34375 C 263.882812 73.828125 256.921875 78.046875 248.90625 83.109375 C 227.601562 96.1875 201.023438 112.640625 197.015625 162.84375 C 195.117188 184.359375 180.140625 203.132812 156.515625 212.835938 C 136.6875 221.0625 108 223.171875 82.898438 207.351562 C 126.773438 136.265625 193.429688 80.578125 272.742188 50.835938 Z M 28.265625 434.53125 C 37.125 434.320312 49.359375 435.585938 58.429688 441.914062 C 65.390625 446.765625 69.398438 453.9375 71.085938 463.851562 C 72.773438 473.976562 73.828125 483.046875 74.671875 491.0625 C 78.046875 523.125 81.210938 553.5 132.679688 549.28125 C 160.945312 547.171875 183.304688 551.390625 193.851562 561.09375 C 199.125 565.734375 201.65625 571.851562 201.65625 579.234375 C 201.65625 584.71875 195.75 591.46875 189.84375 598.007812 C 179.296875 610.03125 161.578125 630.28125 181.40625 654.960938 C 187.945312 663.1875 197.226562 669.9375 206.929688 676.898438 C 231.609375 694.828125 251.648438 709.382812 238.359375 744.1875 C 121.710938 686.601562 38.8125 570.585938 28.265625 434.53125 Z M 405 783 C 354.796875 783 306.914062 773.085938 263.039062 755.15625 C 284.765625 700.3125 248.0625 673.3125 222.960938 655.171875 C 214.523438 649.054688 206.71875 643.359375 202.5 638.085938 C 197.859375 632.390625 197.4375 630.492188 210.304688 615.9375 C 218.53125 606.445312 228.867188 594.84375 228.65625 579.023438 C 228.445312 564.046875 222.75 550.96875 212.203125 541.265625 C 195.328125 526.078125 167.273438 519.539062 130.570312 522.492188 C 105.257812 524.390625 105.046875 521.648438 101.460938 488.109375 C 100.617188 479.671875 99.5625 470.179688 97.875 459.421875 C 94.921875 442.125 86.90625 428.625 73.828125 419.554688 C 58.640625 409.21875 40.078125 407.320312 27 407.53125 C 27 406.6875 27 405.84375 27 405 C 27 342.351562 42.398438 283.078125 69.609375 230.976562 C 86.273438 241.101562 105.257812 246.375 124.453125 246.375 C 138.585938 246.375 152.929688 243.632812 166.640625 237.9375 C 199.96875 224.226562 221.273438 197.015625 223.804688 165.164062 C 226.757812 128.460938 243.632812 117.914062 263.039062 105.890625 C 272.109375 100.40625 281.179688 94.710938 288.773438 86.484375 C 300.585938 73.40625 303.75 57.796875 298.476562 42.398438 C 332.226562 32.484375 368.085938 27 405 27 C 414.914062 27 424.828125 27.421875 434.53125 28.265625 C 427.570312 37.335938 422.296875 49.992188 422.71875 67.5 C 422.929688 86.0625 416.8125 111.585938 360.492188 117.070312 C 329.90625 120.234375 316.40625 139.851562 313.875 157.359375 C 310.289062 180.773438 324 203.554688 346.570312 212.835938 C 376.734375 225.492188 402.257812 215.789062 418.710938 185.203125 C 425.882812 172.125 444.023438 160.945312 456.890625 161.789062 C 461.953125 162.210938 464.695312 164.320312 466.382812 169.171875 C 473.132812 188.367188 491.695312 198.070312 506.882812 205.875 C 526.710938 216.210938 527.976562 218.742188 526.289062 223.382812 C 523.335938 232.03125 517.007812 243.632812 504.5625 249.117188 C 492.539062 254.601562 476.71875 253.546875 458.789062 245.953125 C 429.679688 233.71875 399.515625 223.804688 376.3125 233.507812 C 364.710938 238.359375 356.0625 247.640625 350.578125 260.929688 C 346.359375 271.265625 331.382812 280.125 317.039062 288.773438 C 295.101562 301.851562 270.210938 316.828125 268.523438 345.304688 C 267.257812 366.820312 269.367188 407.109375 296.15625 435.585938 C 314.71875 454.992188 341.085938 464.90625 374.835938 464.90625 C 418.5 464.90625 442.96875 456.046875 457.523438 450.5625 C 466.171875 447.398438 472.078125 447.609375 475.242188 451.40625 C 486.84375 464.90625 483.257812 472.921875 471.023438 494.015625 C 468.914062 497.601562 466.804688 501.398438 464.695312 505.40625 C 445.921875 540.84375 448.242188 570.585938 517.640625 608.976562 C 566.789062 636.398438 567.421875 637.875 570.585938 646.734375 C 572.0625 650.320312 573.539062 654.539062 576.28125 660.023438 C 582.1875 672.46875 593.367188 679.429688 606.445312 679.429688 C 609.1875 679.429688 611.929688 679.21875 614.671875 678.585938 C 635.554688 673.734375 657.914062 650.742188 657.914062 611.296875 C 657.914062 583.03125 664.03125 548.859375 669.09375 521.648438 C 670.992188 510.257812 672.890625 500.132812 674.15625 491.484375 C 675.421875 483.046875 685.546875 466.382812 695.25 450.140625 C 716.34375 415.546875 742.710938 372.09375 736.171875 331.804688 C 730.898438 299.320312 704.742188 277.171875 683.648438 259.242188 C 664.875 243.421875 657.070312 235.40625 660.445312 230.976562 C 664.664062 225.492188 668.882812 222.539062 672.46875 222.328125 C 683.226562 222.117188 699.890625 239.203125 713.179688 253.335938 C 729.632812 270.632812 746.507812 288.140625 765.703125 291.515625 C 776.882812 327.375 783 365.554688 783 405 C 783 613.40625 613.40625 783 405 783 Z M 405 783 " fill-opacity="1" fill-rule="nonzero"/><g clip-path="url(#46a66bc735)"><g clip-path="url(#2e15f87837)"><g transform="matrix(1, 0, 0, 1, 200, 551)"><g clip-path="url(#49ee452203)"><g clip-path="url(#f35cf68697)"><g clip-path="url(#5e83cac11d)"><path fill="#000000" d="M 0.199219 0.777344 L 17.578125 0.777344 L 17.578125 18.15625 L 0.199219 18.15625 Z M 0.199219 0.777344 " fill-opacity="1" fill-rule="nonzero"/></g></g></g></g></g></g></svg>